<svg xmlns="http://www.w3.org/2000/svg" width="16" height="16" fill="none" viewBox="0 0 16 16"><defs><clipPath id="a"><path fill="#fff" d="M412 1410h16v16h-16z"/></clipPath></defs><g clip-path="url(#a)" transform="translate(-412 -1410)"><path fill="currentColor" d="M417.6 1416.8H416v1.6h1.6zm3.2 0h-1.6v1.6h1.6zm-3.2-3.2H416v1.6h1.6zm3.2 0h-1.6v1.6h1.6zm3.2 0h-1.6v1.6h1.6zm-6.4-3.2H416v1.6h1.6zm3.2 0h-1.6v1.6h1.6zm3.2 0h-1.6v1.6h1.6zm-9.6 6.4h-1.6v1.6h1.6zm0-3.2h-1.6v1.6h1.6zm0-3.2h-1.6v1.6h1.6zm12.8 11.2-1.128-1.13-2.072 2.07v-5.74h-1.6v5.74l-2.072-2.07-1.128 1.13 4 4z"/></g></svg>