<svg xmlns="http://www.w3.org/2000/svg" width="16" height="16" fill="none" viewBox="0 0 16 16"><defs><clipPath id="a"><path fill="#fff" d="M732 682h16v16h-16z"/></clipPath></defs><g clip-path="url(#a)" transform="translate(-732 -682)"><path fill="currentColor" d="M747.2 685.2h-6.4v1.6h6.4zm0 8h-6.4v1.6h6.4zM736 682.8a3.2 3.2 0 1 0 0 6.4 3.2 3.2 0 1 0 0-6.4m-.44 4.696L734.08 686l.592-.6.888.896 1.776-1.792.592.6-2.36 2.392zm.44 4.904c.88 0 1.6.72 1.6 1.6s-.72 1.6-1.6 1.6-1.6-.72-1.6-1.6.72-1.6 1.6-1.6m0-1.6a3.2 3.2 0 1 0 0 6.4 3.2 3.2 0 1 0 0-6.4"/></g></svg>