<svg xmlns="http://www.w3.org/2000/svg" width="16" height="16" fill="none" viewBox="0 0 16 16"><defs><clipPath id="a"><path fill="#fff" d="M1372 1618h16v16h-16z"/></clipPath></defs><g clip-path="url(#a)" transform="translate(-1372 -1618)"><g fill="currentColor"><path d="m1387.38 1625.46-.84-.85c-.17-.16-.29-.37-.37-.6-.07-.22-.1-.46-.06-.7l.16-1.16c.02-.2-.03-.39-.15-.55a.74.74 0 0 0-.49-.3l-1.16-.2c-.24-.04-.46-.15-.65-.29-.2-.14-.36-.34-.47-.56l-.56-1.03a.82.82 0 0 0-.71-.41 1 1 0 0 0-.33.06l-1.06.52c-.22.11-.45.16-.69.16s-.47-.05-.69-.16l-1.06-.53a1 1 0 0 0-.33-.06c-.09 0-.18.02-.26.04-.19.06-.35.19-.45.37l-.56 1.03c-.11.22-.27.41-.47.56-.19.15-.42.25-.65.29l-1.16.2c-.19.03-.37.14-.49.3s-.18.35-.15.55l.16 1.16c.03.23.01.48-.06.71-.07.22-.2.43-.37.6l-.84.85c-.14.14-.22.33-.22.54s.08.4.22.54l.84.85c.17.17.29.38.37.6.07.23.1.47.06.71l-.16 1.16a.774.774 0 0 0 .64.85l1.16.2c.24.05.46.14.65.29.2.14.36.33.47.56l.56 1.03c.1.18.27.31.45.37.09.02.17.04.26.04q.165 0 .33-.06l1.06-.52c.22-.11.45-.16.69-.16s.47.05.69.16l1.06.52q.165.06.33.06c.09 0 .18-.02.26-.04.19-.06.35-.19.45-.37l.56-1.03c.11-.22.27-.41.47-.56.19-.15.42-.25.65-.29l1.16-.2c.19-.03.37-.14.49-.3s.18-.35.15-.55l-.16-1.16c-.04-.23-.01-.48.06-.71.07-.22.2-.43.37-.6l.84-.85c.14-.14.22-.33.22-.54s-.08-.4-.22-.54m-1.99.82c-.33.34-.6.78-.74 1.23-.15.47-.19.96-.12 1.42l.05.35-.4.08c-.48.08-.95.29-1.34.59-.38.29-.7.66-.91 1.1l-.18.33-.37-.17a3.18 3.18 0 0 0-2.78 0l-.36.17-.18-.33a3.04 3.04 0 0 0-.91-1.1c-.39-.3-.85-.51-1.35-.59l-.38-.07.04-.33c.08-.48.04-.97-.11-1.43a3.2 3.2 0 0 0-.75-1.24l-.26-.27.26-.27c.34-.34.6-.78.74-1.23.16-.47.2-.96.12-1.42l-.04-.35.39-.07c.48-.09.94-.29 1.33-.6.39-.28.7-.66.92-1.09l.17-.34.37.18c.43.2.91.32 1.39.32s.96-.12 1.39-.32l.36-.18.18.34c.22.42.54.81.91 1.09.39.3.86.5 1.35.6l.39.06-.05.33c-.07.48-.03.98.11 1.44.15.46.41.89.75 1.24l.27.27-.27.27z"/><path d="m1379.17 1628.81-2.77-2.8 1.1-1.12 1.67 1.68 3.33-3.37 1.1 1.13z"/></g></g></svg>