<svg xmlns="http://www.w3.org/2000/svg" width="20" height="20" fill="none" viewBox="0 0 20 20"><g fill="currentColor"><path d="m19.22 9.33-1.05-1.06c-.21-.21-.36-.47-.46-.75-.09-.28-.12-.58-.07-.88l.2-1.46a1 1 0 0 0-.19-.69.96.96 0 0 0-.61-.37l-1.45-.25c-.3-.05-.58-.18-.82-.36s-.44-.42-.58-.7l-.7-1.29c-.13-.22-.34-.38-.57-.46-.11-.03-.21-.05-.32-.05-.14 0-.28.03-.41.08l-1.33.65c-.27.13-.56.2-.86.2s-.59-.07-.86-.2l-1.33-.66A1.2 1.2 0 0 0 7.4 1a1.04 1.04 0 0 0-.89.51l-.7 1.29a1.95 1.95 0 0 1-1.4 1.06l-1.45.25a.96.96 0 0 0-.61.37c-.15.2-.22.44-.19.69l.2 1.46c.04.29.02.6-.07.88s-.25.54-.46.75L.78 9.32C.6 9.5.5 9.74.5 10s.1.5.28.68l1.05 1.06c.21.21.36.47.46.75.09.28.12.58.07.88l-.2 1.46c-.02.25.04.49.19.69s.37.33.61.37l1.45.25c.3.06.58.18.82.36s.44.42.58.7l.7 1.29c.13.22.34.38.57.46.11.03.21.05.32.05.14 0 .28-.03.41-.08l1.33-.65c.27-.13.56-.2.86-.2s.59.07.86.2l1.33.65c.13.05.27.08.41.08a1.04 1.04 0 0 0 .89-.51l.7-1.29a1.95 1.95 0 0 1 1.4-1.06l1.45-.25a.96.96 0 0 0 .61-.37c.15-.2.22-.44.19-.69l-.2-1.46a1.88 1.88 0 0 1 .53-1.63l1.05-1.06c.18-.18.28-.42.28-.68s-.1-.5-.28-.68zm-2.48 1.02a3.94 3.94 0 0 0-1.08 3.31l.06.44-.5.09c-.6.11-1.18.38-1.67.75-.48.36-.87.83-1.14 1.37l-.22.42-.46-.22c-.54-.26-1.14-.4-1.74-.4s-1.2.14-1.74.4l-.45.22-.22-.42a3.99 3.99 0 0 0-2.83-2.12l-.48-.08.06-.41c.09-.6.04-1.22-.14-1.79-.19-.58-.51-1.11-.94-1.55l-.33-.33.33-.34a3.94 3.94 0 0 0 1.08-3.31l-.06-.44.49-.09c.6-.11 1.18-.37 1.67-.75.48-.36.87-.83 1.14-1.37l.22-.42.46.22c.54.26 1.14.4 1.74.4s1.2-.14 1.74-.4l.45-.22.22.42c.27.53.67 1.01 1.14 1.37.49.37 1.07.63 1.69.75l.48.08-.06.41c-.09.6-.04 1.22.14 1.8.19.58.51 1.11.94 1.55l.33.33-.33.34z"/><path d="m8.96 13.51-3.46-3.5 1.38-1.4 2.08 2.1 4.16-4.2 1.38 1.4z"/></g></svg>