<svg xmlns="http://www.w3.org/2000/svg" width="24" height="24" fill="none" viewBox="0 0 24 24"><g fill="currentColor"><path d="M23.06 11.2 21.8 9.92c-.25-.25-.43-.56-.55-.9-.11-.34-.14-.7-.08-1.06l.24-1.74c.02-.3-.05-.59-.23-.83s-.44-.39-.73-.44l-1.74-.3c-.36-.06-.7-.22-.99-.43a2.5 2.5 0 0 1-.69-.85l-.84-1.55c-.16-.26-.41-.45-.69-.55-.13-.03-.25-.06-.38-.06-.17 0-.34.04-.49.1l-1.6.78c-.32.16-.67.24-1.03.24s-.71-.08-1.03-.24l-1.6-.79c-.15-.06-.32-.1-.49-.1-.13 0-.26.02-.38.06-.29.1-.53.29-.69.55l-.84 1.55c-.17.33-.39.62-.69.84-.29.22-.64.38-.99.44l-1.74.3c-.29.04-.55.2-.73.44s-.26.53-.23.83l.24 1.74c.05.35.03.72-.08 1.06s-.3.65-.55.9L.94 11.18c-.22.22-.34.51-.34.82s.12.6.34.82l1.26 1.27c.25.25.43.57.55.9.11.34.14.7.08 1.06l-.24 1.74c-.02.3.05.59.23.83s.44.4.73.44l1.74.3c.36.08.7.22.99.44.28.21.52.5.69.84l.84 1.55c.16.26.41.45.69.55.13.04.25.06.38.06.17 0 .34-.04.49-.1l1.6-.78c.32-.15.67-.24 1.03-.24s.71.09 1.03.24l1.6.78c.15.06.32.1.49.1.13 0 .26-.02.38-.06.29-.1.53-.29.69-.55l.84-1.55c.17-.33.39-.61.69-.84.29-.22.64-.38.99-.44l1.74-.3c.29-.04.55-.2.73-.44s.26-.53.23-.83l-.24-1.74c-.06-.35-.03-.72.08-1.06.11-.33.3-.65.55-.9l1.26-1.27c.22-.22.34-.51.34-.82s-.12-.6-.34-.82zm-2.97 1.22c-.51.52-.9 1.17-1.12 1.85-.23.7-.29 1.44-.18 2.13l.07.53-.6.1c-.72.14-1.41.45-2 .89-.58.44-1.04 1-1.37 1.65l-.26.5-.55-.26c-.65-.31-1.37-.48-2.09-.48s-1.44.17-2.09.48l-.54.26-.26-.5c-.33-.65-.81-1.21-1.37-1.65-.59-.44-1.29-.75-2.03-.89l-.58-.09.08-.49c.1-.73.04-1.47-.17-2.16-.23-.69-.61-1.33-1.13-1.86l-.4-.39.4-.41c.5-.52.9-1.17 1.12-1.85.22-.7.28-1.44.18-2.13l-.08-.53.59-.11c.72-.13 1.42-.43 2.01-.88.57-.44 1.04-1 1.36-1.65l.27-.5.55.26c.65.31 1.37.48 2.09.48s1.44-.17 2.09-.48l.54-.26.26.5c.32.64.8 1.21 1.37 1.65.59.44 1.28.74 2.03.88l.57.1-.07.49c-.11.72-.05 1.47.17 2.17.23.69.61 1.33 1.13 1.86l.39.39-.39.41z"/><path d="M10.75 16.22 6.6 12.01l1.66-1.68 2.49 2.52 4.99-5.04 1.66 1.68z"/></g></svg>