<svg xmlns="http://www.w3.org/2000/svg" width="16" height="16" fill="none" viewBox="0 0 16 16"><path fill="currentColor" d="M12 4v1.6h-1.6V4zm.8-1.6H9.6c-.44 0-.8.36-.8.8v3.2c0 .44.36.8.8.8h3.2c.44 0 .8-.36.8-.8V3.2c0-.44-.36-.8-.8-.8M5.6 4v1.6H4V4zm.8-1.6H3.2c-.44 0-.8.36-.8.8v3.2c0 .44.36.8.8.8h3.2c.44 0 .8-.36.8-.8V3.2c0-.44-.36-.8-.8-.8m4 6.4H8.8v1.6h1.6zm3.2 0H12v1.6h1.6zM10.4 12H8.8v1.6h1.6zm3.2 0H12v1.6h1.6zm-8-1.6V12H4v-1.6zm.8-1.6H3.2c-.44 0-.8.36-.8.8v3.2c0 .44.36.8.8.8h3.2c.44 0 .8-.36.8-.8V9.6c0-.44-.36-.8-.8-.8"/></svg>