<svg xmlns="http://www.w3.org/2000/svg" width="24" height="24" fill="none" viewBox="0 0 24 24"><path fill="currentColor" d="M18 6v2.4h-2.4V6zm1.2-2.4h-4.8c-.66 0-1.2.54-1.2 1.2v4.8c0 .66.54 1.2 1.2 1.2h4.8c.66 0 1.2-.54 1.2-1.2V4.8c0-.66-.54-1.2-1.2-1.2M8.4 6v2.4H6V6zm1.2-2.4H4.8c-.66 0-1.2.54-1.2 1.2v4.8c0 .66.54 1.2 1.2 1.2h4.8c.66 0 1.2-.54 1.2-1.2V4.8c0-.66-.54-1.2-1.2-1.2m6 9.6h-2.4v2.4h2.4zm4.8 0H18v2.4h2.4zM15.6 18h-2.4v2.4h2.4zm4.8 0H18v2.4h2.4zm-12-2.4V18H6v-2.4zm1.2-2.4H4.8c-.66 0-1.2.54-1.2 1.2v4.8c0 .66.54 1.2 1.2 1.2h4.8c.66 0 1.2-.54 1.2-1.2v-4.8c0-.66-.54-1.2-1.2-1.2"/></svg>