<svg xmlns="http://www.w3.org/2000/svg" width="16" height="16" fill="none" viewBox="0 0 16 16"><defs><clipPath id="a"><path fill="#fff" d="M1372 994h16v16h-16z"/></clipPath></defs><g clip-path="url(#a)" transform="translate(-1372 -994)"><path fill="currentColor" d="m1372.8 995.936 2.52 2.52c-1.68 1.594-2.52 3.544-2.52 3.544s2.4 5.6 7.2 5.6c1.33 0 2.46-.43 3.42-1.05l2.64 2.65 1.13-1.14-13.26-13.26zm5.04 5.044c-.15.31-.24.65-.24 1.02 0 1.33 1.07 2.4 2.4 2.4.37 0 .71-.09 1.02-.24l.36.35.88.87c-.67.37-1.42.62-2.26.62-2.83 0-4.7-2.74-5.41-4 .35-.62.98-1.59 1.85-2.416l1.39 1.396zM1380 998c2.83 0 4.7 2.74 5.41 4-.23.42-.61 1-1.09 1.58l1.14 1.14c1.16-1.38 1.74-2.72 1.74-2.72s-2.4-5.6-7.2-5.6c-.87 0-1.66.2-2.37.504l1.25 1.248c.35-.096.73-.152 1.12-.152"/></g></svg>