<svg xmlns="http://www.w3.org/2000/svg" width="20" height="20" fill="none" viewBox="0 0 20 20"><path fill="currentColor" d="m1 2.42 3.15 3.15C2.05 7.56 1 10 1 10s3 7 9 7c1.66 0 3.08-.54 4.27-1.31L17.58 19l1.41-1.42L2.41 1zm6.3 6.3c-.19.39-.3.82-.3 1.28 0 1.66 1.34 3 3 3 .46 0 .89-.11 1.28-.3l.44.44 1.1 1.09c-.83.46-1.77.77-2.82.77-3.54 0-5.87-3.42-6.76-5 .44-.78 1.22-1.99 2.31-3.02l1.74 1.74zM10 5c3.54 0 5.87 3.42 6.76 5-.29.52-.76 1.25-1.36 1.98l1.42 1.42C18.27 11.68 19 10 19 10s-3-7-9-7c-1.09 0-2.07.25-2.96.63L8.6 5.19C9.04 5.07 9.51 5 10 5"/></svg>