<svg xmlns="http://www.w3.org/2000/svg" width="24" height="24" fill="none" viewBox="0 0 24 24"><path fill="currentColor" d="m1.2 2.904 3.78 3.78C2.46 9.072 1.2 12 1.2 12s3.6 8.4 10.8 8.4c1.99 0 3.7-.65 5.12-1.57l3.98 3.97 1.69-1.7L2.89 1.2zm7.56 7.556c-.23.47-.36.99-.36 1.54 0 1.99 1.61 3.6 3.6 3.6.55 0 1.07-.13 1.54-.36l.52.53 1.32 1.31c-.99.55-2.12.92-3.38.92-4.25 0-7.04-4.1-8.11-6 .53-.94 1.46-2.388 2.77-3.624l2.09 2.084zM12 6c4.25 0 7.04 4.1 8.11 6-.35.62-.91 1.5-1.63 2.38l1.7 1.7C21.92 14.02 22.8 12 22.8 12S19.2 3.6 12 3.6c-1.31 0-2.48.3-3.55.756l1.87 1.872A6.4 6.4 0 0 1 12 6"/></svg>