<svg xmlns="http://www.w3.org/2000/svg" width="16" height="16" fill="none" viewBox="0 0 16 16"><defs><clipPath id="a"><path fill="#fff" d="M1372 786h16v16h-16z"/></clipPath></defs><g clip-path="url(#a)" transform="translate(-1372 -786)"><g fill="currentColor"><path d="M1380 786.8c-3.98 0-7.2 3.224-7.2 7.2s3.22 7.2 7.2 7.2 7.2-3.224 7.2-7.2-3.22-7.2-7.2-7.2m0 12.8c-3.09 0-5.6-2.512-5.6-5.6s2.51-5.6 5.6-5.6 5.6 2.512 5.6 5.6-2.51 5.6-5.6 5.6"/><path d="M1380 796.4c-.73 0-1 .448-1 1s.27 1 1 1 1-.448 1-1-.27-1-1-1m-.04-6.8c-1.3.008-2.36 1.088-2.36 2.4v.8h1.6v-.8c0-.44.36-.8.8-.8s.8.36.8.8v.4c0 .8-1.6 1.2-1.6 2.8v.4h1.6v-.4c0-1.2 1.59-1.2 1.59-3.2 0-1.2-.81-2.416-2.44-2.4z"/></g></g></svg>