<svg xmlns="http://www.w3.org/2000/svg" width="24" height="24" fill="none" viewBox="0 0 24 24"><g fill="currentColor"><path d="M12 1.2C6.04 1.2 1.2 6.036 1.2 12S6.04 22.8 12 22.8 22.8 17.964 22.8 12 17.96 1.2 12 1.2m0 19.2c-4.63 0-8.4-3.768-8.4-8.4S7.37 3.6 12 3.6s8.4 3.768 8.4 8.4-3.77 8.4-8.4 8.4"/><path d="M12 15.6c-1.09 0-1.5.672-1.5 1.5s.41 1.5 1.5 1.5 1.5-.672 1.5-1.5-.41-1.5-1.5-1.5m-.06-10.2C9.98 5.412 8.4 7.032 8.4 9v1.2h2.4V9c0-.66.54-1.2 1.2-1.2s1.2.54 1.2 1.2v.6c0 1.2-2.4 1.8-2.4 4.2v.6h2.4v-.6c0-1.8 2.39-1.8 2.39-4.8 0-1.8-1.21-3.624-3.66-3.6z"/></g></svg>