<svg xmlns="http://www.w3.org/2000/svg" width="16" height="16" fill="none" viewBox="0 0 16 16"><defs><clipPath id="a"><path fill="#fff" d="M1372 266h16v16h-16z"/></clipPath></defs><g clip-path="url(#a)" transform="translate(-1372 -266)"><g fill="currentColor"><path d="M1380.8 270v4.8h-1.6V270zm-1.76 7.04c0-.53.24-.96.96-.96s.96.43.96.96-.24.96-.96.96-.96-.43-.96-.96"/><path fill-rule="evenodd" d="M1380 281.2c4 0 7.2-3.2 7.2-7.2s-3.2-7.2-7.2-7.2-7.2 3.2-7.2 7.2 3.2 7.2 7.2 7.2m0-1.6c-3.12 0-5.6-2.48-5.6-5.6s2.48-5.6 5.6-5.6 5.6 2.48 5.6 5.6-2.48 5.6-5.6 5.6" clip-rule="evenodd"/></g></g></svg>