<svg xmlns="http://www.w3.org/2000/svg" width="16" height="16" fill="none" viewBox="0 0 16 16"><defs><clipPath id="a"><path fill="#fff" d="M1052 1306h16v16h-16z"/></clipPath></defs><g clip-path="url(#a)" transform="translate(-1052 -1306)"><g fill="currentColor"><path d="M1057.6 1313.2c1.75 0 2.8-1.26 2.8-2.8s-1.05-2.8-2.8-2.8-2.8 1.26-2.8 2.8 1.05 2.8 2.8 2.8m0-4c1.08 0 1.2.84 1.2 1.2s-.12 1.2-1.2 1.2-1.2-.84-1.2-1.2.12-1.2 1.2-1.2m.04 4.8c-3.25 0-5.71 2.74-5.64 6.4h11.2c.07-3.66-2.31-6.4-5.56-6.4m-2.73 2.74c.73-.74 1.67-1.14 2.73-1.14s1.95.38 2.66 1.1c.54.56.92 1.28 1.13 2.1h-7.65c.2-.8.59-1.5 1.13-2.06m7.67-2.28c1.48 1.51 2.26 3.61 2.22 5.94h3.2c.07-3.66-2.35-6.4-5.6-6.4-.12 0-.21.01-.33.02.18.14.35.28.51.44m-.58-4.06c0 .99-.3 1.86-.8 2.57.35.15.75.23 1.2.23 1.75 0 2.8-1.26 2.8-2.8s-1.05-2.8-2.8-2.8c-.44 0-.83.08-1.18.22.49.71.78 1.59.78 2.58"/><path d="M1057.6 1313.2c1.75 0 2.8-1.26 2.8-2.8s-1.05-2.8-2.8-2.8-2.8 1.26-2.8 2.8 1.05 2.8 2.8 2.8m0-4c1.08 0 1.2.84 1.2 1.2s-.12 1.2-1.2 1.2-1.2-.84-1.2-1.2.12-1.2 1.2-1.2m.04 4.8c-3.25 0-5.71 2.74-5.64 6.4h11.2c.07-3.66-2.31-6.4-5.56-6.4m-2.73 2.74c.73-.74 1.67-1.14 2.73-1.14s1.95.38 2.66 1.1c.54.56.92 1.28 1.13 2.1h-7.65c.2-.8.59-1.5 1.13-2.06"/></g></g></svg>