<svg xmlns="http://www.w3.org/2000/svg" width="20" height="20" fill="none" viewBox="0 0 20 20"><defs><clipPath id="a"><path fill="#fff" d="M1136 1304h20v20h-20z"/></clipPath></defs><g clip-path="url(#a)" transform="translate(-1136 -1304)"><g fill="currentColor"><path d="M1143 1313c2.19 0 3.5-1.57 3.5-3.5s-1.31-3.5-3.5-3.5-3.5 1.57-3.5 3.5 1.31 3.5 3.5 3.5m0-5c1.35 0 1.5 1.05 1.5 1.5s-.15 1.5-1.5 1.5-1.5-1.05-1.5-1.5.15-1.5 1.5-1.5m.05 6c-4.06 0-7.14 3.43-7.05 8h14c.09-4.57-2.89-8-6.95-8m-3.41 3.43c.91-.93 2.09-1.43 3.41-1.43s2.44.48 3.32 1.38c.68.7 1.16 1.59 1.42 2.62h-9.57c.26-1 .74-1.88 1.42-2.57m9.59-2.85c1.84 1.88 2.82 4.51 2.77 7.42h4c.09-4.57-2.94-8-7-8-.15 0-.26.01-.41.02.22.18.43.35.63.56zm-.73-5.08c0 1.24-.38 2.32-1 3.21.44.19.94.29 1.5.29 2.19 0 3.5-1.57 3.5-3.5s-1.31-3.5-3.5-3.5c-.55 0-1.04.1-1.47.27.61.89.97 1.99.97 3.23"/><path d="M1143 1313c2.19 0 3.5-1.57 3.5-3.5s-1.31-3.5-3.5-3.5-3.5 1.57-3.5 3.5 1.31 3.5 3.5 3.5m0-5c1.35 0 1.5 1.05 1.5 1.5s-.15 1.5-1.5 1.5-1.5-1.05-1.5-1.5.15-1.5 1.5-1.5m.05 6c-4.06 0-7.14 3.43-7.05 8h14c.09-4.57-2.89-8-6.95-8m-3.41 3.43c.91-.93 2.09-1.43 3.41-1.43s2.44.48 3.32 1.38c.68.7 1.16 1.59 1.42 2.62h-9.57c.26-1 .74-1.88 1.42-2.57"/></g></g></svg>