<svg xmlns="http://www.w3.org/2000/svg" width="24" height="24" fill="none" viewBox="0 0 24 24"><defs><clipPath id="a"><path fill="#fff" d="M1228 1302h24v24h-24z"/></clipPath></defs><g clip-path="url(#a)" transform="translate(-1228 -1302)"><g fill="currentColor"><path d="M1236.4 1312.8c2.63 0 4.2-1.88 4.2-4.2s-1.57-4.2-4.2-4.2-4.2 1.88-4.2 4.2 1.57 4.2 4.2 4.2m0-6c1.62 0 1.8 1.26 1.8 1.8s-.18 1.8-1.8 1.8-1.8-1.26-1.8-1.8.18-1.8 1.8-1.8m.06 7.2c-4.87 0-8.57 4.12-8.46 9.6h16.8c.11-5.48-3.47-9.6-8.34-9.6m-4.09 4.12a5.6 5.6 0 0 1 4.09-1.72c1.58 0 2.93.58 3.98 1.66.82.84 1.4 1.9 1.71 3.14h-11.49c.32-1.2.89-2.26 1.71-3.08m11.51-3.42c2.2 2.25 3.38 5.41 3.32 8.9h4.8c.11-5.48-3.53-9.6-8.4-9.6-.18 0-.31.01-.49.02.26.22.51.42.75.68zm-.88-6.1c0 1.49-.46 2.78-1.2 3.85.53.23 1.13.35 1.8.35 2.63 0 4.2-1.88 4.2-4.2s-1.57-4.2-4.2-4.2c-.66 0-1.25.12-1.76.32.73 1.07 1.16 2.39 1.16 3.88"/><path d="M1236.4 1312.8c2.63 0 4.2-1.88 4.2-4.2s-1.57-4.2-4.2-4.2-4.2 1.88-4.2 4.2 1.57 4.2 4.2 4.2m0-6c1.62 0 1.8 1.26 1.8 1.8s-.18 1.8-1.8 1.8-1.8-1.26-1.8-1.8.18-1.8 1.8-1.8m.06 7.2c-4.87 0-8.57 4.12-8.46 9.6h16.8c.11-5.48-3.47-9.6-8.34-9.6m-4.09 4.12a5.6 5.6 0 0 1 4.09-1.72c1.58 0 2.93.58 3.98 1.66.82.84 1.4 1.9 1.71 3.14h-11.49c.32-1.2.89-2.26 1.71-3.08"/></g></g></svg>