<svg xmlns="http://www.w3.org/2000/svg" width="24" height="24" fill="none" viewBox="0 0 24 24"><path fill="currentColor" d="M24 3H12v2h12zm0 4H12v2h12zm0 4H12v2h12zm0 4H0v2h24zm0 4H0v2h24zM0 3v10h12V3zm1.5 8-.5-.5.5-.5.5.5zm0-2L1 8.5l.5-.5.5.5zm0-2L1 6.5l.5-.5.5.5zm0-2L1 4.5l.5-.5.5.5zM3 12l-.5-.5.5-.5.5.5zm0-2-.5-.5L3 9l.5.5zm0-2-.5-.5L3 7l.5.5zm0-2-.5-.5L3 5l.5.5zm1.5 5-.5-.5.5-.5.5.5zm0-2L4 8.5l.5-.5.5.5zm0-2L4 6.5l.5-.5.5.5zm0-2L4 4.5l.5-.5.5.5zM6 12l-.5-.5.5-.5.5.5zm0-2-.5-.5L6 9l.5.5zm0-2-.5-.5L6 7l.5.5zm0-2-.5-.5L6 5l.5.5zm1.5 5-.5-.5.5-.5.5.5zm0-2L7 8.5l.5-.5.5.5zm0-2L7 6.5l.5-.5.5.5zm0-2L7 4.5l.5-.5.5.5zM9 12l-.5-.5.5-.5.5.5zm0-2-.5-.5L9 9l.5.5zm0-2-.5-.5L9 7l.5.5zm0-2-.5-.5L9 5l.5.5zm1.5 5-.5-.5.5-.5.5.5zm0-2-.5-.5.5-.5.5.5zm0-2-.5-.5.5-.5.5.5zm0-2-.5-.5.5-.5.5.5z"/></svg>