<svg xmlns="http://www.w3.org/2000/svg" width="40" height="40" fill="none" viewBox="0 0 40 40"><path fill="currentColor" d="M40 7H21v2h19zm0 4H21v2h19zm0 4H21v2h19zm0 4H21v2h19zm0 4H0v2h40zm0 4H0v2h40zm0 4H0v2h40zM0 7v14h21V7zm2.5 12-.5-.5.5-.5.5.5zm0-3-.5-.5.5-.5.5.5zm0-3-.5-.5.5-.5.5.5zm0-3L2 9.5l.5-.5.5.5zm2 7.5L4 17l.5-.5.5.5zm0-3L4 14l.5-.5.5.5zm0-3L4 11l.5-.5.5.5zm2 7.5-.5-.5.5-.5.5.5zm0-3-.5-.5.5-.5.5.5zm0-3-.5-.5.5-.5.5.5zm0-3L6 9.5l.5-.5.5.5zm2 7.5L8 17l.5-.5.5.5zm0-3L8 14l.5-.5.5.5zm0-3L8 11l.5-.5.5.5zm2 7.5-.5-.5.5-.5.5.5zm0-3-.5-.5.5-.5.5.5zm0-3-.5-.5.5-.5.5.5zm0-3-.5-.5.5-.5.5.5zm2 7.5L12 17l.5-.5.5.5zm0-3L12 14l.5-.5.5.5zm0-3L12 11l.5-.5.5.5zm2 7.5-.5-.5.5-.5.5.5zm0-3-.5-.5.5-.5.5.5zm0-3-.5-.5.5-.5.5.5zm0-3-.5-.5.5-.5.5.5zm2 7.5L16 17l.5-.5.5.5zm0-3L16 14l.5-.5.5.5zm0-3L16 11l.5-.5.5.5zm2 7.5-.5-.5.5-.5.5.5zm0-3-.5-.5.5-.5.5.5zm0-3-.5-.5.5-.5.5.5zm0-3-.5-.5.5-.5.5.5z"/></svg>