<svg id="Layer_1" data-name="Layer 1" xmlns="http://www.w3.org/2000/svg" viewBox="0 0 91.78 91.78"><defs><style>.cls-1{fill:#112e51;}.cls-2{fill:#e31c3d;}</style></defs><title>Splash-shield</title><path class="cls-1" d="M53.34,88.12A42.95,42.95,0,1,1,83,67.32l2.6,1.5A45.95,45.95,0,1,0,53.86,91.07Z"/><path class="cls-2" d="M45.89,66.86a.76.76,0,0,1-.3-.06c-9.91-4.38-13.4-10.24-14.23-11.93A3.16,3.16,0,0,1,31,53.48V34.07a4.71,4.71,0,0,1,4.69-4.71H56a4.71,4.71,0,0,1,4.7,4.71V53.48a3.16,3.16,0,0,1-.32,1.39c-.83,1.69-4.32,7.54-14.23,11.93A.76.76,0,0,1,45.89,66.86Zm-10.16-36a3.21,3.21,0,0,0-3.19,3.21V53.48a1.66,1.66,0,0,0,.16.73c.77,1.56,4,6.92,13.19,11.08,9.22-4.16,12.42-9.52,13.19-11.08a1.65,1.65,0,0,0,.16-.73V34.07A3.21,3.21,0,0,0,56,30.86Z"/><path class="cls-2" d="M45.92,54.29h0A22.78,22.78,0,0,1,42,54a.75.75,0,0,1-.61-.87l1.24-7.14a4.75,4.75,0,1,1,6.58,0l1.25,7.18a.75.75,0,0,1-.61.87A22.77,22.77,0,0,1,45.92,54.29ZM43,52.59a21.3,21.3,0,0,0,2.9.2h0a21.31,21.31,0,0,0,2.92-.2l-1.19-6.84a.75.75,0,0,1,.27-.71,3.25,3.25,0,1,0-4,0,.75.75,0,0,1,.28.72Z"/></svg>