<svg id="Layer_1" data-name="Layer 1" xmlns="http://www.w3.org/2000/svg" viewBox="0 0 91.78 90.77"><defs><style>.cls-1{fill:#112e51;}.cls-2{fill:#e31c3d;}</style></defs><title>Splash-check</title><path class="cls-1" d="M55.43,0l-.62,2.93A42.91,42.91,0,1,1,6.13,28.82L3.35,27.7A45.88,45.88,0,1,0,55.43,0Z"/><path class="cls-2" d="M45.89,63.36A18.48,18.48,0,1,1,64.14,44.88,18.39,18.39,0,0,1,45.89,63.36Zm0-35.46a17,17,0,1,0,16.75,17A16.88,16.88,0,0,0,45.89,27.91Z"/><path class="cls-2" d="M43.4,52.63a.75.75,0,0,1-.59-.29l-5.1-6.46A.75.75,0,1,1,38.88,45l4.51,5.72L53.79,37.5a.75.75,0,0,1,1.18.93L44,52.35A.75.75,0,0,1,43.4,52.63Z"/></svg>