<svg id="Layer_1" data-name="Layer 1" xmlns="http://www.w3.org/2000/svg" viewBox="0 0 85.61 91.78"><defs><style>.cls-1{fill:#112e51;}.cls-2{fill:#e31c3d;}</style></defs><title>Spalsh-gov</title><path class="cls-1" d="M39.72,0A45.59,45.59,0,0,0,16.79,6.17l1.5,2.6A42.88,42.88,0,1,1,2.6,67.32L0,68.82A45.88,45.88,0,1,0,39.72,0Z"/><path class="cls-2" d="M56.22,55.44h-16a.75.75,0,1,1,0-1.5H55.47V36.79H23.22a.75.75,0,0,1,0-1.5h33A.75.75,0,0,1,57,36V54.69A.75.75,0,0,1,56.22,55.44Z"/><path class="cls-2" d="M36.17,55.44H23.22a.75.75,0,0,1,0-1.5H36.17a.75.75,0,0,1,0,1.5Z"/><path class="cls-2" d="M42.67,66.27a1.14,1.14,0,0,1-.26,0,1.17,1.17,0,0,1-.74-.55l-1.71-3-1.07,1.05a1.17,1.17,0,0,1-1.18.28,1.16,1.16,0,0,1-.79-.9l-2-11.45a1.14,1.14,0,0,1,.57-1.21,1.17,1.17,0,0,1,1.35.15l8.89,7.85a1.16,1.16,0,0,1-.55,2l-1,.2,1.71,2.21h0a1.15,1.15,0,0,1-.28,1.67l-2.25,1.49A1.17,1.17,0,0,1,42.67,66.27Zm-2.56-5.5h.1a.75.75,0,0,1,.55.37l2,3.49,1.65-1.09-2.22-2.88a.75.75,0,0,1,.45-1.19l1.52-.29-7.65-6.76,1.75,9.86L39.58,61A.75.75,0,0,1,40.11,60.77Zm4.55,3.06h0Zm.08-.5h0Zm-6.35-.43h0ZM35.81,51.78h0Z"/><path class="cls-2" d="M26.94,47.75a.78.78,0,0,1,.8-.83.83.83,0,1,1-.8.83Z"/><path class="cls-2" d="M35.53,42.09c0,.46-.05,1-.05,1.74v3.68a3.61,3.61,0,0,1-.92,2.9,3.46,3.46,0,0,1-2.34.76,4.22,4.22,0,0,1-2.15-.52l.29-.88a3.68,3.68,0,0,0,1.89.5,1.92,1.92,0,0,0,2.08-2.21v-.71h0a2.31,2.31,0,0,1-2.05,1.06,2.85,2.85,0,0,1-2.74-3.09,3.06,3.06,0,0,1,2.9-3.37,2.15,2.15,0,0,1,2,1.1h0l.05-1Zm-1.21,2.5a1.62,1.62,0,0,0-.07-.52,1.68,1.68,0,0,0-1.64-1.22c-1.12,0-1.92.93-1.92,2.4,0,1.25.64,2.28,1.9,2.28a1.71,1.71,0,0,0,1.63-1.18,2,2,0,0,0,.09-.62Z"/><path class="cls-2" d="M43.25,45.21A3.12,3.12,0,0,1,40,48.58,3,3,0,0,1,37,45.31a3.12,3.12,0,0,1,3.2-3.37A3,3,0,0,1,43.25,45.21Zm-5.12.07c0,1.39.81,2.44,2,2.44s2-1,2-2.46c0-1.07-.55-2.44-1.93-2.44S38.14,44.07,38.14,45.27Z"/><path class="cls-2" d="M45.09,42.09l1.26,3.57a15.78,15.78,0,0,1,.52,1.63h0c.15-.52.33-1,.55-1.62l1.25-3.57h1.23l-2.53,6.34H46.29l-2.45-6.34Z"/></svg>