<svg width="649" height="649" viewBox="0 0 649 649" version="1.1" xmlns="http://www.w3.org/2000/svg" xmlns:xlink="http://www.w3.org/1999/xlink"><g id="Page-1" stroke="none" stroke-width="1" fill="none" fill-rule="evenodd"><g id="RRBLogo"><circle id="Oval" fill="#FFF" cx="324.5" cy="324.2" r="324.2"/><g id="Group" transform="translate(16.000000, 16.000000)"><g transform="translate(309.000000, 398.000000)" id="Shape"><polygon fill="#9D6527" fill-rule="nonzero" points="0.5 76.7 9.2 79.3 8.7 88.9 55 60.5 51.8 54.6"/><polygon fill="#9D6527" fill-rule="nonzero" points="129 12.3 134.8 16.6 137 25.5 165.5 0"/><path d="M46,60.8 L137.6,15.1" stroke="#9D6527" stroke-width="3"/></g><g transform="translate(309.000000, 427.000000)" id="Shape"><polygon fill="#9D6527" fill-rule="nonzero" points="0.8 21.7 8 26.7 4.7 35.2 55.5 22.8 54.3 16.6"/><polygon fill="#9D6527" fill-rule="nonzero" points="137.5 0.6 141.5 6.1 141 14.8 174.5 0"/><path d="M47.2,20.6 L144.5,5.6" stroke="#9D6527" stroke-width="3"/></g><g transform="translate(323.000000, 374.000000)" id="Shape"><polygon fill="#9D6527" fill-rule="nonzero" points="0.2 119 8.8 118.8 11.2 127.7 44.8 88.1 40.2 83.7"/><polygon fill="#9D6527" fill-rule="nonzero" points="97.5 22.6 104 24.7 108.7 32.2 127 0.6"/><path d="M36.8,91.1 L106.2,22.6" stroke="#9D6527" stroke-width="3"/></g><g id="Shape" stroke="#1F3D1C" stroke-width="6"><path d="M108.8,11.4 C108.8,11.4 123.5,13.5 124.9,24.6 C124.9,24.6 122.6,47.5 125.3,51.6 C125.3,51.6 111.2,34.7 111.9,26.8 C112.5,18.8 110.5,12.2 108.8,11.4 Z" stroke-linejoin="round" transform="translate(114.000000, 391.000000)"/><path d="M0.9,0.9 C0.9,0.9 2.4,25.8 21,23.7 C20.9,23.6 23.4,11.9 0.9,0.9 Z" stroke-linecap="round" transform="translate(114.000000, 391.000000)"/><path d="M14.9,30.6 C14.9,30.6 22.6,39.3 35,33.1 C34.9,33.1 29.7,23.8 14.9,30.6 Z" transform="translate(114.000000, 391.000000)"/><path d="M66.5,44.3 C66.5,44.3 54.7,42.2 50.3,47.2 C45.9,52.2 39.1,52 38.2,52.4 C38.2,52.4 58.8,62 66.5,44.3 Z" transform="translate(114.000000, 391.000000)"/><path d="M88,50.2 C88,50.2 76.2,48.5 71.6,52.1 C67,55.8 61.8,60.4 58.9,60.8 C58.9,60.8 81.8,64.5 88,50.2 Z" stroke-linejoin="round" transform="translate(114.000000, 391.000000)"/><path d="M103.5,55.6 C103.5,55.6 91.2,56.8 85,61.8 C78.8,66.8 75.4,67.2 74.6,67.4 C74.5,67.4 91.8,73.9 103.5,55.6 Z" stroke-linecap="round" transform="translate(114.000000, 391.000000)"/><path d="M50.1,38.3 C50.1,38.3 41.2,37.1 37.8,39.1 C34.4,41.1 26.4,40.8 26.4,40.8 C26.4,40.8 35.9,51.6 50.1,38.3 Z" transform="translate(114.000000, 391.000000)"/><path d="M111.5,48.7 C111.5,48.7 92,39.8 86.4,14.4 C86.3,14.4 107,19.6 111.5,48.7 Z" stroke-linecap="round" transform="translate(114.000000, 391.000000)"/><path d="M66.8,12.8 C66.8,12.8 69.3,36.5 90.3,44 C90.5,44.1 83,20 66.8,12.8 Z" stroke-linecap="round" transform="translate(114.000000, 391.000000)"/><path d="M48.2,11.3 C48.2,11.3 53.6,33.9 66.3,38.7 C66.2,38.7 66.2,18.8 48.2,11.3 Z" stroke-linecap="round" transform="translate(114.000000, 391.000000)"/><path d="M28.7,11.9 C28.7,11.9 33.5,29.8 48,32.7 C47.9,32.7 47.8,16.7 28.7,11.9 Z" stroke-linecap="round" transform="translate(114.000000, 391.000000)"/><path d="M117,55.4 C117,55.4 100.4,61.6 89.4,77.2 C89.5,77.2 112.2,73.6 117,55.4 Z" transform="translate(114.000000, 391.000000)"/><path d="M125.7,58.3 C125.7,58.3 107.8,73 105.5,87 C105.5,87.1 125.7,85.1 125.7,58.3 Z" transform="translate(114.000000, 391.000000)"/><path d="M129.5,54.9 C129.5,54.9 58.7,43.9 24.8,24" stroke-linecap="round" stroke-linejoin="round" transform="translate(114.000000, 391.000000)"/></g><path d="M173.5,184 C173.5,184 181,191.5 182.7,178 C182.7,178 194.9,173.8 197.1,163.1 C197.1,163.1 204,171.9 213.5,173.1 C213.5,173.1 209.3,183.8 210.1,185.8 C210.1,185.8 195.4,185.3 190.9,197.5 C190.9,197.5 175.5,192 179.2,210.7 C179.2,210.7 176,209.5 176.5,218.9 C176.5,218.9 172.8,221.1 173,225.4 C173,225.4 168,227.1 168,228.6 C168,228.6 168.2,215.4 167.5,213.7 C167.5,213.7 171.2,212.5 171.2,208 C171.2,207.9 172.2,203.8 173.5,184 Z" id="Shape" fill="#301716" fill-rule="nonzero"/><path d="M146.4,219.7 C146.4,219.7 141.4,257.3 145.7,256.6 C145.7,256.6 154.7,258.8 162.1,209 C162.1,209 169,274.6 134.2,304.3 C134.2,304.2 134.7,273.5 146.4,219.7 Z" id="Shape" fill="#301716" fill-rule="nonzero"/><path d="M151.1,287.9 C151.1,287.9 142.9,301.6 140.1,303.3 C140.1,303.3 144.5,379.8 134,367.1 L131.8,354.9 L132.6,388.8 C132.7,388.8 160.4,379.1 151.1,287.9 Z" id="Shape" fill="#301716" fill-rule="nonzero"/><path d="M139.9,392.4 C139.9,392.4 178.9,397.1 163.6,265.1 C163.6,265.1 158.6,279.4 154.9,281.8 C154.9,281.8 168.2,347.1 139.9,392.4 Z" id="Shape" fill="#301716" fill-rule="nonzero"/><path d="M165.6,263.1 C165.6,263.1 174.6,258.4 175.3,254.1 C175.3,254.1 190.6,344.4 162.6,378.8 C162.6,378.8 179.5,326.1 165.6,263.1 Z" id="Shape" fill="#301716" fill-rule="nonzero"/><path d="M177.2,247.1 C177.2,247.1 184.2,241.4 184.2,239.8 C184.2,238.1 203.2,321.5 175.2,368.1 C175.2,368.1 191.8,304.8 177.2,247.1 Z" id="Shape" fill="#301716" fill-rule="nonzero"/><path d="M187.2,235.1 C187.2,235.1 191.5,230.1 192.5,225.4 C192.5,225.4 214.5,309.4 189.8,338.1 C189.8,338.1 199.5,281.4 187.2,235.1 Z" id="Shape" fill="#301716" fill-rule="nonzero"/><path d="M247.8,300.1 C247.8,300.1 249.1,309.4 251.1,313.4 C251.1,313.4 242.8,321.7 231.1,319.1 C231.2,319.1 247.5,304.4 247.8,300.1 Z" id="Shape" fill="#301716" fill-rule="nonzero"/><path d="M245.2,283.8 C245.2,283.8 246.2,296.5 246.9,297.5 C246.9,297.5 231.2,325.8 214.9,315.2 C214.9,315.2 236.6,299.2 236.2,283.9 C236.2,283.8 243.2,284.8 245.2,283.8 Z" id="Shape" fill="#301716" fill-rule="nonzero"/><path d="M233.2,283.4 C233.2,283.4 228.5,308.1 209.9,312.1 C209.9,312.1 203.9,310.1 204.6,303.4 C204.6,303.4 220.9,294.1 223.9,278.1 C223.8,278.1 229.2,282.1 233.2,283.4 Z" id="Shape" fill="#301716" fill-rule="nonzero"/><path d="M221.5,276.4 C221.5,276.4 214.5,295.7 206.2,298.4 L205.9,282.4 C205.9,282.4 216.6,272.4 216.6,270.1 C216.5,270.1 220.2,276.8 221.5,276.4 Z" id="Shape" fill="#301716" fill-rule="nonzero"/><path d="M202.2,256.4 C202.2,256.4 205.5,275.1 205.2,278.7 C205.2,278.7 213.5,271 213.9,268 C213.9,268 207.9,260.7 205.2,255.7 L202.2,256.4 Z" id="Shape" fill="#301716" fill-rule="nonzero"/><path d="M243.2,268.1 C243.2,268.1 242.2,278.8 243.5,280.8 C243.5,280.8 237.8,282.8 229.2,277.1 C229.2,277.1 237.5,270.1 238.2,268.1 L243.2,268.1 Z" id="Shape" fill="#301716" fill-rule="nonzero"/><path d="M208.2,234.4 C208.2,234.4 201.5,242.7 198.9,239.1 C198.9,239.1 197.2,228.1 197.6,226.8 L201.9,224.8 C201.8,224.8 207.2,235.1 208.2,234.4 Z" id="Shape" fill="#301716" fill-rule="nonzero"/><path d="M226.8,233.8 C226.8,233.8 220.5,253.8 231.5,256.8 C231.5,256.8 231.8,244.5 232.5,242.1 C233.2,239.7 226.2,234.8 226.8,233.8 Z" id="Shape" fill="#301716" fill-rule="nonzero"/><path d="M216.2,215.4 C216.2,215.4 211.9,226.4 212.2,231.4 C212.2,231.4 195.9,226.1 210.9,204.4 C210.8,204.4 214.8,214.8 216.2,215.4 Z" id="Shape" fill="#301716" fill-rule="nonzero"/><path d="M203.2,210.8 C203.2,210.8 200.9,217.5 201.9,219.8 C202.9,222.1 195.6,224.5 195.6,218.8 C195.5,218.8 192.8,213.8 203.2,210.8 Z" id="Shape" fill="#301716" fill-rule="nonzero"/><path d="M198.2,195.4 C198.2,195.4 202.9,209.4 194.9,211.7 L193.6,199.4 L198.2,195.4 Z" id="Shape" fill="#301716" fill-rule="nonzero"/><path d="M214.8,186.4 C214.8,186.4 232.8,232.4 242.1,239.4 C242.1,239.4 241.1,261.1 242.4,264.7 C242.4,264.7 230.7,265.7 235.4,241.7 C235.4,241.7 212.4,208 212.4,202 C212.5,202.1 208.8,189.4 214.8,186.4 Z" id="Shape" fill="#301716" fill-rule="nonzero"/><path d="M200.5,192.8 C200.5,192.8 205.8,189.1 208.8,190.1 C208.8,190.1 211.1,203.4 204.5,206.1 C204.5,206.1 201.2,208.8 200.5,192.8 Z" id="Shape" fill="#301716" fill-rule="nonzero"/><path d="M261.8,236.9 C250.8,235.9 247.2,211.8 247.2,211.8 C244.6,176.2 230.9,162.5 230.9,162.5 C230.9,162.5 222.2,151.2 204.9,151.5 C204.9,151.5 164.9,147.5 142.9,229.2" id="Shape" stroke="#301716" stroke-width="3"/><path d="M256.5,235.6 C256.5,235.6 287.8,248.1 289.8,202.4 C289.8,202.4 290.2,190.9 283.2,184.9" id="Shape" stroke="#301716" stroke-width="3"/><path d="M218,154.9 C218,154.9 240.7,158.4 245.6,198.1 C245.6,198.1 248.4,242.3 266.1,241.9 C266.1,241.9 238.9,244.1 233.3,203.7 C233.2,203.8 226.5,158.6 218,154.9 Z" id="Shape" fill="#301716" fill-rule="nonzero"/><path d="M365.8,233.4 C365.8,233.4 331.1,203.7 323.8,178.7 C323.8,178.7 318,160.5 297.6,160.2 C297.6,160.2 281.2,159.1 281.1,166" id="Shape" stroke="#301716" stroke-width="3"/><path d="M218.3,220.6 L224.2,229.4 L221,244.4 C221,244.5 208.8,234.9 218.3,220.6 Z" id="Shape" fill="#301716" fill-rule="nonzero"/><path d="M211.2,236.4 C211.2,236.4 214.2,245.7 217.2,246.7 C217.2,246.7 208.5,251.7 208.9,254 C208.8,254.1 193.2,246.8 211.2,236.4 Z" id="Shape" fill="#301716" fill-rule="nonzero"/><path d="M219.2,249.4 C219.2,249.4 222.5,256.1 226.9,258.1 C226.9,258.1 217.2,263.1 217.9,264.8 C217.8,264.8 200.2,256.1 219.2,249.4 Z" id="Shape" fill="#301716" fill-rule="nonzero"/><path d="M228.8,260.1 C228.8,260.1 234.8,266.4 236.1,266.1 C236.1,266.1 227.8,273.4 227.8,274.4 C227.8,275.4 209.8,267.1 228.8,260.1 Z" id="Shape" fill="#301716" fill-rule="nonzero"/><path d="M167.6,233.1 C167.6,233.1 165.3,253.1 164.6,258.1 C164.6,258.1 175.3,259.1 174.9,229.4 C174.9,229.4 167.9,230.1 167.6,233.1 Z" id="Shape" fill="#301716" fill-rule="nonzero"/><path d="M177.8,221.4 C177.8,221.4 179.5,238.1 178.5,240.1 C178.5,240.1 187.5,238.8 182.2,214.8 C182.2,214.8 178.8,217.8 177.8,221.4 Z" id="Shape" fill="#301716" fill-rule="nonzero"/><path d="M182.5,206.8 C182.5,206.8 186.8,224.8 186.8,229.5 C186.8,229.5 196.1,225.2 189.5,201.2 C189.5,201.1 182.5,202.1 182.5,206.8 Z" id="Shape" fill="#301716" fill-rule="nonzero"/><path d="M280,178.2 C280,178.2 265.6,177.7 263.3,186.1 C263.3,186.1 258.7,169.1 281.9,166.9" id="Shape" stroke="#301716" stroke-width="3" stroke-linecap="round" stroke-linejoin="round"/><path d="M268.5,182.4 L281,182.3 C281,182.3 283.4,186.7 291,186.7" id="Shape" stroke="#301716" stroke-width="3" stroke-linecap="round"/><circle id="Oval" fill="#301716" cx="289" cy="172.3" r="2.3"/><path d="M294.8,169.6 C294.8,169.6 287,168.5 287.4,171.7" id="Shape" stroke="#301716" stroke-width="2"/><path d="M281.3,169.1 C281.3,169.1 280.1,174.3 281.5,179.3" id="Shape" stroke="#301716" stroke-width="3" stroke-linecap="round" stroke-linejoin="round"/><path d="M142.9,229.1 C142.9,229.1 126.4,303.5 132.5,387.7" id="Shape" stroke="#2F1615" stroke-width="3" stroke-linecap="round"/><path d="M473.5,273.1 C473.5,273.1 485.5,293.4 491.2,295.8 C491.2,295.8 491.9,391.1 493.9,395.1 C493.8,395.1 459.2,373.8 473.5,273.1 Z" id="Shape" fill="#301716" fill-rule="nonzero"/><path d="M463.2,254.1 L470.2,269.1 C470.2,269.1 458.9,371.4 479.2,384.8 C479.2,384.8 437.5,366.1 463.2,254.1 Z" id="Shape" fill="#301716" fill-rule="nonzero"/><path d="M460.8,250.1 C460.8,250.1 440.1,335.1 457.1,364.1 C457.1,364.1 435.8,364.4 448.1,244.1 C448.1,244.1 452.4,245.1 455.1,244.8 C455.2,244.8 459.8,249.4 460.8,250.1 Z" id="Shape" fill="#301716" fill-rule="nonzero"/><path d="M436.2,237.4 C436.2,237.4 442.5,242.4 444.5,242.4 C444.5,242.4 436.2,341.7 444.5,352.4 C444.5,352.4 420.8,342.1 436.2,237.4 Z" id="Shape" fill="#301716" fill-rule="nonzero"/><path d="M385.5,281.4 C385.5,281.4 381.2,327.1 404.2,323.7 C404.2,323.7 388.5,308.3 392.8,279 L385.5,281.4 Z" id="Shape" fill="#301716" fill-rule="nonzero"/><path d="M402.2,272.1 C402.2,272.1 398.8,275.7 395.5,278.2 C394.5,278.9 389.9,324.8 417.2,320.1 C417.2,320.1 399.5,312.8 402.2,272.1 Z" id="Shape" fill="#301716" fill-rule="nonzero"/><path d="M413.2,262.4 C412.3,293.6 429.5,313 429.5,313 C403.5,328.6 404.8,269.8 404.8,269.8 L413.2,262.4 Z" id="Shape" fill="#301716" fill-rule="nonzero"/><path d="M420.8,252 L414.9,259.4 C414.9,259.4 418,300 428.3,301.7 C428.3,301.7 428,273.9 429.4,273.3 C429.3,273.3 423.7,272 420.8,252 Z" id="Shape" fill="#301716" fill-rule="nonzero"/><path d="M422.8,247.8 C422.8,247.8 424.8,266.2 429.5,268.5 C429.5,268.5 433.1,238.6 434.1,236.9 L431.4,235.7 C431.2,235.8 422.8,239 422.8,247.8 Z" id="Shape" fill="#301716" fill-rule="nonzero"/><path d="M382.7,283.1 C382.7,283.1 381.1,283.8 379.9,283.6 C379.9,283.6 376.6,308.7 374.8,311.2 C374.8,311.2 375.3,316.3 388.7,320.9 C388.7,320.9 381.8,307.3 382.7,283.1 Z" id="Shape" fill="#301716" fill-rule="nonzero"/><path d="M483.2,236.8 C483.2,236.8 464.9,150.5 408.2,145.8 C408.2,145.8 374.5,143.8 374.5,184.8 C374.5,184.8 378.8,230.8 368.8,235.8" id="Shape" stroke="#301716" stroke-width="3"/><path d="M460.8,217.1 C460.8,217.1 457.1,259.8 491.5,291.4 C491.5,291.4 490.5,208.7 456.8,186.1 C456.8,186.1 470.8,212.4 473.5,221.1 C473.5,221.1 466.8,212.8 465.2,213.1 C463.5,213.4 471.2,225.1 471.2,234.1 C471.2,234.1 460.8,221.1 460.8,217.1 Z" id="Shape" fill="#301716" fill-rule="nonzero"/><path d="M456.8,218.4 C456.8,218.4 455.8,238.4 458.5,242.4 C458.5,242.4 443.8,243.7 443.8,211.1 C443.8,211.1 454.2,219.1 456.8,218.4 Z" id="Shape" fill="#301716" fill-rule="nonzero"/><path d="M440.5,207.8 C440.5,207.8 440.2,232.5 445.2,237.8 C445.2,237.8 426.5,235.5 430.2,194.8 C430.2,194.8 440.5,204.1 440.5,207.8 Z" id="Shape" fill="#301716" fill-rule="nonzero"/><path d="M427.5,193.4 C427.5,193.4 425.5,218.7 427.8,224.4 C427.8,224.4 416.1,218.4 417.8,205.1 L427.5,193.4 Z" id="Shape" fill="#301716" fill-rule="nonzero"/><path d="M418.8,219.8 C418.8,219.8 425.8,231.5 430.8,231.8 C430.8,231.8 424.8,240.8 413.8,228.8 C413.8,228.8 420.2,221.1 418.8,219.8 Z" id="Shape" fill="#301716" fill-rule="nonzero"/><path d="M412.2,231.1 C412.2,231.1 419.5,237.4 422.5,237.8 C422.5,237.8 420.8,252.1 407.5,241.1 C407.5,241.1 411.5,233.8 412.2,231.1 Z" id="Shape" fill="#301716" fill-rule="nonzero"/><path d="M406.2,243.4 C406.2,243.4 414.5,248.4 417.2,249.4 C417.2,249.4 414.2,264.7 396.9,253.1 C396.8,253.1 406.5,246.4 406.2,243.4 Z" id="Shape" fill="#301716" fill-rule="nonzero"/><path d="M395.5,255.4 C395.5,255.4 406.5,262.1 408.8,261.1 C408.8,261.1 404.5,271.4 390.5,261.1 C390.5,261.1 395.5,258.8 395.5,255.4 Z" id="Shape" fill="#301716" fill-rule="nonzero"/><path d="M388.2,263.4 C388.2,263.4 397.9,269.7 400.5,269.4 C400.5,269.4 396.8,279.4 383.2,267.4 C383.2,267.4 388.5,264.8 388.2,263.4 Z" id="Shape" fill="#301716" fill-rule="nonzero"/><path d="M382.2,270.1 C382.2,270.1 389.2,275.1 390.9,275.1 C390.9,275.1 385.2,280.4 381.2,279.1 L379.5,269.4 L382.2,270.1 Z" id="Shape" fill="#301716" fill-rule="nonzero"/><path d="M373.5,235.4 C373.5,235.4 393.2,218.7 389.2,186.4 C389.2,186.4 386.9,171.7 395.5,172.7 C395.5,172.7 395.5,144.7 426.5,162.4 C426.5,162.4 445.8,176.7 450.8,185.1 C450.8,185.1 442.1,188.8 439.1,183.1 C439.1,183.1 458.4,200.8 458.4,203.1 C458.4,203.1 460.7,210.1 459.4,212.1 C458.1,214.1 450.1,214.4 448.7,211.4 C448.7,211.4 437,199.4 436,190.1 C436,190.1 423,189.4 417,175.4 C417,175.4 413,183.7 404.3,182.1 C404.3,182.1 406.3,215.4 396.3,229.1 C396.3,229.1 386.3,248.1 379,250.1 C371.7,252.1 350.3,258.1 334,244.1 C334,244.1 339.3,244.8 339.7,237.1 C339.7,237.1 347.4,244.1 353.7,242.4 C353.7,242.4 358.7,241.4 359,235.1 C359,235.1 364,234.8 365.3,232.1 C365.5,232.1 370.8,237.1 373.5,235.4 Z" id="Shape" fill="#301716" fill-rule="nonzero"/><path d="M310.2,226.1 C310.2,226.1 312.9,225.4 312.9,222.1 C312.9,222.1 317.2,224.8 317.6,220.4 C317.6,220.4 320.9,226.1 323.3,224.4" id="Shape" stroke="#301716" stroke-width="2" stroke-linecap="round" stroke-linejoin="round"/><path d="M339.5,207.4 C340.5,214.1 335.8,215.1 335.8,215.1 C337.1,226.4 331.1,220.8 331.1,220.8 C328.4,227.8 324.4,225.8 324.4,225.8 C324.4,225.8 325.7,229.5 334.7,226.1 C334.7,226.1 337.4,228.4 339,223.1 C339,223.1 341.7,225.1 341.7,217.8 C341.7,217.8 347.4,218.5 347.4,215.8 L339.5,207.4 Z" id="Shape" fill="#301716" fill-rule="nonzero"/><path d="M316.5,231.1 C316.5,231.1 319.2,236.1 322.8,232.4" id="Shape" stroke="#301716" stroke-width="2" stroke-linecap="round" stroke-linejoin="round"/><path d="M327.2,237.1 C327.2,237.1 334.9,241.1 335.2,235.8" id="Shape" stroke="#301716" stroke-width="2" stroke-linecap="round" stroke-linejoin="round"/><path d="M335.5,229.4 C335.5,229.4 342.2,231.1 344.8,223.4 C344.8,223.4 351.1,228.4 349.8,218.1" id="Shape" stroke="#301716" stroke-width="3" stroke-linecap="round" stroke-linejoin="round"/><path d="M340.5,232.8 C340.5,232.8 347.5,234.5 349.5,229.8 C349.5,229.8 354.8,231.5 354.5,222.8" id="Shape" stroke="#301716" stroke-width="3" stroke-linecap="round" stroke-linejoin="round"/><path d="M345.5,235.8 C345.5,235.8 348.8,238.8 352.2,233.5 C352.2,233.5 357.2,234.5 359.5,228.8" id="Shape" stroke="#301716" stroke-width="3" stroke-linecap="round" stroke-linejoin="round"/><path d="M408.2,185.1 C408.2,185.1 416.5,184.1 417.2,181.1 C417.2,181.1 421.5,187.8 424.5,190.4 C424.5,190.4 419.2,205.4 408.2,197.4 L408.2,185.1 Z" id="Shape" fill="#301716" fill-rule="nonzero"/><path d="M407.5,201.1 C407.5,201.1 412.5,204.4 414.5,204.1 C414.5,204.1 418.8,224.1 409.5,228.4 C409.5,228.4 405.5,222.7 404.2,219.4 C404.2,219.4 407.8,205.1 407.5,201.1 Z" id="Shape" fill="#301716" fill-rule="nonzero"/><path d="M403.5,223.1 C403.5,223.1 413.8,232.1 403.2,242.1 C403.2,242.1 400.9,232.1 399.9,230.4 C399.8,230.4 403.8,225.1 403.5,223.1 Z" id="Shape" fill="#301716" fill-rule="nonzero"/><path d="M386.2,249.1 L379.5,253.1 L379.8,264.8 C379.8,264.8 390.8,264.4 386.2,249.1 Z" id="Shape" fill="#301716" fill-rule="nonzero"/><path d="M388.2,247.8 C388.2,247.8 389.2,256.1 388.5,258.1 C388.5,258.1 398.8,255.4 392.5,241.4 L388.2,247.8 Z" id="Shape" fill="#301716" fill-rule="nonzero"/><path d="M398.2,232.4 L394.2,239.4 C394.2,239.4 397.2,247.4 396.9,249.1 C396.5,250.8 405.8,246.8 398.2,232.4 Z" id="Shape" fill="#301716" fill-rule="nonzero"/><path d="M259.8,330.8 C259.8,330.8 260.1,346.5 255.5,355.5 C255.5,355.5 241.5,379.8 253.5,395.8 C253.5,395.8 276.2,405.5 279.2,383.8 C279.2,383.8 283.5,370.8 282.5,360.1 L259.8,330.8 Z" id="Shape" fill="#301716" fill-rule="nonzero"/><path d="M256.2,425.1 C256.2,425.1 240.9,421.1 239.5,434.1 C239.5,434.1 237.5,451.4 244.2,454.1 C244.2,454.1 248.5,454.8 250.9,454.1 C250.9,454.1 253.9,458.1 261.2,456.1 C261.2,456.1 269.2,460.8 272.9,453.8 C272.9,453.8 268.2,448.1 268.6,445.1 C268.6,445.1 267.6,441.1 273.9,440.4 C273.9,440.4 277.6,435.1 271.6,429.7 C271.6,429.7 268.9,414 278.3,403 C278.3,403 277,397.3 275.3,396.3 L255.3,396.3 L254,399.6 C254,399.6 247.7,405.3 255.7,409.6 C255.5,409.8 256.8,418.1 256.2,425.1 Z" id="Shape" fill="#301716" fill-rule="nonzero"/><path d="M368.2,325.4 C368.2,325.4 377.9,339.4 376.5,367.7 C376.5,367.7 377.5,378.4 379.5,381.4 C379.5,381.4 385.5,396.4 376.8,403.4 C376.8,403.4 367.8,408.1 372.1,423.4 C372.1,423.4 388.1,419.1 391.4,430.4 C391.4,430.4 400.1,459.4 382.7,454.7 C382.7,454.7 383.6,463.6 372.6,460.9 C372.6,460.9 369.7,465.4 364.7,463.7 C364.7,463.7 364.4,446.7 355.7,441.7 C355.7,441.7 352,436.7 358.7,433 C358.7,433 356.4,417.3 352.4,415.3 C352.4,415.3 343.4,379.6 332.4,374.3 C332.5,374.4 367.8,335.1 368.2,325.4 Z" id="Shape" fill="#301716" fill-rule="nonzero"/><path d="M318.8,384.1 C329.8,443.8 317.8,447.4 317.8,447.4 C304.8,438.1 314.1,383.7 314.1,383.7 L318.8,384.1 Z" id="Shape" fill="#301716" fill-rule="nonzero"/><path d="M312.5,383.4 L308.5,381.1 C308.5,381.1 292.5,437.8 310.2,446.1 C310.2,446.1 307.5,416.1 312.5,383.4 Z" id="Shape" fill="#301716" fill-rule="nonzero"/><path d="M304.5,378.8 C304.5,378.8 284.5,429.8 299.5,438.1 C299.5,438.1 300.5,402.1 306.8,380.1 L304.5,378.8 Z" id="Shape" fill="#301716" fill-rule="nonzero"/><path d="M299.8,375.4 C299.8,375.4 293.5,388.1 287.8,403.1 C287.8,403.1 278.8,419.4 289.1,428.8 C289.1,428.8 299.1,386.5 303.1,378.1 L299.8,375.4 Z" id="Shape" fill="#301716" fill-rule="nonzero"/><path d="M321.2,383.8 L324.9,381.5 C324.9,381.5 342.4,437.8 324.7,446.2 C324.8,446.1 326.5,416.4 321.2,383.8 Z" id="Shape" fill="#301716" fill-rule="nonzero"/><path d="M330.3,378.8 C330.3,378.8 350.3,429.8 335.3,438.1 C335.3,438.1 333.1,402.1 326.8,380.1 L330.3,378.8 Z" id="Shape" fill="#301716" fill-rule="nonzero"/><path d="M335,375.4 C335,375.4 340.8,387.1 346.5,402.1 C346.5,402.1 356,419.4 345.7,428.8 C345.7,428.8 335.7,386.5 331.7,378.1 L335,375.4 Z" id="Shape" fill="#301716" fill-rule="nonzero"/><path d="M298.2,374.8 C298.2,374.8 284.2,404.5 284.2,408.8 C284.2,408.8 273.9,407.1 294.2,371.5 L298.2,374.8 Z" id="Shape" fill="#301716" fill-rule="nonzero"/><path d="M292.5,369.8 C292.5,369.8 279.2,397.8 280.2,399.8 C280.2,399.8 273.2,401.8 285.9,364.8 L292.5,369.8 Z" id="Shape" fill="#301716" fill-rule="nonzero"/><path d="M247.8,430.8 C247.8,430.8 241.5,435.1 245.8,446.5" id="Shape" stroke="#FFF" stroke-width="3" stroke-linecap="round"/><path d="M253.8,433.8 C253.8,433.8 251.1,436.5 252.5,446.8" id="Shape" stroke="#FFF" stroke-width="3" stroke-linecap="round"/><path d="M262.2,437.1 C262.2,437.1 256.9,440.1 259.9,449.4" id="Shape" stroke="#FFF" stroke-width="3" stroke-linecap="round"/><path d="M380.5,431.8 C380.5,431.8 385.2,431.1 385.2,445.1" id="Shape" stroke="#FFF" stroke-width="3" stroke-linecap="round"/><path d="M371.2,435.8 C371.2,435.8 376.5,439.1 376.2,450.1" id="Shape" stroke="#FFF" stroke-width="3" stroke-linecap="round"/><path d="M362.8,437.8 C362.8,437.8 368.1,443.5 367.5,453.5" id="Shape" stroke="#FFF" stroke-width="3" stroke-linecap="round"/><path d="M360.5,342.8 C360.5,342.8 372.5,370.1 368.8,391.1 C368.8,391.1 370.5,393.1 371.5,390.8 C371.5,390.8 374.5,356.1 363.5,336.8 C363.5,336.8 361.5,343.1 360.5,342.8 Z" id="Shape" fill="#FFF" fill-rule="nonzero"/><path d="M352.8,350.8 C352.8,350.8 365.1,361.8 362.8,380.1 L360.8,378.4 C360.8,378.4 357.8,360.1 349.8,355.4 L352.8,350.8 Z" id="Shape" fill="#FFF" fill-rule="nonzero"/><path d="M347.5,399.1 C347.5,399.1 356.8,402.1 363.2,398.8 C363.2,398.8 366.9,402.1 362.5,403.8 C362.5,403.8 352.8,408.1 351.2,407.8 C349.5,407.4 347.5,399.1 347.5,399.1 Z" id="Shape" fill="#FFF" fill-rule="nonzero"/><path d="M352.5,377.8 C352.5,377.8 359.5,384.5 360.2,390.1" id="Shape" stroke="#FFF" stroke-width="3" stroke-linecap="round"/><circle id="Oval" stroke="#1F2A59" stroke-width="6" cx="308.5" cy="308.2" r="308.1"/><circle id="Oval" stroke="#1F2A59" stroke-width="6" cx="308.5" cy="308.2" r="231.1"/><g transform="translate(14.000000, 13.000000)" id="Shape" fill-rule="nonzero" fill="#1F2A59"><path d="M112.6,458.1 L116.2,462.4 L77.5,495 L72.8,489.4 C66.6,482.1 62.8,473.6 71.5,466.2 C77.5,461.2 84.8,461.4 90.4,466.9 L97.4,439.9 L101.9,445.2 L94.8,471.2 L95.7,472.3 L112.6,458.1 Z M91.8,475.6 L90.7,474.3 C86.6,469.4 81.5,465.3 75.5,470.3 C69.1,475.7 72.4,480.9 76.8,486.1 L77.9,487.4 L91.8,475.6 Z"/><path d="M72.7,428.3 L88.3,426.8 L91.3,432.2 L33.5,437.1 L69.2,391.7 L72.2,397.2 L62.4,409.3 L72.7,428.3 Z M44.9,430.9 L66.9,428.8 L58.7,413.8 L44.9,430.9 Z"/><polygon points="63.2 373.3 65.1 378.6 17.3 395.4 15.4 390.1"/><polygon points="51.4 351.1 48.4 337.5 53.5 336.4 57.7 355.6 8.2 366.5 7 361"/><path d="M51.2,317.4 L51.5,323 L1,326 L0.6,318.7 C-1.11022302e-15,309.1 2,300 13.5,299.4 C21.3,298.9 27.1,303.5 28.2,311.2 L49.9,293.8 L50.3,300.7 L29,317.3 L29.1,318.7 L51.2,317.4 Z M24.2,319 L24.1,317.3 C23.7,310.9 22.1,304.6 14.3,305 C6,305.5 5.5,311.6 5.9,318.4 L6,320.1 L24.2,319 Z"/><path d="M32.9,225.6 C47.3,227.9 56.8,241.6 54.5,255.9 C52.2,270.2 38.9,280.1 24.5,277.8 C10.2,275.5 0.5,261.8 2.8,247.5 C5.1,233.2 18.6,223.3 32.9,225.6 Z M25.2,272.2 C36.5,274 47.4,266.4 49.2,255.1 C51,243.8 43.1,233.1 31.8,231.2 C20.5,229.4 9.6,236.9 7.8,248.3 C6.1,259.7 14,270.4 25.2,272.2 Z"/><path d="M52.7,203.2 L63.5,214.5 L61.1,220.2 L21.6,177.8 L79.4,177.8 L76.9,183.5 L61.3,183.3 L52.7,203.2 Z M33.6,183 L48.8,199 L55.6,183.3 L33.6,183 Z"/><path d="M45.1,137.3 L50.7,129.6 C55.1,123.4 59.6,119 67.2,117.2 C74.6,115.4 81.7,117.3 87.8,121.7 C93.8,126 97.5,132 98.3,139.5 C99.1,147.5 96.4,153 91.8,159.5 L86.3,167.1 L45.1,137.3 Z M87.6,155.9 C91.2,150.9 93.5,146.2 92.7,139.9 C92,134.2 88.9,129.4 84.4,126.1 C79.7,122.7 73.9,121.3 68.2,122.6 C62.2,124 58.5,127.6 55,132.5 L52.6,135.8 L85.2,159.3 L87.6,155.9 Z"/><path d="M144.9,102.3 L140.3,105.6 L110.5,64.7 L116.4,60.4 C124.2,54.7 132.9,51.5 139.6,60.8 C144.2,67.1 143.5,74.4 137.6,79.6 L164,88.5 L158.4,92.6 L132.9,83.6 L131.8,84.4 L144.9,102.3 Z M128.8,80.3 L130.2,79.3 C135.4,75.5 139.9,70.8 135.2,64.4 C130.3,57.7 124.9,60.6 119.4,64.6 L118,65.6 L128.8,80.3 Z"/><polygon points="154.7 35.4 178.4 24 180.7 28.7 162.1 37.7 168.7 51.3 186.7 42.6 189 47.3 171 56 179.7 73.9 198.3 64.9 200.6 69.6 176.8 81"/><polygon points="229.7 59.9 224.3 61.5 211.8 17.8 200 21.2 198.6 16.2 227.7 7.9 229.1 12.9 217.2 16.3"/><polygon points="261 53.4 255.4 54.2 247.9 4.1 253.5 3.3"/><path d="M285.2,51.3 L279.6,51.4 L278.8,0.7 L286.1,0.6 C295.7,0.4 304.7,2.9 304.9,14.3 C305,22.1 300.2,27.7 292.4,28.5 L308.9,50.9 L302,51 L286.3,29 L284.9,29 L285.2,51.3 Z M284.7,24.1 L286.4,24.1 C292.8,24 299.2,22.7 299.1,14.8 C299,6.5 292.8,5.8 286.1,5.9 L284.4,5.9 L284.7,24.1 Z"/><polygon points="332 2.6 357.9 7 357 12.2 336.7 8.7 334.2 23.5 353.9 26.9 353 32.1 333.3 28.7 329.9 48.3 350.2 51.8 349.3 57 323.4 52.6"/><polygon points="392.7 13.6 393.2 60 426.7 27.9 415.4 81.3 410.1 79.1 417.4 45 417.3 44.9 388.2 72.1 387.3 32.3 387.2 32.2 367.9 61.3 362.6 59.1"/><polygon points="456 48.4 477.3 63.7 474.2 68 457.5 56 448.7 68.2 465 79.9 461.9 84.2 445.6 72.5 434 88.6 450.7 100.6 447.6 104.9 426.3 89.6"/><polygon points="500.5 80.4 496 137.4 525.2 111.2 529 115.4 489.6 150.7 494 93.7 464.9 119.7 461.1 115.5"/><polygon points="507.5 176.2 504.7 171.3 544.1 148.7 538 138.1 542.5 135.5 557.6 161.7 553.1 164.3 546.9 153.6"/><path d="M578.5,215.1 L580.4,223.2 C582.5,232.2 580.9,240.5 570.9,242.8 C566.9,243.7 563.2,243 560.2,240.2 C560.1,246.4 555.6,251.1 549.7,252.5 C539.9,254.8 534.1,247.7 531.9,238 L529.3,226.5 L578.5,215.1 Z M535.5,230.9 L536.8,236.4 C538.2,242.6 541.2,248.7 548.8,247 C556.5,245.2 555.9,237.6 554.5,231.6 L553.4,226.8 L535.5,230.9 Z M558,225.7 L558.5,227.8 C559.9,234 561.9,239.2 569.5,237.4 C577,235.7 576.7,230.8 575.1,224 L574.6,221.8 L558,225.7 Z"/><path d="M564.1,320.7 C549.5,320.9 537.8,309.2 537.5,294.7 C537.3,280.3 548.6,268.1 563.2,267.9 C577.7,267.7 589.7,279.4 589.9,293.9 C590.2,308.3 578.6,320.4 564.1,320.7 Z M563.5,273.5 C552.1,273.7 542.7,283.1 542.9,294.6 C543.1,306.1 552.8,315.2 564.2,315 C575.7,314.8 585,305.5 584.8,293.9 C584.5,282.3 575,273.3 563.5,273.5 Z"/><path d="M548,346.6 L535.5,337.2 L537,331.2 L583,366.6 L526,376.1 L527.5,370 L542.9,367.6 L548,346.6 Z M570.1,363.3 L552.5,350 L548.4,366.6 L570.1,363.3 Z"/><path d="M518.2,393 L520.6,387.9 L566.4,409.6 L563.3,416.2 C559.2,424.9 553,431.9 542.7,427 C535.7,423.7 532.8,416.9 535.5,409.5 L508.1,414.3 L511.1,408 L537.8,403.7 L538.4,402.4 L518.2,393 Z M542.8,404.7 L542.1,406.3 C539.4,412.1 537.7,418.4 544.8,421.8 C552.3,425.4 555.7,420.2 558.6,414.1 L559.3,412.6 L542.8,404.7 Z"/><path d="M541.2,457.3 L535.5,464.9 C531,471 526.4,475.3 518.8,477.1 C511.4,478.8 504.4,476.8 498.3,472.3 C492.4,467.9 488.8,461.8 488.1,454.4 C487.4,446.3 490.2,440.9 495,434.5 L500.6,427 L541.2,457.3 Z M499,437.9 C495.3,442.9 492.9,447.5 493.6,453.9 C494.2,459.6 497.2,464.5 501.7,467.8 C506.3,471.3 512.1,472.8 517.8,471.6 C523.9,470.3 527.6,466.7 531.1,461.9 L533.6,458.6 L501.4,434.5 L499,437.9 Z"/></g><polygon id="Shape" fill="#1F2A59" fill-rule="nonzero" points="287.8 104.1 303.3 104.1 308.1 89.3 312.9 104.1 328.4 104.1 315.9 113.2 320.7 128 308.1 118.8 295.6 128 300.4 113.2"/><polygon id="Shape" fill="#1F2A59" fill-rule="nonzero" points="228 122.1 242.5 116.8 242 101.3 251.5 113.6 266.1 108.3 257.4 121.1 266.9 133.4 252 129.1 243.3 142 242.8 126.5"/><polygon id="Shape" fill="#1F2A59" fill-rule="nonzero" points="370.5 126.7 370 142.2 361.3 129.3 346.4 133.6 355.9 121.3 347.2 108.5 361.8 113.8 371.3 101.5 370.8 117 385.3 122.3"/><polygon id="Shape" fill="#1F2A59" fill-rule="nonzero" points="177 554.2 172.8 569.1 167.5 554.5 152 555.1 164.2 545.5 158.8 531 171.7 539.6 184 530 179.8 544.9 192.7 553.5"/><polygon id="Shape" fill="#1F2A59" fill-rule="nonzero" points="431 548 443.9 539.4 439.7 524.5 451.9 534.1 464.8 525.5 459.4 540 471.6 549.6 456.1 549 450.8 563.6 446.6 548.7"/><g id="Shape" fill-rule="nonzero" fill="#FFF"><g><path d="M0.8,11.9 C0.8,11.9 43.9,24.5 67.8,0.5 L67.8,55.6 L2,55.6 L0.8,11.9 Z" transform="translate(244.000000, 230.000000)"/><path d="M135,11.9 C135,11.9 91.9,24.5 68,0.5 L68,55.6 L135,55.6 L135,11.9 Z" transform="translate(244.000000, 230.000000)"/></g><path d="M68.2,159.2 C68.2,159.2 130.6,135.2 133.4,56.2 L67.3,56.2 L68.3,56.2 L2.2,56.2 C5,135.2 67.4,159.2 67.4,159.2 L68.2,159.2 Z" stroke="#FFF" transform="translate(244.000000, 230.000000)"/></g><g id="Shape" fill-rule="nonzero" fill="#1F2A59"><path d="M7.3,32.4 C6.5,36.1 5.5,40.2 7.1,43.9 C8.6,47.4 12.4,50 16,50.8 C19.5,51.6 23.8,50.8 26.6,48.5 C29.9,45.9 30.7,41.6 31.5,37.7 L37.9,8.3 L43.4,9.5 L36.7,40.4 C35.5,45.8 34.2,49.9 29.4,53.1 C25.2,56 19.9,56.9 14.9,55.8 C10.3,54.8 5.9,52 3.2,48 C-0.2,42.9 0.2,38.3 1.5,32.7 L8.2,1.8 L13.7,3 L7.3,32.4 Z" transform="translate(231.000000, 544.000000)"/><path d="M56.5,58.1 C56.3,60.2 54.5,61.8 52.4,61.6 C50.3,61.4 48.8,59.5 49,57.5 C49.2,55.5 51,54 53.1,54.2 C55.2,54.4 56.8,56.1 56.5,58.1 Z" transform="translate(231.000000, 544.000000)"/><path d="M94,20.8 C91.9,17.4 89.4,15.4 85.2,15.5 C80.7,15.6 76.9,18.9 77,23.5 C77.1,27.9 81.6,29.8 85.1,31.2 L88.5,32.6 C95.1,35.3 100.8,38.5 101,46.5 C101.2,55.3 94.3,62.3 85.5,62.5 C77.4,62.7 71.2,57.6 69.4,49.8 L74.9,48.1 C75.8,53.2 79.8,57.4 85.2,57.2 C90.6,57.1 95.5,52.8 95.3,47.1 C95.2,41.2 90.5,39.3 85.7,37.3 L82.6,36 C76.6,33.5 71.5,30.6 71.3,23.3 C71.1,15.5 77.6,10.3 85.1,10.1 C90.7,10 95.6,12.7 98.4,17.6 L94,20.8 Z" transform="translate(231.000000, 544.000000)"/><path d="M122.2,55.6 C122.5,57.7 121.1,59.6 119,59.9 C116.9,60.2 115,58.7 114.8,56.6 C114.5,54.6 116,52.7 118,52.4 C120,52.2 121.8,53.6 122.2,55.6 Z" transform="translate(231.000000, 544.000000)"/><path d="M142.3,40.4 L140.2,55.8 L134.3,57.4 L142.9,0.2 L178.7,45.3 L172.7,46.9 L163.2,34.6 L142.3,40.4 Z M146.2,12.9 L143.2,34.7 L159.7,30.2 L146.2,12.9 Z" transform="translate(231.000000, 544.000000)"/><path d="M195.2,34.7 C196,36.6 195.1,38.9 193.2,39.7 C191.3,40.5 189.1,39.5 188.3,37.6 C187.5,35.7 188.4,33.6 190.3,32.8 C192.2,31.9 194.3,32.8 195.2,34.7 Z" transform="translate(231.000000, 544.000000)"/></g><g transform="translate(248.000000, 235.000000)" id="Shape" fill-rule="nonzero"><g fill="#1F2A59"><path d="M0.8,11.2 C0.8,11.2 41.4,23 64,0.5 L64,52.4 L0.8,52.4 L0.8,11.2 Z"/><path d="M127.2,11.2 C127.2,11.2 86.6,23 64,0.5 L64,52.4 L127.2,52.4 L127.2,11.2 Z"/></g><path d="M64.3,149.9 C64.3,149.9 123.1,127.3 125.7,52.8 L63.5,52.8 L64.4,52.8 L2.1,52.8 C4.7,127.2 63.5,149.9 63.5,149.9 L64.3,149.9 Z" stroke="#B21F24" fill="#FFF"/><polygon fill="#B21F24" points="68 148.1 63.8 149.7 58.2 147 58.5 53.1 67.8 53"/><polygon fill="#B21F24" points="47.5 140.4 43 137.6 38 132.5 38.3 53.2 47.7 52.8"/><polygon fill="#B21F24" points="27 121.6 22.2 115.1 17.2 107.6 17.5 53 27 52.7"/><polygon fill="#B21F24" points="7.5 84.4 5.8 80.5 4.2 70.8 2.2 52.8 7.3 52.7"/><polygon fill="#B21F24" points="78.8 141.2 84.5 137.8 88.8 134.3 88.2 53.2 78.8 53.2"/><polygon fill="#B21F24" points="99.3 123.6 103.8 118.2 108.7 110.5 108.5 52.9 99 52.8"/><polygon fill="#B21F24" points="119.5 87.2 123 76.9 124.8 65.4 125.8 52.6 119.3 52.9"/></g><polygon id="Shape" fill="#FFF" fill-rule="nonzero" points="297.5 274.9 301.9 274.9 303.3 270.7 304.7 274.9 309.1 274.9 305.5 277.5 306.9 281.7 303.3 279.1 299.7 281.7 301.1 277.5"/><polygon id="Shape" fill="#FFF" fill-rule="nonzero" points="276.8 274.9 281.2 274.9 282.6 270.7 284 274.9 288.4 274.9 284.8 277.5 286.2 281.7 282.6 279.1 279 281.7 280.4 277.5"/><polygon id="Shape" fill="#FFF" fill-rule="nonzero" points="257.2 274.9 261.6 274.9 263 270.7 264.4 274.9 268.8 274.9 265.2 277.5 266.6 281.7 263 279.1 259.4 281.7 260.8 277.5"/><polygon id="Shape" fill="#FFF" fill-rule="nonzero" points="359 274.9 363.4 274.9 364.8 270.7 366.2 274.9 370.6 274.9 367 277.5 368.4 281.7 364.8 279.1 361.2 281.7 362.6 277.5"/><polygon id="Shape" fill="#FFF" fill-rule="nonzero" points="338.2 274.9 342.6 274.9 344 270.7 345.4 274.9 349.8 274.9 346.2 277.5 347.6 281.7 344 279.1 340.4 281.7 341.8 277.5"/><polygon id="Shape" fill="#FFF" fill-rule="nonzero" points="318.5 274.9 322.9 274.9 324.3 270.7 325.7 274.9 330.1 274.9 326.5 277.5 327.9 281.7 324.3 279.1 320.7 281.7 322.1 277.5"/><polygon id="Shape" fill="#FFF" fill-rule="nonzero" points="297.5 258.3 301.9 258.3 303.3 254.1 304.7 258.3 309.1 258.3 305.5 260.9 306.9 265.1 303.3 262.5 299.7 265.1 301.1 260.9"/><polygon id="Shape" fill="#FFF" fill-rule="nonzero" points="276.8 258.3 281.2 258.3 282.6 254.1 284 258.3 288.4 258.3 284.8 260.9 286.2 265.1 282.6 262.5 279 265.1 280.4 260.9"/><polygon id="Shape" fill="#FFF" fill-rule="nonzero" points="257.2 258.3 261.6 258.3 263 254.1 264.4 258.3 268.8 258.3 265.2 260.9 266.6 265.1 263 262.5 259.4 265.1 260.8 260.9"/><polygon id="Shape" fill="#FFF" fill-rule="nonzero" points="359 258.3 363.4 258.3 364.8 254.1 366.2 258.3 370.6 258.3 367 260.9 368.4 265.1 364.8 262.5 361.2 265.1 362.6 260.9"/><polygon id="Shape" fill="#FFF" fill-rule="nonzero" points="338.2 258.3 342.6 258.3 344 254.1 345.4 258.3 349.8 258.3 346.2 260.9 347.6 265.1 344 262.5 340.4 265.1 341.8 260.9"/><polygon id="Shape" fill="#FFF" fill-rule="nonzero" points="318.5 258.3 322.9 258.3 324.3 254.1 325.7 258.3 330.1 258.3 326.5 260.9 327.9 265.1 324.3 262.5 320.7 265.1 322.1 260.9"/><polygon id="Shape" fill="#FFF" fill-rule="nonzero" points="306.2 243.4 310.6 243.4 312 239.2 313.4 243.4 317.8 243.4 314.2 246 315.6 250.2 312 247.6 308.4 250.2 309.8 246"/><path d="M270.5,446 C270.9,446.7 270.3,447.6 271,448.1 C274.1,450 288.7,459.8 291.2,478.5 C291.2,478.5 293.9,494 301.2,496.3 C301.2,496.3 304.4,498.6 307.1,487.6 C307.1,487.6 309.4,476.2 304.8,472.5 C304.8,472.5 295.7,467 293.4,461.1 C293.4,461.1 279.2,442.5 271.5,442.5 C271.5,442.5 269.7,444.4 270.5,446 Z" id="Shape" fill="#301716" fill-rule="nonzero"/><path d="M301.8,482.3 C301.8,482.3 301,485 301,486 C301,487 301.2,490.9 301.2,490.9 C301.2,490.9 301.4,492.6 302.4,491.2 C303.4,489.9 302.9,488.2 302.9,487.5 C302.9,486.8 302.7,484.8 302.9,483.8 C303,482.8 302.5,482.1 301.8,482.3 Z" id="Shape" fill="#FFF" fill-rule="nonzero"/><path d="M261.2,359.3 C261.2,359.3 248.9,379.6 258.5,392.9" id="Shape" stroke="#FFF" stroke-width="3" stroke-linecap="round"/><path d="M265.5,367.8 C265.5,367.8 259.1,377.9 262.3,384.4" id="Shape" stroke="#FFF" stroke-width="3" stroke-linecap="round"/></g></g></g></svg>