<svg width="372" height="86" viewBox="0 0 372 86" version="1.1" xmlns="http://www.w3.org/2000/svg" xmlns:xlink="http://www.w3.org/1999/xlink"><title>usajobs</title><g id="Page-1" stroke="none" stroke-width="1" fill="none" fill-rule="evenodd"><g id="usajobs" fill-rule="nonzero" fill="#981D20"><path d="M176.4,62.5 C176.4,63.6 176.4,64.8 176.3,66 C176.2,67.2 176,68.4 175.6,69.4 C175.3,70.4 174.1,74 167.2,72.9 L166.5,72.9 L166.5,84.9 L167,85 C168.8,85.4 170.5,85.6 172.1,85.6 C176.1,85.6 179.3,85 181.8,83.8 C184.3,82.6 186.2,80.9 187.6,78.9 C188.9,76.9 189.9,74.5 190.3,71.9 C190.8,69.3 191,68.6 191,65.9 L191,1.7 L176.3,1.7 L176.3,62.5 L176.4,62.5 Z M39.6,37.5 C39.6,41.5 39.1,44.5 38.2,46.7 C37.2,49 35.9,50.6 34,51.6 C32.1,52.6 29.8,53.1 27.2,53.1 C24.6,53.1 22.3,52.6 20.4,51.6 C18.6,50.6 17.2,49 16.2,46.8 C15.3,44.7 14.8,41.6 14.8,37.6 L14.8,1.6 L0.3,1.6 L0.3,38.5 C0.3,41.1 0.4,43.4 0.7,45.5 C1,47.6 1.5,49.6 2.2,51.4 C3.1,53.6 4.2,55.7 5.7,57.5 C7.2,59.3 9,60.8 11,62.1 C13.1,63.3 15.4,64.3 18.1,64.9 C20.7,65.5 23.7,65.9 27,65.9 C30.3,65.9 33.3,65.6 35.9,64.9 C38.6,64.3 41,63.3 43.1,62.1 C45.2,60.9 47.1,59.3 48.5,57.5 C50,55.7 51.2,53.7 52,51.4 C52.7,49.6 53.2,47.6 53.5,45.5 C53.8,43.4 53.9,41 53.9,38.5 L53.9,1.6 L39.6,1.6 L39.6,37.5 Z M99.7,31.4 C97.8,30 95.5,29 93,28.2 C90.6,27.5 88.1,26.9 85.6,26.3 C84,26 82.5,25.6 81.2,25.3 C79.9,25 78.8,24.5 77.8,23.9 C76.9,23.4 76.3,22.8 75.8,22 C75.4,21.3 75.1,20.4 75.1,19.2 C75.1,17.2 75.8,15.8 77.2,14.8 C78.8,13.7 81.3,13.1 84.5,13.1 C86.9,13.1 89.5,13.4 92.2,13.9 C94.9,14.4 97.8,15.3 100.8,16.5 L103.3,17.5 L103.3,4.4 L102.2,3.9 C99.8,2.9 96.9,2 93.5,1.4 C86.8,0.1 79.8,0.1 74.4,1.6 C71.6,2.4 69.2,3.7 67.1,5.4 C65,7.1 63.3,9.3 62.1,11.8 C60.9,14.4 60.3,17.4 60.3,20.8 C60.3,23.9 60.8,26.6 61.9,28.7 C63,30.8 64.4,32.6 66.3,34 C68.1,35.3 70.1,36.4 72.4,37.2 C74.6,37.9 76.9,38.5 79.3,39.1 C81,39.5 82.7,39.8 84.3,40.2 C85.8,40.5 87.1,41 88.3,41.5 C89.3,42 90.1,42.6 90.7,43.3 C91.2,43.9 91.4,44.8 91.4,45.9 C91.4,47.3 91.1,48.4 90.5,49.2 C89.9,50.1 89,50.9 88,51.4 C86.8,52 85.5,52.4 84,52.7 C79.7,53.4 75.1,53.1 70.9,52.3 C68.2,51.7 65.4,50.8 62.6,49.6 L60.1,48.5 L60.1,61.5 L61,62 C63.2,63.2 66.1,64.2 69.4,64.9 C72.6,65.6 76,65.9 79.4,65.9 C83.2,65.9 86.8,65.5 90.1,64.7 C93.4,63.9 96.3,62.7 98.7,61 C101.1,59.3 103,57.1 104.3,54.5 C105.6,51.9 106.3,48.8 106.3,45.4 C106.3,42 105.7,39.1 104.5,36.9 C103.3,34.6 101.7,32.8 99.7,31.4 L99.7,31.4 Z" id="Shape"/><path d="M168.8,62.6 L144.5,1.6 L132,1.6 L106.8,64.8 L122.4,64.8 L128.3,49.6 L148.4,49.6 L154.3,64.8 L169.8,64.8 L168.8,62.6 Z M143.5,36.8 L133.3,36.8 L134.4,33.9 C135.6,30.8 137,27.1 138.4,22.9 C139.9,27.1 141.2,30.8 142.4,33.9 L143.5,36.8 Z M251.7,9.7 C249,6.8 245.7,4.5 241.9,2.9 C238.1,1.3 233.7,0.5 228.8,0.5 C224,0.5 219.6,1.3 215.7,2.9 C211.9,4.5 208.6,6.8 205.9,9.7 C203.3,12.6 201.2,16.1 199.9,20.1 C198.5,24.1 197.9,28.5 197.9,33.2 C197.9,37.9 198.6,42.3 199.9,46.3 C201.3,50.3 203.3,53.8 205.9,56.7 C208.6,59.6 211.9,61.9 215.7,63.5 C219.5,65.1 223.9,65.9 228.8,65.9 C233.6,65.9 238,65.1 241.9,63.5 C245.7,61.9 249,59.6 251.7,56.7 C254.3,53.8 256.4,50.3 257.7,46.3 C259.1,42.3 259.7,37.9 259.7,33.2 C259.7,28.5 259,24.1 257.7,20.1 C256.3,16.1 254.3,12.6 251.7,9.7 L251.7,9.7 Z M222.3,51.8 C220.4,51 218.7,49.8 217.3,48.2 C215.9,46.6 214.8,44.5 213.9,42.1 C213.1,39.6 212.6,36.6 212.6,33.1 C212.6,29.7 213,26.7 213.9,24.1 C214.7,21.6 215.8,19.5 217.3,17.9 C218.7,16.3 220.4,15.1 222.3,14.3 C224.2,13.5 226.4,13.1 228.8,13.1 C231.1,13.1 233.3,13.5 235.3,14.3 C237.2,15.1 238.9,16.3 240.3,17.9 C241.7,19.5 242.8,21.6 243.7,24.1 C244.5,26.6 245,29.6 245,33.1 C245,36.5 244.6,39.5 243.7,42.1 C242.9,44.6 241.8,46.6 240.3,48.2 C238.9,49.8 237.2,51 235.3,51.8 C231.4,53.5 226.2,53.5 222.3,51.8 Z M312.8,35.5 C311.8,34.3 310.6,33.2 309.2,32.3 C308.7,32 308.3,31.7 307.8,31.5 C309.4,30.3 310.6,28.8 311.5,27.2 C312.8,24.8 313.5,22.1 313.5,19.2 C313.5,17.6 313.2,15.9 312.7,14.3 C312.2,12.7 311.4,11.1 310.3,9.7 C309.2,8.3 307.8,6.9 306.2,5.8 C304.6,4.6 302.6,3.7 300.4,3 C297.5,2.1 293.7,1.6 289.1,1.6 L266.5,1.6 L266.5,64.8 L285.7,64.8 C287.4,64.8 288.9,64.8 290.2,64.7 C291.6,64.7 292.8,64.6 293.9,64.5 C295,64.4 296,64.3 297,64.1 C297.9,63.9 298.8,63.8 299.6,63.6 C302.7,62.8 305.4,61.6 307.5,60.2 C309.6,58.8 311.3,57.2 312.6,55.5 C313.9,53.8 314.8,51.9 315.3,50.1 C315.8,48.3 316.1,46.6 316.1,44.9 C316.1,43 315.8,41.3 315.3,39.7 C314.6,38.1 313.8,36.7 312.8,35.5 L312.8,35.5 Z M297.7,23.3 C297.2,24.2 296.3,24.8 295.1,25.4 C294.2,25.7 292.5,26.2 289.1,26.2 L281,26.2 L281,14.3 L288.2,14.3 C289.7,14.3 291,14.3 292,14.4 C293,14.5 293.8,14.6 294.5,14.8 C296,15.3 297.1,15.9 297.6,16.8 C298.2,17.7 298.5,18.8 298.5,20 C298.5,21.3 298.3,22.3 297.7,23.3 Z M281,38.8 L289.6,38.8 C291.3,38.8 292.8,38.9 293.9,39 C294.9,39.1 295.8,39.3 296.6,39.5 C298.2,40 299.3,40.7 300,41.7 C300.7,42.6 301,43.7 301,45 C301,45.8 300.9,46.5 300.7,47.2 C300.5,47.8 300.2,48.3 299.7,48.9 C299.2,49.4 298.6,49.9 297.7,50.4 C296.8,50.9 295.7,51.2 294.3,51.5 C293.4,51.7 292.3,51.9 291.1,52 C289.8,52.1 288.2,52.2 286.3,52.2 L281,52.2 L281,38.8 Z M363.9,36.9 C362.7,34.6 361.1,32.8 359.1,31.4 C357.2,30 354.9,29 352.4,28.2 C350,27.5 347.5,26.9 345,26.3 C343.4,26 341.9,25.6 340.6,25.3 C339.3,25 338.2,24.5 337.2,23.9 C336.3,23.4 335.7,22.8 335.2,22 C334.8,21.3 334.5,20.4 334.5,19.2 C334.5,17.2 335.2,15.8 336.6,14.8 C338.2,13.7 340.7,13.1 343.9,13.1 C346.3,13.1 348.9,13.4 351.6,13.9 C354.3,14.4 357.2,15.3 360.2,16.5 L362.7,17.5 L362.7,4.4 L361.6,3.9 C359.2,2.9 356.3,2 352.9,1.4 C346.2,0.1 339.2,0.1 333.8,1.6 C331,2.4 328.6,3.7 326.5,5.4 C324.4,7.1 322.7,9.3 321.5,11.8 C320.3,14.4 319.7,17.4 319.7,20.8 C319.7,23.9 320.2,26.6 321.3,28.7 C322.4,30.8 323.8,32.6 325.7,34 C327.5,35.3 329.5,36.4 331.8,37.2 C334,37.9 336.3,38.5 338.7,39.1 C340.4,39.5 342.1,39.8 343.7,40.2 C345.2,40.5 346.5,41 347.7,41.5 C348.7,42 349.5,42.6 350.1,43.3 C350.6,43.9 350.8,44.8 350.8,45.9 C350.8,47.3 350.5,48.4 349.9,49.2 C349.3,50.1 348.4,50.9 347.4,51.4 C346.2,52 344.9,52.4 343.4,52.7 C339.1,53.4 334.5,53.1 330.3,52.3 C327.6,51.7 324.8,50.8 322,49.6 L319.5,48.5 L319.5,61.5 L320.4,62 C322.6,63.2 325.5,64.2 328.8,64.9 C332,65.6 335.4,65.9 338.8,65.9 C342.6,65.9 346.2,65.5 349.5,64.7 C352.8,63.9 355.7,62.7 358.1,61 C360.5,59.3 362.4,57.1 363.7,54.5 C365,51.9 365.7,48.8 365.7,45.4 C365.7,42 365.1,39.2 363.9,36.9 Z M365.6,7.6 C365.6,7.2 365.7,6.8 365.8,6.5 C365.9,6.2 366.1,5.9 366.4,5.6 C366.6,5.4 366.9,5.2 367.3,5 C367.6,4.9 368,4.8 368.4,4.8 C368.8,4.8 369.1,4.9 369.5,5 C369.8,5.1 370.1,5.3 370.4,5.6 C370.6,5.8 370.8,6.1 371,6.5 C371.1,6.8 371.2,7.2 371.2,7.6 C371.2,8 371.1,8.4 371,8.7 C370.9,9 370.7,9.3 370.4,9.6 C370.2,9.8 369.9,10 369.5,10.2 C369.2,10.3 368.8,10.4 368.4,10.4 C368,10.4 367.7,10.3 367.3,10.2 C367,10.1 366.7,9.9 366.4,9.6 C366.2,9.4 366,9.1 365.8,8.7 C365.6,8.3 365.6,8 365.6,7.6 Z M366.3,7.6 C366.3,7.9 366.3,8.2 366.4,8.4 C366.5,8.7 366.6,8.9 366.8,9.1 C367,9.3 367.2,9.4 367.5,9.6 C367.8,9.7 368,9.8 368.3,9.8 C368.6,9.8 368.9,9.7 369.1,9.6 C369.4,9.5 369.6,9.3 369.8,9.1 C370,8.9 370.1,8.7 370.2,8.4 C370.3,8.1 370.3,7.9 370.3,7.6 C370.3,7.3 370.3,7 370.2,6.8 C370.1,6.5 370,6.3 369.8,6.1 C369.6,5.9 369.4,5.8 369.1,5.7 C368.8,5.6 368.6,5.5 368.3,5.5 C368,5.5 367.7,5.6 367.5,5.7 C367.2,5.8 367,6 366.8,6.1 C366.6,6.3 366.5,6.5 366.4,6.8 C366.3,7 366.3,7.3 366.3,7.6 Z M368.8,7.8 L369.6,8.9 L368.8,8.9 L368.1,7.9 L368,7.9 L368,8.9 L367.2,8.9 L367.2,6.2 L368.8,6.2 C368.9,6.2 369.1,6.3 369.2,6.3 L369.5,6.6 C369.6,6.7 369.6,6.8 369.6,7 C369.6,7.2 369.5,7.4 369.4,7.5 C369.2,7.7 369,7.7 368.8,7.8 L368.8,7.8 Z M368,6.7 L368,7.4 L368.2,7.4 C368.4,7.4 368.5,7.4 368.6,7.3 C368.7,7.2 368.7,7.2 368.7,7 C368.7,6.9 368.7,6.8 368.6,6.8 C368.5,6.7 368.4,6.7 368.3,6.7 L368,6.7 L368,6.7 Z" id="Shape"/></g></g></svg>