<svg xmlns="http://www.w3.org/2000/svg" width="16" height="16" fill="none" viewBox="0 0 16 16"><defs><clipPath id="a"><path fill="#fff" d="M1692 1306h16v16h-16z"/></clipPath></defs><g clip-path="url(#a)" transform="translate(-1692 -1306)"><g fill="currentColor"><path d="M1696 1314.8v3.2h3.2l7.43-7.43c.31-.31.31-.82 0-1.13l-2.07-2.07a.803.803 0 0 0-1.13 0zm2.54 1.6h-.94v-.94l4.73-4.72.93.93z"/><path d="M1705.6 1319.6h-11.2v-11.2h5.6v-1.6h-5.6c-.88 0-1.6.72-1.6 1.6v11.2c0 .88.72 1.6 1.6 1.6h11.2c.88 0 1.6-.72 1.6-1.6v-5.6h-1.6z"/></g></g></svg>