<?xml version="1.0" encoding="utf-8"?>
<!-- Generator: Adobe Illustrator 21.1.0, SVG Export Plug-In . SVG Version: 6.00 Build 0)  -->
<svg version="1.1" id="Layer_1" xmlns="http://www.w3.org/2000/svg" xmlns:xlink="http://www.w3.org/1999/xlink" x="0px" y="0px"
	 viewBox="0 0 96.2 96" enable-background="new 0 0 96.2 96" xml:space="preserve">
<title>timeout</title>
<g id="Layer_2">
	<g id="Layer_1-2">
		
			<linearGradient id="SVGID_1_" gradientUnits="userSpaceOnUse" x1="86.9709" y1="757.3591" x2="8.6709" y2="678.2791" gradientTransform="matrix(1 0 0 1 0 -670)">
			<stop  offset="0" style="stop-color:#00BFE7"/>
			<stop  offset="0.71" style="stop-color:#99D7F4"/>
		</linearGradient>
		<path fill="url(#SVGID_1_)" d="M8,0h80c4.4,0,8,3.6,8,8v80c0,4.4-3.6,8-8,8H8c-4.4,0-8-3.6-8-8V8C0,3.6,3.6,0,8,0z"/>
		
			<linearGradient id="SVGID_2_" gradientUnits="userSpaceOnUse" x1="91.1652" y1="765.9631" x2="62.5152" y2="735.0831" gradientTransform="matrix(1 0 0 1 0 -670)">
			<stop  offset="0" style="stop-color:#0071BB;stop-opacity:0"/>
			<stop  offset="1" style="stop-color:#0071BB;stop-opacity:0.5"/>
		</linearGradient>
		<path fill="url(#SVGID_2_)" d="M25.8,74.6L48,96h40c4.4,0,8-3.6,8-8l0.2-35.7L74.6,30.8L25.8,74.6z"/>
		<circle fill="#112E51" cx="87" cy="87" r="3"/>
		<circle fill="#112E51" cx="9" cy="87" r="3"/>
		<circle fill="#112E51" cx="87" cy="9" r="3"/>
		<circle fill="#112E51" cx="9" cy="9" r="3"/>
		<path fill="#0071BB" stroke="#112E51" stroke-width="2.5" stroke-linejoin="round" d="M51.6,26.1v-4.5h5v-8.2
			c0-0.9-0.7-1.6-1.6-1.6l0,0H41.6c-0.9,0-2.3,0.7-2.3,1.6v8.2h4.8v4.5"/>
		<path fill="#112E51" d="M71,36l3.9-4c0.1-0.1,0.2-0.3,0.2-0.5c0-0.1,0-0.3-0.1-0.4l-4.6-4.7c-0.1-0.1-0.2-0.1-0.4-0.1
			c-0.2,0-0.3,0.1-0.4,0.2l-3.9,4C67.3,32.5,69.1,34.3,71,36z"/>
		
			<ellipse fill="#FFFFFF" stroke="#112E51" stroke-width="3" stroke-linecap="round" stroke-linejoin="round" cx="48" cy="54.3" rx="28.3" ry="28.6"/>
		<ellipse fill="#FFFFFF" cx="48" cy="54.3" rx="22.9" ry="23.2"/>
		
			<ellipse fill="none" stroke="#112E51" stroke-width="1.5" stroke-miterlimit="10" stroke-dasharray="1.01,3.02" cx="48" cy="54.3" rx="22.9" ry="23.2"/>
		<ellipse fill="#D1F0FF" cx="48" cy="54.3" rx="15.5" ry="15.7"/>
		
			<line fill="none" stroke="#112E51" stroke-width="2" stroke-linecap="round" stroke-linejoin="round" x1="61.8" y1="39.9" x2="46.5" y2="55.6"/>
	</g>
</g>
</svg>
