<svg xmlns="http://www.w3.org/2000/svg" viewBox="0 0 292.1 39.47"><title>logo-white</title><g id="Layer_2" data-name="Layer 2"><g id="Layer_1-2" data-name="Layer 1"><rect x="7.44" y="6.89" width="17.2" height="22.06" fill="#fff"/><polygon points="53.45 5.28 47.29 5.28 47.29 32.59 65.16 32.59 65.16 27.21 53.45 27.21 53.45 5.28" fill="#fff"/><path d="M84.21,5.09c-8.35,0-14.67,5.89-14.67,13.85s6.32,13.93,14.67,13.93,14.67-6,14.67-13.93S92.56,5.09,84.21,5.09Zm.08,22.39a8.49,8.49,0,0,1-8.43-8.54,8.4,8.4,0,0,1,8.43-8.47,8.29,8.29,0,0,1,8.27,8.47A8.36,8.36,0,0,1,84.29,27.48Z" fill="#fff"/><path d="M119.65,10.43a11.43,11.43,0,0,1,7.49,3l3.47-4.41a17.21,17.21,0,0,0-11-4c-8.51,0-14.9,6-14.9,13.85S111,32.86,119.29,32.86a20.21,20.21,0,0,0,11.08-3.55V17.57H120.26v4.82H125V26a12.42,12.42,0,0,1-5.34,1.48,8.52,8.52,0,1,1,0-17Z" fill="#fff"/><rect x="139.26" y="5.28" width="6.17" height="27.31" fill="#fff"/><polygon points="173.79 22.84 160.52 5.28 154.91 5.28 154.91 32.59 160.8 32.59 160.8 15.07 174.02 32.59 179.64 32.59 179.64 5.28 173.79 5.28 173.79 22.84" fill="#fff"/><path d="M191.26,25.69a3.39,3.39,0,0,0-3.47,3.56,3.47,3.47,0,1,0,6.94,0A3.36,3.36,0,0,0,191.26,25.69Z" fill="#fff"/><path d="M214.41,10.43a11.43,11.43,0,0,1,7.49,3l3.47-4.41a17.21,17.21,0,0,0-11-4c-8.51,0-14.9,6-14.9,13.85s6.28,13.93,14.55,13.93a20.21,20.21,0,0,0,11.08-3.55V17.57H215v4.82h4.77V26a12.42,12.42,0,0,1-5.34,1.48,8.52,8.52,0,1,1,0-17Z" fill="#fff"/><path d="M246.64,5.09C238.29,5.09,232,11,232,18.94s6.32,13.93,14.67,13.93,14.67-6,14.67-13.93S255,5.09,246.64,5.09Zm.08,22.39a8.49,8.49,0,0,1-8.43-8.54,8.4,8.4,0,0,1,8.43-8.47A8.29,8.29,0,0,1,255,18.94,8.36,8.36,0,0,1,246.72,27.48Z" fill="#fff"/><polygon points="285.74 5.28 278.25 25.88 270.8 5.28 264.17 5.28 274.9 32.59 281.26 32.59 292.1 5.28 285.74 5.28" fill="#fff"/><path d="M11.38,25.34l1.45-8.28a4.39,4.39,0,0,1,2.71-7.86V0H4.34A4.34,4.34,0,0,0,0,4.34V25.62a2.62,2.62,0,0,0,.26,1.16c.94,1.9,4.65,8,15.27,12.69V25.7A24.3,24.3,0,0,1,11.38,25.34Z" fill="#e21d3e"/><path d="M26.72,0H15.53V9.19h0A4.39,4.39,0,0,1,18.28,17l1.45,8.32a24.29,24.29,0,0,1-4.2.36V39.47C26.14,34.8,29.86,28.68,30.8,26.79a2.62,2.62,0,0,0,.26-1.16V4.34A4.34,4.34,0,0,0,26.72,0Z" fill="#b51e23"/></g></g></svg>