<?xml version="1.0" encoding="UTF-8" standalone="no"?>
<svg width="16px" height="16px" viewBox="0 0 16 16" version="1.1" xmlns="http://www.w3.org/2000/svg" xmlns:xlink="http://www.w3.org/1999/xlink">
    <!-- Generator: Sketch 39.1 (31720) - http://www.bohemiancoding.com/sketch -->
    <title>Tooltip LG</title>
    <desc>Created with Sketch.</desc>
    <defs></defs>
    <g id="Symbols" stroke="none" stroke-width="1" fill="none" fill-rule="evenodd">
        <g id="Tooltip-LG">
            <circle id="Oval" fill="#0071BB" cx="8" cy="8" r="8"></circle>
            <path d="M6.915,9.766 C6.8683331,9.44866508 6.87999965,9.15933464 6.95,8.898 C7.02000035,8.63666536 7.12033268,8.39400112 7.251,8.17 C7.38166732,7.94599888 7.52866585,7.7406676 7.692,7.554 C7.85533415,7.3673324 8.01166592,7.18766753 8.161,7.015 C8.31033408,6.84233247 8.43399951,6.67433415 8.532,6.511 C8.63000049,6.34766585 8.679,6.17733422 8.679,6 C8.679,5.71066522 8.59266753,5.49133408 8.42,5.342 C8.24733247,5.19266592 8.0210014,5.118 7.741,5.118 C7.47966536,5.118 7.24866767,5.17866606 7.048,5.3 C6.84733233,5.42133394 6.6536676,5.5753324 6.467,5.762 L5.333,4.726 C5.6596683,4.34333142 6.04933107,4.0353345 6.502,3.802 C6.95466893,3.5686655 7.45633058,3.452 8.007,3.452 C8.3803352,3.452 8.72799839,3.4986662 9.05,3.592 C9.37200161,3.6853338 9.65199881,3.82999902 9.89,4.026 C10.1280012,4.22200098 10.314666,4.47166515 10.45,4.775 C10.585334,5.07833485 10.653,5.43533128 10.653,5.846 C10.653,6.13533478 10.6016672,6.39433219 10.499,6.623 C10.3963328,6.85166781 10.2680008,7.06399902 10.114,7.26 C9.95999923,7.45600098 9.79666753,7.64499909 9.624,7.827 C9.45133247,8.00900091 9.29266739,8.19799902 9.148,8.394 C9.00333261,8.59000098 8.88900042,8.79766557 8.805,9.017 C8.72099958,9.23633443 8.69299986,9.4859986 8.721,9.766 L6.915,9.766 Z M7.811,13.168 C7.45633156,13.168 7.1623345,13.0443346 6.929,12.797 C6.6956655,12.5496654 6.579,12.2440018 6.579,11.88 C6.579,11.5066648 6.6956655,11.1963346 6.929,10.949 C7.1623345,10.7016654 7.45633156,10.578 7.811,10.578 C8.16566844,10.578 8.46199881,10.7016654 8.7,10.949 C8.93800119,11.1963346 9.057,11.5066648 9.057,11.88 C9.057,12.2440018 8.93800119,12.5496654 8.7,12.797 C8.46199881,13.0443346 8.16566844,13.168 7.811,13.168 L7.811,13.168 Z" id="?" fill="#FFFFFF"></path>
        </g>
    </g>
</svg>