<svg xmlns="http://www.w3.org/2000/svg" width="16" height="16" fill="none" viewBox="0 0 16 16"><path fill="currentColor" d="M11.27 3.328c-.3 0-.6-.04-.87-.128C8.74 2.64 8 .8 5.6.8s-4 1.6-4 1.6v12.8h1.6v-4.43c.49-.25 1.06-.45 1.69-.45.23 0 .46.02.71.08 1.7.4 2.4 2.4 5.6 2.4 1.6 0 3.2-.8 3.2-.8V2.4s-1.64.928-3.13.928m1.53 7.582c-.48.15-1.06.29-1.6.29-1.46 0-2.11-.5-2.94-1.13-.62-.47-1.32-1-2.3-1.22-.35-.08-.71-.12-1.07-.12-.61 0-1.18.12-1.69.29V3.176C3.7 2.84 4.56 2.4 5.6 2.4c.86 0 1.32.344 2.13.992.58.472 1.25 1.008 2.16 1.32.42.144.89.216 1.38.216.52 0 1.04-.08 1.53-.2z"/></svg>