<svg xmlns="http://www.w3.org/2000/svg" width="20" height="20" fill="none" viewBox="0 0 20 20"><path fill="currentColor" d="M14.09 4.16c-.38 0-.75-.05-1.09-.16-2.07-.7-3-3-6-3S2 3 2 3v16h2v-5.54c.61-.31 1.32-.56 2.11-.56.29 0 .58.03.89.1 2.13.5 3 3 7 3 2 0 4-1 4-1V3s-2.05 1.16-3.91 1.16M16 13.64c-.6.19-1.33.36-2 .36-1.82 0-2.64-.62-3.68-1.41-.77-.59-1.65-1.25-2.87-1.53-.44-.1-.89-.15-1.34-.15-.76 0-1.47.15-2.11.37V3.97C4.63 3.55 5.7 3 7 3c1.08 0 1.65.43 2.66 1.24.73.59 1.56 1.26 2.7 1.65.53.18 1.11.27 1.73.27.65 0 1.3-.1 1.91-.25z"/></svg>