<svg xmlns="http://www.w3.org/2000/svg" width="24" height="24" fill="none" viewBox="0 0 24 24"><path fill="currentColor" d="M16.91 4.992c-.46 0-.9-.06-1.31-.192-2.48-.84-3.6-3.6-7.2-3.6s-6 2.4-6 2.4v19.2h2.4v-6.65c.73-.37 1.58-.67 2.53-.67.35 0 .7.04 1.07.12 2.56.6 3.6 3.6 8.4 3.6 2.4 0 4.8-1.2 4.8-1.2V3.6s-2.46 1.392-4.69 1.392M19.2 16.37c-.72.23-1.6.43-2.4.43-2.18 0-3.17-.74-4.42-1.69-.92-.71-1.98-1.5-3.44-1.84a7.3 7.3 0 0 0-1.61-.18c-.91 0-1.76.18-2.53.45V4.764C5.56 4.26 6.84 3.6 8.4 3.6c1.3 0 1.98.516 3.19 1.488.88.708 1.87 1.512 3.24 1.98.64.216 1.33.324 2.08.324.78 0 1.56-.12 2.29-.3z"/></svg>