<svg xmlns="http://www.w3.org/2000/svg" width="16" height="16" fill="none" viewBox="0 0 16 16"><defs><clipPath id="a"><path fill="#fff" d="M92 58h16v16H92z"/></clipPath></defs><g clip-path="url(#a)" transform="translate(-92 -58)"><path fill="currentColor" d="m92.158 64.486 4.448 3.472-1.624 5.528c-.112.376.32.664.632.432l4.384-3.424 4.384 3.424c.304.24.736-.056.632-.432l-1.624-5.528 4.448-3.472c.304-.232.136-.712-.248-.712h-5.52l-1.68-5.496a.402.402 0 0 0-.768 0l-1.696 5.488h-5.52a.398.398 0 0 0-.248.712z"/></g></svg>