<svg xmlns="http://www.w3.org/2000/svg" width="24" height="24" fill="none" viewBox="0 0 24 24"><defs><clipPath id="a"><path fill="#fff" d="M220 54h24v24h-24z"/></clipPath></defs><g clip-path="url(#a)" transform="translate(-220 -54)"><path fill="currentColor" d="m220.237 63.729 6.672 5.207-2.436 8.292c-.168.565.48.997.948.648l6.576-5.136 6.576 5.136c.456.36 1.104-.084.948-.648l-2.436-8.291 6.672-5.209c.456-.348.204-1.068-.372-1.068h-8.28l-2.52-8.243a.604.604 0 0 0-1.152 0l-2.544 8.231h-8.28a.598.598 0 0 0-.372 1.069z"/></g></svg>