<svg xmlns="http://www.w3.org/2000/svg" width="16" height="16" fill="none" viewBox="0 0 16 16"><defs><clipPath id="a"><path fill="#fff" d="M2012 1306h16v16h-16z"/></clipPath></defs><g clip-path="url(#a)" transform="translate(-2012 -1306)"><g fill="currentColor"><path d="m2023.99 1306.8-5.01 5.01c-.44-.14-.91-.21-1.39-.21-.33 0-.66.03-1.01.1-1.98.42-3.52 2.12-3.76 4.13a4.803 4.803 0 0 0 4.77 5.37h.11c2.37-.06 4.41-1.93 4.67-4.28.07-.67 0-1.31-.18-1.91h1.67v-1.67h1.68v-1.68h1.67v-4.86zm-3.61 7.75.28.92c.12.42.16.85.12 1.28-.17 1.57-1.54 2.82-3.11 2.85h-.07c-.91 0-1.78-.39-2.39-1.07a3.17 3.17 0 0 1-.79-2.52c.16-1.34 1.19-2.47 2.5-2.75.22-.04.46-.07.68-.07.31 0 .62.05.93.14l.92.28 5.21-5.22h.94v.94z"/><path d="M2017.59 1317.6c.67 0 1.2-.54 1.2-1.2s-.53-1.2-1.2-1.2c-.66 0-1.2.54-1.2 1.2s.54 1.2 1.2 1.2"/></g></g></svg>