<svg xmlns="http://www.w3.org/2000/svg" width="20" height="20" fill="none" viewBox="0 0 20 20"><g fill="currentColor"><path d="M14.99 1 8.73 7.26A6 6 0 0 0 6.99 7c-.41 0-.83.04-1.26.13-2.48.52-4.41 2.64-4.7 5.16A6 6 0 0 0 6.99 19h.14c2.96-.07 5.51-2.41 5.83-5.35.09-.84 0-1.64-.22-2.39h2.09V9.17h2.09V7.08h2.09V1zm-4.52 9.69.35 1.15c.16.52.21 1.06.15 1.6-.21 1.96-1.92 3.52-3.88 3.56H7c-1.14 0-2.23-.49-2.99-1.34a3.96 3.96 0 0 1-.98-3.15c.19-1.67 1.48-3.08 3.12-3.43.28-.06.57-.09.85-.09.39 0 .78.06 1.16.17l1.15.35 6.52-6.52H17v1.17z"/><path d="M6.99 14.5c.83 0 1.5-.67 1.5-1.5s-.67-1.5-1.5-1.5-1.5.67-1.5 1.5.67 1.5 1.5 1.5"/></g></svg>