<svg xmlns="http://www.w3.org/2000/svg" width="24" height="24" fill="none" viewBox="0 0 24 24"><g fill="currentColor"><path d="m17.99 1.2-7.51 7.51a7.24 7.24 0 0 0-3.6-.15c-2.98.62-5.3 3.16-5.64 6.19-.51 4.35 2.89 8.05 7.15 8.05h.17c3.55-.08 6.61-2.89 6.99-6.42.11-1.01 0-1.97-.26-2.87h2.51V11h2.5V8.5h2.51V1.2zm-5.43 11.63.42 1.38c.2.62.26 1.27.18 1.92-.25 2.35-2.3 4.22-4.65 4.27H8.4c-1.37 0-2.68-.59-3.59-1.61-.92-1.03-1.34-2.37-1.17-3.78.22-2 1.77-3.69 3.74-4.11.34-.08.68-.11 1.02-.11.47 0 .94.07 1.39.2l1.38.42L19 3.59h1.4v1.4z"/><path d="M8.39 17.4c.99 0 1.8-.81 1.8-1.8s-.81-1.8-1.8-1.8c-1 0-1.8.81-1.8 1.8s.8 1.8 1.8 1.8"/></g></svg>