<svg xmlns="http://www.w3.org/2000/svg" width="32" height="32" viewBox="0 0 32 32" fill="none" version="1.2" baseProfile="tiny-ps"><title>Login.gov</title><desc>Login.gov logo, a red badge with a keyhole</desc><path fill="#fff" d="M0 0h32v32H0z"/><path d="M23.004 3.643h-7.007v25c6.648-2.976 8.972-6.833 9.56-8.036a1.67 1.67 0 0 0 .165-.738V6.393c0-.729-.286-1.429-.796-1.945a2.7 2.7 0 0 0-1.922-.805z" fill="#b51e23"/><path d="M8.996 3.643c-1.501 0-2.718 1.231-2.718 2.75v13.476a1.67 1.67 0 0 0 .165.738c.588 1.19 2.942 5.077 9.555 8.036v-25H8.996z" fill="#e21c3d"/><path d="M17.721 14.417c.924-.736 1.286-1.983.901-3.107s-1.431-1.878-2.607-1.878-2.223.754-2.607 1.878-.023 2.372.901 3.107l-.906 5.25a15.24 15.24 0 0 0 2.595.226c.882.018 1.764-.042 2.636-.179l-.912-5.298z" fill="#fff"/></svg>