<svg width="293" height="41" viewBox="0 0 293 41" xmlns="http://www.w3.org/2000/svg"><g fill="none" fill-rule="evenodd"><path fill="#FFF" d="M8.39 7.52h17.2v22.06H8.39z"/><path fill="#112E51" d="M54.4 5.92h-6.16v27.31h17.87v-5.39H54.4zm30.76-.2c-8.35 0-14.67 5.89-14.67 13.85S76.81 33.5 85.16 33.5s14.67-6 14.67-13.93S93.51 5.72 85.16 5.72zm.08 22.39a8.49 8.49 0 0 1-8.43-8.54 8.4 8.4 0 0 1 8.43-8.47 8.51 8.51 0 0 1 0 17.02v-.01zm35.35-17.04a11.43 11.43 0 0 1 7.49 3l3.47-4.41a17.21 17.21 0 0 0-11-4c-8.51 0-14.9 6-14.9 13.85S112 33.5 120.24 33.5a20.21 20.21 0 0 0 11.08-3.5V18.21h-10.11V23H126v3.6a12.42 12.42 0 0 1-5.34 1.48 8.52 8.52 0 1 1-.07-17.01zm19.62-5.15h6.17v27.31h-6.17zm34.53 17.55L161.47 5.92h-5.62v27.31h5.9V15.71l13.22 17.52h5.62V5.92h-5.85zm17.47 2.86a3.39 3.39 0 0 0-3.47 3.56 3.47 3.47 0 1 0 6.94 0 3.36 3.36 0 0 0-3.47-3.56zm23.15-15.26a11.43 11.43 0 0 1 7.49 3l3.47-4.41a17.21 17.21 0 0 0-11-4c-8.51 0-14.9 6-14.9 13.85S206.74 33.5 215 33.5a20.21 20.21 0 0 0 11.09-3.5V18.21H216V23h4.77v3.6a12.42 12.42 0 0 1-5.34 1.48 8.52 8.52 0 1 1-.07-17.01zm32.23-5.35c-8.35 0-14.67 5.89-14.67 13.85s6.32 13.93 14.67 13.93 14.67-6 14.67-13.93-6.32-13.85-14.67-13.85zm.08 22.39a8.49 8.49 0 0 1-8.43-8.54 8.4 8.4 0 0 1 8.43-8.47 8.51 8.51 0 0 1 0 17.02v-.01zm39.02-22.19-7.49 20.6-7.45-20.6h-6.63l10.73 27.31h6.36l10.84-27.31z"/><path d="m12.33 26 1.45-8.28a4.39 4.39 0 0 1 2.71-7.86V.67H5.29A4.34 4.34 0 0 0 .95 5.01v21.28a2.62 2.62 0 0 0 .26 1.16c.94 1.9 4.65 8 15.27 12.69v-13.8a24.3 24.3 0 0 1-4.15-.34z" fill="#E21D3E"/><path d="M27.66.64H16.48v9.19a4.39 4.39 0 0 1 2.75 7.83l1.45 8.32a24.29 24.29 0 0 1-4.2.36v13.78c10.61-4.67 14.33-10.79 15.27-12.69a2.62 2.62 0 0 0 .26-1.16V5A4.34 4.34 0 0 0 27.66.64z" fill="#B51E23"/></g></svg>