<svg xmlns="http://www.w3.org/2000/svg" width="20" height="20" fill="none" viewBox="0 0 20 20"><path fill="#D80007" d="M20 3.5h-9.5v1H20zm0 2h-9.5v1H20zm0 2h-9.5v1H20zm0 2h-9.5v1H20zm0 2H0v1h20zm0 2H0v1h20zm0 2H0v1h20z"/><path fill="#004AC3" d="M0 3.5v7h10.5v-7zm1.25 6L1 9.25 1.25 9l.25.25zm0-1.5L1 7.75l.25-.25.25.25zm0-1.5L1 6.25 1.25 6l.25.25zm0-1.5L1 4.75l.25-.25.25.25zm1 3.75L2 8.5l.25-.25.25.25zm0-1.5L2 7l.25-.25.25.25zm0-1.5L2 5.5l.25-.25.25.25zm1 3.75L3 9.25 3.25 9l.25.25zm0-1.5L3 7.75l.25-.25.25.25zm0-1.5L3 6.25 3.25 6l.25.25zm0-1.5L3 4.75l.25-.25.25.25zm1 3.75L4 8.5l.25-.25.25.25zm0-1.5L4 7l.25-.25.25.25zm0-1.5L4 5.5l.25-.25.25.25zm1 3.75L5 9.25 5.25 9l.25.25zm0-1.5L5 7.75l.25-.25.25.25zm0-1.5L5 6.25 5.25 6l.25.25zm0-1.5L5 4.75l.25-.25.25.25zm1 3.75L6 8.5l.25-.25.25.25zm0-1.5L6 7l.25-.25.25.25zm0-1.5L6 5.5l.25-.25.25.25zm1 3.75L7 9.25 7.25 9l.25.25zm0-1.5L7 7.75l.25-.25.25.25zm0-1.5L7 6.25 7.25 6l.25.25zm0-1.5L7 4.75l.25-.25.25.25zm1 3.75L8 8.5l.25-.25.25.25zm0-1.5L8 7l.25-.25.25.25zm0-1.5L8 5.5l.25-.25.25.25zm1 3.75L9 9.25 9.25 9l.25.25zm0-1.5L9 7.75l.25-.25.25.25zm0-1.5L9 6.25 9.25 6l.25.25zm0-1.5L9 4.75l.25-.25.25.25z"/></svg>