<svg xmlns="http://www.w3.org/2000/svg" width="16" height="16" fill="none" viewBox="0 0 16 16"><path fill="currentColor" d="M3.736 1.6H2.664c-.588 0-1.064.476-1.064 1.064v1.072c0 .588.476 1.064 1.064 1.064h1.072c.588 0 1.064-.476 1.064-1.064V2.664c0-.588-.476-1.064-1.064-1.064m4.8 0H7.464c-.588 0-1.064.476-1.064 1.064v1.072c0 .588.476 1.064 1.064 1.064h1.072c.588 0 1.064-.476 1.064-1.064V2.664c0-.588-.476-1.064-1.064-1.064m4.8 0h-1.072c-.588 0-1.064.476-1.064 1.064v1.072c0 .588.476 1.064 1.064 1.064h1.072c.588 0 1.064-.476 1.064-1.064V2.664c0-.588-.476-1.064-1.064-1.064M8.8 11.336V7.2H7.2v4.136L5.128 9.272 4 10.4l4 4 4-4-1.128-1.128z"/></svg>