<svg xmlns="http://www.w3.org/2000/svg" width="20" height="20" fill="none" viewBox="0 0 20 20"><path fill="currentColor" d="M4.67 2H3.33A1.33 1.33 0 0 0 2 3.33v1.34C2 5.405 2.595 6 3.33 6h1.34A1.33 1.33 0 0 0 6 4.67V3.33A1.33 1.33 0 0 0 4.67 2m6 0H9.33A1.33 1.33 0 0 0 8 3.33v1.34C8 5.405 8.595 6 9.33 6h1.34A1.33 1.33 0 0 0 12 4.67V3.33A1.33 1.33 0 0 0 10.67 2m6 0h-1.34A1.33 1.33 0 0 0 14 3.33v1.34c0 .735.595 1.33 1.33 1.33h1.34A1.33 1.33 0 0 0 18 4.67V3.33A1.33 1.33 0 0 0 16.67 2M11 14.17V9H9v5.17l-2.59-2.58L5 13l5 5 5-5-1.41-1.41z"/></svg>