<svg xmlns="http://www.w3.org/2000/svg" width="24" height="24" fill="none" viewBox="0 0 24 24"><path fill="currentColor" d="M5.604 2.4H3.996c-.881 0-1.596.715-1.596 1.596v1.608c0 .881.715 1.596 1.596 1.596h1.608c.881 0 1.596-.715 1.596-1.596V3.996c0-.881-.715-1.596-1.596-1.596m7.2 0h-1.608c-.881 0-1.596.715-1.596 1.596v1.608c0 .881.715 1.596 1.596 1.596h1.608c.881 0 1.596-.715 1.596-1.596V3.996c0-.881-.715-1.596-1.596-1.596m7.2 0h-1.608c-.881 0-1.596.715-1.596 1.596v1.608c0 .881.715 1.596 1.596 1.596h1.608c.881 0 1.596-.715 1.596-1.596V3.996c0-.881-.715-1.596-1.596-1.596M13.2 17.004V10.8h-2.4v6.204l-3.108-3.096L6 15.6l6 6 6-6-1.692-1.692z"/></svg>