<svg xmlns="http://www.w3.org/2000/svg" viewBox="0 0 32 32"><path fill-rule="evenodd" d="M23.004 3.643h-7.007v25c6.648-2.976 8.972-6.833 9.56-8.036a1.7 1.7 0 0 0 .165-.738V6.393c0-.729-.286-1.429-.796-1.945a2.7 2.7 0 0 0-1.922-.805m-14.008 0c-1.501 0-2.718 1.231-2.718 2.75v13.476a1.7 1.7 0 0 0 .165.738c.588 1.19 2.942 5.077 9.555 8.036v-25zm8.725 10.774c.924-.736 1.286-1.983.901-3.107s-1.431-1.878-2.607-1.878-2.223.754-2.607 1.878-.023 2.372.901 3.107l-.906 5.25a15 15 0 0 0 2.595.226 15 15 0 0 0 2.636-.179l-.912-5.298z" clip-rule="evenodd"/></svg>