<svg xmlns="http://www.w3.org/2000/svg" viewBox="0 0 275.61 154.52"><title>2FA-text-message</title><g id="Layer_2" data-name="Layer 2"><g id="Layer_1-2" data-name="Layer 1"><path d="M156.85,0H28.1A28.14,28.14,0,0,0,0,28.11V154.52H11.54v-101H172.8v101H185V28.11A28.13,28.13,0,0,0,156.85,0ZM104.41,34.89H79.93a3.93,3.93,0,1,1,0-7.85h24.48a3.93,3.93,0,1,1,0,7.85Z"/><rect x="11.54" y="62.81" width="161.27" height="91.71" fill="#ebf3fa"/><rect x="11.54" y="53.49" width="161.27" height="9.32" fill="#5b616a"/><path d="M104.41,27H79.93a3.93,3.93,0,1,0,0,7.85h24.48a3.93,3.93,0,1,0,0-7.85Z" fill="#5b616a"/><path d="M237.83,45.34h-172a37.76,37.76,0,0,0-29.74,61.05,32.7,32.7,0,0,0-5.91,19.42,56.4,56.4,0,0,1,16.58-10.09,37.53,37.53,0,0,0,19.07,5.17h172a37.78,37.78,0,1,0,0-75.55Z" fill="#68e380"/><path d="M57.92,93.2l4-7-7.25-3.29,1.54-4.84L64,79.7l.87-7.92H70l.87,8,7.73-1.68,1.61,4.84L73,86.22l4,7-4.1,3-5.37-6-5.44,6Z"/><path d="M88.61,93.2l4-7-7.26-3.29,1.55-4.84,7.79,1.61.87-7.92h5.17l.88,8,7.72-1.68,1.61,4.84-7.25,3.29,4,7-4.1,3-5.37-6-5.44,6Z"/><path d="M119.31,93.2l4-7L116,82.93l1.55-4.84,7.79,1.61.87-7.92h5.17l.88,8L140,78.09l1.61,4.84-7.25,3.29,4,7-4.09,3-5.38-6-5.44,6Z"/><path d="M164,93.2l4-7-7.25-3.29,1.54-4.84L170,79.7l.87-7.92h5.18l.87,8,7.72-1.68,1.61,4.84L179,86.22l4,7-4.09,3-5.38-6-5.44,6Z"/><path d="M194.66,93.2l4-7-7.25-3.29,1.54-4.84,7.79,1.61.88-7.92h5.17l.87,8,7.72-1.68L217,82.93l-7.26,3.29,4,7-4.1,3-5.37-6-5.44,6Z"/><path d="M225.35,93.2l4-7-7.25-3.29,1.54-4.84,7.8,1.61.87-7.92h5.17l.87,8L246,78.09l1.61,4.84-7.25,3.29,4,7-4.1,3-5.37-6-5.44,6Z"/></g></g></svg>