<?xml version="1.0" encoding="UTF-8"?>
<svg width="13px" height="12px" viewBox="0 0 13 12" version="1.1" xmlns="http://www.w3.org/2000/svg" xmlns:xlink="http://www.w3.org/1999/xlink">
    <!-- Generator: Sketch 43.2 (39069) - http://www.bohemiancoding.com/sketch -->
    <title>download</title>
    <desc>Created with Sketch.</desc>
    <defs></defs>
    <g id="Symbols" stroke="none" stroke-width="1" fill="none" fill-rule="evenodd">
        <g id="Components/Card/📱Requirement-listing" transform="translate(-297.000000, -366.000000)" fill="#0071BB">
            <g id="Requirement">
                <g id="Stacked-Group" transform="translate(20.000000, 306.000000)">
                    <path d="M287,70.5 C287,70.3645827 286.950521,70.2473963 286.851562,70.1484375 C286.752604,70.0494787 286.635417,70 286.5,70 C286.364583,70 286.247396,70.0494787 286.148438,70.1484375 C286.049479,70.2473963 286,70.3645827 286,70.5 C286,70.6354173 286.049479,70.7526037 286.148438,70.8515625 C286.247396,70.9505213 286.364583,71 286.5,71 C286.635417,71 286.752604,70.9505213 286.851562,70.8515625 C286.950521,70.7526037 287,70.6354173 287,70.5 Z M289,70.5 C289,70.3645827 288.950521,70.2473963 288.851562,70.1484375 C288.752604,70.0494787 288.635417,70 288.5,70 C288.364583,70 288.247396,70.0494787 288.148438,70.1484375 C288.049479,70.2473963 288,70.3645827 288,70.5 C288,70.6354173 288.049479,70.7526037 288.148438,70.8515625 C288.247396,70.9505213 288.364583,71 288.5,71 C288.635417,71 288.752604,70.9505213 288.851562,70.8515625 C288.950521,70.7526037 289,70.6354173 289,70.5 Z M290,68.75 L290,71.25 C290,71.4583344 289.927084,71.6354159 289.78125,71.78125 C289.635416,71.9270841 289.458334,72 289.25,72 L277.75,72 C277.541666,72 277.364584,71.9270841 277.21875,71.78125 C277.072916,71.6354159 277,71.4583344 277,71.25 L277,68.75 C277,68.5416656 277.072916,68.3645841 277.21875,68.21875 C277.364584,68.0729159 277.541666,68 277.75,68 L281.382812,68 L282.4375,69.0625 C282.739585,69.3541681 283.093748,69.5 283.5,69.5 C283.906252,69.5 284.260415,69.3541681 284.5625,69.0625 L285.625,68 L289.25,68 C289.458334,68 289.635416,68.0729159 289.78125,68.21875 C289.927084,68.3645841 290,68.5416656 290,68.75 Z M287.460938,64.3046875 C287.54948,64.5182302 287.513022,64.7005201 287.351562,64.8515625 L283.851562,68.3515625 C283.757812,68.4505213 283.640626,68.5 283.5,68.5 C283.359374,68.5 283.242188,68.4505213 283.148438,68.3515625 L279.648438,64.8515625 C279.486978,64.7005201 279.45052,64.5182302 279.539062,64.3046875 C279.627605,64.1015615 279.781249,64 280,64 L282,64 L282,60.5 C282,60.3645827 282.049479,60.2473963 282.148438,60.1484375 C282.247396,60.0494787 282.364583,60 282.5,60 L284.5,60 C284.635417,60 284.752604,60.0494787 284.851562,60.1484375 C284.950521,60.2473963 285,60.3645827 285,60.5 L285,64 L287,64 C287.218751,64 287.372395,64.1015615 287.460938,64.3046875 Z" id="download"></path>
                </g>
            </g>
        </g>
    </g>
</svg>