<svg width="360" height="117" viewBox="0 0 360 117" fill="none" xmlns="http://www.w3.org/2000/svg">
<g clip-path="url(#clip0)">
<mask id="mask0" mask-type="alpha" maskUnits="userSpaceOnUse" x="4" y="15" width="91" height="91">
<path d="M49.5 105C74.3528 105 94.5 84.8528 94.5 60C94.5 35.1472 74.3528 15 49.5 15C24.6472 15 4.5 35.1472 4.5 60C4.5 84.8528 24.6472 105 49.5 105Z" fill="white"/>
</mask>
<g mask="url(#mask0)">
<path d="M49.5 105C74.3528 105 94.5 84.8528 94.5 60C94.5 35.1472 74.3528 15 49.5 15C24.6472 15 4.5 35.1472 4.5 60C4.5 84.8528 24.6472 105 49.5 105Z" fill="#E6E6E6"/>
<path d="M94.5 15H4.5V105H94.5V15Z" fill="#F2F9FF"/>
</g>
<mask id="mask1" mask-type="alpha" maskUnits="userSpaceOnUse" x="0" y="0" width="99" height="105">
<path d="M4.5 60C4.5 84.8528 24.6472 105 49.5 105C74.3528 105 94.5 84.8528 94.5 60H99V0H0V60H4.5Z" fill="white"/>
</mask>
<g mask="url(#mask1)">
<mask id="mask2" mask-type="alpha" maskUnits="userSpaceOnUse" x="12" y="13" width="75" height="92">
<path d="M58.5 67.7291V74.625H60C74.9117 74.625 87 86.7133 87 101.625V105H12V101.625C12 86.7133 24.0883 74.625 39 74.625H40.5V67.7291C34.036 64.6584 29.3896 58.3826 28.6144 50.9555C26.4301 50.6467 24.75 48.7695 24.75 46.5V41.25C24.75 39.0203 26.3717 37.1693 28.5 36.8122V34.5C28.5 22.902 37.902 13.5 49.5 13.5C61.098 13.5 70.5 22.902 70.5 34.5V36.8122C72.6283 37.1693 74.25 39.0203 74.25 41.25V46.5C74.25 48.7695 72.5699 50.6467 70.3856 50.9555C69.6104 58.3826 64.964 64.6584 58.5 67.7291Z" fill="white"/>
</mask>
<g mask="url(#mask2)">
<path d="M58.5 67.7291V74.625H60C74.9117 74.625 87 86.7133 87 101.625V105H12V101.625C12 86.7133 24.0883 74.625 39 74.625H40.5V67.7291C34.036 64.6584 29.3896 58.3826 28.6144 50.9555C26.4301 50.6467 24.75 48.7695 24.75 46.5V41.25C24.75 39.0203 26.3717 37.1693 28.5 36.8122V34.5C28.5 22.902 37.902 13.5 49.5 13.5C61.098 13.5 70.5 22.902 70.5 34.5V36.8122C72.6283 37.1693 74.25 39.0203 74.25 41.25V46.5C74.25 48.7695 72.5699 50.6467 70.3856 50.9555C69.6104 58.3826 64.964 64.6584 58.5 67.7291Z" fill="#D0C6AC"/>
<path d="M99 13.5H0V105H99V13.5Z" fill="#D08B5B"/>
<path fill-rule="evenodd" clip-rule="evenodd" d="M70.5 43.125V51.75C70.5 63.348 61.098 72.75 49.5 72.75C37.902 72.75 28.5 63.348 28.5 51.75V43.125V48.75C28.5 60.348 37.902 69.75 49.5 69.75C61.098 69.75 70.5 60.348 70.5 48.75V43.125Z" fill="black" fill-opacity="0.1"/>
</g>
<mask id="mask3" mask-type="alpha" maskUnits="userSpaceOnUse" x="12" y="74" width="75" height="32">
<path fill-rule="evenodd" clip-rule="evenodd" d="M62.2352 74.7356C76.1012 75.8719 87 87.4854 87 101.644V105H12V101.644C12 87.3572 23.097 75.6619 37.142 74.7073C37.1307 74.8474 37.125 74.9885 37.125 75.1304C37.125 79.579 42.7494 83.1854 49.6875 83.1854C56.6256 83.1854 62.25 79.579 62.25 75.1304C62.25 74.998 62.245 74.8664 62.2352 74.7356Z" fill="white"/>
</mask>
<g mask="url(#mask3)">
<path fill-rule="evenodd" clip-rule="evenodd" d="M62.2352 74.7356C76.1012 75.8719 87 87.4854 87 101.644V105H12V101.644C12 87.3572 23.097 75.6619 37.142 74.7073C37.1307 74.8474 37.125 74.9885 37.125 75.1304C37.125 79.579 42.7494 83.1854 49.6875 83.1854C56.6256 83.1854 62.25 79.579 62.25 75.1304C62.25 74.998 62.245 74.8664 62.2352 74.7356Z" fill="#E6E6E6"/>
<path d="M99 63.75H0V105H99V63.75Z" fill="#262E33"/>
<g opacity="0.6">
<g opacity="0.6">
<path opacity="0.6" d="M49.6874 85.7856C57.8961 85.7856 64.5505 81.2669 64.5505 75.6929C64.5505 70.1188 57.8961 65.6002 49.6874 65.6002C41.4787 65.6002 34.8242 70.1188 34.8242 75.6929C34.8242 81.2669 41.4787 85.7856 49.6874 85.7856Z" fill="black" fill-opacity="0.16"/>
</g>
</g>
</g>
<path fill-rule="evenodd" clip-rule="evenodd" d="M37.7943 74.6708C23.4421 75.3015 12 87.1367 12 101.644H12V105H38.0106C36.7353 100.47 36 95.1408 36 89.4375C36 84.0649 36.6525 79.0242 37.7943 74.6708ZM61.3644 105H87V101.644C87 87.265 75.7594 75.5111 61.5858 74.6902C62.7244 79.0391 63.375 84.0728 63.375 89.4375C63.375 95.1408 62.6397 100.47 61.3644 105Z" fill="#3A4C5A"/>
<path fill-rule="evenodd" clip-rule="evenodd" d="M67.875 96L71.4584 93.3124C71.9996 92.9066 72.7454 92.9131 73.2794 93.3284L75.75 95.25L67.875 96Z" fill="#E6E6E6"/>
<path fill-rule="evenodd" clip-rule="evenodd" d="M37.875 74.25C36.375 81.5 37 91.75 39.75 105H33.75L28.5 91.5L30.75 88.125L28.5 85.875L35.625 74.625C36.3854 74.3885 37.1354 74.2635 37.875 74.25Z" fill="#2F4351"/>
<path fill-rule="evenodd" clip-rule="evenodd" d="M61.125 74.25C62.625 81.5 62 91.75 59.25 105H65.25L70.5 91.5L68.25 88.125L70.5 85.875L63.375 74.625C62.6146 74.3885 61.8646 74.2635 61.125 74.25Z" fill="#2F4351"/>
<mask id="path-17-inside-1" fill="white">
<path fill-rule="evenodd" clip-rule="evenodd" d="M50 103C73.7482 103 93 83.7482 93 60C93 36.2518 73.7482 17 50 17C26.2518 17 7 36.2518 7 60C7 83.7482 26.2518 103 50 103ZM50 105C74.8528 105 95 84.8528 95 60C95 35.1472 74.8528 15 50 15C25.1472 15 5 35.1472 5 60C5 84.8528 25.1472 105 50 105Z"/>
</mask>
<path d="M91 60C91 82.6437 72.6437 101 50 101V105C74.8528 105 95 84.8528 95 60H91ZM50 19C72.6437 19 91 37.3563 91 60H95C95 35.1472 74.8528 15 50 15V19ZM9 60C9 37.3563 27.3563 19 50 19V15C25.1472 15 5 35.1472 5 60H9ZM50 101C27.3563 101 9 82.6437 9 60H5C5 84.8528 25.1472 105 50 105V101ZM93 60C93 83.7482 73.7482 103 50 103V107C75.9574 107 97 85.9574 97 60H93ZM50 17C73.7482 17 93 36.2518 93 60H97C97 34.0426 75.9574 13 50 13V17ZM7 60C7 36.2518 26.2518 17 50 17V13C24.0426 13 3 34.0426 3 60H7ZM50 103C26.2518 103 7 83.7482 7 60H3C3 85.9574 24.0426 107 50 107V103Z" fill="#0071BB" mask="url(#path-17-inside-1)"/>
<path fill-rule="evenodd" clip-rule="evenodd" d="M44.25 55.875C44.25 58.7745 46.6005 61.125 49.5 61.125C52.3995 61.125 54.75 58.7745 54.75 55.875" fill="black" fill-opacity="0.7"/>
<path fill-rule="evenodd" clip-rule="evenodd" d="M45 48.75C45 50.4069 47.0147 51.75 49.5 51.75C51.9853 51.75 54 50.4069 54 48.75" fill="black" fill-opacity="0.16"/>
<path d="M39.75 44.25C40.9926 44.25 42 43.2426 42 42C42 40.7574 40.9926 39.75 39.75 39.75C38.5074 39.75 37.5 40.7574 37.5 42C37.5 43.2426 38.5074 44.25 39.75 44.25Z" fill="black" fill-opacity="0.6"/>
<path d="M59.25 44.25C60.4926 44.25 61.5 43.2426 61.5 42C61.5 40.7574 60.4926 39.75 59.25 39.75C58.0074 39.75 57 40.7574 57 42C57 43.2426 58.0074 44.25 59.25 44.25Z" fill="black" fill-opacity="0.6"/>
<path d="M34.3614 37.1845C35.8295 35.1187 39.8543 33.9603 43.3212 34.8117C43.7235 34.9105 44.1296 34.6645 44.2284 34.2622C44.3272 33.86 44.0812 33.4538 43.6789 33.355C39.6527 32.3663 34.9921 33.7076 33.1387 36.3155C32.8988 36.6532 32.978 37.1214 33.3156 37.3614C33.6532 37.6013 34.1215 37.5221 34.3614 37.1845Z" fill="black" fill-opacity="0.6"/>
<path d="M64.6388 37.1845C63.1707 35.1187 59.146 33.9603 55.679 34.8117C55.2768 34.9105 54.8706 34.6645 54.7718 34.2622C54.673 33.86 54.9191 33.4538 55.3213 33.355C59.3475 32.3663 64.0081 33.7076 65.8615 36.3155C66.1015 36.6532 66.0223 37.1214 65.6847 37.3614C65.347 37.6013 64.8788 37.5221 64.6388 37.1845Z" fill="black" fill-opacity="0.6"/>
<mask id="mask4" mask-type="alpha" maskUnits="userSpaceOnUse" x="0" y="0" width="99" height="105">
<path d="M99 0H0V105H99V0Z" fill="white"/>
</mask>
<g mask="url(#mask4)">
<mask id="mask5" mask-type="alpha" maskUnits="userSpaceOnUse" x="14" y="5" width="76" height="95">
<path fill-rule="evenodd" clip-rule="evenodd" d="M22.5 64.7028V31.5174C22.5 30.1928 22.6493 28.9031 22.932 27.6641C24.0769 20.1493 28.4157 14.1791 33.375 10.5C40.8392 4.96516 53.4157 3.36816 57.7676 9.9458C61.0119 8.5054 65.8196 9.8183 69.375 13.125C72.9619 16.6557 75.8249 24.449 74.1215 30.8263C74.1608 31.301 74.1808 31.7809 74.1808 32.2653V40.4596C73.8503 38.5944 72.3709 37.1261 70.5 36.8122V36.75C68.2364 28.6741 61.5861 24.9675 57.5361 21.2914C51.2008 28.3775 31.4335 28.4024 24.75 42.375V46.125C24.75 48.382 26.4116 50.2509 28.5782 50.5752C29.2319 58.1681 33.926 64.6061 40.5 67.7291V67.875C41.5989 84.3207 38.0094 104.924 14.625 98.625C19.7271 95.6392 22.428 76.5208 22.5 64.7028ZM58.5 67.7291C65.074 64.6061 69.7681 58.1681 70.4218 50.5752C72.3295 50.2896 73.8457 48.8066 74.1808 46.9155V47.4264C74.1808 53.362 75.5898 59.2127 78.2918 64.4976L88.3975 84.2629C91.0087 89.37 90.2421 95.3151 86.9215 99.5509C85.8623 85.6083 74.2138 74.625 60 74.625H58.5V67.7291Z" fill="white"/>
</mask>
<g mask="url(#mask5)">
<path fill-rule="evenodd" clip-rule="evenodd" d="M22.5 64.7028V31.5174C22.5 30.1928 22.6493 28.9031 22.932 27.6641C24.0769 20.1493 28.4157 14.1791 33.375 10.5C40.8392 4.96516 53.4157 3.36816 57.7676 9.9458C61.0119 8.5054 65.8196 9.8183 69.375 13.125C72.9619 16.6557 75.8249 24.449 74.1215 30.8263C74.1608 31.301 74.1808 31.7809 74.1808 32.2653V40.4596C73.8503 38.5944 72.3709 37.1261 70.5 36.8122V36.75C68.2364 28.6741 61.5861 24.9675 57.5361 21.2914C51.2008 28.3775 31.4335 28.4024 24.75 42.375V46.125C24.75 48.382 26.4116 50.2509 28.5782 50.5752C29.2319 58.1681 33.926 64.6061 40.5 67.7291V67.875C41.5989 84.3207 38.0094 104.924 14.625 98.625C19.7271 95.6392 22.428 76.5208 22.5 64.7028ZM58.5 67.7291C65.074 64.6061 69.7681 58.1681 70.4218 50.5752C72.3295 50.2896 73.8457 48.8066 74.1808 46.9155V47.4264C74.1808 53.362 75.5898 59.2127 78.2918 64.4976L88.3975 84.2629C91.0087 89.37 90.2421 95.3151 86.9215 99.5509C85.8623 85.6083 74.2138 74.625 60 74.625H58.5V67.7291Z" fill="#272C2E"/>
<path d="M113.625 5.62549H14.625V110.625H113.625V5.62549Z" fill="#2C1B18"/>
</g>
<path fill-rule="evenodd" clip-rule="evenodd" d="M24.75 42.375C31.4335 30.2493 51.2008 30.2276 57.5361 24.0782C61.5778 27.2619 68.2094 29.725 70.4861 36.7008C68.2094 28.659 61.5778 24.9601 57.5361 21.2914C51.2008 28.3775 31.4335 28.4025 24.75 42.375Z" fill="black" fill-opacity="0.16"/>
</g>
</g>
<path fill-rule="evenodd" clip-rule="evenodd" d="M4.04462 58C4.01498 58.6772 4 59.3581 4 60.0426C4 85.4241 24.5949 106 50 106C75.4051 106 96 85.4241 96 60.0426C96 59.3581 95.985 58.6772 95.9554 58H93.9533C93.9843 58.677 94 59.3579 94 60.0426C94 84.3178 74.3023 104 50 104C25.6977 104 6 84.3178 6 60.0426C6 59.3579 6.01567 58.677 6.04666 58H4.04462Z" fill="white"/>
<mask id="path-31-inside-2" fill="white">
<path fill-rule="evenodd" clip-rule="evenodd" d="M5.04365 58C5.01465 58.663 5 59.3298 5 60C5 84.8528 25.1472 105 50 105C74.8528 105 95 84.8528 95 60C95 59.3298 94.9854 58.663 94.9564 58H92.9543C92.9847 58.6629 93 59.3296 93 60C93 83.7482 73.7482 103 50 103C26.2518 103 7 83.7482 7 60C7 59.3296 7.01534 58.6629 7.04569 58H5.04365Z"/>
</mask>
<path d="M5.04365 58V56H3.12921L3.04556 57.9126L5.04365 58ZM94.9564 58L96.9544 57.9126L96.8708 56H94.9564V58ZM92.9543 58V56H90.8606L90.9564 58.0915L92.9543 58ZM7.04569 58L9.0436 58.0915L9.13935 56H7.04569V58ZM3.04556 57.9126C3.01529 58.6048 3 59.3007 3 60H7C7 59.359 7.01401 58.7213 7.04174 58.0874L3.04556 57.9126ZM3 60C3 85.9574 24.0426 107 50 107V103C26.2518 103 7 83.7482 7 60H3ZM50 107C75.9574 107 97 85.9574 97 60H93C93 83.7482 73.7482 103 50 103V107ZM97 60C97 59.3007 96.9847 58.6048 96.9544 57.9126L92.9583 58.0874C92.986 58.7213 93 59.359 93 60H97ZM94.9564 56H92.9543V60H94.9564V56ZM95 60C95 59.2991 94.984 58.6019 94.9522 57.9085L90.9564 58.0915C90.9854 58.7239 91 59.3601 91 60H95ZM50 105C74.8528 105 95 84.8528 95 60H91C91 82.6437 72.6437 101 50 101V105ZM5 60C5 84.8528 25.1472 105 50 105V101C27.3563 101 9 82.6437 9 60H5ZM5.04778 57.9085C5.01604 58.6018 5 59.2991 5 60H9C9 59.3602 9.01464 58.7239 9.0436 58.0915L5.04778 57.9085ZM7.04569 56H5.04365V60H7.04569V56Z" fill="#0071BB" mask="url(#path-31-inside-2)"/>
</g>
<circle cx="176.5" cy="60.5" r="25.5" fill="#F2F9FF" stroke="#0071BB" stroke-width="2"/>
<circle cx="202.5" cy="60.5" r="3.5" fill="white" stroke="#0071BB" stroke-width="2"/>
<circle cx="150.5" cy="60.5" r="3.5" fill="white" stroke="#0071BB" stroke-width="2"/>
<circle cx="94.5" cy="60.5" r="3.5" fill="white" stroke="#0071BB" stroke-width="2"/>
<path d="M187.942 40.3604H167.041V67.1671H187.942V40.3604Z" fill="white"/>
<path d="M171.829 62.8175L173.591 52.7559C172.71 52.0731 172.065 51.1315 171.746 50.0633C171.428 48.9952 171.452 47.8541 171.815 46.8003C172.178 45.7466 172.863 44.8331 173.772 44.1881C174.681 43.5432 175.769 43.1993 176.884 43.2046V32.0372H163.274C161.875 32.0372 160.534 32.5928 159.545 33.5819C158.556 34.5709 158 35.9123 158 37.311V63.1699C157.996 63.6577 158.104 64.14 158.316 64.5795C159.458 66.8883 163.967 74.3008 176.872 80V63.2306C175.182 63.2374 173.495 63.0992 171.829 62.8175Z" fill="#E21D3E"/>
<path d="M190.457 32H176.872V43.1674C177.982 43.1617 179.066 43.5022 179.973 44.1415C180.88 44.7809 181.565 45.6872 181.933 46.7342C182.3 47.7813 182.332 48.917 182.024 49.9831C181.716 51.0493 181.083 51.9928 180.214 52.6822L181.976 62.7925C180.29 63.0859 178.583 63.2323 176.872 63.2299V79.975C189.765 74.3001 194.285 66.8633 195.428 64.5545C195.639 64.115 195.748 63.6327 195.743 63.1449V37.2982C195.747 36.6025 195.612 35.9131 195.348 35.2697C195.083 34.6262 194.694 34.0414 194.203 33.549C193.712 33.0565 193.128 32.6661 192.485 32.4003C191.842 32.1344 191.153 31.9984 190.457 32Z" fill="#B51E23"/>
<circle cx="303" cy="60" r="44" fill="#F2F9FF" stroke="#0071BB" stroke-width="2"/>
<rect x="266" y="39" width="74" height="52" fill="white"/>
<path fill-rule="evenodd" clip-rule="evenodd" d="M291.286 29.9167H297.143V35.8333H291.286V29.9167ZM279.571 29.9167H285.429V35.8333H279.571V29.9167ZM267.857 29.9167H273.714V35.8333H267.857V29.9167ZM338.143 89.0833H267.857V41.75H338.143V89.0833ZM338.143 35.8333H303V29.9167H338.143V35.8333ZM344 29.9167C344 26.6625 341.364 24 338.143 24H267.857C264.636 24 262 26.6625 262 29.9167V89.0833C262 92.3375 264.636 95 267.857 95H338.143C341.364 95 344 92.3375 344 89.0833V29.9167Z" fill="#0071BB"/>
<circle cx="303" cy="60" r="44" stroke="#0071BB" stroke-width="2"/>
<path fill-rule="evenodd" clip-rule="evenodd" d="M246 60C246 91.4802 271.52 117 303 117C334.48 117 360 91.4802 360 60H348C348 84.8528 327.853 105 303 105C278.147 105 258 84.8528 258 60H246Z" fill="white"/>
<g clip-path="url(#clip1)">
<mask id="mask6" mask-type="alpha" maskUnits="userSpaceOnUse" x="274" y="52" width="31" height="31">
<path d="M289.5 82C297.784 82 304.5 75.2843 304.5 67C304.5 58.7157 297.784 52 289.5 52C281.216 52 274.5 58.7157 274.5 67C274.5 75.2843 281.216 82 289.5 82Z" fill="white"/>
</mask>
<g mask="url(#mask6)">
<path d="M289.5 82C297.784 82 304.5 75.2843 304.5 67C304.5 58.7157 297.784 52 289.5 52C281.216 52 274.5 58.7157 274.5 67C274.5 75.2843 281.216 82 289.5 82Z" fill="#E6E6E6"/>
<path d="M304.5 52H274.5V82H304.5V52Z" fill="#CEDCED"/>
</g>
<mask id="mask7" mask-type="alpha" maskUnits="userSpaceOnUse" x="273" y="47" width="33" height="35">
<path d="M274.5 67C274.5 75.2843 281.216 82 289.5 82C297.784 82 304.5 75.2843 304.5 67H306V47H273V67H274.5Z" fill="white"/>
</mask>
<g mask="url(#mask7)">
<mask id="mask8" mask-type="alpha" maskUnits="userSpaceOnUse" x="277" y="51" width="25" height="31">
<path d="M292.5 69.5764V71.875H293C297.971 71.875 302 75.9044 302 80.875V82H277V80.875C277 75.9044 281.029 71.875 286 71.875H286.5V69.5764C284.345 68.5528 282.797 66.4609 282.538 63.9852C281.81 63.8822 281.25 63.2565 281.25 62.5V60.75C281.25 60.0068 281.791 59.3898 282.5 59.2707V58.5C282.5 54.634 285.634 51.5 289.5 51.5C293.366 51.5 296.5 54.634 296.5 58.5V59.2707C297.209 59.3898 297.75 60.0068 297.75 60.75V62.5C297.75 63.2565 297.19 63.8822 296.462 63.9852C296.203 66.4609 294.655 68.5528 292.5 69.5764Z" fill="white"/>
</mask>
<g mask="url(#mask8)">
<path d="M292.5 69.5764V71.875H293C297.971 71.875 302 75.9044 302 80.875V82H277V80.875C277 75.9044 281.029 71.875 286 71.875H286.5V69.5764C284.345 68.5528 282.797 66.4609 282.538 63.9852C281.81 63.8822 281.25 63.2565 281.25 62.5V60.75C281.25 60.0068 281.791 59.3898 282.5 59.2707V58.5C282.5 54.634 285.634 51.5 289.5 51.5C293.366 51.5 296.5 54.634 296.5 58.5V59.2707C297.209 59.3898 297.75 60.0068 297.75 60.75V62.5C297.75 63.2565 297.19 63.8822 296.462 63.9852C296.203 66.4609 294.655 68.5528 292.5 69.5764Z" fill="#D0C6AC"/>
<path d="M306 51.5H273V82H306V51.5Z" fill="#D08B5B"/>
<path fill-rule="evenodd" clip-rule="evenodd" d="M296.5 61.375V64.25C296.5 68.116 293.366 71.25 289.5 71.25C285.634 71.25 282.5 68.116 282.5 64.25V61.375V63.25C282.5 67.116 285.634 70.25 289.5 70.25C293.366 70.25 296.5 67.116 296.5 63.25V61.375Z" fill="black" fill-opacity="0.1"/>
</g>
<mask id="mask9" mask-type="alpha" maskUnits="userSpaceOnUse" x="277" y="71" width="25" height="11">
<path fill-rule="evenodd" clip-rule="evenodd" d="M293.745 71.9119C298.367 72.2906 302 76.1618 302 80.8815V82H277V80.8815C277 76.1191 280.699 72.2206 285.381 71.9024C285.377 71.9491 285.375 71.9961 285.375 72.0434C285.375 73.5263 287.25 74.7285 289.562 74.7285C291.875 74.7285 293.75 73.5263 293.75 72.0434C293.75 71.9993 293.748 71.9555 293.745 71.9119Z" fill="white"/>
</mask>
<g mask="url(#mask9)">
<path fill-rule="evenodd" clip-rule="evenodd" d="M293.745 71.9119C298.367 72.2906 302 76.1618 302 80.8815V82H277V80.8815C277 76.1191 280.699 72.2206 285.381 71.9024C285.377 71.9491 285.375 71.9961 285.375 72.0434C285.375 73.5263 287.25 74.7285 289.562 74.7285C291.875 74.7285 293.75 73.5263 293.75 72.0434C293.75 71.9993 293.748 71.9555 293.745 71.9119Z" fill="#E6E6E6"/>
<path d="M306 68.25H273V82H306V68.25Z" fill="#262E33"/>
<g opacity="0.6">
<g opacity="0.6">
<path opacity="0.6" d="M289.563 75.5952C292.299 75.5952 294.517 74.0889 294.517 72.2309C294.517 70.3729 292.299 68.8667 289.563 68.8667C286.826 68.8667 284.608 70.3729 284.608 72.2309C284.608 74.0889 286.826 75.5952 289.563 75.5952Z" fill="black" fill-opacity="0.16"/>
</g>
</g>
</g>
<path fill-rule="evenodd" clip-rule="evenodd" d="M285.598 71.8903C280.814 72.1005 277 76.0456 277 80.8815V80.8815V82H285.67C285.245 80.49 285 78.7136 285 76.8125C285 75.0216 285.217 73.3414 285.598 71.8903ZM293.455 82H302V80.8815C302 76.0884 298.253 72.1704 293.529 71.8967C293.908 73.3464 294.125 75.0243 294.125 76.8125C294.125 78.7136 293.88 80.49 293.455 82Z" fill="#3A4C5A"/>
<path fill-rule="evenodd" clip-rule="evenodd" d="M295.625 79L296.819 78.1042C297 77.9689 297.248 77.971 297.426 78.1095L298.25 78.75L295.625 79Z" fill="#E6E6E6"/>
<path fill-rule="evenodd" clip-rule="evenodd" d="M285.625 71.75C285.125 74.1667 285.333 77.5833 286.25 82H284.25L282.5 77.5L283.25 76.375L282.5 75.625L284.875 71.875C285.128 71.7962 285.378 71.7545 285.625 71.75Z" fill="#2F4351"/>
<path fill-rule="evenodd" clip-rule="evenodd" d="M293.375 71.75C293.875 74.1667 293.667 77.5833 292.75 82H294.75L296.5 77.5L295.75 76.375L296.5 75.625L294.125 71.875C293.872 71.7962 293.622 71.7545 293.375 71.75Z" fill="#2F4351"/>
<path fill-rule="evenodd" clip-rule="evenodd" d="M287.75 65.625C287.75 66.5915 288.534 67.375 289.5 67.375C290.467 67.375 291.25 66.5915 291.25 65.625" fill="black" fill-opacity="0.7"/>
<path fill-rule="evenodd" clip-rule="evenodd" d="M288 63.25C288 63.8023 288.672 64.25 289.5 64.25C290.328 64.25 291 63.8023 291 63.25" fill="black" fill-opacity="0.16"/>
<path d="M286.25 61.75C286.664 61.75 287 61.4142 287 61C287 60.5858 286.664 60.25 286.25 60.25C285.836 60.25 285.5 60.5858 285.5 61C285.5 61.4142 285.836 61.75 286.25 61.75Z" fill="black" fill-opacity="0.6"/>
<path d="M292.75 61.75C293.164 61.75 293.5 61.4142 293.5 61C293.5 60.5858 293.164 60.25 292.75 60.25C292.336 60.25 292 60.5858 292 61C292 61.4142 292.336 61.75 292.75 61.75Z" fill="black" fill-opacity="0.6"/>
<path d="M284.454 59.3948C284.943 58.7062 286.285 58.3201 287.44 58.6039C287.574 58.6368 287.71 58.5548 287.743 58.4207C287.776 58.2867 287.694 58.1513 287.56 58.1183C286.218 57.7888 284.664 58.2359 284.046 59.1052C283.966 59.2177 283.993 59.3738 284.105 59.4538C284.218 59.5338 284.374 59.5074 284.454 59.3948Z" fill="black" fill-opacity="0.6"/>
<path d="M294.546 59.3948C294.057 58.7062 292.715 58.3201 291.56 58.6039C291.426 58.6368 291.29 58.5548 291.257 58.4207C291.224 58.2867 291.306 58.1513 291.44 58.1183C292.782 57.7888 294.336 58.2359 294.954 59.1052C295.034 59.2177 295.007 59.3738 294.895 59.4538C294.782 59.5338 294.626 59.5074 294.546 59.3948Z" fill="black" fill-opacity="0.6"/>
<mask id="mask10" mask-type="alpha" maskUnits="userSpaceOnUse" x="273" y="47" width="33" height="35">
<path d="M306 47H273V82H306V47Z" fill="white"/>
</mask>
<g mask="url(#mask10)">
<mask id="mask11" mask-type="alpha" maskUnits="userSpaceOnUse" x="277" y="48" width="26" height="33">
<path fill-rule="evenodd" clip-rule="evenodd" d="M280.5 68.5676V57.5058C280.5 57.0642 280.55 56.6343 280.644 56.2214C281.026 53.7164 282.472 51.7264 284.125 50.5C286.613 48.655 290.805 48.1227 292.256 50.3153C293.337 49.8351 294.94 50.2728 296.125 51.375C297.321 52.5519 298.275 55.1497 297.707 57.2754C297.72 57.4336 297.727 57.5936 297.727 57.7551V60.4865C297.617 59.8648 297.124 59.3754 296.5 59.2707V59.25C295.745 56.558 293.529 55.3225 292.179 54.0971C290.067 56.4592 283.478 56.4675 281.25 61.125V62.375C281.25 63.1273 281.804 63.7503 282.526 63.8584C282.744 66.3893 284.309 68.5354 286.5 69.5764V69.625C286.866 75.1069 285.67 81.9747 277.875 79.875C279.576 78.8797 280.476 72.5069 280.5 68.5676ZM292.5 69.5764C294.691 68.5354 296.256 66.3893 296.474 63.8584C297.11 63.7632 297.615 63.2688 297.727 62.6385V62.8088C297.727 64.7873 298.197 66.7376 299.097 68.4992L302.466 75.0876C303.336 76.79 303.081 78.7717 301.974 80.1836C301.621 75.5361 297.738 71.875 293 71.875H292.5V69.5764Z" fill="white"/>
</mask>
<g mask="url(#mask11)">
<path fill-rule="evenodd" clip-rule="evenodd" d="M280.5 68.5676V57.5058C280.5 57.0642 280.55 56.6343 280.644 56.2214C281.026 53.7164 282.472 51.7264 284.125 50.5C286.613 48.655 290.805 48.1227 292.256 50.3153C293.337 49.8351 294.94 50.2728 296.125 51.375C297.321 52.5519 298.275 55.1497 297.707 57.2754C297.72 57.4336 297.727 57.5936 297.727 57.7551V60.4865C297.617 59.8648 297.124 59.3754 296.5 59.2707V59.25C295.745 56.558 293.529 55.3225 292.179 54.0971C290.067 56.4592 283.478 56.4675 281.25 61.125V62.375C281.25 63.1273 281.804 63.7503 282.526 63.8584C282.744 66.3893 284.309 68.5354 286.5 69.5764V69.625C286.866 75.1069 285.67 81.9747 277.875 79.875C279.576 78.8797 280.476 72.5069 280.5 68.5676ZM292.5 69.5764C294.691 68.5354 296.256 66.3893 296.474 63.8584C297.11 63.7632 297.615 63.2688 297.727 62.6385V62.8088C297.727 64.7873 298.197 66.7376 299.097 68.4992L302.466 75.0876C303.336 76.79 303.081 78.7717 301.974 80.1836C301.621 75.5361 297.738 71.875 293 71.875H292.5V69.5764Z" fill="#272C2E"/>
<path d="M310.875 48.8767H277.875V83.8767H310.875V48.8767Z" fill="#2C1B18"/>
</g>
<path fill-rule="evenodd" clip-rule="evenodd" d="M281.25 61.125C283.478 57.0831 290.067 57.0759 292.179 55.026C293.526 56.0873 295.736 56.9083 296.495 59.2336C295.736 56.553 293.526 55.32 292.179 54.0971C290.067 56.4592 283.478 56.4675 281.25 61.125Z" fill="black" fill-opacity="0.16"/>
</g>
</g>
</g>
<rect width="6" height="6" transform="matrix(1 0 0 -1 279 35.9)" fill="white"/>
<rect x="267" y="29" width="72" height="8" fill="#0071BB"/>
<rect width="35.2" height="6.03429" rx="1" transform="matrix(1 0 0 -1 303 35.9)" fill="white"/>
<rect width="20" height="3.33333" rx="1" transform="matrix(1 0 0 -1 311 58.3333)" fill="#E21C3D"/>
<rect width="16" height="3" rx="1" transform="matrix(1 0 0 -1 311 63.3333)" fill="#DDDFE4"/>
<rect width="19" height="3" rx="1" transform="matrix(1 0 0 -1 311 68.3333)" fill="#DDDFE4"/>
<rect width="16" height="3" rx="1" transform="matrix(1 0 0 -1 311 73)" fill="#DDDFE4"/>
<rect width="6" height="6" rx="1" transform="matrix(1 0 0 -1 267.8 35.9)" fill="white"/>
<rect width="6" height="6" rx="1" transform="matrix(1 0 0 -1 279 36)" fill="white"/>
<rect width="6" height="6" rx="1" transform="matrix(1 0 0 -1 290 35.9)" fill="white"/>
<circle cx="258.5" cy="60.5" r="3.5" fill="white" stroke="#0071BB" stroke-width="2"/>
<line x1="206" y1="60.5" x2="255" y2="60.5" stroke="#0071BB" stroke-width="2"/>
<line x1="98" y1="60.5" x2="147" y2="60.5" stroke="#0071BB" stroke-width="2"/>
<defs>
<clipPath id="clip0">
<rect width="99" height="105" fill="white"/>
</clipPath>
<clipPath id="clip1">
<rect width="33" height="35" fill="white" transform="translate(273 47)"/>
</clipPath>
</defs>
</svg>
