<svg xmlns="http://www.w3.org/2000/svg" width="16" height="16" fill="none" viewBox="0 0 16 16"><g fill="currentColor"><path d="M5.2 7.6c.663 0 1.2-.54 1.2-1.2s-.537-1.2-1.2-1.2S4 5.74 4 6.4s.537 1.2 1.2 1.2m0 .4c-1.432 0-2 1.03-2 2.4h4c0-1.37-.568-2.4-2-2.4"/><path d="M13.6 2.4H2.4C1.072 2.4 0 3.47 0 4.8v6.4c0 1.33 1.072 2.4 2.4 2.4h11.2c1.328 0 2.4-1.07 2.4-2.4V4.8c0-1.33-1.072-2.4-2.4-2.4m.8 8.8c0 .44-.36.8-.8.8H2.4c-.44 0-.8-.36-.8-.8V4.8c0-.44.36-.8.8-.8h11.2c.44 0 .8.36.8.8z"/><path d="M12.8 5.6h-4v1.6h4zm-1.6 3.2H8.8v1.6h2.4z"/></g></svg>