<svg xmlns="http://www.w3.org/2000/svg" width="24" height="24" fill="none" viewBox="0 0 24 24"><g fill="currentColor"><path d="M7.8 11.4c.994 0 1.8-.81 1.8-1.8s-.806-1.8-1.8-1.8S6 8.61 6 9.6s.806 1.8 1.8 1.8m0 .6c-2.148 0-3 1.55-3 3.6h6c0-2.05-.852-3.6-3-3.6"/><path d="M20.4 3.6H3.6C1.608 3.6 0 5.21 0 7.2v9.6c0 1.99 1.608 3.6 3.6 3.6h16.8c1.992 0 3.6-1.61 3.6-3.6V7.2c0-1.99-1.608-3.6-3.6-3.6m1.2 13.2c0 .66-.54 1.2-1.2 1.2H3.6c-.66 0-1.2-.54-1.2-1.2V7.2c0-.66.54-1.2 1.2-1.2h16.8c.66 0 1.2.54 1.2 1.2z"/><path d="M19.2 8.4h-6v2.4h6zm-2.4 4.8h-3.6v2.4h3.6z"/></g></svg>