<svg xmlns="http://www.w3.org/2000/svg" width="16" height="16" fill="none" viewBox="0 0 16 16"><defs><clipPath id="a"><path fill="#fff" d="M412 994h16v16h-16z"/></clipPath></defs><g clip-path="url(#a)" transform="translate(-412 -994)"><g fill="currentColor"><path d="M420 998.8c-1.08 0-1.2.84-1.2 1.2s.12 1.2 1.2 1.2 1.2-.84 1.2-1.2-.12-1.2-1.2-1.2"/><path d="M420 994.8a7.2 7.2 0 0 0-7.2 7.2c0 2.06.864 3.9 2.248 5.22a5.2 5.2 0 0 1 4.952-3.62 5.2 5.2 0 0 1 4.952 3.62 7.18 7.18 0 0 0 2.248-5.22 7.2 7.2 0 0 0-7.2-7.2m0 8c-1.752 0-2.8-1.26-2.8-2.8 0-1.544 1.048-2.8 2.8-2.8s2.8 1.256 2.8 2.8c0 1.54-1.048 2.8-2.8 2.8"/><path d="M420 1005.2c-1.8 0-3.28 1.34-3.544 3.06 1.048.6 2.256.94 3.544.94s2.496-.34 3.544-.94c-.264-1.72-1.744-3.06-3.544-3.06"/></g></g></svg>