<svg xmlns="http://www.w3.org/2000/svg" width="20" height="20" fill="none" viewBox="0 0 20 20"><g fill="currentColor"><path d="M10 6C8.65 6 8.5 7.05 8.5 7.5S8.65 9 10 9s1.5-1.05 1.5-1.5S11.35 6 10 6"/><path d="M10 1a9 9 0 0 0-9 9 8.95 8.95 0 0 0 2.81 6.52A6.5 6.5 0 0 1 10 12c2.9 0 5.35 1.9 6.19 4.52A8.95 8.95 0 0 0 19 10a9 9 0 0 0-9-9m0 10c-2.19 0-3.5-1.57-3.5-3.5S7.81 4 10 4s3.5 1.57 3.5 3.5S12.19 11 10 11"/><path d="M10 14c-2.25 0-4.1 1.67-4.43 3.83C6.88 18.57 8.39 19 10 19s3.12-.43 4.43-1.17C14.1 15.67 12.25 14 10 14"/></g></svg>