<svg xmlns="http://www.w3.org/2000/svg" width="24" height="24" fill="none" viewBox="0 0 24 24"><g fill="currentColor"><path d="M12 7.2c-1.62 0-1.8 1.26-1.8 1.8s.18 1.8 1.8 1.8 1.8-1.26 1.8-1.8-.18-1.8-1.8-1.8"/><path d="M12 1.2C6.036 1.2 1.2 6.036 1.2 12c0 3.08 1.296 5.86 3.372 7.82C5.58 16.68 8.52 14.4 12 14.4s6.42 2.28 7.428 5.42A10.73 10.73 0 0 0 22.8 12c0-5.964-4.836-10.8-10.8-10.8m0 12c-2.628 0-4.2-1.88-4.2-4.2 0-2.316 1.572-4.2 4.2-4.2s4.2 1.884 4.2 4.2c0 2.32-1.572 4.2-4.2 4.2"/><path d="M12 16.8c-2.7 0-4.92 2-5.316 4.6A10.86 10.86 0 0 0 12 22.8c1.932 0 3.744-.52 5.316-1.4-.396-2.6-2.616-4.6-5.316-4.6"/></g></svg>