<svg width="82" height="82" viewBox="0 0 82 82" fill="none" xmlns="http://www.w3.org/2000/svg"><path d="M41 81c22.091 0 40-17.909 40-40S63.091 1 41 1 1 18.909 1 41s17.909 40 40 40Z" fill="#5B616A" stroke="#A8B6C6" stroke-width="2" stroke-miterlimit="10"/><path d="M73.7 34.2 68.5 61c-.3 1.5-1.8 2.5-3.3 2.2L10.1 52.5c-1.5-.3-2.5-1.8-2.2-3.3l5.2-26.8c.3-1.5 1.8-2.5 3.3-2.2l55.1 10.7c1.5.3 2.5 1.7 2.2 3.3Z" fill="#fff" stroke="#112E51" stroke-miterlimit="10"/><path d="m23 41.5-1.5 7.9c-.1.6-.7 1-1.3.9L13.3 49c-.6-.1-1-.7-.9-1.3l1.5-7.9c.1-.6.7-1 1.3-.9l6.8 1.3c.7.1 1.1.7 1 1.3Z" fill="#EBF3FA"/><path d="M67.7 46.2c-.1.6-.7 1-1.3.9L55.6 45c-.6-.1-1-.7-.9-1.3.1-.6.7-1 1.3-.9l10.8 2.1c.6.1 1 .7.9 1.3ZM52.4 43.2c-.1.6-.7 1-1.3.9L40.3 42c-.6-.1-1-.7-.9-1.3.1-.6.7-1 1.3-.9l10.8 2.1c.6.1 1 .7.9 1.3ZM66.8 50.7c-.1.6-.7 1-1.3.9l-15.3-3c-.6-.1-1-.7-.9-1.3.1-.6.7-1 1.3-.9l15.3 3c.6 0 1.1.6.9 1.3ZM65.1 57.7c-.1.6-.7 1-1.3.9l-4.3-.8c-.6-.1-1-.7-.9-1.3.1-.6.7-1 1.3-.9l4.3.8c.6 0 1.1.6.9 1.3ZM56.3 55.9c-.1.6-.7 1-1.3.9l-4.3-.8c-.6-.1-1-.7-.9-1.3.1-.6.7-1 1.3-.9l4.3.8c.6.1 1 .7.9 1.3ZM73.213 34.878 13.164 23.072l-1.582 8.046 60.05 11.806 1.581-8.046Z" fill="#5B616A"/><path d="M73.7 34.2 68.5 61c-.3 1.5-1.8 2.5-3.3 2.2L10.1 52.5c-1.5-.3-2.5-1.8-2.2-3.3l5.2-26.8c.3-1.5 1.8-2.5 3.3-2.2l55.1 10.7c1.5.3 2.5 1.7 2.2 3.3Z" stroke="#112E51" stroke-miterlimit="10"/><path d="M23.4 9.9c-.1 0-.1 0-.1.1-.2 1.5-.3 1.6-1.8 1.8-.1 0-.1.1-.1.1s0 .1.1.1c1.5.2 1.6.3 1.8 1.8 0 .1.1.1.1.1s.1 0 .1-.1c.2-1.5.3-1.6 1.8-1.8.1 0 .1-.1.1-.1s0-.1-.1-.1c-1.5-.2-1.6-.3-1.8-1.8 0-.1-.1-.1-.1-.1ZM30.7 11.4c-.1 0-.3.1-.3.3-.5 4.7-.8 5-4.6 5.6-.1 0-.3.2-.3.4s.1.3.3.4c3.8.6 4.1 1 4.6 5.6 0 .2.1.3.3.3.1 0 .3-.1.3-.3.5-4.7.8-5 4.6-5.6.1 0 .3-.2.3-.4s-.1-.3-.3-.4c-3.8-.6-4.1-1-4.6-5.6 0-.2-.1-.3-.3-.3ZM35.8 3c-.1 0-.2.1-.2.2-.3 3-.5 3.2-3.1 3.6-.1 0-.2.1-.2.2s.1.2.2.2c2.6.4 2.8.6 3.1 3.6 0 .1.1.2.2.2s.2-.1.2-.2c.3-3 .5-3.2 3.1-3.6.1 0 .2-.1.2-.2s-.1-.2-.2-.2c-2.6-.4-2.8-.6-3.1-3.6 0-.2-.1-.2-.2-.2ZM57.7 65.8c-.1 0-.1 0-.1.1-.2 1.5-.3 1.6-1.8 1.8-.1 0-.1.1-.1.1s0 .1.1.1c1.5.2 1.6.3 1.8 1.8 0 .1.1.1.1.1.1 0 .1 0 .1-.1.2-1.5.3-1.6 1.8-1.8.1 0 .1-.1.1-.1s0-.1-.1-.1c-1.5-.2-1.6-.3-1.8-1.8 0-.1-.1-.1-.1-.1ZM50.2 68c-.1 0-.2.1-.2.2-.4 3.3-.6 3.6-3.4 4-.1 0-.2.1-.2.3 0 .1.1.2.2.3 2.8.4 3.1.7 3.4 4 0 .1.1.2.2.2s.2-.1.2-.2c.4-3.3.6-3.6 3.4-4 .1 0 .2-.1.2-.3 0-.1-.1-.2-.2-.3-2.8-.4-3.1-.7-3.4-4 0-.1 0-.2-.2-.2Z" fill="#fff"/></svg>