<svg width="82" height="82" viewBox="0 0 82 82" fill="none" xmlns="http://www.w3.org/2000/svg"><path d="M41 81c22.091 0 40-17.909 40-40S63.091 1 41 1 1 18.909 1 41s17.909 40 40 40z" fill="#5B616A" stroke="#A8B6C6" stroke-width="2" stroke-miterlimit="10"/><path d="M70.2 52.1 17.5 62.4c-2.2.4-4.3-1-4.7-3.2L8 34.7c-.4-2.2 1-4.3 3.2-4.7l52.7-10.3c2.2-.4 4.3 1 4.7 3.2l4.8 24.5c.4 2.2-1 4.3-3.2 4.7z" fill="#fff" stroke="#112E51" stroke-miterlimit="10"/><path d="m63.8 27.9-25.1 4.9c-.9.2-1.7-.4-1.9-1.3l-.2-.8c-.2-.9.4-1.7 1.3-1.9L63.1 24c.9-.2 1.7.4 1.9 1.3l.2.8c.1.8-.5 1.7-1.4 1.8zm3.9 20.5-5.9 1.1c-.9.2-1.7-.4-1.9-1.3l-1.4-6.9c-.2-.9.4-1.7 1.3-1.9l5.9-1.1c.9-.2 1.7.4 1.9 1.3l1.4 6.9c.2.9-.4 1.7-1.3 1.9zm-17.8-13-10.8 2.1c-.6.1-1.2-.3-1.3-.9-.1-.6.3-1.2.9-1.3l10.8-2.1c.6-.1 1.2.3 1.3.9.1.5-.3 1.1-.9 1.3zm15.3-3-10.8 2.1c-.6.1-1.2-.3-1.3-.9-.1-.6.3-1.2.9-1.4l10.8-2.1c.6-.1 1.2.3 1.3.9.1.7-.3 1.3-.9 1.4zM55.3 39 40 42c-.6.1-1.2-.3-1.3-.9-.1-.6.3-1.2.9-1.3l15.3-3c.6-.1 1.2.3 1.3.9.1.5-.3 1.1-.9 1.3zm-1.5 4.9-13 2.5c-.6.1-1.2-.3-1.3-.9-.1-.6.3-1.2.9-1.3l13-2.5c.6-.1 1.2.3 1.3.9.1.6-.3 1.2-.9 1.3zM46 50.1l-4.3.8c-.6.1-1.2-.3-1.3-.9-.1-.6.3-1.2.9-1.3l4.3-.8c.6-.1 1.2.3 1.3.9.1.6-.3 1.2-.9 1.3zm8.8-1.8-4.3.8c-.6.1-1.2-.3-1.3-.9-.1-.6.3-1.2.9-1.3l4.3-.8c.6-.1 1.2.3 1.3.9.1.6-.3 1.2-.9 1.3z" fill="#5B616A"/><path d="m34.8 55.4-16.1 3.1c-1.1.2-2.1-.5-2.3-1.6L12.2 36c-.2-1.1.5-2.1 1.6-2.3l16.1-3.1c1.1-.2 2.1.5 2.3 1.6L36.4 53c.2 1.1-.5 2.2-1.6 2.4z" fill="#EBF3FA"/><path fill-rule="evenodd" clip-rule="evenodd" d="m26.9 48.4.3 1.5.3-.1c3.3-.6 6.5 1.5 7.1 4.8l.1.7-16.5 3.2-.1-.7c-.6-3.3 1.5-6.5 4.8-7.1l.3-.1-.2-1.4c-1.6-.4-2.8-1.6-3.3-3.2-.5 0-.9-.3-1-.8l-.3-1.2c-.1-.5.2-1 .6-1.1l-.1-.5a4.687 4.687 0 1 1 9.2-1.8l.1.5c.5 0 .9.3 1 .8l.3 1.1c.1.5-.2 1-.7 1.1.2 1.8-.6 3.3-1.9 4.3z" fill="#D0C6AC"/><mask id="a" style="mask-type:alpha" maskUnits="userSpaceOnUse" x="17" y="36" width="18" height="23"><path fill-rule="evenodd" clip-rule="evenodd" d="m26.9 48.4.3 1.5.3-.1c3.3-.6 6.5 1.5 7.1 4.8l.1.7-16.5 3.2-.1-.7c-.6-3.3 1.5-6.5 4.8-7.1l.3-.1-.2-1.4c-1.6-.4-2.8-1.6-3.3-3.2-.5 0-.9-.3-1-.8l-.3-1.2c-.1-.5.2-1 .6-1.1l-.1-.5a4.687 4.687 0 1 1 9.2-1.8l.1.5c.5 0 .9.3 1 .8l.3 1.1c.1.5-.2 1-.7 1.1.2 1.8-.6 3.3-1.9 4.3z" fill="#fff"/></mask><g mask="url(#a)"><path d="m36.141 34.196-21.79 4.247 4.496 23.065 21.79-4.247-4.496-23.065z" fill="#D08B5B"/></g><mask id="b" style="mask-type:alpha" maskUnits="userSpaceOnUse" x="17" y="36" width="18" height="23"><path fill-rule="evenodd" clip-rule="evenodd" d="m26.9 48.4.3 1.5.3-.1c3.3-.6 6.5 1.5 7.1 4.8l.1.7-16.5 3.2-.1-.7c-.6-3.3 1.5-6.5 4.8-7.1l.3-.1-.2-1.4c-1.6-.4-2.8-1.6-3.3-3.2-.5 0-.9-.3-1-.8l-.3-1.2c-.1-.5.2-1 .6-1.1l-.1-.5a4.687 4.687 0 1 1 9.2-1.8l.1.5c.5 0 .9.3 1 .8l.3 1.1c.1.5-.2 1-.7 1.1.2 1.8-.6 3.3-1.9 4.3z" fill="#fff"/></mask><g mask="url(#b)"><path fill-rule="evenodd" clip-rule="evenodd" d="m28.5 42.5.4 1.9c.5 2.6-1.2 5-3.7 5.5s-5-1.2-5.5-3.7l-.4-1.9.2 1.2c.5 2.6 3 4.2 5.5 3.7s4.2-3 3.7-5.5l-.2-1.2z" fill="#000" fill-opacity=".1"/></g><path fill-rule="evenodd" clip-rule="evenodd" d="M28 49.8c3.1-.3 6 1.7 6.6 4.9l.1.7-16.5 3.2-.1-.7c-.6-3.1 1.3-6.2 4.4-7v.1c.2 1 1.6 1.5 3.1 1.2 1.6-.3 2.7-1.4 2.4-2.4.1 0 .1 0 0 0z" fill="#E6E6E6"/><mask id="c" style="mask-type:alpha" maskUnits="userSpaceOnUse" x="17" y="49" width="18" height="10"><path fill-rule="evenodd" clip-rule="evenodd" d="M28 49.8c3.1-.3 6 1.7 6.6 4.9l.1.7-16.5 3.2-.1-.7c-.6-3.1 1.3-6.2 4.4-7v.1c.2 1 1.6 1.5 3.1 1.2 1.6-.3 2.7-1.4 2.4-2.4.1 0 .1 0 0 0z" fill="#fff"/></mask><g mask="url(#c)"><path d="m35.702 45.758-21.79 4.247 1.76 9.03 21.79-4.247-1.76-9.03z" fill="#262E33"/></g><mask id="d" style="mask-type:alpha" maskUnits="userSpaceOnUse" x="17" y="49" width="18" height="10"><path fill-rule="evenodd" clip-rule="evenodd" d="M28 49.8c3.1-.3 6 1.7 6.6 4.9l.1.7-16.5 3.2-.1-.7c-.6-3.1 1.3-6.2 4.4-7v.1c.2 1 1.6 1.5 3.1 1.2 1.6-.3 2.7-1.4 2.4-2.4.1 0 .1 0 0 0z" fill="#fff"/></mask><g mask="url(#d)"><path opacity=".6" d="M25.735 52.77c1.79-.35 3.042-1.643 2.8-2.89-.244-1.246-1.89-1.974-3.68-1.626-1.788.349-3.042 1.642-2.799 2.889.243 1.247 1.89 1.975 3.68 1.626z" fill="#000" fill-opacity=".16"/></g><path fill-rule="evenodd" clip-rule="evenodd" d="M22.7 50.8c-3.1.8-5.1 3.8-4.5 7l.1.7 5.7-1.1c-.5-.9-.9-2.1-1.1-3.3-.2-1.2-.3-2.3-.2-3.3zm6.4 5.7 5.6-1.1-.1-.7c-.6-3.2-3.6-5.3-6.7-4.8.4.9.8 2 1 3.2.3 1.1.3 2.3.2 3.4z" fill="#3A4C5A"/><path fill-rule="evenodd" clip-rule="evenodd" d="m30.2 54.2.7-.7c.1-.1.3-.1.4-.1l.6.3-1.7.5z" fill="#E6E6E6"/><path fill-rule="evenodd" clip-rule="evenodd" d="M22.7 50.7c0 1.7.6 3.9 1.7 6.7l-1.3.3-1.7-2.7.4-.8-.6-.4 1.1-2.8c0-.2.2-.3.4-.3zm5.1-1c.6 1.5.9 3.8.9 6.8l1.3-.3.6-3.2-.6-.6.4-.6-2-2.2c-.3.1-.5.1-.6.1z" fill="#2F4351"/><path fill-rule="evenodd" clip-rule="evenodd" d="M23.3 46.4c.1.6.7 1.1 1.4.9.6-.1 1.1-.7.9-1.4" fill="#000" fill-opacity=".7"/><path fill-rule="evenodd" clip-rule="evenodd" d="M23.1 44.8c.1.4.6.6 1.1.5.5-.1.9-.5.9-.9" fill="#000" fill-opacity=".16"/><path d="M21.7 44a.5.5 0 1 0 0-1 .5.5 0 0 0 0 1zm4.3-.8a.5.5 0 1 0 0-1 .5.5 0 0 0 0 1zm-5.7-.5c.2-.5 1.1-.9 1.9-.9.1 0 .2-.1.2-.2s-.1-.2-.2-.2c-.9 0-1.9.4-2.2 1.1 0 .1 0 .2.1.2.1.1.2.1.2 0zm6.7-1.3c-.4-.4-1.3-.5-2.1-.1-.1 0-.2 0-.2-.1s0-.2.1-.2c.8-.4 1.9-.3 2.4.2.1.1.1.2 0 .2s-.2.1-.2 0z" fill="#000" fill-opacity=".6"/><mask id="e" style="mask-type:alpha" maskUnits="userSpaceOnUse" x="11" y="31" width="27" height="29"><path d="m32.951 31.79-21.79 4.246 4.497 23.065 21.789-4.246-4.496-23.066z" fill="#fff"/></mask><g mask="url(#e)"><path fill-rule="evenodd" clip-rule="evenodd" d="M18.9 49.3 17.5 42c-.1-.3-.1-.6-.1-.9-.1-1.7.6-3.2 1.6-4.2 1.4-1.5 4.1-2.4 5.3-1.2.7-.5 1.8-.4 2.7.2.9.6 1.9 2.2 1.8 3.7 0 .1.1.2.1.3l.4 1.8c-.2-.4-.5-.7-1-.6-.8-1.7-2.5-2.2-3.5-2.8-1.1 1.8-5.4 2.7-6.3 6l.2.8c.1.5.5.8 1 .8.5 1.6 1.8 2.9 3.4 3.3.9 3.6 1 8.3-4.4 7.9.9-.9.7-5.2.2-7.8zm8-.9c1.3-1 2.1-2.6 1.9-4.3.4-.1.7-.5.7-1v.1c.3 1.3.8 2.5 1.6 3.6l3.1 3.9c.8 1 .9 2.4.3 3.4-.8-3-3.9-4.9-7-4.3l-.3.1-.3-1.5z" fill="#272C2E"/><mask id="f" style="mask-type:alpha" maskUnits="userSpaceOnUse" x="17" y="35" width="18" height="23"><path fill-rule="evenodd" clip-rule="evenodd" d="M18.9 49.3 17.5 42c-.1-.3-.1-.6-.1-.9-.1-1.7.6-3.2 1.6-4.2 1.4-1.5 4.1-2.4 5.3-1.2.7-.5 1.8-.4 2.7.2.9.6 1.9 2.2 1.8 3.7 0 .1.1.2.1.3l.4 1.8c-.2-.4-.5-.7-1-.6-.8-1.7-2.5-2.2-3.5-2.8-1.1 1.8-5.4 2.7-6.3 6l.2.8c.1.5.5.8 1 .8.5 1.6 1.8 2.9 3.4 3.3.9 3.6 1 8.3-4.4 7.9.9-.9.7-5.2.2-7.8zm8-.9c1.3-1 2.1-2.6 1.9-4.3.4-.1.7-.5.7-1v.1c.3 1.3.8 2.5 1.6 3.6l3.1 3.9c.8 1 .9 2.4.3 3.4-.8-3-3.9-4.9-7-4.3l-.3.1-.3-1.5z" fill="#fff"/></mask><g mask="url(#f)"><path d="M36.45 32.383 14.66 36.63l4.496 23.065 21.789-4.247-4.496-23.065z" fill="#4A312C"/></g><path fill-rule="evenodd" clip-rule="evenodd" d="M18.4 44.3c1-3 5.3-3.8 6.4-5.4 1 .5 2.6.8 3.4 2.2-.8-1.7-2.5-2.2-3.5-2.8-1.1 1.7-5.4 2.6-6.3 6z" fill="#000" fill-opacity=".16"/></g></svg>