<svg width="82" height="82" viewBox="0 0 82 82" fill="none" xmlns="http://www.w3.org/2000/svg"><path d="M41 81c22.091 0 40-17.909 40-40S63.091 1 41 1 1 18.909 1 41s17.909 40 40 40z" fill="#EBF3FA" stroke="#A8B6C6" stroke-width="2" stroke-miterlimit="10"/><path d="M58.2 40.7 73.9 30l-19 .5 6.4-17.9-15 11.6L40.8 6l-5.4 18.2-15-11.6 6.4 17.9-19-.5 15.7 10.7L7.8 51.4l19-.5-6.4 17.9 15-11.6 5.4 18.2 5.4-18.2 15 11.6-6.4-17.9 19 .5-15.6-10.7zM40.8 54.6c-7.7 0-13.9-6.2-13.9-13.9s6.2-13.9 13.9-13.9S54.7 33 54.7 40.7c.1 7.7-6.2 13.9-13.9 13.9z" fill="#EBF3FA"/><path d="M80.4 40c-1.4.2-2.7.3-3.9 1-2.7-6-8.7-10.1-15.7-10.1-9.5 0-17.2 7.7-17.2 17.2 0 .5.1.9.1 1.3-7.5.6-13.6 6.9-13.6 14.6 0 7.1 6.7 14.5 13.3 16 25.7-2.4 37-22.5 37-40z" fill="#fff"/><path d="M71.5 23.9c-.2-.3-.5-.5-.9-.5l-11.4-.2-.2-11.4c0-.4-.2-.7-.5-.9-.2-.1-.3-.1-.5-.1s-.3 0-.5.1l-9.9 5.6-5.8-9.8c-.2-.3-.5-.5-.9-.5s-.7.2-.9.5l-5.8 9.8-9.9-5.6c-.2-.1-.3-.1-.5-.1s-.3 0-.5.1c-.3.2-.5.5-.5.9l-.2 11.4-11.4.2c-.4 0-.7.2-.9.5-.2.3-.2.7 0 1l5.6 9.9-9.8 5.8c-.3.2-.5.5-.5.9s.2.7.5.9l9.8 5.8-5.6 9.9c-.2.3-.2.7 0 1 .2.3.5.5.9.5l11.4.2.2 11.4c0 .4.2.7.5.9.2.1.3.1.5.1s.3 0 .5-.1l4.8-2.7c-.7-1.7-1-3.5-1-5.3 0-3.1.9-6.1 2.5-8.6-4.2-3.2-7-8.2-7-13.9 0-9.6 7.8-17.4 17.4-17.4 5.2 0 9.9 2.3 13.1 6 2.1-.8 4.4-1.3 6.8-1.3 2.6 0 5.2.6 7.5 1.6l3.1-5.6c.2-.4.2-.7 0-1z" fill="#76848C"/><path d="M31.9 53.5c2.4-3 5.8-5.1 9.7-5.9.1-7.2 4.2-13.4 10.2-16.6-2.7-2.9-6.6-4.7-10.9-4.7-8.3 0-15.1 6.7-15.1 15.1.1 5 2.5 9.4 6.1 12.1z" fill="#5B616A"/><path d="M80.4 40c-1.4.2-2.7.3-3.9 1-2.7-6-8.7-10.1-15.7-10.1-9.5 0-17.2 7.7-17.2 17.2 0 .5.1.9.1 1.3-7.5.6-13.6 6.9-13.6 14.6 0 7.1 6.7 14.5 13.3 16 25.7-2.4 37-22.5 37-40z" fill="#A8B6C6"/><path d="M41 81c22.091 0 40-17.909 40-40S63.091 1 41 1 1 18.909 1 41s17.909 40 40 40z" stroke="#A8B6C6" stroke-width="2" stroke-miterlimit="10"/></svg>