<svg xmlns="http://www.w3.org/2000/svg" width="206" height="88" fill="none" viewBox="0 0 206 88"><circle cx="162" cy="44" r="42.5" fill="#F2F9FF" stroke="#A8B6C6" stroke-width="3"/><mask id="a" width="88" height="88" x="118" y="0" maskUnits="userSpaceOnUse" style="mask-type:alpha"><path fill="#fff" d="M162 88c24.301 0 44-19.7 44-44S186.301 0 162 0s-44 19.7-44 44 19.699 44 44 44"/></mask><g mask="url(#a)"><path fill="#F5D60C" d="M141.643 14.8a.62.62 0 0 1-.62-.62V4c0-.341.279-.62.62-.62.342 0 .621.279.621.62v10.18a.62.62 0 0 1-.621.621m-3.951 1.635a.62.62 0 0 1-.437-.183l-7.199-7.198a.622.622 0 0 1 .879-.879l7.198 7.198a.622.622 0 0 1-.438 1.062zm-1.636 3.951h-10.178a.623.623 0 0 1-.621-.62c0-.342.28-.621.621-.621h10.178c.342 0 .621.28.621.62a.62.62 0 0 1-.621.621m-5.559 11.147a.622.622 0 0 1-.438-1.062l7.198-7.198a.622.622 0 0 1 .879.878l-7.199 7.199a.62.62 0 0 1-.437.183zm11.147 4.619a.62.62 0 0 1-.621-.62v-10.18a.62.62 0 0 1 1.241 0v10.178a.62.62 0 0 1-.62.621m11.146-4.618a.62.62 0 0 1-.437-.183l-7.199-7.198a.622.622 0 0 1 .879-.879l7.198 7.198a.622.622 0 0 1-.438 1.062zm4.619-11.147h-10.178a.623.623 0 0 1-.621-.62c0-.342.28-.621.621-.621h10.178c.342 0 .621.28.621.62a.62.62 0 0 1-.621.621m-11.814-3.951a.622.622 0 0 1-.438-1.062l7.199-7.198a.621.621 0 0 1 .878.879l-7.198 7.198a.62.62 0 0 1-.438.183z"/><path fill="#CAB32D" d="M138.437 12.646a.62.62 0 0 1-.574-.385l-1.757-4.24a.619.619 0 1 1 1.145-.475l1.757 4.24a.62.62 0 0 1-.571.857zm-4.538 4.535a.6.6 0 0 1-.236-.047l-4.24-1.757a.616.616 0 0 1-.335-.81.617.617 0 0 1 .81-.335l4.24 1.757a.621.621 0 0 1-.239 1.195zm-4.24 8.169a.621.621 0 0 1-.239-1.194l4.24-1.757a.62.62 0 1 1 .475 1.145l-4.24 1.757a.6.6 0 0 1-.236.047zm7.021 7.022a.618.618 0 0 1-.571-.857l1.757-4.24a.62.62 0 1 1 1.145.475l-1.756 4.24a.62.62 0 0 1-.575.385zm9.927 0a.62.62 0 0 1-.575-.385l-1.757-4.24a.62.62 0 0 1 1.146-.475l1.757 4.24a.62.62 0 0 1-.571.857zm7.021-7.022a.6.6 0 0 1-.236-.046l-4.24-1.757a.62.62 0 0 1 .475-1.145l4.24 1.757a.62.62 0 0 1-.239 1.195zm-4.24-8.17a.621.621 0 0 1-.239-1.194l4.24-1.757a.62.62 0 1 1 .475 1.145l-4.24 1.757a.6.6 0 0 1-.236.047zm-4.538-4.534a.62.62 0 0 1-.571-.857l1.757-4.24a.62.62 0 1 1 1.145.475l-1.757 4.24a.62.62 0 0 1-.574.385z"/><path fill="#F5D60C" d="M158.585 8.192a3.41 3.41 0 0 0-3.414-3.415 3.41 3.41 0 0 0 3.414-3.414A3.413 3.413 0 0 0 162 4.777a3.413 3.413 0 0 0-3.415 3.415M126.176 43.22a4.347 4.347 0 0 0-4.345-4.345 4.346 4.346 0 0 0 4.345-4.346c0 2.4 1.947 4.346 4.346 4.346a4.347 4.347 0 0 0-4.346 4.346"/><path fill="#485F7A" d="M179.383 15.132h-34.765a7.45 7.45 0 0 0-7.45 7.45v72.014a7.45 7.45 0 0 0 7.45 7.45h34.765a7.45 7.45 0 0 0 7.45-7.45V22.582a7.45 7.45 0 0 0-7.45-7.45"/><path fill="#112E51" d="M179.383 103.288h-34.766c-4.792 0-8.691-3.9-8.691-8.692V22.582c0-4.793 3.899-8.691 8.691-8.691h34.766c4.792 0 8.691 3.898 8.691 8.691v72.014c0 4.793-3.899 8.692-8.691 8.692m-34.766-86.914a6.214 6.214 0 0 0-6.208 6.208v72.014a6.214 6.214 0 0 0 6.208 6.208h34.766a6.215 6.215 0 0 0 6.208-6.208V22.582a6.215 6.215 0 0 0-6.208-6.208z"/><path fill="#A8B6C6" d="M158.896 18.857h-14.279a3.725 3.725 0 0 0-3.725 3.725v14.279a3.725 3.725 0 0 0 3.725 3.725h14.279a3.725 3.725 0 0 0 3.725-3.725V22.582a3.725 3.725 0 0 0-3.725-3.725"/><path fill="#112E51" d="M158.896 41.827h-14.279a4.97 4.97 0 0 1-4.966-4.966V22.582a4.973 4.973 0 0 1 4.966-4.966h14.279a4.973 4.973 0 0 1 4.966 4.966v14.279a4.97 4.97 0 0 1-4.966 4.966M144.617 20.1a2.486 2.486 0 0 0-2.483 2.483v14.279a2.486 2.486 0 0 0 2.483 2.483h14.279a2.486 2.486 0 0 0 2.483-2.483v-14.28a2.486 2.486 0 0 0-2.483-2.483z"/><path fill="#fff" d="M156.723 26.928a2.173 2.173 0 1 0 0-4.346 2.173 2.173 0 0 0 0 4.346"/><path fill="#112E51" d="M156.723 27.393a2.64 2.64 0 0 1 0-5.277 2.64 2.64 0 0 1 0 5.277m0-4.345a1.71 1.71 0 0 0-1.707 1.707c0 .94.766 1.707 1.707 1.707a1.71 1.71 0 0 0 1.707-1.707 1.71 1.71 0 0 0-1.707-1.707"/><path fill="#485F7A" d="M146.79 28.17a3.415 3.415 0 1 0-.001-6.83 3.415 3.415 0 0 0 .001 6.83"/><path fill="#112E51" d="M146.79 28.79a4.04 4.04 0 0 1-4.035-4.035 4.04 4.04 0 0 1 4.035-4.035 4.04 4.04 0 0 1 4.035 4.035 4.04 4.04 0 0 1-4.035 4.035m0-6.829a2.8 2.8 0 0 0-2.794 2.794 2.8 2.8 0 0 0 2.794 2.794 2.8 2.8 0 0 0 2.794-2.794 2.8 2.8 0 0 0-2.794-2.794"/><path fill="#fff" d="M146.79 36.24a1.552 1.552 0 1 0 0-3.104 1.552 1.552 0 0 0 0 3.104"/><path fill="#112E51" d="M146.79 36.706a2.02 2.02 0 0 1-2.017-2.018c0-1.111.906-2.018 2.017-2.018s2.018.907 2.018 2.018a2.02 2.02 0 0 1-2.018 2.018m0-3.105a1.087 1.087 0 0 0 0 2.173c.599 0 1.087-.487 1.087-1.086s-.488-1.087-1.087-1.087"/><path fill="#485F7A" d="M156.723 38.102a3.414 3.414 0 1 0 0-6.828 3.414 3.414 0 0 0 0 6.828"/><path fill="#112E51" d="M156.723 38.723a4.04 4.04 0 0 1-4.035-4.035 4.04 4.04 0 0 1 4.035-4.035 4.04 4.04 0 0 1 4.035 4.035 4.04 4.04 0 0 1-4.035 4.035m0-6.829a2.8 2.8 0 0 0-2.794 2.794 2.8 2.8 0 0 0 2.794 2.793 2.8 2.8 0 0 0 2.794-2.793 2.8 2.8 0 0 0-2.794-2.794"/><path fill="#485F7A" d="M186.832 40.586h.621c.341 0 .62.279.62.62v4.967c0 .341-.279.62-.62.62h-.621z"/><path fill="#112E51" d="M187.453 47.26h-1.086v-7.14h1.086c.599 0 1.086.487 1.086 1.086v4.967c0 .599-.487 1.086-1.086 1.086m-.155-.932h.155a.153.153 0 0 0 .155-.155v-4.967a.153.153 0 0 0-.155-.155h-.155z"/><path fill="#485F7A" d="M186.832 48.346h.621c.341 0 .62.28.62.62v4.967c0 .342-.279.62-.62.62h-.621z"/><path fill="#112E51" d="M187.453 55.02h-1.086v-7.14h1.086c.599 0 1.086.487 1.086 1.087v4.966c0 .6-.487 1.087-1.086 1.087m-.155-.932h.155a.153.153 0 0 0 .155-.155v-4.966a.153.153 0 0 0-.155-.156h-.155z"/><path fill="#485F7A" d="M137.168 53.002h-.621a.62.62 0 0 1-.621-.621V41.206c0-.341.279-.62.621-.62h.621z"/><path fill="#112E51" d="M137.633 53.467h-1.087a1.087 1.087 0 0 1-1.086-1.086V41.206c0-.599.487-1.086 1.086-1.086h1.087zm-1.087-12.416a.153.153 0 0 0-.155.155v11.175c0 .087.068.155.155.155h.156V41.051zM138 71l48-15.5V88h-48z"/></g><circle cx="162" cy="44" r="42.5" stroke="#A8B6C6" stroke-width="3"/><circle cx="162" cy="44" r="42.5" stroke="#A8B6C6" stroke-width="3"/><circle cx="44" cy="44" r="42.5" fill="#F2F9FF" stroke="#A8B6C6" stroke-width="3"/><path stroke="#A8B6C6" stroke-width="2" d="M88 44h32"/><circle cx="120" cy="44" r="3" fill="#F2F9FF" stroke="#A8B6C6" stroke-width="2"/><mask id="b" width="88" height="88" x="0" y="0" maskUnits="userSpaceOnUse" style="mask-type:alpha"><circle cx="44" cy="44" r="42.5" fill="#F2F9FF" stroke="#A8B6C6" stroke-width="3"/></mask><g mask="url(#b)"><path fill="#EDF3FB" d="M70.032 15.033H16.828v31.923h53.204z"/><path fill="#EDF3FB" d="M71.126 48.05H15.734V13.938h55.392zm-53.204-2.188h51.015V16.127H17.922z"/><path fill="#0071BB" stroke="#205493" stroke-miterlimit="10" stroke-width="2" d="M74.293 9H13.37a3.39 3.39 0 0 0-3.39 3.39v39.227h67.705V12.39A3.39 3.39 0 0 0 74.294 9Z"/><path fill="#112E51" d="M0 73.06h87.66v2.618a3 3 0 0 1-3 3H3a3 3 0 0 1-3-3z"/><rect width="58.44" height="33.715" x="14.61" y="13.495" fill="#EDF3FB" rx="2"/><path fill="#fff" d="M14.61 33.725h58.44V45.21a2 2 0 0 1-2 2H16.61a2 2 0 0 1-2-2z"/><path fill="#0071BB" stroke="#205493" stroke-miterlimit="10" stroke-width="2" d="m77.678 51.706 8.666 20.237a2.22 2.22 0 0 1-2.04 3.095H3.346a2.22 2.22 0 0 1-2.04-3.094l8.666-20.238z"/><path fill="#EDF3FB" d="M74.808 63.202H12.855l2.47-6.994H72.34z"/><path fill="#205493" d="M76.405 64.332h-65.15l3.27-9.254H73.14zm-21.337 7.603H32.592l1.057-5.609h20.36z"/></g><circle cx="44" cy="44" r="42.5" stroke="#A8B6C6" stroke-width="3"/><path fill="#EDF3FB" d="M70.032 15.033H16.828v31.923h53.204z"/><path fill="#EDF3FB" d="M71.126 48.05H15.734V13.938h55.392zm-53.204-2.188h51.015V16.127H17.922z"/><path fill="#0071BB" stroke="#205493" stroke-miterlimit="10" stroke-width="2" d="M74.293 9H13.37a3.39 3.39 0 0 0-3.39 3.39v39.227h67.705V12.39A3.39 3.39 0 0 0 74.294 9Z"/><rect width="58.44" height="33.715" x="14.61" y="13.495" fill="#EDF3FB" rx="2"/><path fill="#fff" d="M14.61 33.725h58.44V45.21a2 2 0 0 1-2 2H16.61a2 2 0 0 1-2-2z"/><path fill="#B51E23" d="M49.07 22h-5.057v18c4.798-2.143 6.476-4.92 6.9-5.787.08-.165.12-.348.12-.53V23.98a2 2 0 0 0-.575-1.4A1.95 1.95 0 0 0 49.07 22"/><path fill="#E21D3E" d="M38.962 22A1.97 1.97 0 0 0 37 23.98v9.703c-.002.184.039.366.118.531.426.859 2.124 3.656 6.896 5.786V22z"/><path fill="#fff" d="M45.258 29.757a2.02 2.02 0 0 0-.074-3.215 2 2 0 0 0-1.157-.376 1.99 1.99 0 0 0-1.882 1.354 2.02 2.02 0 0 0 .65 2.237q-.33 1.89-.653 3.78a11 11 0 0 0 1.872.162c.636.013 1.273-.03 1.902-.128-.221-1.286-.425-2.546-.658-3.814"/><circle cx="86" cy="44" r="3" fill="#F2F9FF" stroke="#A8B6C6" stroke-width="2"/></svg>