<svg xmlns="http://www.w3.org/2000/svg" width="88" height="88" fill="none" viewBox="0 0 88 88"><circle cx="44" cy="44" r="42.5" fill="#F2F9FF" stroke="#A8B6C6" stroke-width="3"/><mask id="a" width="88" height="88" x="0" y="0" maskUnits="userSpaceOnUse" style="mask-type:alpha"><circle cx="44" cy="44" r="42.5" fill="#F2F9FF" stroke="#A8B6C6" stroke-width="3"/></mask><g mask="url(#a)"><path fill="#EDF3FB" d="M72.53 13.636H22.822v29.826H72.53z"/><path fill="#EDF3FB" d="M73.552 44.485H21.8V12.613h51.752zM23.845 42.44h47.663V14.658H23.845z"/><path fill="#0071BB" stroke="#205493" stroke-miterlimit="10" stroke-width="2" d="M76.512 8H19.59a3.17 3.17 0 0 0-3.168 3.168v36.649H79.68v-36.65A3.167 3.167 0 0 0 76.512 8Z"/><path fill="#205493" d="M7.1 67.85H89v2.25a3 3 0 0 1-3 3H10.1a3 3 0 0 1-3-3z"/><rect width="54.6" height="31.5" x="20.75" y="12.2" fill="#EDF3FB" rx="2"/><path fill="#fff" d="M20.75 31.1h54.6v10.6a2 2 0 0 1-2 2h-50.6a2 2 0 0 1-2-2z"/><path fill="#0071BB" stroke="#205493" stroke-miterlimit="10" stroke-width="2" d="m79.674 47.9 8.096 18.908a2.074 2.074 0 0 1-1.905 2.89H10.226a2.074 2.074 0 0 1-1.906-2.89L16.417 47.9z"/><path fill="#EDF3FB" d="M76.992 58.64H19.11l2.308-6.534h53.27z"/><path fill="#205493" d="M78.484 59.696H17.616l3.055-8.646h54.764zM58.55 66.8h-21l.988-5.24H57.56z"/></g><circle cx="44" cy="44" r="42.5" stroke="#A8B6C6" stroke-width="3"/><path fill="#EDF3FB" d="M72.53 13.636H22.822v29.826H72.53z"/><path fill="#EDF3FB" d="M73.552 44.485H21.8V12.613h51.752zM23.845 42.44h47.663V14.658H23.845z"/><path fill="#0071BB" stroke="#205493" stroke-miterlimit="10" stroke-width="2" d="M76.512 8H19.59a3.17 3.17 0 0 0-3.168 3.168v36.649H79.68v-36.65A3.167 3.167 0 0 0 76.512 8Z"/><rect width="54.6" height="31.5" x="20.75" y="12.2" fill="#EDF3FB" rx="2"/><path fill="#fff" d="M20.75 31.1h54.6v10.6a2 2 0 0 1-2 2h-50.6a2 2 0 0 1-2-2z"/><path fill="#485F7A" stroke="#112E51" stroke-width="2" d="M11 35h21.3a2 2 0 0 1 2 2v41.25a2 2 0 0 1-2 2H11a2 2 0 0 1-2-2V37a2 2 0 0 1 2-2Z"/><path fill="#EDF3FB" stroke="#112E51" d="M13.15 38.7h17a1.5 1.5 0 0 1 1.5 1.5v33.85a2.5 2.5 0 0 1-2.5 2.5h-15a2.5 2.5 0 0 1-2.5-2.5V40.2a1.5 1.5 0 0 1 1.5-1.5Z"/><path fill="#fff" d="m12.2 63.4 18.9-5.775V74a2 2 0 0 1-2 2H14.2a2 2 0 0 1-2-2z"/><rect width="7.4" height="1.1" x="17.95" y="38.7" fill="#112E51" stroke="#112E51" rx=".55"/><mask id="b" width="33" height="32" x="5" y="26" maskUnits="userSpaceOnUse" style="mask-type:alpha"><path fill="#D9D9D9" d="M5 26h33v32H5z"/></mask><g mask="url(#b)"><path fill="#485F7A" stroke="#112E51" stroke-width="2" d="M11 35h21.3a2 2 0 0 1 2 2v41.25a2 2 0 0 1-2 2H11a2 2 0 0 1-2-2V37a2 2 0 0 1 2-2Z"/><path fill="#EDF3FB" stroke="#112E51" d="M13.15 38.7h17a1.5 1.5 0 0 1 1.5 1.5v33.85a2.5 2.5 0 0 1-2.5 2.5h-15a2.5 2.5 0 0 1-2.5-2.5V40.2a1.5 1.5 0 0 1 1.5-1.5Z"/><path fill="#fff" d="m12.2 63.4 18.9-5.775V74a2 2 0 0 1-2 2H14.2a2 2 0 0 1-2-2z"/><rect width="7.4" height="1.1" x="17.95" y="38.7" fill="#112E51" stroke="#112E51" rx=".55"/></g><path fill="#B51E23" d="M52.588 20.6h-4.54v16.162c4.308-1.923 5.814-4.418 6.195-5.195a1.1 1.1 0 0 0 .107-.477v-8.712c0-.472-.186-.924-.516-1.257a1.76 1.76 0 0 0-1.246-.521"/><path fill="#E21D3E" d="M43.512 20.6a1.77 1.77 0 0 0-1.762 1.777v8.713c-.001.166.035.329.106.477.382.771 1.907 3.283 6.192 5.196V20.6z"/><path fill="#fff" d="M49.165 27.565a1.813 1.813 0 0 0-.066-2.887 1.8 1.8 0 0 0-1.04-.337 1.79 1.79 0 0 0-1.69 1.215 1.81 1.81 0 0 0 .585 2.01 839 839 0 0 0-.587 3.393 10 10 0 0 0 1.68.146 10 10 0 0 0 1.709-.115c-.199-1.155-.382-2.286-.59-3.425"/></svg>