<svg xmlns="http://www.w3.org/2000/svg" width="100" height="100" fill="none" viewBox="0 0 100 100"><g filter="url(#a)"><path fill="#fff" d="M50 94c24.3 0 44-19.7 44-44S74.3 6 50 6 6 25.7 6 50s19.7 44 44 44Z"/></g><path fill="#5D8EBA" d="M50 89.6c21.87 0 39.6-17.73 39.6-39.6S71.87 10.4 50 10.4 10.4 28.13 10.4 50 28.13 89.6 50 89.6Z"/><path fill="#fff" d="M50 85.64c19.684 0 35.64-15.957 35.64-35.64S69.684 14.36 50 14.36c-19.683 0-35.64 15.957-35.64 35.64S30.317 85.64 50 85.64Z"/><rect width="52.788" height="42.636" x="23.061" y="34.621" fill="#C8D3DD" rx="2"/><path fill="#EDF3FB" d="M32.197 49.849h12.182v26.394H32.197z"/><path fill="#C8D3DD" d="M20.016 21.394a2 2 0 0 1 2-2H81.43a2 2 0 0 1 1.835 2.795L78.4 33.416a2 2 0 0 1-1.835 1.205h-54.55a2 2 0 0 1-2-2V21.394Z"/><rect width="50.788" height="41.651" x="24.061" y="35.621" stroke="#1B1B1B" stroke-width="2" rx="1"/><rect width="13.227" height="28.454" x="32.182" y="48.819" stroke="#1B1B1B" stroke-width="2" rx="1"/><path stroke="#1B1B1B" stroke-width="2" d="M20 21.394a1 1 0 0 1 1-1h62.014a1 1 0 0 1 .924 1.38L78.48 35.033a1 1 0 0 1-.924.62H21a1 1 0 0 1-1-1V21.394Z"/><rect width="17" height="12" x="53" y="41" stroke="#1B1B1B" stroke-width="2" rx="1"/><path stroke="#1B1B1B" stroke-width="2" d="M75.849 68.121H45.394m-14.212 0H23.06"/><rect width="31.352" height="21.356" x="34.876" y="7.983" fill="#EDF3FB" stroke="#1B1B1B" stroke-width="1.969" rx=".984"/><path fill="#EDF3FB" stroke="#1B1B1B" stroke-width="1.969" d="M49.88 15.77a.985.985 0 0 1 1.24 0l14.797 11.996c.72.584.307 1.75-.62 1.75H35.703c-.928 0-1.34-1.166-.62-1.75L49.88 15.77Z"/><path fill="#EDF3FB" stroke="#1B1B1B" stroke-width="1.969" d="M51.204 20.06a.984.984 0 0 1-1.152 0L35.682 9.69c-.774-.56-.378-1.783.577-1.783h28.739c.955 0 1.35 1.224.576 1.783l-14.37 10.37Z"/><defs><filter id="a" width="100" height="100" x="0" y="0" color-interpolation-filters="sRGB" filterUnits="userSpaceOnUse"><feFlood flood-opacity="0" result="BackgroundImageFix"/><feColorMatrix in="SourceAlpha" result="hardAlpha" values="0 0 0 0 0 0 0 0 0 0 0 0 0 0 0 0 0 0 127 0"/><feOffset/><feGaussianBlur stdDeviation="3"/><feComposite in2="hardAlpha" operator="out"/><feColorMatrix values="0 0 0 0 0 0 0 0 0 0 0 0 0 0 0 0 0 0 0.24 0"/><feBlend in2="BackgroundImageFix" result="effect1_dropShadow_418_16125"/><feBlend in="SourceGraphic" in2="effect1_dropShadow_418_16125" result="shape"/></filter></defs></svg>