<svg width="88" height="88" viewBox="0 0 88 88" fill="none" xmlns="http://www.w3.org/2000/svg">
<mask id="mask0_2606_7717" style="mask-type:alpha" maskUnits="userSpaceOnUse" x="0" y="0" width="88" height="88">
<path d="M44 88C68.3005 88 88 68.3005 88 44C88 19.6995 68.3005 0 44 0C19.6995 0 0 19.6995 0 44C0 68.3005 19.6995 88 44 88Z" fill="white"/>
</mask>
<g mask="url(#mask0_2606_7717)">
<path d="M23.6435 14.8002C23.3021 14.8002 23.0227 14.5208 23.0227 14.1794V4.00118C23.0227 3.65974 23.3021 3.38037 23.6435 3.38037C23.985 3.38037 24.2643 3.65974 24.2643 4.00118V14.1794C24.2643 14.5208 23.985 14.8002 23.6435 14.8002Z" fill="#F5D60C"/>
<path d="M19.6921 16.4361C19.5338 16.4361 19.3755 16.374 19.2544 16.253L12.0561 9.05466C11.814 8.81255 11.814 8.41833 12.0561 8.17622C12.2982 7.9341 12.6924 7.9341 12.9345 8.17622L20.1329 15.3745C20.375 15.6166 20.375 16.0109 20.1329 16.253C20.0118 16.374 19.8535 16.4361 19.6952 16.4361H19.6921Z" fill="#F5D60C"/>
<path d="M18.0563 20.3874H7.87814C7.53669 20.3874 7.25732 20.108 7.25732 19.7666C7.25732 19.4251 7.53669 19.1458 7.87814 19.1458H18.0563C18.3978 19.1458 18.6771 19.4251 18.6771 19.7666C18.6771 20.108 18.3978 20.3874 18.0563 20.3874Z" fill="#F5D60C"/>
<path d="M12.4965 31.5343C12.3382 31.5343 12.1798 31.4722 12.0588 31.3511C11.8167 31.109 11.8167 30.7148 12.0588 30.4727L19.2571 23.2744C19.4992 23.0322 19.8934 23.0322 20.1355 23.2744C20.3777 23.5165 20.3777 23.9107 20.1355 24.1528L12.9372 31.3511C12.8162 31.4722 12.6579 31.5343 12.4996 31.5343H12.4965Z" fill="#F5D60C"/>
<path d="M23.6435 36.153C23.3021 36.153 23.0227 35.8736 23.0227 35.5322V25.354C23.0227 25.0125 23.3021 24.7332 23.6435 24.7332C23.985 24.7332 24.2643 25.0125 24.2643 25.354V35.5322C24.2643 35.8736 23.985 36.153 23.6435 36.153Z" fill="#F5D60C"/>
<path d="M34.7902 31.5343C34.6319 31.5343 34.4736 31.4722 34.3526 31.3511L27.1542 24.1528C26.9121 23.9107 26.9121 23.5165 27.1542 23.2744C27.3964 23.0322 27.7906 23.0322 28.0327 23.2744L35.231 30.4727C35.4731 30.7148 35.4731 31.109 35.231 31.3511C35.1099 31.4722 34.9516 31.5343 34.7933 31.5343H34.7902Z" fill="#F5D60C"/>
<path d="M39.4094 20.3874H29.2312C28.8897 20.3874 28.6104 20.108 28.6104 19.7666C28.6104 19.4251 28.8897 19.1458 29.2312 19.1458H39.4094C39.7508 19.1458 40.0302 19.4251 40.0302 19.7666C40.0302 20.108 39.7508 20.3874 39.4094 20.3874Z" fill="#F5D60C"/>
<path d="M27.5951 16.4361C27.4368 16.4361 27.2785 16.374 27.1574 16.253C26.9153 16.0109 26.9153 15.6166 27.1574 15.3745L34.3557 8.17622C34.5978 7.9341 34.9921 7.9341 35.2342 8.17622C35.4763 8.41833 35.4763 8.81255 35.2342 9.05466L28.0359 16.253C27.9148 16.374 27.7565 16.4361 27.5982 16.4361H27.5951Z" fill="#F5D60C"/>
<path d="M20.4369 12.6459C20.1917 12.6459 19.962 12.5 19.8626 12.261L18.1058 8.02089C17.9754 7.70428 18.1244 7.3411 18.441 7.21073C18.7576 7.08036 19.1208 7.22936 19.2511 7.54597L21.008 11.7861C21.1384 12.1027 20.9894 12.4659 20.6728 12.5963C20.5952 12.6273 20.5145 12.6428 20.4369 12.6428V12.6459Z" fill="#CAB32D"/>
<path d="M15.8991 17.1809C15.8215 17.1809 15.7407 17.1654 15.6631 17.1343L11.423 15.3775C11.1064 15.2471 10.9543 14.8839 11.0878 14.5673C11.2181 14.2507 11.5813 14.0986 11.8979 14.2321L16.1381 15.989C16.4547 16.1193 16.6068 16.4825 16.4733 16.7991C16.374 17.0381 16.1443 17.184 15.8991 17.184V17.1809Z" fill="#CAB32D"/>
<path d="M11.659 25.3509C11.4138 25.3509 11.1841 25.205 11.0848 24.966C10.9544 24.6494 11.1034 24.2862 11.42 24.1559L15.6601 22.399C15.9767 22.2686 16.3399 22.4176 16.4703 22.7342C16.6007 23.0508 16.4517 23.414 16.1351 23.5444L11.8949 25.3013C11.8173 25.3323 11.7366 25.3478 11.659 25.3478V25.3509Z" fill="#CAB32D"/>
<path d="M18.6804 32.3723C18.6028 32.3723 18.5221 32.3568 18.4445 32.3258C18.1279 32.1954 17.9758 31.8322 18.1093 31.5156L19.8661 27.2755C19.9965 26.9589 20.3597 26.8099 20.6763 26.9402C20.9929 27.0706 21.145 27.4338 21.0115 27.7504L19.2546 31.9905C19.1553 32.2295 18.9256 32.3754 18.6804 32.3754V32.3723Z" fill="#CAB32D"/>
<path d="M28.6066 32.3723C28.3614 32.3723 28.1317 32.2264 28.0323 31.9873L26.2754 27.7472C26.1451 27.4306 26.2941 27.0674 26.6107 26.9371C26.9273 26.8067 27.2905 26.9557 27.4208 27.2723L29.1777 31.5124C29.3081 31.829 29.1591 32.1922 28.8425 32.3226C28.7649 32.3536 28.6842 32.3692 28.6066 32.3692V32.3723Z" fill="#CAB32D"/>
<path d="M35.6282 25.3507C35.5506 25.3507 35.4699 25.3352 35.3923 25.3042L31.1522 23.5473C30.8356 23.4169 30.6866 23.0537 30.8169 22.7371C30.9473 22.4205 31.3105 22.2715 31.6271 22.4019L35.8672 24.1588C36.1838 24.2892 36.3328 24.6523 36.2025 24.969C36.1031 25.208 35.8734 25.3539 35.6282 25.3539V25.3507Z" fill="#CAB32D"/>
<path d="M31.388 17.181C31.1428 17.181 30.9131 17.0351 30.8138 16.7961C30.6834 16.4795 30.8324 16.1163 31.149 15.9859L35.3891 14.229C35.7058 14.0987 36.0689 14.2477 36.1993 14.5643C36.3297 14.8809 36.1807 15.2441 35.8641 15.3744L31.6239 17.1313C31.5463 17.1624 31.4656 17.1779 31.388 17.1779V17.181Z" fill="#CAB32D"/>
<path d="M26.85 12.646C26.7724 12.646 26.6917 12.6305 26.6141 12.5994C26.2975 12.4691 26.1485 12.1059 26.2788 11.7893L28.0357 7.54915C28.1661 7.23253 28.5293 7.08354 28.8459 7.21391C29.1625 7.34428 29.3115 7.70745 29.1811 8.02407L27.4242 12.2642C27.3249 12.5032 27.0952 12.6491 26.85 12.6491V12.646Z" fill="#CAB32D"/>
<path d="M40.5854 8.19172C40.5854 6.30445 39.0582 4.77726 37.1709 4.77726C39.0582 4.77726 40.5854 3.25006 40.5854 1.36279C40.5854 3.25006 42.1126 4.77726 43.9998 4.77726C42.1126 4.77726 40.5854 6.30445 40.5854 8.19172Z" fill="#F5D60C"/>
<path d="M8.17624 43.2209C8.17624 40.8215 6.23 38.8752 3.83057 38.8752C6.23 38.8752 8.17624 36.929 8.17624 34.5295C8.17624 36.929 10.1225 38.8752 12.5219 38.8752C10.1225 38.8752 8.17624 40.8215 8.17624 43.2209Z" fill="#F5D60C"/>
<rect x="20" y="27.0002" width="48" height="11" fill="#112E51"/>
<rect x="20" y="38.0002" width="48" height="51" fill="#485F7A"/>
<path d="M61.383 15.1326H26.6177C22.5033 15.1326 19.168 18.4679 19.168 22.5823V27.0003H68.8327V22.5823C68.8327 18.4679 65.4974 15.1326 61.383 15.1326Z" fill="#0071BB"/>
<path d="M24.71 47.6252H63.0303C63.5852 47.6549 64.0987 48.1634 64.1328 48.7317V67.5793C64.1328 67.7489 64.0251 68.0295 63.7822 68.2854C63.5436 68.5368 63.2694 68.6643 63.0479 68.6643H24.71C24.4978 68.6643 24.2224 68.5388 23.9795 68.2844C23.7329 68.0262 23.625 67.7454 23.625 67.5793V48.7102L23.6299 48.6448C23.6538 48.4818 23.7629 48.2382 23.9805 48.009C24.2254 47.7513 24.5007 47.6252 24.71 47.6252Z" fill="white" stroke="#A8B6C6" stroke-width="1.25"/>
<rect x="25.7087" y="49.8833" width="13.7504" height="16.697" rx="1" fill="#A8B6C6"/>
<rect x="42.4058" y="49.8833" width="19.6435" height="2.94652" rx="1" fill="#A8B6C6"/>
<rect x="42.4058" y="54.7942" width="19.6435" height="2.94652" rx="1" fill="#A8B6C6"/>
<rect x="42.4058" y="59.7051" width="11.7861" height="2.94652" rx="1" fill="#A8B6C6"/>
<rect x="56.156" y="59.7051" width="5.89305" height="6.87522" rx="1" fill="#A8B6C6"/>
<path d="M52.4577 22.9156C53.2627 22.9156 53.9154 22.263 53.9154 21.4579C53.9154 20.6529 53.2627 20.0002 52.4577 20.0002C51.6526 20.0002 51 20.6529 51 21.4579C51 22.263 51.6526 22.9156 52.4577 22.9156Z" fill="white"/>
<path d="M57.3166 22.9156C58.1216 22.9156 58.7743 22.263 58.7743 21.4579C58.7743 20.6529 58.1216 20.0002 57.3166 20.0002C56.5115 20.0002 55.8589 20.6529 55.8589 21.4579C55.8589 22.263 56.5115 22.9156 57.3166 22.9156Z" fill="white"/>
<path d="M62.1755 22.9156C62.9805 22.9156 63.6331 22.263 63.6331 21.4579C63.6331 20.6529 62.9805 20.0002 62.1755 20.0002C61.3704 20.0002 60.7178 20.6529 60.7178 21.4579C60.7178 22.263 61.3704 22.9156 62.1755 22.9156Z" fill="white"/>
<path d="M25 21.5002C25 20.6718 25.6716 20.0002 26.5 20.0002H32.5C33.3284 20.0002 34 20.6718 34 21.5002C34 22.3287 33.3284 23.0002 32.5 23.0002H26.5C25.6716 23.0002 25 22.3287 25 21.5002Z" fill="white"/>
<path d="M61.3826 103.288H26.6171C21.8245 103.288 17.9258 99.389 17.9258 94.5963V22.5822C17.9258 17.7896 21.8245 13.8909 26.6171 13.8909H61.3826C66.1752 13.8909 70.0739 17.7896 70.0739 22.5822V94.5963C70.0739 99.389 66.1752 103.288 61.3826 103.288ZM26.6171 16.3741C23.1934 16.3741 20.409 19.1585 20.409 22.5822V94.5963C20.409 98.0201 23.1934 100.804 26.6171 100.804H61.3826C64.8064 100.804 67.5907 98.0201 67.5907 94.5963V22.5822C67.5907 19.1585 64.8064 16.3741 61.3826 16.3741H26.6171Z" fill="#112E51"/>
<path d="M68.8318 40.5857H69.4526C69.794 40.5857 70.0734 40.8651 70.0734 41.2065V46.173C70.0734 46.5144 69.794 46.7938 69.4526 46.7938H68.8318V40.5857Z" fill="#EBF3FA"/>
<path d="M69.4531 47.2594H68.3667V40.1201H69.4531C70.0522 40.1201 70.5395 40.6075 70.5395 41.2065V46.173C70.5395 46.7721 70.0522 47.2594 69.4531 47.2594ZM69.2979 46.3282H69.4531C69.54 46.3282 69.6083 46.2599 69.6083 46.173V41.2065C69.6083 41.1196 69.54 41.0513 69.4531 41.0513H69.2979V46.3282Z" fill="#112E51"/>
<path d="M68.8318 48.3459H69.4526C69.794 48.3459 70.0734 48.6253 70.0734 48.9668V53.9332C70.0734 54.2747 69.794 54.5541 69.4526 54.5541H68.8318V48.3459Z" fill="#EBF3FA"/>
<path d="M69.4531 55.0197H68.3667V47.8804H69.4531C70.0522 47.8804 70.5395 48.3677 70.5395 48.9668V53.9333C70.5395 54.5324 70.0522 55.0197 69.4531 55.0197ZM69.2979 54.0885H69.4531C69.54 54.0885 69.6083 54.0202 69.6083 53.9333V48.9668C69.6083 48.8799 69.54 48.8116 69.4531 48.8116H69.2979V54.0885Z" fill="#112E51"/>
<path d="M19.1677 53.002H18.5469C18.2055 53.002 17.9261 52.7226 17.9261 52.3811V41.2065C17.9261 40.8651 18.2055 40.5857 18.5469 40.5857H19.1677V53.002Z" fill="#EBF3FA"/>
<path d="M19.6328 53.4676H18.5464C17.9473 53.4676 17.46 52.9802 17.46 52.3811V41.2065C17.46 40.6075 17.9473 40.1201 18.5464 40.1201H19.6328V53.4676ZM18.5464 41.0513C18.4595 41.0513 18.3912 41.1196 18.3912 41.2065V52.3811C18.3912 52.4681 18.4595 52.5363 18.5464 52.5363H18.7016V41.0513H18.5464Z" fill="#112E51"/>
</g>
</svg>
