<svg xmlns="http://www.w3.org/2000/svg" width="207" height="88" fill="none" viewBox="0 0 207 88"><circle cx="44" cy="44" r="42.5" fill="#F2F9FF" stroke="#A8B6C6" stroke-width="3"/><mask id="a" width="88" height="88" x="0" y="0" maskUnits="userSpaceOnUse" style="mask-type:alpha"><circle cx="44" cy="44" r="42.5" fill="#F2F9FF" stroke="#A8B6C6" stroke-width="3"/></mask><g mask="url(#a)"><path fill="#EDF3FB" d="M72.53 13.636H22.823v29.826H72.53z"/><path fill="#EDF3FB" d="M73.552 44.485H21.8V12.614h51.752zM23.845 42.44h47.663V14.658H23.845z"/><path fill="#0071BB" stroke="#205493" stroke-miterlimit="10" stroke-width="2" d="M76.512 8H19.59a3.17 3.17 0 0 0-3.168 3.168v36.649H79.68v-36.65A3.167 3.167 0 0 0 76.512 8Z"/><path fill="#205493" d="M7.1 67.85H89v2.25a3 3 0 0 1-3 3H10.1a3 3 0 0 1-3-3z"/><rect width="54.6" height="31.5" x="20.75" y="12.2" fill="#EDF3FB" rx="2"/><path fill="#fff" d="M20.75 31.1h54.6v10.6a2 2 0 0 1-2 2h-50.6a2 2 0 0 1-2-2z"/><path fill="#0071BB" stroke="#205493" stroke-miterlimit="10" stroke-width="2" d="m79.674 47.9 8.097 18.908a2.074 2.074 0 0 1-1.906 2.89H10.226a2.074 2.074 0 0 1-1.906-2.89L16.417 47.9z"/><path fill="#EDF3FB" d="M76.992 58.64H19.11l2.308-6.534h53.27z"/><path fill="#205493" d="M78.484 59.696H17.617l3.054-8.646h54.764zM58.55 66.8h-21l.988-5.24H57.56z"/></g><circle cx="44" cy="44" r="42.5" stroke="#A8B6C6" stroke-width="3"/><path fill="#EDF3FB" d="M72.53 13.636H22.823v29.826H72.53z"/><path fill="#EDF3FB" d="M73.552 44.485H21.8V12.614h51.752zM23.845 42.44h47.663V14.658H23.845z"/><path fill="#0071BB" stroke="#205493" stroke-miterlimit="10" stroke-width="2" d="M76.512 8H19.59a3.17 3.17 0 0 0-3.168 3.168v36.649H79.68v-36.65A3.167 3.167 0 0 0 76.512 8Z"/><rect width="54.6" height="31.5" x="20.75" y="12.2" fill="#EDF3FB" rx="2"/><path fill="#fff" d="M20.75 31.1h54.6v10.6a2 2 0 0 1-2 2h-50.6a2 2 0 0 1-2-2z"/><path fill="#485F7A" stroke="#112E51" stroke-width="2" d="M11 35h21.3a2 2 0 0 1 2 2v41.25a2 2 0 0 1-2 2H11a2 2 0 0 1-2-2V37a2 2 0 0 1 2-2Z"/><path fill="#EDF3FB" stroke="#112E51" d="M13.15 38.7h17a1.5 1.5 0 0 1 1.5 1.5v33.85a2.5 2.5 0 0 1-2.5 2.5h-15a2.5 2.5 0 0 1-2.5-2.5V40.2a1.5 1.5 0 0 1 1.5-1.5Z"/><path fill="#fff" d="m12.2 63.4 18.9-5.775V74a2 2 0 0 1-2 2H14.2a2 2 0 0 1-2-2z"/><rect width="7.4" height="1.1" x="17.95" y="38.7" fill="#112E51" stroke="#112E51" rx=".55"/><mask id="b" width="33" height="32" x="5" y="26" maskUnits="userSpaceOnUse" style="mask-type:alpha"><path fill="#D9D9D9" d="M5 26h33v32H5z"/></mask><g mask="url(#b)"><path fill="#485F7A" stroke="#112E51" stroke-width="2" d="M11 35h21.3a2 2 0 0 1 2 2v41.25a2 2 0 0 1-2 2H11a2 2 0 0 1-2-2V37a2 2 0 0 1 2-2Z"/><path fill="#EDF3FB" stroke="#112E51" d="M13.15 38.7h17a1.5 1.5 0 0 1 1.5 1.5v33.85a2.5 2.5 0 0 1-2.5 2.5h-15a2.5 2.5 0 0 1-2.5-2.5V40.2a1.5 1.5 0 0 1 1.5-1.5Z"/><path fill="#fff" d="m12.2 63.4 18.9-5.775V74a2 2 0 0 1-2 2H14.2a2 2 0 0 1-2-2z"/><rect width="7.4" height="1.1" x="17.95" y="38.7" fill="#112E51" stroke="#112E51" rx=".55"/></g><path fill="#B51E23" d="M52.588 20.6h-4.54v16.162c4.308-1.923 5.814-4.417 6.195-5.195.071-.149.108-.313.107-.477v-8.712c0-.472-.186-.924-.516-1.257a1.75 1.75 0 0 0-1.246-.52"/><path fill="#E21D3E" d="M43.512 20.6a1.77 1.77 0 0 0-1.762 1.778v8.712c-.001.166.035.329.106.478.382.77 1.907 3.282 6.192 5.195V20.6z"/><path fill="#fff" d="M49.165 27.565a1.816 1.816 0 0 0-.066-2.887 1.8 1.8 0 0 0-1.04-.337 1.79 1.79 0 0 0-1.69 1.215 1.82 1.82 0 0 0 .585 2.01 822 822 0 0 0-.587 3.393 10 10 0 0 0 1.681.146 10 10 0 0 0 1.708-.115c-.199-1.155-.382-2.286-.59-3.425"/><circle cx="163" cy="44" r="42.5" fill="#F2F9FF" stroke="#A8B6C6" stroke-width="3"/><mask id="c" width="88" height="88" x="119" y="0" maskUnits="userSpaceOnUse" style="mask-type:alpha"><path fill="#fff" d="M163 88c24.301 0 44-19.7 44-44S187.301 0 163 0s-44 19.7-44 44 19.699 44 44 44"/></mask><g mask="url(#c)"><path fill="#F5D60C" d="M142.644 14.8a.62.62 0 0 1-.621-.62V4a.621.621 0 0 1 1.241 0v10.18a.62.62 0 0 1-.62.621m-3.952 1.635a.62.62 0 0 1-.438-.183l-7.198-7.198a.622.622 0 0 1 .879-.879l7.198 7.198a.622.622 0 0 1-.438 1.062zm-1.636 3.951h-10.178a.623.623 0 0 1-.621-.62c0-.342.28-.621.621-.621h10.178c.342 0 .621.28.621.62a.62.62 0 0 1-.621.621m-5.56 11.147a.622.622 0 0 1-.437-1.062l7.198-7.198a.623.623 0 0 1 .879.879l-7.199 7.198a.62.62 0 0 1-.437.183zm11.148 4.619a.62.62 0 0 1-.621-.62v-10.18a.62.62 0 0 1 1.241 0v10.178a.62.62 0 0 1-.62.621m11.146-4.618a.62.62 0 0 1-.437-.183l-7.199-7.198a.622.622 0 0 1 .879-.879l7.198 7.199a.622.622 0 0 1-.438 1.061zm4.619-11.147h-10.178a.623.623 0 0 1-.621-.62c0-.342.28-.621.621-.621h10.178c.342 0 .621.28.621.62a.62.62 0 0 1-.621.621m-11.814-3.951a.622.622 0 0 1-.438-1.062l7.199-7.198a.621.621 0 0 1 .878.879l-7.198 7.198a.62.62 0 0 1-.438.183z"/><path fill="#CAB32D" d="M139.437 12.646a.62.62 0 0 1-.574-.385l-1.757-4.24a.619.619 0 1 1 1.145-.475l1.757 4.24a.62.62 0 0 1-.571.857zm-4.538 4.534a.6.6 0 0 1-.236-.046l-4.24-1.757a.617.617 0 0 1-.335-.81.617.617 0 0 1 .81-.335l4.24 1.757a.621.621 0 0 1-.239 1.195zm-4.24 8.17a.621.621 0 0 1-.239-1.194l4.24-1.757a.62.62 0 1 1 .475 1.145l-4.24 1.757a.6.6 0 0 1-.236.047zm7.021 7.022a.618.618 0 0 1-.571-.857l1.757-4.24a.62.62 0 0 1 1.146.475l-1.757 4.24a.62.62 0 0 1-.575.385zm9.927 0a.62.62 0 0 1-.575-.385l-1.757-4.24a.62.62 0 0 1 1.146-.475l1.757 4.24a.62.62 0 0 1-.571.857zm7.021-7.022a.6.6 0 0 1-.236-.046l-4.24-1.757a.62.62 0 0 1 .475-1.145l4.24 1.757a.621.621 0 0 1-.239 1.195zm-4.24-8.169a.621.621 0 0 1-.239-1.195l4.24-1.757a.62.62 0 1 1 .475 1.145l-4.24 1.757a.6.6 0 0 1-.236.047zm-4.538-4.535a.62.62 0 0 1-.571-.857l1.757-4.24a.62.62 0 1 1 1.145.475l-1.757 4.24a.62.62 0 0 1-.574.385z"/><path fill="#F5D60C" d="M159.585 8.192a3.41 3.41 0 0 0-3.414-3.415 3.41 3.41 0 0 0 3.414-3.414A3.413 3.413 0 0 0 163 4.777a3.413 3.413 0 0 0-3.415 3.415M127.176 43.22a4.347 4.347 0 0 0-4.345-4.345 4.346 4.346 0 0 0 4.345-4.346c0 2.4 1.946 4.346 4.346 4.346a4.346 4.346 0 0 0-4.346 4.346"/><path fill="#112E51" d="M139 27h48v11h-48z"/><path fill="#485F7A" d="M139 38h48v51h-48z"/><path fill="#0071BB" d="M180.383 15.133h-34.765a7.45 7.45 0 0 0-7.45 7.45V27h49.665v-4.418a7.45 7.45 0 0 0-7.45-7.45"/><path fill="#fff" stroke="#A8B6C6" stroke-width="1.25" d="M143.71 47.625h38.32c.555.03 1.069.538 1.103 1.107v18.847c0 .17-.108.45-.351.706-.238.252-.513.38-.734.38H143.71c-.212 0-.488-.126-.731-.38-.246-.259-.354-.54-.354-.706V48.71l.005-.065c.024-.163.133-.407.35-.636.245-.258.521-.384.73-.384Z"/><rect width="13.75" height="16.697" x="144.709" y="49.883" fill="#A8B6C6" rx="1"/><rect width="19.643" height="2.947" x="161.406" y="49.883" fill="#A8B6C6" rx="1"/><rect width="19.643" height="2.947" x="161.406" y="54.794" fill="#A8B6C6" rx="1"/><rect width="11.786" height="2.947" x="161.406" y="59.705" fill="#A8B6C6" rx="1"/><rect width="5.893" height="6.875" x="175.156" y="59.705" fill="#A8B6C6" rx="1"/><path fill="#fff" d="M171.458 22.916a1.457 1.457 0 1 0 0-2.915 1.457 1.457 0 0 0 0 2.915m4.859 0a1.457 1.457 0 1 0 0-2.915 1.457 1.457 0 0 0 0 2.915m4.858 0a1.457 1.457 0 1 0 .001-2.915 1.457 1.457 0 0 0-.001 2.915M144 21.5a1.5 1.5 0 0 1 1.5-1.5h6a1.5 1.5 0 0 1 0 3h-6a1.5 1.5 0 0 1-1.5-1.5"/><path fill="#112E51" d="M180.383 103.288h-34.766c-4.793 0-8.691-3.899-8.691-8.692V22.582c0-4.792 3.898-8.691 8.691-8.691h34.766c4.792 0 8.691 3.899 8.691 8.691v72.014c0 4.793-3.899 8.692-8.691 8.692m-34.766-86.914a6.214 6.214 0 0 0-6.208 6.208v72.014a6.214 6.214 0 0 0 6.208 6.208h34.766a6.214 6.214 0 0 0 6.208-6.208V22.582a6.215 6.215 0 0 0-6.208-6.208z"/><path fill="#EBF3FA" d="M187.832 40.586h.621c.341 0 .62.28.62.62v4.967c0 .341-.279.62-.62.62h-.621z"/><path fill="#112E51" d="M188.453 47.26h-1.086v-7.14h1.086c.599 0 1.087.488 1.087 1.087v4.966c0 .6-.488 1.086-1.087 1.086m-.155-.932h.155a.153.153 0 0 0 .155-.155v-4.967a.153.153 0 0 0-.155-.155h-.155z"/><path fill="#EBF3FA" d="M187.832 48.346h.621c.341 0 .62.28.62.62v4.967a.62.62 0 0 1-.62.621h-.621z"/><path fill="#112E51" d="M188.453 55.02h-1.086v-7.14h1.086c.599 0 1.087.488 1.087 1.087v4.966c0 .6-.488 1.087-1.087 1.087m-.155-.931h.155a.153.153 0 0 0 .155-.156v-4.966a.153.153 0 0 0-.155-.155h-.155z"/><path fill="#EBF3FA" d="M138.168 53.002h-.621a.62.62 0 0 1-.621-.62V41.206c0-.342.279-.621.621-.621h.621z"/><path fill="#112E51" d="M138.633 53.468h-1.087a1.087 1.087 0 0 1-1.086-1.087V41.206c0-.599.487-1.086 1.086-1.086h1.087zm-1.087-12.417a.153.153 0 0 0-.155.155v11.175c0 .087.068.155.155.155h.156V41.051z"/></g><circle cx="163" cy="44" r="42.5" stroke="#A8B6C6" stroke-width="3"/><circle cx="163" cy="44" r="42.5" stroke="#A8B6C6" stroke-width="3"/><path stroke="#A8B6C6" stroke-width="2" d="M89 44h32"/><circle cx="121" cy="44" r="3" fill="#F2F9FF" stroke="#A8B6C6" stroke-width="2"/><circle cx="87" cy="44" r="3" fill="#F2F9FF" stroke="#A8B6C6" stroke-width="2"/></svg>