<svg width="88" height="88" viewBox="0 0 88 88" fill="none" xmlns="http://www.w3.org/2000/svg">
<circle cx="44" cy="44" r="42.5" fill="#F2F9FF" stroke="#A8B6C6" stroke-width="3"/>
<mask id="mask0_2606_7670" style="mask-type:alpha" maskUnits="userSpaceOnUse" x="0" y="0" width="88" height="88">
<circle cx="44" cy="44" r="42.5" fill="#F2F9FF" stroke="#A8B6C6" stroke-width="3"/>
</mask>
<g mask="url(#mask0_2606_7670)">
<path d="M72.5302 13.6362H22.8225V43.4624H72.5302V13.6362Z" fill="#EDF3FB"/>
<path d="M73.5524 44.4846H21.8V12.6138H73.5524V44.4846ZM23.8447 42.4399H71.5078V14.6584H23.8447V42.4399Z" fill="#EDF3FB"/>
<path d="M76.5116 8H19.5906C17.8429 8 16.4226 9.41768 16.4226 11.168V47.8165H79.6796V11.168C79.6796 9.41768 78.262 8 76.5116 8Z" fill="#0071BB" stroke="#205493" stroke-width="2" stroke-miterlimit="10"/>
<path d="M7.1001 67.8501H89.0001V70.1001C89.0001 71.757 87.657 73.1001 86.0001 73.1001H10.1001C8.44325 73.1001 7.1001 71.757 7.1001 70.1001V67.8501Z" fill="#205493"/>
<rect x="20.75" y="12.2" width="54.6" height="31.5" rx="2" fill="#EDF3FB"/>
<path d="M20.75 31.1001H75.35V41.7001C75.35 42.8047 74.4546 43.7001 73.35 43.7001H22.75C21.6454 43.7001 20.75 42.8047 20.75 41.7001V31.1001Z" fill="white"/>
<path d="M79.6738 47.8999L87.7707 66.8076C88.3568 68.1751 87.3536 69.6984 85.8646 69.6984H57.3817H38.709H10.226C8.73705 69.6984 7.73385 68.1751 8.31993 66.8076L16.4168 47.8999H79.6738Z" fill="#0071BB" stroke="#205493" stroke-width="2" stroke-miterlimit="10"/>
<path d="M76.9924 58.6402H19.1104L21.4177 52.1062H74.6876L76.9924 58.6402Z" fill="#EDF3FB"/>
<path d="M78.4843 59.6961H17.6165L20.6709 51.05H75.4351L78.4843 59.6961Z" fill="#205493"/>
<path d="M58.55 66.8H37.55L38.5384 61.5598H57.5595L58.55 66.8Z" fill="#205493"/>
</g>
<circle cx="44" cy="44" r="42.5" stroke="#A8B6C6" stroke-width="3"/>
<path d="M72.5302 13.6362H22.8225V43.4624H72.5302V13.6362Z" fill="#EDF3FB"/>
<path d="M73.5524 44.4846H21.8V12.6138H73.5524V44.4846ZM23.8447 42.4399H71.5078V14.6584H23.8447V42.4399Z" fill="#EDF3FB"/>
<path d="M76.5116 8H19.5906C17.8429 8 16.4226 9.41768 16.4226 11.168V47.8165H79.6796V11.168C79.6796 9.41768 78.262 8 76.5116 8Z" fill="#0071BB" stroke="#205493" stroke-width="2" stroke-miterlimit="10"/>
<rect x="20.75" y="12.2" width="54.6" height="31.5" rx="2" fill="#EDF3FB"/>
<path d="M20.75 31.1001H75.35V41.7001C75.35 42.8047 74.4546 43.7001 73.35 43.7001H22.75C21.6454 43.7001 20.75 42.8047 20.75 41.7001V31.1001Z" fill="white"/>
<path d="M11 35H32.2998C33.4044 35 34.2998 35.8954 34.2998 37V78.25C34.2998 79.3546 33.4044 80.25 32.2998 80.25H11C9.89543 80.25 9 79.3546 9 78.25V37C9 35.8954 9.89543 35 11 35Z" fill="#485F7A" stroke="#112E51" stroke-width="2"/>
<path d="M13.1499 38.7H30.1499C30.9783 38.7 31.6499 39.3715 31.6499 40.2V74.0496C31.6499 75.4303 30.5306 76.5496 29.1499 76.5496H14.1499C12.7692 76.5496 11.6499 75.4303 11.6499 74.0496V40.2C11.6499 39.3715 12.3215 38.7 13.1499 38.7Z" fill="#EDF3FB" stroke="#112E51"/>
<path d="M12.2 63.4L31.1 57.625V74C31.1 75.1046 30.2045 76 29.1 76H14.1999C13.0954 76 12.2 75.1046 12.2 74V63.4Z" fill="white"/>
<rect x="17.95" y="38.7" width="7.4" height="1.1" rx="0.55" fill="#112E51" stroke="#112E51"/>
<mask id="mask1_2606_7670" style="mask-type:alpha" maskUnits="userSpaceOnUse" x="5" y="26" width="33" height="32">
<rect x="5" y="26" width="33" height="32" fill="#D9D9D9"/>
</mask>
<g mask="url(#mask1_2606_7670)">
<path d="M11 35H32.2998C33.4044 35 34.2998 35.8954 34.2998 37V78.25C34.2998 79.3546 33.4044 80.25 32.2998 80.25H11C9.89543 80.25 9 79.3546 9 78.25V37C9 35.8954 9.89543 35 11 35Z" fill="#485F7A" stroke="#112E51" stroke-width="2"/>
<path d="M13.1499 38.7H30.1499C30.9783 38.7 31.6499 39.3715 31.6499 40.2V74.0496C31.6499 75.4303 30.5306 76.5496 29.1499 76.5496H14.1499C12.7692 76.5496 11.6499 75.4303 11.6499 74.0496V40.2C11.6499 39.3715 12.3215 38.7 13.1499 38.7Z" fill="#EDF3FB" stroke="#112E51"/>
<path d="M12.2 63.4L31.1 57.625V74C31.1 75.1046 30.2045 76 29.1 76H14.1999C13.0954 76 12.2 75.1046 12.2 74V63.4Z" fill="white"/>
<rect x="17.95" y="38.7" width="7.4" height="1.1" rx="0.55" fill="#112E51" stroke="#112E51"/>
</g>
<path d="M52.5883 20.6001H48.0471V36.7621C52.3556 34.8387 53.8617 32.3446 54.2429 31.5669C54.3144 31.4183 54.3512 31.2544 54.3499 31.0899V22.3777C54.3499 21.9062 54.1638 21.4542 53.8339 21.1209C53.671 20.9561 53.477 20.8252 53.2632 20.7358C53.0494 20.6464 52.82 20.6003 52.5883 20.6001Z" fill="#B51E23"/>
<path d="M43.5116 20.6001C42.5381 20.6001 41.75 21.3958 41.75 22.3777V31.0905C41.7486 31.2558 41.7848 31.419 41.8563 31.5676C42.2382 32.3383 43.763 34.8505 48.0479 36.7628V20.6001H43.5116Z" fill="#E21D3E"/>
<path d="M49.1652 27.5652C49.3836 27.3908 49.5588 27.1684 49.6772 26.9151C49.7955 26.6619 49.8537 26.3848 49.8473 26.1053C49.8409 25.8259 49.7701 25.5517 49.6403 25.3041C49.5106 25.0566 49.3254 24.8423 49.0992 24.6781C48.7963 24.4602 48.4329 24.3425 48.0598 24.3413C47.6865 24.3423 47.3229 24.4599 47.0198 24.6778C46.7168 24.8957 46.4895 25.2029 46.3697 25.5564C46.2479 25.9106 46.2386 26.2938 46.3431 26.6534C46.4477 27.0131 46.6609 27.3316 46.9536 27.5652C46.7557 28.6971 46.5599 29.8275 46.3669 30.9593C46.9224 31.0558 47.4848 31.1051 48.048 31.1051C48.6194 31.1169 49.1909 31.078 49.7561 30.9898C49.5575 29.8351 49.3742 28.704 49.1652 27.5652Z" fill="white"/>
</svg>
