<svg xmlns="http://www.w3.org/2000/svg" width="88" height="88" fill="none" viewBox="0 0 88 88"><mask id="a" width="88" height="88" x="0" y="0" maskUnits="userSpaceOnUse" style="mask-type:alpha"><circle cx="44" cy="44" r="42.5" fill="#F2F9FF" stroke="#A8B6C6" stroke-width="3"/></mask><g mask="url(#a)"><path fill="#EDF3FB" d="M70.032 15.033H16.828v31.923h53.204z"/><path fill="#EDF3FB" d="M71.126 48.05H15.734V13.938h55.392zm-53.204-2.188h51.015V16.127H17.922z"/><path fill="#0071BB" stroke="#205493" stroke-miterlimit="10" stroke-width="2" d="M74.293 9H13.37a3.39 3.39 0 0 0-3.39 3.39v39.227h67.705V12.39A3.39 3.39 0 0 0 74.294 9Z"/><path fill="#112E51" d="M0 73.06h87.66v2.618a3 3 0 0 1-3 3H3a3 3 0 0 1-3-3z"/><rect width="58.44" height="33.715" x="14.61" y="13.495" fill="#EDF3FB" rx="2"/><path fill="#fff" d="M14.61 33.725h58.44V45.21a2 2 0 0 1-2 2H16.61a2 2 0 0 1-2-2z"/><path fill="#0071BB" stroke="#205493" stroke-miterlimit="10" stroke-width="2" d="m77.678 51.706 8.666 20.237a2.22 2.22 0 0 1-2.04 3.095H3.346a2.22 2.22 0 0 1-2.04-3.094l8.666-20.238z"/><path fill="#EDF3FB" d="M74.808 63.202H12.855l2.47-6.994H72.34z"/><path fill="#205493" d="M76.405 64.332h-65.15l3.27-9.254H73.14zm-21.337 7.603H32.591l1.058-5.609h20.36z"/></g><circle cx="44" cy="44" r="42.5" stroke="#A8B6C6" stroke-width="3"/><path fill="#EDF3FB" d="M70.032 15.033H16.828v31.923h53.204z"/><path fill="#EDF3FB" d="M71.126 48.05H15.734V13.938h55.392zm-53.204-2.188h51.015V16.127H17.922z"/><path fill="#0071BB" stroke="#205493" stroke-miterlimit="10" stroke-width="2" d="M74.293 9H13.37a3.39 3.39 0 0 0-3.39 3.39v39.227h67.705V12.39A3.39 3.39 0 0 0 74.294 9Z"/><rect width="58.44" height="33.715" x="14.61" y="13.495" fill="#EDF3FB" rx="2"/><path fill="#fff" d="M14.61 33.725h58.44V45.21a2 2 0 0 1-2 2H16.61a2 2 0 0 1-2-2z"/><path fill="#B51E23" d="M49.07 22h-5.057v18c4.798-2.143 6.476-4.92 6.9-5.787.08-.165.12-.348.12-.53V23.98a2 2 0 0 0-.575-1.4A1.95 1.95 0 0 0 49.07 22"/><path fill="#E21D3E" d="M38.962 22A1.97 1.97 0 0 0 37 23.98v9.703c-.002.184.039.366.118.531.426.859 2.124 3.656 6.896 5.786V22z"/><path fill="#fff" d="M45.258 29.757a2.02 2.02 0 0 0-.074-3.215 2 2 0 0 0-1.157-.376 1.99 1.99 0 0 0-1.882 1.354 2.02 2.02 0 0 0 .65 2.237q-.33 1.89-.653 3.78a11 11 0 0 0 1.872.162c.636.013 1.273-.03 1.902-.128-.221-1.286-.425-2.546-.658-3.814"/></svg>