<svg xmlns="http://www.w3.org/2000/svg" width="100" height="100" fill="none" viewBox="0 0 100 100"><g filter="url(#a)"><path fill="#fff" d="M50 94c24.3 0 44-19.7 44-44S74.3 6 50 6 6 25.7 6 50s19.7 44 44 44Z"/></g><path fill="#AFB8C3" d="M50 89.6c21.87 0 39.6-17.73 39.6-39.6S71.87 10.4 50 10.4 10.4 28.13 10.4 50 28.13 89.6 50 89.6Z"/><path fill="#fff" d="M50 85.64c19.683 0 35.64-15.957 35.64-35.64S69.683 14.36 50 14.36 14.36 30.317 14.36 50 30.317 85.64 50 85.64Z"/><path fill="#C8D3DD" stroke="#1B1B1B" stroke-miterlimit="10" stroke-width="2" d="M77.106 21.606h-54.21a3.018 3.018 0 0 0-3.017 3.017v34.904h60.245V24.623a3.016 3.016 0 0 0-3.018-3.017Zm-2.655 33.631h-48.9V25.896h48.9v29.341Z"/><path fill="#EDF3FB" d="M74.452 25.896h-48.9v29.341h48.9V25.896Z"/><path fill="#1B1B1B" d="M75.457 56.243H24.545V24.89h50.912v31.353Zm-48.9-2.011h46.889v-27.33h-46.89v27.33Z"/><path fill="#C8D3DD" stroke="#1B1B1B" stroke-miterlimit="10" stroke-width="2" d="m87.835 77.534-7.711-18.007H19.879l-7.711 18.007a1.975 1.975 0 0 0 1.815 2.753h27.126l.71-5.335h16.365l.709 5.335H86.02a1.975 1.975 0 0 0 1.815-2.753Zm-65.397-6.369 2.198-6.223h50.733l2.195 6.223H22.438Z"/><path fill="#EDF3FB" d="M77.564 71.165H22.44l2.197-6.223H75.37l2.195 6.223Z"/><path fill="#1B1B1B" d="M78.985 72.171h-57.97l2.91-8.234H76.08l2.904 8.234ZM23.859 70.16h52.282l-1.486-4.212h-49.31l-1.488 4.212h.002Z"/><path fill="#EDF3FB" d="M58.893 80.038H41.109l.71-5.086h16.365l.709 5.086Z"/><path fill="#1B1B1B" d="M60.047 81.044H39.953l.988-7.098h18.116l.99 7.098Zm-17.783-2.011h15.473l-.43-3.076H42.69l-.43 3.076h.003Z"/><defs><filter id="a" width="100" height="100" x="0" y="0" color-interpolation-filters="sRGB" filterUnits="userSpaceOnUse"><feFlood flood-opacity="0" result="BackgroundImageFix"/><feColorMatrix in="SourceAlpha" result="hardAlpha" values="0 0 0 0 0 0 0 0 0 0 0 0 0 0 0 0 0 0 127 0"/><feOffset/><feGaussianBlur stdDeviation="3"/><feComposite in2="hardAlpha" operator="out"/><feColorMatrix values="0 0 0 0 0 0 0 0 0 0 0 0 0 0 0 0 0 0 0.24 0"/><feBlend in2="BackgroundImageFix" result="effect1_dropShadow_279_8459"/><feBlend in="SourceGraphic" in2="effect1_dropShadow_279_8459" result="shape"/></filter></defs></svg>