<svg xmlns="http://www.w3.org/2000/svg" width="139" height="140" fill="none" viewBox="0 0 139 140"><g clip-path="url(#a)"><g filter="url(#b)"><path fill="#fff" d="M69.004 136.547c36.753 0 66.547-29.794 66.547-66.547S105.757 3.453 69.004 3.453 2.457 33.247 2.457 70s29.794 66.547 66.547 66.547"/></g><path fill="#006276" d="M69.004 16.097a53.904 53.904 0 1 0 0 107.807 53.904 53.904 0 0 0 0-107.807m0 102.414a48.51 48.51 0 0 1-44.825-29.947 48.515 48.515 0 1 1 44.825 29.947"/><path fill="#07819A" d="M69.004 11.343a1.57 1.57 0 1 0 0-3.14 1.57 1.57 0 0 0 0 3.14m-15.587 2.054a1.57 1.57 0 1 0 0-3.141 1.57 1.57 0 0 0 0 3.14M38.89 19.413a1.57 1.57 0 1 0 0-3.141 1.57 1.57 0 0 0 0 3.14m-12.473 9.572a1.57 1.57 0 1 0 0-3.141 1.57 1.57 0 0 0 0 3.141m-9.571 12.473a1.57 1.57 0 1 0 0-3.141 1.57 1.57 0 0 0 0 3.14M10.83 55.983a1.57 1.57 0 1 0 0-3.14 1.57 1.57 0 0 0 0 3.14M8.777 71.57a1.57 1.57 0 1 0 0-3.14 1.57 1.57 0 0 0 0 3.14m2.053 15.588a1.57 1.57 0 1 0 0-3.141 1.57 1.57 0 0 0 0 3.14m6.016 14.527a1.57 1.57 0 1 0 0-3.14 1.57 1.57 0 0 0 0 3.14m9.571 12.473a1.57 1.57 0 1 0 0-3.141 1.57 1.57 0 0 0 0 3.141m12.473 9.567a1.57 1.57 0 1 0 0-3.14 1.57 1.57 0 0 0 0 3.14m14.527 6.02a1.57 1.57 0 1 0 0-3.14 1.57 1.57 0 0 0 0 3.14m15.587 2.05a1.57 1.57 0 1 0 0-3.141 1.57 1.57 0 0 0 0 3.141m15.587-2.05a1.57 1.57 0 1 0 0-3.14 1.57 1.57 0 0 0 0 3.14m14.526-6.02a1.57 1.57 0 1 0 0-3.14 1.57 1.57 0 0 0 0 3.14m12.473-9.567a1.57 1.57 0 1 0 0-3.141 1.57 1.57 0 0 0 0 3.141m9.572-12.473a1.57 1.57 0 1 0 0-3.14 1.57 1.57 0 0 0 0 3.14m6.015-14.526a1.57 1.57 0 1 0 .001-3.141 1.57 1.57 0 0 0-.001 3.14m2.05-15.587a1.571 1.571 0 1 0 0-3.142 1.571 1.571 0 0 0 0 3.142m-2.05-15.587a1.57 1.57 0 1 0 .001-3.14 1.57 1.57 0 0 0-.001 3.14m-6.015-14.526a1.57 1.57 0 1 0 0-3.14 1.57 1.57 0 0 0 0 3.14m-9.572-12.473a1.57 1.57 0 1 0 0-3.14 1.57 1.57 0 0 0 0 3.14m-12.473-9.571a1.57 1.57 0 1 0 0-3.141 1.57 1.57 0 0 0 0 3.14m-14.526-6.015a1.57 1.57 0 1 0 0-3.141 1.57 1.57 0 0 0 0 3.14"/><path fill="#B62025" d="M107.152 38.681 70.54 12.971a2.66 2.66 0 0 0-3.073 0l-36.612 25.71a4.61 4.61 0 0 0-1.962 3.776v1.202h80.237v-1.202a4.62 4.62 0 0 0-1.978-3.776"/><g filter="url(#c)"><path fill="#B62025" d="M109.115 43.145H28.893v54.512h80.222z"/></g><g filter="url(#d)"><path fill="#fff" d="M103.144 30.802H34.236v66.851h68.908z"/></g><path fill="#E11D3F" d="M109.115 97.657H28.878V43.145L62.15 67.163a11.67 11.67 0 0 0 6.845 2.21 11.7 11.7 0 0 0 6.845-2.21l33.274-24.018z"/><g filter="url(#e)"><path fill="#E11D3F" d="M107.152 93.193 70.54 67.479a2.66 2.66 0 0 0-3.073 0L30.856 93.193a4.61 4.61 0 0 0-1.962 3.776v.688h80.237v-.688a4.62 4.62 0 0 0-1.978-3.776"/></g><path fill="#006276" d="M132.425 90.204a66.4 66.4 0 0 1-13.556 23.877H19.154A66.4 66.4 0 0 1 5.598 90.219z"/><path fill="#fff" d="M130.881 94.527a66.4 66.4 0 0 1-8.495 15.211H15.622a66.4 66.4 0 0 1-8.496-15.21z"/><path fill="#006276" d="M69.004 126.953a24.743 24.743 0 1 1 24.744-24.744 24.77 24.77 0 0 1-24.744 24.744"/><path fill="#07819A" d="M69.004 80.724v42.97A21.487 21.487 0 0 1 53.81 87.016a21.5 21.5 0 0 1 15.193-6.292"/><path fill="#fff" d="m81.293 95.487-2.69-2.69-16.133 16.134 2.69 2.689z"/><path fill="#fff" d="m59.4 100.48-2.69 2.689 8.45 8.449 2.688-2.689z"/></g><defs><filter id="b" width="145.094" height="145.094" x="-3.543" y="-2.547" color-interpolation-filters="sRGB" filterUnits="userSpaceOnUse"><feFlood flood-opacity="0" result="BackgroundImageFix"/><feColorMatrix in="SourceAlpha" result="hardAlpha" values="0 0 0 0 0 0 0 0 0 0 0 0 0 0 0 0 0 0 127 0"/><feOffset/><feGaussianBlur stdDeviation="3"/><feColorMatrix values="0 0 0 0 0.00392157 0 0 0 0 0.00392157 0 0 0 0 0.00392157 0 0 0 0.24 0"/><feBlend in2="BackgroundImageFix" result="effect1_dropShadow_171_919"/><feBlend in="SourceGraphic" in2="effect1_dropShadow_171_919" result="shape"/></filter><filter id="c" width="88.222" height="62.512" x="24.893" y="38.145" color-interpolation-filters="sRGB" filterUnits="userSpaceOnUse"><feFlood flood-opacity="0" result="BackgroundImageFix"/><feColorMatrix in="SourceAlpha" result="hardAlpha" values="0 0 0 0 0 0 0 0 0 0 0 0 0 0 0 0 0 0 127 0"/><feOffset dy="-1"/><feGaussianBlur stdDeviation="2"/><feColorMatrix values="0 0 0 0 0 0 0 0 0 0 0 0 0 0 0 0 0 0 0.25 0"/><feBlend in2="BackgroundImageFix" result="effect1_dropShadow_171_919"/><feBlend in="SourceGraphic" in2="effect1_dropShadow_171_919" result="shape"/></filter><filter id="d" width="84.909" height="82.851" x="26.236" y="22.802" color-interpolation-filters="sRGB" filterUnits="userSpaceOnUse"><feFlood flood-opacity="0" result="BackgroundImageFix"/><feColorMatrix in="SourceAlpha" result="hardAlpha" values="0 0 0 0 0 0 0 0 0 0 0 0 0 0 0 0 0 0 127 0"/><feOffset/><feGaussianBlur stdDeviation="4"/><feColorMatrix values="0 0 0 0 0 0 0 0 0 0 0 0 0 0 0 0 0 0 0.25 0"/><feBlend in2="BackgroundImageFix" result="effect1_dropShadow_171_919"/><feBlend in="SourceGraphic" in2="effect1_dropShadow_171_919" result="shape"/></filter><filter id="e" width="88.237" height="38.666" x="24.893" y="61.991" color-interpolation-filters="sRGB" filterUnits="userSpaceOnUse"><feFlood flood-opacity="0" result="BackgroundImageFix"/><feColorMatrix in="SourceAlpha" result="hardAlpha" values="0 0 0 0 0 0 0 0 0 0 0 0 0 0 0 0 0 0 127 0"/><feOffset dy="-1"/><feGaussianBlur stdDeviation="2"/><feColorMatrix values="0 0 0 0 0 0 0 0 0 0 0 0 0 0 0 0 0 0 0.25 0"/><feBlend in2="BackgroundImageFix" result="effect1_dropShadow_171_919"/><feBlend in="SourceGraphic" in2="effect1_dropShadow_171_919" result="shape"/></filter><clipPath id="a"><path fill="#fff" d="M-1 0h140v140H-1z"/></clipPath></defs></svg>