<svg width="139" height="140" viewBox="0 0 139 140" fill="none" xmlns="http://www.w3.org/2000/svg">
  <g clip-path="url(#clip0_171_919)">
    <g filter="url(#filter0_d_171_919)">
      <path d="M69.0038 136.547C105.757 136.547 135.551 106.753 135.551 70C135.551 33.2471 105.757 3.45288 69.0038 3.45288C32.2508 3.45288 2.45667 33.2471 2.45667 70C2.45667 106.753 32.2508 136.547 69.0038 136.547Z" fill="white"/>
    </g>
    <path d="M69.0038 16.0968C58.3428 16.0968 47.9211 19.2582 39.0568 25.1811C30.1925 31.1041 23.2836 39.5226 19.2037 49.3721C15.1239 59.2217 14.0565 70.0598 16.1363 80.516C18.2162 90.9722 23.35 100.577 30.8885 108.115C38.427 115.654 48.0316 120.788 58.4878 122.867C68.944 124.947 79.7821 123.88 89.6317 119.8C99.4812 115.72 107.9 108.811 113.823 99.947C119.746 91.0827 122.907 80.661 122.907 70C122.907 55.704 117.228 41.9935 107.119 31.8847C97.0103 21.7759 83.2998 16.0968 69.0038 16.0968ZM69.0038 118.511C59.4082 118.512 50.0278 115.667 42.049 110.336C34.0702 105.006 27.8514 97.4288 24.1789 88.5638C20.5065 79.6987 19.5454 69.9437 21.4172 60.5324C23.2891 51.1211 27.9097 42.4762 34.6949 35.6911C41.48 28.9059 50.1249 24.2853 59.5362 22.4134C68.9475 20.5416 78.7025 21.5027 87.5676 25.1751C96.4326 28.8476 104.01 35.0664 109.34 43.0452C114.671 51.024 117.516 60.4044 117.515 70C117.515 82.8659 112.404 95.2049 103.306 104.302C94.2087 113.4 81.8697 118.511 69.0038 118.511Z" fill="#006276"/>
    <path d="M69.0039 11.3434C69.8712 11.3434 70.5744 10.6403 70.5744 9.77291C70.5744 8.90554 69.8712 8.20239 69.0039 8.20239C68.1365 8.20239 67.4333 8.90554 67.4333 9.77291C67.4333 10.6403 68.1365 11.3434 69.0039 11.3434Z" fill="#07819A"/>
    <path d="M53.4166 13.3969C54.284 13.3969 54.9871 12.6937 54.9871 11.8264C54.9871 10.959 54.284 10.2559 53.4166 10.2559C52.5492 10.2559 51.8461 10.959 51.8461 11.8264C51.8461 12.6937 52.5492 13.3969 53.4166 13.3969Z" fill="#07819A"/>
    <path d="M38.8902 19.4128C39.7576 19.4128 40.4607 18.7096 40.4607 17.8422C40.4607 16.9749 39.7576 16.2717 38.8902 16.2717C38.0228 16.2717 37.3197 16.9749 37.3197 17.8422C37.3197 18.7096 38.0228 19.4128 38.8902 19.4128Z" fill="#07819A"/>
    <path d="M26.4174 28.9842C27.2848 28.9842 27.988 28.281 27.988 27.4137C27.988 26.5463 27.2848 25.8431 26.4174 25.8431C25.5501 25.8431 24.8469 26.5463 24.8469 27.4137C24.8469 28.281 25.5501 28.9842 26.4174 28.9842Z" fill="#07819A"/>
    <path d="M16.846 41.4569C17.7134 41.4569 18.4165 40.7538 18.4165 39.8864C18.4165 39.0191 17.7134 38.3159 16.846 38.3159C15.9787 38.3159 15.2755 39.0191 15.2755 39.8864C15.2755 40.7538 15.9787 41.4569 16.846 41.4569Z" fill="#07819A"/>
    <path d="M10.8302 55.9832C11.6975 55.9832 12.4007 55.2801 12.4007 54.4127C12.4007 53.5454 11.6975 52.8422 10.8302 52.8422C9.96279 52.8422 9.25964 53.5454 9.25964 54.4127C9.25964 55.2801 9.96279 55.9832 10.8302 55.9832Z" fill="#07819A"/>
    <path d="M8.77669 71.5705C9.64406 71.5705 10.3472 70.8674 10.3472 70C10.3472 69.1326 9.64406 68.4295 8.77669 68.4295C7.90932 68.4295 7.20618 69.1326 7.20618 70C7.20618 70.8674 7.90932 71.5705 8.77669 71.5705Z" fill="#07819A"/>
    <path d="M10.8302 87.1577C11.6975 87.1577 12.4007 86.4546 12.4007 85.5872C12.4007 84.7199 11.6975 84.0167 10.8302 84.0167C9.96279 84.0167 9.25964 84.7199 9.25964 85.5872C9.25964 86.4546 9.96279 87.1577 10.8302 87.1577Z" fill="#07819A"/>
    <path d="M16.846 101.684C17.7134 101.684 18.4165 100.981 18.4165 100.114C18.4165 99.2462 17.7134 98.543 16.846 98.543C15.9787 98.543 15.2755 99.2462 15.2755 100.114C15.2755 100.981 15.9787 101.684 16.846 101.684Z" fill="#07819A"/>
    <path d="M26.4174 114.157C27.2848 114.157 27.988 113.454 27.988 112.586C27.988 111.719 27.2848 111.016 26.4174 111.016C25.5501 111.016 24.8469 111.719 24.8469 112.586C24.8469 113.454 25.5501 114.157 26.4174 114.157Z" fill="#07819A"/>
    <path d="M38.8902 123.724C39.7576 123.724 40.4607 123.021 40.4607 122.154C40.4607 121.287 39.7576 120.583 38.8902 120.583C38.0228 120.583 37.3197 121.287 37.3197 122.154C37.3197 123.021 38.0228 123.724 38.8902 123.724Z" fill="#07819A"/>
    <path d="M53.4166 129.744C54.284 129.744 54.9871 129.041 54.9871 128.174C54.9871 127.306 54.284 126.603 53.4166 126.603C52.5492 126.603 51.8461 127.306 51.8461 128.174C51.8461 129.041 52.5492 129.744 53.4166 129.744Z" fill="#07819A"/>
    <path d="M69.0039 131.794C69.8712 131.794 70.5744 131.091 70.5744 130.223C70.5744 129.356 69.8712 128.653 69.0039 128.653C68.1365 128.653 67.4333 129.356 67.4333 130.223C67.4333 131.091 68.1365 131.794 69.0039 131.794Z" fill="#07819A"/>
    <path d="M84.591 129.744C85.4584 129.744 86.1615 129.041 86.1615 128.174C86.1615 127.306 85.4584 126.603 84.591 126.603C83.7237 126.603 83.0205 127.306 83.0205 128.174C83.0205 129.041 83.7237 129.744 84.591 129.744Z" fill="#07819A"/>
    <path d="M99.1174 123.724C99.9848 123.724 100.688 123.021 100.688 122.154C100.688 121.287 99.9848 120.583 99.1174 120.583C98.25 120.583 97.5469 121.287 97.5469 122.154C97.5469 123.021 98.25 123.724 99.1174 123.724Z" fill="#07819A"/>
    <path d="M111.59 114.157C112.458 114.157 113.161 113.454 113.161 112.586C113.161 111.719 112.458 111.016 111.59 111.016C110.723 111.016 110.02 111.719 110.02 112.586C110.02 113.454 110.723 114.157 111.59 114.157Z" fill="#07819A"/>
    <path d="M121.162 101.684C122.029 101.684 122.732 100.981 122.732 100.114C122.732 99.2462 122.029 98.543 121.162 98.543C120.294 98.543 119.591 99.2462 119.591 100.114C119.591 100.981 120.294 101.684 121.162 101.684Z" fill="#07819A"/>
    <path d="M127.177 87.1577C128.045 87.1577 128.748 86.4546 128.748 85.5872C128.748 84.7199 128.045 84.0167 127.177 84.0167C126.31 84.0167 125.607 84.7199 125.607 85.5872C125.607 86.4546 126.31 87.1577 127.177 87.1577Z" fill="#07819A"/>
    <path d="M129.227 71.5705C130.094 71.5705 130.798 70.8674 130.798 70C130.798 69.1326 130.094 68.4295 129.227 68.4295C128.36 68.4295 127.656 69.1326 127.656 70C127.656 70.8674 128.36 71.5705 129.227 71.5705Z" fill="#07819A"/>
    <path d="M127.177 55.9832C128.045 55.9832 128.748 55.2801 128.748 54.4127C128.748 53.5454 128.045 52.8422 127.177 52.8422C126.31 52.8422 125.607 53.5454 125.607 54.4127C125.607 55.2801 126.31 55.9832 127.177 55.9832Z" fill="#07819A"/>
    <path d="M121.162 41.4569C122.029 41.4569 122.732 40.7538 122.732 39.8864C122.732 39.0191 122.029 38.3159 121.162 38.3159C120.294 38.3159 119.591 39.0191 119.591 39.8864C119.591 40.7538 120.294 41.4569 121.162 41.4569Z" fill="#07819A"/>
    <path d="M111.59 28.9842C112.458 28.9842 113.161 28.281 113.161 27.4137C113.161 26.5463 112.458 25.8431 111.59 25.8431C110.723 25.8431 110.02 26.5463 110.02 27.4137C110.02 28.281 110.723 28.9842 111.59 28.9842Z" fill="#07819A"/>
    <path d="M99.1174 19.4128C99.9848 19.4128 100.688 18.7096 100.688 17.8422C100.688 16.9749 99.9848 16.2717 99.1174 16.2717C98.25 16.2717 97.5469 16.9749 97.5469 17.8422C97.5469 18.7096 98.25 19.4128 99.1174 19.4128Z" fill="#07819A"/>
    <path d="M84.591 13.3969C85.4584 13.3969 86.1615 12.6937 86.1615 11.8264C86.1615 10.959 85.4584 10.2559 84.591 10.2559C83.7237 10.2559 83.0205 10.959 83.0205 11.8264C83.0205 12.6937 83.7237 13.3969 84.591 13.3969Z" fill="#07819A"/>
    <path d="M107.152 38.681L70.5401 12.971C70.0907 12.6534 69.554 12.4829 69.0038 12.4829C68.4535 12.4829 67.9168 12.6534 67.4675 12.971L30.8551 38.681C30.2487 39.1064 29.7537 39.6717 29.4121 40.329C29.0706 40.9863 28.8925 41.7163 28.8929 42.4571V43.6587H109.13V42.4571C109.128 41.7151 108.947 40.9847 108.603 40.3274C108.258 39.6701 107.761 39.1054 107.152 38.681Z" fill="#B62025"/>
    <g filter="url(#filter1_d_171_919)">
      <path d="M109.115 43.1454H28.8929V97.657H109.115V43.1454Z" fill="#B62025"/>
    </g>
    <g filter="url(#filter2_d_171_919)">
      <path d="M103.144 30.8019H34.2357V97.6532H103.144V30.8019Z" fill="white"/>
    </g>
    <path d="M109.115 97.657H28.8778V43.1454L62.1514 67.1632C64.1434 68.6021 66.5389 69.3754 68.9962 69.3726C71.4534 69.3741 73.8485 68.601 75.8411 67.1632L109.115 43.1454V97.657Z" fill="#E11D3F"/>
    <g filter="url(#filter3_d_171_919)">
      <path d="M107.152 93.1926L70.5401 67.4788C70.0907 67.1612 69.554 66.9907 69.0038 66.9907C68.4535 66.9907 67.9168 67.1612 67.4675 67.4788L30.8551 93.1926C30.2487 93.618 29.7537 94.1833 29.4121 94.8406C29.0706 95.498 28.8925 96.2279 28.8929 96.9687V97.657H109.13V96.9687C109.128 96.2268 108.947 95.4963 108.603 94.839C108.258 94.1817 107.761 93.617 107.152 93.1926Z" fill="#E11D3F"/>
    </g>
    <path d="M132.425 90.2037C129.619 99.0201 125.001 107.153 118.869 114.081H19.1543C13.0235 107.157 8.40613 99.0299 5.59766 90.2189L132.425 90.2037Z" fill="#006276"/>
    <path d="M130.881 94.5274C128.729 99.9485 125.873 105.063 122.386 109.738H15.6216C12.1345 105.063 9.2782 99.9485 7.12634 94.5274H130.881Z" fill="white"/>
    <path d="M69.0038 126.953C64.1099 126.953 59.3258 125.502 55.2567 122.783C51.1875 120.064 48.016 116.199 46.1432 111.678C44.2704 107.157 43.7803 102.181 44.7351 97.3815C45.6899 92.5816 48.0465 88.1726 51.507 84.7121C54.9676 81.2515 59.3766 78.8949 64.1764 77.9401C68.9763 76.9854 73.9516 77.4754 78.473 79.3482C82.9944 81.221 86.8589 84.3925 89.5778 88.4617C92.2967 92.5309 93.7479 97.3149 93.7479 102.209C93.7409 108.769 91.1316 115.059 86.4927 119.698C81.8539 124.337 75.5642 126.946 69.0038 126.953Z" fill="#006276"/>
    <path d="M69.0038 80.7236V123.694C63.3055 123.694 57.8407 121.43 53.8114 117.401C49.7822 113.372 47.5186 107.907 47.5186 102.209C47.5186 96.5106 49.7822 91.0457 53.8114 87.0164C57.8407 82.9872 63.3055 80.7236 69.0038 80.7236Z" fill="#07819A"/>
    <path d="M81.2928 95.4866L78.6039 92.7977L62.4704 108.931L65.1593 111.62L81.2928 95.4866Z" fill="white"/>
    <path d="M59.3998 100.48L56.7109 103.169L65.1595 111.618L67.8484 108.929L59.3998 100.48Z" fill="white"/>
  </g>
  <defs>
    <filter id="filter0_d_171_919" x="-3.54333" y="-2.54712" width="145.094" height="145.094" filterUnits="userSpaceOnUse" color-interpolation-filters="sRGB">
      <feFlood flood-opacity="0" result="BackgroundImageFix"/>
      <feColorMatrix in="SourceAlpha" type="matrix" values="0 0 0 0 0 0 0 0 0 0 0 0 0 0 0 0 0 0 127 0" result="hardAlpha"/>
      <feOffset/>
      <feGaussianBlur stdDeviation="3"/>
      <feColorMatrix type="matrix" values="0 0 0 0 0.00392157 0 0 0 0 0.00392157 0 0 0 0 0.00392157 0 0 0 0.24 0"/>
      <feBlend mode="normal" in2="BackgroundImageFix" result="effect1_dropShadow_171_919"/>
      <feBlend mode="normal" in="SourceGraphic" in2="effect1_dropShadow_171_919" result="shape"/>
    </filter>
    <filter id="filter1_d_171_919" x="24.8929" y="38.1454" width="88.2217" height="62.5116" filterUnits="userSpaceOnUse" color-interpolation-filters="sRGB">
      <feFlood flood-opacity="0" result="BackgroundImageFix"/>
      <feColorMatrix in="SourceAlpha" type="matrix" values="0 0 0 0 0 0 0 0 0 0 0 0 0 0 0 0 0 0 127 0" result="hardAlpha"/>
      <feOffset dy="-1"/>
      <feGaussianBlur stdDeviation="2"/>
      <feColorMatrix type="matrix" values="0 0 0 0 0 0 0 0 0 0 0 0 0 0 0 0 0 0 0.25 0"/>
      <feBlend mode="normal" in2="BackgroundImageFix" result="effect1_dropShadow_171_919"/>
      <feBlend mode="normal" in="SourceGraphic" in2="effect1_dropShadow_171_919" result="shape"/>
    </filter>
    <filter id="filter2_d_171_919" x="26.2357" y="22.8019" width="84.9086" height="82.8514" filterUnits="userSpaceOnUse" color-interpolation-filters="sRGB">
      <feFlood flood-opacity="0" result="BackgroundImageFix"/>
      <feColorMatrix in="SourceAlpha" type="matrix" values="0 0 0 0 0 0 0 0 0 0 0 0 0 0 0 0 0 0 127 0" result="hardAlpha"/>
      <feOffset/>
      <feGaussianBlur stdDeviation="4"/>
      <feColorMatrix type="matrix" values="0 0 0 0 0 0 0 0 0 0 0 0 0 0 0 0 0 0 0.25 0"/>
      <feBlend mode="normal" in2="BackgroundImageFix" result="effect1_dropShadow_171_919"/>
      <feBlend mode="normal" in="SourceGraphic" in2="effect1_dropShadow_171_919" result="shape"/>
    </filter>
    <filter id="filter3_d_171_919" x="24.8929" y="61.9907" width="88.2368" height="38.6663" filterUnits="userSpaceOnUse" color-interpolation-filters="sRGB">
      <feFlood flood-opacity="0" result="BackgroundImageFix"/>
      <feColorMatrix in="SourceAlpha" type="matrix" values="0 0 0 0 0 0 0 0 0 0 0 0 0 0 0 0 0 0 127 0" result="hardAlpha"/>
      <feOffset dy="-1"/>
      <feGaussianBlur stdDeviation="2"/>
      <feColorMatrix type="matrix" values="0 0 0 0 0 0 0 0 0 0 0 0 0 0 0 0 0 0 0.25 0"/>
      <feBlend mode="normal" in2="BackgroundImageFix" result="effect1_dropShadow_171_919"/>
      <feBlend mode="normal" in="SourceGraphic" in2="effect1_dropShadow_171_919" result="shape"/>
    </filter>
    <clipPath id="clip0_171_919">
      <rect width="140" height="140" fill="white" transform="translate(-1)"/>
    </clipPath>
  </defs>
</svg>
