<svg xmlns="http://www.w3.org/2000/svg" width="88" height="88" fill="none" viewBox="0 0 88 88"><circle cx="44" cy="44" r="42.5" fill="#F2F9FF" stroke="#A8B6C6" stroke-width="3"/><mask id="a" width="88" height="88" x="0" y="0" maskUnits="userSpaceOnUse" style="mask-type:alpha"><path fill="#fff" d="M44 88c24.3 0 44-19.7 44-44S68.3 0 44 0 0 19.7 0 44s19.7 44 44 44"/></mask><g mask="url(#a)"><path fill="#F5D60C" d="M23.644 14.8a.623.623 0 0 1-.621-.62V4c0-.341.279-.62.62-.62.342 0 .621.279.621.62v10.18c0 .342-.28.621-.62.621m-3.952 1.635a.62.62 0 0 1-.437-.183l-7.199-7.198a.622.622 0 0 1 .879-.879l7.198 7.198a.622.622 0 0 1-.438 1.062zm-1.636 3.952H7.878a.623.623 0 0 1-.62-.621c0-.342.279-.621.62-.621h10.178c.342 0 .621.28.621.62 0 .342-.28.622-.62.622m-5.56 11.146a.622.622 0 0 1-.438-1.062l7.198-7.198a.622.622 0 0 1 .879.879l-7.199 7.198a.62.62 0 0 1-.437.183zm11.147 4.619a.623.623 0 0 1-.621-.62v-10.18c0-.34.28-.62.62-.62.342 0 .621.28.621.62v10.18c0 .34-.279.62-.62.62m11.146-4.619a.62.62 0 0 1-.437-.183l-7.199-7.198a.622.622 0 0 1 .879-.879l7.198 7.198a.622.622 0 0 1-.438 1.062zm4.62-11.146H29.23a.623.623 0 0 1-.62-.621c0-.342.279-.621.62-.621h10.18c.342 0 .621.28.621.62 0 .342-.28.622-.62.622m-11.816-3.952a.622.622 0 0 1-.438-1.062l7.199-7.198a.622.622 0 0 1 .878.879l-7.198 7.198a.62.62 0 0 1-.438.183z"/><path fill="#CAB32D" d="M20.437 12.646a.62.62 0 0 1-.574-.385l-1.757-4.24a.62.62 0 1 1 1.145-.475l1.757 4.24a.62.62 0 0 1-.571.857zM15.9 17.181a.6.6 0 0 1-.237-.047l-4.24-1.757a.617.617 0 0 1-.335-.81.617.617 0 0 1 .81-.335l4.24 1.757a.622.622 0 0 1-.239 1.195zm-4.241 8.169a.622.622 0 0 1-.239-1.194l4.24-1.757a.62.62 0 0 1 .475 1.145l-4.24 1.757a.6.6 0 0 1-.236.047zm7.021 7.022a.617.617 0 0 1-.571-.857l1.757-4.24a.62.62 0 1 1 1.146.475l-1.757 4.24a.62.62 0 0 1-.575.385zm9.927 0a.62.62 0 0 1-.575-.385l-1.757-4.24a.62.62 0 0 1 1.146-.475l1.757 4.24a.62.62 0 0 1-.571.857zm7.021-7.022a.6.6 0 0 1-.236-.046l-4.24-1.757a.62.62 0 0 1 .475-1.145l4.24 1.757a.62.62 0 0 1-.239 1.195zm-4.24-8.169a.622.622 0 0 1-.239-1.195l4.24-1.757a.62.62 0 1 1 .475 1.145l-4.24 1.757a.6.6 0 0 1-.236.047zm-4.538-4.535a.62.62 0 0 1-.571-.857l1.757-4.24a.62.62 0 0 1 1.145.475l-1.757 4.24a.62.62 0 0 1-.574.385z"/><path fill="#F5D60C" d="M40.586 8.192a3.413 3.413 0 0 0-3.415-3.415 3.413 3.413 0 0 0 3.415-3.414A3.413 3.413 0 0 0 44 4.777a3.413 3.413 0 0 0-3.414 3.415M8.176 43.22a4.347 4.347 0 0 0-4.345-4.345 4.346 4.346 0 0 0 4.345-4.346c0 2.4 1.947 4.346 4.346 4.346a4.347 4.347 0 0 0-4.346 4.346"/><path fill="#485F7A" d="M61.383 15.132H26.618a7.45 7.45 0 0 0-7.45 7.45v72.014a7.45 7.45 0 0 0 7.45 7.45h34.765a7.45 7.45 0 0 0 7.45-7.45V22.582a7.45 7.45 0 0 0-7.45-7.45"/><path fill="#112E51" d="M61.383 103.287H26.617c-4.792 0-8.691-3.898-8.691-8.69V22.581c0-4.793 3.899-8.691 8.691-8.691h34.766c4.792 0 8.69 3.898 8.69 8.691v72.014c0 4.793-3.898 8.691-8.69 8.691M26.617 16.374a6.214 6.214 0 0 0-6.208 6.208v72.014a6.214 6.214 0 0 0 6.208 6.208h34.766a6.214 6.214 0 0 0 6.208-6.208V22.582a6.214 6.214 0 0 0-6.208-6.208z"/><path fill="#A8B6C6" d="M40.896 18.857H26.617a3.725 3.725 0 0 0-3.725 3.725v14.279a3.725 3.725 0 0 0 3.725 3.725h14.279a3.725 3.725 0 0 0 3.724-3.725V22.582a3.725 3.725 0 0 0-3.724-3.725"/><path fill="#112E51" d="M40.896 41.827H26.617a4.973 4.973 0 0 1-4.966-4.966V22.582a4.973 4.973 0 0 1 4.966-4.966h14.279a4.973 4.973 0 0 1 4.966 4.966v14.279a4.973 4.973 0 0 1-4.966 4.966M26.617 20.1a2.487 2.487 0 0 0-2.483 2.483v14.279a2.487 2.487 0 0 0 2.483 2.483h14.279a2.487 2.487 0 0 0 2.483-2.483v-14.28a2.487 2.487 0 0 0-2.483-2.483z"/><path fill="#fff" d="M38.723 26.928a2.173 2.173 0 1 0 0-4.346 2.173 2.173 0 0 0 0 4.346"/><path fill="#112E51" d="M38.723 27.393a2.64 2.64 0 0 1-2.639-2.638 2.64 2.64 0 0 1 2.639-2.639 2.64 2.64 0 0 1 2.638 2.639 2.64 2.64 0 0 1-2.638 2.638m0-4.345a1.71 1.71 0 0 0-1.707 1.707c0 .94.767 1.707 1.707 1.707a1.71 1.71 0 0 0 1.707-1.707 1.71 1.71 0 0 0-1.707-1.707"/><path fill="#485F7A" d="M28.79 28.17a3.414 3.414 0 1 0 0-6.83 3.414 3.414 0 0 0 0 6.83"/><path fill="#112E51" d="M28.79 28.79a4.04 4.04 0 0 1-4.035-4.035 4.04 4.04 0 0 1 4.035-4.035 4.04 4.04 0 0 1 4.035 4.035 4.04 4.04 0 0 1-4.035 4.035m0-6.829a2.8 2.8 0 0 0-2.794 2.794 2.8 2.8 0 0 0 2.794 2.794 2.8 2.8 0 0 0 2.794-2.794 2.8 2.8 0 0 0-2.794-2.794"/><path fill="#fff" d="M28.79 36.24a1.552 1.552 0 1 0 0-3.104 1.552 1.552 0 0 0 0 3.104"/><path fill="#112E51" d="M28.79 36.706a2.02 2.02 0 0 1-2.017-2.018c0-1.111.906-2.018 2.017-2.018s2.018.907 2.018 2.018a2.02 2.02 0 0 1-2.018 2.017m0-3.105a1.088 1.088 0 0 0 0 2.173 1.087 1.087 0 0 0 0-2.173"/><path fill="#485F7A" d="M38.723 38.102a3.414 3.414 0 1 0 0-6.829 3.414 3.414 0 0 0 0 6.83"/><path fill="#112E51" d="M38.723 38.723a4.04 4.04 0 0 1-4.035-4.035 4.04 4.04 0 0 1 4.035-4.035 4.04 4.04 0 0 1 4.035 4.035 4.04 4.04 0 0 1-4.035 4.035m0-6.829a2.8 2.8 0 0 0-2.794 2.794 2.8 2.8 0 0 0 2.794 2.793 2.8 2.8 0 0 0 2.794-2.793 2.8 2.8 0 0 0-2.794-2.794"/><path fill="#485F7A" d="M68.832 40.586h.62c.342 0 .621.279.621.62v4.967c0 .341-.28.62-.62.62h-.621z"/><path fill="#112E51" d="M69.453 47.26h-1.086v-7.14h1.086c.6 0 1.086.487 1.086 1.086v4.967c0 .599-.487 1.086-1.086 1.086m-.155-.932h.155a.154.154 0 0 0 .155-.155v-4.967a.154.154 0 0 0-.155-.155h-.155z"/><path fill="#485F7A" d="M68.832 48.346h.62c.342 0 .621.28.621.62v4.967c0 .342-.28.62-.62.62h-.621z"/><path fill="#112E51" d="M69.453 55.02h-1.086v-7.14h1.086c.6 0 1.086.487 1.086 1.087v4.966c0 .6-.487 1.087-1.086 1.087m-.155-.932h.155a.154.154 0 0 0 .155-.155v-4.966a.154.154 0 0 0-.155-.156h-.155z"/><path fill="#485F7A" d="M19.168 53.002h-.621a.623.623 0 0 1-.62-.621V41.206c0-.341.279-.62.62-.62h.62z"/><path fill="#112E51" d="M19.633 53.467h-1.087a1.087 1.087 0 0 1-1.086-1.086V41.206c0-.599.487-1.086 1.086-1.086h1.087zm-1.087-12.416a.154.154 0 0 0-.155.155v11.175c0 .087.069.155.155.155h.156V41.051zM20 71l48-15.5V88H20z"/></g><circle cx="44" cy="44" r="42.5" stroke="#A8B6C6" stroke-width="3"/></svg>