<svg xmlns="http://www.w3.org/2000/svg" width="100" height="101" fill="none" viewBox="0 0 100 101"><g filter="url(#a)"><path fill="#fff" d="M50 94.969c24.3 0 44-19.7 44-44s-19.7-44-44-44-44 19.7-44 44 19.7 44 44 44"/></g><path fill="#5D8EBA" d="M50 90.569c21.87 0 39.6-17.73 39.6-39.6s-17.73-39.6-39.6-39.6-39.6 17.73-39.6 39.6 17.73 39.6 39.6 39.6"/><path fill="#fff" d="M50 86.609c19.684 0 35.64-15.957 35.64-35.64 0-19.684-15.956-35.64-35.64-35.64-19.683 0-35.64 15.956-35.64 35.64 0 19.683 15.957 35.64 35.64 35.64"/><mask id="b" width="72" height="72" x="14" y="15" maskUnits="userSpaceOnUse" style="mask-type:alpha"><path fill="#fff" d="M50 86.609c19.684 0 35.64-15.957 35.64-35.64 0-19.684-15.956-35.64-35.64-35.64-19.683 0-35.64 15.956-35.64 35.64 0 19.683 15.957 35.64 35.64 35.64"/></mask><g mask="url(#b)"><path fill="#F5D60C" d="M33.511 27.317a.504.504 0 0 1-.503-.503V18.57a.504.504 0 0 1 1.006 0v8.244a.504.504 0 0 1-.503.503m-3.201 1.325a.5.5 0 0 1-.354-.148l-5.83-5.83a.504.504 0 0 1 .711-.713l5.83 5.831a.504.504 0 0 1-.354.86zm-1.324 3.201H20.74a.504.504 0 0 1-.503-.503c0-.277.227-.503.503-.503h8.244c.277 0 .503.226.503.503a.504.504 0 0 1-.503.503m-4.502 9.029a.504.504 0 0 1-.354-.86l5.83-5.831a.504.504 0 0 1 .712.712l-5.83 5.83a.5.5 0 0 1-.355.148zm9.029 3.741a.504.504 0 0 1-.503-.503v-8.245c0-.276.227-.503.503-.503.277 0 .503.227.503.503v8.245a.504.504 0 0 1-.503.503m9.029-3.741a.5.5 0 0 1-.354-.149l-5.83-5.83a.504.504 0 0 1 .71-.712l5.831 5.83a.504.504 0 0 1-.354.86zm3.741-9.029h-8.244a.504.504 0 0 1-.503-.503c0-.277.227-.503.503-.503h8.244c.277 0 .503.226.503.503a.504.504 0 0 1-.503.503m-9.569-3.201a.504.504 0 0 1-.355-.86l5.83-5.83a.504.504 0 0 1 .712.711l-5.83 5.83a.5.5 0 0 1-.355.149z"/><path fill="#CAB32D" d="M30.914 25.572a.5.5 0 0 1-.465-.312l-1.424-3.434a.502.502 0 0 1 .928-.385l1.423 3.435a.502.502 0 0 1-.462.694zm-3.676 3.674a.5.5 0 0 1-.19-.038l-3.435-1.423a.5.5 0 0 1-.272-.657.5.5 0 0 1 .656-.271l3.435 1.423a.504.504 0 0 1-.194.968zm-3.434 6.617a.504.504 0 0 1-.194-.968l3.435-1.423a.502.502 0 0 1 .384.928l-3.434 1.423a.5.5 0 0 1-.191.038zm5.687 5.687a.5.5 0 0 1-.463-.694l1.424-3.434a.502.502 0 1 1 .927.385l-1.423 3.434a.5.5 0 0 1-.465.312zm8.039 0a.5.5 0 0 1-.464-.311l-1.423-3.435a.502.502 0 1 1 .928-.385l1.422 3.435a.502.502 0 0 1-.462.694zm5.689-5.687a.5.5 0 0 1-.191-.038l-3.435-1.423a.502.502 0 0 1 .385-.928l3.434 1.424a.502.502 0 0 1-.194.968zm-3.435-6.618a.504.504 0 0 1-.194-.968l3.435-1.423a.502.502 0 1 1 .385.928l-3.435 1.423a.5.5 0 0 1-.19.038zm-3.676-3.673a.502.502 0 0 1-.463-.694l1.424-3.434a.502.502 0 0 1 .927.384l-1.423 3.435a.5.5 0 0 1-.465.311z"/><path fill="#F5D60C" d="M47.235 21.964a2.764 2.764 0 0 0-2.766-2.766 2.764 2.764 0 0 0 2.765-2.765A2.764 2.764 0 0 0 50 19.198a2.764 2.764 0 0 0-2.766 2.766M20.983 50.338a3.52 3.52 0 0 0-3.52-3.52 3.52 3.52 0 0 0 3.52-3.52 3.52 3.52 0 0 0 3.52 3.52 3.52 3.52 0 0 0-3.52 3.52"/><path fill="#C8D3DD" d="M64.081 27.586h-28.16a6.034 6.034 0 0 0-6.034 6.034v58.332a6.034 6.034 0 0 0 6.034 6.034h28.16a6.034 6.034 0 0 0 6.034-6.034V33.62a6.034 6.034 0 0 0-6.034-6.034"/><path fill="#1B1B1B" d="M64.08 98.992H35.92a7.05 7.05 0 0 1-7.04-7.04V33.62a7.05 7.05 0 0 1 7.04-7.04h28.16a7.05 7.05 0 0 1 7.04 7.04v58.332a7.05 7.05 0 0 1-7.04 7.04m-28.16-70.4a5.034 5.034 0 0 0-5.028 5.028v58.332a5.034 5.034 0 0 0 5.028 5.028h28.16a5.034 5.034 0 0 0 5.029-5.028V33.62a5.034 5.034 0 0 0-5.029-5.028z"/><path fill="#EDF3FB" d="M47.486 30.603H35.921a3.017 3.017 0 0 0-3.018 3.017v11.566a3.017 3.017 0 0 0 3.017 3.017h11.566a3.017 3.017 0 0 0 3.017-3.017V33.62a3.017 3.017 0 0 0-3.017-3.017"/><path fill="#1B1B1B" d="M47.486 49.209H35.92a4.03 4.03 0 0 1-4.023-4.023V33.62a4.03 4.03 0 0 1 4.023-4.023h11.566a4.03 4.03 0 0 1 4.023 4.023v11.566a4.03 4.03 0 0 1-4.023 4.023m-11.566-17.6a2.014 2.014 0 0 0-2.011 2.011v11.566c0 1.109.903 2.011 2.011 2.011h11.566a2.014 2.014 0 0 0 2.012-2.011V33.62a2.014 2.014 0 0 0-2.012-2.011z"/><path fill="#fff" d="M45.726 37.14a1.76 1.76 0 1 0 0-3.52 1.76 1.76 0 0 0 0 3.52"/><path fill="#1B1B1B" d="M45.726 37.518a2.14 2.14 0 0 1-2.137-2.138c0-1.179.958-2.137 2.137-2.137s2.137.958 2.137 2.137-.958 2.137-2.137 2.137m0-3.52c-.762 0-1.383.62-1.383 1.382s.621 1.383 1.383 1.383 1.383-.62 1.383-1.383c0-.762-.621-1.383-1.383-1.383"/><path fill="#939598" d="M37.68 38.146a2.766 2.766 0 1 0 0-5.531 2.766 2.766 0 0 0 0 5.531"/><path fill="#1B1B1B" d="M37.68 38.649a3.27 3.27 0 0 1-3.268-3.269 3.27 3.27 0 0 1 3.268-3.268 3.27 3.27 0 0 1 3.269 3.268 3.27 3.27 0 0 1-3.269 3.269m0-5.532a2.266 2.266 0 0 0-2.263 2.263 2.266 2.266 0 0 0 2.263 2.263 2.266 2.266 0 0 0 2.263-2.263 2.266 2.266 0 0 0-2.263-2.263"/><path fill="#fff" d="M37.68 44.683a1.257 1.257 0 1 0 0-2.514 1.257 1.257 0 0 0 0 2.514"/><path fill="#1B1B1B" d="M37.68 45.06c-.9 0-1.634-.734-1.634-1.634s.734-1.634 1.634-1.634 1.635.734 1.635 1.634-.735 1.634-1.635 1.634m0-2.514a.881.881 0 0 0 0 1.76.881.881 0 0 0 0-1.76"/><path fill="#939598" d="M45.726 46.192a2.766 2.766 0 1 0 0-5.532 2.766 2.766 0 0 0 0 5.532"/><path fill="#1B1B1B" d="M45.726 46.695a3.27 3.27 0 0 1-3.268-3.269 3.27 3.27 0 0 1 3.268-3.269 3.27 3.27 0 0 1 3.269 3.269 3.27 3.27 0 0 1-3.269 3.269m0-5.532a2.266 2.266 0 0 0-2.263 2.263 2.266 2.266 0 0 0 2.263 2.263 2.266 2.266 0 0 0 2.263-2.263 2.266 2.266 0 0 0-2.263-2.263"/><path fill="#BCBEC0" d="M70.114 48.203h.503c.277 0 .503.226.503.503v4.023a.504.504 0 0 1-.503.503h-.503z"/><path fill="#1B1B1B" d="M70.617 53.609h-.88v-5.783h.88a.88.88 0 0 1 .88.88v4.023a.88.88 0 0 1-.88.88m-.125-.755h.125c.07 0 .126-.055.126-.125v-4.023a.124.124 0 0 0-.126-.126h-.125z"/><path fill="#BCBEC0" d="M70.114 54.489h.503c.277 0 .503.226.503.503v4.023a.504.504 0 0 1-.503.502h-.503z"/><path fill="#1B1B1B" d="M70.617 59.894h-.88v-5.782h.88a.88.88 0 0 1 .88.88v4.022a.88.88 0 0 1-.88.88m-.125-.754h.125c.07 0 .126-.055.126-.126v-4.022a.124.124 0 0 0-.126-.126h-.125z"/><path fill="#BCBEC0" d="M29.886 58.26h-.503a.504.504 0 0 1-.502-.503v-9.051c0-.277.226-.503.502-.503h.503z"/><path fill="#1B1B1B" d="M30.263 58.637h-.88a.88.88 0 0 1-.88-.88v-9.051c0-.485.395-.88.88-.88h.88zm-.88-10.057a.124.124 0 0 0-.126.126v9.051c0 .07.055.126.126.126h.126V48.58z"/></g><defs><filter id="a" width="100" height="100" x="0" y=".969" color-interpolation-filters="sRGB" filterUnits="userSpaceOnUse"><feFlood flood-opacity="0" result="BackgroundImageFix"/><feColorMatrix in="SourceAlpha" result="hardAlpha" values="0 0 0 0 0 0 0 0 0 0 0 0 0 0 0 0 0 0 127 0"/><feOffset/><feGaussianBlur stdDeviation="3"/><feComposite in2="hardAlpha" operator="out"/><feColorMatrix values="0 0 0 0 0 0 0 0 0 0 0 0 0 0 0 0 0 0 0.24 0"/><feBlend in2="BackgroundImageFix" result="effect1_dropShadow_10715_6325"/><feBlend in="SourceGraphic" in2="effect1_dropShadow_10715_6325" result="shape"/></filter></defs></svg>