<svg xmlns="http://www.w3.org/2000/svg" width="132" height="141" fill="none" viewBox="0 0 132 141"><rect width="40.491" height="46.969" x="15.387" y="72.883" fill="#D9D9D9" rx="4"/><path fill="#454545" d="M0 58.307h132v82.601H0z"/><path stroke="#fff" stroke-width="3" d="M124.711 125.521v9.718h-9.717M6.479 73.693v-9.717h9.717m0 71.263H6.478v-9.718m108.516-60.736h9.717v9.718"/><path fill="#EBF3FA" stroke="#112E51" stroke-width="2" d="M9.908 67.405h111.374v61.405a3 3 0 0 1-3 3H12.908a3 3 0 0 1-3-3z"/><path fill="url(#a)" stroke="#112E51" stroke-width="2" d="M9.908 4a3 3 0 0 1 3-3h105.374a3 3 0 0 1 3 3v61.405H9.908z"/><rect width="101.227" height="6.479" x="15.387" y="121.472" fill="#A1ABB7" rx="2"/><rect width="57.497" height="5.669" x="59.117" y="72.883" fill="#A1ABB7" rx="1"/><rect width="39.681" height="4.049" x="59.117" y="85.031" fill="#A1ABB7" rx="1"/><rect width="34.012" height="4.049" x="59.117" y="93.939" fill="#A1ABB7" rx="1"/><rect width="18.626" height="4.049" x="59.117" y="102.847" fill="#A1ABB7" rx="1"/><rect width="21.865" height="4.049" x="59.117" y="111.755" fill="#A1ABB7" rx="1"/><rect width="38.061" height="43.73" x="15.387" y="72.883" fill="#F2F9FF" rx="2"/><mask id="b" width="30" height="38" x="19" y="79" maskUnits="userSpaceOnUse" style="mask-type:alpha"><path fill="#fff" d="M37.693 101.398v2.738h.593c5.893 0 10.67 4.8 10.67 10.722v1.34H19.318v-1.34c0-5.922 4.777-10.722 10.67-10.722h.593v-2.738a8.34 8.34 0 0 1-4.697-6.66 1.784 1.784 0 0 1-1.527-1.77v-2.085c0-.885.64-1.62 1.482-1.762v-.918c0-4.606 3.715-8.34 8.298-8.34s8.298 3.734 8.298 8.34v.918a1.785 1.785 0 0 1 1.482 1.762v2.085c0 .901-.664 1.647-1.527 1.77a8.34 8.34 0 0 1-4.697 6.66"/></mask><g mask="url(#b)"><path fill="#D0C6AC" d="M37.693 101.398v2.738h.593c5.893 0 10.67 4.8 10.67 10.722v1.34H19.318v-1.34c0-5.922 4.777-10.722 10.67-10.722h.593v-2.738a8.34 8.34 0 0 1-4.697-6.66 1.784 1.784 0 0 1-1.527-1.77v-2.085c0-.885.64-1.62 1.482-1.762v-.918c0-4.606 3.715-8.34 8.298-8.34s8.298 3.734 8.298 8.34v.918a1.785 1.785 0 0 1 1.482 1.762v2.085c0 .901-.664 1.647-1.527 1.77a8.34 8.34 0 0 1-4.697 6.66"/><path fill="#FFDBB4" d="M53.698 79.864H14.577v36.334h39.12z"/><path fill="#000" fill-opacity=".1" fill-rule="evenodd" d="M42.436 91.628v3.425c0 4.605-3.716 8.339-8.299 8.339s-8.298-3.734-8.298-8.34v-3.424 2.234c0 4.605 3.715 8.339 8.298 8.339s8.299-3.734 8.299-8.34z" clip-rule="evenodd"/></g><mask id="c" width="30" height="13" x="19" y="104" maskUnits="userSpaceOnUse" style="mask-type:alpha"><path fill="#fff" fill-rule="evenodd" d="M39.17 104.18c5.479.451 9.786 5.063 9.786 10.686v1.332H19.318v-1.332c0-5.674 4.385-10.318 9.936-10.697a2 2 0 0 0-.007.168c0 1.766 2.222 3.199 4.964 3.199s4.964-1.433 4.964-3.199q0-.08-.006-.157" clip-rule="evenodd"/></mask><g mask="url(#c)"><path fill="#E6E6E6" fill-rule="evenodd" d="M39.17 104.18c5.479.451 9.786 5.063 9.786 10.686v1.332H19.318v-1.332c0-5.674 4.385-10.318 9.936-10.697a2 2 0 0 0-.007.168c0 1.766 2.222 3.199 4.964 3.199s4.964-1.433 4.964-3.199q0-.08-.006-.157" clip-rule="evenodd"/><path fill="#fff" d="M53.698 99.818H14.577v16.38h39.12z"/><path fill="#000" fill-opacity=".16" d="M34.211 108.568c3.244 0 5.874-1.794 5.874-4.008s-2.63-4.008-5.874-4.008-5.873 1.795-5.873 4.008 2.63 4.008 5.873 4.008" opacity=".6"/></g><path fill="#000" fill-opacity=".6" d="M32.063 96.84c0 .8.912 1.34 2.075 1.34 1.162 0 2.074-.54 2.074-1.34a.3.3 0 0 0-.296-.298c-.192 0-.277.135-.296.298-.185.437-.64.702-1.482.744-.843-.042-1.298-.307-1.482-.744-.02-.163-.105-.298-.297-.298a.3.3 0 0 0-.296.298"/><path fill="#000" fill-opacity=".16" fill-rule="evenodd" d="M32.36 93.862c0 .657.796 1.19 1.778 1.19s1.778-.533 1.778-1.19" clip-rule="evenodd"/><path fill="#000" fill-opacity=".6" d="M30.285 92.075c.49 0 .889-.4.889-.894a.89.89 0 0 0-.89-.893.893.893 0 0 0 .001 1.787m7.705 0c.491 0 .89-.4.89-.894a.89.89 0 0 0-.89-.893c-.49 0-.889.4-.889.893s.398.894.89.894"/><path fill="#000" fill-opacity=".6" fill-rule="evenodd" d="M29.772 87.63c-.86.04-2.251.668-2.215 1.54 0 .028.042.04.063.019.408-.44 3.307-.886 4.328-.65.093.021.164-.071.105-.138-.507-.573-1.51-.808-2.28-.772m8.877.001c.86.04 2.252.668 2.216 1.54-.001.028-.043.04-.063.019-.409-.44-3.307-.886-4.328-.65-.094.021-.165-.071-.105-.138.507-.573 1.509-.808 2.28-.772" clip-rule="evenodd"/><mask id="d" width="40" height="43" x="14" y="74" maskUnits="userSpaceOnUse" style="mask-type:alpha"><path fill="#fff" d="M53.698 74.503H14.577v41.695h39.12z"/></mask><g mask="url(#d)"><path fill="#000" fill-opacity=".16" fill-rule="evenodd" d="M24.658 85.852q2.876-7.39 6.08-7.39c.08 0 4.334-.035 7.12-.054 3.061 1.394 5.17 4.33 5.17 7.727v2.217h-12.29l-.416-3.452-.575 3.452h-5.094v-2.217q0-.143.005-.283" clip-rule="evenodd"/><mask id="e" width="28" height="27" x="20" y="77" maskUnits="userSpaceOnUse" style="mask-type:alpha"><path fill="#fff" fill-rule="evenodd" d="M42.415 87.607q.02.295.02.596v5.658a8.34 8.34 0 0 1-4.741 7.537v1.296c2.689.223 5.293.598 6.816.995 1.475-2.019 3.392-3.901 3.409-7.594.012-2.827-4.102-14.232-5.928-16.53-1.206-1.516-4.252-2.017-7.854-2.084-3.601-.067-6.531.82-7.705 2.234-1.583 1.905-6.089 13.553-6.076 16.38.017 3.693 1.933 5.575 3.408 7.594 1.524-.397 4.128-.772 6.817-.995v-1.296a8.34 8.34 0 0 1-4.742-7.537v-5.658q0-.301.02-.596h4.184l.575-3.193.416 3.193z" clip-rule="evenodd"/></mask><g mask="url(#e)"><path fill="#E6E6E6" fill-rule="evenodd" d="M42.415 87.607q.02.295.02.596v5.658a8.34 8.34 0 0 1-4.741 7.537v1.296c2.689.223 5.293.598 6.816.995 1.475-2.019 3.392-3.901 3.409-7.594.012-2.827-4.102-14.232-5.928-16.53-1.206-1.516-4.252-2.017-7.854-2.084-3.601-.067-6.531.82-7.705 2.234-1.583 1.905-6.089 13.553-6.076 16.38.017 3.693 1.933 5.575 3.408 7.594 1.524-.397 4.128-.772 6.817-.995v-1.296a8.34 8.34 0 0 1-4.742-7.537v-5.658q0-.301.02-.596h4.184l.575-3.193.416 3.193z" clip-rule="evenodd"/><path fill="#E2623A" d="M59.477 77.332H20.356v41.695h39.121z"/></g></g><defs><linearGradient id="a" x1="65.595" x2="65.595" y1="0" y2="66.405" gradientUnits="userSpaceOnUse"><stop stop-color="#EBF3FA"/><stop offset="1" stop-color="#CEDCED"/></linearGradient></defs></svg>