<svg xmlns="http://www.w3.org/2000/svg" width="100" height="100" fill="none" viewBox="0 0 100 100"><g filter="url(#a)"><path fill="#fff" d="M50 94c24.3 0 44-19.7 44-44S74.3 6 50 6 6 25.7 6 50s19.7 44 44 44Z"/></g><path fill="#07819A" d="M50 89.6c21.87 0 39.6-17.73 39.6-39.6S71.87 10.4 50 10.4 10.4 28.13 10.4 50 28.13 89.6 50 89.6Z"/><path fill="#fff" d="M50 85.64c19.683 0 35.64-15.957 35.64-35.64S69.683 14.36 50 14.36 14.36 30.317 14.36 50 30.317 85.64 50 85.64Z"/><mask id="b" width="72" height="72" x="14" y="14" maskUnits="userSpaceOnUse" style="mask-type:alpha"><path fill="#fff" d="M50 85.64c19.683 0 35.64-15.957 35.64-35.64S69.683 14.36 50 14.36 14.36 30.317 14.36 50 30.317 85.64 50 85.64Z"/></mask><g mask="url(#b)"><path fill="#F5D60C" d="M33.511 26.348a.504.504 0 0 1-.503-.503v-8.244a.504.504 0 0 1 1.006 0v8.244a.504.504 0 0 1-.503.503Zm-3.201 1.325a.501.501 0 0 1-.354-.148l-5.83-5.83a.504.504 0 0 1 .711-.712l5.83 5.83a.504.504 0 0 1-.354.86h-.002Zm-1.324 3.201H20.74a.504.504 0 0 1-.503-.503c0-.277.227-.503.503-.503h8.245c.276 0 .503.226.503.503a.504.504 0 0 1-.503.503Zm-4.504 9.029a.504.504 0 0 1-.354-.86l5.83-5.831a.504.504 0 0 1 .712.712l-5.83 5.83a.5.5 0 0 1-.355.149h-.003Zm9.029 3.741a.504.504 0 0 1-.503-.503v-8.244a.504.504 0 0 1 1.006 0v8.244a.504.504 0 0 1-.503.503Zm9.029-3.741a.501.501 0 0 1-.354-.149l-5.83-5.83a.504.504 0 0 1 .71-.712l5.831 5.83a.504.504 0 0 1-.354.86h-.003Zm3.742-9.029h-8.245a.504.504 0 0 1-.503-.503c0-.277.227-.503.503-.503h8.245c.276 0 .503.226.503.503a.504.504 0 0 1-.503.503Zm-9.57-3.201a.504.504 0 0 1-.355-.86l5.831-5.83a.504.504 0 0 1 .712.711l-5.83 5.83a.501.501 0 0 1-.355.149h-.003Z"/><path fill="#CAB32D" d="M30.914 24.603a.504.504 0 0 1-.465-.312l-1.423-3.434a.502.502 0 1 1 .928-.385l1.423 3.435a.502.502 0 0 1-.463.694v.002Zm-3.676 3.674a.518.518 0 0 1-.19-.038l-3.435-1.423a.5.5 0 0 1-.272-.656.5.5 0 0 1 .656-.272l3.435 1.423a.504.504 0 0 1-.194.968v-.002Zm-3.434 6.617a.504.504 0 0 1-.194-.968l3.435-1.423a.502.502 0 0 1 .384.928l-3.434 1.423a.518.518 0 0 1-.191.038v.002Zm5.687 5.687a.5.5 0 0 1-.463-.694l1.424-3.434a.502.502 0 1 1 .927.385l-1.423 3.434a.504.504 0 0 1-.465.312v-.003Zm8.04 0a.504.504 0 0 1-.465-.311l-1.423-3.435a.502.502 0 0 1 .928-.385l1.423 3.435a.502.502 0 0 1-.463.694v.002Zm5.688-5.687a.518.518 0 0 1-.191-.038l-3.435-1.423a.502.502 0 0 1 .385-.927l3.435 1.423a.502.502 0 0 1-.194.968v-.003Zm-3.435-6.617a.504.504 0 0 1-.193-.968l3.434-1.424a.502.502 0 1 1 .385.928l-3.435 1.423a.516.516 0 0 1-.19.038v.003Zm-3.676-3.674a.502.502 0 0 1-.463-.694l1.424-3.434a.502.502 0 1 1 .928.384l-1.423 3.435a.504.504 0 0 1-.465.312v-.003Z"/><path fill="#F5D60C" d="M47.234 20.995a2.764 2.764 0 0 0-2.765-2.765 2.764 2.764 0 0 0 2.765-2.766A2.764 2.764 0 0 0 50 18.23a2.764 2.764 0 0 0-2.766 2.765ZM20.983 49.369a3.52 3.52 0 0 0-3.52-3.52 3.52 3.52 0 0 0 3.52-3.52 3.52 3.52 0 0 0 3.52 3.52 3.52 3.52 0 0 0-3.52 3.52Z"/><path fill="#007187" d="M64.08 26.617H35.92a6.034 6.034 0 0 0-6.034 6.034v58.332a6.034 6.034 0 0 0 6.034 6.034h28.16a6.034 6.034 0 0 0 6.035-6.034V32.65a6.034 6.034 0 0 0-6.035-6.034Z"/><path fill="#1B1B1B" d="M64.08 98.023H35.92a7.048 7.048 0 0 1-7.04-7.04V32.65a7.048 7.048 0 0 1 7.04-7.04h28.16a7.048 7.048 0 0 1 7.04 7.04v58.332a7.048 7.048 0 0 1-7.04 7.04Zm-28.16-70.4a5.034 5.034 0 0 0-5.029 5.028v58.332a5.034 5.034 0 0 0 5.029 5.028h28.16a5.034 5.034 0 0 0 5.029-5.028V32.65a5.034 5.034 0 0 0-5.029-5.028H35.92Z"/><path fill="#07819A" d="M47.486 29.634H35.92a3.017 3.017 0 0 0-3.017 3.017v11.566a3.017 3.017 0 0 0 3.017 3.017h11.566a3.017 3.017 0 0 0 3.017-3.017V32.651a3.017 3.017 0 0 0-3.017-3.017Z"/><path fill="#1B1B1B" d="M47.486 48.24H35.92a4.028 4.028 0 0 1-4.023-4.023V32.651a4.028 4.028 0 0 1 4.023-4.023h11.566a4.028 4.028 0 0 1 4.023 4.023v11.566a4.028 4.028 0 0 1-4.023 4.023ZM35.92 30.64a2.014 2.014 0 0 0-2.011 2.011v11.566c0 1.109.902 2.011 2.011 2.011h11.566a2.014 2.014 0 0 0 2.011-2.01V32.65a2.014 2.014 0 0 0-2.011-2.011H35.92Z"/><path fill="#fff" d="M45.726 36.172a1.76 1.76 0 1 0 0-3.52 1.76 1.76 0 0 0 0 3.52Z"/><path fill="#1B1B1B" d="M45.726 36.549a2.139 2.139 0 0 1-2.137-2.138c0-1.179.958-2.137 2.137-2.137a2.139 2.139 0 0 1 0 4.275Zm0-3.52c-.762 0-1.383.62-1.383 1.382 0 .762.62 1.383 1.383 1.383.762 0 1.383-.62 1.383-1.383 0-.761-.621-1.382-1.383-1.382Z"/><path fill="#939598" d="M37.68 37.177a2.766 2.766 0 1 0 0-5.531 2.766 2.766 0 0 0 0 5.531Z"/><path fill="#1B1B1B" d="M37.68 37.68a3.272 3.272 0 0 1-3.269-3.269 3.272 3.272 0 0 1 3.269-3.268 3.272 3.272 0 0 1 3.269 3.268 3.272 3.272 0 0 1-3.27 3.269Zm0-5.532a2.266 2.266 0 0 0-2.263 2.263 2.266 2.266 0 0 0 2.263 2.263 2.266 2.266 0 0 0 2.263-2.263 2.266 2.266 0 0 0-2.263-2.263Z"/><path fill="#fff" d="M37.68 43.714a1.257 1.257 0 1 0 0-2.514 1.257 1.257 0 0 0 0 2.514Z"/><path fill="#1B1B1B" d="M37.68 44.091c-.9 0-1.634-.734-1.634-1.634 0-.9.734-1.634 1.634-1.634.9 0 1.635.734 1.635 1.634 0 .9-.735 1.634-1.635 1.634Zm0-2.514a.88.88 0 0 0 0 1.76.881.881 0 0 0 0-1.76Z"/><path fill="#939598" d="M45.726 45.223a2.766 2.766 0 1 0 0-5.532 2.766 2.766 0 0 0 0 5.532Z"/><path fill="#1B1B1B" d="M45.726 45.726a3.272 3.272 0 0 1-3.269-3.269 3.272 3.272 0 0 1 3.269-3.269 3.272 3.272 0 0 1 3.268 3.269 3.272 3.272 0 0 1-3.268 3.269Zm0-5.532a2.266 2.266 0 0 0-2.263 2.263 2.266 2.266 0 0 0 2.263 2.263 2.266 2.266 0 0 0 2.263-2.263 2.266 2.266 0 0 0-2.263-2.263Z"/><path fill="#BCBEC0" d="M70.114 47.234h.503c.276 0 .502.227.502.503v4.023a.504.504 0 0 1-.502.503h-.503v-5.029Z"/><path fill="#1B1B1B" d="M70.617 52.64h-.88v-5.783h.88c.485 0 .88.395.88.88v4.023c0 .485-.395.88-.88.88Zm-.126-.754h.126c.07 0 .126-.056.126-.126v-4.023a.124.124 0 0 0-.126-.126h-.126v4.275Z"/><path fill="#BCBEC0" d="M70.114 53.52h.503c.276 0 .502.226.502.503v4.023a.504.504 0 0 1-.502.503h-.503V53.52Z"/><path fill="#1B1B1B" d="M70.617 58.926h-.88v-5.783h.88c.485 0 .88.395.88.88v4.023c0 .485-.395.88-.88.88Zm-.126-.755h.126c.07 0 .126-.055.126-.125v-4.023a.124.124 0 0 0-.126-.126h-.126v4.275Z"/><path fill="#BCBEC0" d="M29.886 57.291h-.503a.504.504 0 0 1-.503-.502v-9.052c0-.276.227-.503.503-.503h.503v10.057Z"/><path fill="#1B1B1B" d="M30.263 57.669h-.88a.88.88 0 0 1-.88-.88v-9.052a.88.88 0 0 1 .88-.88h.88V57.67Zm-.88-10.057a.124.124 0 0 0-.126.125v9.052c0 .07.055.125.126.125h.125v-9.303h-.125Z"/></g><defs><filter id="a" width="100" height="100" x="0" y="0" color-interpolation-filters="sRGB" filterUnits="userSpaceOnUse"><feFlood flood-opacity="0" result="BackgroundImageFix"/><feColorMatrix in="SourceAlpha" result="hardAlpha" values="0 0 0 0 0 0 0 0 0 0 0 0 0 0 0 0 0 0 127 0"/><feOffset/><feGaussianBlur stdDeviation="3"/><feComposite in2="hardAlpha" operator="out"/><feColorMatrix values="0 0 0 0 0 0 0 0 0 0 0 0 0 0 0 0 0 0 0.24 0"/><feBlend in2="BackgroundImageFix" result="effect1_dropShadow_279_8400"/><feBlend in="SourceGraphic" in2="effect1_dropShadow_279_8400" result="shape"/></filter></defs></svg>