<svg xmlns="http://www.w3.org/2000/svg" width="88" height="93" fill="none" viewBox="0 0 88 93"><circle cx="44" cy="49" r="42.5" fill="#F2F9FF" stroke="#A8B6C6" stroke-width="3"/><mask id="a" width="88" height="88" x="0" y="5" maskUnits="userSpaceOnUse" style="mask-type:alpha"><circle cx="44" cy="49" r="42.5" fill="#F2F9FF" stroke="#A8B6C6" stroke-width="3"/></mask><g mask="url(#a)"><rect width="66" height="60" x="11" y="33" fill="#D1DDE7" rx="2"/><rect width="2" height="60" x="10" y="33" fill="#485F7A" rx="1"/><path fill="#112E51" d="M18 58a1 1 0 0 1 1-1h18a1 1 0 0 1 1 1v31H18z"/><path fill="#485F7A" d="M18 66h20v29H18z"/><rect width="20" height="16" x="45" y="53" fill="#fff" rx="1"/><path fill="#F2F9FF" d="M45 54a1 1 0 0 1 1-1h18a1 1 0 0 1 1 1v3H45z"/><path fill="#A8B6C6" d="M45 67h20v1a1 1 0 0 1-1 1H46a1 1 0 0 1-1-1z"/><rect width="5" height="60" x="72" y="33" fill="#A8B6C6" rx="2"/><rect width="2" height="60" x="75" y="33" fill="#485F7A" rx="1"/><g filter="url(#b)"><path fill="#485F7A" d="M15.434 22.052A2 2 0 0 1 17.194 21h52.382a2 2 0 0 1 1.718.976l7.752 13C79.84 36.309 78.88 38 77.328 38h-67.13c-1.514 0-2.48-1.615-1.762-2.948z"/><path stroke="#112E51" stroke-width="2" d="M17.195 22h52.38c.353 0 .68.186.86.488l7.752 13a1 1 0 0 1-.86 1.512h-67.13a1 1 0 0 1-.88-1.474l6.997-13a1 1 0 0 1 .744-.516z"/></g><path fill="#0071BB" d="M12 43h60v5H12z"/><path fill="#E21C3D" d="M12 41h60v1H12z"/><path fill="#205493" d="M75 43h-3v5h3z"/><path fill="#AB142F" d="M75 41h-3v1h3z"/><path fill="#205493" d="M53 72h4a7 7 0 0 1 7 7v12H53z"/><path fill="#0071BB" d="M46 79a7 7 0 1 1 14 0v12H46z"/></g><circle cx="44" cy="49" r="42.5" stroke="#A8B6C6" stroke-width="3"/><g filter="url(#c)"><path fill="#B62025" d="M63.6 5H24.008v26.903H63.6z"/></g><path fill="#E21C3D" stroke="#AB142F" d="M63.1 31.403H24.5V5.978l15.629 11.28a6.26 6.26 0 0 0 3.67 1.185 6.27 6.27 0 0 0 3.672-1.184L63.1 5.978z"/><path fill="#E21C3D" stroke="#AB142F" d="M43.803 17.269c.169 0 .333.052.47.149h.001l18.07 12.691.001.001c.235.164.426.381.559.634.107.205.17.43.192.66H24.517a1.77 1.77 0 0 1 .58-1.162l.166-.133 18.07-12.69v-.001a.8.8 0 0 1 .47-.15Z"/><path fill="#AB142F" d="m24.976 9.457 18.07 12.688a1.31 1.31 0 0 0 1.516 0l18.07-12.688a2.28 2.28 0 0 0 .968-1.864V5H24v2.593a2.28 2.28 0 0 0 .976 1.864"/><path fill="#E11D3F" stroke="#AB142F" d="M43.804 20.01a.8.8 0 0 1-.47-.15L25.262 7.17h-.001a1.78 1.78 0 0 1-.748-1.243l-.014-.212v-.092h38.6v.094a1.77 1.77 0 0 1-.59 1.32l-.166.134-18.07 12.688v.001a.8.8 0 0 1-.47.15Z"/><defs><filter id="b" width="73.137" height="19" x="7.194" y="21" color-interpolation-filters="sRGB" filterUnits="userSpaceOnUse"><feFlood flood-opacity="0" result="BackgroundImageFix"/><feColorMatrix in="SourceAlpha" result="hardAlpha" values="0 0 0 0 0 0 0 0 0 0 0 0 0 0 0 0 0 0 127 0"/><feOffset dy="1"/><feGaussianBlur stdDeviation=".5"/><feComposite in2="hardAlpha" operator="out"/><feColorMatrix values="0 0 0 0 0.0666667 0 0 0 0 0.180392 0 0 0 0 0.317647 0 0 0 0.2 0"/><feBlend in2="BackgroundImageFix" result="effect1_dropShadow_2193_482"/><feBlend in="SourceGraphic" in2="effect1_dropShadow_2193_482" result="shape"/></filter><filter id="c" width="47.592" height="34.903" x="20.008" y="0" color-interpolation-filters="sRGB" filterUnits="userSpaceOnUse"><feFlood flood-opacity="0" result="BackgroundImageFix"/><feColorMatrix in="SourceAlpha" result="hardAlpha" values="0 0 0 0 0 0 0 0 0 0 0 0 0 0 0 0 0 0 127 0"/><feOffset dy="-1"/><feGaussianBlur stdDeviation="2"/><feColorMatrix values="0 0 0 0 0 0 0 0 0 0 0 0 0 0 0 0 0 0 0.25 0"/><feBlend in2="BackgroundImageFix" result="effect1_dropShadow_2193_482"/><feBlend in="SourceGraphic" in2="effect1_dropShadow_2193_482" result="shape"/></filter></defs></svg>