<svg xmlns="http://www.w3.org/2000/svg" width="112" height="108" fill="none" viewBox="0 0 112 108"><circle cx="71" cy="40" r="40" fill="#EBF3FA"/><path fill="#fff" fill-rule="evenodd" d="M82.967 63.41H4.95c-2.162 0-3.915-1.79-3.915-4V20.589c0-2.21 1.753-4 3.914-4h78.018c2.162 0 3.915 1.79 3.915 4V59.41c0 2.209-1.753 4-3.915 4" clip-rule="evenodd"/><path stroke="#112E51" d="M82.967 63.41H4.95c-2.162 0-3.915-1.79-3.915-4V20.589c0-2.21 1.753-4 3.914-4h78.018c2.162 0 3.915 1.79 3.915 4V59.41c0 2.209-1.753 4-3.915 4Z" clip-rule="evenodd"/><path fill="#EBF3FA" fill-rule="evenodd" d="M28.212 58.395H8.102c-.887 0-1.608-.661-1.608-1.476V33.308c0-.815.72-1.476 1.609-1.476h20.109c.888 0 1.609.661 1.609 1.476v23.611c0 .815-.721 1.476-1.61 1.476" clip-rule="evenodd"/><mask id="a" width="20" height="25" x="8" y="34" maskUnits="userSpaceOnUse" style="mask-type:luminance"><path fill="#fff" fill-rule="evenodd" d="M12.573 40.017v.606c-.55.093-.97.577-.97 1.16v1.374c0 .595.434 1.085.999 1.166a5.5 5.5 0 0 0 3.077 4.388v1.804h-.389c-3.86 0-6.987 3.163-6.987 7.065v.882h19.41v-.883c0-3.901-3.13-7.064-6.988-7.064h-.388V48.71a5.49 5.49 0 0 0 3.076-4.388c.565-.081 1-.571 1-1.166v-1.373c0-.584-.42-1.068-.97-1.16v-.607c0-3.033-2.434-5.494-5.435-5.494-3.002 0-5.435 2.46-5.435 5.494" clip-rule="evenodd"/></mask><g mask="url(#a)"><path fill="#C8D3DD" fill-rule="evenodd" d="M1.174 62.572h33.665V30.414H1.174z" clip-rule="evenodd"/></g><path fill="#EBF3FA" d="M56.143 24.719a2 2 0 0 1 2-2H81.48a2 2 0 0 1 2 2v23.338a2 2 0 0 1-2 2H58.143a2 2 0 0 1-2-2z"/><rect width="44.487" height="3.344" x="6.613" y="22.721" fill="#C8D3DD" rx="1.672"/><rect width="16.303" height="3.344" x="34.799" y="30.645" fill="#C8D3DD" rx="1.672"/><rect width="16.303" height="3.344" x="34.799" y="38.57" fill="#C8D3DD" rx="1.672"/><rect width="16.303" height="3.344" x="34.799" y="46.496" fill="#C8D3DD" rx="1.672"/><rect width="12.3" height="3.344" x="34.799" y="55.023" fill="#C8D3DD" rx="1.672"/><rect width="29.972" height="3.344" x="52.568" y="55.023" fill="#C8D3DD" rx="1.672"/><circle cx="69.811" cy="36.39" r="10.944" fill="#0071BB"/><path fill="#fff" d="M69.567 26.53a.255.255 0 0 1 .485 0l2.08 6.405a.25.25 0 0 0 .243.176h6.735c.246 0 .349.316.15.46l-5.45 3.96a.255.255 0 0 0-.092.284L75.8 44.22a.255.255 0 0 1-.391.285l-5.449-3.959a.255.255 0 0 0-.3 0l-5.448 3.959a.255.255 0 0 1-.391-.285l2.08-6.405a.255.255 0 0 0-.092-.285l-5.448-3.958a.255.255 0 0 1 .15-.46h6.734c.11 0 .208-.072.242-.177z"/><circle cx="71.465" cy="40.113" r="40" fill="#EBF3FA"/><path fill="#fff" fill-rule="evenodd" d="M84.76 63.524H5.035a4 4 0 0 1-4-4V20.701a4 4 0 0 1 4-4H84.76a4 4 0 0 1 4 4v38.823a4 4 0 0 1-4 4" clip-rule="evenodd"/><path stroke="#112E51" d="M84.76 63.524H5.035a4 4 0 0 1-4-4V20.701a4 4 0 0 1 4-4H84.76a4 4 0 0 1 4 4v38.823a4 4 0 0 1-4 4Z" clip-rule="evenodd"/><path fill="#EBF3FA" d="M56.143 24.832a2 2 0 0 1 2-2H81.48a2 2 0 0 1 2 2V48.17a2 2 0 0 1-2 2H58.143a2 2 0 0 1-2-2z"/><rect width="44.487" height="3.344" x="6.613" y="22.834" fill="#C8D3DD" rx="1.672"/><rect width="44.487" height="3.344" x="6.613" y="22.834" fill="#C8D3DD" rx="1.672"/><rect width="16.303" height="3.344" x="34.799" y="30.758" fill="#C8D3DD" rx="1.672"/><rect width="16.303" height="3.344" x="34.799" y="38.684" fill="#C8D3DD" rx="1.672"/><rect width="16.303" height="3.344" x="34.799" y="46.609" fill="#C8D3DD" rx="1.672"/><rect width="12.3" height="3.344" x="34.799" y="55.137" fill="#C8D3DD" rx="1.672"/><rect width="29.972" height="3.344" x="52.568" y="55.137" fill="#C8D3DD" rx="1.672"/><circle cx="17.944" cy="44.944" r="10.944" fill="#0071BB"/><path fill="#fff" d="M17.7 35.085a.255.255 0 0 1 .484 0l2.082 6.405a.255.255 0 0 0 .242.176h6.734c.247 0 .35.316.15.46l-5.448 3.96a.25.25 0 0 0-.093.284l2.081 6.405a.255.255 0 0 1-.392.284l-5.448-3.958a.255.255 0 0 0-.3 0l-5.448 3.958a.255.255 0 0 1-.391-.284l2.08-6.405a.255.255 0 0 0-.092-.285l-5.448-3.959a.255.255 0 0 1 .15-.46h6.734c.11 0 .208-.071.242-.176z"/><rect width="54.783" height="68.751" x="45.81" y="29.613" fill="#fff" stroke="#112E51" rx="1.128"/><rect width="54.783" height="68.751" x="34.5" y="37.834" fill="#fff" stroke="#112E51" rx="1.128"/><rect width="22.402" height="2.211" x="39.488" y="43.82" fill="#C8D3DD" rx="1.106"/><rect width="15.789" height="2.211" x="39.488" y="48.592" fill="#C8D3DD" rx="1.106"/><rect width="15.789" height="2.211" x="39.488" y="58.635" fill="#C8D3DD" rx="1.106"/><rect width="15.789" height="2.211" x="39.488" y="82.775" fill="#C8D3DD" rx="1.106"/><rect width="44.76" height="2.211" x="39.488" y="64.67" fill="#C8D3DD" rx="1.106"/><rect width="14.794" height="2.211" x="39.488" y="76.74" fill="#C8D3DD" rx="1.106"/><rect width="28.971" height="2.211" x="55.277" y="76.74" fill="#C8D3DD" rx="1.106"/><rect width="27.474" height="2.211" x="39.488" y="70.705" fill="#C8D3DD" rx="1.106"/><rect width="16.016" height="2.211" x="68.234" y="70.705" fill="#C8D3DD" rx="1.106"/><rect width="12.514" height="2.211" x="71.701" y="43.82" fill="#C8D3DD" rx="1.106"/></svg>