<svg width="131" height="88" viewBox="0 0 131 88" fill="none" xmlns="http://www.w3.org/2000/svg">
<circle cx="87.0895" cy="44.1012" r="43.4527" fill="#EBF3FA"/>
<path fill-rule="evenodd" clip-rule="evenodd" d="M91.495 69.2647H4.88824C2.48857 69.2647 0.542969 67.1355 0.542969 64.5095V18.3568C0.542969 15.7307 2.48857 13.6016 4.88824 13.6016H91.495C93.8947 13.6016 95.8403 15.7307 95.8403 18.3568V64.5095C95.8403 67.1355 93.8947 69.2647 91.495 69.2647" fill="white"/>
<path fill-rule="evenodd" clip-rule="evenodd" d="M91.495 69.2647H4.88824C2.48857 69.2647 0.542969 67.1355 0.542969 64.5095V18.3568C0.542969 15.7307 2.48857 13.6016 4.88824 13.6016H91.495C93.8947 13.6016 95.8403 15.7307 95.8403 18.3568V64.5095C95.8403 67.1355 93.8947 69.2647 91.495 69.2647Z" stroke="#112E51"/>
<path d="M64.4199 39.8495C64.4199 38.8798 65.206 38.0938 66.1757 38.0938H86.6636C87.6333 38.0938 88.4193 38.8798 88.4193 39.8495V60.3374C88.4193 61.3071 87.6333 62.0932 86.6636 62.0932H66.1757C65.206 62.0932 64.4199 61.3071 64.4199 60.3374V39.8495Z" fill="#EBF3FA"/>
<path fill-rule="evenodd" clip-rule="evenodd" d="M26.9885 62.0361H8.98338C8.18827 62.0361 7.54297 61.4568 7.54297 60.7431V40.0547C7.54297 39.341 8.18827 38.7617 8.98338 38.7617H26.9885C27.7836 38.7617 28.4289 39.341 28.4289 40.0547V60.7431C28.4289 61.4568 27.7836 62.0361 26.9885 62.0361Z" fill="#EBF3FA"/>
<mask id="mask0_276_11059" style="mask-type:luminance" maskUnits="userSpaceOnUse" x="9" y="41" width="18" height="22">
<path fill-rule="evenodd" clip-rule="evenodd" d="M12.9876 45.9349V46.4657C12.495 46.5471 12.1191 46.9713 12.1191 47.4827V47.4827V48.6861C12.1191 49.2068 12.508 49.6361 13.0136 49.7074V49.7074C13.1936 51.4099 14.2703 52.8489 15.7683 53.5518V53.5518V55.1327H15.4205C11.9649 55.1327 9.16406 57.904 9.16406 61.3228V61.3228V62.0956H26.5433V61.3228C26.5433 57.904 23.7417 55.1327 20.2869 55.1327V55.1327H19.939V53.5518C21.4371 52.8489 22.5138 51.4099 22.6931 49.7074V49.7074C23.1994 49.6361 23.5883 49.2068 23.5883 48.6861V48.6861V47.4827C23.5883 46.9713 23.2131 46.5471 22.7197 46.4657V46.4657V45.9349C22.7197 43.2767 20.5411 41.1211 17.854 41.1211V41.1211C15.1662 41.1211 12.9876 43.2767 12.9876 45.9349V45.9349Z" fill="white"/>
</mask>
<g mask="url(#mask0_276_11059)">
<path fill-rule="evenodd" clip-rule="evenodd" d="M2.78125 65.6961H32.9239V37.5195H2.78125V65.6961Z" fill="#C8D3DD"/>
</g>
<circle cx="76.4196" cy="50.0954" r="10.0368" fill="#0071BB"/>
<path d="M75.9811 42.4827C76.1184 42.0603 76.716 42.0603 76.8533 42.4827L78.3238 47.0084C78.3852 47.1973 78.5612 47.3252 78.7599 47.3252H83.5184C83.9626 47.3252 84.1473 47.8936 83.7879 48.1547L79.9382 50.9517C79.7775 51.0685 79.7102 51.2754 79.7716 51.4643L81.2421 55.99C81.3793 56.4124 80.8958 56.7637 80.5365 56.5026L76.6867 53.7056C76.526 53.5889 76.3084 53.5889 76.1477 53.7056L72.298 56.5026C71.9386 56.7637 71.4551 56.4124 71.5924 55.99L73.0628 51.4643C73.1242 51.2754 73.057 51.0685 72.8963 50.9517L69.0465 48.1547C68.6872 47.8936 68.8719 47.3252 69.316 47.3252H74.0746C74.2732 47.3252 74.4493 47.1973 74.5107 47.0084L75.9811 42.4827Z" fill="white"/>
<rect x="35.6426" y="38.4023" width="21.0633" height="3.20092" rx="1.60046" fill="#C8D3DD"/>
<rect x="35.6426" y="45.1797" width="21.0633" height="3.20092" rx="1.60046" fill="#C8D3DD"/>
<rect x="35.6426" y="51.957" width="15.8918" height="3.20092" rx="1.60046" fill="#C8D3DD"/>
<rect x="35.6426" y="58.7383" width="15.8918" height="3.20092" rx="1.60046" fill="#C8D3DD"/>
<path d="M15.6286 30.2773H13.5076L11.8626 26.3783H9.81163V30.2773H7.77463V20.1553H12.0446C12.852 20.1553 13.5123 20.2837 14.0256 20.5403C14.539 20.797 14.917 21.154 15.1596 21.6113C15.4023 22.064 15.5236 22.5867 15.5236 23.1793C15.5236 23.7113 15.4396 24.1617 15.2716 24.5303C15.1083 24.8943 14.8913 25.1977 14.6206 25.4403C14.3546 25.683 14.063 25.8813 13.7456 26.0353L15.6286 30.2773ZM11.6806 24.8033C12.2266 24.8033 12.6583 24.6563 12.9756 24.3623C13.2976 24.0683 13.4586 23.6903 13.4586 23.2283C13.4586 22.7617 13.3046 22.393 12.9966 22.1223C12.6886 21.8517 12.299 21.7163 11.8276 21.7163H9.81163V24.8033H11.6806ZM18.6839 27.1273C18.6792 27.496 18.7376 27.818 18.8589 28.0933C18.9802 28.364 19.1552 28.574 19.3839 28.7233C19.6172 28.868 19.8972 28.9403 20.2239 28.9403C20.5739 28.9403 20.8796 28.8657 21.1409 28.7163C21.4069 28.567 21.5912 28.322 21.6939 27.9813H23.5349C23.4556 28.4947 23.2502 28.9333 22.9189 29.2973C22.5922 29.6613 22.1956 29.939 21.7289 30.1303C21.2622 30.3217 20.7769 30.4173 20.2729 30.4173C19.5589 30.4173 18.9289 30.268 18.3829 29.9693C17.8416 29.666 17.4192 29.239 17.1159 28.6883C16.8126 28.1377 16.6609 27.489 16.6609 26.7423C16.6609 26.019 16.7986 25.368 17.0739 24.7893C17.3492 24.206 17.7482 23.7463 18.2709 23.4103C18.7982 23.0697 19.4306 22.8993 20.1679 22.8993C20.9052 22.8993 21.5236 23.0557 22.0229 23.3683C22.5269 23.6763 22.9049 24.108 23.1569 24.6633C23.4136 25.214 23.5419 25.851 23.5419 26.5743V27.1273H18.6839ZM18.6769 25.9093H21.6309C21.6309 25.62 21.5772 25.354 21.4699 25.1113C21.3626 24.8687 21.1992 24.6773 20.9799 24.5373C20.7652 24.3973 20.4946 24.3273 20.1679 24.3273C19.8506 24.3273 19.5799 24.4043 19.3559 24.5583C19.1366 24.7077 18.9686 24.9037 18.8519 25.1463C18.7352 25.389 18.6769 25.6433 18.6769 25.9093ZM27.0199 30.4173C26.5579 30.4173 26.1426 30.331 25.7739 30.1583C25.4053 29.9857 25.1136 29.736 24.8989 29.4093C24.6843 29.078 24.5769 28.6767 24.5769 28.2053C24.5769 27.412 24.8733 26.81 25.4659 26.3993C26.0586 25.984 26.9943 25.7693 28.2729 25.7553L29.1759 25.7413V25.3073C29.1759 24.976 29.0779 24.7217 28.8819 24.5443C28.6906 24.3623 28.3919 24.2737 27.9859 24.2783C27.6873 24.283 27.4026 24.353 27.1319 24.4883C26.8659 24.6237 26.6839 24.8593 26.5859 25.1953H24.8849C24.9129 24.6727 25.0646 24.2433 25.3399 23.9073C25.6153 23.5667 25.9886 23.3147 26.4599 23.1513C26.9359 22.9833 27.4749 22.8993 28.0769 22.8993C28.8189 22.8993 29.4139 22.9927 29.8619 23.1793C30.3099 23.3613 30.6343 23.625 30.8349 23.9703C31.0356 24.311 31.1359 24.717 31.1359 25.1883V30.2773H29.4279L29.2599 29.0313C29.0126 29.554 28.7023 29.9157 28.3289 30.1163C27.9603 30.317 27.5239 30.4173 27.0199 30.4173ZM27.7059 29.0733C27.8926 29.0733 28.0723 29.0407 28.2449 28.9753C28.4223 28.9053 28.5786 28.8143 28.7139 28.7023C28.8539 28.5857 28.9659 28.455 29.0499 28.3103C29.1339 28.1657 29.1759 28.0163 29.1759 27.8623V26.7913L28.4409 26.8053C28.1003 26.81 27.7829 26.852 27.4889 26.9313C27.1949 27.006 26.9569 27.1297 26.7749 27.3023C26.5976 27.475 26.5089 27.7083 26.5089 28.0023C26.5089 28.3383 26.6256 28.602 26.8589 28.7933C27.0923 28.98 27.3746 29.0733 27.7059 29.0733ZM35.2553 30.4033C34.7233 30.4033 34.301 30.3403 33.9883 30.2143C33.6756 30.0883 33.4446 29.9227 33.2953 29.7173C33.146 29.5073 33.0503 29.2763 33.0083 29.0243C32.9663 28.7677 32.9453 28.5087 32.9453 28.2473V19.8753H34.9473V27.9953C34.9473 28.2613 35.0033 28.4783 35.1153 28.6463C35.232 28.8097 35.449 28.91 35.7663 28.9473L36.1093 28.9683V30.2283C35.9693 30.275 35.827 30.3147 35.6823 30.3473C35.5376 30.3847 35.3953 30.4033 35.2553 30.4033ZM40.7238 20.1553H42.7608V30.2773H40.7238V20.1553ZM45.0305 20.1553C45.0818 20.1553 45.2242 20.1553 45.4575 20.1553C45.6955 20.1553 45.9732 20.1553 46.2905 20.1553C46.6125 20.1553 46.9322 20.1577 47.2495 20.1623C47.5715 20.1623 47.8398 20.1647 48.0545 20.1693C49.2818 20.1973 50.2828 20.4167 51.0575 20.8273C51.8322 21.238 52.3992 21.812 52.7585 22.5493C53.1225 23.2867 53.3045 24.1593 53.3045 25.1673C53.3045 26.2173 53.1132 27.125 52.7305 27.8903C52.3478 28.651 51.7622 29.239 50.9735 29.6543C50.1895 30.0697 49.1932 30.2773 47.9845 30.2773H45.0305V20.1553ZM47.0885 21.8073V28.6253H48.0265C48.6052 28.6253 49.1302 28.5133 49.6015 28.2893C50.0775 28.0653 50.4578 27.699 50.7425 27.1903C51.0272 26.6817 51.1695 26.0027 51.1695 25.1533C51.1695 24.3647 51.0435 23.7253 50.7915 23.2353C50.5395 22.7407 50.1802 22.379 49.7135 22.1503C49.2468 21.9217 48.6938 21.8073 48.0545 21.8073H47.0885Z" fill="#112E51"/>
</svg>
