<svg xmlns="http://www.w3.org/2000/svg" width="112" height="81" fill="none" viewBox="0 0 112 81"><circle cx="71.106" cy="40.681" r="40" fill="#EBF3FA"/><path fill="#fff" fill-rule="evenodd" d="M83.073 64.093H5.055c-2.162 0-3.914-1.792-3.914-4V21.27c0-2.21 1.752-4 3.914-4h78.018c2.161 0 3.914 1.79 3.914 4v38.823c0 2.208-1.753 4-3.914 4" clip-rule="evenodd"/><path stroke="#112E51" d="M83.073 64.093H5.055c-2.162 0-3.914-1.792-3.914-4V21.27c0-2.21 1.752-4 3.914-4h78.018c2.161 0 3.914 1.79 3.914 4v38.823c0 2.208-1.753 4-3.914 4Z" clip-rule="evenodd"/><path fill="#EBF3FA" fill-rule="evenodd" d="M28.317 59.077H8.208c-.888 0-1.608-.662-1.608-1.476V33.989c0-.814.72-1.475 1.608-1.475h20.11c.887 0 1.608.66 1.608 1.475v23.612c0 .814-.72 1.476-1.609 1.476" clip-rule="evenodd"/><mask id="a" width="20" height="25" x="8" y="35" maskUnits="userSpaceOnUse" style="mask-type:luminance"><path fill="#fff" fill-rule="evenodd" d="M12.679 40.7v.606c-.55.093-.97.577-.97 1.16v1.374c0 .594.434 1.084.999 1.165a5.5 5.5 0 0 0 3.076 4.388v1.804h-.388c-3.86 0-6.988 3.163-6.988 7.065v.882h19.41v-.882c0-3.902-3.129-7.065-6.987-7.065h-.389v-1.804a5.49 5.49 0 0 0 3.076-4.388c.566-.08 1-.57 1-1.165v-1.374c0-.583-.42-1.067-.97-1.16V40.7c0-3.034-2.433-5.494-5.434-5.494s-5.435 2.46-5.435 5.494" clip-rule="evenodd"/></mask><g mask="url(#a)"><path fill="#C8D3DD" fill-rule="evenodd" d="M1.28 63.254h33.664V31.097H1.28z" clip-rule="evenodd"/></g><path fill="#EBF3FA" d="M56.248 25.401a2 2 0 0 1 2-2h23.338a2 2 0 0 1 2 2V48.74a2 2 0 0 1-2 2H58.248a2 2 0 0 1-2-2z"/><rect width="44.487" height="3.344" x="6.719" y="23.401" fill="#C8D3DD" rx="1.672"/><rect width="16.303" height="3.344" x="34.904" y="31.326" fill="#C8D3DD" rx="1.672"/><rect width="16.303" height="3.344" x="34.904" y="39.251" fill="#C8D3DD" rx="1.672"/><rect width="16.303" height="3.344" x="34.904" y="47.176" fill="#C8D3DD" rx="1.672"/><rect width="12.3" height="3.344" x="34.904" y="55.705" fill="#C8D3DD" rx="1.672"/><rect width="29.972" height="3.344" x="52.674" y="55.705" fill="#C8D3DD" rx="1.672"/><circle cx="69.917" cy="37.07" r="10.944" fill="#0071BB"/><path fill="#fff" d="M69.673 27.211a.255.255 0 0 1 .484 0l2.081 6.405a.255.255 0 0 0 .242.176h6.735c.247 0 .35.316.15.46l-5.449 3.959a.255.255 0 0 0-.092.285l2.08 6.405a.255.255 0 0 1-.39.284l-5.45-3.958a.255.255 0 0 0-.299 0l-5.448 3.958a.255.255 0 0 1-.392-.284l2.081-6.405a.255.255 0 0 0-.092-.285l-5.449-3.959a.255.255 0 0 1 .15-.46h6.735c.11 0 .208-.071.242-.176z"/></svg>