<svg width="100" height="100" viewBox="0 0 100 100" fill="none" xmlns="http://www.w3.org/2000/svg">
<g filter="url(#filter0_d_418_16092)">
<path d="M50 94C74.3005 94 94 74.3005 94 50C94 25.6995 74.3005 6 50 6C25.6995 6 6 25.6995 6 50C6 74.3005 25.6995 94 50 94Z" fill="white"/>
</g>
<path d="M50.0004 89.6C71.8709 89.6 89.6004 71.8705 89.6004 50C89.6004 28.1295 71.8709 10.4 50.0004 10.4C28.1299 10.4 10.4004 28.1295 10.4004 50C10.4004 71.8705 28.1299 89.6 50.0004 89.6Z" fill="#5D8EBA"/>
<path d="M50.0004 85.6399C69.6838 85.6399 85.6404 69.6833 85.6404 49.9999C85.6404 30.3164 69.6838 14.3599 50.0004 14.3599C30.3169 14.3599 14.3604 30.3164 14.3604 49.9999C14.3604 69.6833 30.3169 85.6399 50.0004 85.6399Z" fill="white"/>
<path d="M73.3143 26.974H25.9736V55.3799H73.3143V26.974Z" fill="#EDF3FB"/>
<path d="M74.288 56.3534H25V26.0002H74.288V56.3534ZM26.9473 54.4061H72.3407V27.9475H26.9473V54.4061Z" fill="#EDF3FB"/>
<path d="M77.1066 21.6062H22.896C21.2316 21.6062 19.8789 22.9564 19.8789 24.6233V59.5267H80.1237V24.6233C80.1237 22.9564 78.7735 21.6062 77.1066 21.6062ZM74.4515 55.2373H25.5511V25.8956H74.4515V55.2373Z" fill="#C8D3DD" stroke="#1B1B1B" stroke-width="2" stroke-miterlimit="10"/>
<path d="M87.835 77.534L80.1237 59.5267H19.8789L12.1676 77.534C11.6094 78.8364 12.5648 80.2871 13.9829 80.2871H41.1095L41.8185 74.9518H58.184L58.893 80.2871H86.0197C87.4377 80.2871 88.3932 78.8364 87.835 77.534ZM22.4384 71.1653L24.6359 64.9424H75.3692L77.5641 71.1653H22.4384Z" fill="#C8D3DD" stroke="#1B1B1B" stroke-width="2" stroke-miterlimit="10"/>
<path d="M77.5642 71.1655H22.4385L24.636 64.9426H75.3692L77.5642 71.1655Z" fill="#EDF3FB"/>
<path d="M78.985 72.1711H21.0156L23.9247 63.9368H76.081L78.985 72.1711ZM23.8593 70.1596H76.1413L74.6554 65.9482H25.3452L23.8568 70.1596H23.8593Z" fill="#1B1B1B"/>
<path d="M58.8929 80.0382H41.1094L41.8184 74.9518H58.1839L58.8929 80.0382Z" fill="#EDF3FB"/>
<path d="M60.0473 81.0439H39.9531L40.9412 73.9461H59.0567L60.0473 81.0439ZM42.2638 79.0325H57.7367L57.3067 75.9575H42.6912L42.2612 79.0325H42.2638Z" fill="#1B1B1B"/>
<path d="M8 43.5769C8 42.1537 9.15373 41 10.5769 41H34.4231C35.8463 41 37 42.1537 37 43.5769V90.0769C37 91.5001 35.8463 92.6538 34.4231 92.6538H10.5769C9.15373 92.6538 8 91.5001 8 90.0769V43.5769Z" fill="#C8D3DD" stroke="#1B1B1B" stroke-width="2"/>
<path d="M11.1733 47.1538C11.1733 46.1661 11.974 45.3654 12.9618 45.3654H32.0387C33.0264 45.3654 33.8271 46.1661 33.8271 47.1538V85.3077C33.8271 86.9539 32.4926 88.2885 30.8464 88.2885H14.1541C12.5078 88.2885 11.1733 86.9539 11.1733 85.3077V47.1538Z" fill="#EDF3FB" stroke="#1B1B1B" stroke-width="1.19231"/>
<rect x="18.3266" y="45.3654" width="8.34615" height="2.38462" rx="1.19231" fill="#C8D3DD" stroke="#1B1B1B" stroke-width="1.19231"/>
<defs>
<filter id="filter0_d_418_16092" x="0" y="0" width="100" height="100" filterUnits="userSpaceOnUse" color-interpolation-filters="sRGB">
<feFlood flood-opacity="0" result="BackgroundImageFix"/>
<feColorMatrix in="SourceAlpha" type="matrix" values="0 0 0 0 0 0 0 0 0 0 0 0 0 0 0 0 0 0 127 0" result="hardAlpha"/>
<feOffset/>
<feGaussianBlur stdDeviation="3"/>
<feComposite in2="hardAlpha" operator="out"/>
<feColorMatrix type="matrix" values="0 0 0 0 0 0 0 0 0 0 0 0 0 0 0 0 0 0 0.24 0"/>
<feBlend mode="normal" in2="BackgroundImageFix" result="effect1_dropShadow_418_16092"/>
<feBlend mode="normal" in="SourceGraphic" in2="effect1_dropShadow_418_16092" result="shape"/>
</filter>
</defs>
</svg>
