<svg xmlns="http://www.w3.org/2000/svg" width="100" height="100" fill="none" viewBox="0 0 100 100"><g filter="url(#a)"><path fill="#fff" d="M50 94c24.3 0 44-19.7 44-44S74.3 6 50 6 6 25.7 6 50s19.7 44 44 44Z"/></g><path fill="#5D8EBA" d="M50 89.6c21.87 0 39.6-17.73 39.6-39.6S71.87 10.4 50 10.4 10.4 28.13 10.4 50 28.13 89.6 50 89.6Z"/><path fill="#fff" d="M50 85.64c19.684 0 35.64-15.957 35.64-35.64 0-19.684-15.956-35.64-35.64-35.64-19.683 0-35.64 15.956-35.64 35.64 0 19.683 15.957 35.64 35.64 35.64Z"/><path fill="#EDF3FB" d="M73.314 26.974h-47.34V55.38h47.34V26.974Z"/><path fill="#EDF3FB" d="M74.288 56.353H25V26h49.288v30.353Zm-47.34-1.947H72.34V27.948H26.947v26.458Z"/><path fill="#C8D3DD" stroke="#1B1B1B" stroke-miterlimit="10" stroke-width="2" d="M77.107 21.606H22.896a3.018 3.018 0 0 0-3.017 3.017v34.904h60.245V24.623a3.016 3.016 0 0 0-3.017-3.017ZM74.45 55.237h-48.9V25.896h48.9v29.341Zm13.385 22.297-7.711-18.007H19.879l-7.711 18.007a1.975 1.975 0 0 0 1.815 2.753h27.126l.71-5.335h16.365l.709 5.335H86.02a1.975 1.975 0 0 0 1.815-2.753Zm-65.397-6.369 2.198-6.223h50.733l2.195 6.223H22.438Z"/><path fill="#EDF3FB" d="M77.564 71.165H22.44l2.197-6.222H75.37l2.195 6.222Z"/><path fill="#1B1B1B" d="M78.985 72.171h-57.97l2.91-8.234H76.08l2.904 8.234ZM23.859 70.16h52.282l-1.486-4.212h-49.31l-1.488 4.212h.002Z"/><path fill="#EDF3FB" d="M58.893 80.038H41.109l.71-5.086h16.365l.709 5.086Z"/><path fill="#1B1B1B" d="M60.047 81.044H39.953l.988-7.098h18.116l.99 7.098Zm-17.783-2.011h15.473l-.43-3.076H42.69l-.43 3.076h.003Z"/><path fill="#C8D3DD" stroke="#1B1B1B" stroke-width="2" d="M8 43.577A2.577 2.577 0 0 1 10.577 41h23.846A2.577 2.577 0 0 1 37 43.577v46.5a2.577 2.577 0 0 1-2.577 2.577H10.577A2.577 2.577 0 0 1 8 90.077v-46.5Z"/><path fill="#EDF3FB" stroke="#1B1B1B" stroke-width="1.192" d="M11.173 47.154c0-.988.801-1.789 1.789-1.789h19.077c.987 0 1.788.801 1.788 1.789v38.154a2.98 2.98 0 0 1-2.98 2.98H14.153a2.98 2.98 0 0 1-2.98-2.98V47.154Z"/><rect width="8.346" height="2.385" x="18.327" y="45.365" fill="#C8D3DD" stroke="#1B1B1B" stroke-width="1.192" rx="1.192"/><defs><filter id="a" width="100" height="100" x="0" y="0" color-interpolation-filters="sRGB" filterUnits="userSpaceOnUse"><feFlood flood-opacity="0" result="BackgroundImageFix"/><feColorMatrix in="SourceAlpha" result="hardAlpha" values="0 0 0 0 0 0 0 0 0 0 0 0 0 0 0 0 0 0 127 0"/><feOffset/><feGaussianBlur stdDeviation="3"/><feComposite in2="hardAlpha" operator="out"/><feColorMatrix values="0 0 0 0 0 0 0 0 0 0 0 0 0 0 0 0 0 0 0.24 0"/><feBlend in2="BackgroundImageFix" result="effect1_dropShadow_418_16092"/><feBlend in="SourceGraphic" in2="effect1_dropShadow_418_16092" result="shape"/></filter></defs></svg>