<svg xmlns="http://www.w3.org/2000/svg" width="132" height="228" fill="none" viewBox="0 0 132 228"><path fill="#F2F9FF" stroke="#ADADAD" stroke-dasharray="2 2" d="M.674 180.158a4 4 0 0 1-.598-1.442l.49-.097a3.5 3.5 0 0 1-.066-.683v-1.006H0v-2.011h.5v-2.012H0v-2.011h.5v-2.011H0v-2.011h.5v-2.012H0v-2.011h.5v-2.011H0v-2.011h.5v-2.012H0v-2.011h.5v-2.011H0v-2.011h.5v-2.012H0v-2.011h.5v-2.011H0v-2.011h.5v-2.012H0v-2.011h.5v-2.011H0v-2.011h.5v-2.012H0v-2.011h.5v-2.011H0v-2.011h.5v-2.012H0v-2.011h.5v-2.011H0v-2.011h.5v-2.012H0v-2.011h.5v-2.011H0v-2.011h.5v-2.012H0v-2.011h.5v-2.011H0v-2.011h.5v-2.012H0v-2.01h.5V96.48H0v-2.011h.5v-2.012H0v-2.011h.5v-2.011H0v-2.011h.5v-2.012H0v-2.011h.5V80.39H0v-2.011h.5v-2.012H0v-2.011h.5v-2.011H0v-2.011h.5v-2.012H0v-2.011h.5V64.3H0v-2.011h.5v-2.012H0v-2.011h.5v-2.011H0v-2.012h.5v-2.01H0V50.22h.5v-2.01H0v-2.011h.5v-2.012H0v-2.011h.5v-2.011H0v-2.011h.5v-2.012H0v-2.011h.5V32.12H0v-2.012h.5v-2.01H0v-2.012h.5v-2.011H0v-2.012h.5v-2.01H0V18.04h.5v-2.01H0v-2.012h.5v-2.01H0V9.995h.5v-2.01H0V5.973h.5V4.968q0-.353.067-.684l-.49-.097c.103-.525.31-1.013.597-1.442l.415.278c.256-.381.585-.71.967-.966l-.278-.415a4 4 0 0 1 1.441-.598l.097.49q.332-.065.684-.066h1v-.5h2v.5h2v-.5h2v.5h2v-.5h2v.5h2v-.5h2v.5h2v-.5h2v.5h2v-.5h2v.5h2v-.5h2v.5h2v-.5h2v.5h2v-.5h2v.5h2v-.5h2v.5h2v-.5h2v.5h2v-.5h2v.5h2v-.5h2v.5h2v-.5h2v.5h2v-.5h2v.5h2v-.5h2v.5h2v-.5h2v.5h2v-.5h2v.5h2v-.5h2v.5h2v-.5h2v.5h2v-.5h2v.5h2v-.5h2v.5h2v-.5h2v.5h2v-.5h2v.5h2v-.5h2v.5h2v-.5h2v.5h2v-.5h2v.5h2v-.5h2v.5h2v-.5h2v.5h2v-.5h2v.5h2v-.5h2v.5h1q.352 0 .684.066l.097-.49a4 4 0 0 1 1.441.598l-.278.415c.382.256.711.585.967.966l.415-.278c.288.43.494.917.598 1.442l-.491.097q.067.332.067.684v1.006h.5v2.01h-.5v2.012h.5v2.011h-.5v2.011h.5v2.012h-.5v2.011h.5v2.011h-.5v2.012h.5v2.01h-.5v2.012h.5v2.011h-.5v2.011h.5v2.012h-.5v2.011h.5v2.011h-.5v2.011h.5v2.012h-.5v2.011h.5v2.011h-.5V46.2h.5v2.01h-.5v2.012h.5v2.011h-.5v2.011h.5v2.012h-.5v2.011h.5v2.011h-.5v2.011h.5V64.3h-.5v2.011h.5v2.011h-.5v2.011h.5v2.012h-.5v2.011h.5v2.011h-.5v2.011h.5v2.012h-.5v2.01h.5v2.011h-.5v2.011h.5v2.012h-.5v2.011h.5v2.011h-.5v2.012h.5v2.01h-.5v2.012h.5v2.011h-.5v2.012h.5v2.011h-.5v2.011h.5v2.011h-.5v2.012h.5v2.011h-.5v2.011h.5v2.011h-.5v2.012h.5v2.011h-.5v2.011h.5v2.011h-.5v2.012h.5v2.011h-.5v2.011h.5v2.011h-.5v2.012h.5v2.011h-.5v2.011h.5v2.011h-.5v2.012h.5v2.011h-.5v2.011h.5v2.011h-.5v2.012h.5v2.011h-.5v2.011h.5v2.011h-.5v2.012h.5v2.011h-.5v2.011h.5v2.011h-.5v2.012h.5v2.011h-.5v2.011h.5v2.011h-.5v2.012h.5v2.011h-.5v1.006q0 .351-.067.683l.491.097a4 4 0 0 1-.598 1.442l-.415-.278a3.5 3.5 0 0 1-.967.966l.278.416a4 4 0 0 1-1.441.597l-.097-.49q-.332.066-.684.067h-1v.5h-2v-.5h-2v.5h-2v-.5h-2v.5h-2v-.5h-2v.5h-2v-.5h-2v.5h-2v-.5h-2v.5h-2v-.5h-2v.5h-2v-.5h-2v.5h-2v-.5h-2v.5h-2v-.5h-2v.5h-2v-.5h-2v.5h-2v-.5h-2v.5h-2v-.5h-2v.5h-2v-.5h-2v.5h-2v-.5h-2v.5h-2v-.5h-2v.5h-2v-.5h-2v.5h-2v-.5h-2v.5h-2v-.5h-2v.5h-2v-.5h-2v.5h-2v-.5h-2v.5h-2v-.5h-2v.5h-2v-.5h-2v.5h-2v-.5h-2v.5h-2v-.5h-2v.5h-2v-.5h-2v.5h-2v-.5h-2v.5h-2v-.5h-2v.5h-2v-.5h-2v.5h-2v-.5h-2v.5H9v-.5H7v.5H5v-.5H4q-.352 0-.684-.067l-.097.49a4 4 0 0 1-1.441-.597l.278-.416a3.5 3.5 0 0 1-.967-.966z"/><mask id="b" width="132" height="182" x="0" y="2" maskUnits="userSpaceOnUse" style="mask-type:alpha"><path fill="#F2F9FF" stroke="#ADADAD" stroke-dasharray="2 2" d="M.674 181.942a4 4 0 0 1-.598-1.442l.49-.097a3.5 3.5 0 0 1-.066-.683v-1.006H0v-2.011h.5v-2.012H0v-2.011h.5v-2.011H0v-2.011h.5v-2.012H0v-2.011h.5v-2.011H0v-2.011h.5v-2.012H0v-2.011h.5v-2.011H0v-2.011h.5v-2.011H0v-2.012h.5v-2.011H0v-2.011h.5v-2.011H0V140.5h.5v-2.011H0v-2.011h.5v-2.011H0v-2.012h.5v-2.011H0v-2.011h.5v-2.011H0v-2.012h.5v-2.011H0v-2.011h.5v-2.011H0v-2.012h.5v-2.011H0v-2.011h.5v-2.012H0v-2.011h.5v-2.011H0v-2.011h.5v-2.012H0v-2.011h.5v-2.011H0v-2.011h.5v-2.011H0V92.23h.5v-2.01H0v-2.011h.5v-2.011H0v-2.012h.5v-2.011H0v-2.011h.5V78.15H0v-2.01h.5v-2.012H0v-2.011h.5v-2.012H0v-2.01h.5v-2.012H0v-2.011h.5V62.06H0v-2.01h.5v-2.012H0v-2.011h.5v-2.012H0v-2.01h.5v-2.012H0v-2.011h.5V45.97H0v-2.01h.5v-2.012H0v-2.011h.5v-2.012H0v-2.01h.5v-2.012H0v-2.011h.5V29.88H0v-2.01h.5v-2.012H0v-2.011h.5v-2.012H0v-2.01h.5v-2.012H0v-2.011h.5V13.79H0v-2.01h.5V9.768H0v-2.01h.5V6.752q0-.352.067-.684l-.49-.097A4 4 0 0 1 .673 4.53l.415.279c.256-.382.585-.711.967-.967l-.278-.415a4 4 0 0 1 1.441-.598l.097.49q.332-.065.684-.066h1v-.5h2v.5h2v-.5h2v.5h2v-.5h2v.5h2v-.5h2v.5h2v-.5h2v.5h2v-.5h2v.5h2v-.5h2v.5h2v-.5h2v.5h2v-.5h2v.5h2v-.5h2v.5h2v-.5h2v.5h2v-.5h2v.5h2v-.5h2v.5h2v-.5h2v.5h2v-.5h2v.5h2v-.5h2v.5h2v-.5h2v.5h2v-.5h2v.5h2v-.5h2v.5h2v-.5h2v.5h2v-.5h2v.5h2v-.5h2v.5h2v-.5h2v.5h2v-.5h2v.5h2v-.5h2v.5h2v-.5h2v.5h2v-.5h2v.5h2v-.5h2v.5h2v-.5h2v.5h2v-.5h2v.5h2v-.5h2v.5h1q.352 0 .684.067l.097-.49c.524.103 1.012.31 1.441.597l-.278.415c.382.256.711.585.967.967l.415-.279c.288.43.494.918.598 1.442l-.491.097q.067.332.067.684v1.006h.5V9.77h-.5v2.011h.5v2.011h-.5v2.012h.5v2.011h-.5v2.011h.5v2.012h-.5v2.01h.5v2.012h-.5v2.011h.5v2.011h-.5v2.012h.5v2.01h-.5v2.012h.5v2.011h-.5v2.012h.5v2.01h-.5v2.012h.5v2.011h-.5v2.012h.5v2.01h-.5v2.012h.5v2.011h-.5v2.012h.5v2.01h-.5v2.012h.5v2.011h-.5v2.012h.5v2.01h-.5v2.012h.5v2.011h-.5v2.012h.5v2.01h-.5v2.012h.5v2.011h-.5v2.012h.5v2.01h-.5v2.012h.5v2.011h-.5v2.012h.5v2.011h-.5v2.011h.5v2.011h-.5v2.012h.5v2.011h-.5v2.011h.5v2.011h-.5v2.012h.5v2.011h-.5v2.011h.5v2.011h-.5v2.012h.5v2.011h-.5v2.011h.5v2.012h-.5v2.011h.5v2.011h-.5v2.011h.5v2.012h-.5v2.011h.5v2.011h-.5v2.011h.5v2.012h-.5v2.011h.5v2.011h-.5v2.011h.5v2.012h-.5v2.011h.5v2.011h-.5v2.011h.5v2.012h-.5v2.011h.5v2.011h-.5v2.011h.5v2.012h-.5v2.011h.5v2.011h-.5v2.011h.5v2.012h-.5v2.011h.5v2.011h-.5v2.011h.5v2.012h-.5v2.011h.5v2.011h-.5v1.006q0 .352-.067.683l.491.097a4 4 0 0 1-.598 1.442l-.415-.278a3.5 3.5 0 0 1-.967.967l.278.415a4 4 0 0 1-1.441.598l-.097-.491q-.332.066-.684.067h-1v.5h-2v-.5h-2v.5h-2v-.5h-2v.5h-2v-.5h-2v.5h-2v-.5h-2v.5h-2v-.5h-2v.5h-2v-.5h-2v.5h-2v-.5h-2v.5h-2v-.5h-2v.5h-2v-.5h-2v.5h-2v-.5h-2v.5h-2v-.5h-2v.5h-2v-.5h-2v.5h-2v-.5h-2v.5h-2v-.5h-2v.5h-2v-.5h-2v.5h-2v-.5h-2v.5h-2v-.5h-2v.5h-2v-.5h-2v.5h-2v-.5h-2v.5h-2v-.5h-2v.5h-2v-.5h-2v.5h-2v-.5h-2v.5h-2v-.5h-2v.5h-2v-.5h-2v.5h-2v-.5h-2v.5h-2v-.5h-2v.5h-2v-.5h-2v.5h-2v-.5h-2v.5h-2v-.5h-2v.5H9v-.5H7v.5H5v-.5H4q-.352 0-.684-.067l-.097.491a4 4 0 0 1-1.441-.598l.278-.415a3.5 3.5 0 0 1-.967-.967z"/></mask><g clip-path="url(#a)" mask="url(#b)"><path fill="#D0C6AC" d="M81.909 123.733v12.213h2.664c26.488 0 47.96 21.41 47.96 47.819v5.978H-.688v-5.978c0-26.409 21.472-47.819 47.96-47.819h2.664v-12.213C38.454 118.295 30.2 107.18 28.824 94.026c-3.88-.547-6.865-3.872-6.865-7.891v-9.299c0-3.949 2.881-7.227 6.661-7.86v-4.094c0-20.541 16.701-37.193 37.302-37.193 20.602 0 37.302 16.652 37.302 37.193v4.095c3.781.632 6.661 3.91 6.661 7.86v9.298c0 4.02-2.984 7.344-6.864 7.89-1.377 13.155-9.63 24.27-21.112 29.708"/><mask id="c" width="134" height="163" x="-1" y="27" maskUnits="userSpaceOnUse" style="mask-type:luminance"><path fill="#fff" d="M81.909 123.733v12.213h2.664c26.488 0 47.96 21.41 47.96 47.819v5.978H-.688v-5.978c0-26.409 21.472-47.819 47.96-47.819h2.664v-12.213C38.454 118.295 30.2 107.18 28.824 94.026c-3.88-.547-6.865-3.872-6.865-7.891v-9.299c0-3.949 2.881-7.227 6.661-7.86v-4.094c0-20.541 16.701-37.193 37.302-37.193 20.602 0 37.302 16.652 37.302 37.193v4.095c3.781.632 6.661 3.91 6.661 7.86v9.298c0 4.02-2.984 7.344-6.864 7.89-1.377 13.155-9.63 24.27-21.112 29.708"/></mask><g mask="url(#c)"><path fill="#D08B5B" d="M175.164 27.689H-.688v185.963h175.852z"/></g><mask id="d" width="134" height="163" x="-1" y="27" maskUnits="userSpaceOnUse" style="mask-type:luminance"><path fill="#fff" d="M81.909 123.733v12.213h2.664c26.488 0 47.96 21.41 47.96 47.819v5.978H-.688v-5.978c0-26.409 21.472-47.819 47.96-47.819h2.664v-12.213C38.454 118.295 30.2 107.18 28.824 94.026c-3.88-.547-6.865-3.872-6.865-7.891v-9.299c0-3.949 2.881-7.227 6.661-7.86v-4.094c0-20.541 16.701-37.193 37.302-37.193 20.602 0 37.302 16.652 37.302 37.193v4.095c3.781.632 6.661 3.91 6.661 7.86v9.298c0 4.02-2.984 7.344-6.864 7.89-1.377 13.155-9.63 24.27-21.112 29.708"/></mask><g mask="url(#d)"><path fill="#000" fill-opacity=".1" fill-rule="evenodd" d="M103.224 80.157v15.276c0 20.541-16.7 37.192-37.302 37.192-20.601 0-37.302-16.651-37.302-37.192V80.157v9.963c0 20.54 16.701 37.192 37.302 37.192 20.602 0 37.302-16.652 37.302-37.192z" clip-rule="evenodd"/></g><path fill="#B7C1DB" fill-rule="evenodd" d="M49.936 125.367c-11.936 1.331-21.13 4.968-21.313 14.328C11.4 146.95-.688 163.95-.688 183.765v5.978h133.221v-5.978c0-19.815-12.088-36.815-29.312-44.07-.183-9.36-9.376-12.997-21.312-14.328v12.572c0 8.803-7.158 15.939-15.987 15.939s-15.986-7.136-15.986-15.939z" clip-rule="evenodd"/><mask id="e" width="134" height="65" x="-1" y="125" maskUnits="userSpaceOnUse" style="mask-type:luminance"><path fill="#fff" fill-rule="evenodd" d="M49.936 125.367c-11.936 1.331-21.13 4.968-21.313 14.328C11.4 146.95-.688 163.95-.688 183.765v5.978h133.221v-5.978c0-19.815-12.088-36.815-29.312-44.07-.183-9.36-9.376-12.997-21.312-14.328v12.572c0 8.803-7.158 15.939-15.987 15.939s-15.986-7.136-15.986-15.939z" clip-rule="evenodd"/></mask><g mask="url(#e)"><path fill="#5199E4" d="M153.848 116.686H-22.004v73.057h175.852z"/></g><mask id="f" width="134" height="65" x="-1" y="125" maskUnits="userSpaceOnUse" style="mask-type:luminance"><path fill="#fff" fill-rule="evenodd" d="M49.936 125.367c-11.936 1.331-21.13 4.968-21.313 14.328C11.4 146.95-.688 163.95-.688 183.765v5.978h133.221v-5.978c0-19.815-12.088-36.815-29.312-44.07-.183-9.36-9.376-12.997-21.312-14.328v12.572c0 8.803-7.158 15.939-15.987 15.939s-15.986-7.136-15.986-15.939z" clip-rule="evenodd"/></mask><g mask="url(#f)"><path fill="#F4F4F4" fill-rule="evenodd" d="M45.94 157.69v32.052h-4.664v-34.436a43 43 0 0 0 4.663 2.384m44.628-2.384v26.799a2.33 2.33 0 0 1-2.331 2.324 2.33 2.33 0 0 1-2.332-2.324V157.69a43 43 0 0 0 4.663-2.384" clip-rule="evenodd"/></g><mask id="g" width="134" height="65" x="-1" y="125" maskUnits="userSpaceOnUse" style="mask-type:luminance"><path fill="#fff" fill-rule="evenodd" d="M49.936 125.367c-11.936 1.331-21.13 4.968-21.313 14.328C11.4 146.95-.688 163.95-.688 183.765v5.978h133.221v-5.978c0-19.815-12.088-36.815-29.312-44.07-.183-9.36-9.376-12.997-21.312-14.328v12.572c0 8.803-7.158 15.939-15.987 15.939s-15.986-7.136-15.986-15.939z" clip-rule="evenodd"/></mask><g mask="url(#g)"><path fill="#000" fill-opacity=".16" fill-rule="evenodd" d="M38.586 125.137c-10.026 1.89-16.96 5.657-16.96 13.006 0 13.092 22.007 23.705 44.296 23.705 22.29 0 44.296-10.613 44.296-23.705 0-7.349-6.933-11.116-16.959-13.006 6.052 2.225 9.965 5.965 9.965 12.189 0 13.543-18.532 24.522-37.302 24.522S28.62 150.869 28.62 137.326c0-6.224 3.914-9.964 9.966-12.189" clip-rule="evenodd"/></g><path fill="#000" fill-opacity=".7" d="M71.917 104.731h-11.99a1.995 1.995 0 0 0-1.998 1.992c0 1.101.895 1.993 1.998 1.993h11.99a1.995 1.995 0 0 0 1.999-1.993c0-1.1-.895-1.992-1.999-1.992"/><path fill="#000" fill-opacity=".16" fill-rule="evenodd" d="M57.93 90.12c0 2.934 3.578 5.313 7.992 5.313 4.415 0 7.994-2.379 7.994-5.313" clip-rule="evenodd"/><path fill="#000" fill-opacity=".6" d="M48.604 82.15a3.99 3.99 0 0 0 3.996-3.985 3.99 3.99 0 0 0-3.996-3.985 3.99 3.99 0 0 0-3.997 3.985 3.99 3.99 0 0 0 3.997 3.984m34.637.001a3.99 3.99 0 0 0 3.997-3.985 3.99 3.99 0 0 0-3.997-3.985 3.99 3.99 0 0 0-3.997 3.985 3.99 3.99 0 0 0 3.997 3.984M39.032 69.636c2.608-3.659 9.757-5.71 15.915-4.203a1.328 1.328 0 1 0 .635-2.58c-7.151-1.75-15.43.625-18.722 5.244a1.326 1.326 0 0 0 .314 1.852c.6.425 1.432.285 1.858-.313m53.781 0c-2.608-3.659-9.757-5.71-15.915-4.203a1.328 1.328 0 1 1-.636-2.58c7.152-1.75 15.43.625 18.723 5.244a1.326 1.326 0 0 1-.314 1.852c-.6.425-1.432.285-1.858-.313"/><mask id="h" width="177" height="187" x="-23" y="3" maskUnits="userSpaceOnUse" style="mask-type:luminance"><path fill="#fff" d="M153.848 3.78H-22.004v185.963h175.852z"/></mask><g mask="url(#h)"><path fill="#272C2E" fill-rule="evenodd" d="M17.963 118.373V59.599c0-2.346.265-4.63.767-6.824 2.034-13.31 9.74-23.884 18.55-30.4 13.258-9.802 35.598-12.63 43.328-.981 5.763-2.551 14.303-.226 20.618 5.63 6.371 6.254 11.457 20.056 8.431 31.351q.105 1.26.105 2.549v14.512a7.99 7.99 0 0 0-6.538-6.46v-.11C99.204 54.563 87.391 48 80.197 41.488c-11.254 12.55-46.366 12.594-58.238 37.34v6.642c0 3.998 2.952 7.308 6.8 7.882 1.162 13.447 9.5 24.85 21.177 30.381v.258c1.952 29.127-4.424 65.617-45.961 54.461 9.062-5.288 13.86-39.148 13.988-60.079m63.946 5.36c11.677-5.531 20.015-16.934 21.176-30.381a7.99 7.99 0 0 0 6.677-6.482v.905a66.26 66.26 0 0 0 7.303 30.235l17.95 35.005c4.638 9.046 3.277 19.575-2.622 27.077-1.881-24.694-22.572-44.146-47.82-44.146H81.91z" clip-rule="evenodd"/><mask id="i" width="135" height="168" x="3" y="13" maskUnits="userSpaceOnUse" style="mask-type:luminance"><path fill="#fff" fill-rule="evenodd" d="M17.963 118.373V59.599c0-2.346.265-4.63.767-6.824 2.034-13.31 9.74-23.884 18.55-30.4 13.258-9.802 35.598-12.63 43.328-.981 5.763-2.551 14.303-.226 20.618 5.63 6.371 6.254 11.457 20.056 8.431 31.351q.105 1.26.105 2.549v14.512a7.99 7.99 0 0 0-6.538-6.46v-.11C99.204 54.563 87.391 48 80.197 41.488c-11.254 12.55-46.366 12.594-58.238 37.34v6.642c0 3.998 2.952 7.308 6.8 7.882 1.162 13.447 9.5 24.85 21.177 30.381v.258c1.952 29.127-4.424 65.617-45.961 54.461 9.062-5.288 13.86-39.148 13.988-60.079m63.946 5.36c11.677-5.531 20.015-16.934 21.176-30.381a7.99 7.99 0 0 0 6.677-6.482v.905a66.26 66.26 0 0 0 7.303 30.235l17.95 35.005c4.638 9.046 3.277 19.575-2.622 27.077-1.881-24.694-22.572-44.146-47.82-44.146H81.91z" clip-rule="evenodd"/></mask><g mask="url(#i)"><path fill="#4A312C" d="M179.826 13.742H3.975v185.963h175.851z"/></g><path fill="#000" fill-opacity=".16" fill-rule="evenodd" d="M21.96 78.829c11.87-21.476 46.982-21.514 58.236-32.406 7.179 5.639 18.958 10.001 23.003 22.356-4.045-14.243-15.824-20.794-23.003-27.291-11.254 12.55-46.366 12.594-58.238 37.34" clip-rule="evenodd"/></g></g><path fill="#F2F9FF" stroke="#ADADAD" stroke-dasharray="2 2" d="M.674 186.577a4 4 0 0 1-.598-1.442l.49-.097a3.5 3.5 0 0 1-.066-.683v-.997H0v-1.993h.5v-1.992H0v-1.993h.5v-1.993H0v-1.993h.5v-1.993H0v-1.993h.5v-1.992H0v-1.993h.5v-1.993H0v-1.993h.5v-1.993H0v-1.993h.5v-1.992H0v-1.993h.5v-1.993H0v-1.993h.5v-1.993H0v-1.992h.5v-1.993H0v-1.993h.5v-1.993H0v-1.993h.5v-1.993H0v-1.992h.5v-1.993H0v-1.993h.5v-1.993H0v-1.993h.5v-1.993H0v-1.992h.5v-1.993H0v-1.993h.5v-1.993H0v-1.993h.5v-1.993H0v-1.992h.5v-1.993H0v-1.993h.5v-1.993H0v-1.993h.5v-1.993H0v-1.992h.5v-1.993H0V93.68h.5v-1.993H0v-1.993h.5v-1.992H0V85.71h.5v-1.993H0v-1.993h.5v-1.993H0v-1.993h.5v-1.992H0v-1.993h.5V71.76H0v-1.993h.5v-1.993H0v-1.993h.5v-1.993H0v-1.992h.5v-1.993H0V57.81h.5v-1.993H0v-1.993h.5v-1.992H0v-1.993h.5v-1.993H0v-1.993h.5V43.86H0v-1.993h.5v-1.992H0v-1.993h.5v-1.993H0v-1.993h.5v-1.993H0V29.91h.5v-1.992H0v-1.993h.5v-1.993H0v-1.993h.5v-1.993H0v-1.993h.5v-1.992H0v-1.993h.5v-1.993H0V9.982h.5V7.99H0V5.996h.5V5q0-.352.067-.684l-.49-.097c.103-.524.31-1.012.597-1.441l.415.278c.256-.382.585-.711.967-.967l-.278-.415a4 4 0 0 1 1.441-.598l.097.49Q3.648 1.502 4 1.5h1V1h2v.5h2V1h2v.5h2V1h2v.5h2V1h2v.5h2V1h2v.5h2V1h2v.5h2V1h2v.5h2V1h2v.5h2V1h2v.5h2V1h2v.5h2V1h2v.5h2V1h2v.5h2V1h2v.5h2V1h2v.5h2V1h2v.5h2V1h2v.5h2V1h2v.5h2V1h2v.5h2V1h2v.5h2V1h2v.5h2V1h2v.5h2V1h2v.5h2V1h2v.5h2V1h2v.5h2V1h2v.5h2V1h2v.5h2V1h2v.5h2V1h2v.5h2V1h2v.5h2V1h2v.5h2V1h2v.5h1q.352 0 .684.067l.097-.49c.524.103 1.012.31 1.441.597l-.278.415c.382.256.711.585.967.967l.415-.278c.288.429.494.917.598 1.441l-.491.097q.067.332.067.684v.997h.5v1.992h-.5v1.993h.5v1.993h-.5v1.993h.5v1.993h-.5v1.993h.5v1.992h-.5v1.993h.5v1.993h-.5v1.993h.5v1.993h-.5v1.992h.5v1.993h-.5v1.993h.5v1.993h-.5v1.993h.5v1.993h-.5v1.992h.5v1.993h-.5v1.993h.5v1.993h-.5v1.993h.5v1.993h-.5v1.992h.5v1.993h-.5v1.993h.5v1.993h-.5v1.993h.5v1.993h-.5v1.992h.5v1.993h-.5v1.993h.5v1.993h-.5v1.993h.5v1.993h-.5v1.992h.5v1.993h-.5v1.993h.5v1.993h-.5v1.993h.5v1.993h-.5v1.992h.5v1.993h-.5v1.993h.5v1.993h-.5v1.993h.5v1.992h-.5v1.993h.5v1.993h-.5v1.993h.5v1.993h-.5v1.993h.5v1.992h-.5v1.993h.5v1.993h-.5v1.993h.5v1.993h-.5v1.993h.5v1.992h-.5v1.993h.5v1.993h-.5v1.993h.5v1.993h-.5v1.993h.5v1.992h-.5v1.993h.5v1.993h-.5v1.993h.5v1.993h-.5v1.993h.5v1.992h-.5v1.993h.5v1.993h-.5v1.993h.5v1.993h-.5v1.993h.5v1.992h-.5v1.993h.5v1.993h-.5v1.993h.5v1.993h-.5v1.993h.5v1.992h-.5v1.993h.5v1.993h-.5v1.993h.5v1.993h-.5v1.993h.5v1.992h-.5v.997q0 .352-.067.683l.491.097a4 4 0 0 1-.598 1.442l-.415-.278a3.5 3.5 0 0 1-.967.967l.278.415a4 4 0 0 1-1.441.598l-.097-.491q-.332.067-.684.067h-1v.5h-2v-.5h-2v.5h-2v-.5h-2v.5h-2v-.5h-2v.5h-2v-.5h-2v.5h-2v-.5h-2v.5h-2v-.5h-2v.5h-2v-.5h-2v.5h-2v-.5h-2v.5h-2v-.5h-2v.5h-2v-.5h-2v.5h-2v-.5h-2v.5h-2v-.5h-2v.5h-2v-.5h-2v.5h-2v-.5h-2v.5h-2v-.5h-2v.5h-2v-.5h-2v.5h-2v-.5h-2v.5h-2v-.5h-2v.5h-2v-.5h-2v.5h-2v-.5h-2v.5h-2v-.5h-2v.5h-2v-.5h-2v.5h-2v-.5h-2v.5h-2v-.5h-2v.5h-2v-.5h-2v.5h-2v-.5h-2v.5h-2v-.5h-2v.5h-2v-.5h-2v.5h-2v-.5h-2v.5H9v-.5H7v.5H5v-.5H4q-.352 0-.684-.067l-.097.491a4 4 0 0 1-1.441-.598l.278-.415a3.5 3.5 0 0 1-.967-.967z"/><mask id="j" width="132" height="188" x="0" y="1" maskUnits="userSpaceOnUse" style="mask-type:alpha"><path fill="#F2F9FF" stroke="#ADADAD" stroke-dasharray="2 2" d="M.674 186.577a4 4 0 0 1-.598-1.442l.49-.097a3.5 3.5 0 0 1-.066-.683v-.997H0v-1.993h.5v-1.992H0v-1.993h.5v-1.993H0v-1.993h.5v-1.993H0v-1.993h.5v-1.992H0v-1.993h.5v-1.993H0v-1.993h.5v-1.993H0v-1.993h.5v-1.992H0v-1.993h.5v-1.993H0v-1.993h.5v-1.993H0v-1.992h.5v-1.993H0v-1.993h.5v-1.993H0v-1.993h.5v-1.993H0v-1.992h.5v-1.993H0v-1.993h.5v-1.993H0v-1.993h.5v-1.993H0v-1.992h.5v-1.993H0v-1.993h.5v-1.993H0v-1.993h.5v-1.993H0v-1.992h.5v-1.993H0v-1.993h.5v-1.993H0v-1.993h.5v-1.993H0v-1.992h.5v-1.993H0V93.68h.5v-1.993H0v-1.993h.5v-1.992H0V85.71h.5v-1.993H0v-1.993h.5v-1.993H0v-1.993h.5v-1.992H0v-1.993h.5V71.76H0v-1.993h.5v-1.993H0v-1.993h.5v-1.993H0v-1.992h.5v-1.993H0V57.81h.5v-1.993H0v-1.993h.5v-1.992H0v-1.993h.5v-1.993H0v-1.993h.5V43.86H0v-1.993h.5v-1.992H0v-1.993h.5v-1.993H0v-1.993h.5v-1.993H0V29.91h.5v-1.992H0v-1.993h.5v-1.993H0v-1.993h.5v-1.993H0v-1.993h.5v-1.992H0v-1.993h.5v-1.993H0V9.982h.5V7.99H0V5.996h.5V5q0-.352.067-.684l-.49-.097c.103-.524.31-1.012.597-1.441l.415.278c.256-.382.585-.711.967-.967l-.278-.415a4 4 0 0 1 1.441-.598l.097.49Q3.648 1.502 4 1.5h1V1h2v.5h2V1h2v.5h2V1h2v.5h2V1h2v.5h2V1h2v.5h2V1h2v.5h2V1h2v.5h2V1h2v.5h2V1h2v.5h2V1h2v.5h2V1h2v.5h2V1h2v.5h2V1h2v.5h2V1h2v.5h2V1h2v.5h2V1h2v.5h2V1h2v.5h2V1h2v.5h2V1h2v.5h2V1h2v.5h2V1h2v.5h2V1h2v.5h2V1h2v.5h2V1h2v.5h2V1h2v.5h2V1h2v.5h2V1h2v.5h2V1h2v.5h2V1h2v.5h2V1h2v.5h2V1h2v.5h1q.352 0 .684.067l.097-.49c.524.103 1.012.31 1.441.597l-.278.415c.382.256.711.585.967.967l.415-.278c.288.429.494.917.598 1.441l-.491.097q.067.332.067.684v.997h.5v1.992h-.5v1.993h.5v1.993h-.5v1.993h.5v1.993h-.5v1.993h.5v1.992h-.5v1.993h.5v1.993h-.5v1.993h.5v1.993h-.5v1.992h.5v1.993h-.5v1.993h.5v1.993h-.5v1.993h.5v1.993h-.5v1.992h.5v1.993h-.5v1.993h.5v1.993h-.5v1.993h.5v1.993h-.5v1.992h.5v1.993h-.5v1.993h.5v1.993h-.5v1.993h.5v1.993h-.5v1.992h.5v1.993h-.5v1.993h.5v1.993h-.5v1.993h.5v1.993h-.5v1.992h.5v1.993h-.5v1.993h.5v1.993h-.5v1.993h.5v1.993h-.5v1.992h.5v1.993h-.5v1.993h.5v1.993h-.5v1.993h.5v1.992h-.5v1.993h.5v1.993h-.5v1.993h.5v1.993h-.5v1.993h.5v1.992h-.5v1.993h.5v1.993h-.5v1.993h.5v1.993h-.5v1.993h.5v1.992h-.5v1.993h.5v1.993h-.5v1.993h.5v1.993h-.5v1.993h.5v1.992h-.5v1.993h.5v1.993h-.5v1.993h.5v1.993h-.5v1.993h.5v1.992h-.5v1.993h.5v1.993h-.5v1.993h.5v1.993h-.5v1.993h.5v1.992h-.5v1.993h.5v1.993h-.5v1.993h.5v1.993h-.5v1.993h.5v1.992h-.5v1.993h.5v1.993h-.5v1.993h.5v1.993h-.5v1.993h.5v1.992h-.5v.997q0 .352-.067.683l.491.097a4 4 0 0 1-.598 1.442l-.415-.278a3.5 3.5 0 0 1-.967.967l.278.415a4 4 0 0 1-1.441.598l-.097-.491q-.332.067-.684.067h-1v.5h-2v-.5h-2v.5h-2v-.5h-2v.5h-2v-.5h-2v.5h-2v-.5h-2v.5h-2v-.5h-2v.5h-2v-.5h-2v.5h-2v-.5h-2v.5h-2v-.5h-2v.5h-2v-.5h-2v.5h-2v-.5h-2v.5h-2v-.5h-2v.5h-2v-.5h-2v.5h-2v-.5h-2v.5h-2v-.5h-2v.5h-2v-.5h-2v.5h-2v-.5h-2v.5h-2v-.5h-2v.5h-2v-.5h-2v.5h-2v-.5h-2v.5h-2v-.5h-2v.5h-2v-.5h-2v.5h-2v-.5h-2v.5h-2v-.5h-2v.5h-2v-.5h-2v.5h-2v-.5h-2v.5h-2v-.5h-2v.5h-2v-.5h-2v.5h-2v-.5h-2v.5h-2v-.5h-2v.5H9v-.5H7v.5H5v-.5H4q-.352 0-.684-.067l-.097.491a4 4 0 0 1-1.441-.598l.278-.415a3.5 3.5 0 0 1-.967-.967z"/></mask><g mask="url(#j)"><g clip-path="url(#k)"><path fill="#D0C6AC" d="M81.909 123.766v12.213h2.664c26.488 0 47.96 21.409 47.96 47.819v5.977H-.688v-5.977c0-26.41 21.472-47.819 47.96-47.819h2.664v-12.213c-11.482-5.439-19.735-16.554-21.112-29.708-3.88-.547-6.865-3.871-6.865-7.89v-9.299c0-3.949 2.881-7.227 6.662-7.86v-4.095c0-20.54 16.7-37.192 37.301-37.192s37.302 16.651 37.302 37.192v4.096c3.781.632 6.661 3.91 6.661 7.86v9.297c0 4.02-2.984 7.344-6.864 7.891-1.377 13.154-9.63 24.269-21.112 29.708"/><mask id="l" width="134" height="163" x="-1" y="27" maskUnits="userSpaceOnUse" style="mask-type:luminance"><path fill="#fff" d="M81.909 123.766v12.213h2.664c26.488 0 47.96 21.409 47.96 47.819v5.977H-.688v-5.977c0-26.41 21.472-47.819 47.96-47.819h2.664v-12.213c-11.482-5.439-19.735-16.554-21.112-29.708-3.88-.547-6.865-3.871-6.865-7.89v-9.299c0-3.949 2.881-7.227 6.662-7.86v-4.095c0-20.54 16.7-37.192 37.301-37.192s37.302 16.651 37.302 37.192v4.096c3.781.632 6.661 3.91 6.661 7.86v9.297c0 4.02-2.984 7.344-6.864 7.891-1.377 13.154-9.63 24.269-21.112 29.708"/></mask><g mask="url(#l)"><path fill="#D08B5B" d="M175.164 27.722H-.688v185.963h175.852z"/></g><mask id="m" width="134" height="163" x="-1" y="27" maskUnits="userSpaceOnUse" style="mask-type:luminance"><path fill="#fff" d="M81.909 123.766v12.213h2.664c26.488 0 47.96 21.409 47.96 47.819v5.977H-.688v-5.977c0-26.41 21.472-47.819 47.96-47.819h2.664v-12.213c-11.482-5.439-19.735-16.554-21.112-29.708-3.88-.547-6.865-3.871-6.865-7.89v-9.299c0-3.949 2.881-7.227 6.662-7.86v-4.095c0-20.54 16.7-37.192 37.301-37.192s37.302 16.651 37.302 37.192v4.096c3.781.632 6.661 3.91 6.661 7.86v9.297c0 4.02-2.984 7.344-6.864 7.891-1.377 13.154-9.63 24.269-21.112 29.708"/></mask><g mask="url(#m)"><path fill="#000" fill-opacity=".1" fill-rule="evenodd" d="M103.224 80.19v15.276c0 20.54-16.7 37.192-37.302 37.192-20.6 0-37.301-16.652-37.301-37.192V80.19v9.962c0 20.541 16.7 37.193 37.301 37.193s37.302-16.652 37.302-37.193z" clip-rule="evenodd"/></g><path fill="#B7C1DB" fill-rule="evenodd" d="M49.936 125.399c-11.936 1.332-21.13 4.969-21.313 14.329C11.4 146.983-.688 163.983-.688 183.798v5.977h133.221v-5.977c0-19.815-12.088-36.815-29.312-44.07-.183-9.36-9.376-12.997-21.312-14.329v12.572c0 8.804-7.158 15.94-15.987 15.94s-15.986-7.136-15.986-15.94z" clip-rule="evenodd"/><mask id="n" width="134" height="65" x="-1" y="125" maskUnits="userSpaceOnUse" style="mask-type:luminance"><path fill="#fff" fill-rule="evenodd" d="M49.936 125.399c-11.936 1.332-21.13 4.969-21.313 14.329C11.4 146.983-.688 163.983-.688 183.798v5.977h133.221v-5.977c0-19.815-12.088-36.815-29.312-44.07-.183-9.36-9.376-12.997-21.312-14.329v12.572c0 8.804-7.158 15.94-15.987 15.94s-15.986-7.136-15.986-15.94z" clip-rule="evenodd"/></mask><g mask="url(#n)"><path fill="#5199E4" d="M153.848 116.718H-22.004v73.057h175.852z"/></g><mask id="o" width="134" height="65" x="-1" y="125" maskUnits="userSpaceOnUse" style="mask-type:luminance"><path fill="#fff" fill-rule="evenodd" d="M49.936 125.399c-11.936 1.332-21.13 4.969-21.313 14.329C11.4 146.983-.688 163.983-.688 183.798v5.977h133.221v-5.977c0-19.815-12.088-36.815-29.312-44.07-.183-9.36-9.376-12.997-21.312-14.329v12.572c0 8.804-7.158 15.94-15.987 15.94s-15.986-7.136-15.986-15.94z" clip-rule="evenodd"/></mask><g mask="url(#o)"><path fill="#F4F4F4" fill-rule="evenodd" d="M45.94 157.722v32.053h-4.663v-34.436a43 43 0 0 0 4.662 2.383m44.628-2.383v26.798a2.33 2.33 0 0 1-2.331 2.325 2.33 2.33 0 0 1-2.331-2.325v-24.415a43 43 0 0 0 4.662-2.383" clip-rule="evenodd"/></g><mask id="p" width="134" height="65" x="-1" y="125" maskUnits="userSpaceOnUse" style="mask-type:luminance"><path fill="#fff" fill-rule="evenodd" d="M49.936 125.399c-11.936 1.332-21.13 4.969-21.313 14.329C11.4 146.983-.688 163.983-.688 183.798v5.977h133.221v-5.977c0-19.815-12.088-36.815-29.312-44.07-.183-9.36-9.376-12.997-21.312-14.329v12.572c0 8.804-7.158 15.94-15.987 15.94s-15.986-7.136-15.986-15.94z" clip-rule="evenodd"/></mask><g mask="url(#p)"><path fill="#000" fill-opacity=".16" fill-rule="evenodd" d="M38.586 125.169c-10.026 1.891-16.96 5.658-16.96 13.007 0 13.092 22.007 23.705 44.296 23.705 22.29 0 44.296-10.613 44.296-23.705 0-7.349-6.933-11.116-16.959-13.007 6.052 2.225 9.965 5.966 9.965 12.189 0 13.544-18.532 24.523-37.302 24.523s-37.301-10.979-37.301-24.523c0-6.223 3.913-9.964 9.965-12.189" clip-rule="evenodd"/></g><path fill="#000" fill-opacity=".7" d="M71.917 104.764h-11.99a1.995 1.995 0 0 0-1.998 1.992c0 1.101.895 1.993 1.999 1.993h11.99a1.996 1.996 0 0 0 1.998-1.993c0-1.1-.895-1.992-1.999-1.992"/><path fill="#000" fill-opacity=".16" fill-rule="evenodd" d="M57.93 90.152c0 2.935 3.578 5.314 7.992 5.314 4.415 0 7.994-2.38 7.994-5.314" clip-rule="evenodd"/><path fill="#000" fill-opacity=".6" d="M48.604 82.182a3.99 3.99 0 0 0 3.996-3.985 3.99 3.99 0 0 0-3.996-3.985 3.99 3.99 0 0 0-3.997 3.985 3.99 3.99 0 0 0 3.997 3.985m34.637 0a3.99 3.99 0 0 0 3.997-3.985 3.99 3.99 0 0 0-3.997-3.985 3.99 3.99 0 0 0-3.997 3.985 3.99 3.99 0 0 0 3.997 3.985M39.032 69.669c2.608-3.659 9.757-5.71 15.915-4.203a1.328 1.328 0 1 0 .635-2.58c-7.151-1.75-15.43.625-18.722 5.244a1.326 1.326 0 0 0 .314 1.852c.6.425 1.432.285 1.858-.313m53.781 0c-2.608-3.659-9.757-5.71-15.915-4.203a1.328 1.328 0 1 1-.635-2.58c7.151-1.75 15.43.625 18.722 5.244a1.326 1.326 0 0 1-.314 1.852c-.6.425-1.432.285-1.858-.313"/><mask id="q" width="177" height="187" x="-23" y="3" maskUnits="userSpaceOnUse" style="mask-type:luminance"><path fill="#fff" d="M153.848 3.812H-22.004v185.963h175.852z"/></mask><g mask="url(#q)"><path fill="#272C2E" fill-rule="evenodd" d="M17.963 118.406V59.632c0-2.346.265-4.63.767-6.825 2.034-13.31 9.74-23.883 18.55-30.399 13.258-9.803 35.598-12.63 43.328-.981 5.763-2.551 14.303-.226 20.618 5.63 6.371 6.253 11.457 20.056 8.431 31.35q.105 1.262.105 2.55v14.512a7.99 7.99 0 0 0-6.538-6.46v-.11c-4.02-14.303-15.833-20.868-23.027-27.378C68.943 54.07 33.83 54.115 21.959 78.86v6.642c0 3.997 2.952 7.307 6.8 7.882 1.162 13.447 9.5 24.849 21.177 30.381v.258c1.952 29.126-4.424 65.617-45.961 54.461 9.063-5.289 13.86-39.149 13.988-60.079m63.946 5.36c11.677-5.532 20.015-16.934 21.176-30.381a7.99 7.99 0 0 0 6.677-6.482v.905a66.25 66.25 0 0 0 7.303 30.234l17.95 35.006c4.638 9.045 3.277 19.574-2.622 27.076-1.881-24.693-22.572-44.145-47.82-44.145H81.91z" clip-rule="evenodd"/><mask id="r" width="135" height="168" x="3" y="13" maskUnits="userSpaceOnUse" style="mask-type:luminance"><path fill="#fff" fill-rule="evenodd" d="M17.963 118.406V59.632c0-2.346.265-4.63.767-6.825 2.034-13.31 9.74-23.883 18.55-30.399 13.258-9.803 35.598-12.63 43.328-.981 5.763-2.551 14.303-.226 20.618 5.63 6.371 6.253 11.457 20.056 8.431 31.35q.105 1.262.105 2.55v14.512a7.99 7.99 0 0 0-6.538-6.46v-.11c-4.02-14.303-15.833-20.868-23.027-27.378C68.943 54.07 33.83 54.115 21.959 78.86v6.642c0 3.997 2.952 7.307 6.8 7.882 1.162 13.447 9.5 24.849 21.177 30.381v.258c1.952 29.126-4.424 65.617-45.961 54.461 9.063-5.289 13.86-39.149 13.988-60.079m63.946 5.36c11.677-5.532 20.015-16.934 21.176-30.381a7.99 7.99 0 0 0 6.677-6.482v.905a66.25 66.25 0 0 0 7.303 30.234l17.95 35.006c4.638 9.045 3.277 19.574-2.622 27.076-1.881-24.693-22.572-44.145-47.82-44.145H81.91z" clip-rule="evenodd"/></mask><g mask="url(#r)"><path fill="#4A312C" d="M179.826 13.774H3.975v185.964h175.851z"/></g><path fill="#000" fill-opacity=".16" fill-rule="evenodd" d="M21.96 78.861c11.87-21.476 46.983-21.514 58.237-32.405 7.179 5.639 18.959 10.001 23.003 22.356-4.044-14.243-15.824-20.794-23.003-27.291C68.943 54.07 33.83 54.115 21.959 78.86" clip-rule="evenodd"/></g><ellipse cx="43.608" cy="189.443" fill="#F4F4F4" rx="2.331" ry="2.325"/></g><circle cx="65.992" cy="162.438" r="13.704" fill="#A6D5AF"/><path fill="#094316" fill-rule="evenodd" d="m74.236 158.501-10.594 10.593-5.264-5.264 2.153-2.153 3.111 3.11 8.44-8.44z" clip-rule="evenodd"/><path stroke="#094316" stroke-linecap="round" stroke-width="3" d="M65.944 134.064v11.002m20.282 6.417-5.614 3.242m-.918-12.411-4.584 5.984m-29.336 3.185 5.615 3.242m.916-12.411 4.584 5.984"/></g><path fill="#4480BF" fill-opacity=".7" d="M111.715 213.281v6.602H98.51v-6.602z"/><circle cx="105.113" cy="213.281" r="6.602" fill="#4480BF" fill-opacity=".7" transform="rotate(90 105.113 213.281)"/><path fill="#4480BF" fill-opacity=".7" d="M98.51 206.678v13.205H83.987v-13.205z"/><circle cx="91" cy="208.005" r="6.934" fill="#4480BF" fill-opacity=".7" transform="rotate(90 91 208.005)"/><path fill="#4480BF" fill-opacity=".7" d="M83.986 205.358v14.525H70.78v-14.525z"/><circle cx="77.132" cy="205.033" r="6.934" fill="#4480BF" fill-opacity=".7" transform="rotate(90 77.132 205.033)"/><path fill="#4480BF" fill-opacity=".7" d="M70.781 174.987v44.895H56.256v-44.895z"/><circle cx="63.265" cy="175.318" r="6.934" fill="#4480BF" fill-opacity=".7" transform="rotate(90 63.265 175.318)"/><mask id="t" width="19" height="20" x="38" y="208" maskUnits="userSpaceOnUse" style="mask-type:alpha"><path fill="#D08B5B" d="m49.394 208.5 7.419 12.849-11.073 6.393-7.418-12.849z"/></mask><g mask="url(#t)"><path fill="#4480BF" fill-opacity=".7" d="M37.77 205.357h19.807v14.525H37.77z"/></g><circle cx="43.861" cy="211.703" r="6.393" fill="#4480BF" fill-opacity=".7" transform="rotate(60 43.861 211.703)"/><path fill="#D08B5B" d="M114.441 213.618v6.934h-13.867v-6.934z"/><circle cx="107.508" cy="213.618" r="6.934" fill="#D08B5B" transform="rotate(90 107.508 213.618)"/><path fill="#D08B5B" d="M100.574 206.686v13.867H86.707v-13.867z"/><circle cx="93.641" cy="206.685" r="6.934" fill="#D08B5B" transform="rotate(90 93.64 206.685)"/><path fill="#D08B5B" d="M86.707 203.713v16.839H72.84v-16.839z"/><circle cx="79.773" cy="203.713" r="6.934" fill="#D08B5B" transform="rotate(90 79.773 203.713)"/><path fill="#D08B5B" d="M72.84 173.999v46.554H58.973v-46.554z"/><circle cx="65.906" cy="173.998" r="6.934" fill="#D08B5B" transform="rotate(90 65.906 173.998)"/><circle cx="65.906" cy="173.998" r="4.744" fill="#AF754C" transform="rotate(90 65.906 173.998)"/><mask id="u" width="20" height="20" x="40" y="207" maskUnits="userSpaceOnUse" style="mask-type:alpha"><path fill="#D08B5B" d="m52.035 207.18 7.419 12.849-11.073 6.392-7.418-12.849z"/></mask><g mask="url(#u)"><path fill="#D08B5B" d="M40.487 204.037h19.807v15.845H40.487z"/></g><circle cx="46.502" cy="210.382" r="6.393" fill="#D08B5B" transform="rotate(60 46.502 210.382)"/><path fill="#AF754C" d="M73.337 209.319a.5.5 0 0 0-1 0zm-1 0v10.563h1v-10.563zm14.865 3.706a.5.5 0 0 0-1 0zm-1 0v7.923h1v-7.923zm14.895 3.193a.5.5 0 0 0-1 0zm-1 0v7.923h1v-7.923z"/><defs><clipPath id="a"><path fill="#fff" d="M-3.194 13.742h138.387v216.097H-3.194z"/></clipPath><clipPath id="k"><path fill="#fff" d="M-3.194 13.774h138.387v216.097H-3.194z"/></clipPath></defs></svg>