<svg width="132" height="228" viewBox="0 0 132 228" fill="none" xmlns="http://www.w3.org/2000/svg">
  <path d="M0.673739 180.158C0.386419 179.729 0.179953 179.241 0.076136 178.716L0.56663 178.619C0.52297 178.398 0.5 178.17 0.5 177.936V176.93H0V174.919H0.5V172.907H0V170.896H0.5V168.885H0V166.874H0.5V164.862H0V162.851H0.5V160.84H0V158.829H0.5V156.817H0V154.806H0.5V152.795H0V150.784H0.5V148.772H0V146.761H0.5V144.75H0V142.739H0.5V140.727H0V138.716H0.5V136.705H0V134.694H0.5V132.682H0V130.671H0.5V128.66H0V126.649H0.5V124.637H0V122.626H0.5V120.615H0V118.604H0.5V116.592H0V114.581H0.5V112.57H0V110.559H0.5V108.547H0V106.536H0.5V104.525H0V102.514H0.5V100.502H0V98.4911H0.5V96.4798H0V94.4685H0.5V92.4573H0V90.446H0.5V88.4348H0V86.4235H0.5V84.4123H0V82.401H0.5V80.3898H0V78.3785H0.5V76.3673H0V74.356H0.5V72.3448H0V70.3335H0.5V68.3222H0V66.311H0.5V64.2997H0V62.2885H0.5V60.2772H0V58.266H0.5V56.2547H0V54.2435H0.5V52.2322H0V50.221H0.5V48.2097H0V46.1985H0.5V44.1872H0V42.176H0.5V40.1647H0V38.1535H0.5V36.1422H0V34.1309H0.5V32.1197H0V30.1084H0.5V28.0972H0V26.0859H0.5V24.0747H0V22.0634H0.5V20.0522H0V18.0409H0.5V16.0297H0V14.0184H0.5V12.0072H0V9.9959H0.5V7.98465H0V5.9734H0.5V4.96777C0.5 4.73338 0.52297 4.50485 0.56663 4.28416L0.0761362 4.18712C0.179953 3.66234 0.386418 3.17448 0.673738 2.74531L1.08922 3.02347C1.34489 2.64157 1.6738 2.31267 2.0557 2.057L1.77754 1.64151C2.2067 1.35419 2.69457 1.14773 3.21935 1.04391L3.31639 1.5344C3.53708 1.49074 3.76561 1.46777 4 1.46777H5V0.967773H7V1.46777H9V0.967773H11V1.46777H13V0.967773H15V1.46777H17V0.967773H19V1.46777H21V0.967773H23V1.46777H25V0.967773H27V1.46777H29V0.967773H31V1.46777H33V0.967773H35V1.46777H37V0.967773H39V1.46777H41V0.967773H43V1.46777H45V0.967773H47V1.46777H49V0.967773H51V1.46777H53V0.967773H55V1.46777H57V0.967773H59V1.46777H61V0.967773H63V1.46777H65V0.967773H67V1.46777H69V0.967773H71V1.46777H73V0.967773H75V1.46777H77V0.967773H79V1.46777H81V0.967773H83V1.46777H85V0.967773H87V1.46777H89V0.967773H91V1.46777H93V0.967773H95V1.46777H97V0.967773H99V1.46777H101V0.967773H103V1.46777H105V0.967773H107V1.46777H109V0.967773H111V1.46777H113V0.967773H115V1.46777H117V0.967773H119V1.46777H121V0.967773H123V1.46777H125V0.967773H127V1.46777H128C128.234 1.46777 128.463 1.49074 128.684 1.5344L128.781 1.04391C129.305 1.14773 129.793 1.35419 130.222 1.64151L129.944 2.057C130.326 2.31267 130.655 2.64158 130.911 3.02347L131.326 2.74531C131.614 3.17448 131.82 3.66235 131.924 4.18712L131.433 4.28416C131.477 4.50486 131.5 4.73338 131.5 4.96777V5.97356H132V7.9848H131.5V9.99605H132V12.0073H131.5V14.0185H132V16.0298H131.5V18.041H132V20.0523H131.5V22.0635H132V24.0748H131.5V26.086H132V28.0973H131.5V30.1085H132V32.1198H131.5V34.131H132V36.1422H131.5V38.1535H132V40.1647H131.5V42.176H132V44.1872H131.5V46.1985H132V48.2097H131.5V50.221H132V52.2322H131.5V54.2435H132V56.2547H131.5V58.266H132V60.2772H131.5V62.2885H132V64.2997H131.5V66.311H132V68.3223H131.5V70.3335H132V72.3447H131.5V74.356H132V76.3673H131.5V78.3785H132V80.3898H131.5V82.401H132V84.4123H131.5V86.4235H132V88.4348H131.5V90.446H132V92.4573H131.5V94.4685H132V96.4798H131.5V98.491H132V100.502H131.5V102.514H132V104.525H131.5V106.536H132V108.547H131.5V110.559H132V112.57H131.5V114.581H132V116.592H131.5V118.604H132V120.615H131.5V122.626H132V124.637H131.5V126.649H132V128.66H131.5V130.671H132V132.682H131.5V134.694H132V136.705H131.5V138.716H132V140.727H131.5V142.739H132V144.75H131.5V146.761H132V148.772H131.5V150.784H132V152.795H131.5V154.806H132V156.817H131.5V158.829H132V160.84H131.5V162.851H132V164.862H131.5V166.874H132V168.885H131.5V170.896H132V172.907H131.5V174.919H132V176.93H131.5V177.936C131.5 178.17 131.477 178.398 131.433 178.619L131.924 178.716C131.82 179.241 131.614 179.729 131.326 180.158L130.911 179.88C130.655 180.262 130.326 180.591 129.944 180.846L130.222 181.262C129.793 181.549 129.305 181.756 128.781 181.859L128.684 181.369C128.463 181.413 128.234 181.436 128 181.436H127V181.936H125V181.436H123V181.936H121V181.436H119V181.936H117V181.436H115V181.936H113V181.436H111V181.936H109V181.436H107V181.936H105V181.436H103V181.936H101V181.436H99V181.936H97V181.436H95V181.936H93V181.436H91V181.936H89V181.436H87V181.936H85V181.436H83V181.936H81V181.436H79V181.936H77V181.436H75V181.936H73V181.436H71V181.936H69V181.436H67V181.936H65V181.436H63V181.936H61V181.436H59V181.936H57V181.436H55V181.936H53V181.436H51V181.936H49V181.436H47V181.936H45V181.436H43V181.936H41V181.436H39V181.936H37V181.436H35V181.936H33V181.436H31V181.936H29V181.436H27V181.936H25V181.436H23V181.936H21V181.436H19V181.936H17V181.436H15V181.936H13V181.436H11V181.936H9V181.436H7V181.936H5V181.436H4C3.76561 181.436 3.53708 181.413 3.31638 181.369L3.21935 181.859C2.69457 181.756 2.2067 181.549 1.77754 181.262L2.0557 180.846C1.6738 180.591 1.34489 180.262 1.08922 179.88L0.673739 180.158Z" fill="#F2F9FF" stroke="#ADADAD" stroke-dasharray="2 2"/>
  <mask id="mask0_136_2843" style="mask-type:alpha" maskUnits="userSpaceOnUse" x="0" y="2" width="132" height="182">
    <path d="M0.673739 181.942C0.386419 181.513 0.179953 181.025 0.076136 180.5L0.56663 180.403C0.52297 180.183 0.5 179.954 0.5 179.72V178.714H0V176.703H0.5V174.691H0V172.68H0.5V170.669H0V168.658H0.5V166.646H0V164.635H0.5V162.624H0V160.613H0.5V158.601H0V156.59H0.5V154.579H0V152.568H0.5V150.557H0V148.545H0.5V146.534H0V144.523H0.5V142.512H0V140.5H0.5V138.489H0V136.478H0.5V134.467H0V132.455H0.5V130.444H0V128.433H0.5V126.422H0V124.41H0.5V122.399H0V120.388H0.5V118.377H0V116.365H0.5V114.354H0V112.343H0.5V110.331H0V108.32H0.5V106.309H0V104.298H0.5V102.286H0V100.275H0.5V98.264H0V96.2527H0.5V94.2415H0V92.2302H0.5V90.219H0V88.2077H0.5V86.1965H0V84.1852H0.5V82.174H0V80.1627H0.5V78.1514H0V76.1402H0.5V74.1289H0V72.1177H0.5V70.1064H0V68.0952H0.5V66.0839H0V64.0727H0.5V62.0614H0V60.0502H0.5V58.0389H0V56.0277H0.5V54.0164H0V52.0051H0.5V49.9939H0V47.9826H0.5V45.9714H0V43.9601H0.5V41.9489H0V39.9376H0.5V37.9264H0V35.9151H0.5V33.9039H0V31.8926H0.5V29.8814H0V27.8701H0.5V25.8589H0V23.8476H0.5V21.8364H0V19.8251H0.5V17.8138H0V15.8026H0.5V13.7913H0V11.7801H0.5V9.76883H0V7.75758H0.5V6.75195C0.5 6.51756 0.52297 6.28903 0.56663 6.06834L0.0761362 5.9713C0.179953 5.44652 0.386418 4.95866 0.673738 4.52949L1.08922 4.80765C1.34489 4.42575 1.6738 4.09685 2.0557 3.84118L1.77754 3.42569C2.2067 3.13837 2.69457 2.93191 3.21935 2.82809L3.31639 3.31858C3.53708 3.27492 3.76561 3.25195 4 3.25195H5V2.75195H7V3.25195H9V2.75195H11V3.25195H13V2.75195H15V3.25195H17V2.75195H19V3.25195H21V2.75195H23V3.25195H25V2.75195H27V3.25195H29V2.75195H31V3.25195H33V2.75195H35V3.25195H37V2.75195H39V3.25195H41V2.75195H43V3.25195H45V2.75195H47V3.25195H49V2.75195H51V3.25195H53V2.75195H55V3.25195H57V2.75195H59V3.25195H61V2.75195H63V3.25195H65V2.75195H67V3.25195H69V2.75195H71V3.25195H73V2.75195H75V3.25195H77V2.75195H79V3.25195H81V2.75195H83V3.25195H85V2.75195H87V3.25195H89V2.75195H91V3.25195H93V2.75195H95V3.25195H97V2.75195H99V3.25195H101V2.75195H103V3.25195H105V2.75195H107V3.25195H109V2.75195H111V3.25195H113V2.75195H115V3.25195H117V2.75195H119V3.25195H121V2.75195H123V3.25195H125V2.75195H127V3.25195H128C128.234 3.25195 128.463 3.27492 128.684 3.31858L128.781 2.82809C129.305 2.93191 129.793 3.13837 130.222 3.42569L129.944 3.84118C130.326 4.09685 130.655 4.42575 130.911 4.80765L131.326 4.52949C131.614 4.95866 131.82 5.44653 131.924 5.9713L131.433 6.06834C131.477 6.28904 131.5 6.51756 131.5 6.75195V7.75773H132V9.76898H131.5V11.7802H132V13.7915H131.5V15.8027H132V17.814H131.5V19.8252H132V21.8365H131.5V23.8477H132V25.8589H131.5V27.8702H132V29.8814H131.5V31.8927H132V33.9039H131.5V35.9152H132V37.9264H131.5V39.9377H132V41.9489H131.5V43.9602H132V45.9714H131.5V47.9827H132V49.9939H131.5V52.0051H132V54.0164H131.5V56.0276H132V58.0389H131.5V60.0502H132V62.0614H131.5V64.0727H132V66.0839H131.5V68.0952H132V70.1064H131.5V72.1177H132V74.1289H131.5V76.1402H132V78.1514H131.5V80.1627H132V82.1739H131.5V84.1852H132V86.1964H131.5V88.2077H132V90.219H131.5V92.2302H132V94.2415H131.5V96.2527H132V98.264H131.5V100.275H132V102.286H131.5V104.298H132V106.309H131.5V108.32H132V110.331H131.5V112.343H132V114.354H131.5V116.365H132V118.377H131.5V120.388H132V122.399H131.5V124.41H132V126.422H131.5V128.433H132V130.444H131.5V132.455H132V134.467H131.5V136.478H132V138.489H131.5V140.5H132V142.512H131.5V144.523H132V146.534H131.5V148.545H132V150.557H131.5V152.568H132V154.579H131.5V156.59H132V158.602H131.5V160.613H132V162.624H131.5V164.635H132V166.647H131.5V168.658H132V170.669H131.5V172.68H132V174.692H131.5V176.703H132V178.714H131.5V179.72C131.5 179.954 131.477 180.183 131.433 180.403L131.924 180.5C131.82 181.025 131.614 181.513 131.326 181.942L130.911 181.664C130.655 182.046 130.326 182.375 129.944 182.631L130.222 183.046C129.793 183.333 129.305 183.54 128.781 183.644L128.684 183.153C128.463 183.197 128.234 183.22 128 183.22H127V183.72H125V183.22H123V183.72H121V183.22H119V183.72H117V183.22H115V183.72H113V183.22H111V183.72H109V183.22H107V183.72H105V183.22H103V183.72H101V183.22H99V183.72H97V183.22H95V183.72H93V183.22H91V183.72H89V183.22H87V183.72H85V183.22H83V183.72H81V183.22H79V183.72H77V183.22H75V183.72H73V183.22H71V183.72H69V183.22H67V183.72H65V183.22H63V183.72H61V183.22H59V183.72H57V183.22H55V183.72H53V183.22H51V183.72H49V183.22H47V183.72H45V183.22H43V183.72H41V183.22H39V183.72H37V183.22H35V183.72H33V183.22H31V183.72H29V183.22H27V183.72H25V183.22H23V183.72H21V183.22H19V183.72H17V183.22H15V183.72H13V183.22H11V183.72H9V183.22H7V183.72H5V183.22H4C3.76561 183.22 3.53708 183.197 3.31638 183.153L3.21935 183.644C2.69457 183.54 2.2067 183.333 1.77754 183.046L2.0557 182.631C1.6738 182.375 1.34489 182.046 1.08922 181.664L0.673739 181.942Z" fill="#F2F9FF" stroke="#ADADAD" stroke-dasharray="2 2"/>
  </mask>
  <g mask="url(#mask0_136_2843)">
    <g clip-path="url(#clip0_136_2843)">
      <path d="M81.9088 123.733V135.946H84.5733C111.061 135.946 132.533 157.356 132.533 183.765V189.743H-0.688171V183.765C-0.688171 157.356 20.7841 135.946 47.2714 135.946H49.9358V123.733C38.4539 118.295 30.2006 107.18 28.8237 94.0256C24.9438 93.4787 21.9594 90.1541 21.9594 86.1346V76.8364C21.9594 72.8874 24.84 69.6091 28.6204 68.9768V64.8816C28.6204 44.3407 45.3211 27.689 65.9223 27.689C86.5236 27.689 103.224 44.3407 103.224 64.8816V68.9768C107.005 69.6091 109.885 72.8874 109.885 76.8364V86.1346C109.885 90.1541 106.901 93.4787 103.021 94.0256C101.644 107.18 93.3907 118.295 81.9088 123.733Z" fill="#D0C6AC"/>
      <mask id="mask1_136_2843" style="mask-type:luminance" maskUnits="userSpaceOnUse" x="-1" y="27" width="134" height="163">
        <path d="M81.9088 123.733V135.946H84.5733C111.061 135.946 132.533 157.356 132.533 183.765V189.743H-0.688171V183.765C-0.688171 157.356 20.7841 135.946 47.2714 135.946H49.9358V123.733C38.4539 118.295 30.2006 107.18 28.8237 94.0256C24.9438 93.4787 21.9594 90.1541 21.9594 86.1346V76.8364C21.9594 72.8874 24.84 69.6091 28.6204 68.9768V64.8816C28.6204 44.3407 45.3211 27.689 65.9223 27.689C86.5236 27.689 103.224 44.3407 103.224 64.8816V68.9768C107.005 69.6091 109.885 72.8874 109.885 76.8364V86.1346C109.885 90.1541 106.901 93.4787 103.021 94.0256C101.644 107.18 93.3907 118.295 81.9088 123.733Z" fill="white"/>
      </mask>
      <g mask="url(#mask1_136_2843)">
        <path d="M175.164 27.689H-0.688171V213.652H175.164V27.689Z" fill="#D08B5B"/>
      </g>
      <mask id="mask2_136_2843" style="mask-type:luminance" maskUnits="userSpaceOnUse" x="-1" y="27" width="134" height="163">
        <path d="M81.9088 123.733V135.946H84.5733C111.061 135.946 132.533 157.356 132.533 183.765V189.743H-0.688171V183.765C-0.688171 157.356 20.7841 135.946 47.2714 135.946H49.9358V123.733C38.4539 118.295 30.2006 107.18 28.8237 94.0256C24.9438 93.4787 21.9594 90.1541 21.9594 86.1346V76.8364C21.9594 72.8874 24.84 69.6091 28.6204 68.9768V64.8816C28.6204 44.3407 45.3211 27.689 65.9223 27.689C86.5236 27.689 103.224 44.3407 103.224 64.8816V68.9768C107.005 69.6091 109.885 72.8874 109.885 76.8364V86.1346C109.885 90.1541 106.901 93.4787 103.021 94.0256C101.644 107.18 93.3907 118.295 81.9088 123.733Z" fill="white"/>
      </mask>
      <g mask="url(#mask2_136_2843)">
        <path fill-rule="evenodd" clip-rule="evenodd" d="M103.224 80.1572V95.4328C103.224 115.974 86.5235 132.625 65.9223 132.625C45.321 132.625 28.6204 115.974 28.6204 95.4328V80.1572V90.1196C28.6204 110.66 45.321 127.312 65.9223 127.312C86.5235 127.312 103.224 110.66 103.224 90.1196V80.1572Z" fill="black" fill-opacity="0.1"/>
      </g>
      <path fill-rule="evenodd" clip-rule="evenodd" d="M49.9358 125.367C38.0001 126.698 28.8069 130.335 28.6232 139.695C11.3993 146.95 -0.688171 163.95 -0.688171 183.765V189.743H132.533V183.765C132.533 163.95 120.445 146.95 103.221 139.695C103.038 130.335 93.8446 126.698 81.9088 125.367V137.939C81.9088 146.742 74.7514 153.878 65.9223 153.878C57.0932 153.878 49.9358 146.742 49.9358 137.939V125.367Z" fill="#B7C1DB"/>
      <mask id="mask3_136_2843" style="mask-type:luminance" maskUnits="userSpaceOnUse" x="-1" y="125" width="134" height="65">
        <path fill-rule="evenodd" clip-rule="evenodd" d="M49.9358 125.367C38.0001 126.698 28.8069 130.335 28.6232 139.695C11.3993 146.95 -0.688171 163.95 -0.688171 183.765V189.743H132.533V183.765C132.533 163.95 120.445 146.95 103.221 139.695C103.038 130.335 93.8446 126.698 81.9088 125.367V137.939C81.9088 146.742 74.7514 153.878 65.9223 153.878C57.0932 153.878 49.9358 146.742 49.9358 137.939V125.367Z" fill="white"/>
      </mask>
      <g mask="url(#mask3_136_2843)">
        <path d="M153.848 116.686H-22.0035V189.743H153.848V116.686Z" fill="#5199E4"/>
      </g>
      <mask id="mask4_136_2843" style="mask-type:luminance" maskUnits="userSpaceOnUse" x="-1" y="125" width="134" height="65">
        <path fill-rule="evenodd" clip-rule="evenodd" d="M49.9358 125.367C38.0001 126.698 28.8069 130.335 28.6232 139.695C11.3993 146.95 -0.688171 163.95 -0.688171 183.765V189.743H132.533V183.765C132.533 163.95 120.445 146.95 103.221 139.695C103.038 130.335 93.8446 126.698 81.9088 125.367V137.939C81.9088 146.742 74.7514 153.878 65.9223 153.878C57.0932 153.878 49.9358 146.742 49.9358 137.939V125.367Z" fill="white"/>
      </mask>
      <g mask="url(#mask4_136_2843)">
        <path fill-rule="evenodd" clip-rule="evenodd" d="M45.9392 157.69V189.742H41.2764V155.306C42.7444 156.176 44.3051 156.974 45.9392 157.69ZM90.5682 155.306V182.105C90.5682 183.388 89.5244 184.429 88.2368 184.429C86.9492 184.429 85.9054 183.388 85.9054 182.105V157.69C87.5396 156.974 89.1003 156.176 90.5682 155.306Z" fill="#F4F4F4"/>
      </g>
      <mask id="mask5_136_2843" style="mask-type:luminance" maskUnits="userSpaceOnUse" x="-1" y="125" width="134" height="65">
        <path fill-rule="evenodd" clip-rule="evenodd" d="M49.9358 125.367C38.0001 126.698 28.8069 130.335 28.6232 139.695C11.3993 146.95 -0.688171 163.95 -0.688171 183.765V189.743H132.533V183.765C132.533 163.95 120.445 146.95 103.221 139.695C103.038 130.335 93.8446 126.698 81.9088 125.367V137.939C81.9088 146.742 74.7514 153.878 65.9223 153.878C57.0932 153.878 49.9358 146.742 49.9358 137.939V125.367Z" fill="white"/>
      </mask>
      <g mask="url(#mask5_136_2843)">
        <path fill-rule="evenodd" clip-rule="evenodd" d="M38.5855 125.137C28.56 127.027 21.6263 130.794 21.6263 138.143C21.6263 151.235 43.6329 161.848 65.9223 161.848C88.2117 161.848 110.218 151.235 110.218 138.143C110.218 130.794 103.285 127.027 93.2592 125.137C99.3108 127.362 103.224 131.102 103.224 137.326C103.224 150.869 84.6924 161.848 65.9223 161.848C47.1523 161.848 28.6204 150.869 28.6204 137.326C28.6204 131.102 32.5339 127.362 38.5855 125.137Z" fill="black" fill-opacity="0.16"/>
      </g>
      <path d="M71.9173 104.731H59.9274C58.8238 104.731 57.9291 105.623 57.9291 106.723C57.9291 107.824 58.8238 108.716 59.9274 108.716H71.9173C73.0209 108.716 73.9156 107.824 73.9156 106.723C73.9156 105.623 73.0209 104.731 71.9173 104.731Z" fill="black" fill-opacity="0.7"/>
      <path fill-rule="evenodd" clip-rule="evenodd" d="M57.9291 90.1196C57.9291 93.054 61.5078 95.4329 65.9223 95.4329C70.3369 95.4329 73.9156 93.054 73.9156 90.1196" fill="black" fill-opacity="0.16"/>
      <path d="M48.6036 82.1495C50.8108 82.1495 52.6002 80.3654 52.6002 78.1646C52.6002 75.9638 50.8108 74.1797 48.6036 74.1797C46.3963 74.1797 44.6069 75.9638 44.6069 78.1646C44.6069 80.3654 46.3963 82.1495 48.6036 82.1495Z" fill="black" fill-opacity="0.6"/>
      <path d="M83.241 82.1495C85.4483 82.1495 87.2376 80.3654 87.2376 78.1646C87.2376 75.9638 85.4483 74.1797 83.241 74.1797C81.0337 74.1797 79.2444 75.9638 79.2444 78.1646C79.2444 80.3654 81.0337 82.1495 83.241 82.1495Z" fill="black" fill-opacity="0.6"/>
      <path d="M39.0318 69.6359C41.6396 65.9773 48.7887 63.9257 54.9469 65.4335C55.6614 65.6085 56.3829 65.1728 56.5584 64.4603C56.7339 63.7479 56.2969 63.0285 55.5823 62.8536C48.4306 61.1025 40.1521 63.4782 36.86 68.097C36.4338 68.6949 36.5744 69.5242 37.1742 69.9492C37.7739 70.3741 38.6056 70.2339 39.0318 69.6359Z" fill="black" fill-opacity="0.6"/>
      <path d="M92.813 69.6359C90.2052 65.9773 83.0561 63.9257 76.8979 65.4335C76.1833 65.6085 75.4619 65.1728 75.2864 64.4603C75.1109 63.7479 75.5479 63.0285 76.2624 62.8536C83.4142 61.1025 91.6927 63.4782 94.9848 68.097C95.411 68.6949 95.2704 69.5242 94.6706 69.9492C94.0709 70.3741 93.2392 70.2339 92.813 69.6359Z" fill="black" fill-opacity="0.6"/>
      <mask id="mask6_136_2843" style="mask-type:luminance" maskUnits="userSpaceOnUse" x="-23" y="3" width="177" height="187">
        <path d="M153.848 3.7793H-22.0035V189.743H153.848V3.7793Z" fill="white"/>
      </mask>
      <g mask="url(#mask6_136_2843)">
        <path fill-rule="evenodd" clip-rule="evenodd" d="M17.9628 118.373V59.5989C17.9628 57.2529 18.2279 54.9688 18.7301 52.7745C20.7638 39.4651 28.4707 28.8914 37.2798 22.3755C50.5384 12.5728 72.8777 9.74441 80.608 21.3939C86.3706 18.8429 94.9106 21.1681 101.226 27.0246C107.597 33.2776 112.683 47.0803 109.657 58.375C109.727 59.2156 109.762 60.0656 109.762 60.9236V75.4362C109.175 72.1328 106.547 69.5324 103.224 68.9765V68.8663C99.2035 54.5632 87.3906 47.9986 80.1967 41.4879C68.9433 54.0379 33.8311 54.0821 21.9594 78.8286V85.4702C21.9594 89.4675 24.9108 92.7775 28.7594 93.3518C29.9205 106.799 38.2584 118.202 49.9358 123.733V123.991C51.8877 153.118 45.5118 189.608 3.97455 178.452C13.0374 173.164 17.8349 139.304 17.9628 118.373ZM81.9088 123.733C93.5862 118.202 101.924 106.799 103.085 93.3518C106.474 92.8461 109.167 90.2194 109.762 86.8701V87.7751C109.762 98.2874 112.265 108.65 117.065 118.01L135.015 153.015C139.653 162.061 138.292 172.59 132.393 180.092C130.512 155.398 109.821 135.946 84.5732 135.946H81.9088V123.733Z" fill="#272C2E"/>
        <mask id="mask7_136_2843" style="mask-type:luminance" maskUnits="userSpaceOnUse" x="3" y="13" width="135" height="168">
          <path fill-rule="evenodd" clip-rule="evenodd" d="M17.9628 118.373V59.5989C17.9628 57.2529 18.2279 54.9688 18.7301 52.7745C20.7638 39.4651 28.4707 28.8914 37.2798 22.3755C50.5384 12.5728 72.8777 9.74441 80.608 21.3939C86.3706 18.8429 94.9106 21.1681 101.226 27.0246C107.597 33.2776 112.683 47.0803 109.657 58.375C109.727 59.2156 109.762 60.0656 109.762 60.9236V75.4362C109.175 72.1328 106.547 69.5324 103.224 68.9765V68.8663C99.2035 54.5632 87.3906 47.9986 80.1967 41.4879C68.9433 54.0379 33.8311 54.0821 21.9594 78.8286V85.4702C21.9594 89.4675 24.9108 92.7775 28.7594 93.3518C29.9205 106.799 38.2584 118.202 49.9358 123.733V123.991C51.8877 153.118 45.5118 189.608 3.97455 178.452C13.0374 173.164 17.8349 139.304 17.9628 118.373ZM81.9088 123.733C93.5862 118.202 101.924 106.799 103.085 93.3518C106.474 92.8461 109.167 90.2194 109.762 86.8701V87.7751C109.762 98.2874 112.265 108.65 117.065 118.01L135.015 153.015C139.653 162.061 138.292 172.59 132.393 180.092C130.512 155.398 109.821 135.946 84.5732 135.946H81.9088V123.733Z" fill="white"/>
        </mask>
        <g mask="url(#mask7_136_2843)">
          <path d="M179.826 13.7417H3.97455V199.705H179.826V13.7417Z" fill="#4A312C"/>
        </g>
        <path fill-rule="evenodd" clip-rule="evenodd" d="M21.9594 78.8285C33.8311 57.3528 68.9433 57.3145 80.1967 46.4233C87.3759 52.0619 99.1554 56.4243 103.2 68.779C99.1554 54.5364 87.3759 47.9852 80.1967 41.4878C68.9433 54.0378 33.8311 54.082 21.9594 78.8285Z" fill="black" fill-opacity="0.16"/>
      </g>
    </g>
  </g>
  <path d="M0.673739 186.577C0.386419 186.148 0.179953 185.66 0.076136 185.135L0.56663 185.038C0.52297 184.818 0.5 184.589 0.5 184.355V183.358H0V181.365H0.5V179.373H0V177.38H0.5V175.387H0V173.394H0.5V171.401H0V169.408H0.5V167.416H0V165.423H0.5V163.43H0V161.437H0.5V159.444H0V157.451H0.5V155.459H0V153.466H0.5V151.473H0V149.48H0.5V147.487H0V145.495H0.5V143.502H0V141.509H0.5V139.516H0V137.523H0.5V135.53H0V133.538H0.5V131.545H0V129.552H0.5V127.559H0V125.566H0.5V123.573H0V121.581H0.5V119.588H0V117.595H0.5V115.602H0V113.609H0.5V111.616H0V109.624H0.5V107.631H0V105.638H0.5V103.645H0V101.652H0.5V99.6595H0V97.6666H0.5V95.6738H0V93.681H0.5V91.6881H0V89.6953H0.5V87.7025H0V85.7097H0.5V83.7168H0V81.724H0.5V79.7312H0V77.7383H0.5V75.7455H0V73.7527H0.5V71.7599H0V69.767H0.5V67.7742H0V65.7814H0.5V63.7885H0V61.7957H0.5V59.8029H0V57.81H0.5V55.8172H0V53.8244H0.5V51.8316H0V49.8387H0.5V47.8459H0V45.8531H0.5V43.8602H0V41.8674H0.5V39.8746H0V37.8817H0.5V35.8889H0V33.8961H0.5V31.9032H0V29.9104H0.5V27.9176H0V25.9247H0.5V23.9319H0V21.9391H0.5V19.9462H0V17.9534H0.5V15.9606H0V13.9677H0.5V11.9749H0V9.98208H0.5V7.98924H0V5.99641H0.5V5C0.5 4.76561 0.52297 4.53708 0.56663 4.31638L0.0761362 4.21935C0.179953 3.69457 0.386418 3.2067 0.673738 2.77754L1.08922 3.0557C1.3449 2.6738 1.6738 2.34489 2.0557 2.08922L1.77754 1.67374C2.2067 1.38642 2.69457 1.17995 3.21935 1.07614L3.31639 1.56663C3.53708 1.52297 3.76561 1.5 4 1.5H5V1H7V1.5H9V1H11V1.5H13V1H15V1.5H17V1H19V1.5H21V1H23V1.5H25V1H27V1.5H29V1H31V1.5H33V1H35V1.5H37V1H39V1.5H41V1H43V1.5H45V1H47V1.5H49V1H51V1.5H53V1H55V1.5H57V1H59V1.5H61V1H63V1.5H65V1H67V1.5H69V1H71V1.5H73V1H75V1.5H77V1H79V1.5H81V1H83V1.5H85V1H87V1.5H89V1H91V1.5H93V1H95V1.5H97V1H99V1.5H101V1H103V1.5H105V1H107V1.5H109V1H111V1.5H113V1H115V1.5H117V1H119V1.5H121V1H123V1.5H125V1H127V1.5H128C128.234 1.5 128.463 1.52297 128.684 1.56663L128.781 1.07614C129.305 1.17995 129.793 1.38642 130.222 1.67374L129.944 2.08922C130.326 2.3449 130.655 2.6738 130.911 3.0557L131.326 2.77754C131.614 3.2067 131.82 3.69457 131.924 4.21935L131.433 4.31639C131.477 4.53708 131.5 4.76561 131.5 5V5.99658H132V7.98942H131.5V9.98224H132V11.9751H131.5V13.9679H132V15.9607H131.5V17.9536H132V19.9464H131.5V21.9392H132V23.932H131.5V25.9249H132V27.9177H131.5V29.9105H132V31.9034H131.5V33.8962H132V35.889H131.5V37.8818H132V39.8747H131.5V41.8675H132V43.8603H131.5V45.8532H132V47.846H131.5V49.8388H132V51.8316H131.5V53.8245H132V55.8173H131.5V57.8101H132V59.803H131.5V61.7958H132V63.7886H131.5V65.7814H132V67.7743H131.5V69.7671H132V71.7599H131.5V73.7528H132V75.7456H131.5V77.7384H132V79.7312H131.5V81.7241H132V83.7169H131.5V85.7097H132V87.7026H131.5V89.6954H132V91.6882H131.5V93.681H132V95.6739H131.5V97.6667H132V99.6595H131.5V101.652H132V103.645H131.5V105.638H132V107.631H131.5V109.624H132V111.616H131.5V113.609H132V115.602H131.5V117.595H132V119.588H131.5V121.581H132V123.573H131.5V125.566H132V127.559H131.5V129.552H132V131.545H131.5V133.538H132V135.53H131.5V137.523H132V139.516H131.5V141.509H132V143.502H131.5V145.495H132V147.487H131.5V149.48H132V151.473H131.5V153.466H132V155.459H131.5V157.452H132V159.444H131.5V161.437H132V163.43H131.5V165.423H132V167.416H131.5V169.409H132V171.401H131.5V173.394H132V175.387H131.5V177.38H132V179.373H131.5V181.366H132V183.358H131.5V184.355C131.5 184.589 131.477 184.818 131.433 185.038L131.924 185.135C131.82 185.66 131.614 186.148 131.326 186.577L130.911 186.299C130.655 186.681 130.326 187.01 129.944 187.266L130.222 187.681C129.793 187.968 129.305 188.175 128.781 188.279L128.684 187.788C128.463 187.832 128.234 187.855 128 187.855H127V188.355H125V187.855H123V188.355H121V187.855H119V188.355H117V187.855H115V188.355H113V187.855H111V188.355H109V187.855H107V188.355H105V187.855H103V188.355H101V187.855H99V188.355H97V187.855H95V188.355H93V187.855H91V188.355H89V187.855H87V188.355H85V187.855H83V188.355H81V187.855H79V188.355H77V187.855H75V188.355H73V187.855H71V188.355H69V187.855H67V188.355H65V187.855H63V188.355H61V187.855H59V188.355H57V187.855H55V188.355H53V187.855H51V188.355H49V187.855H47V188.355H45V187.855H43V188.355H41V187.855H39V188.355H37V187.855H35V188.355H33V187.855H31V188.355H29V187.855H27V188.355H25V187.855H23V188.355H21V187.855H19V188.355H17V187.855H15V188.355H13V187.855H11V188.355H9V187.855H7V188.355H5V187.855H4C3.76561 187.855 3.53708 187.832 3.31638 187.788L3.21935 188.279C2.69457 188.175 2.2067 187.968 1.77754 187.681L2.0557 187.266C1.6738 187.01 1.34489 186.681 1.08922 186.299L0.673739 186.577Z" fill="#F2F9FF" stroke="#ADADAD" stroke-dasharray="2 2"/>
  <mask id="mask8_136_2843" style="mask-type:alpha" maskUnits="userSpaceOnUse" x="0" y="1" width="132" height="188">
    <path d="M0.673739 186.577C0.386419 186.148 0.179953 185.66 0.076136 185.135L0.56663 185.038C0.52297 184.818 0.5 184.589 0.5 184.355V183.358H0V181.365H0.5V179.373H0V177.38H0.5V175.387H0V173.394H0.5V171.401H0V169.408H0.5V167.416H0V165.423H0.5V163.43H0V161.437H0.5V159.444H0V157.451H0.5V155.459H0V153.466H0.5V151.473H0V149.48H0.5V147.487H0V145.495H0.5V143.502H0V141.509H0.5V139.516H0V137.523H0.5V135.53H0V133.538H0.5V131.545H0V129.552H0.5V127.559H0V125.566H0.5V123.573H0V121.581H0.5V119.588H0V117.595H0.5V115.602H0V113.609H0.5V111.616H0V109.624H0.5V107.631H0V105.638H0.5V103.645H0V101.652H0.5V99.6595H0V97.6666H0.5V95.6738H0V93.681H0.5V91.6881H0V89.6953H0.5V87.7025H0V85.7097H0.5V83.7168H0V81.724H0.5V79.7312H0V77.7383H0.5V75.7455H0V73.7527H0.5V71.7599H0V69.767H0.5V67.7742H0V65.7814H0.5V63.7885H0V61.7957H0.5V59.8029H0V57.81H0.5V55.8172H0V53.8244H0.5V51.8316H0V49.8387H0.5V47.8459H0V45.8531H0.5V43.8602H0V41.8674H0.5V39.8746H0V37.8817H0.5V35.8889H0V33.8961H0.5V31.9032H0V29.9104H0.5V27.9176H0V25.9247H0.5V23.9319H0V21.9391H0.5V19.9462H0V17.9534H0.5V15.9606H0V13.9677H0.5V11.9749H0V9.98208H0.5V7.98924H0V5.99641H0.5V5C0.5 4.76561 0.52297 4.53708 0.56663 4.31638L0.0761362 4.21935C0.179953 3.69457 0.386418 3.2067 0.673738 2.77754L1.08922 3.0557C1.3449 2.6738 1.6738 2.34489 2.0557 2.08922L1.77754 1.67374C2.2067 1.38642 2.69457 1.17995 3.21935 1.07614L3.31639 1.56663C3.53708 1.52297 3.76561 1.5 4 1.5H5V1H7V1.5H9V1H11V1.5H13V1H15V1.5H17V1H19V1.5H21V1H23V1.5H25V1H27V1.5H29V1H31V1.5H33V1H35V1.5H37V1H39V1.5H41V1H43V1.5H45V1H47V1.5H49V1H51V1.5H53V1H55V1.5H57V1H59V1.5H61V1H63V1.5H65V1H67V1.5H69V1H71V1.5H73V1H75V1.5H77V1H79V1.5H81V1H83V1.5H85V1H87V1.5H89V1H91V1.5H93V1H95V1.5H97V1H99V1.5H101V1H103V1.5H105V1H107V1.5H109V1H111V1.5H113V1H115V1.5H117V1H119V1.5H121V1H123V1.5H125V1H127V1.5H128C128.234 1.5 128.463 1.52297 128.684 1.56663L128.781 1.07614C129.305 1.17995 129.793 1.38642 130.222 1.67374L129.944 2.08922C130.326 2.3449 130.655 2.6738 130.911 3.0557L131.326 2.77754C131.614 3.2067 131.82 3.69457 131.924 4.21935L131.433 4.31639C131.477 4.53708 131.5 4.76561 131.5 5V5.99658H132V7.98942H131.5V9.98224H132V11.9751H131.5V13.9679H132V15.9607H131.5V17.9536H132V19.9464H131.5V21.9392H132V23.932H131.5V25.9249H132V27.9177H131.5V29.9105H132V31.9034H131.5V33.8962H132V35.889H131.5V37.8818H132V39.8747H131.5V41.8675H132V43.8603H131.5V45.8532H132V47.846H131.5V49.8388H132V51.8316H131.5V53.8245H132V55.8173H131.5V57.8101H132V59.803H131.5V61.7958H132V63.7886H131.5V65.7814H132V67.7743H131.5V69.7671H132V71.7599H131.5V73.7528H132V75.7456H131.5V77.7384H132V79.7312H131.5V81.7241H132V83.7169H131.5V85.7097H132V87.7026H131.5V89.6954H132V91.6882H131.5V93.681H132V95.6739H131.5V97.6667H132V99.6595H131.5V101.652H132V103.645H131.5V105.638H132V107.631H131.5V109.624H132V111.616H131.5V113.609H132V115.602H131.5V117.595H132V119.588H131.5V121.581H132V123.573H131.5V125.566H132V127.559H131.5V129.552H132V131.545H131.5V133.538H132V135.53H131.5V137.523H132V139.516H131.5V141.509H132V143.502H131.5V145.495H132V147.487H131.5V149.48H132V151.473H131.5V153.466H132V155.459H131.5V157.452H132V159.444H131.5V161.437H132V163.43H131.5V165.423H132V167.416H131.5V169.409H132V171.401H131.5V173.394H132V175.387H131.5V177.38H132V179.373H131.5V181.366H132V183.358H131.5V184.355C131.5 184.589 131.477 184.818 131.433 185.038L131.924 185.135C131.82 185.66 131.614 186.148 131.326 186.577L130.911 186.299C130.655 186.681 130.326 187.01 129.944 187.266L130.222 187.681C129.793 187.968 129.305 188.175 128.781 188.279L128.684 187.788C128.463 187.832 128.234 187.855 128 187.855H127V188.355H125V187.855H123V188.355H121V187.855H119V188.355H117V187.855H115V188.355H113V187.855H111V188.355H109V187.855H107V188.355H105V187.855H103V188.355H101V187.855H99V188.355H97V187.855H95V188.355H93V187.855H91V188.355H89V187.855H87V188.355H85V187.855H83V188.355H81V187.855H79V188.355H77V187.855H75V188.355H73V187.855H71V188.355H69V187.855H67V188.355H65V187.855H63V188.355H61V187.855H59V188.355H57V187.855H55V188.355H53V187.855H51V188.355H49V187.855H47V188.355H45V187.855H43V188.355H41V187.855H39V188.355H37V187.855H35V188.355H33V187.855H31V188.355H29V187.855H27V188.355H25V187.855H23V188.355H21V187.855H19V188.355H17V187.855H15V188.355H13V187.855H11V188.355H9V187.855H7V188.355H5V187.855H4C3.76561 187.855 3.53708 187.832 3.31638 187.788L3.21935 188.279C2.69457 188.175 2.2067 187.968 1.77754 187.681L2.0557 187.266C1.6738 187.01 1.34489 186.681 1.08922 186.299L0.673739 186.577Z" fill="#F2F9FF" stroke="#ADADAD" stroke-dasharray="2 2"/>
  </mask>
  <g mask="url(#mask8_136_2843)">
    <g clip-path="url(#clip1_136_2843)">
      <path d="M81.9089 123.766V135.979H84.5733C111.061 135.979 132.533 157.388 132.533 183.798V189.775H-0.68811V183.798C-0.68811 157.388 20.7841 135.979 47.2715 135.979H49.9359V123.766C38.454 118.327 30.2007 107.212 28.8238 94.0583C24.9438 93.5114 21.9595 90.1868 21.9595 86.1673V76.8691C21.9595 72.9201 24.8401 69.6419 28.6205 69.0095V64.9143C28.6205 44.3734 45.3211 27.7217 65.9224 27.7217C86.5237 27.7217 103.224 44.3734 103.224 64.9143V69.0095C107.005 69.6419 109.885 72.9201 109.885 76.8691V86.1673C109.885 90.1868 106.901 93.5114 103.021 94.0583C101.644 107.212 93.3908 118.327 81.9089 123.766Z" fill="#D0C6AC"/>
      <mask id="mask9_136_2843" style="mask-type:luminance" maskUnits="userSpaceOnUse" x="-1" y="27" width="134" height="163">
        <path d="M81.9089 123.766V135.979H84.5733C111.061 135.979 132.533 157.388 132.533 183.798V189.775H-0.68811V183.798C-0.68811 157.388 20.7841 135.979 47.2715 135.979H49.9359V123.766C38.454 118.327 30.2007 107.212 28.8238 94.0583C24.9438 93.5114 21.9595 90.1868 21.9595 86.1673V76.8691C21.9595 72.9201 24.8401 69.6419 28.6205 69.0095V64.9143C28.6205 44.3734 45.3211 27.7217 65.9224 27.7217C86.5237 27.7217 103.224 44.3734 103.224 64.9143V69.0095C107.005 69.6419 109.885 72.9201 109.885 76.8691V86.1673C109.885 90.1868 106.901 93.5114 103.021 94.0583C101.644 107.212 93.3908 118.327 81.9089 123.766Z" fill="white"/>
      </mask>
      <g mask="url(#mask9_136_2843)">
        <path d="M175.164 27.7217H-0.68811V213.685H175.164V27.7217Z" fill="#D08B5B"/>
      </g>
      <mask id="mask10_136_2843" style="mask-type:luminance" maskUnits="userSpaceOnUse" x="-1" y="27" width="134" height="163">
        <path d="M81.9089 123.766V135.979H84.5733C111.061 135.979 132.533 157.388 132.533 183.798V189.775H-0.68811V183.798C-0.68811 157.388 20.7841 135.979 47.2715 135.979H49.9359V123.766C38.454 118.327 30.2007 107.212 28.8238 94.0583C24.9438 93.5114 21.9595 90.1868 21.9595 86.1673V76.8691C21.9595 72.9201 24.8401 69.6419 28.6205 69.0095V64.9143C28.6205 44.3734 45.3211 27.7217 65.9224 27.7217C86.5237 27.7217 103.224 44.3734 103.224 64.9143V69.0095C107.005 69.6419 109.885 72.9201 109.885 76.8691V86.1673C109.885 90.1868 106.901 93.5114 103.021 94.0583C101.644 107.212 93.3908 118.327 81.9089 123.766Z" fill="white"/>
      </mask>
      <g mask="url(#mask10_136_2843)">
        <path fill-rule="evenodd" clip-rule="evenodd" d="M103.224 80.1899V95.4655C103.224 116.006 86.5236 132.658 65.9224 132.658C45.3211 132.658 28.6205 116.006 28.6205 95.4655V80.1899V90.1523C28.6205 110.693 45.3211 127.345 65.9224 127.345C86.5236 127.345 103.224 110.693 103.224 90.1523V80.1899Z" fill="black" fill-opacity="0.1"/>
      </g>
      <path fill-rule="evenodd" clip-rule="evenodd" d="M49.9359 125.399C38.0001 126.731 28.8069 130.368 28.6233 139.728C11.3993 146.983 -0.68811 163.983 -0.68811 183.798V189.775H132.533V183.798C132.533 163.983 120.445 146.983 103.221 139.728C103.038 130.368 93.8447 126.731 81.9089 125.399V137.971C81.9089 146.775 74.7515 153.911 65.9224 153.911C57.0933 153.911 49.9359 146.775 49.9359 137.971V125.399Z" fill="#B7C1DB"/>
      <mask id="mask11_136_2843" style="mask-type:luminance" maskUnits="userSpaceOnUse" x="-1" y="125" width="134" height="65">
        <path fill-rule="evenodd" clip-rule="evenodd" d="M49.9359 125.399C38.0001 126.731 28.8069 130.368 28.6233 139.728C11.3993 146.983 -0.68811 163.983 -0.68811 183.798V189.775H132.533V183.798C132.533 163.983 120.445 146.983 103.221 139.728C103.038 130.368 93.8447 126.731 81.9089 125.399V137.971C81.9089 146.775 74.7515 153.911 65.9224 153.911C57.0933 153.911 49.9359 146.775 49.9359 137.971V125.399Z" fill="white"/>
      </mask>
      <g mask="url(#mask11_136_2843)">
        <path d="M153.848 116.718H-22.0035V189.775H153.848V116.718Z" fill="#5199E4"/>
      </g>
      <mask id="mask12_136_2843" style="mask-type:luminance" maskUnits="userSpaceOnUse" x="-1" y="125" width="134" height="65">
        <path fill-rule="evenodd" clip-rule="evenodd" d="M49.9359 125.399C38.0001 126.731 28.8069 130.368 28.6233 139.728C11.3993 146.983 -0.68811 163.983 -0.68811 183.798V189.775H132.533V183.798C132.533 163.983 120.445 146.983 103.221 139.728C103.038 130.368 93.8447 126.731 81.9089 125.399V137.971C81.9089 146.775 74.7515 153.911 65.9224 153.911C57.0933 153.911 49.9359 146.775 49.9359 137.971V125.399Z" fill="white"/>
      </mask>
      <g mask="url(#mask12_136_2843)">
        <path fill-rule="evenodd" clip-rule="evenodd" d="M45.9392 157.722V189.775H41.2765V155.339C42.7444 156.209 44.3051 157.006 45.9392 157.722ZM90.5683 155.339V182.137C90.5683 183.421 89.5245 184.462 88.2369 184.462C86.9493 184.462 85.9055 183.421 85.9055 182.137V157.722C87.5396 157.006 89.1003 156.209 90.5683 155.339Z" fill="#F4F4F4"/>
      </g>
      <mask id="mask13_136_2843" style="mask-type:luminance" maskUnits="userSpaceOnUse" x="-1" y="125" width="134" height="65">
        <path fill-rule="evenodd" clip-rule="evenodd" d="M49.9359 125.399C38.0001 126.731 28.8069 130.368 28.6233 139.728C11.3993 146.983 -0.68811 163.983 -0.68811 183.798V189.775H132.533V183.798C132.533 163.983 120.445 146.983 103.221 139.728C103.038 130.368 93.8447 126.731 81.9089 125.399V137.971C81.9089 146.775 74.7515 153.911 65.9224 153.911C57.0933 153.911 49.9359 146.775 49.9359 137.971V125.399Z" fill="white"/>
      </mask>
      <g mask="url(#mask13_136_2843)">
        <path fill-rule="evenodd" clip-rule="evenodd" d="M38.5855 125.169C28.5601 127.06 21.6264 130.827 21.6264 138.176C21.6264 151.268 43.633 161.881 65.9224 161.881C88.2118 161.881 110.218 151.268 110.218 138.176C110.218 130.827 103.285 127.06 93.2592 125.169C99.3108 127.394 103.224 131.135 103.224 137.358C103.224 150.902 84.6924 161.881 65.9224 161.881C47.1523 161.881 28.6205 150.902 28.6205 137.358C28.6205 131.135 32.5339 127.394 38.5855 125.169Z" fill="black" fill-opacity="0.16"/>
      </g>
      <path d="M71.9173 104.764H59.9275C58.8238 104.764 57.9291 105.656 57.9291 106.756C57.9291 107.857 58.8238 108.749 59.9275 108.749H71.9173C73.021 108.749 73.9157 107.857 73.9157 106.756C73.9157 105.656 73.021 104.764 71.9173 104.764Z" fill="black" fill-opacity="0.7"/>
      <path fill-rule="evenodd" clip-rule="evenodd" d="M57.9291 90.1523C57.9291 93.0868 61.5078 95.4656 65.9224 95.4656C70.337 95.4656 73.9157 93.0868 73.9157 90.1523" fill="black" fill-opacity="0.16"/>
      <path d="M48.6036 82.1823C50.8109 82.1823 52.6003 80.3981 52.6003 78.1973C52.6003 75.9965 50.8109 74.2124 48.6036 74.2124C46.3963 74.2124 44.607 75.9965 44.607 78.1973C44.607 80.3981 46.3963 82.1823 48.6036 82.1823Z" fill="black" fill-opacity="0.6"/>
      <path d="M83.2411 82.1823C85.4484 82.1823 87.2377 80.3981 87.2377 78.1973C87.2377 75.9965 85.4484 74.2124 83.2411 74.2124C81.0338 74.2124 79.2444 75.9965 79.2444 78.1973C79.2444 80.3981 81.0338 82.1823 83.2411 82.1823Z" fill="black" fill-opacity="0.6"/>
      <path d="M39.0319 69.6686C41.6396 66.01 48.7888 63.9584 54.947 65.4663C55.6615 65.6412 56.383 65.2055 56.5585 64.4931C56.7339 63.7806 56.2969 63.0613 55.5824 62.8863C48.4307 61.1352 40.1522 63.5109 36.86 68.1297C36.4338 68.7277 36.5745 69.5569 37.1742 69.9819C37.774 70.4069 38.6057 70.2666 39.0319 69.6686Z" fill="black" fill-opacity="0.6"/>
      <path d="M92.8131 69.6686C90.2054 66.01 83.0562 63.9584 76.898 65.4663C76.1835 65.6412 75.462 65.2055 75.2865 64.4931C75.111 63.7806 75.548 63.0613 76.2626 62.8863C83.4143 61.1352 91.6928 63.5109 94.9849 68.1297C95.4111 68.7277 95.2705 69.5569 94.6707 69.9819C94.071 70.4069 93.2393 70.2666 92.8131 69.6686Z" fill="black" fill-opacity="0.6"/>
      <mask id="mask14_136_2843" style="mask-type:luminance" maskUnits="userSpaceOnUse" x="-23" y="3" width="177" height="187">
        <path d="M153.848 3.81201H-22.0035V189.775H153.848V3.81201Z" fill="white"/>
      </mask>
      <g mask="url(#mask14_136_2843)">
        <path fill-rule="evenodd" clip-rule="evenodd" d="M17.9628 118.406V59.6316C17.9628 57.2857 18.228 55.0015 18.7301 52.8073C20.7638 39.4979 28.4708 28.9242 37.2799 22.4082C50.5384 12.6055 72.8778 9.77712 80.608 21.4267C86.3707 18.8756 94.9106 21.2008 101.226 27.0573C107.597 33.3103 112.683 47.113 109.657 58.4077C109.727 59.2483 109.762 60.0984 109.762 60.9563V75.4689C109.175 72.1656 106.547 69.5651 103.224 69.0092V68.899C99.2035 54.5959 87.3906 48.0313 80.1968 41.5207C68.9434 54.0706 33.8312 54.1148 21.9594 78.8614V85.5029C21.9594 89.5002 24.9109 92.8102 28.7594 93.3846C29.9206 106.832 38.2585 118.234 49.9359 123.766V124.024C51.8878 153.15 45.5119 189.641 3.97461 178.485C13.0375 173.196 17.835 139.336 17.9628 118.406ZM81.9089 123.766C93.5862 118.234 101.924 106.832 103.085 93.3846C106.474 92.8788 109.167 90.2522 109.762 86.9029V87.8078C109.762 98.3201 112.265 108.682 117.065 118.042L135.015 153.048C139.653 162.093 138.292 172.622 132.393 180.124C130.512 155.431 109.821 135.979 84.5733 135.979H81.9089V123.766Z" fill="#272C2E"/>
        <mask id="mask15_136_2843" style="mask-type:luminance" maskUnits="userSpaceOnUse" x="3" y="13" width="135" height="168">
          <path fill-rule="evenodd" clip-rule="evenodd" d="M17.9628 118.406V59.6316C17.9628 57.2857 18.228 55.0015 18.7301 52.8073C20.7638 39.4979 28.4708 28.9242 37.2799 22.4082C50.5384 12.6055 72.8778 9.77712 80.608 21.4267C86.3707 18.8756 94.9106 21.2008 101.226 27.0573C107.597 33.3103 112.683 47.113 109.657 58.4077C109.727 59.2483 109.762 60.0984 109.762 60.9563V75.4689C109.175 72.1656 106.547 69.5651 103.224 69.0092V68.899C99.2035 54.5959 87.3906 48.0313 80.1968 41.5207C68.9434 54.0706 33.8312 54.1148 21.9594 78.8614V85.5029C21.9594 89.5002 24.9109 92.8102 28.7594 93.3846C29.9206 106.832 38.2585 118.234 49.9359 123.766V124.024C51.8878 153.15 45.5119 189.641 3.97461 178.485C13.0375 173.196 17.835 139.336 17.9628 118.406ZM81.9089 123.766C93.5862 118.234 101.924 106.832 103.085 93.3846C106.474 92.8788 109.167 90.2522 109.762 86.9029V87.8078C109.762 98.3201 112.265 108.682 117.065 118.042L135.015 153.048C139.653 162.093 138.292 172.622 132.393 180.124C130.512 155.431 109.821 135.979 84.5733 135.979H81.9089V123.766Z" fill="white"/>
        </mask>
        <g mask="url(#mask15_136_2843)">
          <path d="M179.826 13.7744H3.97461V199.738H179.826V13.7744Z" fill="#4A312C"/>
        </g>
        <path fill-rule="evenodd" clip-rule="evenodd" d="M21.9595 78.8612C33.8312 57.3855 68.9434 57.3472 80.1968 46.456C87.376 52.0946 99.1555 56.457 103.2 68.8117C99.1555 54.5691 87.376 48.0179 80.1968 41.5205C68.9434 54.0705 33.8312 54.1147 21.9595 78.8612Z" fill="black" fill-opacity="0.16"/>
      </g>
      <ellipse cx="43.6079" cy="189.443" rx="2.33137" ry="2.32454" fill="#F4F4F4"/>
    </g>
    <circle cx="65.9918" cy="162.438" r="13.7045" fill="#A6D5AF"/>
    <path fill-rule="evenodd" clip-rule="evenodd" d="M74.2358 158.501L63.6421 169.094L58.3779 163.83L60.5313 161.677L63.6421 164.787L72.0824 156.347L74.2358 158.501Z" fill="#094316"/>
    <path d="M65.9435 134.064L65.9435 145.066" stroke="#094316" stroke-width="3" stroke-linecap="round"/>
    <path d="M86.2258 151.483L80.6115 154.725" stroke="#094316" stroke-width="3" stroke-linecap="round"/>
    <path d="M79.6943 142.314L75.1102 148.298" stroke="#094316" stroke-width="3" stroke-linecap="round"/>
    <path d="M45.7742 151.483L51.3885 154.725" stroke="#094316" stroke-width="3" stroke-linecap="round"/>
    <path d="M52.305 142.314L56.8891 148.298" stroke="#094316" stroke-width="3" stroke-linecap="round"/>
  </g>
  <rect x="111.715" y="213.281" width="6.60228" height="13.2046" transform="rotate(90 111.715 213.281)" fill="#4480BF" fill-opacity="0.7"/>
  <circle cx="105.113" cy="213.281" r="6.60228" transform="rotate(90 105.113 213.281)" fill="#4480BF" fill-opacity="0.7"/>
  <rect x="98.5109" y="206.678" width="13.2046" height="14.525" transform="rotate(90 98.5109 206.678)" fill="#4480BF" fill-opacity="0.7"/>
  <circle cx="90.9996" cy="208.005" r="6.93358" transform="rotate(90 90.9996 208.005)" fill="#4480BF" fill-opacity="0.7"/>
  <rect x="83.9859" y="205.358" width="14.525" height="13.2046" transform="rotate(90 83.9859 205.358)" fill="#4480BF" fill-opacity="0.7"/>
  <circle cx="77.1324" cy="205.033" r="6.93358" transform="rotate(90 77.1324 205.033)" fill="#4480BF" fill-opacity="0.7"/>
  <rect x="70.7814" y="174.987" width="44.8955" height="14.525" transform="rotate(90 70.7814 174.987)" fill="#4480BF" fill-opacity="0.7"/>
  <circle cx="63.2653" cy="175.318" r="6.93358" transform="rotate(90 63.2653 175.318)" fill="#4480BF" fill-opacity="0.7"/>
  <mask id="mask16_136_2843" style="mask-type:alpha" maskUnits="userSpaceOnUse" x="38" y="208" width="19" height="20">
    <path d="M49.3943 208.5L56.8128 221.349L45.7405 227.742L38.3221 214.893L49.3943 208.5Z" fill="#D08B5B"/>
  </mask>
  <g mask="url(#mask16_136_2843)">
    <rect x="37.7701" y="205.357" width="19.8068" height="14.525" fill="#4480BF" fill-opacity="0.7"/>
  </g>
  <circle cx="43.8614" cy="211.703" r="6.39258" transform="rotate(60 43.8614 211.703)" fill="#4480BF" fill-opacity="0.7"/>
  <rect x="114.441" y="213.618" width="6.9336" height="13.8672" transform="rotate(90 114.441 213.618)" fill="#D08B5B"/>
  <circle cx="107.508" cy="213.618" r="6.93358" transform="rotate(90 107.508 213.618)" fill="#D08B5B"/>
  <rect x="100.574" y="206.686" width="13.8672" height="13.8672" transform="rotate(90 100.574 206.686)" fill="#D08B5B"/>
  <circle cx="93.6406" cy="206.685" r="6.93358" transform="rotate(90 93.6406 206.685)" fill="#D08B5B"/>
  <rect x="86.707" y="203.713" width="16.8387" height="13.8672" transform="rotate(90 86.707 203.713)" fill="#D08B5B"/>
  <circle cx="79.7734" cy="203.713" r="6.93358" transform="rotate(90 79.7734 203.713)" fill="#D08B5B"/>
  <rect x="72.84" y="173.999" width="46.5542" height="13.8672" transform="rotate(90 72.84 173.999)" fill="#D08B5B"/>
  <circle cx="65.9064" cy="173.998" r="6.93358" transform="rotate(90 65.9064 173.998)" fill="#D08B5B"/>
  <circle cx="65.9062" cy="173.998" r="4.74403" transform="rotate(90 65.9062 173.998)" fill="#AF754C"/>
  <mask id="mask17_136_2843" style="mask-type:alpha" maskUnits="userSpaceOnUse" x="40" y="207" width="20" height="20">
    <path d="M52.0353 207.18L59.4537 220.029L48.3814 226.421L40.963 213.572L52.0353 207.18Z" fill="#D08B5B"/>
  </mask>
  <g mask="url(#mask17_136_2843)">
    <rect x="40.4866" y="204.037" width="19.8068" height="15.8455" fill="#D08B5B"/>
  </g>
  <circle cx="46.5024" cy="210.382" r="6.39258" transform="rotate(60 46.5024 210.382)" fill="#D08B5B"/>
  <path d="M73.3373 209.319C73.3373 209.043 73.1135 208.819 72.8373 208.819C72.5612 208.819 72.3373 209.043 72.3373 209.319L73.3373 209.319ZM72.3373 209.319L72.3373 219.882L73.3373 219.882L73.3373 209.319L72.3373 209.319Z" fill="#AF754C"/>
  <path d="M87.2021 213.025C87.2021 212.749 86.9783 212.525 86.7021 212.525C86.426 212.525 86.2021 212.749 86.2021 213.025L87.2021 213.025ZM86.2021 213.025L86.2021 220.948L87.2021 220.948L87.2021 213.025L86.2021 213.025Z" fill="#AF754C"/>
  <path d="M101.097 216.218C101.097 215.942 100.873 215.718 100.597 215.718C100.321 215.718 100.097 215.942 100.097 216.218L101.097 216.218ZM100.097 216.218L100.097 224.141L101.097 224.141L101.097 216.218L100.097 216.218Z" fill="#AF754C"/>
  <defs>
    <clipPath id="clip0_136_2843">
      <rect width="138.387" height="216.097" fill="white" transform="translate(-3.1936 13.7417)"/>
    </clipPath>
    <clipPath id="clip1_136_2843">
      <rect width="138.387" height="216.097" fill="white" transform="translate(-3.19354 13.7744)"/>
    </clipPath>
  </defs>
</svg>
