<svg xmlns="http://www.w3.org/2000/svg" width="132" height="181" fill="none" viewBox="0 0 132 181"><path fill="#F2F9FF" stroke="#ADADAD" stroke-dasharray="2 2" d="M.674 179.19a4 4 0 0 1-.598-1.442l.49-.097a3.5 3.5 0 0 1-.066-.683v-1.006H0v-2.011h.5v-2.012H0v-2.011h.5v-2.011H0v-2.011h.5v-2.011H0v-2.012h.5v-2.011H0v-2.011h.5v-2.011H0v-2.012h.5v-2.011H0v-2.011h.5v-2.011H0v-2.012h.5v-2.011H0v-2.011h.5v-2.011H0v-2.012h.5v-2.011H0v-2.011h.5v-2.011H0v-2.012h.5v-2.011H0v-2.011h.5v-2.011H0v-2.012h.5v-2.011H0v-2.011h.5v-2.011H0v-2.012h.5v-2.011H0v-2.011h.5v-2.011H0v-2.012h.5v-2.011H0v-2.011h.5v-2.012H0v-2.01h.5v-2.012H0v-2.011h.5V91.49H0v-2.012h.5v-2.011H0v-2.011h.5v-2.011H0v-2.012h.5v-2.011H0v-2.011h.5V75.4H0v-2.012h.5v-2.011H0v-2.011h.5v-2.011H0v-2.012h.5v-2.011H0v-2.011h.5V59.31H0v-2.012h.5v-2.011H0v-2.011h.5v-2.012H0v-2.01h.5v-2.012H0V45.23h.5v-2.012H0v-2.01h.5v-2.012H0v-2.011h.5v-2.012H0v-2.01h.5v-2.012H0V29.14h.5v-2.012H0v-2.01h.5v-2.012H0v-2.011h.5v-2.012H0v-2.01h.5v-2.012H0V13.05h.5v-2.012H0V9.03h.5V7.016H0v-2.01h.5V4q0-.352.067-.684l-.49-.097c.103-.524.31-1.012.597-1.441l.415.278c.256-.382.585-.711.967-.967L1.778.674A4 4 0 0 1 3.219.076l.097.49Q3.648.502 4 .5h1V0h2v.5h2V0h2v.5h2V0h2v.5h2V0h2v.5h2V0h2v.5h2V0h2v.5h2V0h2v.5h2V0h2v.5h2V0h2v.5h2V0h2v.5h2V0h2v.5h2V0h2v.5h2V0h2v.5h2V0h2v.5h2V0h2v.5h2V0h2v.5h2V0h2v.5h2V0h2v.5h2V0h2v.5h2V0h2v.5h2V0h2v.5h2V0h2v.5h2V0h2v.5h2V0h2v.5h2V0h2v.5h2V0h2v.5h2V0h2v.5h2V0h2v.5h2V0h2v.5h2V0h2v.5h2V0h2v.5h1q.352 0 .684.067l.097-.49c.524.103 1.012.31 1.441.597l-.278.415c.382.256.711.585.967.967l.415-.278c.288.429.494.917.598 1.441l-.491.097q.067.332.067.684v1.006h.5v2.011h-.5v2.011h.5v2.011h-.5v2.012h.5v2.011h-.5v2.011h.5v2.011h-.5v2.012h.5v2.011h-.5v2.011h.5v2.012h-.5v2.01h.5v2.012h-.5v2.011h.5v2.012h-.5v2.01h.5v2.012h-.5v2.011h.5v2.011h-.5v2.012h.5v2.01h-.5v2.012h.5v2.011h-.5v2.012h.5v2.01h-.5v2.012h.5v2.011h-.5v2.012h.5v2.011h-.5v2.011h.5v2.011h-.5v2.012h.5v2.011h-.5v2.011h.5V75.4h-.5v2.012h.5v2.011h-.5v2.011h.5v2.011h-.5v2.012h.5v2.011h-.5v2.011h.5v2.012h-.5v2.01h.5v2.012h-.5v2.011h.5v2.011h-.5v2.012h.5v2.011h-.5v2.011h.5v2.012h-.5v2.011h.5v2.011h-.5v2.011h.5v2.012h-.5v2.011h.5v2.011h-.5v2.011h.5v2.012h-.5v2.011h.5v2.011h-.5v2.011h.5v2.012h-.5v2.011h.5v2.011h-.5v2.011h.5v2.012h-.5v2.011h.5v2.011h-.5v2.011h.5v2.012h-.5v2.011h.5v2.011h-.5v2.011h.5v2.012h-.5v2.011h.5v2.011h-.5v2.011h.5v2.012h-.5v2.011h.5v2.011h-.5v2.011h.5v2.012h-.5v2.011h.5v2.011h-.5v1.006q0 .352-.067.683l.491.097a4 4 0 0 1-.598 1.442l-.415-.278a3.5 3.5 0 0 1-.967.967l.278.415a4 4 0 0 1-1.441.598l-.097-.491q-.332.066-.684.067h-1v.5h-2v-.5h-2v.5h-2v-.5h-2v.5h-2v-.5h-2v.5h-2v-.5h-2v.5h-2v-.5h-2v.5h-2v-.5h-2v.5h-2v-.5h-2v.5h-2v-.5h-2v.5h-2v-.5h-2v.5h-2v-.5h-2v.5h-2v-.5h-2v.5h-2v-.5h-2v.5h-2v-.5h-2v.5h-2v-.5h-2v.5h-2v-.5h-2v.5h-2v-.5h-2v.5h-2v-.5h-2v.5h-2v-.5h-2v.5h-2v-.5h-2v.5h-2v-.5h-2v.5h-2v-.5h-2v.5h-2v-.5h-2v.5h-2v-.5h-2v.5h-2v-.5h-2v.5h-2v-.5h-2v.5h-2v-.5h-2v.5h-2v-.5h-2v.5h-2v-.5h-2v.5h-2v-.5h-2v.5H9v-.5H7v.5H5v-.5H4q-.352 0-.684-.067l-.097.491a4 4 0 0 1-1.441-.598l.278-.415a3.5 3.5 0 0 1-.967-.967z"/><mask id="a" width="132" height="181" x="0" y="0" maskUnits="userSpaceOnUse" style="mask-type:alpha"><path fill="#F2F9FF" stroke="#ADADAD" stroke-dasharray="2 2" d="M.674 179.19a4 4 0 0 1-.598-1.442l.49-.097a3.5 3.5 0 0 1-.066-.683v-1.006H0v-2.011h.5v-2.012H0v-2.011h.5v-2.011H0v-2.011h.5v-2.011H0v-2.012h.5v-2.011H0v-2.011h.5v-2.011H0v-2.012h.5v-2.011H0v-2.011h.5v-2.011H0v-2.012h.5v-2.011H0v-2.011h.5v-2.011H0v-2.012h.5v-2.011H0v-2.011h.5v-2.011H0v-2.012h.5v-2.011H0v-2.011h.5v-2.011H0v-2.012h.5v-2.011H0v-2.011h.5v-2.011H0v-2.012h.5v-2.011H0v-2.011h.5v-2.011H0v-2.012h.5v-2.011H0v-2.011h.5v-2.012H0v-2.01h.5v-2.012H0v-2.011h.5V91.49H0v-2.012h.5v-2.011H0v-2.011h.5v-2.011H0v-2.012h.5v-2.011H0v-2.011h.5V75.4H0v-2.012h.5v-2.011H0v-2.011h.5v-2.011H0v-2.012h.5v-2.011H0v-2.011h.5V59.31H0v-2.012h.5v-2.011H0v-2.011h.5v-2.012H0v-2.01h.5v-2.012H0V45.23h.5v-2.012H0v-2.01h.5v-2.012H0v-2.011h.5v-2.012H0v-2.01h.5v-2.012H0V29.14h.5v-2.012H0v-2.01h.5v-2.012H0v-2.011h.5v-2.012H0v-2.01h.5v-2.012H0V13.05h.5v-2.012H0V9.03h.5V7.016H0v-2.01h.5V4q0-.352.067-.684l-.49-.097c.103-.524.31-1.012.597-1.441l.415.278c.256-.382.585-.711.967-.967L1.778.674A4 4 0 0 1 3.219.076l.097.49Q3.648.502 4 .5h1V0h2v.5h2V0h2v.5h2V0h2v.5h2V0h2v.5h2V0h2v.5h2V0h2v.5h2V0h2v.5h2V0h2v.5h2V0h2v.5h2V0h2v.5h2V0h2v.5h2V0h2v.5h2V0h2v.5h2V0h2v.5h2V0h2v.5h2V0h2v.5h2V0h2v.5h2V0h2v.5h2V0h2v.5h2V0h2v.5h2V0h2v.5h2V0h2v.5h2V0h2v.5h2V0h2v.5h2V0h2v.5h2V0h2v.5h2V0h2v.5h2V0h2v.5h2V0h2v.5h2V0h2v.5h2V0h2v.5h1q.352 0 .684.067l.097-.49c.524.103 1.012.31 1.441.597l-.278.415c.382.256.711.585.967.967l.415-.278c.288.429.494.917.598 1.441l-.491.097q.067.332.067.684v1.006h.5v2.011h-.5v2.011h.5v2.011h-.5v2.012h.5v2.011h-.5v2.011h.5v2.011h-.5v2.012h.5v2.011h-.5v2.011h.5v2.012h-.5v2.01h.5v2.012h-.5v2.011h.5v2.012h-.5v2.01h.5v2.012h-.5v2.011h.5v2.011h-.5v2.012h.5v2.01h-.5v2.012h.5v2.011h-.5v2.012h.5v2.01h-.5v2.012h.5v2.011h-.5v2.012h.5v2.011h-.5v2.011h.5v2.011h-.5v2.012h.5v2.011h-.5v2.011h.5V75.4h-.5v2.012h.5v2.011h-.5v2.011h.5v2.011h-.5v2.012h.5v2.011h-.5v2.011h.5v2.012h-.5v2.01h.5v2.012h-.5v2.011h.5v2.011h-.5v2.012h.5v2.011h-.5v2.011h.5v2.012h-.5v2.011h.5v2.011h-.5v2.011h.5v2.012h-.5v2.011h.5v2.011h-.5v2.011h.5v2.012h-.5v2.011h.5v2.011h-.5v2.011h.5v2.012h-.5v2.011h.5v2.011h-.5v2.011h.5v2.012h-.5v2.011h.5v2.011h-.5v2.011h.5v2.012h-.5v2.011h.5v2.011h-.5v2.011h.5v2.012h-.5v2.011h.5v2.011h-.5v2.011h.5v2.012h-.5v2.011h.5v2.011h-.5v2.011h.5v2.012h-.5v2.011h.5v2.011h-.5v1.006q0 .352-.067.683l.491.097a4 4 0 0 1-.598 1.442l-.415-.278a3.5 3.5 0 0 1-.967.967l.278.415a4 4 0 0 1-1.441.598l-.097-.491q-.332.066-.684.067h-1v.5h-2v-.5h-2v.5h-2v-.5h-2v.5h-2v-.5h-2v.5h-2v-.5h-2v.5h-2v-.5h-2v.5h-2v-.5h-2v.5h-2v-.5h-2v.5h-2v-.5h-2v.5h-2v-.5h-2v.5h-2v-.5h-2v.5h-2v-.5h-2v.5h-2v-.5h-2v.5h-2v-.5h-2v.5h-2v-.5h-2v.5h-2v-.5h-2v.5h-2v-.5h-2v.5h-2v-.5h-2v.5h-2v-.5h-2v.5h-2v-.5h-2v.5h-2v-.5h-2v.5h-2v-.5h-2v.5h-2v-.5h-2v.5h-2v-.5h-2v.5h-2v-.5h-2v.5h-2v-.5h-2v.5h-2v-.5h-2v.5h-2v-.5h-2v.5h-2v-.5h-2v.5h-2v-.5h-2v.5H9v-.5H7v.5H5v-.5H4q-.352 0-.684-.067l-.097.491a4 4 0 0 1-1.441-.598l.278-.415a3.5 3.5 0 0 1-.967-.967z"/></mask><g mask="url(#a)"><g clip-path="url(#b)"><path fill="#D0C6AC" d="M81.909 122.765v12.213h2.664c26.488 0 47.96 21.41 47.96 47.82v5.977H-.688v-5.977c0-26.41 21.472-47.82 47.96-47.82h2.664v-12.213c-11.482-5.438-19.735-16.553-21.112-29.707-3.88-.547-6.865-3.872-6.865-7.891v-9.298c0-3.95 2.881-7.228 6.661-7.86v-4.095c0-20.541 16.701-37.193 37.302-37.193 20.602 0 37.302 16.652 37.302 37.193v4.095c3.781.632 6.661 3.91 6.661 7.86v9.298c0 4.02-2.984 7.344-6.864 7.89-1.377 13.155-9.63 24.27-21.112 29.708"/><mask id="c" width="134" height="163" x="-1" y="26" maskUnits="userSpaceOnUse" style="mask-type:luminance"><path fill="#fff" d="M81.909 122.765v12.213h2.664c26.488 0 47.96 21.41 47.96 47.82v5.977H-.688v-5.977c0-26.41 21.472-47.82 47.96-47.82h2.664v-12.213c-11.482-5.438-19.735-16.553-21.112-29.707-3.88-.547-6.865-3.872-6.865-7.891v-9.298c0-3.95 2.881-7.228 6.661-7.86v-4.095c0-20.541 16.701-37.193 37.302-37.193 20.602 0 37.302 16.652 37.302 37.193v4.095c3.781.632 6.661 3.91 6.661 7.86v9.298c0 4.02-2.984 7.344-6.864 7.89-1.377 13.155-9.63 24.27-21.112 29.708"/></mask><g mask="url(#c)"><path fill="#D08B5B" d="M175.164 26.721H-.688v185.964h175.852z"/></g><mask id="d" width="134" height="163" x="-1" y="26" maskUnits="userSpaceOnUse" style="mask-type:luminance"><path fill="#fff" d="M81.909 122.765v12.213h2.664c26.488 0 47.96 21.41 47.96 47.82v5.977H-.688v-5.977c0-26.41 21.472-47.82 47.96-47.82h2.664v-12.213c-11.482-5.438-19.735-16.553-21.112-29.707-3.88-.547-6.865-3.872-6.865-7.891v-9.298c0-3.95 2.881-7.228 6.661-7.86v-4.095c0-20.541 16.701-37.193 37.302-37.193 20.602 0 37.302 16.652 37.302 37.193v4.095c3.781.632 6.661 3.91 6.661 7.86v9.298c0 4.02-2.984 7.344-6.864 7.89-1.377 13.155-9.63 24.27-21.112 29.708"/></mask><g mask="url(#d)"><path fill="#000" fill-opacity=".1" fill-rule="evenodd" d="M103.224 79.19v15.275c0 20.541-16.7 37.193-37.302 37.193-20.601 0-37.302-16.652-37.302-37.193V79.189v9.963c0 20.541 16.701 37.192 37.302 37.192 20.602 0 37.302-16.651 37.302-37.192z" clip-rule="evenodd"/></g><path fill="#B7C1DB" fill-rule="evenodd" d="M49.936 124.399c-11.936 1.332-21.13 4.968-21.313 14.328C11.4 145.982-.688 162.982-.688 182.797v5.978h133.221v-5.978c0-19.815-12.088-36.815-29.312-44.07-.183-9.36-9.376-12.996-21.312-14.328v12.572c0 8.803-7.158 15.939-15.987 15.939s-15.986-7.136-15.986-15.939z" clip-rule="evenodd"/><mask id="e" width="134" height="65" x="-1" y="124" maskUnits="userSpaceOnUse" style="mask-type:luminance"><path fill="#fff" fill-rule="evenodd" d="M49.936 124.399c-11.936 1.332-21.13 4.968-21.313 14.328C11.4 145.982-.688 162.982-.688 182.797v5.978h133.221v-5.978c0-19.815-12.088-36.815-29.312-44.07-.183-9.36-9.376-12.996-21.312-14.328v12.572c0 8.803-7.158 15.939-15.987 15.939s-15.986-7.136-15.986-15.939z" clip-rule="evenodd"/></mask><g mask="url(#e)"><path fill="#5199E4" d="M153.848 115.718H-22.004v73.057h175.852z"/></g><mask id="f" width="134" height="65" x="-1" y="124" maskUnits="userSpaceOnUse" style="mask-type:luminance"><path fill="#fff" fill-rule="evenodd" d="M49.936 124.399c-11.936 1.332-21.13 4.968-21.313 14.328C11.4 145.982-.688 162.982-.688 182.797v5.978h133.221v-5.978c0-19.815-12.088-36.815-29.312-44.07-.183-9.36-9.376-12.996-21.312-14.328v12.572c0 8.803-7.158 15.939-15.987 15.939s-15.986-7.136-15.986-15.939z" clip-rule="evenodd"/></mask><g mask="url(#f)"><path fill="#F4F4F4" fill-rule="evenodd" d="M45.94 156.722v32.053h-4.664v-34.437a43 43 0 0 0 4.663 2.384m44.628-2.384v26.799a2.327 2.327 0 0 1-2.331 2.324 2.327 2.327 0 0 1-2.332-2.324v-24.415a43 43 0 0 0 4.663-2.384" clip-rule="evenodd"/></g><mask id="g" width="134" height="65" x="-1" y="124" maskUnits="userSpaceOnUse" style="mask-type:luminance"><path fill="#fff" fill-rule="evenodd" d="M49.936 124.399c-11.936 1.332-21.13 4.968-21.313 14.328C11.4 145.982-.688 162.982-.688 182.797v5.978h133.221v-5.978c0-19.815-12.088-36.815-29.312-44.07-.183-9.36-9.376-12.996-21.312-14.328v12.572c0 8.803-7.158 15.939-15.987 15.939s-15.986-7.136-15.986-15.939z" clip-rule="evenodd"/></mask><g mask="url(#g)"><path fill="#000" fill-opacity=".16" fill-rule="evenodd" d="M38.586 124.169c-10.026 1.891-16.96 5.658-16.96 13.006 0 13.092 22.007 23.706 44.296 23.706 22.29 0 44.296-10.614 44.296-23.706 0-7.348-6.933-11.115-16.959-13.006 6.052 2.225 9.965 5.965 9.965 12.189 0 13.543-18.532 24.523-37.302 24.523s-37.302-10.98-37.302-24.523c0-6.224 3.914-9.964 9.966-12.189" clip-rule="evenodd"/></g><path fill="#000" fill-opacity=".7" d="M71.917 103.763h-11.99a1.995 1.995 0 0 0-1.998 1.993c0 1.1.895 1.992 1.998 1.992h11.99a1.995 1.995 0 0 0 1.999-1.992 1.995 1.995 0 0 0-1.999-1.993"/><path fill="#000" fill-opacity=".16" fill-rule="evenodd" d="M57.93 89.152c0 2.934 3.578 5.313 7.992 5.313 4.415 0 7.994-2.379 7.994-5.313" clip-rule="evenodd"/><path fill="#000" fill-opacity=".6" d="M48.604 81.182a3.99 3.99 0 0 0 3.996-3.985 3.99 3.99 0 0 0-3.996-3.985 3.99 3.99 0 0 0-3.997 3.985 3.99 3.99 0 0 0 3.997 3.985m34.637 0a3.99 3.99 0 0 0 3.997-3.985 3.99 3.99 0 0 0-3.997-3.985 3.99 3.99 0 0 0-3.997 3.985 3.99 3.99 0 0 0 3.997 3.985M39.032 68.668c2.608-3.659 9.757-5.71 15.915-4.202a1.328 1.328 0 1 0 .635-2.58c-7.151-1.751-15.43.624-18.722 5.243a1.326 1.326 0 0 0 .314 1.852c.6.425 1.432.285 1.858-.313m53.781 0c-2.608-3.659-9.757-5.71-15.915-4.202a1.328 1.328 0 1 1-.635-2.58c7.151-1.751 15.43.624 18.722 5.243a1.326 1.326 0 0 1-.314 1.852c-.6.425-1.432.285-1.858-.313"/><mask id="h" width="177" height="187" x="-23" y="2" maskUnits="userSpaceOnUse" style="mask-type:luminance"><path fill="#fff" d="M153.848 2.812H-22.004v185.963h175.852z"/></mask><g mask="url(#h)"><path fill="#272C2E" fill-rule="evenodd" d="M17.963 117.405V58.631c0-2.346.265-4.63.767-6.824 2.034-13.31 9.74-23.883 18.55-30.399 13.258-9.803 35.598-12.631 43.328-.982 5.763-2.55 14.303-.225 20.618 5.631 6.371 6.253 11.457 20.056 8.431 31.35q.105 1.261.105 2.55v14.512a7.99 7.99 0 0 0-6.538-6.46v-.11C99.204 53.596 87.391 47.03 80.197 40.52 68.943 53.07 33.83 53.115 21.959 77.861v6.642c0 3.997 2.952 7.307 6.8 7.881 1.162 13.448 9.5 24.85 21.177 30.381v.259c1.952 29.126-4.424 65.616-45.961 54.46 9.062-5.288 13.86-39.148 13.988-60.079m63.946 5.36c11.677-5.531 20.015-16.933 21.176-30.38a7.99 7.99 0 0 0 6.677-6.482v.904a66.25 66.25 0 0 0 7.303 30.235l17.95 35.006c4.638 9.045 3.277 19.574-2.622 27.076-1.881-24.693-22.572-44.146-47.82-44.146H81.91z" clip-rule="evenodd"/><mask id="i" width="135" height="168" x="3" y="12" maskUnits="userSpaceOnUse" style="mask-type:luminance"><path fill="#fff" fill-rule="evenodd" d="M17.963 117.405V58.631c0-2.346.265-4.63.767-6.824 2.034-13.31 9.74-23.883 18.55-30.399 13.258-9.803 35.598-12.631 43.328-.982 5.763-2.55 14.303-.225 20.618 5.631 6.371 6.253 11.457 20.056 8.431 31.35q.105 1.261.105 2.55v14.512a7.99 7.99 0 0 0-6.538-6.46v-.11C99.204 53.596 87.391 47.03 80.197 40.52 68.943 53.07 33.83 53.115 21.959 77.861v6.642c0 3.997 2.952 7.307 6.8 7.881 1.162 13.448 9.5 24.85 21.177 30.381v.259c1.952 29.126-4.424 65.616-45.961 54.46 9.062-5.288 13.86-39.148 13.988-60.079m63.946 5.36c11.677-5.531 20.015-16.933 21.176-30.38a7.99 7.99 0 0 0 6.677-6.482v.904a66.25 66.25 0 0 0 7.303 30.235l17.95 35.006c4.638 9.045 3.277 19.574-2.622 27.076-1.881-24.693-22.572-44.146-47.82-44.146H81.91z" clip-rule="evenodd"/></mask><g mask="url(#i)"><path fill="#4A312C" d="M179.826 12.774H3.975v185.963h175.851z"/></g><path fill="#000" fill-opacity=".16" fill-rule="evenodd" d="M21.96 77.861c11.87-21.476 46.982-21.514 58.236-32.405 7.179 5.639 18.958 10.001 23.003 22.356-4.045-14.243-15.824-20.794-23.003-27.291C68.943 53.07 33.83 53.115 21.959 77.86" clip-rule="evenodd"/></g></g><path stroke="#04B027" stroke-width="5" d="M66 139.822c30.076 0 53.597-30.005 53.597-65.838C119.597 38.15 96.076 8.145 66 8.145c-30.075 0-53.597 30.005-53.597 65.839 0 35.833 23.522 65.838 53.597 65.838Z"/></g><defs><clipPath id="b"><path fill="#fff" d="M-3.194 12.774h138.387V228.87H-3.194z"/></clipPath></defs></svg>