<svg width="132" height="181" viewBox="0 0 132 181" fill="none" xmlns="http://www.w3.org/2000/svg">
  <path d="M0.673739 179.19C0.386419 178.761 0.179953 178.273 0.076136 177.748L0.56663 177.651C0.52297 177.431 0.5 177.202 0.5 176.968V175.962H0V173.951H0.5V171.939H0V169.928H0.5V167.917H0V165.906H0.5V163.895H0V161.883H0.5V159.872H0V157.861H0.5V155.85H0V153.838H0.5V151.827H0V149.816H0.5V147.805H0V145.793H0.5V143.782H0V141.771H0.5V139.76H0V137.748H0.5V135.737H0V133.726H0.5V131.715H0V129.703H0.5V127.692H0V125.681H0.5V123.67H0V121.658H0.5V119.647H0V117.636H0.5V115.625H0V113.613H0.5V111.602H0V109.591H0.5V107.58H0V105.568H0.5V103.557H0V101.546H0.5V99.5345H0V97.5233H0.5V95.512H0V93.5008H0.5V91.4895H0V89.4783H0.5V87.467H0V85.4558H0.5V83.4445H0V81.4333H0.5V79.422H0V77.4107H0.5V75.3995H0V73.3882H0.5V71.377H0V69.3657H0.5V67.3545H0V65.3432H0.5V63.332H0V61.3207H0.5V59.3095H0V57.2982H0.5V55.287H0V53.2757H0.5V51.2645H0V49.2532H0.5V47.2419H0V45.2307H0.5V43.2194H0V41.2082H0.5V39.1969H0V37.1857H0.5V35.1744H0V33.1632H0.5V31.1519H0V29.1407H0.5V27.1294H0V25.1182H0.5V23.1069H0V21.0956H0.5V19.0844H0V17.0731H0.5V15.0619H0V13.0506H0.5V11.0394H0V9.02813H0.5V7.01688H0V5.00562H0.5V4C0.5 3.76561 0.52297 3.53708 0.56663 3.31638L0.0761362 3.21935C0.179953 2.69457 0.386418 2.2067 0.673738 1.77754L1.08922 2.0557C1.34489 1.6738 1.6738 1.34489 2.0557 1.08922L1.77754 0.673738C2.2067 0.386418 2.69457 0.179953 3.21935 0.0761361L3.31639 0.56663C3.53708 0.52297 3.76561 0.5 4 0.5H5V0H7V0.5H9V0H11V0.5H13V0H15V0.5H17V0H19V0.5H21V0H23V0.5H25V0H27V0.5H29V0H31V0.5H33V0H35V0.5H37V0H39V0.5H41V0H43V0.5H45V0H47V0.5H49V0H51V0.5H53V0H55V0.5H57V0H59V0.5H61V0H63V0.5H65V0H67V0.5H69V0H71V0.5H73V0H75V0.5H77V0H79V0.5H81V0H83V0.5H85V0H87V0.5H89V0H91V0.5H93V0H95V0.5H97V0H99V0.5H101V0H103V0.5H105V0H107V0.5H109V0H111V0.5H113V0H115V0.5H117V0H119V0.5H121V0H123V0.5H125V0H127V0.5H128C128.234 0.5 128.463 0.52297 128.684 0.56663L128.781 0.0761362C129.305 0.179953 129.793 0.386419 130.222 0.67374L129.944 1.08922C130.326 1.3449 130.655 1.6738 130.911 2.0557L131.326 1.77754C131.614 2.2067 131.82 2.69457 131.924 3.21935L131.433 3.31639C131.477 3.53708 131.5 3.76561 131.5 4V5.00578H132V7.01703H131.5V9.02828H132V11.0395H131.5V13.0508H132V15.062H131.5V17.0733H132V19.0845H131.5V21.0958H132V23.107H131.5V25.1182H132V27.1295H131.5V29.1407H132V31.152H131.5V33.1632H132V35.1745H131.5V37.1857H132V39.197H131.5V41.2082H132V43.2195H131.5V45.2307H132V47.2419H131.5V49.2532H132V51.2644H131.5V53.2757H132V55.2869H131.5V57.2982H132V59.3095H131.5V61.3207H132V63.332H131.5V65.3432H132V67.3545H131.5V69.3657H132V71.377H131.5V73.3882H132V75.3995H131.5V77.4107H132V79.422H131.5V81.4332H132V83.4445H131.5V85.4557H132V87.467H131.5V89.4783H132V91.4895H131.5V93.5008H132V95.512H131.5V97.5233H132V99.5345H131.5V101.546H132V103.557H131.5V105.568H132V107.58H131.5V109.591H132V111.602H131.5V113.613H132V115.625H131.5V117.636H132V119.647H131.5V121.658H132V123.67H131.5V125.681H132V127.692H131.5V129.703H132V131.715H131.5V133.726H132V135.737H131.5V137.748H132V139.76H131.5V141.771H132V143.782H131.5V145.793H132V147.805H131.5V149.816H132V151.827H131.5V153.838H132V155.85H131.5V157.861H132V159.872H131.5V161.883H132V163.895H131.5V165.906H132V167.917H131.5V169.928H132V171.94H131.5V173.951H132V175.962H131.5V176.968C131.5 177.202 131.477 177.431 131.433 177.651L131.924 177.748C131.82 178.273 131.614 178.761 131.326 179.19L130.911 178.912C130.655 179.294 130.326 179.623 129.944 179.879L130.222 180.294C129.793 180.581 129.305 180.788 128.781 180.892L128.684 180.401C128.463 180.445 128.234 180.468 128 180.468H127V180.968H125V180.468H123V180.968H121V180.468H119V180.968H117V180.468H115V180.968H113V180.468H111V180.968H109V180.468H107V180.968H105V180.468H103V180.968H101V180.468H99V180.968H97V180.468H95V180.968H93V180.468H91V180.968H89V180.468H87V180.968H85V180.468H83V180.968H81V180.468H79V180.968H77V180.468H75V180.968H73V180.468H71V180.968H69V180.468H67V180.968H65V180.468H63V180.968H61V180.468H59V180.968H57V180.468H55V180.968H53V180.468H51V180.968H49V180.468H47V180.968H45V180.468H43V180.968H41V180.468H39V180.968H37V180.468H35V180.968H33V180.468H31V180.968H29V180.468H27V180.968H25V180.468H23V180.968H21V180.468H19V180.968H17V180.468H15V180.968H13V180.468H11V180.968H9V180.468H7V180.968H5V180.468H4C3.76561 180.468 3.53708 180.445 3.31638 180.401L3.21935 180.892C2.69457 180.788 2.2067 180.581 1.77754 180.294L2.0557 179.879C1.6738 179.623 1.34489 179.294 1.08922 178.912L0.673739 179.19Z" fill="#F2F9FF" stroke="#ADADAD" stroke-dasharray="2 2"/>
  <mask id="mask0_136_2724" style="mask-type:alpha" maskUnits="userSpaceOnUse" x="0" y="0" width="132" height="181">
    <path d="M0.673739 179.19C0.386419 178.761 0.179953 178.273 0.076136 177.748L0.56663 177.651C0.52297 177.431 0.5 177.202 0.5 176.968V175.962H0V173.951H0.5V171.939H0V169.928H0.5V167.917H0V165.906H0.5V163.895H0V161.883H0.5V159.872H0V157.861H0.5V155.85H0V153.838H0.5V151.827H0V149.816H0.5V147.805H0V145.793H0.5V143.782H0V141.771H0.5V139.76H0V137.748H0.5V135.737H0V133.726H0.5V131.715H0V129.703H0.5V127.692H0V125.681H0.5V123.67H0V121.658H0.5V119.647H0V117.636H0.5V115.625H0V113.613H0.5V111.602H0V109.591H0.5V107.58H0V105.568H0.5V103.557H0V101.546H0.5V99.5345H0V97.5233H0.5V95.512H0V93.5008H0.5V91.4895H0V89.4783H0.5V87.467H0V85.4558H0.5V83.4445H0V81.4333H0.5V79.422H0V77.4107H0.5V75.3995H0V73.3882H0.5V71.377H0V69.3657H0.5V67.3545H0V65.3432H0.5V63.332H0V61.3207H0.5V59.3095H0V57.2982H0.5V55.287H0V53.2757H0.5V51.2645H0V49.2532H0.5V47.2419H0V45.2307H0.5V43.2194H0V41.2082H0.5V39.1969H0V37.1857H0.5V35.1744H0V33.1632H0.5V31.1519H0V29.1407H0.5V27.1294H0V25.1182H0.5V23.1069H0V21.0956H0.5V19.0844H0V17.0731H0.5V15.0619H0V13.0506H0.5V11.0394H0V9.02813H0.5V7.01688H0V5.00562H0.5V4C0.5 3.76561 0.52297 3.53708 0.56663 3.31638L0.0761362 3.21935C0.179953 2.69457 0.386418 2.2067 0.673738 1.77754L1.08922 2.0557C1.34489 1.6738 1.6738 1.34489 2.0557 1.08922L1.77754 0.673738C2.2067 0.386418 2.69457 0.179953 3.21935 0.0761361L3.31639 0.56663C3.53708 0.52297 3.76561 0.5 4 0.5H5V0H7V0.5H9V0H11V0.5H13V0H15V0.5H17V0H19V0.5H21V0H23V0.5H25V0H27V0.5H29V0H31V0.5H33V0H35V0.5H37V0H39V0.5H41V0H43V0.5H45V0H47V0.5H49V0H51V0.5H53V0H55V0.5H57V0H59V0.5H61V0H63V0.5H65V0H67V0.5H69V0H71V0.5H73V0H75V0.5H77V0H79V0.5H81V0H83V0.5H85V0H87V0.5H89V0H91V0.5H93V0H95V0.5H97V0H99V0.5H101V0H103V0.5H105V0H107V0.5H109V0H111V0.5H113V0H115V0.5H117V0H119V0.5H121V0H123V0.5H125V0H127V0.5H128C128.234 0.5 128.463 0.52297 128.684 0.56663L128.781 0.0761362C129.305 0.179953 129.793 0.386419 130.222 0.67374L129.944 1.08922C130.326 1.3449 130.655 1.6738 130.911 2.0557L131.326 1.77754C131.614 2.2067 131.82 2.69457 131.924 3.21935L131.433 3.31639C131.477 3.53708 131.5 3.76561 131.5 4V5.00578H132V7.01703H131.5V9.02828H132V11.0395H131.5V13.0508H132V15.062H131.5V17.0733H132V19.0845H131.5V21.0958H132V23.107H131.5V25.1182H132V27.1295H131.5V29.1407H132V31.152H131.5V33.1632H132V35.1745H131.5V37.1857H132V39.197H131.5V41.2082H132V43.2195H131.5V45.2307H132V47.2419H131.5V49.2532H132V51.2644H131.5V53.2757H132V55.2869H131.5V57.2982H132V59.3095H131.5V61.3207H132V63.332H131.5V65.3432H132V67.3545H131.5V69.3657H132V71.377H131.5V73.3882H132V75.3995H131.5V77.4107H132V79.422H131.5V81.4332H132V83.4445H131.5V85.4557H132V87.467H131.5V89.4783H132V91.4895H131.5V93.5008H132V95.512H131.5V97.5233H132V99.5345H131.5V101.546H132V103.557H131.5V105.568H132V107.58H131.5V109.591H132V111.602H131.5V113.613H132V115.625H131.5V117.636H132V119.647H131.5V121.658H132V123.67H131.5V125.681H132V127.692H131.5V129.703H132V131.715H131.5V133.726H132V135.737H131.5V137.748H132V139.76H131.5V141.771H132V143.782H131.5V145.793H132V147.805H131.5V149.816H132V151.827H131.5V153.838H132V155.85H131.5V157.861H132V159.872H131.5V161.883H132V163.895H131.5V165.906H132V167.917H131.5V169.928H132V171.94H131.5V173.951H132V175.962H131.5V176.968C131.5 177.202 131.477 177.431 131.433 177.651L131.924 177.748C131.82 178.273 131.614 178.761 131.326 179.19L130.911 178.912C130.655 179.294 130.326 179.623 129.944 179.879L130.222 180.294C129.793 180.581 129.305 180.788 128.781 180.892L128.684 180.401C128.463 180.445 128.234 180.468 128 180.468H127V180.968H125V180.468H123V180.968H121V180.468H119V180.968H117V180.468H115V180.968H113V180.468H111V180.968H109V180.468H107V180.968H105V180.468H103V180.968H101V180.468H99V180.968H97V180.468H95V180.968H93V180.468H91V180.968H89V180.468H87V180.968H85V180.468H83V180.968H81V180.468H79V180.968H77V180.468H75V180.968H73V180.468H71V180.968H69V180.468H67V180.968H65V180.468H63V180.968H61V180.468H59V180.968H57V180.468H55V180.968H53V180.468H51V180.968H49V180.468H47V180.968H45V180.468H43V180.968H41V180.468H39V180.968H37V180.468H35V180.968H33V180.468H31V180.968H29V180.468H27V180.968H25V180.468H23V180.968H21V180.468H19V180.968H17V180.468H15V180.968H13V180.468H11V180.968H9V180.468H7V180.968H5V180.468H4C3.76561 180.468 3.53708 180.445 3.31638 180.401L3.21935 180.892C2.69457 180.788 2.2067 180.581 1.77754 180.294L2.0557 179.879C1.6738 179.623 1.34489 179.294 1.08922 178.912L0.673739 179.19Z" fill="#F2F9FF" stroke="#ADADAD" stroke-dasharray="2 2"/>
  </mask>
  <g mask="url(#mask0_136_2724)">
    <g clip-path="url(#clip0_136_2724)">
      <path d="M81.9088 122.765V134.978H84.5733C111.061 134.978 132.533 156.388 132.533 182.798V188.775H-0.688171V182.798C-0.688171 156.388 20.7841 134.978 47.2714 134.978H49.9358V122.765C38.4539 117.327 30.2006 106.212 28.8237 93.0578C24.9438 92.5109 21.9594 89.1864 21.9594 85.1668V75.8687C21.9594 71.9196 24.84 68.6414 28.6204 68.009V63.9139C28.6204 43.3729 45.3211 26.7212 65.9223 26.7212C86.5236 26.7212 103.224 43.3729 103.224 63.9139V68.009C107.005 68.6414 109.885 71.9196 109.885 75.8687V85.1668C109.885 89.1864 106.901 92.5109 103.021 93.0578C101.644 106.212 93.3907 117.327 81.9088 122.765Z" fill="#D0C6AC"/>
      <mask id="mask1_136_2724" style="mask-type:luminance" maskUnits="userSpaceOnUse" x="-1" y="26" width="134" height="163">
        <path d="M81.9088 122.765V134.978H84.5733C111.061 134.978 132.533 156.388 132.533 182.798V188.775H-0.688171V182.798C-0.688171 156.388 20.7841 134.978 47.2714 134.978H49.9358V122.765C38.4539 117.327 30.2006 106.212 28.8237 93.0578C24.9438 92.5109 21.9594 89.1864 21.9594 85.1668V75.8687C21.9594 71.9196 24.84 68.6414 28.6204 68.009V63.9139C28.6204 43.3729 45.3211 26.7212 65.9223 26.7212C86.5236 26.7212 103.224 43.3729 103.224 63.9139V68.009C107.005 68.6414 109.885 71.9196 109.885 75.8687V85.1668C109.885 89.1864 106.901 92.5109 103.021 93.0578C101.644 106.212 93.3907 117.327 81.9088 122.765Z" fill="white"/>
      </mask>
      <g mask="url(#mask1_136_2724)">
        <path d="M175.164 26.7212H-0.688171V212.685H175.164V26.7212Z" fill="#D08B5B"/>
      </g>
      <mask id="mask2_136_2724" style="mask-type:luminance" maskUnits="userSpaceOnUse" x="-1" y="26" width="134" height="163">
        <path d="M81.9088 122.765V134.978H84.5733C111.061 134.978 132.533 156.388 132.533 182.798V188.775H-0.688171V182.798C-0.688171 156.388 20.7841 134.978 47.2714 134.978H49.9358V122.765C38.4539 117.327 30.2006 106.212 28.8237 93.0578C24.9438 92.5109 21.9594 89.1864 21.9594 85.1668V75.8687C21.9594 71.9196 24.84 68.6414 28.6204 68.009V63.9139C28.6204 43.3729 45.3211 26.7212 65.9223 26.7212C86.5236 26.7212 103.224 43.3729 103.224 63.9139V68.009C107.005 68.6414 109.885 71.9196 109.885 75.8687V85.1668C109.885 89.1864 106.901 92.5109 103.021 93.0578C101.644 106.212 93.3907 117.327 81.9088 122.765Z" fill="white"/>
      </mask>
      <g mask="url(#mask2_136_2724)">
        <path fill-rule="evenodd" clip-rule="evenodd" d="M103.224 79.1895V94.465C103.224 115.006 86.5235 131.658 65.9223 131.658C45.321 131.658 28.6204 115.006 28.6204 94.465V79.1895V89.1518C28.6204 109.693 45.321 126.344 65.9223 126.344C86.5235 126.344 103.224 109.693 103.224 89.1518V79.1895Z" fill="black" fill-opacity="0.1"/>
      </g>
      <path fill-rule="evenodd" clip-rule="evenodd" d="M49.9358 124.399C38.0001 125.731 28.8069 129.367 28.6232 138.727C11.3993 145.982 -0.688171 162.982 -0.688171 182.797V188.775H132.533V182.797C132.533 162.982 120.445 145.982 103.221 138.727C103.038 129.367 93.8446 125.731 81.9088 124.399V136.971C81.9088 145.774 74.7514 152.91 65.9223 152.91C57.0932 152.91 49.9358 145.774 49.9358 136.971V124.399Z" fill="#B7C1DB"/>
      <mask id="mask3_136_2724" style="mask-type:luminance" maskUnits="userSpaceOnUse" x="-1" y="124" width="134" height="65">
        <path fill-rule="evenodd" clip-rule="evenodd" d="M49.9358 124.399C38.0001 125.731 28.8069 129.367 28.6232 138.727C11.3993 145.982 -0.688171 162.982 -0.688171 182.797V188.775H132.533V182.797C132.533 162.982 120.445 145.982 103.221 138.727C103.038 129.367 93.8446 125.731 81.9088 124.399V136.971C81.9088 145.774 74.7514 152.91 65.9223 152.91C57.0932 152.91 49.9358 145.774 49.9358 136.971V124.399Z" fill="white"/>
      </mask>
      <g mask="url(#mask3_136_2724)">
        <path d="M153.848 115.718H-22.0035V188.775H153.848V115.718Z" fill="#5199E4"/>
      </g>
      <mask id="mask4_136_2724" style="mask-type:luminance" maskUnits="userSpaceOnUse" x="-1" y="124" width="134" height="65">
        <path fill-rule="evenodd" clip-rule="evenodd" d="M49.9358 124.399C38.0001 125.731 28.8069 129.367 28.6232 138.727C11.3993 145.982 -0.688171 162.982 -0.688171 182.797V188.775H132.533V182.797C132.533 162.982 120.445 145.982 103.221 138.727C103.038 129.367 93.8446 125.731 81.9088 124.399V136.971C81.9088 145.774 74.7514 152.91 65.9223 152.91C57.0932 152.91 49.9358 145.774 49.9358 136.971V124.399Z" fill="white"/>
      </mask>
      <g mask="url(#mask4_136_2724)">
        <path fill-rule="evenodd" clip-rule="evenodd" d="M45.9392 156.722V188.775H41.2764V154.338C42.7444 155.208 44.3051 156.006 45.9392 156.722ZM90.5682 154.338V181.137C90.5682 182.421 89.5244 183.461 88.2368 183.461C86.9492 183.461 85.9054 182.421 85.9054 181.137V156.722C87.5396 156.006 89.1002 155.208 90.5682 154.338Z" fill="#F4F4F4"/>
      </g>
      <mask id="mask5_136_2724" style="mask-type:luminance" maskUnits="userSpaceOnUse" x="-1" y="124" width="134" height="65">
        <path fill-rule="evenodd" clip-rule="evenodd" d="M49.9358 124.399C38.0001 125.731 28.8069 129.367 28.6232 138.727C11.3993 145.982 -0.688171 162.982 -0.688171 182.797V188.775H132.533V182.797C132.533 162.982 120.445 145.982 103.221 138.727C103.038 129.367 93.8446 125.731 81.9088 124.399V136.971C81.9088 145.774 74.7514 152.91 65.9223 152.91C57.0932 152.91 49.9358 145.774 49.9358 136.971V124.399Z" fill="white"/>
      </mask>
      <g mask="url(#mask5_136_2724)">
        <path fill-rule="evenodd" clip-rule="evenodd" d="M38.5855 124.169C28.56 126.06 21.6263 129.827 21.6263 137.175C21.6263 150.267 43.6329 160.881 65.9223 160.881C88.2117 160.881 110.218 150.267 110.218 137.175C110.218 129.827 103.285 126.06 93.2592 124.169C99.3108 126.394 103.224 130.134 103.224 136.358C103.224 149.901 84.6924 160.881 65.9223 160.881C47.1523 160.881 28.6204 149.901 28.6204 136.358C28.6204 130.134 32.5339 126.394 38.5855 124.169Z" fill="black" fill-opacity="0.16"/>
      </g>
      <path d="M71.9173 103.763H59.9274C58.8238 103.763 57.9291 104.655 57.9291 105.756C57.9291 106.856 58.8238 107.748 59.9274 107.748H71.9173C73.0209 107.748 73.9156 106.856 73.9156 105.756C73.9156 104.655 73.0209 103.763 71.9173 103.763Z" fill="black" fill-opacity="0.7"/>
      <path fill-rule="evenodd" clip-rule="evenodd" d="M57.9291 89.1516C57.9291 92.086 61.5078 94.4648 65.9223 94.4648C70.3369 94.4648 73.9156 92.086 73.9156 89.1516" fill="black" fill-opacity="0.16"/>
      <path d="M48.6036 81.1818C50.8108 81.1818 52.6002 79.3977 52.6002 77.1968C52.6002 74.996 50.8108 73.2119 48.6036 73.2119C46.3963 73.2119 44.6069 74.996 44.6069 77.1968C44.6069 79.3977 46.3963 81.1818 48.6036 81.1818Z" fill="black" fill-opacity="0.6"/>
      <path d="M83.241 81.1818C85.4483 81.1818 87.2376 79.3977 87.2376 77.1968C87.2376 74.996 85.4483 73.2119 83.241 73.2119C81.0337 73.2119 79.2444 74.996 79.2444 77.1968C79.2444 79.3977 81.0337 81.1818 83.241 81.1818Z" fill="black" fill-opacity="0.6"/>
      <path d="M39.0318 68.6681C41.6396 65.0095 48.7887 62.9579 54.9469 64.4658C55.6614 64.6407 56.3829 64.205 56.5584 63.4926C56.7339 62.7801 56.2969 62.0608 55.5823 61.8858C48.4306 60.1347 40.1521 62.5104 36.86 67.1292C36.4338 67.7272 36.5744 68.5564 37.1742 68.9814C37.7739 69.4064 38.6056 69.2661 39.0318 68.6681Z" fill="black" fill-opacity="0.6"/>
      <path d="M92.813 68.6681C90.2053 65.0095 83.0561 62.9579 76.8979 64.4658C76.1834 64.6407 75.4619 64.205 75.2864 63.4926C75.111 62.7801 75.548 62.0608 76.2625 61.8858C83.4142 60.1347 91.6927 62.5104 94.9849 67.1292C95.4111 67.7272 95.2704 68.5564 94.6707 68.9814C94.0709 69.4064 93.2392 69.2661 92.813 68.6681Z" fill="black" fill-opacity="0.6"/>
      <mask id="mask6_136_2724" style="mask-type:luminance" maskUnits="userSpaceOnUse" x="-23" y="2" width="177" height="187">
        <path d="M153.848 2.81152H-22.0035V188.775H153.848V2.81152Z" fill="white"/>
      </mask>
      <g mask="url(#mask6_136_2724)">
        <path fill-rule="evenodd" clip-rule="evenodd" d="M17.9628 117.405V58.6313C17.9628 56.2854 18.2279 54.0012 18.7301 51.807C20.7638 38.4976 28.4707 27.9239 37.2798 21.408C50.5384 11.6053 72.8777 8.77688 80.608 20.4264C86.3706 17.8753 94.9106 20.2006 101.226 26.057C107.597 32.3101 112.683 46.1128 109.657 57.4075C109.727 58.2481 109.762 59.0981 109.762 59.9561V74.4687C109.175 71.1653 106.547 68.5649 103.224 68.009V67.8988C99.2035 53.5957 87.3906 47.0311 80.1967 40.5204C68.9433 53.0704 33.8311 53.1146 21.9594 77.8611V84.5027C21.9594 88.4999 24.9108 91.8099 28.7594 92.3843C29.9205 105.832 38.2584 117.234 49.9358 122.765V123.024C51.8877 152.15 45.5118 188.64 3.97455 177.484C13.0374 172.196 17.8349 138.336 17.9628 117.405ZM81.9088 122.765C93.5862 117.234 101.924 105.832 103.085 92.3843C106.474 91.8786 109.167 89.2519 109.762 85.9026V86.8075C109.762 97.3199 112.265 107.682 117.065 117.042L135.015 152.048C139.653 161.093 138.292 171.622 132.393 179.124C130.512 154.431 109.821 134.978 84.5732 134.978H81.9088V122.765Z" fill="#272C2E"/>
        <mask id="mask7_136_2724" style="mask-type:luminance" maskUnits="userSpaceOnUse" x="3" y="12" width="135" height="168">
          <path fill-rule="evenodd" clip-rule="evenodd" d="M17.9628 117.405V58.6313C17.9628 56.2854 18.2279 54.0012 18.7301 51.807C20.7638 38.4976 28.4707 27.9239 37.2798 21.408C50.5384 11.6053 72.8777 8.77688 80.608 20.4264C86.3706 17.8753 94.9106 20.2006 101.226 26.057C107.597 32.3101 112.683 46.1128 109.657 57.4075C109.727 58.2481 109.762 59.0981 109.762 59.9561V74.4687C109.175 71.1653 106.547 68.5649 103.224 68.009V67.8988C99.2035 53.5957 87.3906 47.0311 80.1967 40.5204C68.9433 53.0704 33.8311 53.1146 21.9594 77.8611V84.5027C21.9594 88.4999 24.9108 91.8099 28.7594 92.3843C29.9205 105.832 38.2584 117.234 49.9358 122.765V123.024C51.8877 152.15 45.5118 188.64 3.97455 177.484C13.0374 172.196 17.8349 138.336 17.9628 117.405ZM81.9088 122.765C93.5862 117.234 101.924 105.832 103.085 92.3843C106.474 91.8786 109.167 89.2519 109.762 85.9026V86.8075C109.762 97.3199 112.265 107.682 117.065 117.042L135.015 152.048C139.653 161.093 138.292 171.622 132.393 179.124C130.512 154.431 109.821 134.978 84.5732 134.978H81.9088V122.765Z" fill="white"/>
        </mask>
        <g mask="url(#mask7_136_2724)">
          <path d="M179.826 12.7739H3.97455V198.737H179.826V12.7739Z" fill="#4A312C"/>
        </g>
        <path fill-rule="evenodd" clip-rule="evenodd" d="M21.9594 77.8612C33.8311 56.3855 68.9433 56.3472 80.1967 45.456C87.3759 51.0946 99.1554 55.457 103.2 67.8117C99.1554 53.5691 87.3759 47.0179 80.1967 40.5205C68.9433 53.0705 33.8311 53.1147 21.9594 77.8612Z" fill="black" fill-opacity="0.16"/>
      </g>
    </g>
    <path d="M66.0001 139.822C96.0755 139.822 119.597 109.817 119.597 73.9837C119.597 38.1502 96.0755 8.14502 66.0001 8.14502C35.9247 8.14502 12.4033 38.1502 12.4033 73.9837C12.4033 109.817 35.9247 139.822 66.0001 139.822Z" stroke="#04B027" stroke-width="5"/>
  </g>
  <defs>
    <clipPath id="clip0_136_2724">
      <rect width="138.387" height="216.097" fill="white" transform="translate(-3.1936 12.7739)"/>
    </clipPath>
  </defs>
</svg>
