<svg xmlns="http://www.w3.org/2000/svg" width="112" height="94" fill="none" viewBox="0 0 112 94"><circle cx="71.57" cy="40.795" r="40" fill="#EBF3FA"/><path fill="#fff" fill-rule="evenodd" d="M84.866 64.207H5.14a4 4 0 0 1-4-4V21.384a4 4 0 0 1 4-4h79.725a4 4 0 0 1 4 4v38.823a4 4 0 0 1-4 4" clip-rule="evenodd"/><path stroke="#112E51" d="M84.866 64.207H5.14a4 4 0 0 1-4-4V21.384a4 4 0 0 1 4-4h79.725a4 4 0 0 1 4 4v38.823a4 4 0 0 1-4 4Z" clip-rule="evenodd"/><path fill="#EBF3FA" fill-rule="evenodd" d="M28.912 59.19H8.362c-.907 0-1.643-.66-1.643-1.475V34.104c0-.815.736-1.476 1.644-1.476h20.549c.907 0 1.644.661 1.644 1.476v23.611c0 .815-.737 1.476-1.644 1.476" clip-rule="evenodd"/><mask id="a" width="21" height="25" x="8" y="35" maskUnits="userSpaceOnUse" style="mask-type:luminance"><path fill="#fff" fill-rule="evenodd" d="M12.93 40.814v.606a1.18 1.18 0 0 0-.991 1.16v1.374c0 .594.444 1.084 1.02 1.166a5.5 5.5 0 0 0 3.145 4.387v1.805h-.397c-3.944 0-7.14 3.163-7.14 7.064v.882H28.4v-.882c0-3.901-3.197-7.064-7.14-7.064h-.397v-1.805a5.5 5.5 0 0 0 3.143-4.387 1.18 1.18 0 0 0 1.022-1.166v-1.373a1.18 1.18 0 0 0-.992-1.16v-.607c0-3.034-2.486-5.494-5.553-5.494s-5.554 2.46-5.554 5.494" clip-rule="evenodd"/></mask><g mask="url(#a)"><path fill="#C8D3DD" fill-rule="evenodd" d="M1.281 63.369h34.402V31.21H1.28z" clip-rule="evenodd"/></g><path fill="#EBF3FA" d="M56.248 25.516a2 2 0 0 1 2-2h23.338a2 2 0 0 1 2 2v23.338a2 2 0 0 1-2 2H58.248a2 2 0 0 1-2-2z"/><rect width="44.487" height="3.344" x="6.719" y="23.516" fill="#C8D3DD" rx="1.672"/><rect width="16.303" height="3.344" x="34.904" y="31.44" fill="#C8D3DD" rx="1.672"/><rect width="16.303" height="3.344" x="34.904" y="39.365" fill="#C8D3DD" rx="1.672"/><rect width="16.303" height="3.344" x="34.904" y="47.29" fill="#C8D3DD" rx="1.672"/><rect width="12.3" height="3.344" x="34.904" y="55.819" fill="#C8D3DD" rx="1.672"/><rect width="29.972" height="3.344" x="52.674" y="55.819" fill="#C8D3DD" rx="1.672"/><path fill="#fff" fill-rule="evenodd" d="M101.098 93.207H21.373a4 4 0 0 1-4-4V50.384a4 4 0 0 1 4-4h79.725a4 4 0 0 1 4 4v38.823a4 4 0 0 1-4 4" clip-rule="evenodd"/><path stroke="#112E51" d="M101.098 93.207H21.373a4 4 0 0 1-4-4V50.384a4 4 0 0 1 4-4h79.725a4 4 0 0 1 4 4v38.823a4 4 0 0 1-4 4Z" clip-rule="evenodd"/><path fill="#EBF3FA" fill-rule="evenodd" d="M45.144 88.19H24.595c-.907 0-1.644-.66-1.644-1.475V63.104c0-.815.737-1.476 1.644-1.476h20.55c.907 0 1.643.661 1.643 1.476v23.611c0 .815-.736 1.476-1.644 1.476" clip-rule="evenodd"/><mask id="b" width="21" height="25" x="24" y="64" maskUnits="userSpaceOnUse" style="mask-type:luminance"><path fill="#fff" fill-rule="evenodd" d="M29.163 69.814v.606a1.18 1.18 0 0 0-.992 1.16v1.374c0 .595.444 1.084 1.021 1.166a5.5 5.5 0 0 0 3.144 4.387v1.805h-.397c-3.944 0-7.14 3.163-7.14 7.064v.882h19.835v-.882c0-3.901-3.198-7.064-7.14-7.064h-.398v-1.805a5.5 5.5 0 0 0 3.143-4.387 1.18 1.18 0 0 0 1.022-1.166v-1.373a1.18 1.18 0 0 0-.991-1.16v-.607c0-3.034-2.487-5.494-5.553-5.494-3.068 0-5.554 2.46-5.554 5.494" clip-rule="evenodd"/></mask><g mask="url(#b)"><path fill="#C8D3DD" fill-rule="evenodd" d="M17.514 92.369h34.401V60.21H17.514z" clip-rule="evenodd"/></g><path fill="#EBF3FA" d="M72.48 54.516a2 2 0 0 1 2-2h23.338a2 2 0 0 1 2 2v23.338a2 2 0 0 1-2 2H74.481a2 2 0 0 1-2-2z"/><rect width="44.487" height="3.344" x="22.951" y="52.516" fill="#C8D3DD" rx="1.672"/><rect width="16.303" height="3.344" x="51.137" y="60.44" fill="#C8D3DD" rx="1.672"/><rect width="16.303" height="3.344" x="51.137" y="68.365" fill="#C8D3DD" rx="1.672"/><rect width="16.303" height="3.344" x="51.137" y="76.29" fill="#C8D3DD" rx="1.672"/><rect width="12.3" height="3.344" x="51.137" y="84.819" fill="#C8D3DD" rx="1.672"/><rect width="29.972" height="3.344" x="68.906" y="84.819" fill="#C8D3DD" rx="1.672"/><path fill="#0071BB" d="m74.188 55.727 8.876 6.854c.208.23.23.738-.507 1.68-.582.743.003 1.264.356 1.423v-1.046c0-.59.629-.738.781-.738h.892a10 10 0 0 1 0-.755c.017-.167-.17-.362-.429-.362-.21 0-.49.207-.615.362-.17-.412.1-1.664.375-1.972.274-.31.943-.31 1.527-.48.583-.172 1.612.05 1.852.36.192.247.423 1.898.515 2.693.074-.012.34-.028.806 0 .467.027.56.434.549.634v1.407c.446 0 .686-.378.823-.686s-.223-.858-.566-1.201-.6-.84-.257-1.235 8.422-6.604 8.697-6.776.669-.154.977 0c.31.155.412 1.39.206 1.836s-.411 1.063-.206 1.56c.206.498-.171.944-.446 1.39-.274.446-.051.583 0 1.132.052.55-.326.824-.806 1.252-.48.43-.068.55 0 .978.069.429-.84 1.441-1.218 1.561-.377.12-.428.24-.566.618-.137.377-.995.772-1.406.806-.412.034-.412.514-.96.72-.55.206-.584-.154-.876.21-.291.363-.875.648-1.475.75s-.737-.75-.943-.325c-.165.34-.55.233-.72.137v2.101c-.104.06-.368.233-.601.441-.292.26.446 1.146.6 1.42.155.275.48.327.566 0 .069-.26.486-.23.686-.182L93.06 73.3l-2.813 1.04c-.132 0-.409-.064-.464-.32-.068-.319-.411 0-.669.206-.257.206-.12.113-.72 0s-.24.258-.79.826a24 24 0 0 0-1.098 1.238h-.563c0-.243-.61-.422-1.154-1.238s-.957-.853-1.154-.713-.59-.103-.628-.319c-.03-.172-.457-.128-.666-.084v.403h-2.214v-2.045c.698-.03 2.09-.075 2.083 0-.01.094.103.329.347.329.9.037.938-1.323.985-1.567.037-.195-.404-.375-.629-.44.006-.523.015-1.637 0-1.914-.019-.347-.572-.535-.891-.488s-.16.206-.807.488c-.647.281-1.07-.544-1.341-.75-.272-.207-.629-.038-1.013-.123-.385-.084-.019-.788-.807-.788s-.993-.427-1.296-.629c-.302-.202-.05-.756-.201-.806s-.555-.076-1.008-.378c-.454-.303-.655-.832-.63-1.084s.302-.655-.202-.832-.882-1.36-.756-1.537.227-.806-.126-1.159-.504-1.184-.428-1.562c.075-.378.277-.303.151-.706s-.53-1.386-.378-2.167c.12-.625.722-.563 1.008-.454"/></svg>