<svg width="131" height="129" viewBox="0 0 131 129" fill="none" xmlns="http://www.w3.org/2000/svg">
<circle cx="87.0895" cy="44.1012" r="43.4527" fill="#EBF3FA"/>
<path fill-rule="evenodd" clip-rule="evenodd" d="M91.495 69.2647H4.88824C2.48857 69.2647 0.542969 67.1355 0.542969 64.5095V18.3568C0.542969 15.7307 2.48857 13.6016 4.88824 13.6016H91.495C93.8947 13.6016 95.8403 15.7307 95.8403 18.3568V64.5095C95.8403 67.1355 93.8947 69.2647 91.495 69.2647" fill="white"/>
<path fill-rule="evenodd" clip-rule="evenodd" d="M91.495 69.2647H4.88824C2.48857 69.2647 0.542969 67.1355 0.542969 64.5095V18.3568C0.542969 15.7307 2.48857 13.6016 4.88824 13.6016H91.495C93.8947 13.6016 95.8403 15.7307 95.8403 18.3568V64.5095C95.8403 67.1355 93.8947 69.2647 91.495 69.2647Z" stroke="#112E51"/>
<path d="M63.8828 39.3498C63.8828 38.3584 64.6865 37.5547 65.6779 37.5547H86.6252C87.6166 37.5547 88.4203 38.3584 88.4203 39.3498V60.2971C88.4203 61.2885 87.6166 62.0922 86.6252 62.0922H65.6779C64.6865 62.0922 63.8828 61.2885 63.8828 60.2971V39.3498Z" fill="#EBF3FA"/>
<path fill-rule="evenodd" clip-rule="evenodd" d="M26.9885 62.0361H8.98338C8.18827 62.0361 7.54297 61.4568 7.54297 60.7431V40.0547C7.54297 39.341 8.18827 38.7617 8.98338 38.7617H26.9885C27.7836 38.7617 28.4289 39.341 28.4289 40.0547V60.7431C28.4289 61.4568 27.7836 62.0361 26.9885 62.0361Z" fill="#EBF3FA"/>
<mask id="mask0_276_11096" style="mask-type:luminance" maskUnits="userSpaceOnUse" x="9" y="41" width="18" height="22">
<path fill-rule="evenodd" clip-rule="evenodd" d="M12.9876 45.9349V46.4657C12.495 46.5471 12.1191 46.9713 12.1191 47.4827V47.4827V48.6861C12.1191 49.2068 12.508 49.6361 13.0136 49.7074V49.7074C13.1936 51.4099 14.2703 52.8489 15.7683 53.5518V53.5518V55.1327H15.4205C11.9649 55.1327 9.16406 57.904 9.16406 61.3228V61.3228V62.0956H26.5433V61.3228C26.5433 57.904 23.7417 55.1327 20.2869 55.1327V55.1327H19.939V53.5518C21.4371 52.8489 22.5138 51.4099 22.6931 49.7074V49.7074C23.1994 49.6361 23.5883 49.2068 23.5883 48.6861V48.6861V47.4827C23.5883 46.9713 23.2131 46.5471 22.7197 46.4657V46.4657V45.9349C22.7197 43.2767 20.5411 41.1211 17.854 41.1211V41.1211C15.1662 41.1211 12.9876 43.2767 12.9876 45.9349V45.9349Z" fill="white"/>
</mask>
<g mask="url(#mask0_276_11096)">
<path fill-rule="evenodd" clip-rule="evenodd" d="M2.78125 65.6961H32.9239V37.5195H2.78125V65.6961Z" fill="#C8D3DD"/>
</g>
<rect x="35.6426" y="45.1797" width="21.0633" height="3.20092" rx="1.60046" fill="#C8D3DD"/>
<rect x="35.6426" y="51.957" width="15.8918" height="3.20092" rx="1.60046" fill="#C8D3DD"/>
<rect x="35.6426" y="58.7383" width="15.8918" height="3.20092" rx="1.60046" fill="#C8D3DD"/>
<path d="M11.5756 30.4173C11.0763 30.4173 10.5863 30.3543 10.1056 30.2283C9.62496 30.1023 9.18629 29.9133 8.78963 29.6613C8.39296 29.4093 8.06396 29.0943 7.80263 28.7163C7.54596 28.3383 7.39196 27.895 7.34063 27.3863H9.43363C9.50363 27.6943 9.63663 27.9533 9.83263 28.1633C10.0286 28.3733 10.276 28.5343 10.5746 28.6463C10.8733 28.7583 11.2046 28.8143 11.5686 28.8143C11.942 28.8143 12.2826 28.7677 12.5906 28.6743C12.8986 28.581 13.146 28.441 13.3326 28.2543C13.5193 28.063 13.6126 27.825 13.6126 27.5403C13.6126 27.2837 13.5356 27.0737 13.3816 26.9103C13.2323 26.747 13.0293 26.614 12.7726 26.5113C12.516 26.4087 12.2243 26.3247 11.8976 26.2593L10.1476 25.9023C9.38229 25.7577 8.77563 25.4543 8.32763 24.9923C7.87963 24.5257 7.64863 23.905 7.63463 23.1303C7.62996 22.4957 7.79796 21.9473 8.13863 21.4853C8.48396 21.0187 8.95063 20.6593 9.53863 20.4073C10.1313 20.1553 10.794 20.0293 11.5266 20.0293C12.3993 20.0293 13.132 20.167 13.7246 20.4423C14.322 20.713 14.7746 21.0817 15.0826 21.5483C15.3953 22.0103 15.5563 22.526 15.5656 23.0953H13.5146C13.4773 22.7407 13.37 22.4583 13.1926 22.2483C13.0153 22.0383 12.7866 21.8867 12.5066 21.7933C12.2313 21.7 11.9163 21.6533 11.5616 21.6533C11.291 21.6533 11.0436 21.6837 10.8196 21.7443C10.6003 21.805 10.4136 21.8913 10.2596 22.0033C10.1056 22.1107 9.98663 22.239 9.90263 22.3883C9.81863 22.5377 9.77663 22.7057 9.77663 22.8923C9.77663 23.1863 9.87463 23.4243 10.0706 23.6063C10.2666 23.7883 10.633 23.9377 11.1696 24.0543L12.9056 24.4113C13.5263 24.5327 14.0186 24.7123 14.3826 24.9503C14.7513 25.1883 15.0266 25.4567 15.2086 25.7553C15.3953 26.054 15.5166 26.3597 15.5726 26.6723C15.6333 26.9803 15.6636 27.265 15.6636 27.5263C15.6636 28.0723 15.491 28.5647 15.1456 29.0033C14.805 29.4373 14.329 29.7827 13.7176 30.0393C13.1063 30.2913 12.3923 30.4173 11.5756 30.4173ZM21.4276 24.4603H19.8176L19.8316 28.3173C19.8316 28.4947 19.8526 28.6277 19.8946 28.7163C19.9412 28.8003 20.0112 28.8563 20.1046 28.8843C20.2026 28.9077 20.3262 28.9193 20.4756 28.9193H21.4486V30.1793C21.3552 30.2213 21.2082 30.261 21.0076 30.2983C20.8116 30.3357 20.5362 30.3543 20.1816 30.3543C19.5469 30.3543 19.0546 30.2727 18.7046 30.1093C18.3592 29.946 18.1189 29.7173 17.9836 29.4233C17.8482 29.1293 17.7806 28.7887 17.7806 28.4013V24.4603H16.6046V23.0393H17.8506L18.3616 20.8553H19.8176V23.0323H21.4276V24.4603ZM25.0238 30.4173C24.5618 30.4173 24.1465 30.331 23.7778 30.1583C23.4092 29.9857 23.1175 29.736 22.9028 29.4093C22.6882 29.078 22.5808 28.6767 22.5808 28.2053C22.5808 27.412 22.8772 26.81 23.4698 26.3993C24.0625 25.984 24.9982 25.7693 26.2768 25.7553L27.1798 25.7413V25.3073C27.1798 24.976 27.0818 24.7217 26.8858 24.5443C26.6945 24.3623 26.3958 24.2737 25.9898 24.2783C25.6912 24.283 25.4065 24.353 25.1358 24.4883C24.8698 24.6237 24.6878 24.8593 24.5898 25.1953H22.8888C22.9168 24.6727 23.0685 24.2433 23.3438 23.9073C23.6192 23.5667 23.9925 23.3147 24.4638 23.1513C24.9398 22.9833 25.4788 22.8993 26.0808 22.8993C26.8228 22.8993 27.4178 22.9927 27.8658 23.1793C28.3138 23.3613 28.6382 23.625 28.8388 23.9703C29.0395 24.311 29.1398 24.717 29.1398 25.1883V30.2773H27.4318L27.2638 29.0313C27.0165 29.554 26.7062 29.9157 26.3328 30.1163C25.9642 30.317 25.5278 30.4173 25.0238 30.4173ZM25.7098 29.0733C25.8965 29.0733 26.0762 29.0407 26.2488 28.9753C26.4262 28.9053 26.5825 28.8143 26.7178 28.7023C26.8578 28.5857 26.9698 28.455 27.0538 28.3103C27.1378 28.1657 27.1798 28.0163 27.1798 27.8623V26.7913L26.4448 26.8053C26.1042 26.81 25.7868 26.852 25.4928 26.9313C25.1988 27.006 24.9608 27.1297 24.7788 27.3023C24.6015 27.475 24.5128 27.7083 24.5128 28.0023C24.5128 28.3383 24.6295 28.602 24.8628 28.7933C25.0962 28.98 25.3785 29.0733 25.7098 29.0733ZM35.0448 24.4603H33.4348L33.4488 28.3173C33.4488 28.4947 33.4698 28.6277 33.5118 28.7163C33.5584 28.8003 33.6284 28.8563 33.7218 28.8843C33.8198 28.9077 33.9434 28.9193 34.0928 28.9193H35.0658V30.1793C34.9724 30.2213 34.8254 30.261 34.6248 30.2983C34.4288 30.3357 34.1534 30.3543 33.7988 30.3543C33.1641 30.3543 32.6718 30.2727 32.3218 30.1093C31.9764 29.946 31.7361 29.7173 31.6008 29.4233C31.4654 29.1293 31.3978 28.7887 31.3978 28.4013V24.4603H30.2218V23.0393H31.4678L31.9788 20.8553H33.4348V23.0323H35.0448V24.4603ZM38.0023 27.1273C37.9976 27.496 38.0559 27.818 38.1773 28.0933C38.2986 28.364 38.4736 28.574 38.7023 28.7233C38.9356 28.868 39.2156 28.9403 39.5423 28.9403C39.8923 28.9403 40.1979 28.8657 40.4593 28.7163C40.7253 28.567 40.9096 28.322 41.0123 27.9813H42.8533C42.7739 28.4947 42.5686 28.9333 42.2373 29.2973C41.9106 29.6613 41.5139 29.939 41.0473 30.1303C40.5806 30.3217 40.0953 30.4173 39.5913 30.4173C38.8773 30.4173 38.2473 30.268 37.7013 29.9693C37.1599 29.666 36.7376 29.239 36.4343 28.6883C36.1309 28.1377 35.9793 27.489 35.9793 26.7423C35.9793 26.019 36.1169 25.368 36.3923 24.7893C36.6676 24.206 37.0666 23.7463 37.5893 23.4103C38.1166 23.0697 38.7489 22.8993 39.4863 22.8993C40.2236 22.8993 40.8419 23.0557 41.3413 23.3683C41.8453 23.6763 42.2233 24.108 42.4753 24.6633C42.7319 25.214 42.8603 25.851 42.8603 26.5743V27.1273H38.0023ZM37.9953 25.9093H40.9493C40.9493 25.62 40.8956 25.354 40.7883 25.1113C40.6809 24.8687 40.5176 24.6773 40.2983 24.5373C40.0836 24.3973 39.8129 24.3273 39.4863 24.3273C39.1689 24.3273 38.8983 24.4043 38.6743 24.5583C38.4549 24.7077 38.2869 24.9037 38.1703 25.1463C38.0536 25.389 37.9953 25.6433 37.9953 25.9093ZM47.4641 20.1553H49.5011V30.2773H47.4641V20.1553ZM51.7707 20.1553C51.8221 20.1553 51.9644 20.1553 52.1977 20.1553C52.4357 20.1553 52.7134 20.1553 53.0307 20.1553C53.3527 20.1553 53.6724 20.1577 53.9897 20.1623C54.3117 20.1623 54.5801 20.1647 54.7947 20.1693C56.0221 20.1973 57.0231 20.4167 57.7977 20.8273C58.5724 21.238 59.1394 21.812 59.4987 22.5493C59.8627 23.2867 60.0447 24.1593 60.0447 25.1673C60.0447 26.2173 59.8534 27.125 59.4707 27.8903C59.0881 28.651 58.5024 29.239 57.7137 29.6543C56.9297 30.0697 55.9334 30.2773 54.7247 30.2773H51.7707V20.1553ZM53.8287 21.8073V28.6253H54.7667C55.3454 28.6253 55.8704 28.5133 56.3417 28.2893C56.8177 28.0653 57.1981 27.699 57.4827 27.1903C57.7674 26.6817 57.9097 26.0027 57.9097 25.1533C57.9097 24.3647 57.7837 23.7253 57.5317 23.2353C57.2797 22.7407 56.9204 22.379 56.4537 22.1503C55.9871 21.9217 55.4341 21.8073 54.7947 21.8073H53.8287Z" fill="#112E51"/>
<path fill-rule="evenodd" clip-rule="evenodd" d="M107.85 128.277H39.2992C37.2604 128.277 35.6074 126.671 35.6074 124.689V89.8653C35.6074 87.8839 35.6074 86.2773 35.6074 86.2773H111.542C111.542 86.2773 111.542 87.8839 111.542 89.8653V124.689C111.542 126.671 109.889 128.277 107.85 128.277Z" fill="white"/>
<path fill-rule="evenodd" clip-rule="evenodd" d="M107.851 128.277H39.2347C37.196 128.277 35.543 126.671 35.543 124.689V89.8653C35.543 87.8839 35.543 86.2773 35.543 86.2773L111.543 86.2773C111.543 86.2773 111.543 87.8839 111.543 89.8653V107.277V124.689C111.543 126.671 109.89 128.277 107.851 128.277Z" stroke="#112E51"/>
<rect x="64.9219" y="101.535" width="16.0889" height="3.23447" rx="1.61724" fill="#C8D3DD"/>
<rect x="41.9863" y="92.2891" width="40.5178" height="3.23447" rx="1.61724" fill="#C8D3DD"/>
<rect x="64.9219" y="117.453" width="16.0889" height="3.23447" rx="1.61724" fill="#C8D3DD"/>
<rect x="64.9219" y="109.492" width="16.0889" height="3.23447" rx="1.61724" fill="#C8D3DD"/>
<path fill-rule="evenodd" clip-rule="evenodd" d="M111.401 86.2773H35.543C35.543 86.2773 35.543 84.6708 35.543 82.6893V47.8653C35.543 45.8839 37.1959 44.2773 39.2345 44.2773H107.71C109.748 44.2773 111.401 45.8839 111.401 47.8653V82.6893C111.401 84.6708 111.401 86.2773 111.401 86.2773Z" fill="white"/>
<path fill-rule="evenodd" clip-rule="evenodd" d="M111.543 86.2773H35.543C35.543 86.2773 35.543 84.6708 35.543 82.6893V47.8653C35.543 45.8839 37.1959 44.2773 39.2345 44.2773H107.851C109.89 44.2773 111.543 45.8839 111.543 47.8653V82.6893C111.543 84.6708 111.543 86.2773 111.543 86.2773Z" stroke="#112E51"/>
<path fill-rule="evenodd" clip-rule="evenodd" d="M60.8536 120.631H44.044C43.3017 120.631 42.6992 120.091 42.6992 119.424V100.11C42.6992 99.4432 43.3017 98.9023 44.044 98.9023H60.8536C61.5959 98.9023 62.1983 99.4432 62.1983 100.11V119.424C62.1983 120.091 61.5959 120.631 60.8536 120.631Z" fill="#EBF3FA"/>
<mask id="mask1_276_11096" style="mask-type:luminance" maskUnits="userSpaceOnUse" x="44" y="101" width="17" height="20">
<path fill-rule="evenodd" clip-rule="evenodd" d="M47.7806 105.6V106.095C47.3207 106.171 46.9697 106.567 46.9697 107.045V107.045V108.168C46.9697 108.654 47.3328 109.055 47.8048 109.122V109.122C47.9729 110.711 48.9781 112.055 50.3767 112.711V112.711V114.187H50.0519C46.8258 114.187 44.2109 116.774 44.2109 119.966V119.966V120.687H60.4362V119.966C60.4362 116.774 57.8206 114.187 54.5952 114.187V114.187H54.2705V112.711C55.669 112.055 56.6742 110.711 56.8417 109.122V109.122C57.3143 109.055 57.6774 108.654 57.6774 108.168V108.168V107.045C57.6774 106.567 57.3271 106.171 56.8665 106.095V106.095V105.6C56.8665 103.118 54.8326 101.105 52.3239 101.105V101.105C49.8146 101.105 47.7806 103.118 47.7806 105.6V105.6Z" fill="white"/>
</mask>
<g mask="url(#mask1_276_11096)">
<path fill-rule="evenodd" clip-rule="evenodd" d="M38.252 124.048H66.3932V97.7422H38.252V124.048Z" fill="#C8D3DD"/>
</g>
<path fill-rule="evenodd" clip-rule="evenodd" d="M78.964 73.017L63.6531 80.999C63.2728 81.1972 62.8034 81.0496 62.6052 80.6693C62.4069 80.289 62.5546 79.8196 62.9349 79.6214L78.2458 71.6394C78.6266 71.441 79.0954 71.5888 79.2937 71.9692C79.492 72.3495 79.3447 72.8186 78.964 73.017Z" fill="#EDF3FB"/>
<rect x="59.9953" y="78.9372" width="21.8513" height="5.48039" transform="rotate(-27.5341 59.9953 78.9372)" stroke="#EDF3FB" stroke-width="0.826985"/>
<path d="M60.6787 73.27C60.6787 72.6982 60.4361 72.1437 60.0202 71.7625C59.7603 71.5199 59.6563 71.1386 59.7603 70.7921C59.9336 70.2376 59.8643 69.6484 59.587 69.1459C59.2924 68.6434 58.8073 68.2968 58.2527 68.1755C57.9062 68.1062 57.6289 67.8289 57.5423 67.465C57.421 66.9105 57.0571 66.4253 56.5719 66.1307C56.0694 65.8362 55.4802 65.7842 54.9257 65.9575C54.5791 66.0614 54.1979 65.9575 53.9553 65.6975C53.5741 65.2817 53.0196 65.0391 52.4478 65.0391C51.8759 65.0391 51.3214 65.2817 50.9402 65.6975C50.6976 65.9575 50.3164 66.0614 49.9698 65.9575C49.4153 65.7842 48.8261 65.8535 48.3236 66.1307C47.8211 66.4253 47.4745 66.9105 47.3532 67.465C47.2839 67.8116 47.0067 68.0888 46.6428 68.1755C46.0883 68.2968 45.6031 68.6607 45.3085 69.1459C45.0139 69.6484 44.9619 70.2376 45.1352 70.7921C45.2392 71.1386 45.1352 71.5199 44.8753 71.7625C44.4594 72.1437 44.2168 72.6982 44.2168 73.27C44.2168 73.8419 44.4594 74.3964 44.8753 74.7776C45.1352 75.0202 45.2392 75.4014 45.1352 75.748C44.9619 76.3025 45.0312 76.8916 45.3085 77.3942C45.6031 77.8967 46.0883 78.2433 46.6428 78.3645C46.9893 78.4339 47.2666 78.7111 47.3532 79.075C47.4745 79.6295 47.8384 80.1147 48.3236 80.4093C48.8261 80.7039 49.4153 80.7559 49.9698 80.5826C50.3164 80.4786 50.6976 80.5826 50.9402 80.8425C51.3214 81.2584 51.8759 81.501 52.4478 81.501C53.0196 81.501 53.5741 81.2584 53.9553 80.8425C54.1979 80.5826 54.5791 80.4786 54.9257 80.5826C55.4802 80.7559 56.0694 80.6865 56.5719 80.4093C57.0744 80.1147 57.421 79.6295 57.5423 79.075C57.6116 78.7284 57.8888 78.4512 58.2527 78.3645C58.8073 78.2433 59.2924 77.8794 59.587 77.3942C59.8816 76.8916 59.9336 76.3025 59.7603 75.748C59.6563 75.4014 59.7603 75.0202 60.0202 74.7776C60.4361 74.3964 60.6787 73.8419 60.6787 73.27ZM59.2578 73.9458C58.6686 74.483 58.4434 75.3148 58.686 76.0772C58.7726 76.3198 58.7379 76.5971 58.5993 76.8223C58.4607 77.0476 58.2527 77.2036 57.9928 77.2729C57.213 77.4461 56.6066 78.0526 56.4333 78.8324C56.3813 79.0923 56.2253 79.3003 56.0001 79.4389C55.7748 79.5775 55.5149 79.5949 55.2549 79.5255C54.4925 79.283 53.6607 79.5082 53.1236 80.0974C52.777 80.4786 52.1185 80.4786 51.7546 80.0974C51.3561 79.6642 50.8016 79.4389 50.2471 79.4389C50.0391 79.4389 49.8312 79.4736 49.6406 79.5255C49.3806 79.6122 49.1207 79.5775 48.8954 79.4389C48.6702 79.3003 48.5142 79.0923 48.4449 78.8324C48.2716 78.0526 47.6651 77.4461 46.8854 77.2729C46.6254 77.2209 46.4175 77.0649 46.2789 76.8223C46.1402 76.5971 46.1229 76.3371 46.1922 76.0772C46.4348 75.3148 46.2096 74.483 45.6204 73.9458C45.4471 73.7725 45.3431 73.5299 45.3431 73.27C45.3431 73.0101 45.4471 72.7675 45.6377 72.5942C46.2269 72.057 46.4522 71.2253 46.2096 70.4628C46.1229 70.2202 46.1576 69.943 46.2962 69.7177C46.4348 69.4924 46.6428 69.3365 46.9027 69.2845C47.6825 69.1112 48.289 68.5047 48.4622 67.725C48.5142 67.465 48.6702 67.2571 48.8954 67.1185C49.1207 66.9798 49.3806 66.9625 49.6406 67.0318C50.403 67.2744 51.2348 67.0491 51.7719 66.46C51.9452 66.2694 52.1878 66.1654 52.4478 66.1654C52.7077 66.1654 52.9503 66.2694 53.1236 66.46C53.6607 67.0491 54.4925 67.2744 55.2549 67.0318C55.4975 66.9452 55.7748 66.9798 56.0001 67.1185C56.2253 67.2571 56.3813 67.465 56.4333 67.725C56.6066 68.5047 57.213 69.1112 57.9928 69.2845C58.2527 69.3365 58.4607 69.4924 58.5993 69.7177C58.7379 69.943 58.7553 70.2029 58.686 70.4628C58.4434 71.2253 58.6686 72.057 59.2578 72.5942C59.4484 72.7675 59.5524 73.0101 59.5524 73.27C59.5524 73.5299 59.4484 73.7725 59.2578 73.9458Z" fill="#EDF3FB"/>
<path d="M52.4481 68.3125C49.7102 68.3125 47.4922 70.5305 47.4922 73.2684C47.4922 76.0063 49.7102 78.2243 52.4481 78.2243C55.186 78.2243 57.404 76.0063 57.404 73.2684C57.404 70.5305 55.186 68.3125 52.4481 68.3125Z" fill="#EDF3FB"/>
<path d="M43.007 61.2344V51.1124H46.731C47.4684 51.1124 48.1287 51.2407 48.712 51.4974C49.2954 51.7494 49.755 52.1227 50.091 52.6174C50.4317 53.112 50.602 53.7164 50.602 54.4304C50.602 55.1024 50.4527 55.6764 50.154 56.1524C49.8554 56.6284 49.4354 56.9924 48.894 57.2444C48.3574 57.4964 47.725 57.6224 46.997 57.6224H45.065V61.2344H43.007ZM45.044 56.0404H46.941C47.4544 56.0404 47.8744 55.877 48.201 55.5504C48.5277 55.219 48.691 54.8107 48.691 54.3254C48.691 53.8214 48.5184 53.4224 48.173 53.1284C47.8277 52.8297 47.4077 52.6804 46.913 52.6804H45.044V56.0404ZM53.7895 61.3744C53.3275 61.3744 52.9121 61.288 52.5435 61.1154C52.1748 60.9427 51.8831 60.693 51.6685 60.3664C51.4538 60.035 51.3465 59.6337 51.3465 59.1624C51.3465 58.369 51.6428 57.767 52.2355 57.3564C52.8281 56.941 53.7638 56.7264 55.0425 56.7124L55.9455 56.6984V56.2644C55.9455 55.933 55.8475 55.6787 55.6515 55.5014C55.4601 55.3194 55.1615 55.2307 54.7555 55.2354C54.4568 55.24 54.1721 55.31 53.9015 55.4454C53.6355 55.5807 53.4535 55.8164 53.3555 56.1524H51.6545C51.6825 55.6297 51.8341 55.2004 52.1095 54.8644C52.3848 54.5237 52.7581 54.2717 53.2295 54.1084C53.7055 53.9404 54.2445 53.8564 54.8465 53.8564C55.5885 53.8564 56.1835 53.9497 56.6315 54.1364C57.0795 54.3184 57.4038 54.582 57.6045 54.9274C57.8051 55.268 57.9055 55.674 57.9055 56.1454V61.2344H56.1975L56.0295 59.9884C55.7821 60.511 55.4718 60.8727 55.0985 61.0734C54.7298 61.274 54.2935 61.3744 53.7895 61.3744ZM54.4755 60.0304C54.6621 60.0304 54.8418 59.9977 55.0145 59.9324C55.1918 59.8624 55.3481 59.7714 55.4835 59.6594C55.6235 59.5427 55.7355 59.412 55.8195 59.2674C55.9035 59.1227 55.9455 58.9734 55.9455 58.8194V57.7484L55.2105 57.7624C54.8698 57.767 54.5525 57.809 54.2585 57.8884C53.9645 57.963 53.7265 58.0867 53.5445 58.2594C53.3671 58.432 53.2785 58.6654 53.2785 58.9594C53.2785 59.2954 53.3951 59.559 53.6285 59.7504C53.8618 59.937 54.1441 60.0304 54.4755 60.0304ZM62.4958 61.3744C61.9918 61.3744 61.5065 61.2927 61.0398 61.1294C60.5731 60.9614 60.1788 60.7 59.8568 60.3454C59.5348 59.986 59.3295 59.5217 59.2408 58.9524H61.0118C61.0725 59.209 61.1821 59.412 61.3408 59.5614C61.5041 59.7107 61.6885 59.818 61.8938 59.8834C62.0991 59.944 62.2951 59.9744 62.4818 59.9744C62.8738 59.9744 63.1888 59.9137 63.4268 59.7924C63.6695 59.6664 63.7908 59.475 63.7908 59.2184C63.7908 59.0224 63.7185 58.866 63.5738 58.7494C63.4338 58.6327 63.2005 58.544 62.8738 58.4834L61.5998 58.2174C60.9605 58.082 60.4471 57.8534 60.0598 57.5314C59.6725 57.2047 59.4741 56.7427 59.4648 56.1454C59.4648 55.7114 59.5791 55.3217 59.8078 54.9764C60.0411 54.631 60.3841 54.358 60.8368 54.1574C61.2895 53.9567 61.8448 53.8564 62.5028 53.8564C63.3941 53.8564 64.1058 54.0524 64.6378 54.4444C65.1745 54.8364 65.4475 55.3894 65.4568 56.1034H63.7488C63.6975 55.8234 63.5575 55.6087 63.3288 55.4594C63.1048 55.3054 62.8225 55.2284 62.4818 55.2284C62.1271 55.2284 61.8355 55.2914 61.6068 55.4174C61.3781 55.5434 61.2638 55.7347 61.2638 55.9914C61.2638 56.1827 61.3571 56.3344 61.5438 56.4464C61.7305 56.5537 62.0198 56.647 62.4118 56.7264L63.5878 56.9924C63.9938 57.0904 64.3228 57.2257 64.5748 57.3984C64.8315 57.5664 65.0298 57.7507 65.1698 57.9514C65.3098 58.152 65.4055 58.355 65.4568 58.5604C65.5128 58.761 65.5408 58.943 65.5408 59.1064C65.5408 59.587 65.4125 59.9977 65.1558 60.3384C64.8991 60.6744 64.5421 60.931 64.0848 61.1084C63.6275 61.2857 63.0978 61.3744 62.4958 61.3744ZM69.7556 61.3744C69.2516 61.3744 68.7662 61.2927 68.2996 61.1294C67.8329 60.9614 67.4386 60.7 67.1166 60.3454C66.7946 59.986 66.5892 59.5217 66.5006 58.9524H68.2716C68.3322 59.209 68.4419 59.412 68.6006 59.5614C68.7639 59.7107 68.9482 59.818 69.1536 59.8834C69.3589 59.944 69.5549 59.9744 69.7416 59.9744C70.1336 59.9744 70.4486 59.9137 70.6866 59.7924C70.9292 59.6664 71.0506 59.475 71.0506 59.2184C71.0506 59.0224 70.9782 58.866 70.8336 58.7494C70.6936 58.6327 70.4602 58.544 70.1336 58.4834L68.8596 58.2174C68.2202 58.082 67.7069 57.8534 67.3196 57.5314C66.9322 57.2047 66.7339 56.7427 66.7246 56.1454C66.7246 55.7114 66.8389 55.3217 67.0676 54.9764C67.3009 54.631 67.6439 54.358 68.0966 54.1574C68.5492 53.9567 69.1046 53.8564 69.7626 53.8564C70.6539 53.8564 71.3656 54.0524 71.8976 54.4444C72.4342 54.8364 72.7072 55.3894 72.7166 56.1034H71.0086C70.9572 55.8234 70.8172 55.6087 70.5886 55.4594C70.3646 55.3054 70.0822 55.2284 69.7416 55.2284C69.3869 55.2284 69.0952 55.2914 68.8666 55.4174C68.6379 55.5434 68.5236 55.7347 68.5236 55.9914C68.5236 56.1827 68.6169 56.3344 68.8036 56.4464C68.9902 56.5537 69.2796 56.647 69.6716 56.7264L70.8476 56.9924C71.2536 57.0904 71.5826 57.2257 71.8346 57.3984C72.0912 57.5664 72.2896 57.7507 72.4296 57.9514C72.5696 58.152 72.6652 58.355 72.7166 58.5604C72.7726 58.761 72.8006 58.943 72.8006 59.1064C72.8006 59.587 72.6722 59.9977 72.4156 60.3384C72.1589 60.6744 71.8019 60.931 71.3446 61.1084C70.8872 61.2857 70.3576 61.3744 69.7556 61.3744ZM74.2344 63.4884V53.9964H76.2854L76.2924 55.0394C76.3997 54.8667 76.5304 54.7104 76.6844 54.5704C76.843 54.4257 77.018 54.2997 77.2094 54.1924C77.4007 54.085 77.6084 54.0034 77.8324 53.9474C78.0564 53.8867 78.292 53.8564 78.5394 53.8564C79.076 53.8564 79.5544 53.9894 79.9744 54.2554C80.3944 54.5167 80.7234 54.9227 80.9614 55.4734C81.204 56.0194 81.3254 56.7147 81.3254 57.5594C81.3254 58.4367 81.1947 59.1577 80.9334 59.7224C80.6767 60.2824 80.322 60.6977 79.8694 60.9684C79.4167 61.239 78.9057 61.3744 78.3364 61.3744C78.103 61.3744 77.8837 61.3417 77.6784 61.2764C77.473 61.2157 77.2817 61.1294 77.1044 61.0174C76.9317 60.9054 76.7754 60.777 76.6354 60.6324C76.5 60.483 76.381 60.322 76.2784 60.1494V63.4884H74.2344ZM77.8464 59.8764C78.2897 59.8764 78.6607 59.692 78.9594 59.3234C79.2627 58.9547 79.4144 58.3714 79.4144 57.5734C79.4144 56.8734 79.2697 56.3274 78.9804 55.9354C78.6957 55.5387 78.3177 55.3404 77.8464 55.3404C77.319 55.3404 76.9247 55.555 76.6634 55.9844C76.4067 56.409 76.2784 56.9387 76.2784 57.5734C76.2784 57.9794 76.3344 58.3574 76.4464 58.7074C76.563 59.0574 76.7357 59.3397 76.9644 59.5544C77.1977 59.769 77.4917 59.8764 77.8464 59.8764ZM85.7916 61.3744C85.0823 61.3744 84.4639 61.2227 83.9366 60.9194C83.4139 60.616 83.0079 60.1867 82.7186 59.6314C82.4339 59.076 82.2916 58.418 82.2916 57.6574C82.2916 56.8967 82.4339 56.2317 82.7186 55.6624C83.0079 55.093 83.4139 54.6497 83.9366 54.3324C84.4639 54.015 85.0846 53.8564 85.7986 53.8564C86.5126 53.8564 87.1309 54.0127 87.6536 54.3254C88.1763 54.6334 88.5799 55.072 88.8646 55.6414C89.1493 56.2107 89.2916 56.8827 89.2916 57.6574C89.2916 58.3854 89.1516 59.0294 88.8716 59.5894C88.5963 60.1447 88.1973 60.581 87.6746 60.8984C87.1566 61.2157 86.5289 61.3744 85.7916 61.3744ZM85.7986 59.8554C86.1579 59.8554 86.4473 59.7504 86.6666 59.5404C86.8859 59.3304 87.0446 59.055 87.1426 58.7144C87.2453 58.369 87.2966 57.9934 87.2966 57.5874C87.2966 57.2047 87.2499 56.843 87.1566 56.5024C87.0679 56.1617 86.9139 55.8864 86.6946 55.6764C86.4753 55.4664 86.1766 55.3614 85.7986 55.3614C85.4393 55.3614 85.1476 55.4617 84.9236 55.6624C84.7043 55.8584 84.5433 56.1267 84.4406 56.4674C84.3379 56.8034 84.2866 57.1767 84.2866 57.5874C84.2866 57.9654 84.3333 58.3294 84.4266 58.6794C84.5199 59.0247 84.6763 59.307 84.8956 59.5264C85.1149 59.7457 85.4159 59.8554 85.7986 59.8554ZM90.6543 61.2344V53.9964H92.6213V55.7114C92.738 55.3427 92.9013 55.0207 93.1113 54.7454C93.326 54.4654 93.585 54.2484 93.8883 54.0944C94.1916 53.9357 94.5346 53.8564 94.9173 53.8564C94.9826 53.8564 95.0433 53.861 95.0993 53.8704C95.16 53.875 95.2043 53.8844 95.2323 53.8984V55.8444C95.1903 55.8257 95.139 55.814 95.0783 55.8094C95.0223 55.8047 94.971 55.8 94.9243 55.7954C94.523 55.7627 94.18 55.7744 93.8953 55.8304C93.6106 55.8864 93.3796 55.982 93.2023 56.1174C93.025 56.2527 92.8966 56.4184 92.8173 56.6144C92.738 56.8104 92.6983 57.0297 92.6983 57.2724V61.2344H90.6543ZM100.902 55.4174H99.2922L99.3062 59.2744C99.3062 59.4517 99.3272 59.5847 99.3692 59.6734C99.4159 59.7574 99.4859 59.8134 99.5792 59.8414C99.6772 59.8647 99.8009 59.8764 99.9502 59.8764H100.923V61.1364C100.83 61.1784 100.683 61.218 100.482 61.2554C100.286 61.2927 100.011 61.3114 99.6562 61.3114C99.0215 61.3114 98.5292 61.2297 98.1792 61.0664C97.8339 60.903 97.5935 60.6744 97.4582 60.3804C97.3229 60.0864 97.2552 59.7457 97.2552 59.3584V55.4174H96.0792V53.9964H97.3252L97.8362 51.8124H99.2922V53.9894H100.902V55.4174Z" fill="#112E51"/>
<path d="M83.9883 100.686C83.9883 99.6943 84.792 98.8906 85.7834 98.8906H103.987C104.979 98.8906 105.783 99.6943 105.783 100.686V118.89C105.783 119.881 104.979 120.685 103.987 120.685H85.7834C84.792 120.685 83.9883 119.881 83.9883 118.89V100.686Z" fill="#EBF3FA"/>
<path d="M101.584 115.314L100.659 116.238C100.527 116.37 100.329 116.337 100.263 116.205L96.6987 110.825C96.6327 110.693 96.5007 110.693 96.4017 110.792L92.8041 114.39C92.7711 114.423 92.7711 114.489 92.7711 114.522L93.0351 118.185C93.0351 118.218 93.0021 118.317 92.9691 118.35L92.309 119.011C92.21 119.11 92.045 119.077 91.9789 118.978L90.0316 115.314L89.8996 115.05C89.8666 115.017 89.8336 114.984 89.8006 114.951L89.5365 114.819L85.8399 112.838C85.7079 112.772 85.7079 112.607 85.8069 112.508L86.467 111.848C86.5 111.815 86.566 111.815 86.632 111.782L90.2627 112.046C90.2957 112.046 90.3947 112.013 90.3947 112.013L93.9923 108.416C94.0913 108.317 94.0583 108.152 93.9593 108.119L88.6124 104.488C88.4804 104.389 88.4143 104.224 88.5464 104.092L89.4705 103.168C89.5365 103.102 89.6025 103.069 89.7346 103.102L97.2598 104.983C97.3258 105.016 97.3919 104.983 97.4579 104.95L100.461 101.947C100.494 101.914 100.56 101.848 100.593 101.815C101.419 101.056 102.706 100.263 103.63 101.056C103.663 101.089 103.663 101.089 103.663 101.089C103.696 101.122 103.696 101.122 103.696 101.122C104.488 102.046 103.729 103.333 102.937 104.158C102.904 104.191 102.838 104.257 102.805 104.29L99.8343 107.261C99.8013 107.294 99.7683 107.393 99.8013 107.459L101.683 114.984C101.683 115.116 101.65 115.248 101.584 115.314Z" fill="#0071BB"/>
<path d="M23.6668 82.9812V85.6437H11.8543V82.9812H23.6668ZM19.1043 90.2062H16.4418V78.3937H19.1043V90.2062Z" fill="#112E51"/>
</svg>
