<svg width="131" height="151" viewBox="0 0 131 151" fill="none" xmlns="http://www.w3.org/2000/svg">
<circle cx="87.0895" cy="44.4215" r="43.4527" fill="#EBF3FA"/>
<path fill-rule="evenodd" clip-rule="evenodd" d="M91.495 69.585H4.88824C2.48857 69.585 0.542969 67.4558 0.542969 64.8298V18.6771C0.542969 16.051 2.48857 13.9219 4.88824 13.9219H91.495C93.8947 13.9219 95.8403 16.051 95.8403 18.6771V64.8298C95.8403 67.4558 93.8947 69.585 91.495 69.585Z" fill="white"/>
<path fill-rule="evenodd" clip-rule="evenodd" d="M91.495 69.585H4.88824C2.48857 69.585 0.542969 67.4558 0.542969 64.8298V18.6771C0.542969 16.051 2.48857 13.9219 4.88824 13.9219H91.495C93.8947 13.9219 95.8403 16.051 95.8403 18.6771V64.8298C95.8403 67.4558 93.8947 69.585 91.495 69.585Z" stroke="#112E51"/>
<path d="M63.8828 39.6701C63.8828 38.6787 64.6865 37.875 65.6779 37.875H86.6252C87.6166 37.875 88.4203 38.6787 88.4203 39.6701V60.6174C88.4203 61.6088 87.6166 62.4125 86.6252 62.4125H65.6779C64.6865 62.4125 63.8828 61.6088 63.8828 60.6174V39.6701Z" fill="#EBF3FA"/>
<path fill-rule="evenodd" clip-rule="evenodd" d="M26.9885 62.3564H8.98338C8.18827 62.3564 7.54297 61.7772 7.54297 61.0634V40.3751C7.54297 39.6613 8.18827 39.082 8.98338 39.082H26.9885C27.7836 39.082 28.4289 39.6613 28.4289 40.3751V61.0634C28.4289 61.7772 27.7836 62.3564 26.9885 62.3564Z" fill="#EBF3FA"/>
<mask id="mask0_677_29143" style="mask-type:luminance" maskUnits="userSpaceOnUse" x="9" y="41" width="18" height="22">
<path fill-rule="evenodd" clip-rule="evenodd" d="M12.9876 46.2552V46.786C12.495 46.8674 12.1191 47.2916 12.1191 47.803V49.0064C12.1191 49.5271 12.508 49.9564 13.0136 50.0277C13.1936 51.7302 14.2703 53.1692 15.7683 53.8721V55.453H15.4205C11.9649 55.453 9.16406 58.2243 9.16406 61.6431V62.4159H26.5433V61.6431C26.5433 58.2243 23.7417 55.453 20.2869 55.453H19.939V53.8721C21.4371 53.1692 22.5138 51.7302 22.6931 50.0277C23.1994 49.9564 23.5883 49.5271 23.5883 49.0064V47.803C23.5883 47.2916 23.2131 46.8674 22.7197 46.786V46.2552C22.7197 43.597 20.5411 41.4414 17.854 41.4414C15.1662 41.4414 12.9876 43.597 12.9876 46.2552Z" fill="white"/>
</mask>
<g mask="url(#mask0_677_29143)">
<path fill-rule="evenodd" clip-rule="evenodd" d="M2.78125 66.0164H32.9239V37.8398H2.78125V66.0164Z" fill="#C8D3DD"/>
</g>
<rect x="35.6426" y="59.0586" width="15.8918" height="3.20092" rx="1.60046" fill="#C8D3DD"/>
<path d="M11.5756 30.7377C11.0763 30.7377 10.5863 30.6747 10.1056 30.5487C9.62496 30.4227 9.18629 30.2337 8.78963 29.9817C8.39296 29.7297 8.06396 29.4147 7.80263 29.0367C7.54596 28.6587 7.39196 28.2153 7.34063 27.7067H9.43363C9.50363 28.0147 9.63663 28.2737 9.83263 28.4837C10.0286 28.6937 10.276 28.8547 10.5746 28.9667C10.8733 29.0787 11.2046 29.1347 11.5686 29.1347C11.942 29.1347 12.2826 29.088 12.5906 28.9947C12.8986 28.9013 13.146 28.7613 13.3326 28.5747C13.5193 28.3833 13.6126 28.1453 13.6126 27.8607C13.6126 27.604 13.5356 27.394 13.3816 27.2307C13.2323 27.0673 13.0293 26.9343 12.7726 26.8317C12.516 26.729 12.2243 26.645 11.8976 26.5797L10.1476 26.2227C9.38229 26.078 8.77563 25.7747 8.32763 25.3127C7.87963 24.846 7.64863 24.2253 7.63463 23.4507C7.62996 22.816 7.79796 22.2677 8.13863 21.8057C8.48396 21.339 8.95063 20.9797 9.53863 20.7277C10.1313 20.4757 10.794 20.3497 11.5266 20.3497C12.3993 20.3497 13.132 20.4873 13.7246 20.7627C14.322 21.0333 14.7746 21.402 15.0826 21.8687C15.3953 22.3307 15.5563 22.8463 15.5656 23.4157H13.5146C13.4773 23.061 13.37 22.7787 13.1926 22.5687C13.0153 22.3587 12.7866 22.207 12.5066 22.1137C12.2313 22.0203 11.9163 21.9737 11.5616 21.9737C11.291 21.9737 11.0436 22.004 10.8196 22.0647C10.6003 22.1253 10.4136 22.2117 10.2596 22.3237C10.1056 22.431 9.98663 22.5593 9.90263 22.7087C9.81863 22.858 9.77663 23.026 9.77663 23.2127C9.77663 23.5067 9.87463 23.7447 10.0706 23.9267C10.2666 24.1087 10.633 24.258 11.1696 24.3747L12.9056 24.7317C13.5263 24.853 14.0186 25.0327 14.3826 25.2707C14.7513 25.5087 15.0266 25.777 15.2086 26.0757C15.3953 26.3743 15.5166 26.68 15.5726 26.9927C15.6333 27.3007 15.6636 27.5853 15.6636 27.8467C15.6636 28.3927 15.491 28.885 15.1456 29.3237C14.805 29.7577 14.329 30.103 13.7176 30.3597C13.1063 30.6117 12.3923 30.7377 11.5756 30.7377ZM21.4276 24.7807H19.8176L19.8316 28.6377C19.8316 28.815 19.8526 28.948 19.8946 29.0367C19.9412 29.1207 20.0112 29.1767 20.1046 29.2047C20.2026 29.228 20.3262 29.2397 20.4756 29.2397H21.4486V30.4997C21.3552 30.5417 21.2082 30.5813 21.0076 30.6187C20.8116 30.656 20.5362 30.6747 20.1816 30.6747C19.5469 30.6747 19.0546 30.593 18.7046 30.4297C18.3592 30.2663 18.1189 30.0377 17.9836 29.7437C17.8482 29.4497 17.7806 29.109 17.7806 28.7217V24.7807H16.6046V23.3597H17.8506L18.3616 21.1757H19.8176V23.3527H21.4276V24.7807ZM25.0238 30.7377C24.5618 30.7377 24.1465 30.6513 23.7778 30.4787C23.4092 30.306 23.1175 30.0563 22.9028 29.7297C22.6882 29.3983 22.5808 28.997 22.5808 28.5257C22.5808 27.7323 22.8772 27.1303 23.4698 26.7197C24.0625 26.3043 24.9982 26.0897 26.2768 26.0757L27.1798 26.0617V25.6277C27.1798 25.2963 27.0818 25.042 26.8858 24.8647C26.6945 24.6827 26.3958 24.594 25.9898 24.5987C25.6912 24.6033 25.4065 24.6733 25.1358 24.8087C24.8698 24.944 24.6878 25.1797 24.5898 25.5157H22.8888C22.9168 24.993 23.0685 24.5637 23.3438 24.2277C23.6192 23.887 23.9925 23.635 24.4638 23.4717C24.9398 23.3037 25.4788 23.2197 26.0808 23.2197C26.8228 23.2197 27.4178 23.313 27.8658 23.4997C28.3138 23.6817 28.6382 23.9453 28.8388 24.2907C29.0395 24.6313 29.1398 25.0373 29.1398 25.5087V30.5977H27.4318L27.2638 29.3517C27.0165 29.8743 26.7062 30.236 26.3328 30.4367C25.9642 30.6373 25.5278 30.7377 25.0238 30.7377ZM25.7098 29.3937C25.8965 29.3937 26.0762 29.361 26.2488 29.2957C26.4262 29.2257 26.5825 29.1347 26.7178 29.0227C26.8578 28.906 26.9698 28.7753 27.0538 28.6307C27.1378 28.486 27.1798 28.3367 27.1798 28.1827V27.1117L26.4448 27.1257C26.1042 27.1303 25.7868 27.1723 25.4928 27.2517C25.1988 27.3263 24.9608 27.45 24.7788 27.6227C24.6015 27.7953 24.5128 28.0287 24.5128 28.3227C24.5128 28.6587 24.6295 28.9223 24.8628 29.1137C25.0962 29.3003 25.3785 29.3937 25.7098 29.3937ZM35.0448 24.7807H33.4348L33.4488 28.6377C33.4488 28.815 33.4698 28.948 33.5118 29.0367C33.5584 29.1207 33.6284 29.1767 33.7218 29.2047C33.8198 29.228 33.9434 29.2397 34.0928 29.2397H35.0658V30.4997C34.9724 30.5417 34.8254 30.5813 34.6248 30.6187C34.4288 30.656 34.1534 30.6747 33.7988 30.6747C33.1641 30.6747 32.6718 30.593 32.3218 30.4297C31.9764 30.2663 31.7361 30.0377 31.6008 29.7437C31.4654 29.4497 31.3978 29.109 31.3978 28.7217V24.7807H30.2218V23.3597H31.4678L31.9788 21.1757H33.4348V23.3527H35.0448V24.7807ZM38.0023 27.4477C37.9976 27.8163 38.0559 28.1383 38.1773 28.4137C38.2986 28.6843 38.4736 28.8943 38.7023 29.0437C38.9356 29.1883 39.2156 29.2607 39.5423 29.2607C39.8923 29.2607 40.1979 29.186 40.4593 29.0367C40.7253 28.8873 40.9096 28.6423 41.0123 28.3017H42.8533C42.7739 28.815 42.5686 29.2537 42.2373 29.6177C41.9106 29.9817 41.5139 30.2593 41.0473 30.4507C40.5806 30.642 40.0953 30.7377 39.5913 30.7377C38.8773 30.7377 38.2473 30.5883 37.7013 30.2897C37.1599 29.9863 36.7376 29.5593 36.4343 29.0087C36.1309 28.458 35.9793 27.8093 35.9793 27.0627C35.9793 26.3393 36.1169 25.6883 36.3923 25.1097C36.6676 24.5263 37.0666 24.0667 37.5893 23.7307C38.1166 23.39 38.7489 23.2197 39.4863 23.2197C40.2236 23.2197 40.8419 23.376 41.3413 23.6887C41.8453 23.9967 42.2233 24.4283 42.4753 24.9837C42.7319 25.5343 42.8603 26.1713 42.8603 26.8947V27.4477H38.0023ZM37.9953 26.2297H40.9493C40.9493 25.9403 40.8956 25.6743 40.7883 25.4317C40.6809 25.189 40.5176 24.9977 40.2983 24.8577C40.0836 24.7177 39.8129 24.6477 39.4863 24.6477C39.1689 24.6477 38.8983 24.7247 38.6743 24.8787C38.4549 25.028 38.2869 25.224 38.1703 25.4667C38.0536 25.7093 37.9953 25.9637 37.9953 26.2297ZM47.4641 20.4757H49.5011V30.5977H47.4641V20.4757ZM51.7707 20.4757C51.8221 20.4757 51.9644 20.4757 52.1977 20.4757C52.4357 20.4757 52.7134 20.4757 53.0307 20.4757C53.3527 20.4757 53.6724 20.478 53.9897 20.4827C54.3117 20.4827 54.5801 20.485 54.7947 20.4897C56.0221 20.5177 57.0231 20.737 57.7977 21.1477C58.5724 21.5583 59.1394 22.1323 59.4987 22.8697C59.8627 23.607 60.0447 24.4797 60.0447 25.4877C60.0447 26.5377 59.8534 27.4453 59.4707 28.2107C59.0881 28.9713 58.5024 29.5593 57.7137 29.9747C56.9297 30.39 55.9334 30.5977 54.7247 30.5977H51.7707V20.4757ZM53.8287 22.1277V28.9457H54.7667C55.3454 28.9457 55.8704 28.8337 56.3417 28.6097C56.8177 28.3857 57.1981 28.0193 57.4827 27.5107C57.7674 27.002 57.9097 26.323 57.9097 25.4737C57.9097 24.685 57.7837 24.0457 57.5317 23.5557C57.2797 23.061 56.9204 22.6993 56.4537 22.4707C55.9871 22.242 55.4341 22.1277 54.7947 22.1277H53.8287Z" fill="#112E51"/>
<rect x="47.7116" y="45.5573" width="73.07" height="93.6277" rx="1.43343" fill="white" stroke="#112E51" stroke-width="1.27079"/>
<rect x="36.1784" y="56.362" width="73.07" height="93.6277" rx="1.43343" fill="white" stroke="#112E51" stroke-width="1.27079"/>
<path d="M43.1145 64.7452C43.1658 64.7452 43.3081 64.7452 43.5415 64.7452C43.7795 64.7452 44.0571 64.7452 44.3745 64.7452C44.6965 64.7452 45.0161 64.7475 45.3335 64.7522C45.6555 64.7522 45.9238 64.7545 46.1385 64.7592C47.3658 64.7872 48.3668 65.0065 49.1415 65.4172C49.9161 65.8279 50.4831 66.4019 50.8425 67.1392C51.2065 67.8765 51.3885 68.7492 51.3885 69.7572C51.3885 70.8072 51.1971 71.7149 50.8145 72.4802C50.4318 73.2409 49.8461 73.8289 49.0575 74.2442C48.2735 74.6595 47.2771 74.8672 46.0685 74.8672H43.1145V64.7452ZM45.1725 66.3972V73.2152H46.1105C46.6891 73.2152 47.2141 73.1032 47.6855 72.8792C48.1615 72.6552 48.5418 72.2889 48.8265 71.7802C49.1111 71.2715 49.2535 70.5925 49.2535 69.7432C49.2535 68.9545 49.1275 68.3152 48.8755 67.8252C48.6235 67.3305 48.2641 66.9689 47.7975 66.7402C47.3308 66.5115 46.7778 66.3972 46.1385 66.3972H45.1725ZM56.0396 75.0072C55.3303 75.0072 54.712 74.8555 54.1846 74.5522C53.662 74.2489 53.256 73.8195 52.9666 73.2642C52.682 72.7089 52.5396 72.0509 52.5396 71.2902C52.5396 70.5295 52.682 69.8645 52.9666 69.2952C53.256 68.7259 53.662 68.2825 54.1846 67.9652C54.712 67.6479 55.3326 67.4892 56.0466 67.4892C56.7606 67.4892 57.379 67.6455 57.9016 67.9582C58.4243 68.2662 58.828 68.7049 59.1126 69.2742C59.3973 69.8435 59.5396 70.5155 59.5396 71.2902C59.5396 72.0182 59.3996 72.6622 59.1196 73.2222C58.8443 73.7775 58.4453 74.2139 57.9226 74.5312C57.4046 74.8485 56.777 75.0072 56.0396 75.0072ZM56.0466 73.4882C56.406 73.4882 56.6953 73.3832 56.9146 73.1732C57.134 72.9632 57.2926 72.6879 57.3906 72.3472C57.4933 72.0019 57.5446 71.6262 57.5446 71.2202C57.5446 70.8375 57.498 70.4759 57.4046 70.1352C57.316 69.7945 57.162 69.5192 56.9426 69.3092C56.7233 69.0992 56.4246 68.9942 56.0466 68.9942C55.6873 68.9942 55.3956 69.0945 55.1716 69.2952C54.9523 69.4912 54.7913 69.7595 54.6886 70.1002C54.586 70.4362 54.5346 70.8095 54.5346 71.2202C54.5346 71.5982 54.5813 71.9622 54.6746 72.3122C54.768 72.6575 54.9243 72.9399 55.1436 73.1592C55.363 73.3785 55.664 73.4882 56.0466 73.4882ZM64.0033 67.4892C64.61 67.4892 65.1327 67.6129 65.5713 67.8602C66.0147 68.1075 66.3623 68.4412 66.6143 68.8612C66.871 69.2812 67.018 69.7502 67.0553 70.2682H65.3543C65.3217 70.0769 65.254 69.8879 65.1513 69.7012C65.0487 69.5099 64.904 69.3535 64.7173 69.2322C64.5307 69.1062 64.2973 69.0432 64.0173 69.0432C63.5413 69.0432 63.154 69.2275 62.8553 69.5962C62.5613 69.9602 62.4143 70.5155 62.4143 71.2622C62.4143 71.9669 62.559 72.5269 62.8483 72.9422C63.1377 73.3529 63.5413 73.5582 64.0593 73.5582C64.3347 73.5582 64.5633 73.4905 64.7453 73.3552C64.932 73.2199 65.0767 73.0589 65.1793 72.8722C65.282 72.6809 65.3473 72.5035 65.3753 72.3402H67.0343C67.0017 72.8395 66.857 73.2922 66.6003 73.6982C66.3437 74.0995 65.9937 74.4192 65.5503 74.6572C65.1117 74.8905 64.596 75.0072 64.0033 75.0072C63.3313 75.0072 62.7317 74.8579 62.2043 74.5592C61.677 74.2605 61.2617 73.8335 60.9583 73.2782C60.6597 72.7182 60.5103 72.0509 60.5103 71.2762C60.5103 70.5295 60.655 69.8715 60.9443 69.3022C61.2337 68.7329 61.6397 68.2895 62.1623 67.9722C62.6897 67.6502 63.3033 67.4892 64.0033 67.4892ZM71.3122 75.0072C70.8082 75.0072 70.3229 74.9255 69.8562 74.7622C69.3896 74.5942 68.9952 74.3329 68.6732 73.9782C68.3512 73.6189 68.1459 73.1545 68.0572 72.5852H69.8282C69.8889 72.8419 69.9986 73.0449 70.1572 73.1942C70.3206 73.3435 70.5049 73.4509 70.7102 73.5162C70.9156 73.5769 71.1116 73.6072 71.2982 73.6072C71.6902 73.6072 72.0052 73.5465 72.2432 73.4252C72.4859 73.2992 72.6072 73.1079 72.6072 72.8512C72.6072 72.6552 72.5349 72.4989 72.3902 72.3822C72.2502 72.2655 72.0169 72.1769 71.6902 72.1162L70.4162 71.8502C69.7769 71.7149 69.2636 71.4862 68.8762 71.1642C68.4889 70.8375 68.2906 70.3755 68.2812 69.7782C68.2812 69.3442 68.3956 68.9545 68.6242 68.6092C68.8576 68.2639 69.2006 67.9909 69.6532 67.7902C70.1059 67.5895 70.6612 67.4892 71.3192 67.4892C72.2106 67.4892 72.9222 67.6852 73.4542 68.0772C73.9909 68.4692 74.2639 69.0222 74.2732 69.7362H72.5652C72.5139 69.4562 72.3739 69.2415 72.1452 69.0922C71.9212 68.9382 71.6389 68.8612 71.2982 68.8612C70.9436 68.8612 70.6519 68.9242 70.4232 69.0502C70.1946 69.1762 70.0802 69.3675 70.0802 69.6242C70.0802 69.8155 70.1736 69.9672 70.3602 70.0792C70.5469 70.1865 70.8362 70.2799 71.2282 70.3592L72.4042 70.6252C72.8102 70.7232 73.1392 70.8585 73.3912 71.0312C73.6479 71.1992 73.8462 71.3835 73.9862 71.5842C74.1262 71.7849 74.2219 71.9879 74.2732 72.1932C74.3292 72.3939 74.3572 72.5759 74.3572 72.7392C74.3572 73.2199 74.2289 73.6305 73.9722 73.9712C73.7156 74.3072 73.3586 74.5639 72.9012 74.7412C72.4439 74.9185 71.9142 75.0072 71.3122 75.0072Z" fill="#112E51"/>
<path fill-rule="evenodd" clip-rule="evenodd" d="M101.185 96.0279L43.8142 95.8668C43.1815 95.8668 42.6699 95.2478 42.6699 94.4868C42.6699 93.7245 43.1815 93.1055 43.8142 93.1055L101.185 93.2666C101.817 93.2666 102.33 93.8856 102.33 94.6479C102.33 95.4089 101.817 96.0279 101.185 96.0279Z" fill="#C8D3DD"/>
<path fill-rule="evenodd" clip-rule="evenodd" d="M101.27 103.172L43.7299 103.011C43.1438 103.011 42.6699 102.392 42.6699 101.631C42.6699 100.869 43.1438 100.25 43.7299 100.25L101.27 100.411C101.855 100.411 102.33 101.03 102.33 101.792C102.33 102.553 101.855 103.172 101.27 103.172Z" fill="#C8D3DD"/>
<path fill-rule="evenodd" clip-rule="evenodd" d="M62.961 88.8863H43.7288C43.1438 88.8863 42.6699 88.2687 42.6699 87.5064C42.6699 86.744 43.1438 86.125 43.7288 86.125H62.961C63.546 86.125 64.021 86.744 64.021 87.5064C64.021 88.2687 63.546 88.8863 62.961 88.8863Z" fill="#C8D3DD"/>
<path fill-rule="evenodd" clip-rule="evenodd" d="M82.5019 107.391L101.734 107.391C102.319 107.391 102.793 108.009 102.793 108.771C102.793 109.533 102.319 110.152 101.734 110.152L82.5019 110.152C81.9169 110.152 81.4419 109.533 81.4419 108.771C81.4419 108.009 81.9169 107.391 82.5019 107.391Z" fill="#C8D3DD"/>
<path fill-rule="evenodd" clip-rule="evenodd" d="M57.4519 134.886H43.7288C43.1438 134.886 42.6699 134.269 42.6699 133.506C42.6699 132.744 43.1438 132.125 43.7288 132.125H57.4519C58.0369 132.125 58.5108 132.744 58.5108 133.506C58.5108 134.269 58.0369 134.886 57.4519 134.886Z" fill="#C8D3DD"/>
<path fill-rule="evenodd" clip-rule="evenodd" d="M66.9207 134.91H61.1186C60.5336 134.91 60.0586 134.291 60.0586 133.53C60.0586 132.767 60.5336 132.148 61.1186 132.148H66.9207C67.5057 132.148 67.9807 132.767 67.9807 133.53C67.9807 134.291 67.5057 134.91 66.9207 134.91Z" fill="#C8D3DD"/>
<path fill-rule="evenodd" clip-rule="evenodd" d="M43.7295 107.387L78.5494 107.387C79.1344 107.387 79.6094 108.006 79.6094 108.767C79.6094 109.529 79.1344 110.148 78.5494 110.148L43.7295 110.148C43.1445 110.148 42.6695 109.529 42.6695 108.767C42.6695 108.006 43.1445 107.387 43.7295 107.387Z" fill="#C8D3DD"/>
<circle cx="111.75" cy="54.3442" r="13.1489" fill="#EBF3FA" stroke="#112E51"/>
<mask id="mask1_677_29143" style="mask-type:luminance" maskUnits="userSpaceOnUse" x="103" y="47" width="17" height="20">
<path fill-rule="evenodd" clip-rule="evenodd" d="M107.244 52.0164V52.5079C106.788 52.5833 106.44 52.9761 106.44 53.4496V54.5641C106.44 55.0462 106.8 55.4437 107.268 55.5098C107.435 57.0864 108.432 58.4189 109.819 59.0698V60.5338H109.497C106.297 60.5338 103.703 63.1001 103.703 66.2661V66.9817H119.797V66.2661C119.797 63.1001 117.203 60.5338 114.003 60.5338H113.681V59.0698C115.068 58.4189 116.065 57.0864 116.231 55.5098C116.7 55.4437 117.06 55.0462 117.06 54.5641V53.4496C117.06 52.9761 116.713 52.5833 116.256 52.5079V52.0164C116.256 49.5547 114.239 47.5586 111.75 47.5586C109.261 47.5586 107.244 49.5547 107.244 52.0164Z" fill="white"/>
</mask>
<g mask="url(#mask1_677_29143)">
<path d="M124.515 54.2067C124.515 61.2568 118.8 66.972 111.75 66.972C104.7 66.972 98.9844 61.2568 98.9844 54.2067C98.9844 47.1566 104.7 41.4414 111.75 41.4414C118.8 41.4414 124.515 47.1566 124.515 54.2067Z" fill="#0071BB"/>
</g>
<path d="M23.6668 83.6258V86.2883H11.8543V83.6258H23.6668ZM19.1043 90.8508H16.4418V79.0383H19.1043V90.8508Z" fill="#112E51"/>
</svg>
