<svg xmlns="http://www.w3.org/2000/svg" width="112" height="131" fill="none" viewBox="0 0 112 131"><circle cx="71.57" cy="40.681" r="40" fill="#EBF3FA"/><path fill="#fff" fill-rule="evenodd" d="M84.866 64.093H5.14a4 4 0 0 1-4-4V21.27a4 4 0 0 1 4-4h79.725a4 4 0 0 1 4 4v38.823a4 4 0 0 1-4 4" clip-rule="evenodd"/><path stroke="#112E51" d="M84.866 64.093H5.14a4 4 0 0 1-4-4V21.27a4 4 0 0 1 4-4h79.725a4 4 0 0 1 4 4v38.823a4 4 0 0 1-4 4Z" clip-rule="evenodd"/><path fill="#EBF3FA" fill-rule="evenodd" d="M28.912 59.077H8.362c-.907 0-1.643-.662-1.643-1.476V33.989c0-.814.736-1.475 1.644-1.475h20.549c.907 0 1.644.66 1.644 1.475v23.612c0 .814-.737 1.476-1.644 1.476" clip-rule="evenodd"/><mask id="a" width="21" height="25" x="8" y="35" maskUnits="userSpaceOnUse" style="mask-type:luminance"><path fill="#fff" fill-rule="evenodd" d="M12.93 40.7v.606a1.18 1.18 0 0 0-.991 1.16v1.374a1.18 1.18 0 0 0 1.02 1.165 5.5 5.5 0 0 0 3.145 4.388v1.804h-.397c-3.944 0-7.14 3.163-7.14 7.065v.882H28.4v-.882c0-3.902-3.197-7.065-7.14-7.065h-.397v-1.804a5.5 5.5 0 0 0 3.143-4.388 1.18 1.18 0 0 0 1.022-1.165v-1.374a1.18 1.18 0 0 0-.992-1.16V40.7c0-3.034-2.486-5.494-5.553-5.494s-5.554 2.46-5.554 5.494" clip-rule="evenodd"/></mask><g mask="url(#a)"><path fill="#C8D3DD" fill-rule="evenodd" d="M1.281 63.254h34.402V31.097H1.28z" clip-rule="evenodd"/></g><path fill="#EBF3FA" d="M56.248 25.401a2 2 0 0 1 2-2h23.338a2 2 0 0 1 2 2V48.74a2 2 0 0 1-2 2H58.248a2 2 0 0 1-2-2z"/><rect width="44.487" height="3.344" x="6.719" y="23.401" fill="#C8D3DD" rx="1.672"/><rect width="16.303" height="3.344" x="34.904" y="31.326" fill="#C8D3DD" rx="1.672"/><rect width="16.303" height="3.344" x="34.904" y="39.251" fill="#C8D3DD" rx="1.672"/><rect width="16.303" height="3.344" x="34.904" y="47.176" fill="#C8D3DD" rx="1.672"/><rect width="12.3" height="3.344" x="34.904" y="55.705" fill="#C8D3DD" rx="1.672"/><rect width="29.972" height="3.344" x="52.674" y="55.705" fill="#C8D3DD" rx="1.672"/><path fill="#fff" fill-rule="evenodd" d="M101.967 129.795h-68.55c-2.04 0-3.692-1.607-3.692-3.588V87.795h75.934v38.412c0 1.981-1.653 3.588-3.692 3.588" clip-rule="evenodd"/><path stroke="#112E51" stroke-width="1.064" d="M101.968 129.795H33.352c-2.039 0-3.692-1.607-3.692-3.588V87.795h76v38.412c0 1.981-1.653 3.588-3.692 3.588Z" clip-rule="evenodd"/><rect width="22.59" height="3.234" x="59.381" y="103.053" fill="#C8D3DD" rx="1.617"/><rect width="16.561" height="3.234" x="83.603" y="103.053" fill="#C8D3DD" rx="1.617"/><rect width="40.518" height="3.234" x="59.381" y="110.718" fill="#C8D3DD" rx="1.617"/><rect width="40.518" height="3.234" x="59.381" y="95.387" fill="#C8D3DD" rx="1.617"/><rect width="25.439" height="3.234" x="59.381" y="118.969" fill="#C8D3DD" rx="1.617"/><path fill="#fff" fill-rule="evenodd" d="M105.518 87.795H29.66V49.383c0-1.982 1.653-3.588 3.692-3.588h68.475c2.039 0 3.691 1.606 3.691 3.588z" clip-rule="evenodd"/><path stroke="#112E51" stroke-width="1.064" d="M105.66 87.795h-76V49.383c0-1.982 1.653-3.588 3.692-3.588h68.617c2.038 0 3.691 1.606 3.691 3.588z" clip-rule="evenodd"/><path fill="#EBF3FA" fill-rule="evenodd" d="M54.97 122.148H38.162c-.742 0-1.345-.541-1.345-1.207v-19.315c0-.666.603-1.207 1.345-1.207h16.81c.742 0 1.345.541 1.345 1.207v19.315c0 .666-.603 1.207-1.345 1.207" clip-rule="evenodd"/><mask id="b" width="17" height="21" x="38" y="102" maskUnits="userSpaceOnUse" style="mask-type:luminance"><path fill="#fff" fill-rule="evenodd" d="M41.898 107.115v.496a.966.966 0 0 0-.811.949v1.124c0 .486.363.887.835.953a4.5 4.5 0 0 0 2.572 3.589v1.476h-.325c-3.226 0-5.84 2.588-5.84 5.779v.722h16.224v-.722c0-3.191-2.615-5.779-5.84-5.779h-.325v-1.476a4.5 4.5 0 0 0 2.57-3.589.966.966 0 0 0 .837-.953v-1.124a.965.965 0 0 0-.811-.949v-.496c0-2.481-2.034-4.494-4.543-4.494s-4.543 2.013-4.543 4.494" clip-rule="evenodd"/></mask><g mask="url(#b)"><path fill="#C8D3DD" fill-rule="evenodd" d="M32.37 125.565h28.14V99.26H32.37z" clip-rule="evenodd"/></g><path fill="#EDF3FB" fill-rule="evenodd" d="M69.29 70.732 51 80.267a.928.928 0 0 1-.859-1.645l18.29-9.535a.928.928 0 1 1 .858 1.645" clip-rule="evenodd"/><path stroke="#EDF3FB" stroke-width=".988" d="m46.629 77.803 23.146-12.067 3.027 5.806-23.147 12.067z"/><path fill="#EDF3FB" d="M60.513 61.753a3.1 3.1 0 0 0-.995-2.278 1.45 1.45 0 0 1-.393-1.466 3.17 3.17 0 0 0-.262-2.488 3.1 3.1 0 0 0-2.016-1.466c-.524-.105-.943-.524-1.074-1.074-.183-.838-.733-1.57-1.466-2.016-.76-.445-1.65-.524-2.488-.262-.524.157-1.1 0-1.466-.393a3.1 3.1 0 0 0-2.278-.995 3.1 3.1 0 0 0-2.278.995 1.45 1.45 0 0 1-1.467.393 3.17 3.17 0 0 0-2.487.262 3.1 3.1 0 0 0-1.467 2.016c-.104.524-.523.943-1.073 1.074-.838.183-1.572.733-2.017 1.466-.445.76-.523 1.65-.261 2.488.157.524 0 1.1-.393 1.466a3.1 3.1 0 0 0-.995 2.278c0 .865.366 1.703.995 2.279.393.366.55.942.393 1.466a3.17 3.17 0 0 0 .261 2.487 3.1 3.1 0 0 0 2.017 1.467c.523.105.942.524 1.073 1.073a3.2 3.2 0 0 0 1.467 2.017c.759.445 1.65.523 2.487.262.524-.157 1.1 0 1.467.392a3.1 3.1 0 0 0 2.278.995 3.1 3.1 0 0 0 2.278-.995 1.45 1.45 0 0 1 1.466-.392 3.17 3.17 0 0 0 2.488-.262 3.1 3.1 0 0 0 1.466-2.017c.105-.523.524-.942 1.074-1.073.838-.183 1.57-.733 2.016-1.466.445-.76.524-1.65.262-2.488-.157-.524 0-1.1.393-1.466a3.1 3.1 0 0 0 .995-2.279m-2.148 1.022a3.09 3.09 0 0 0-.864 3.22c.131.367.079.786-.13 1.126s-.524.577-.917.681a3.1 3.1 0 0 0-2.357 2.357 1.38 1.38 0 0 1-.654.916c-.34.21-.733.236-1.126.131a3.09 3.09 0 0 0-3.221.864c-.524.577-1.519.577-2.069 0a3.1 3.1 0 0 0-2.278-.995c-.314 0-.628.053-.916.131a1.31 1.31 0 0 1-1.126-.13 1.5 1.5 0 0 1-.681-.917 3.1 3.1 0 0 0-2.357-2.357 1.34 1.34 0 0 1-.916-.68c-.21-.341-.236-.734-.131-1.126a3.09 3.09 0 0 0-.864-3.221 1.45 1.45 0 0 1-.42-1.022c0-.392.158-.759.446-1.02a3.09 3.09 0 0 0 .864-3.222 1.32 1.32 0 0 1 .131-1.126c.21-.34.524-.576.916-.654a3.1 3.1 0 0 0 2.357-2.357 1.38 1.38 0 0 1 .655-.916c.34-.21.733-.236 1.126-.131a3.09 3.09 0 0 0 3.22-.864 1.37 1.37 0 0 1 1.022-.446c.392 0 .76.158 1.021.446a3.09 3.09 0 0 0 3.22.864 1.32 1.32 0 0 1 1.127.13c.34.21.576.524.654.917a3.1 3.1 0 0 0 2.357 2.357c.393.078.707.314.916.654s.236.734.131 1.126a3.09 3.09 0 0 0 .864 3.221c.289.262.446.629.446 1.021 0 .393-.157.76-.446 1.022"/><path fill="#EDF3FB" d="M48.075 54.264a7.487 7.487 0 0 0-7.49 7.489 7.49 7.49 0 0 0 7.49 7.489 7.487 7.487 0 0 0 7.489-7.49 7.487 7.487 0 0 0-7.49-7.488"/><path fill="#0071BB" d="M96.833 72.443 95.575 73.7c-.18.18-.45.135-.54-.045l-4.852-7.324c-.09-.18-.27-.18-.405-.045l-4.898 4.898c-.045.045-.045.135-.045.18l.36 4.987c0 .045-.045.18-.09.225l-.899.899c-.135.135-.36.09-.45-.045l-2.65-4.988-.18-.36-.135-.134-.36-.18-5.032-2.696c-.18-.09-.18-.315-.045-.45l.899-.898c.044-.045.134-.045.224-.09l4.943.36c.045 0 .18-.046.18-.046l4.898-4.898c.135-.134.09-.36-.045-.404l-7.28-4.943c-.18-.135-.27-.36-.09-.54l1.259-1.257c.09-.09.18-.135.36-.09l10.245 2.561c.09.045.18 0 .27-.045l4.088-4.089.18-.18c1.123-1.033 2.876-2.112 4.134-1.033l.045.045.045.045c1.078 1.258.045 3.01-1.034 4.134l-.18.18-4.044 4.044c-.044.045-.09.18-.044.27l2.56 10.245c0 .18-.044.359-.134.449"/></svg>