<svg width="132" height="101" viewBox="0 0 132 101" fill="none" xmlns="http://www.w3.org/2000/svg">
<circle cx="87.0895" cy="43.777" r="43.4527" fill="#EBF3FA"/>
<path fill-rule="evenodd" clip-rule="evenodd" d="M91.495 68.9404H4.88824C2.48857 68.9404 0.542969 66.8113 0.542969 64.1852V18.0325C0.542969 15.4065 2.48857 13.2773 4.88824 13.2773H91.495C93.8947 13.2773 95.8403 15.4065 95.8403 18.0325V64.1852C95.8403 66.8113 93.8947 68.9404 91.495 68.9404" fill="white"/>
<path fill-rule="evenodd" clip-rule="evenodd" d="M91.495 68.9404H4.88824C2.48857 68.9404 0.542969 66.8113 0.542969 64.1852V18.0325C0.542969 15.4065 2.48857 13.2773 4.88824 13.2773H91.495C93.8947 13.2773 95.8403 15.4065 95.8403 18.0325V64.1852C95.8403 66.8113 93.8947 68.9404 91.495 68.9404Z" stroke="#112E51"/>
<path d="M63.8828 39.0256C63.8828 38.0342 64.6865 37.2305 65.6779 37.2305H86.6252C87.6166 37.2305 88.4203 38.0342 88.4203 39.0256V59.9728C88.4203 60.9643 87.6166 61.768 86.6252 61.768H65.6779C64.6865 61.768 63.8828 60.9643 63.8828 59.9728V39.0256Z" fill="#EBF3FA"/>
<path fill-rule="evenodd" clip-rule="evenodd" d="M26.9885 61.7119H8.98338C8.18827 61.7119 7.54297 61.1326 7.54297 60.4189V39.7305C7.54297 39.0168 8.18827 38.4375 8.98338 38.4375H26.9885C27.7836 38.4375 28.4289 39.0168 28.4289 39.7305V60.4189C28.4289 61.1326 27.7836 61.7119 26.9885 61.7119Z" fill="#EBF3FA"/>
<mask id="mask0_276_11160" style="mask-type:luminance" maskUnits="userSpaceOnUse" x="9" y="40" width="18" height="22">
<path fill-rule="evenodd" clip-rule="evenodd" d="M12.9876 45.6107V46.1415C12.495 46.2229 12.1191 46.6471 12.1191 47.1584V47.1584V48.3619C12.1191 48.8826 12.508 49.3118 13.0136 49.3831V49.3831C13.1936 51.0857 14.2703 52.5247 15.7683 53.2276V53.2276V54.8084H15.4205C11.9649 54.8084 9.16406 57.5798 9.16406 60.9986V60.9986V61.7714H26.5433V60.9986C26.5433 57.5798 23.7417 54.8084 20.2869 54.8084V54.8084H19.939V53.2276C21.4371 52.5247 22.5138 51.0857 22.6931 49.3831V49.3831C23.1994 49.3118 23.5883 48.8826 23.5883 48.3619V48.3619V47.1584C23.5883 46.6471 23.2131 46.2229 22.7197 46.1415V46.1415V45.6107C22.7197 42.9524 20.5411 40.7969 17.854 40.7969V40.7969C15.1662 40.7969 12.9876 42.9524 12.9876 45.6107V45.6107Z" fill="white"/>
</mask>
<g mask="url(#mask0_276_11160)">
<path fill-rule="evenodd" clip-rule="evenodd" d="M2.78125 65.3718H32.9239V37.1953H2.78125V65.3718Z" fill="#C8D3DD"/>
</g>
<rect x="35.6426" y="44.8555" width="21.0633" height="3.20092" rx="1.60046" fill="#C8D3DD"/>
<rect x="35.6426" y="51.6328" width="15.8918" height="3.20092" rx="1.60046" fill="#C8D3DD"/>
<rect x="35.6426" y="58.4141" width="15.8918" height="3.20092" rx="1.60046" fill="#C8D3DD"/>
<path d="M11.5756 30.0931C11.0763 30.0931 10.5863 30.0301 10.1056 29.9041C9.62496 29.7781 9.18629 29.5891 8.78963 29.3371C8.39296 29.0851 8.06396 28.7701 7.80263 28.3921C7.54596 28.0141 7.39196 27.5708 7.34063 27.0621H9.43363C9.50363 27.3701 9.63663 27.6291 9.83263 27.8391C10.0286 28.0491 10.276 28.2101 10.5746 28.3221C10.8733 28.4341 11.2046 28.4901 11.5686 28.4901C11.942 28.4901 12.2826 28.4435 12.5906 28.3501C12.8986 28.2568 13.146 28.1168 13.3326 27.9301C13.5193 27.7388 13.6126 27.5008 13.6126 27.2161C13.6126 26.9595 13.5356 26.7495 13.3816 26.5861C13.2323 26.4228 13.0293 26.2898 12.7726 26.1871C12.516 26.0845 12.2243 26.0005 11.8976 25.9351L10.1476 25.5781C9.38229 25.4335 8.77563 25.1301 8.32763 24.6681C7.87963 24.2015 7.64863 23.5808 7.63463 22.8061C7.62996 22.1715 7.79796 21.6231 8.13863 21.1611C8.48396 20.6945 8.95063 20.3351 9.53863 20.0831C10.1313 19.8311 10.794 19.7051 11.5266 19.7051C12.3993 19.7051 13.132 19.8428 13.7246 20.1181C14.322 20.3888 14.7746 20.7575 15.0826 21.2241C15.3953 21.6861 15.5563 22.2018 15.5656 22.7711H13.5146C13.4773 22.4165 13.37 22.1341 13.1926 21.9241C13.0153 21.7141 12.7866 21.5625 12.5066 21.4691C12.2313 21.3758 11.9163 21.3291 11.5616 21.3291C11.291 21.3291 11.0436 21.3595 10.8196 21.4201C10.6003 21.4808 10.4136 21.5671 10.2596 21.6791C10.1056 21.7865 9.98663 21.9148 9.90263 22.0641C9.81863 22.2135 9.77663 22.3815 9.77663 22.5681C9.77663 22.8621 9.87463 23.1001 10.0706 23.2821C10.2666 23.4641 10.633 23.6135 11.1696 23.7301L12.9056 24.0871C13.5263 24.2085 14.0186 24.3881 14.3826 24.6261C14.7513 24.8641 15.0266 25.1325 15.2086 25.4311C15.3953 25.7298 15.5166 26.0355 15.5726 26.3481C15.6333 26.6561 15.6636 26.9408 15.6636 27.2021C15.6636 27.7481 15.491 28.2405 15.1456 28.6791C14.805 29.1131 14.329 29.4585 13.7176 29.7151C13.1063 29.9671 12.3923 30.0931 11.5756 30.0931ZM21.4276 24.1361H19.8176L19.8316 27.9931C19.8316 28.1705 19.8526 28.3035 19.8946 28.3921C19.9412 28.4761 20.0112 28.5321 20.1046 28.5601C20.2026 28.5835 20.3262 28.5951 20.4756 28.5951H21.4486V29.8551C21.3552 29.8971 21.2082 29.9368 21.0076 29.9741C20.8116 30.0115 20.5362 30.0301 20.1816 30.0301C19.5469 30.0301 19.0546 29.9485 18.7046 29.7851C18.3592 29.6218 18.1189 29.3931 17.9836 29.0991C17.8482 28.8051 17.7806 28.4645 17.7806 28.0771V24.1361H16.6046V22.7151H17.8506L18.3616 20.5311H19.8176V22.7081H21.4276V24.1361ZM25.0238 30.0931C24.5618 30.0931 24.1465 30.0068 23.7778 29.8341C23.4092 29.6615 23.1175 29.4118 22.9028 29.0851C22.6882 28.7538 22.5808 28.3525 22.5808 27.8811C22.5808 27.0878 22.8772 26.4858 23.4698 26.0751C24.0625 25.6598 24.9982 25.4451 26.2768 25.4311L27.1798 25.4171V24.9831C27.1798 24.6518 27.0818 24.3975 26.8858 24.2201C26.6945 24.0381 26.3958 23.9495 25.9898 23.9541C25.6912 23.9588 25.4065 24.0288 25.1358 24.1641C24.8698 24.2995 24.6878 24.5351 24.5898 24.8711H22.8888C22.9168 24.3485 23.0685 23.9191 23.3438 23.5831C23.6192 23.2425 23.9925 22.9905 24.4638 22.8271C24.9398 22.6591 25.4788 22.5751 26.0808 22.5751C26.8228 22.5751 27.4178 22.6685 27.8658 22.8551C28.3138 23.0371 28.6382 23.3008 28.8388 23.6461C29.0395 23.9868 29.1398 24.3928 29.1398 24.8641V29.9531H27.4318L27.2638 28.7071C27.0165 29.2298 26.7062 29.5915 26.3328 29.7921C25.9642 29.9928 25.5278 30.0931 25.0238 30.0931ZM25.7098 28.7491C25.8965 28.7491 26.0762 28.7165 26.2488 28.6511C26.4262 28.5811 26.5825 28.4901 26.7178 28.3781C26.8578 28.2615 26.9698 28.1308 27.0538 27.9861C27.1378 27.8415 27.1798 27.6921 27.1798 27.5381V26.4671L26.4448 26.4811C26.1042 26.4858 25.7868 26.5278 25.4928 26.6071C25.1988 26.6818 24.9608 26.8055 24.7788 26.9781C24.6015 27.1508 24.5128 27.3841 24.5128 27.6781C24.5128 28.0141 24.6295 28.2778 24.8628 28.4691C25.0962 28.6558 25.3785 28.7491 25.7098 28.7491ZM35.0448 24.1361H33.4348L33.4488 27.9931C33.4488 28.1705 33.4698 28.3035 33.5118 28.3921C33.5584 28.4761 33.6284 28.5321 33.7218 28.5601C33.8198 28.5835 33.9434 28.5951 34.0928 28.5951H35.0658V29.8551C34.9724 29.8971 34.8254 29.9368 34.6248 29.9741C34.4288 30.0115 34.1534 30.0301 33.7988 30.0301C33.1641 30.0301 32.6718 29.9485 32.3218 29.7851C31.9764 29.6218 31.7361 29.3931 31.6008 29.0991C31.4654 28.8051 31.3978 28.4645 31.3978 28.0771V24.1361H30.2218V22.7151H31.4678L31.9788 20.5311H33.4348V22.7081H35.0448V24.1361ZM38.0023 26.8031C37.9976 27.1718 38.0559 27.4938 38.1773 27.7691C38.2986 28.0398 38.4736 28.2498 38.7023 28.3991C38.9356 28.5438 39.2156 28.6161 39.5423 28.6161C39.8923 28.6161 40.1979 28.5415 40.4593 28.3921C40.7253 28.2428 40.9096 27.9978 41.0123 27.6571H42.8533C42.7739 28.1705 42.5686 28.6091 42.2373 28.9731C41.9106 29.3371 41.5139 29.6148 41.0473 29.8061C40.5806 29.9975 40.0953 30.0931 39.5913 30.0931C38.8773 30.0931 38.2473 29.9438 37.7013 29.6451C37.1599 29.3418 36.7376 28.9148 36.4343 28.3641C36.1309 27.8135 35.9793 27.1648 35.9793 26.4181C35.9793 25.6948 36.1169 25.0438 36.3923 24.4651C36.6676 23.8818 37.0666 23.4221 37.5893 23.0861C38.1166 22.7455 38.7489 22.5751 39.4863 22.5751C40.2236 22.5751 40.8419 22.7315 41.3413 23.0441C41.8453 23.3521 42.2233 23.7838 42.4753 24.3391C42.7319 24.8898 42.8603 25.5268 42.8603 26.2501V26.8031H38.0023ZM37.9953 25.5851H40.9493C40.9493 25.2958 40.8956 25.0298 40.7883 24.7871C40.6809 24.5445 40.5176 24.3531 40.2983 24.2131C40.0836 24.0731 39.8129 24.0031 39.4863 24.0031C39.1689 24.0031 38.8983 24.0801 38.6743 24.2341C38.4549 24.3835 38.2869 24.5795 38.1703 24.8221C38.0536 25.0648 37.9953 25.3191 37.9953 25.5851ZM47.4641 19.8311H49.5011V29.9531H47.4641V19.8311ZM51.7707 19.8311C51.8221 19.8311 51.9644 19.8311 52.1977 19.8311C52.4357 19.8311 52.7134 19.8311 53.0307 19.8311C53.3527 19.8311 53.6724 19.8335 53.9897 19.8381C54.3117 19.8381 54.5801 19.8405 54.7947 19.8451C56.0221 19.8731 57.0231 20.0925 57.7977 20.5031C58.5724 20.9138 59.1394 21.4878 59.4987 22.2251C59.8627 22.9625 60.0447 23.8351 60.0447 24.8431C60.0447 25.8931 59.8534 26.8008 59.4707 27.5661C59.0881 28.3268 58.5024 28.9148 57.7137 29.3301C56.9297 29.7455 55.9334 29.9531 54.7247 29.9531H51.7707V19.8311ZM53.8287 21.4831V28.3011H54.7667C55.3454 28.3011 55.8704 28.1891 56.3417 27.9651C56.8177 27.7411 57.1981 27.3748 57.4827 26.8661C57.7674 26.3575 57.9097 25.6785 57.9097 24.8291C57.9097 24.0405 57.7837 23.4011 57.5317 22.9111C57.2797 22.4165 56.9204 22.0548 56.4537 21.8261C55.9871 21.5975 55.4341 21.4831 54.7947 21.4831H53.8287Z" fill="#112E51"/>
<path fill-rule="evenodd" clip-rule="evenodd" d="M126.595 100.062H39.9879C37.5882 100.062 35.6426 97.9324 35.6426 95.3063V49.1536C35.6426 46.5276 37.5882 44.3984 39.9879 44.3984H126.595C128.994 44.3984 130.94 46.5276 130.94 49.1536V95.3063C130.94 97.9324 128.994 100.062 126.595 100.062" fill="white"/>
<path fill-rule="evenodd" clip-rule="evenodd" d="M126.595 100.062H39.9879C37.5882 100.062 35.6426 97.9324 35.6426 95.3063V49.1536C35.6426 46.5276 37.5882 44.3984 39.9879 44.3984H126.595C128.994 44.3984 130.94 46.5276 130.94 49.1536V95.3063C130.94 97.9324 128.994 100.062 126.595 100.062Z" stroke="#112E51"/>
<path fill-rule="evenodd" clip-rule="evenodd" d="M62.0881 92.833H44.083C43.2879 92.833 42.6426 92.2537 42.6426 91.54V70.8516C42.6426 70.1379 43.2879 69.5586 44.083 69.5586H62.0881C62.8832 69.5586 63.5285 70.1379 63.5285 70.8516V91.54C63.5285 92.2537 62.8832 92.833 62.0881 92.833Z" fill="#EBF3FA"/>
<mask id="mask1_276_11160" style="mask-type:luminance" maskUnits="userSpaceOnUse" x="44" y="71" width="18" height="22">
<path fill-rule="evenodd" clip-rule="evenodd" d="M48.0872 76.7318V77.2626C47.5946 77.344 47.2187 77.7682 47.2187 78.2795V78.2795V79.483C47.2187 80.0037 47.6076 80.4329 48.1132 80.5042V80.5042C48.2932 82.2068 49.3699 83.6458 50.8679 84.3487V84.3487V85.9295H50.5201C47.0645 85.9295 44.2637 88.7009 44.2637 92.1197V92.1197V92.8925H61.6429V92.1197C61.6429 88.7009 58.8413 85.9295 55.3865 85.9295V85.9295H55.0386V84.3487C56.5367 83.6458 57.6134 82.2068 57.7927 80.5042V80.5042C58.299 80.4329 58.6879 80.0037 58.6879 79.483V79.483V78.2795C58.6879 77.7682 58.3127 77.344 57.8193 77.2626V77.2626V76.7318C57.8193 74.0735 55.6407 71.918 52.9537 71.918V71.918C50.2659 71.918 48.0872 74.0735 48.0872 76.7318V76.7318Z" fill="white"/>
</mask>
<g mask="url(#mask1_276_11160)">
<path fill-rule="evenodd" clip-rule="evenodd" d="M37.8809 96.4929H68.0236V68.3164H37.8809V96.4929Z" fill="#C8D3DD"/>
</g>
<path d="M98.9922 70.61C98.9922 69.6389 99.7795 68.8516 100.751 68.8516H121.27C122.241 68.8516 123.029 69.6389 123.029 70.61V91.1296C123.029 92.1008 122.241 92.8881 121.27 92.8881H100.751C99.7795 92.8881 98.9922 92.1008 98.9922 91.1296V70.61Z" fill="#EBF3FA"/>
<path d="M101.615 73.1878L108.587 78.5713C108.75 78.7519 108.767 79.1509 108.188 79.8903C107.731 80.4743 108.191 80.884 108.468 81.0086V80.1867C108.468 79.7232 108.962 79.6073 109.082 79.6073H109.782C109.778 79.4535 109.772 79.1196 109.782 79.0145C109.796 78.8832 109.649 78.7302 109.446 78.7302C109.281 78.7302 109.06 78.8923 108.962 79.0145C108.829 78.6911 109.041 77.7076 109.257 77.465C109.472 77.2225 109.998 77.2225 110.456 77.0878C110.914 76.953 111.723 77.1282 111.911 77.3707C112.062 77.5647 112.244 78.8618 112.315 79.4861C112.374 79.4771 112.582 79.4645 112.949 79.4861C113.315 79.5076 113.389 79.8274 113.38 79.9846V81.0894C113.73 81.0894 113.919 80.793 114.027 80.5505C114.134 80.308 113.851 79.8768 113.582 79.6073C113.312 79.3379 113.11 78.9471 113.38 78.6372C113.649 78.3274 119.995 73.4499 120.211 73.3152C120.427 73.1804 120.736 73.1939 120.979 73.3152C121.222 73.4364 121.302 74.4065 121.141 74.7568C120.979 75.1071 120.817 75.5922 120.979 75.9829C121.141 76.3737 120.844 76.724 120.629 77.0743C120.413 77.4246 120.588 77.5324 120.629 77.9636C120.669 78.3947 120.373 78.6103 119.995 78.9471C119.618 79.284 119.942 79.3783 119.995 79.7151C120.049 80.052 119.335 80.8469 119.039 80.9412C118.742 81.0356 118.702 81.1299 118.594 81.4263C118.486 81.7227 117.813 82.0326 117.489 82.0596C117.166 82.0865 117.166 82.4638 116.735 82.6254C116.304 82.7871 116.277 82.5042 116.048 82.7896C115.819 83.075 115.36 83.2991 114.889 83.379C114.417 83.4589 114.31 82.7896 114.148 83.124C114.018 83.3915 113.717 83.3073 113.582 83.2318V84.8821C113.501 84.9293 113.294 85.0647 113.11 85.2284C112.881 85.4331 113.461 86.1286 113.582 86.3442C113.703 86.5597 113.959 86.6002 114.027 86.3442C114.08 86.1394 114.408 86.1634 114.566 86.201L116.438 86.9909L114.229 87.8073C114.125 87.8073 113.908 87.7572 113.865 87.5568C113.811 87.3063 113.542 87.5568 113.339 87.7185C113.137 87.8802 113.245 87.8073 112.774 87.7185C112.302 87.6297 112.585 87.9206 112.154 88.3673C111.809 88.7246 111.434 89.1646 111.29 89.3399H110.848C110.848 89.1483 110.369 89.0083 109.942 88.3673C109.515 87.7263 109.191 87.6968 109.036 87.8073C108.881 87.9178 108.572 87.7263 108.542 87.5568C108.519 87.4212 108.184 87.4561 108.019 87.4905V87.8073H106.28V86.201C106.828 86.1765 107.922 86.1421 107.916 86.201C107.908 86.2747 107.997 86.4589 108.188 86.4589C108.896 86.4884 108.925 85.42 108.962 85.2284C108.992 85.0752 108.645 84.9337 108.468 84.8821C108.473 84.472 108.48 83.5971 108.468 83.379C108.454 83.1064 108.019 82.959 107.768 82.9959C107.518 83.0327 107.643 83.158 107.135 83.379C106.626 83.6001 106.295 82.9517 106.081 82.7896C105.867 82.6275 105.587 82.7601 105.285 82.6938C104.983 82.6275 105.271 82.0749 104.652 82.0749C104.033 82.0749 103.872 81.7389 103.634 81.5805C103.396 81.4222 103.594 80.9867 103.476 80.9471C103.357 80.9075 103.04 80.8877 102.684 80.6502C102.328 80.4127 102.169 79.997 102.189 79.799C102.209 79.6011 102.427 79.2844 102.031 79.1458C101.635 79.0073 101.338 78.0769 101.437 77.9384C101.536 77.7998 101.615 77.3049 101.338 77.0278C101.061 76.7507 100.942 76.0975 101.001 75.8006C101.061 75.5037 101.219 75.563 101.12 75.2463C101.021 74.9296 100.704 74.1577 100.823 73.544C100.918 73.0531 101.391 73.102 101.615 73.1878Z" fill="#0071BB"/>
<rect x="70.7422" y="72.2305" width="21.0633" height="3.20092" rx="1.60046" fill="#C8D3DD"/>
<rect x="70.7422" y="80.9141" width="21.0635" height="3.20092" rx="1.60046" fill="#C8D3DD"/>
<rect x="70.7422" y="89.6016" width="21.0635" height="3.20092" rx="1.60046" fill="#C8D3DD"/>
<path d="M42.8742 61.0742V50.9522H45.8422L48.1592 58.1692L50.4972 50.9522H53.4582V61.0742H51.3932V53.3322L48.9572 61.0742H47.3542L44.9322 53.3672V61.0742H42.8742ZM57.5248 53.8362V61.0742H55.5718V53.8362H57.5248ZM57.5458 50.9592V52.8002H55.5578V50.9592H57.5458ZM61.728 61.2002C61.196 61.2002 60.7736 61.1372 60.461 61.0112C60.1483 60.8852 59.9173 60.7196 59.768 60.5142C59.6186 60.3042 59.523 60.0732 59.481 59.8212C59.439 59.5646 59.418 59.3056 59.418 59.0442V50.6722H61.42V58.7922C61.42 59.0582 61.476 59.2752 61.588 59.4432C61.7046 59.6066 61.9216 59.7069 62.239 59.7442L62.582 59.7652V61.0252C62.442 61.0719 62.2996 61.1116 62.155 61.1442C62.0103 61.1816 61.868 61.2002 61.728 61.2002ZM65.974 53.8362V61.0742H64.021V53.8362H65.974ZM65.995 50.9592V52.8002H64.007V50.9592H65.995ZM72.2362 55.2572H70.6262L70.6402 59.1142C70.6402 59.2916 70.6612 59.4246 70.7032 59.5132C70.7498 59.5972 70.8198 59.6532 70.9132 59.6812C71.0112 59.7046 71.1348 59.7162 71.2842 59.7162H72.2572V60.9762C72.1638 61.0182 72.0168 61.0579 71.8162 61.0952C71.6202 61.1326 71.3448 61.1512 70.9902 61.1512C70.3555 61.1512 69.8632 61.0696 69.5132 60.9062C69.1678 60.7429 68.9275 60.5142 68.7922 60.2202C68.6568 59.9262 68.5892 59.5856 68.5892 59.1982V55.2572H67.4132V53.8362H68.6592L69.1702 51.6522H70.6262V53.8292H72.2362V55.2572ZM75.8324 61.2142C75.3704 61.2142 74.9551 61.1279 74.5864 60.9552C74.2178 60.7826 73.9261 60.5329 73.7114 60.2062C73.4968 59.8749 73.3894 59.4736 73.3894 59.0022C73.3894 58.2089 73.6858 57.6069 74.2784 57.1962C74.8711 56.7809 75.8068 56.5662 77.0854 56.5522L77.9884 56.5382V56.1042C77.9884 55.7729 77.8904 55.5186 77.6944 55.3412C77.5031 55.1592 77.2044 55.0706 76.7984 55.0752C76.4998 55.0799 76.2151 55.1499 75.9444 55.2852C75.6784 55.4206 75.4964 55.6562 75.3984 55.9922H73.6974C73.7254 55.4696 73.8771 55.0402 74.1524 54.7042C74.4278 54.3636 74.8011 54.1116 75.2724 53.9482C75.7484 53.7802 76.2874 53.6962 76.8894 53.6962C77.6314 53.6962 78.2264 53.7896 78.6744 53.9762C79.1224 54.1582 79.4468 54.4219 79.6474 54.7672C79.8481 55.1079 79.9484 55.5139 79.9484 55.9852V61.0742H78.2404L78.0724 59.8282C77.8251 60.3509 77.5148 60.7126 77.1414 60.9132C76.7728 61.1139 76.3364 61.2142 75.8324 61.2142ZM76.5184 59.8702C76.7051 59.8702 76.8848 59.8376 77.0574 59.7722C77.2348 59.7022 77.3911 59.6112 77.5264 59.4992C77.6664 59.3826 77.7784 59.2519 77.8624 59.1072C77.9464 58.9626 77.9884 58.8132 77.9884 58.6592V57.5882L77.2534 57.6022C76.9128 57.6069 76.5954 57.6489 76.3014 57.7282C76.0074 57.8029 75.7694 57.9266 75.5874 58.0992C75.4101 58.2719 75.3214 58.5052 75.3214 58.7992C75.3214 59.1352 75.4381 59.3989 75.6714 59.5902C75.9048 59.7769 76.1871 59.8702 76.5184 59.8702ZM81.7578 61.0742V53.8362H83.7248V55.5512C83.8415 55.1826 84.0048 54.8606 84.2148 54.5852C84.4295 54.3052 84.6885 54.0882 84.9918 53.9342C85.2951 53.7756 85.6381 53.6962 86.0208 53.6962C86.0861 53.6962 86.1468 53.7009 86.2028 53.7102C86.2635 53.7149 86.3078 53.7242 86.3358 53.7382V55.6842C86.2938 55.6656 86.2425 55.6539 86.1818 55.6492C86.1258 55.6446 86.0745 55.6399 86.0278 55.6352C85.6265 55.6026 85.2835 55.6142 84.9988 55.6702C84.7141 55.7262 84.4831 55.8219 84.3058 55.9572C84.1285 56.0926 84.0001 56.2582 83.9208 56.4542C83.8415 56.6502 83.8018 56.8696 83.8018 57.1122V61.0742H81.7578ZM88.8731 63.3842C88.3784 63.3842 88.0284 63.3422 87.8231 63.2582C87.6224 63.1789 87.5221 63.1392 87.5221 63.1392V61.8372L88.2361 61.8652C88.5488 61.8839 88.8008 61.8676 88.9921 61.8162C89.1834 61.7696 89.3281 61.7066 89.4261 61.6272C89.5288 61.5479 89.6011 61.4639 89.6431 61.3752C89.6851 61.2912 89.7154 61.2236 89.7341 61.1722L89.8671 60.7732L87.0531 53.8362H89.0761L90.8121 58.5542L92.5691 53.8362H94.5641L91.6311 61.1162C91.3791 61.7322 91.1131 62.2036 90.8331 62.5302C90.5531 62.8569 90.2498 63.0809 89.9231 63.2022C89.6011 63.3236 89.2511 63.3842 88.8731 63.3842ZM98.7512 50.9522H100.788V61.0742H98.7512V50.9522ZM103.058 50.9522C103.109 50.9522 103.251 50.9522 103.485 50.9522C103.723 50.9522 104 50.9522 104.318 50.9522C104.64 50.9522 104.959 50.9546 105.277 50.9592C105.599 50.9592 105.867 50.9616 106.082 50.9662C107.309 50.9942 108.31 51.2136 109.085 51.6242C109.859 52.0349 110.426 52.6089 110.786 53.3462C111.15 54.0836 111.332 54.9562 111.332 55.9642C111.332 57.0142 111.14 57.9219 110.758 58.6872C110.375 59.4479 109.789 60.0359 109.001 60.4512C108.217 60.8666 107.22 61.0742 106.012 61.0742H103.058V50.9522ZM105.116 52.6042V59.4222H106.054C106.632 59.4222 107.157 59.3102 107.629 59.0862C108.105 58.8622 108.485 58.4959 108.77 57.9872C109.054 57.4786 109.197 56.7996 109.197 55.9502C109.197 55.1616 109.071 54.5222 108.819 54.0322C108.567 53.5376 108.207 53.1759 107.741 52.9472C107.274 52.7186 106.721 52.6042 106.082 52.6042H105.116Z" fill="#112E51"/>
<path d="M23.6668 82.9812V85.6437H11.8543V82.9812H23.6668ZM19.1043 90.2062H16.4418V78.3937H19.1043V90.2062Z" fill="#112E51"/>
</svg>
