<svg xmlns="http://www.w3.org/2000/svg" width="112" height="108" fill="none" viewBox="0 0 112 108"><circle cx="71.57" cy="40.795" r="40" fill="#EBF3FA"/><path fill="#fff" fill-rule="evenodd" d="M84.866 64.207H5.14a4 4 0 0 1-4-4V21.384a4 4 0 0 1 4-4h79.725a4 4 0 0 1 4 4v38.823a4 4 0 0 1-4 4" clip-rule="evenodd"/><path stroke="#112E51" d="M84.866 64.207H5.14a4 4 0 0 1-4-4V21.384a4 4 0 0 1 4-4h79.725a4 4 0 0 1 4 4v38.823a4 4 0 0 1-4 4Z" clip-rule="evenodd"/><path fill="#EBF3FA" fill-rule="evenodd" d="M28.912 59.19H8.362c-.907 0-1.643-.66-1.643-1.475V34.104c0-.815.736-1.476 1.644-1.476h20.549c.907 0 1.644.661 1.644 1.476v23.611c0 .815-.737 1.476-1.644 1.476" clip-rule="evenodd"/><mask id="a" width="21" height="25" x="8" y="35" maskUnits="userSpaceOnUse" style="mask-type:luminance"><path fill="#fff" fill-rule="evenodd" d="M12.93 40.814v.606a1.18 1.18 0 0 0-.991 1.16v1.374c0 .594.444 1.084 1.02 1.166a5.5 5.5 0 0 0 3.145 4.387v1.805h-.397c-3.944 0-7.14 3.163-7.14 7.064v.882H28.4v-.882c0-3.901-3.197-7.064-7.14-7.064h-.397v-1.805a5.5 5.5 0 0 0 3.143-4.387 1.18 1.18 0 0 0 1.022-1.166v-1.373a1.18 1.18 0 0 0-.992-1.16v-.607c0-3.034-2.486-5.494-5.553-5.494s-5.554 2.46-5.554 5.494" clip-rule="evenodd"/></mask><g mask="url(#a)"><path fill="#C8D3DD" fill-rule="evenodd" d="M1.281 63.369h34.402V31.21H1.28z" clip-rule="evenodd"/></g><path fill="#EBF3FA" d="M56.248 25.516a2 2 0 0 1 2-2h23.338a2 2 0 0 1 2 2v23.338a2 2 0 0 1-2 2H58.248a2 2 0 0 1-2-2z"/><rect width="44.487" height="3.344" x="6.719" y="23.516" fill="#C8D3DD" rx="1.672"/><rect width="44.487" height="3.344" x="6.719" y="23.516" fill="#C8D3DD" rx="1.672"/><rect width="16.303" height="3.344" x="34.904" y="31.44" fill="#C8D3DD" rx="1.672"/><rect width="16.303" height="3.344" x="34.904" y="39.365" fill="#C8D3DD" rx="1.672"/><rect width="16.303" height="3.344" x="34.904" y="47.29" fill="#C8D3DD" rx="1.672"/><rect width="12.3" height="3.344" x="34.904" y="55.819" fill="#C8D3DD" rx="1.672"/><rect width="29.972" height="3.344" x="52.674" y="55.819" fill="#C8D3DD" rx="1.672"/><rect width="54.783" height="68.751" x="45.916" y="30.295" fill="#fff" stroke="#112E51" rx="1.128"/><rect width="54.783" height="68.751" x="34.605" y="38.516" fill="#fff" stroke="#112E51" rx="1.128"/><rect width="22.402" height="2.211" x="39.594" y="44.502" fill="#C8D3DD" rx="1.106"/><rect width="15.789" height="2.211" x="39.594" y="49.274" fill="#C8D3DD" rx="1.106"/><rect width="15.789" height="2.211" x="39.594" y="59.316" fill="#C8D3DD" rx="1.106"/><rect width="15.789" height="2.211" x="39.594" y="83.457" fill="#C8D3DD" rx="1.106"/><rect width="44.76" height="2.211" x="39.594" y="65.352" fill="#C8D3DD" rx="1.106"/><rect width="14.794" height="2.211" x="39.594" y="77.422" fill="#C8D3DD" rx="1.106"/><rect width="28.971" height="2.211" x="55.383" y="77.422" fill="#C8D3DD" rx="1.106"/><rect width="27.474" height="2.211" x="39.594" y="71.387" fill="#C8D3DD" rx="1.106"/><rect width="16.016" height="2.211" x="68.34" y="71.387" fill="#C8D3DD" rx="1.106"/><rect width="12.514" height="2.211" x="71.807" y="44.502" fill="#C8D3DD" rx="1.106"/><circle cx="91.711" cy="37.731" r="13.271" fill="#EBF3FA" stroke="#112E51" stroke-width=".755"/><mask id="b" width="20" height="24" x="82" y="27" maskUnits="userSpaceOnUse" style="mask-type:luminance"><path fill="#fff" fill-rule="evenodd" d="M86.39 32.914v.58c-.54.09-.95.554-.95 1.113v1.317c0 .57.425 1.039.978 1.117a5.27 5.27 0 0 0 3.013 4.205v1.73h-.38c-3.78 0-6.844 3.03-6.844 6.77v.846h19.011v-.845c0-3.74-3.065-6.772-6.844-6.772h-.38v-1.729a5.27 5.27 0 0 0 3.012-4.205c.554-.078.98-.548.98-1.117v-1.317a1.13 1.13 0 0 0-.95-1.112v-.58c0-2.909-2.384-5.267-5.323-5.267s-5.323 2.358-5.323 5.266" clip-rule="evenodd"/></mask><g mask="url(#b)"><path fill="#0071BB" d="M104.716 37.587c0 7.182-5.822 13.005-13.005 13.005-7.182 0-13.004-5.822-13.004-13.005 0-7.182 5.822-13.004 13.004-13.004 7.183 0 13.005 5.822 13.005 13.004"/></g></svg>