<svg xmlns="http://www.w3.org/2000/svg" width="206" height="88" fill="none" viewBox="0 0 206 88"><circle cx="44" cy="44" r="42.5" fill="#F2F9FF" stroke="#A8B6C6" stroke-width="3"/><mask id="a" width="88" height="88" x="0" y="0" maskUnits="userSpaceOnUse" style="mask-type:alpha"><path fill="#fff" d="M44 88c24.3 0 44-19.7 44-44S68.3 0 44 0 0 19.7 0 44s19.7 44 44 44"/></mask><g mask="url(#a)"><path fill="#fff" d="M61.383 15.132H26.618a7.45 7.45 0 0 0-7.45 7.45v72.014a7.45 7.45 0 0 0 7.45 7.45h34.765a7.45 7.45 0 0 0 7.45-7.45V22.582a7.45 7.45 0 0 0-7.45-7.45"/><path fill="#0071BB" d="M61.383 15.132H26.618a7.45 7.45 0 0 0-7.45 7.45V27h49.665v-4.418a7.45 7.45 0 0 0-7.45-7.45"/><path fill="#fff" d="M52.458 22.915a1.458 1.458 0 1 0 0-2.915 1.458 1.458 0 0 0 0 2.915m4.859 0a1.458 1.458 0 1 0 0-2.915 1.458 1.458 0 0 0 0 2.915m4.859 0a1.458 1.458 0 1 0 0-2.915 1.458 1.458 0 0 0 0 2.915M25 21.5a1.5 1.5 0 0 1 1.5-1.5h6a1.5 1.5 0 0 1 0 3h-6a1.5 1.5 0 0 1-1.5-1.5"/><path fill="#112E51" d="M61.383 103.287H26.617c-4.792 0-8.691-3.898-8.691-8.69V22.581c0-4.793 3.899-8.691 8.691-8.691h34.766c4.792 0 8.69 3.898 8.69 8.691v72.014c0 4.793-3.898 8.691-8.69 8.691M26.617 16.374a6.214 6.214 0 0 0-6.208 6.208v72.014a6.214 6.214 0 0 0 6.208 6.208h34.766a6.214 6.214 0 0 0 6.208-6.208V22.582a6.214 6.214 0 0 0-6.208-6.208z"/><path fill="#EBF3FA" d="M68.832 40.586h.62c.342 0 .621.279.621.62v4.967c0 .341-.28.62-.62.62h-.621z"/><path fill="#112E51" d="M69.453 47.26h-1.086v-7.14h1.086c.6 0 1.086.487 1.086 1.086v4.967c0 .599-.487 1.086-1.086 1.086m-.155-.932h.155a.154.154 0 0 0 .155-.155v-4.967a.154.154 0 0 0-.155-.155h-.155z"/><path fill="#EBF3FA" d="M68.832 48.346h.62c.342 0 .621.28.621.62v4.967c0 .342-.28.62-.62.62h-.621z"/><path fill="#112E51" d="M69.453 55.02h-1.086v-7.14h1.086c.6 0 1.086.487 1.086 1.087v4.966c0 .6-.487 1.087-1.086 1.087m-.155-.932h.155a.154.154 0 0 0 .155-.155v-4.966a.154.154 0 0 0-.155-.156h-.155z"/><path fill="#EBF3FA" d="M19.168 53.002h-.621a.623.623 0 0 1-.62-.621V41.206c0-.341.279-.62.62-.62h.62z"/><path fill="#112E51" d="M19.633 53.467h-1.087a1.087 1.087 0 0 1-1.086-1.086V41.206c0-.599.487-1.086 1.086-1.086h1.087zm-1.087-12.416a.154.154 0 0 0-.155.155v11.175c0 .087.069.155.155.155h.156V41.051z"/></g><circle cx="44" cy="44" r="42.5" stroke="#A8B6C6" stroke-width="3"/><path fill="#E21C3D" fill-rule="evenodd" d="M32 55c0-6.629 5.364-12 11.984-12s11.983 5.371 11.983 12-5.363 12-11.983 12S32 61.629 32 55m17.86 3.973a.58.58 0 0 0 0-.823L46.69 55l3.175-3.145a.58.58 0 0 0 0-.823l-1.914-1.916a.58.58 0 0 0-.822 0l-3.145 3.174-3.141-3.179a.58.58 0 0 0-.822 0l-1.913 1.916a.58.58 0 0 0 0 .823l3.17 3.15-3.17 3.145a.58.58 0 0 0 0 .823l1.909 1.916a.58.58 0 0 0 .821 0l3.146-3.174 3.14 3.174a.58.58 0 0 0 .822 0z" clip-rule="evenodd"/><path fill="#E21C3D" d="M43.984 66.55c-6.37 0-11.55-5.18-11.55-11.55 0-6.369 5.18-11.55 11.55-11.55 6.369 0 11.55 5.181 11.55 11.55s-5.181 11.55-11.55 11.55"/><path fill="#B51E23" d="M43.984 43.45v23.1c6.369 0 11.55-5.18 11.55-11.55 0-6.369-5.181-11.55-11.55-11.55"/><path fill="#fff" d="m49.742 50.402-1.16-1.16-4.598 4.599-4.599-4.599-1.159 1.16L42.824 55l-4.598 4.6 1.16 1.159 4.598-4.598 4.598 4.598 1.16-1.16L45.143 55z"/><circle cx="44" cy="44" r="42.5" stroke="#A8B6C6" stroke-width="3"/><circle cx="162" cy="44" r="42.5" fill="#F2F9FF" stroke="#A8B6C6" stroke-width="3"/><path stroke="#A8B6C6" stroke-width="2" d="M88 44h32"/><circle cx="120" cy="44" r="3" fill="#F2F9FF" stroke="#A8B6C6" stroke-width="2"/><circle cx="86" cy="44" r="3" fill="#F2F9FF" stroke="#A8B6C6" stroke-width="2"/><path fill="#EDF3FB" d="M188.032 15.033h-53.204v31.923h53.204z"/><path fill="#EDF3FB" d="M189.126 48.05h-55.392V13.938h55.392zm-53.204-2.188h51.015V16.127h-51.015z"/><path fill="#0071BB" stroke="#205493" stroke-miterlimit="10" stroke-width="2" d="M192.293 9h-60.924a3.39 3.39 0 0 0-3.391 3.39v39.227h67.706V12.39A3.39 3.39 0 0 0 192.293 9Z"/><path fill="#112E51" d="M118 73.06h87.66v2.618a3 3 0 0 1-3 3H121a3 3 0 0 1-3-3z"/><rect width="58.44" height="33.715" x="132.61" y="13.495" fill="#EDF3FB" rx="2"/><path fill="#fff" d="M132.61 33.725h58.44V45.21a2 2 0 0 1-2 2h-54.44a2 2 0 0 1-2-2z"/><path fill="#0071BB" stroke="#205493" stroke-miterlimit="10" stroke-width="2" d="m195.678 51.706 8.666 20.237a2.22 2.22 0 0 1-2.04 3.095h-80.958a2.22 2.22 0 0 1-2.04-3.094l8.666-20.238z"/><path fill="#EDF3FB" d="M192.808 63.202h-61.953l2.47-6.994h57.016z"/><path fill="#205493" d="M194.405 64.332h-65.149l3.269-9.254h58.616zm-21.337 7.603h-22.477l1.058-5.609h20.359z"/><path fill="#B51E23" d="M167.07 22h-5.057v18c4.798-2.143 6.476-4.92 6.9-5.787a1.2 1.2 0 0 0 .119-.53V23.98c0-.525-.207-1.029-.574-1.4a1.96 1.96 0 0 0-1.388-.58"/><path fill="#E21D3E" d="M156.962 22A1.97 1.97 0 0 0 155 23.98v9.703c-.002.184.039.366.118.531.426.859 2.124 3.656 6.896 5.786V22z"/><path fill="#fff" d="M163.258 29.757a2.03 2.03 0 0 0 .76-1.626 2.01 2.01 0 0 0-.833-1.59 2 2 0 0 0-1.158-.375 1.99 1.99 0 0 0-1.882 1.354 2.02 2.02 0 0 0 .65 2.237q-.33 1.89-.653 3.78a11 11 0 0 0 1.872.162c.636.013 1.273-.03 1.902-.128-.221-1.286-.425-2.546-.658-3.814"/></svg>