<svg width="139" height="140" viewBox="0 0 139 140" fill="none" xmlns="http://www.w3.org/2000/svg"><path d="M135.855 69.7768C135.855 107.209 105.667 137.554 68.4274 137.554C31.1883 137.554 1 107.209 1 69.7768C1 32.3447 31.1883 2 68.4274 2C105.667 2 135.855 32.3447 135.855 69.7768Z" fill="#EBF3FA"/><mask id="mask0_2923_9261" style="mask-type:alpha" maskUnits="userSpaceOnUse" x="1" y="93" width="136" height="45"><path d="M1 93.4898H136.554V138H1V93.4898Z" fill="#C4C4C4"/></mask><g mask="url(#mask0_2923_9261)"><path d="M135.855 69.2116C135.855 106.644 105.667 136.988 68.4274 136.988C31.1883 136.988 1 106.644 1 69.2116C42.4754 69.2116 27.4913 69.2115 64.7305 69.2115C101.97 69.2115 83.9508 69.2117 135.855 69.2116Z" fill="url(#paint0_linear_2923_9261)" fill-opacity="0.4"/></g><path fill-rule="evenodd" clip-rule="evenodd" d="M94.5722 42.9101C94.2929 42.9101 94.0664 43.1365 94.0664 43.4159V46.4507C94.0664 46.73 94.2929 46.9565 94.5722 46.9565H96.0896V93.4898H124.414V46.9565H125.932C126.211 46.9565 126.437 46.73 126.437 46.4507V43.4159C126.437 43.1365 126.211 42.9101 125.932 42.9101H94.5722Z" fill="#0071BB" fill-opacity="0.4"/><path fill-rule="evenodd" clip-rule="evenodd" d="M43.4861 32.7941C42.3687 32.7941 41.4629 33.6999 41.4629 34.8173V93.4898H51.5788V87.4202C51.5788 85.1855 53.3905 83.3739 55.6252 83.3739C57.86 83.3739 59.6716 85.1855 59.6716 87.4202V93.4898H69.7875V34.8173C69.7875 33.6999 68.8817 32.7941 67.7644 32.7941H43.4861ZM48.5441 71.2347C47.9854 71.2347 47.5325 71.6876 47.5325 72.2463V74.2695C47.5325 74.8282 47.9854 75.2811 48.5441 75.2811H62.7064C63.2651 75.2811 63.718 74.8282 63.718 74.2695V72.2463C63.718 71.6876 63.2651 71.2347 62.7064 71.2347H48.5441ZM47.5325 66.1767C47.5325 65.6181 47.9854 65.1651 48.5441 65.1651H62.7064C63.2651 65.1651 63.718 65.6181 63.718 66.1767V68.1999C63.718 68.7586 63.2651 69.2115 62.7064 69.2115H48.5441C47.9854 69.2115 47.5325 68.7586 47.5325 68.1999V66.1767ZM48.5441 59.0956C47.9854 59.0956 47.5325 59.5485 47.5325 60.1072V62.1304C47.5325 62.6891 47.9854 63.142 48.5441 63.142H62.7064C63.2651 63.142 63.718 62.6891 63.718 62.1304V60.1072C63.718 59.5485 63.2651 59.0956 62.7064 59.0956H48.5441ZM47.5325 54.0376C47.5325 53.4789 47.9854 53.026 48.5441 53.026H62.7064C63.2651 53.026 63.718 53.4789 63.718 54.0376V56.0608C63.718 56.6195 63.2651 57.0724 62.7064 57.0724H48.5441C47.9854 57.0724 47.5325 56.6195 47.5325 56.0608V54.0376ZM48.5441 46.9564C47.9854 46.9564 47.5325 47.4093 47.5325 47.968V49.9912C47.5325 50.5499 47.9854 51.0028 48.5441 51.0028H62.7064C63.2651 51.0028 63.718 50.5499 63.718 49.9912V47.968C63.718 47.4093 63.2651 46.9564 62.7064 46.9564H48.5441ZM47.5325 41.8985C47.5325 41.3398 47.9854 40.8869 48.5441 40.8869H62.7064C63.2651 40.8869 63.718 41.3398 63.718 41.8985V43.9217C63.718 44.4803 63.2651 44.9333 62.7064 44.9333H48.5441C47.9854 44.9333 47.5325 44.4803 47.5325 43.9217V41.8985Z" fill="#0071BB" fill-opacity="0.4"/><path fill-rule="evenodd" clip-rule="evenodd" d="M9.09375 55.0491C9.09375 53.9318 9.99956 53.0259 11.1169 53.0259H35.3952C36.5126 53.0259 37.4184 53.9318 37.4184 55.0491V93.4897H27.3025V84.3854C27.3025 83.8267 26.8496 83.3738 26.2909 83.3738H20.2213C19.6626 83.3738 19.2097 83.8267 19.2097 84.3854V93.4897H9.09375V55.0491ZM15.1633 60.1076C15.1633 59.5489 15.6162 59.096 16.1749 59.096H18.1981C18.7568 59.096 19.2097 59.5489 19.2097 60.1076V62.1308C19.2097 62.6895 18.7568 63.1424 18.1981 63.1424H16.1749C15.6162 63.1424 15.1633 62.6895 15.1633 62.1308V60.1076ZM22.2445 59.096C21.6858 59.096 21.2329 59.5489 21.2329 60.1076V62.1308C21.2329 62.6895 21.6858 63.1424 22.2445 63.1424H24.2677C24.8264 63.1424 25.2793 62.6895 25.2793 62.1308V60.1076C25.2793 59.5489 24.8264 59.096 24.2677 59.096H22.2445ZM27.3025 60.1076C27.3025 59.5489 27.7554 59.096 28.3141 59.096H30.3372C30.8959 59.096 31.3488 59.5489 31.3488 60.1076V62.1308C31.3488 62.6895 30.8959 63.1424 30.3372 63.1424H28.3141C27.7554 63.1424 27.3025 62.6895 27.3025 62.1308V60.1076ZM16.1749 65.1651C15.6162 65.1651 15.1633 65.618 15.1633 66.1767V68.1999C15.1633 68.7586 15.6162 69.2115 16.1749 69.2115H18.1981C18.7568 69.2115 19.2097 68.7586 19.2097 68.1999V66.1767C19.2097 65.618 18.7568 65.1651 18.1981 65.1651H16.1749ZM21.2329 66.1767C21.2329 65.618 21.6858 65.1651 22.2445 65.1651H24.2677C24.8264 65.1651 25.2793 65.618 25.2793 66.1767V68.1999C25.2793 68.7586 24.8264 69.2115 24.2677 69.2115H22.2445C21.6858 69.2115 21.2329 68.7586 21.2329 68.1999V66.1767ZM28.3141 65.1651C27.7554 65.1651 27.3025 65.618 27.3025 66.1767V68.1999C27.3025 68.7586 27.7554 69.2115 28.3141 69.2115H30.3372C30.8959 69.2115 31.3488 68.7586 31.3488 68.1999V66.1767C31.3488 65.618 30.8959 65.1651 30.3372 65.1651H28.3141ZM15.1633 72.2462C15.1633 71.6876 15.6162 71.2346 16.1749 71.2346H18.1981C18.7568 71.2346 19.2097 71.6876 19.2097 72.2462V74.2694C19.2097 74.8281 18.7568 75.281 18.1981 75.281H16.1749C15.6162 75.281 15.1633 74.8281 15.1633 74.2694V72.2462ZM22.2445 71.2346C21.6858 71.2346 21.2329 71.6876 21.2329 72.2462V74.2694C21.2329 74.8281 21.6858 75.281 22.2445 75.281H24.2677C24.8264 75.281 25.2793 74.8281 25.2793 74.2694V72.2462C25.2793 71.6876 24.8264 71.2346 24.2677 71.2346H22.2445ZM27.3025 72.2462C27.3025 71.6876 27.7554 71.2346 28.3141 71.2346H30.3372C30.8959 71.2346 31.3488 71.6876 31.3488 72.2462V74.2694C31.3488 74.8281 30.8959 75.281 30.3372 75.281H28.3141C27.7554 75.281 27.3025 74.8281 27.3025 74.2694V72.2462Z" fill="#0071BB" fill-opacity="0.4"/><mask id="mask1_2923_9261" style="mask-type:alpha" maskUnits="userSpaceOnUse" x="1" y="2" width="135" height="136"><path d="M135.855 69.7768C135.855 107.209 105.667 137.554 68.4274 137.554C31.1883 137.554 1 107.209 1 69.7768C1 32.3447 31.1883 2 68.4274 2C105.667 2 135.855 32.3447 135.855 69.7768Z" fill="#EBF3FA"/></mask><g mask="url(#mask1_2923_9261)"><path fill-rule="evenodd" clip-rule="evenodd" d="M101.699 101.843V93.6892C109.386 90.0583 114.911 82.6375 115.833 73.8554C118.43 73.4902 120.428 71.2706 120.428 68.587V62.3792C120.428 59.7427 118.5 57.554 115.969 57.1318V54.3977C115.969 40.6838 104.789 29.5665 90.997 29.5665C77.2054 29.5665 66.0251 40.6838 66.0251 54.3977V57.1318C63.4942 57.554 61.5658 59.7427 61.5658 62.3792V68.587C61.5658 71.2706 63.5637 73.4902 66.1611 73.8554C67.0829 82.6375 72.6081 90.0583 80.2947 93.6892V101.843H78.511C60.779 101.843 46.4043 116.137 46.4043 133.769V135.155L52.9165 137.76H77.9667C92.7524 134.825 111.496 126.623 123.691 108.958C118.172 104.509 111.141 101.843 103.483 101.843H101.699Z" fill="#D0C6AC"/><mask id="mask2_2923_9261" style="mask-type:alpha" maskUnits="userSpaceOnUse" x="46" y="29" width="90" height="109"><path fill-rule="evenodd" clip-rule="evenodd" d="M101.699 93.6892V101.843H103.483C121.215 101.843 135.59 116.137 135.59 133.769V137.76H46.4043V133.769C46.4043 116.137 60.779 101.843 78.511 101.843H80.2947V93.6892C72.6081 90.0583 67.0829 82.6375 66.1611 73.8554C63.5637 73.4902 61.5658 71.2706 61.5658 68.587V62.3792C61.5658 59.7427 63.4942 57.554 66.0251 57.1318V54.3977C66.0251 40.6838 77.2054 29.5665 90.997 29.5665C104.789 29.5665 115.969 40.6838 115.969 54.3977V57.1318C118.5 57.554 120.428 59.7427 120.428 62.3792V68.587C120.428 71.2706 118.43 73.4902 115.833 73.8554C114.911 82.6375 109.386 90.0583 101.699 93.6892Z" fill="white"/></mask><g mask="url(#mask2_2923_9261)"><path fill-rule="evenodd" clip-rule="evenodd" d="M149.859 29.5659H32.1348V137.759H44.8518V134.534L52.9153 137.759H77.9666C99.9407 133.398 130.657 117.402 135.624 76.0038H139.335V137.759H149.859V29.5659Z" fill="#D08B5B"/></g><mask id="mask3_2923_9261" style="mask-type:alpha" maskUnits="userSpaceOnUse" x="46" y="29" width="90" height="109"><path fill-rule="evenodd" clip-rule="evenodd" d="M101.699 93.6892V101.843H103.483C121.215 101.843 135.59 116.137 135.59 133.769V137.76H46.4043V133.769C46.4043 116.137 60.779 101.843 78.511 101.843H80.2947V93.6892C72.6081 90.0583 67.0829 82.6375 66.1611 73.8554C63.5637 73.4902 61.5658 71.2706 61.5658 68.587V62.3792C61.5658 59.7427 63.4942 57.554 66.0251 57.1318V54.3977C66.0251 40.6838 77.2054 29.5665 90.997 29.5665C104.789 29.5665 115.969 40.6838 115.969 54.3977V57.1318C118.5 57.554 120.428 59.7427 120.428 62.3792V68.587C120.428 71.2706 118.43 73.4902 115.833 73.8554C114.911 82.6375 109.386 90.0583 101.699 93.6892Z" fill="white"/></mask><g mask="url(#mask3_2923_9261)"><path d="M115.969 64.5956V74.7942C115.969 88.5081 104.789 99.6255 90.9973 99.6255C77.2057 99.6255 66.0254 88.5081 66.0254 74.7942V64.5956V71.2469C66.0254 84.9608 77.2057 96.0782 90.9973 96.0782C104.789 96.0782 115.969 84.9608 115.969 71.2469V64.5956Z" fill="black" fill-opacity="0.1"/></g><path fill-rule="evenodd" clip-rule="evenodd" d="M123.854 108.721C112.116 125.888 94.2078 134.186 79.6357 137.41H46.4043V133.436C46.4043 116.517 59.6002 102.667 76.3016 101.537C76.2882 101.702 76.2814 101.869 76.2814 102.037C76.2814 107.306 82.9696 111.576 91.2199 111.576C99.4703 111.576 106.158 107.306 106.158 102.037C106.158 101.881 106.153 101.725 106.141 101.57C112.838 102.117 118.953 104.71 123.854 108.721Z" fill="#E6E6E6"/><mask id="mask4_2923_9261" style="mask-type:alpha" maskUnits="userSpaceOnUse" x="46" y="101" width="90" height="37"><path fill-rule="evenodd" clip-rule="evenodd" d="M106.141 101.57C122.629 102.916 135.59 116.668 135.59 133.436V137.41H46.4043V133.436C46.4043 116.517 59.6002 102.667 76.3016 101.537C76.2882 101.702 76.2814 101.869 76.2814 102.037C76.2814 107.306 82.9696 111.576 91.2199 111.576C99.4703 111.576 106.158 107.306 106.158 102.037C106.158 101.881 106.153 101.725 106.141 101.57Z" fill="white"/></mask><g mask="url(#mask4_2923_9261)"><path fill-rule="evenodd" clip-rule="evenodd" d="M32.1348 88.5605H133.153C124.37 119.821 99.0434 133.116 79.6353 137.409H52.0403L44.8518 134.534V137.409H32.1348V88.5605ZM139.335 88.5605V137.409H149.859V88.5605H139.335Z" fill="#262E33"/></g><mask id="mask5_2923_9261" style="mask-type:alpha" maskUnits="userSpaceOnUse" x="46" y="101" width="90" height="37"><path fill-rule="evenodd" clip-rule="evenodd" d="M106.141 101.57C122.629 102.916 135.59 116.668 135.59 133.436V137.41H46.4043V133.436C46.4043 116.517 59.6002 102.667 76.3016 101.537C76.2882 101.702 76.2814 101.869 76.2814 102.037C76.2814 107.306 82.9696 111.576 91.2199 111.576C99.4703 111.576 106.158 107.306 106.158 102.037C106.158 101.881 106.153 101.725 106.141 101.57Z" fill="white"/></mask><g mask="url(#mask5_2923_9261)"><g opacity="0.6"><path d="M108.894 102.703C108.894 109.304 100.981 114.655 91.2193 114.655C81.458 114.655 73.5449 109.304 73.5449 102.703C73.5449 96.1026 81.458 90.7516 91.2193 90.7516C100.981 90.7516 108.894 96.1026 108.894 102.703Z" fill="black" fill-opacity="0.16"/></g></g><path fill-rule="evenodd" clip-rule="evenodd" d="M46.4043 133.435C46.4043 116.255 60.0106 102.24 77.0773 101.493C75.7195 106.648 74.9436 112.617 74.9436 118.98C74.9436 125.734 75.818 132.045 77.3345 137.409H52.0398L46.4043 135.155V133.435ZM123.855 108.719C119.112 115.658 113.36 121.148 107.227 125.439C107.406 123.345 107.499 121.186 107.499 118.979C107.499 112.626 106.725 106.665 105.371 101.515C112.37 101.919 118.767 104.555 123.855 108.719Z" fill="#3A4C5A"/><path d="M77.1736 100.994C75.3899 109.58 76.1331 121.718 79.4032 137.409H72.2684L66.0254 121.422L68.701 117.425L66.0254 114.761L74.498 101.439C75.4022 101.158 76.294 101.01 77.1736 100.994Z" fill="#2F4351"/><path fill-rule="evenodd" clip-rule="evenodd" d="M114.641 119.439L113.292 117.425L115.968 114.761L107.495 101.438C106.591 101.158 105.699 101.01 104.82 100.994C106.2 107.637 106.067 116.407 104.422 127.303C107.958 125.071 111.403 122.465 114.641 119.439Z" fill="#2F4351"/><path d="M84.6719 79.7408C84.6719 83.1714 87.406 85.9525 90.7787 85.9525C94.1514 85.9525 96.8855 83.1714 96.8855 79.7408" fill="black" fill-opacity="0.7"/><path d="M85.543 71.311C85.543 73.2714 87.8865 74.8606 90.7774 74.8606C93.6683 74.8606 96.0118 73.2714 96.0118 71.311" fill="black" fill-opacity="0.16"/><path d="M82.0547 63.324C82.0547 64.7943 80.883 65.9862 79.4375 65.9862C77.9921 65.9862 76.8203 64.7943 76.8203 63.324C76.8203 61.8538 77.9921 60.6618 79.4375 60.6618C80.883 60.6618 82.0547 61.8538 82.0547 63.324Z" fill="black" fill-opacity="0.6"/><path d="M104.738 63.3241C104.738 64.7943 103.567 65.9862 102.121 65.9862C100.676 65.9862 99.5039 64.7943 99.5039 63.3241C99.5039 61.8538 100.676 60.6619 102.121 60.6619C103.567 60.6619 104.738 61.8538 104.738 63.3241Z" fill="black" fill-opacity="0.6"/><path d="M73.1695 57.6262C74.8772 55.182 79.5588 53.8114 83.5916 54.8188C84.0595 54.9357 84.5319 54.6446 84.6469 54.1686C84.7618 53.6927 84.4756 53.2121 84.0077 53.0952C79.3244 51.9253 73.9031 53.5124 71.7473 56.5981C71.4682 56.9976 71.5603 57.5516 71.953 57.8355C72.3458 58.1194 72.8904 58.0257 73.1695 57.6262Z" fill="black" fill-opacity="0.6"/><path d="M108.387 57.6262C106.679 55.182 101.998 53.8114 97.9651 54.8187C97.4972 54.9356 97.0247 54.6445 96.9098 54.1686C96.7949 53.6926 97.081 53.212 97.549 53.0952C102.232 51.9253 107.653 53.5124 109.809 56.5981C110.088 56.9976 109.996 57.5516 109.604 57.8355C109.211 58.1194 108.666 58.0257 108.387 57.6262Z" fill="black" fill-opacity="0.6"/><path fill-rule="evenodd" clip-rule="evenodd" d="M59.235 90.1895V51.0149C59.235 49.4513 59.4106 47.9288 59.7432 46.4663C61.0901 37.5952 66.1944 30.5476 72.0286 26.2045C80.8097 19.6707 95.6049 17.7855 100.725 25.5503C104.541 23.8499 110.197 25.3998 114.38 29.3032C118.599 33.4711 121.967 42.6709 119.964 50.1992C120.01 50.7595 120.033 51.326 120.033 51.8979V61.5709C119.645 59.3691 117.904 57.6359 115.703 57.2654V57.1919C113.591 49.6298 108.231 45.313 103.727 41.6853C102.553 40.7396 101.437 39.8408 100.452 38.9435C97.5401 42.2118 92.2158 44.2076 86.3397 46.4103C77.1768 49.845 66.6725 53.7825 61.882 63.8321V68.2589C61.882 70.9232 63.8367 73.1294 66.3855 73.5122C67.1546 82.4754 72.6767 90.0753 80.4106 93.7619V93.9342C81.7033 113.348 77.4806 137.67 49.9707 130.234C55.973 126.709 59.1504 104.14 59.235 90.1895ZM101.586 93.7625C109.32 90.0759 114.842 82.476 115.611 73.5128C117.856 73.1757 119.639 71.425 120.034 69.1926V69.7957C120.034 76.8025 121.691 83.7092 124.87 89.9478L129.408 98.8544C127.699 102.609 125.725 106.04 123.544 109.172C118.055 104.631 111.021 101.903 103.351 101.903H101.586V93.7625Z" fill="#272C2E"/><mask id="mask6_2923_9261" style="mask-type:alpha" maskUnits="userSpaceOnUse" x="49" y="20" width="90" height="112"><path fill-rule="evenodd" clip-rule="evenodd" d="M59.235 90.1895V51.0149C59.235 49.4513 59.4106 47.9288 59.7432 46.4663C61.0901 37.5952 66.1944 30.5476 72.0286 26.2045C80.8097 19.6707 95.6049 17.7855 100.725 25.5503C104.541 23.8499 110.197 25.3998 114.38 29.3032C118.599 33.4711 121.967 42.6709 119.964 50.1992C120.01 50.7595 120.033 51.326 120.033 51.8979V61.5709C119.645 59.3691 117.904 57.6359 115.703 57.2654V57.1919C113.04 47.6585 105.217 43.283 100.452 38.9435C92.9992 47.3084 69.7445 47.3378 61.882 63.8321V68.2589C61.882 70.9232 63.8367 73.1294 66.3855 73.5122C67.1546 82.4754 72.6767 90.0753 80.4106 93.7619V93.9342C81.7033 113.348 77.4806 137.67 49.9707 130.234C55.973 126.709 59.1504 104.14 59.235 90.1895ZM101.586 93.7625C109.32 90.0759 114.842 82.476 115.611 73.5128C117.856 73.1757 119.639 71.425 120.034 69.1926V69.7957C120.034 76.8025 121.691 83.7092 124.87 89.9478L136.758 113.28C139.83 119.309 138.928 126.327 135.022 131.327C133.776 114.868 120.072 101.903 103.351 101.903H101.586V93.7625Z" fill="white"/></mask><g mask="url(#mask6_2923_9261)"><path fill-rule="evenodd" clip-rule="evenodd" d="M166.436 20.4469H49.9707V144.397H166.436V20.4469ZM66.3594 139.087C86.9744 138.675 129.689 125.481 135.626 76.0055H139.336V139.087H66.3594Z" fill="#4A312C"/></g><path fill-rule="evenodd" clip-rule="evenodd" d="M61.8809 63.8326C69.7435 49.5185 92.9981 49.4929 100.451 42.2336C105.206 45.9919 113.007 48.8995 115.686 57.1343C113.007 47.6412 105.206 43.2747 100.451 38.944C92.9981 47.3089 69.7435 47.3383 61.8809 63.8326Z" fill="black" fill-opacity="0.16"/></g><path d="M136.882 69.7768C136.882 107.209 106.694 137.554 69.4548 137.554C32.2156 137.554 2.02734 107.209 2.02734 69.7768C2.02734 32.3447 32.2156 2 69.4548 2C106.694 2 136.882 32.3447 136.882 69.7768Z" stroke="#A8B6C6" stroke-width="3"/><defs><linearGradient id="paint0_linear_2923_9261" x1="68.4274" y1="93.4898" x2="68.4274" y2="183.522" gradientUnits="userSpaceOnUse"><stop stop-color="#0071BB"/><stop offset="1" stop-color="#0071BB" stop-opacity="0"/></linearGradient></defs></svg>