<svg width="139" height="140" viewBox="0 0 139 140" fill="none" xmlns="http://www.w3.org/2000/svg"><path d="M135.855 69.777c0 37.432-30.188 67.777-67.428 67.777C31.188 137.554 1 107.209 1 69.777S31.188 2 68.427 2c37.24 0 67.428 30.345 67.428 67.777Z" fill="#EBF3FA"/><mask id="a" style="mask-type:alpha" maskUnits="userSpaceOnUse" x="1" y="93" width="136" height="45"><path d="M1 93.49h135.554V138H1V93.49Z" fill="#C4C4C4"/></mask><g mask="url(#a)"><path d="M135.855 69.212c0 37.432-30.188 67.776-67.428 67.776C31.188 136.988 1 106.644 1 69.212h134.855Z" fill="url(#b)" fill-opacity=".4"/></g><path fill-rule="evenodd" clip-rule="evenodd" d="M94.572 42.91a.506.506 0 0 0-.506.506v3.035c0 .279.227.505.506.505h1.518V93.49h28.324V46.957h1.518a.505.505 0 0 0 .505-.506v-3.035a.505.505 0 0 0-.505-.506h-31.36ZM43.486 32.794a2.023 2.023 0 0 0-2.023 2.023V93.49h10.116v-6.07a4.046 4.046 0 0 1 8.093 0v6.07h10.115V34.817a2.023 2.023 0 0 0-2.023-2.023H43.486Zm5.058 38.44c-.559 0-1.011.454-1.011 1.012v2.023c0 .56.452 1.012 1.011 1.012h14.162c.56 0 1.012-.453 1.012-1.012v-2.023c0-.558-.453-1.011-1.012-1.011H48.544Zm-1.011-5.057c0-.559.452-1.012 1.011-1.012h14.162c.56 0 1.012.453 1.012 1.012V68.2c0 .559-.453 1.011-1.012 1.011H48.544a1.012 1.012 0 0 1-1.011-1.011v-2.023Zm1.011-7.081a1.01 1.01 0 0 0-1.011 1.011v2.023c0 .56.452 1.012 1.011 1.012h14.162c.56 0 1.012-.453 1.012-1.012v-2.023c0-.559-.453-1.011-1.012-1.011H48.544Zm-1.011-5.058c0-.56.452-1.012 1.011-1.012h14.162c.56 0 1.012.453 1.012 1.012v2.023c0 .559-.453 1.011-1.012 1.011H48.544a1.012 1.012 0 0 1-1.011-1.011v-2.023Zm1.011-7.082c-.559 0-1.011.453-1.011 1.012v2.023c0 .559.452 1.012 1.011 1.012h14.162c.56 0 1.012-.453 1.012-1.012v-2.023c0-.559-.453-1.012-1.012-1.012H48.544Zm-1.011-5.058a1.01 1.01 0 0 1 1.011-1.011h14.162c.56 0 1.012.453 1.012 1.011v2.024c0 .558-.453 1.011-1.012 1.011H48.544a1.012 1.012 0 0 1-1.011-1.011v-2.023ZM9.094 55.05c0-1.118.906-2.024 2.023-2.024h24.278c1.118 0 2.023.906 2.023 2.023v38.44H27.302v-9.104a1.01 1.01 0 0 0-1.011-1.011h-6.07c-.558 0-1.011.453-1.011 1.011v9.105H9.094V55.05Zm6.07 5.058c0-.56.452-1.012 1.01-1.012h2.024c.559 0 1.012.453 1.012 1.012v2.023c0 .559-.453 1.011-1.012 1.011h-2.023a1.012 1.012 0 0 1-1.012-1.011v-2.023Zm7.08-1.012c-.558 0-1.011.453-1.011 1.012v2.023a1.01 1.01 0 0 0 1.011 1.011h2.024c.558 0 1.011-.453 1.011-1.011v-2.023c0-.56-.453-1.012-1.011-1.012h-2.024Zm5.058 1.012c0-.56.453-1.012 1.012-1.012h2.023c.559 0 1.012.453 1.012 1.012v2.023c0 .559-.453 1.011-1.012 1.011h-2.023a1.012 1.012 0 0 1-1.012-1.011v-2.023Zm-11.127 5.057c-.559 0-1.012.453-1.012 1.012V68.2c0 .559.453 1.011 1.012 1.011h2.023c.559 0 1.012-.452 1.012-1.011v-2.023c0-.559-.453-1.012-1.012-1.012h-2.023Zm5.058 1.012c0-.559.453-1.012 1.011-1.012h2.024c.558 0 1.011.453 1.011 1.012V68.2a1.01 1.01 0 0 1-1.011 1.011h-2.024a1.012 1.012 0 0 1-1.011-1.011v-2.023Zm7.081-1.012c-.559 0-1.012.453-1.012 1.012V68.2c0 .559.453 1.011 1.012 1.011h2.023c.559 0 1.012-.452 1.012-1.011v-2.023c0-.559-.453-1.012-1.012-1.012h-2.023Zm-13.15 7.081a1.01 1.01 0 0 1 1.01-1.011h2.024c.559 0 1.012.453 1.012 1.011v2.023c0 .56-.453 1.012-1.012 1.012h-2.023a1.012 1.012 0 0 1-1.012-1.012v-2.023Zm7.08-1.011c-.558 0-1.011.453-1.011 1.011v2.023c0 .56.453 1.012 1.011 1.012h2.024c.558 0 1.011-.453 1.011-1.012v-2.023c0-.558-.453-1.011-1.011-1.011h-2.024Zm5.058 1.011c0-.558.453-1.011 1.012-1.011h2.023c.559 0 1.012.453 1.012 1.011v2.023c0 .56-.453 1.012-1.012 1.012h-2.023a1.012 1.012 0 0 1-1.012-1.012v-2.023Z" fill="#0071BB" fill-opacity=".4"/><mask id="c" style="mask-type:alpha" maskUnits="userSpaceOnUse" x="1" y="2" width="135" height="136"><path d="M135.855 69.777c0 37.432-30.188 67.777-67.428 67.777C31.188 137.554 1 107.209 1 69.777S31.188 2 68.427 2c37.24 0 67.428 30.345 67.428 67.777Z" fill="#EBF3FA"/></mask><g mask="url(#c)"><path fill-rule="evenodd" clip-rule="evenodd" d="M101.699 101.843v-8.154c7.687-3.63 13.212-11.051 14.134-19.834 2.597-.365 4.595-2.584 4.595-5.268v-6.208c0-2.636-1.928-4.825-4.459-5.247v-2.734c0-13.714-11.18-24.832-24.972-24.832-13.792 0-24.972 11.118-24.972 24.832v2.734c-2.53.422-4.46 2.61-4.46 5.247v6.208c0 2.684 1.999 4.903 4.596 5.268.922 8.782 6.447 16.203 14.134 19.834v8.154H78.51c-17.732 0-32.107 14.294-32.107 31.926v1.386l6.512 2.605h25.05c14.786-2.935 33.53-11.137 45.725-28.802a32.09 32.09 0 0 0-20.208-7.115h-1.784Z" fill="#D0C6AC"/><mask id="d" style="mask-type:alpha" maskUnits="userSpaceOnUse" x="46" y="29" width="90" height="109"><path fill-rule="evenodd" clip-rule="evenodd" d="M101.699 93.69v8.153h1.784c17.732 0 32.107 14.294 32.107 31.926v3.991H46.404v-3.991c0-17.632 14.375-31.926 32.107-31.926h1.784v-8.154c-7.687-3.63-13.212-11.051-14.134-19.834-2.597-.365-4.595-2.584-4.595-5.268v-6.208c0-2.636 1.928-4.825 4.46-5.247v-2.734c0-13.714 11.18-24.832 24.971-24.832 13.792 0 24.972 11.118 24.972 24.832v2.734c2.531.422 4.459 2.61 4.459 5.247v6.208c0 2.684-1.998 4.903-4.595 5.268-.922 8.782-6.447 16.203-14.134 19.834Z" fill="#fff"/></mask><g mask="url(#d)"><path fill-rule="evenodd" clip-rule="evenodd" d="M149.859 29.566H32.135v108.193h12.717v-3.225l8.063 3.225h25.052c21.974-4.361 52.69-20.357 57.657-61.755h3.711v61.755h10.524V29.566Z" fill="#D08B5B"/></g><mask id="e" style="mask-type:alpha" maskUnits="userSpaceOnUse" x="46" y="29" width="90" height="109"><path fill-rule="evenodd" clip-rule="evenodd" d="M101.699 93.69v8.153h1.784c17.732 0 32.107 14.294 32.107 31.926v3.991H46.404v-3.991c0-17.632 14.375-31.926 32.107-31.926h1.784v-8.154c-7.687-3.63-13.212-11.051-14.134-19.834-2.597-.365-4.595-2.584-4.595-5.268v-6.208c0-2.636 1.928-4.825 4.46-5.247v-2.734c0-13.714 11.18-24.832 24.971-24.832 13.792 0 24.972 11.118 24.972 24.832v2.734c2.531.422 4.459 2.61 4.459 5.247v6.208c0 2.684-1.998 4.903-4.595 5.268-.922 8.782-6.447 16.203-14.134 19.834Z" fill="#fff"/></mask><g mask="url(#e)"><path d="M115.969 64.596v10.198c0 13.714-11.18 24.832-24.972 24.832-13.791 0-24.972-11.118-24.972-24.832V64.596v6.65c0 13.715 11.18 24.832 24.972 24.832 13.792 0 24.972-11.117 24.972-24.831v-6.651Z" fill="#000" fill-opacity=".1"/></g><path fill-rule="evenodd" clip-rule="evenodd" d="M123.854 108.721c-11.738 17.167-29.646 25.465-44.218 28.689H46.404v-3.974c0-16.919 13.196-30.769 29.898-31.899a6.18 6.18 0 0 0-.02.5c0 5.269 6.688 9.539 14.938 9.539s14.938-4.27 14.938-9.539c0-.156-.005-.312-.017-.467a32.034 32.034 0 0 1 17.713 7.151Z" fill="#E6E6E6"/><mask id="f" style="mask-type:alpha" maskUnits="userSpaceOnUse" x="46" y="101" width="90" height="37"><path fill-rule="evenodd" clip-rule="evenodd" d="M106.141 101.57c16.488 1.346 29.449 15.098 29.449 31.866v3.974H46.404v-3.974c0-16.919 13.196-30.769 29.898-31.899a6.18 6.18 0 0 0-.02.5c0 5.269 6.688 9.539 14.938 9.539s14.938-4.27 14.938-9.539c0-.156-.005-.312-.017-.467Z" fill="#fff"/></mask><g mask="url(#f)"><path fill-rule="evenodd" clip-rule="evenodd" d="M32.135 88.56h101.018c-8.783 31.261-34.11 44.556-53.518 48.849H52.04l-7.188-2.875v2.875H32.135V88.561Zm107.2 0v48.849h10.524V88.561h-10.524Z" fill="#262E33"/></g><mask id="g" style="mask-type:alpha" maskUnits="userSpaceOnUse" x="46" y="101" width="90" height="37"><path fill-rule="evenodd" clip-rule="evenodd" d="M106.141 101.57c16.488 1.346 29.449 15.098 29.449 31.866v3.974H46.404v-3.974c0-16.919 13.196-30.769 29.898-31.899a6.18 6.18 0 0 0-.02.5c0 5.269 6.688 9.539 14.938 9.539s14.938-4.27 14.938-9.539c0-.156-.005-.312-.017-.467Z" fill="#fff"/></mask><g mask="url(#g)"><path d="M108.894 102.703c0 6.601-7.913 11.952-17.675 11.952-9.761 0-17.674-5.351-17.674-11.952 0-6.6 7.913-11.951 17.674-11.951 9.762 0 17.675 5.35 17.675 11.951Z" fill="#000" fill-opacity=".16" opacity=".6"/></g><path fill-rule="evenodd" clip-rule="evenodd" d="M46.404 133.435c0-17.18 13.607-31.195 30.673-31.942-1.358 5.155-2.133 11.124-2.133 17.487 0 6.754.874 13.065 2.39 18.429H52.04l-5.636-2.254v-1.72Zm77.451-24.716c-4.743 6.939-10.495 12.429-16.628 16.72.179-2.094.272-4.253.272-6.46 0-6.353-.774-12.314-2.128-17.464a32.034 32.034 0 0 1 18.484 7.204Z" fill="#3A4C5A"/><path d="M77.174 100.994c-1.784 8.586-1.04 20.724 2.23 36.415h-7.136l-6.243-15.987 2.676-3.997-2.676-2.664 8.473-13.322a9.573 9.573 0 0 1 2.676-.445Z" fill="#2F4351"/><path fill-rule="evenodd" clip-rule="evenodd" d="m114.641 119.439-1.349-2.014 2.676-2.664-8.473-13.323a9.606 9.606 0 0 0-2.675-.444c1.38 6.643 1.247 15.413-.398 26.309a68.479 68.479 0 0 0 10.219-7.864Z" fill="#2F4351"/><path d="M84.672 79.74c0 3.431 2.734 6.213 6.107 6.213 3.372 0 6.106-2.782 6.106-6.212" fill="#000" fill-opacity=".7"/><path d="M85.543 71.311c0 1.96 2.343 3.55 5.234 3.55s5.235-1.59 5.235-3.55" fill="#000" fill-opacity=".16"/><path d="M82.055 63.324c0 1.47-1.172 2.662-2.618 2.662-1.445 0-2.617-1.192-2.617-2.662s1.172-2.662 2.618-2.662c1.445 0 2.617 1.192 2.617 2.662Zm22.683 0c0 1.47-1.171 2.662-2.617 2.662-1.445 0-2.617-1.192-2.617-2.662s1.172-2.662 2.617-2.662c1.446 0 2.617 1.192 2.617 2.662ZM73.17 57.626c1.707-2.444 6.389-3.815 10.422-2.807a.872.872 0 0 0 1.055-.65.888.888 0 0 0-.64-1.074c-4.683-1.17-10.104.417-12.26 3.503a.898.898 0 0 0 .206 1.238.863.863 0 0 0 1.216-.21Zm35.217 0c-1.708-2.444-6.389-3.815-10.422-2.807a.872.872 0 0 1-1.055-.65.888.888 0 0 1 .639-1.074c4.683-1.17 10.104.417 12.26 3.503.279.4.187.954-.205 1.238a.864.864 0 0 1-1.217-.21Z" fill="#000" fill-opacity=".6"/><path fill-rule="evenodd" clip-rule="evenodd" d="M59.235 90.19V51.014c0-1.564.176-3.086.508-4.549 1.347-8.87 6.451-15.918 12.286-20.262 8.78-6.533 23.576-8.419 28.696-.654 3.816-1.7 9.472-.15 13.655 3.753 4.219 4.168 7.587 13.368 5.584 20.896.046.56.069 1.127.069 1.699v9.673a5.306 5.306 0 0 0-4.33-4.306v-.073c-2.112-7.562-7.472-11.879-11.976-15.507-1.174-.945-2.29-1.844-3.275-2.742-2.912 3.269-8.236 5.265-14.112 7.467-9.163 3.435-19.668 7.373-24.458 17.422v4.427a5.308 5.308 0 0 0 4.503 5.253c.77 8.963 6.292 16.563 14.026 20.25v.172c1.292 19.414-2.93 43.736-30.44 36.3 6.002-3.525 9.18-26.094 9.264-40.045Zm42.351 3.573c7.734-3.687 13.256-11.287 14.025-20.25a5.308 5.308 0 0 0 4.423-4.32v.603a44.388 44.388 0 0 0 4.836 20.152l4.538 8.906a65.496 65.496 0 0 1-5.864 10.318 31.567 31.567 0 0 0-20.193-7.269h-1.765v-8.14Z" fill="#272C2E"/><mask id="h" style="mask-type:alpha" maskUnits="userSpaceOnUse" x="49" y="20" width="90" height="112"><path fill-rule="evenodd" clip-rule="evenodd" d="M59.235 90.19V51.014c0-1.564.176-3.086.508-4.549 1.347-8.87 6.451-15.918 12.286-20.262 8.78-6.533 23.576-8.419 28.696-.654 3.816-1.7 9.472-.15 13.655 3.753 4.219 4.168 7.587 13.368 5.584 20.896.046.56.069 1.127.069 1.699v9.673a5.306 5.306 0 0 0-4.33-4.306v-.073c-2.663-9.534-10.486-13.909-15.251-18.248-7.453 8.364-30.707 8.394-38.57 24.888v4.427a5.308 5.308 0 0 0 4.503 5.253c.77 8.963 6.292 16.563 14.026 20.25v.172c1.292 19.414-2.93 43.736-30.44 36.3 6.002-3.525 9.18-26.094 9.264-40.045Zm42.351 3.573c7.734-3.687 13.256-11.287 14.025-20.25a5.308 5.308 0 0 0 4.423-4.32v.603a44.388 44.388 0 0 0 4.836 20.152l11.888 23.332c3.072 6.029 2.17 13.047-1.736 18.047-1.246-16.459-14.95-29.424-31.671-29.424h-1.765v-8.14Z" fill="#fff"/></mask><g mask="url(#h)"><path fill-rule="evenodd" clip-rule="evenodd" d="M166.436 20.447H49.971v123.95h116.465V20.447ZM66.359 139.087c20.615-.412 63.33-13.606 69.267-63.081h3.71v63.081H66.359Z" fill="#4A312C"/></g><path fill-rule="evenodd" clip-rule="evenodd" d="M61.88 63.833c7.863-14.314 31.118-14.34 38.571-21.6 4.755 3.759 12.556 6.667 15.235 14.901-2.679-9.493-10.48-13.86-15.235-18.19-7.453 8.365-30.707 8.394-38.57 24.889Z" fill="#000" fill-opacity=".16"/></g><path d="M136.882 69.777c0 37.432-30.188 67.777-67.427 67.777-37.24 0-67.428-30.345-67.428-67.777S32.216 2 69.455 2s67.427 30.345 67.427 67.777Z" stroke="#A8B6C6" stroke-width="3"/><defs><linearGradient id="b" x1="68.427" y1="93.49" x2="68.427" y2="183.522" gradientUnits="userSpaceOnUse"><stop stop-color="#0071BB"/><stop offset="1" stop-color="#0071BB" stop-opacity="0"/></linearGradient></defs></svg>