<svg xmlns="http://www.w3.org/2000/svg" fill="none" overflow="visible" preserveAspectRatio="none" style="display:block" viewBox="0 0 20 20"><path fill="var(--fill-0, #0C0C0C)" fill-opacity=".45" d="M20 20H0V0h20zM6.62 10.803a5.1 5.1 0 0 0-2.774-.243c-1.612.309-2.425 1.761-2.425 3.122 0 1.01.202 1.982 1.356 2.773 1.083.738 2.704.723 3.94.346v-3.348H4.474l-.01.986h1.168v1.59c-.019.001-1.349.143-1.922-.157-.88-.46-1.244-1.298-1.225-2.19.017-.838.272-1.522 1.064-1.989.889-.524 2.262-.342 3.036.157zm5.925 6.194h1.044l2.646-1.287-.749-.593-1.358.696.557-1.27-.748-.679zm3.723-2.432 1.028 2.432h1.133l-1.424-3.151zm-4.535-3.893c-.7-.223-1.678-.417-2.399-.083a1.7 1.7 0 0 0-1.07 1.143c-.513 2.125 2.272 2.082 2.625 3.108.03.336-.023.675-.235.864-.616.572-1.677.293-2.243-.014l-.101 1.04c.988.351 2.217.401 3.064-.263a1.84 1.84 0 0 0 .602-1.378c-.09-1.928-1.7-1.687-2.61-2.683-.128-.326-.028-.756.25-.909.556-.307 1.391-.13 1.978.162-.015-.045.14-.987.14-.987m2.275 3.14h1.079l.476-1.076.447 1.076h1.043l-1.527-3.343z"/></svg>