<svg xmlns="http://www.w3.org/2000/svg" width="16" height="16" fill="none" viewBox="0 0 16 16"><g fill="currentColor"><path d="M6.4 9.6c.44 0 .8-.36.8-.8S6.84 8 6.4 8s-.8.36-.8.8.36.8.8.8m3.2 0c.44 0 .8-.36.8-.8s-.36-.8-.8-.8-.8.36-.8.8.36.8.8.8M6.4 12c.44 0 .8-.36.8-.8s-.36-.8-.8-.8-.8.36-.8.8.36.8.8.8m3.2 0c.44 0 .8-.36.8-.8s-.36-.8-.8-.8-.8.36-.8.8.36.8.8.8m.8-8H5.6v2.4h4.8z"/><path d="M12 2.4v11.2H4V2.4zm0-1.6H4c-.88 0-1.6.72-1.6 1.6v11.2c0 .88.72 1.6 1.6 1.6h8c.88 0 1.6-.72 1.6-1.6V2.4c0-.88-.72-1.6-1.6-1.6"/></g></svg>