<svg xmlns="http://www.w3.org/2000/svg" width="24" height="24" fill="none" viewBox="0 0 24 24"><g fill="currentColor"><path d="M9.6 14.4c.66 0 1.2-.54 1.2-1.2S10.26 12 9.6 12s-1.2.54-1.2 1.2.54 1.2 1.2 1.2m4.8 0c.66 0 1.2-.54 1.2-1.2s-.54-1.2-1.2-1.2-1.2.54-1.2 1.2.54 1.2 1.2 1.2M9.6 18c.66 0 1.2-.54 1.2-1.2s-.54-1.2-1.2-1.2-1.2.54-1.2 1.2.54 1.2 1.2 1.2m4.8 0c.66 0 1.2-.54 1.2-1.2s-.54-1.2-1.2-1.2-1.2.54-1.2 1.2.54 1.2 1.2 1.2m1.2-12H8.4v3.6h7.2z"/><path d="M18 3.6v16.8H6V3.6zm0-2.4H6c-1.32 0-2.4 1.08-2.4 2.4v16.8c0 1.32 1.08 2.4 2.4 2.4h12c1.32 0 2.4-1.08 2.4-2.4V3.6c0-1.32-1.08-2.4-2.4-2.4"/></g></svg>