<svg xmlns="http://www.w3.org/2000/svg" width="16" height="16" fill="none" viewBox="0 0 16 16"><defs><clipPath id="a"><path fill="#fff" d="M412 1618h16v16h-16z"/></clipPath></defs><g clip-path="url(#a)" transform="translate(-412 -1618)"><path fill="currentColor" d="M420 1618.8c-3.976 0-7.2 3.22-7.2 7.2s3.224 7.2 7.2 7.2 7.2-3.22 7.2-7.2-3.224-7.2-7.2-7.2m5.536 6.4h-2.36c-.08-1.69-.424-3.2-.936-4.33a5.63 5.63 0 0 1 3.288 4.33zm-5.536 6.39c-.432-.21-1.408-1.87-1.568-4.79h3.136c-.16 2.92-1.136 4.58-1.568 4.79m-1.568-6.39c.16-2.92 1.136-4.58 1.568-4.79.432.21 1.408 1.87 1.568 4.79zm-.68-4.33c-.512 1.13-.848 2.64-.936 4.33h-2.36a5.63 5.63 0 0 1 3.288-4.33zm-3.288 5.93h2.36c.08 1.69.424 3.2.936 4.33a5.63 5.63 0 0 1-3.288-4.33zm7.784 4.33c.512-1.13.848-2.64.936-4.33h2.36a5.63 5.63 0 0 1-3.288 4.33z"/></g></svg>