<svg xmlns="http://www.w3.org/2000/svg" width="20" height="20" fill="none" viewBox="0 0 20 20"><path fill="currentColor" d="M10 1a9 9 0 1 0 .001 18.001A9 9 0 0 0 10 1m6.92 8h-2.95c-.1-2.11-.53-4-1.17-5.41 2.17.96 3.76 2.98 4.11 5.41zM10 16.99c-.54-.26-1.76-2.34-1.96-5.99h3.92c-.2 3.65-1.42 5.73-1.96 5.99M8.04 9c.2-3.65 1.42-5.73 1.96-5.99.54.26 1.76 2.34 1.96 5.99zm-.85-5.41C6.55 5 6.13 6.89 6.02 9H3.07a7.02 7.02 0 0 1 4.11-5.41zM3.08 11h2.95c.1 2.11.53 4 1.17 5.41A7.02 7.02 0 0 1 3.09 11zm9.73 5.41c.64-1.41 1.06-3.3 1.17-5.41h2.95a7.02 7.02 0 0 1-4.11 5.41z"/></svg>