<svg xmlns="http://www.w3.org/2000/svg" width="24" height="24" fill="none" viewBox="0 0 24 24"><path fill="currentColor" d="M12 1.2C6.036 1.2 1.2 6.04 1.2 12S6.036 22.8 12 22.8 22.8 17.96 22.8 12 17.964 1.2 12 1.2m8.304 9.6h-3.54c-.12-2.53-.636-4.8-1.404-6.49a8.41 8.41 0 0 1 4.932 6.49zM12 20.39c-.648-.31-2.112-2.81-2.352-7.19h4.704c-.24 4.38-1.704 6.88-2.352 7.19M9.648 10.8c.24-4.38 1.704-6.88 2.352-7.19.648.31 2.112 2.81 2.352 7.19zm-1.02-6.49C7.86 6 7.356 8.27 7.224 10.8h-3.54a8.41 8.41 0 0 1 4.932-6.49zM3.696 13.2h3.54c.12 2.53.636 4.8 1.404 6.49a8.41 8.41 0 0 1-4.932-6.49zm11.676 6.49c.768-1.69 1.272-3.96 1.404-6.49h3.54a8.41 8.41 0 0 1-4.932 6.49z"/></svg>