<svg xmlns="http://www.w3.org/2000/svg" width="397" height="196" viewBox="0 0 397 196"><g fill="#DDC523"><path d="M390.548 36.197H6.114c-1.08 0-1.92 1.068-1.75 2.257C6.862 55.642 21.638 65.73 31.262 69.822h334.146c9.624-4.093 24.398-14.18 26.895-31.368.174-1.188-.668-2.257-1.752-2.257zM63.212 95.562h270.24c7.477-2.646 20.433-8.814 26.098-21.452H37.117c5.665 12.638 18.62 18.806 26.095 21.452zM96.938 117.026c.098.027 8.13.037 8.234.037 2.597.01 38.712.135 93.16.19 54.45-.056 90.563-.18 93.16-.19.105 0 8.137-.01 8.235-.037 2.077-.505 18.242-1.296 28.226-17.17H68.715c9.98 15.874 26.147 16.665 28.223 17.17z"/></g><path fill="#AEA03F" d="M327.974 34.113c0 57.104-58.043 103.393-129.64 103.393-71.604 0-129.642-46.288-129.642-103.393"/><path fill="#FFF" d="M198.59 191.417c-1.235 0-2.52-.54-4.168-1.754-24.202-17.812-56.968-63.474-57.296-63.933-.89-.954-1.356-2.135-1.356-3.375V9.447c0-2.683 2.182-4.864 4.863-4.864h115.402c2.68 0 4.86 2.182 4.86 4.864v112.908c0 1.24-.466 2.42-1.312 3.324-.368.51-32.798 46.172-56.828 63.983-1.634 1.213-2.92 1.754-4.166 1.754z"/><path fill="#CBCCD4" d="M256.035 5.083c2.405 0 4.36 1.958 4.36 4.364v112.908c0 1.112-.417 2.172-1.177 2.982l-.047.05-.04.057c-.08.114-8.244 11.633-19.274 25.204-10.16 12.5-24.895 29.345-37.4 38.614-1.542 1.144-2.734 1.654-3.867 1.654-1.122 0-2.315-.512-3.872-1.657-12.594-9.27-27.464-26.116-37.72-38.616-11.135-13.57-19.384-25.09-19.466-25.204l-.04-.055-.044-.05c-.76-.81-1.18-1.868-1.18-2.98V9.447c0-2.406 1.958-4.364 4.364-4.364h115.403m0-1H140.633c-2.96 0-5.363 2.402-5.363 5.364v112.908c0 1.362.518 2.673 1.45 3.666 0 0 32.858 45.98 57.405 64.045 1.655 1.22 3.05 1.852 4.464 1.852 1.38 0 2.78-.604 4.463-1.852C227.427 172 259.95 126.02 259.95 126.02c.93-.992 1.447-2.303 1.447-3.665V9.447c0-2.962-2.4-5.364-5.362-5.364z"/><path fill="#475A77" d="M140.633 4.083h115.402c2.962 0 5.36 2.402 5.36 5.364v112.908c0 1.362-.516 2.673-1.447 3.666 0 0-10.128 14.32-23.317 30.117V64.293h-25.927l.002 119.47c-2.606 2.336-5.17 4.463-7.652 6.303-3.406 2.526-5.654 2.41-8.928 0-2.64-1.943-5.378-4.21-8.16-6.708l.002-119.064h-25.93l-.003 91.57c-13.2-15.687-23.315-29.842-23.315-29.842-.933-.993-1.45-2.304-1.45-3.666V9.446c0-2.96 2.402-5.363 5.363-5.363zm14.894 23.942l-7.4 1.073 5.354 5.22-1.263 7.372 6.62-3.48 6.617 3.48-1.262-7.373 5.353-5.22-7.4-1.072-3.307-6.706-3.31 6.705zm78.995 0l-7.4 1.073 5.355 5.22-1.264 7.372 6.617-3.48 6.62 3.48-1.267-7.373 5.356-5.22-7.402-1.072-3.31-6.706-3.306 6.705zm-41.654-.468l-12 1.742 8.682 8.462-2.054 11.952 10.735-5.643 10.734 5.644-2.052-11.952 8.686-8.463-12-1.743-5.367-10.876-5.362 10.877z"/></svg>