<svg version="1.0" xmlns="http://www.w3.org/2000/svg" width="666.667" height="666.667" viewBox="0 0 500 500"><path d="M121.5 37.1c-8.9 1.3-19.1 6.7-25.8 13.8C88.4 58.5 84.4 67 83 77.5c-.7 5.3-1 47.2-.8 125.1l.3 117 3.7 7.5c17.8 36 60.2 77.5 109.7 107.2 13 7.8 39.4 21.7 48.8 25.7l5.2 2.2 13-6c36.1-16.7 74.3-41.9 100.6-66.2 21.8-20.1 41.3-44.7 50.8-63.9l3.2-6.6.3-117c.2-78-.1-119.7-.8-125-2.6-19.9-16.3-35.5-35.1-40-5.5-1.3-23-1.5-130.4-1.4-68.2.1-126.7.5-130 1zm139.8 99.4c8.9 2.3 15.6 6.2 22.2 12.9 18.2 18.2 18.9 46.6 1.4 65.1l-5.1 5.4 7.8 44.5c4.3 24.5 7.5 44.8 7.3 45.1-.3.2-5.9 1.1-12.4 2-16 2.2-50 2.2-65.4.1-6.2-.8-11.5-1.7-11.7-1.9-.2-.1 3.2-20.3 7.5-44.7l7.7-44.4-4.8-4.9c-12.2-12.2-16.5-31.6-10.7-48.4 7.7-22.5 33.6-36.7 56.2-30.8z"/></svg>