<?xml version="1.0" standalone="no"?>
<!DOCTYPE svg PUBLIC "-//W3C//DTD SVG 20010904//EN"
 "http://www.w3.org/TR/2001/REC-SVG-20010904/DTD/svg10.dtd">
<svg version="1.0" xmlns="http://www.w3.org/2000/svg"
 width="500.000000pt" height="500.000000pt" viewBox="0 0 500.000000 500.000000"
 preserveAspectRatio="xMidYMid meet">
<metadata>
Created by potrace 1.11, written by Peter Selinger 2001-2013
</metadata>
<g transform="translate(0.000000,500.000000) scale(0.100000,-0.100000)"
fill="#000000" stroke="none">
<path d="M1215 4629 c-89 -13 -191 -67 -258 -138 -73 -76 -113 -161 -127 -266
-7 -53 -10 -472 -8 -1251 l3 -1170 37 -75 c178 -360 602 -775 1097 -1072 130
-78 394 -217 488 -257 l52 -22 130 60 c361 167 743 419 1006 662 218 201 413
447 508 639 l32 66 3 1170 c2 780 -1 1197 -8 1250 -26 199 -163 355 -351 400
-55 13 -230 15 -1304 14 -682 -1 -1267 -5 -1300 -10z m1398 -994 c89 -23 156
-62 222 -129 182 -182 189 -466 14 -651 l-51 -54 78 -445 c43 -245 75 -448 73
-451 -3 -2 -59 -11 -124 -20 -160 -22 -500 -22 -654 -1 -62 8 -115 17 -117 19
-2 1 32 203 75 447 l77 444 -48 49 c-122 122 -165 316 -107 484 77 225 336
367 562 308z"/>
</g>
</svg>
