<svg xmlns="http://www.w3.org/2000/svg" width="67" height="73" fill="none" viewBox="0 0 67 73"><path stroke="#a8b6c6" stroke-width="2" d="M65.21 33.595c0-17.792-14.327-32.216-32-32.216s-32 14.423-32 32.216"/><g fill-rule="evenodd"><path fill="#fff" d="M28.722 51.089a1.984 1.984 0 0 1-2.795-.245L14.103 36.753a1.984 1.984 0 0 1 .245-2.795l14.617-12.265c.377-.316.857-.363 1.074-.105l13.59 16.196c.217.258.087.723-.29 1.039z"/><path fill="#0071bb" d="M45.378 38.749c.155-.557.163-1.385-.42-2.08l-13.59-16.196c-.583-.695-1.4-.831-1.975-.775a2.85 2.85 0 0 0-1.544.666L13.232 32.629a3.72 3.72 0 0 0-.458 5.24L24.598 51.96a3.72 3.72 0 0 0 5.24.458l14.617-12.265c.422-.354.766-.838.924-1.405zm-3.803-.711L27.606 49.76a.25.25 0 0 1-.349-.031L15.433 35.638a.25.25 0 0 1 .03-.349l13.97-11.722z"/><path fill="#fff" d="M42.963 37.283 30.679 22.644l10.434-8.755a1.423 1.423 0 0 1 2.005.175l10.454 12.458c.505.602.427 1.5-.175 2.005l-10.434 8.755z"/><g fill="#0071bb"><path d="m41.99 15.42-8.865 7.438 10.052 11.979 8.865-7.438zm-1.992-2.86a3.16 3.16 0 0 1 4.45.389l10.454 12.458a3.16 3.16 0 0 1-.389 4.45l-11.764 9.871L28.234 22.43l11.764-9.871z"/><use href="#a"/><use x="-1.916" y="-2.286" href="#a"/><path d="m47.783 26.768-.425-.507c-.147-.175-.488-.132-.76.097l-7.5 6.293.958 1.142 7.5-6.294c.273-.229.374-.557.227-.732zm-5.746-6.853-.425-.507c-.147-.175-.488-.132-.76.097l-7.5 6.294.958 1.142 7.5-6.293c.273-.229.374-.557.227-.732z"/></g></g><path stroke="#a8b6c6" stroke-width="2" d="M1.21 33.622c0 17.792 14.327 32.216 32 32.216s32-14.424 32-32.216"/><circle cx="33.453" cy="64.329" r="6.448" fill="#fff"/><g fill="#e21c3d"><path d="M41.744 64.329a8.291 8.291 0 1 1-16.582 0 8.291 8.291 0 0 1 16.582 0"/><path d="M41.744 64.329c0 4.579-3.712 8.29-8.291 8.29s-8.291-3.711-8.291-8.29a8.291 8.291 0 1 1 16.582 0"/></g><path fill="#fff" fill-rule="evenodd" d="M35.262 67.964a1 1 0 0 0 1.414 0l.106-.106a1 1 0 0 0 0-1.414l-1.809-1.809 2.047-2.047a1 1 0 0 0 0-1.414l-.106-.106a1 1 0 0 0-1.414 0l-2.047 2.047-2.05-2.05a1 1 0 0 0-1.414 0l-.106.106a1 1 0 0 0 0 1.414l2.05 2.05-1.806 1.806a1 1 0 0 0 0 1.414l.106.106a1 1 0 0 0 1.414 0l1.806-1.806z"/><defs><path id="a" d="m44.727 25.442-.425-.507c-.147-.175-.489-.131-.763.099l-6.356 5.333.958 1.142 6.356-5.333c.274-.23.377-.559.23-.734"/></defs></svg>