<svg xmlns="http://www.w3.org/2000/svg" width="67" height="73" fill="none" viewBox="0 0 67 73"><path stroke="#a8b6c6" stroke-width="2" d="M65.21 33.596c0-17.792-14.327-32.216-32-32.216s-32 14.424-32 32.216"/><path fill="#0071bb" d="M15.326 32.944c.097-4.862 1.945-9.244 5.673-12.77a16.88 16.88 0 0 1 9.346-4.517c4.846-.71 9.282.366 13.219 3.29 3.614 2.683 5.839 6.302 6.769 10.715.305 1.446.522 2.917.338 4.39-.33 2.654-1.778 4.534-4.21 5.59-3.936 1.71-8.553-.755-9.39-4.975a9 9 0 0 1-.165-1.473c-.059-2.022-1.572-3.682-3.485-3.796-2.131-.129-3.911 1.252-4.157 3.337-.165 1.378.058 2.753.424 4.091 1.336 4.877 4.335 8.267 9.021 10.135.652.26 1.179.602 1.256 1.37a1.51 1.51 0 0 1-.553 1.398 1.5 1.5 0 0 1-1.481.223 17.3 17.3 0 0 1-5.907-3.526 17.56 17.56 0 0 1-5.182-8.292c-.58-2.025-.915-4.091-.578-6.202.461-2.887 2.972-5.198 5.856-5.597 3.444-.479 6.972 1.834 7.697 5.514.119.605.117 1.232.197 1.848.264 2.06 1.837 3.433 3.899 3.392a3.8 3.8 0 0 0 2.604-1.122 3.83 3.83 0 0 0 1.106-2.621 14.73 14.73 0 0 0-2.914-8.935 14.6 14.6 0 0 0-7.712-5.328c-3.378-.952-6.726-.751-9.927.718-4.325 1.99-7.082 5.343-8.254 9.97a14.2 14.2 0 0 0 .099 7.353c.145.524.18 1.04-.15 1.508a1.47 1.47 0 0 1-.624.556 1.47 1.47 0 0 1-.825.126 1.45 1.45 0 0 1-1.301-1.161 20 20 0 0 1-.687-5.209zm5.404.606c0-4.72 2.004-8.654 6.425-11.171a11.42 11.42 0 0 1 7.835-1.345c4.788.862 8.01 3.635 9.699 8.201.448 1.248.668 2.566.651 3.892 0 .881-.553 1.519-1.352 1.594-.867.081-1.535-.429-1.677-1.327-.122-.773-.124-1.57-.304-2.322a8.9 8.9 0 0 0-1.58-3.447 8.9 8.9 0 0 0-2.867-2.472 9.16 9.16 0 0 0-4.736-1.177 8.67 8.67 0 0 0-5.57 2.043c-2.476 2.078-3.564 4.75-3.421 7.994a20.7 20.7 0 0 0 2.778 9.478 1.52 1.52 0 0 1-.127 1.772 1.5 1.5 0 0 1-.789.495 1.5 1.5 0 0 1-.928-.065 1.9 1.9 0 0 1-.84-.738 23.8 23.8 0 0 1-2.995-8.773c-.099-.763-.117-1.539-.201-2.632zM32.893 10a24 24 0 0 1 10.142 2.37 22.8 22.8 0 0 1 5.648 3.889c.761.71.84 1.647.193 2.332-.556.589-1.369.647-2.039.114l-1.573-1.327a18.7 18.7 0 0 0-8.654-3.899c-6.262-1.06-11.849.498-16.724 4.602a4.1 4.1 0 0 1-1.156.738c-.579.217-1.251-.083-1.583-.58a1.56 1.56 0 0 1 .04-1.824 4.7 4.7 0 0 1 .613-.61c3.358-2.894 7.203-4.75 11.583-5.435 1.159-.184 2.346-.252 3.511-.37zm10.874 35.585c-2.586-.012-5.102-.838-7.196-2.362s-3.659-3.669-4.476-6.134a12.3 12.3 0 0 1-.616-3.692c-.018-1.292 1.134-2.063 2.24-1.514a1.4 1.4 0 0 1 .546.459 1.4 1.4 0 0 1 .248.671c.086.695.097 1.406.249 2.086.741 3.317 2.681 5.609 5.856 6.81a9.14 9.14 0 0 0 4.325.517 1.5 1.5 0 0 1 1.119.315 1.5 1.5 0 0 1 .383.454 1.5 1.5 0 0 1 .179.568c.087.942-.495 1.643-1.423 1.713z"/><path stroke="#a8b6c6" stroke-width="2" d="M1.21 33.622c0 17.792 14.327 32.216 32 32.216s32-14.424 32-32.216"/><circle cx="33.453" cy="64.329" r="6.448" fill="#fff"/><g fill="#e21c3d"><path d="M41.744 64.329c0 4.579-3.712 8.29-8.291 8.29s-8.291-3.711-8.291-8.29a8.291 8.291 0 1 1 16.582 0"/><path d="M41.744 64.329a8.291 8.291 0 1 1-16.582 0 8.291 8.291 0 0 1 16.582 0"/></g><path fill="#fff" fill-rule="evenodd" d="M35.262 67.964a1 1 0 0 0 1.414 0l.106-.106a1 1 0 0 0 0-1.414l-1.809-1.809 2.047-2.047a1 1 0 0 0 0-1.414l-.106-.106a1 1 0 0 0-1.414 0l-2.047 2.047-2.05-2.05a1 1 0 0 0-1.414 0l-.106.106a1 1 0 0 0 0 1.414l2.05 2.05-1.806 1.806a1 1 0 0 0 0 1.414l.106.106a1 1 0 0 0 1.414 0l1.806-1.806z"/></svg>