<svg xmlns="http://www.w3.org/2000/svg" width="107" height="117" fill="none" viewBox="0 0 107 117"><path fill="#0071bb" d="M20.35 55.444c.18-8.967 3.586-17.046 10.46-23.548a31.14 31.14 0 0 1 17.234-8.33c8.935-1.309 17.115.676 24.376 6.067 6.664 4.948 10.768 11.621 12.482 19.759.563 2.667.962 5.379.624 8.095-.609 4.893-3.279 8.361-7.763 10.309-7.258 3.153-15.773-1.391-17.316-9.175a16.5 16.5 0 0 1-.304-2.716c-.11-3.728-2.898-6.789-6.427-7-3.93-.239-7.212 2.309-7.666 6.153-.304 2.541.107 5.077.782 7.545 2.463 8.994 7.994 15.245 16.634 18.689 1.203.48 2.174 1.11 2.317 2.526.069.482.012.974-.167 1.426a2.8 2.8 0 0 1-.852 1.153 2.76 2.76 0 0 1-2.732.412 31.8 31.8 0 0 1-10.893-6.502 32.4 32.4 0 0 1-9.556-15.291c-1.069-3.734-1.687-7.545-1.065-11.438.849-5.324 5.48-9.584 10.798-10.321 6.351-.884 12.856 3.382 14.193 10.169.219 1.116.216 2.272.362 3.407.487 3.798 3.388 6.33 7.191 6.254a7 7 0 0 0 4.802-2.069 7.05 7.05 0 0 0 2.039-4.833 27.16 27.16 0 0 0-5.373-16.476 26.96 26.96 0 0 0-14.221-9.825c-6.229-1.755-12.403-1.385-18.306 1.324-7.976 3.67-13.06 9.854-15.222 18.386a26.2 26.2 0 0 0 .183 13.56c.268.966.332 1.917-.277 2.78a2.7 2.7 0 0 1-1.152 1.025 2.7 2.7 0 0 1-1.521.232 2.66 2.66 0 0 1-1.555-.668 2.7 2.7 0 0 1-.844-1.473 37 37 0 0 1-1.266-9.606zm9.965 1.116c0-8.704 3.696-15.958 11.849-20.6a21.05 21.05 0 0 1 14.449-2.48c8.829 1.59 14.771 6.703 17.886 15.123a20.4 20.4 0 0 1 1.2 7.178c0 1.624-1.02 2.801-2.493 2.939-1.598.15-2.831-.792-3.093-2.447-.225-1.425-.228-2.896-.56-4.282a16.45 16.45 0 0 0-2.914-6.357 16.35 16.35 0 0 0-5.287-4.558 16.9 16.9 0 0 0-8.734-2.171 15.98 15.98 0 0 0-10.272 3.768c-4.566 3.832-6.573 8.759-6.308 14.741a38.2 38.2 0 0 0 5.124 17.478c.309.5.452 1.086.41 1.673a2.8 2.8 0 0 1-.645 1.596 2.78 2.78 0 0 1-1.455.912 2.77 2.77 0 0 1-1.711-.119 3.55 3.55 0 0 1-1.55-1.361 43.8 43.8 0 0 1-5.522-16.178c-.183-1.407-.216-2.838-.371-4.853zm22.43-43.426a44.3 44.3 0 0 1 18.701 4.37 42 42 0 0 1 10.415 7.172c1.403 1.309 1.55 3.037.356 4.3-1.026 1.086-2.524 1.193-3.76.211-.989-.789-1.912-1.667-2.901-2.447a34.45 34.45 0 0 0-15.958-7.19c-11.547-1.954-21.849.917-30.839 8.487a7.5 7.5 0 0 1-2.131 1.361c-1.069.401-2.308-.153-2.92-1.07a2.88 2.88 0 0 1 .073-3.364q.514-.615 1.13-1.125c6.192-5.337 13.282-8.759 21.359-10.022 2.137-.339 4.326-.465 6.475-.682zm20.053 65.619a22.73 22.73 0 0 1-13.27-4.356 22.9 22.9 0 0 1-8.253-11.311 22.8 22.8 0 0 1-1.136-6.807c-.033-2.382 2.091-3.804 4.131-2.792a2.56 2.56 0 0 1 1.008.846 2.6 2.6 0 0 1 .457 1.237c.158 1.281.18 2.593.46 3.847 1.367 6.116 4.944 10.343 10.798 12.557a16.85 16.85 0 0 0 7.976.954 2.8 2.8 0 0 1 1.09.082 2.8 2.8 0 0 1 .974.498 2.78 2.78 0 0 1 1.035 1.885c.161 1.737-.913 3.031-2.624 3.159l-2.646.202z"/><path stroke="#a8b6c6" stroke-width="2" d="M105.211 53.457C105.211 24.486 81.882 1 53.105 1S1 24.486 1 53.457m0 .043c0 28.971 23.328 52.457 52.105 52.457s52.106-23.486 52.106-52.457"/><circle cx="53.5" cy="103.5" r="10.5" fill="#fff"/><path fill="#63bb60" d="M67 103.499c0 7.457-6.044 13.5-13.5 13.5s-13.5-6.043-13.5-13.5S46.044 90 53.5 90 67 96.043 67 103.499m-15.062 7.148 10.016-10.015a.873.873 0 0 0 0-1.233l-1.232-1.231a.873.873 0 0 0-1.232 0l-8.169 8.168-3.814-3.814a.873.873 0 0 0-1.232 0l-1.232 1.233a.87.87 0 0 0 0 1.231l5.661 5.661a.87.87 0 0 0 1.232 0z"/></svg>