<svg xmlns="http://www.w3.org/2000/svg" width="107" height="117" fill="none" viewBox="0 0 107 117"><path stroke="#a8b6c6" stroke-width="2" d="M105.211 53.457C105.211 24.486 81.882 1 53.105 1S1 24.486 1 53.457"/><g fill-rule="evenodd"><path fill="#fff" d="M45.856 80.213a3.446 3.446 0 0 1-4.855-.425L20.463 55.311a3.446 3.446 0 0 1 .425-4.855L46.279 29.15c.654-.549 1.489-.631 1.865-.182l23.607 28.133c.376.448.151 1.256-.504 1.805z"/><path fill="#0071bb" d="M74.79 58.777c.27-.968.284-2.406-.729-3.613L50.454 27.031c-1.013-1.207-2.431-1.443-3.431-1.345-1.017.099-1.949.542-2.682 1.156L18.95 48.147a6.46 6.46 0 0 0-.796 9.103l20.539 24.477a6.46 6.46 0 0 0 9.103.796l25.391-21.306c.732-.615 1.33-1.456 1.604-2.44zm-6.606-1.235L43.918 77.904a.43.43 0 0 1-.607-.053L22.773 53.374a.43.43 0 0 1 .053-.607l24.266-20.362z"/><path fill="#fff" d="M70.594 56.23 49.257 30.802l18.124-15.208a2.47 2.47 0 0 1 3.483.305L89.023 37.54a2.473 2.473 0 0 1-.305 3.483z"/><g fill="#0071bb"><path d="M68.904 18.253 53.506 31.174l17.461 20.809 15.398-12.921zm-3.46-4.969a5.49 5.49 0 0 1 7.73.676l18.159 21.641a5.49 5.49 0 0 1-.676 7.73L70.223 60.478 45.01 30.43z"/><path d="m73.658 35.663-.738-.88c-.256-.305-.849-.228-1.325.171l-11.041 9.264 1.665 1.984 11.041-9.264c.476-.399.655-.97.399-1.275zm-3.328-3.972-.738-.88c-.256-.305-.849-.228-1.325.171l-11.041 9.264 1.664 1.984 11.041-9.264c.476-.399.655-.97.399-1.275m8.637 6.274-.738-.88c-.256-.305-.847-.23-1.321.168L63.879 48.185l1.665 1.984 13.029-10.932c.474-.398.65-.967.395-1.272zm-9.982-11.903-.739-.88c-.256-.305-.847-.23-1.321.168L53.897 36.283l1.665 1.984 13.029-10.932c.474-.397.65-.967.395-1.271z"/></g></g><path stroke="#a8b6c6" stroke-width="2" d="M1 53.5c0 28.971 23.328 52.457 52.105 52.457s52.106-23.486 52.106-52.457"/><circle cx="53.5" cy="103.5" r="10.5" fill="#fff"/><path fill="#63bb60" d="M67 103.499c0 7.457-6.044 13.5-13.5 13.5s-13.5-6.043-13.5-13.5S46.044 90 53.5 90 67 96.043 67 103.499m-15.062 7.148 10.016-10.015a.873.873 0 0 0 0-1.233l-1.232-1.231a.873.873 0 0 0-1.232 0l-8.169 8.168-3.814-3.814a.873.873 0 0 0-1.232 0l-1.232 1.233a.87.87 0 0 0 0 1.231l5.661 5.661a.87.87 0 0 0 1.232 0z"/></svg>