<svg xmlns="http://www.w3.org/2000/svg" viewBox="0 0 308.64 174.2"><title>2FA-phone-call</title><g id="Layer_2" data-name="Layer 2"><g id="Layer_1-2" data-name="Layer 1"><path d="M179.88,9.7c-45.49,0-84.94,9.2-104.49,26.91a56.18,56.18,0,0,1-24-9c1.54,12,7.84,19.07,13.62,23.12a33.2,33.2,0,0,0-2.7,13.24c0,35.48,52.64,54.23,117.57,54.23S297.45,99.4,297.45,63.92,244.81,9.7,179.88,9.7Z" fill="#68e380"/><path d="M87.48,72.16l4-7-7.25-3.29,1.54-4.83,7.8,1.61.87-7.93h5.17l.87,8,7.73-1.68,1.61,4.83-7.26,3.29,4,7-4.1,3-5.37-6-5.44,6Z"/><path d="M118.17,72.16l4-7-7.26-3.29,1.55-4.83,7.79,1.61.87-7.93h5.17l.87,8,7.73-1.68,1.61,4.83-7.25,3.29,4,7-4.1,3-5.37-6-5.44,6Z"/><path d="M148.86,72.16l4-7-7.26-3.29,1.55-4.83,7.79,1.61.87-7.93H161l.88,8,7.72-1.68,1.61,4.83-7.25,3.29,4,7-4.1,3-5.37-6-5.44,6Z"/><path d="M193.53,72.16l4-7-7.25-3.29,1.54-4.83,7.79,1.61.87-7.93h5.18l.87,8,7.72-1.68,1.61,4.83-7.25,3.29,4,7-4.09,3-5.38-6-5.44,6Z"/><path d="M224.22,72.16l4-7-7.25-3.29,1.54-4.83,7.79,1.61.88-7.93h5.17l.87,8,7.72-1.68,1.62,4.83-7.26,3.29,4,7-4.1,3-5.38-6-5.43,6Z"/><path d="M254.91,72.16l4-7-7.25-3.29,1.54-4.83L261,58.66l.88-7.93H267l.87,8,7.73-1.68,1.61,4.83L270,65.17l4,7-4.1,3-5.37-6-5.44,6Z"/><path d="M132,174.2h-.25c-3.52-.2-4.31-4.17-5.22-8.77-.19-1-.48-2.44-.77-3.55-.83.64-1.81,1.48-2.52,2.07-3.66,3.11-6.82,5.8-9.68,3.6s-1.18-5.83.62-10.17c.28-.7.66-1.61,1-2.47-.84.23-1.73.5-2.42.71-4.64,1.4-8.31,2.52-10.21-.25s.39-5.8,3.24-9.71l.81-1.12c-1.46.47-3,1-3.71,1.31-1.17.44-1.81.67-2.31.8-6.09,1.51-14.63,2.84-20.8.61-3.25-1.18-7.45-4.38-9-12.95a3,3,0,0,1,5.91-1.06c.82,4.63,2.54,7.44,5.11,8.37,3.7,1.34,9.85,1,17.31-.8.23-.06,1-.35,1.66-.59,5.1-1.91,10.88-4.07,13.13-.43,1.63,2.65-.53,5.63-3.28,9.39l-.74,1,1.12-.34c4.58-1.38,7.88-2.38,9.89-.08,1.83,2.11.82,5-.8,9,3.1-2.62,5.44-4.39,7.93-3.5,2.76,1,3.48,4.42,4.34,8.77v0c1.34-4.23,2.4-7.56,5.23-8.21s5.25,2,8.24,5.3l.78.87c0-.4-.1-.77-.14-1.1-.62-4.58-1.1-8.2,1.43-9.95s5.73,0,9.75,2.32c.73.41,1.7,1,2.57,1.41-.15-1-.38-2.24-.55-3.12-.88-4.61-1.65-8.59,1.4-10.31s6.16,1,9.73,4.12c.77.68,1.86,1.64,2.75,2.33.26-1.1.49-2.53.66-3.54.76-4.64,1.41-8.65,4.82-9.32s5.51,2.74,8,6.68c.53.82,1.26,2,1.91,2.88.45-1,.94-2.27,1.28-3.18,1.66-4.32,3.08-8,6.45-8.14h.12c3.22,0,4.77,3.6,6.56,7.76.33.77.77,1.8,1.2,2.7.46-.87.94-1.85,1.3-2.59,2-4.16,3.79-7.76,7.09-7.51s4.49,4.07,5.85,8.48c.24.81.57,1.89.91,2.83.57-.82,1.19-1.77,1.65-2.47,2.52-3.89,4.69-7.25,8-6.55s3.91,4.65,4.64,9.23c.13.81.3,1.9.49,2.86.65-.7,1.35-1.5,1.87-2.1,3-3.49,5.65-6.5,8.79-5.37s3.29,4.83,3.63,9.55c0,.58.09,1.29.15,2,.43-.58.85-1.17,1.19-1.64,2.64-3.68,4.74-6.57,7.72-6.15s4.23,3.61,5.93,7.68c.4-4.3.8-7.68,3.37-9s5.09.8,8.48,3.77c.64.56,1.55,1.35,2.41,2-.06-.76-.14-1.53-.2-2.15-.48-4.78-.87-8.56,2-10.14s5.75.66,9.55,3.44l1.14.83c-.18-.61-.37-1.2-.53-1.7-1.36-4.28-2.34-7.38-.33-9.41s5.51-1.66,10-1.2c1.29.13,3.13.32,4.08.29a3,3,0,0,1,4.9,2.86c-.74,3.72-5,3.28-9.58,2.82-1.22-.13-3-.31-4.27-.32.25,1,.64,2.21.94,3.15,1.48,4.67,2.76,8.7-.21,10.73-2.73,1.86-5.79-.38-9.66-3.21-.64-.46-1.47-1.07-2.25-1.61.06,1,.17,2.06.25,2.87.47,4.64.85,8.31-2,9.75-3.13,1.57-6.37-1.26-10.12-4.54L270,149.62c-.15,1-.26,2.26-.35,3.15-.41,4.47-.81,8.69-4.35,9.19s-5.28-3.53-7.07-7.82c-.36-.87-.87-2.07-1.33-3-.66.82-1.41,1.86-1.94,2.61-2.76,3.84-5.13,7.15-8.45,6.12-3.14-1-3.41-4.76-3.76-9.55,0-.73-.12-1.69-.21-2.58-.6.65-1.22,1.36-1.69,1.91-3,3.5-5.46,6.27-8.48,5.38s-3.61-4.53-4.34-9.14c-.1-.65-.23-1.48-.38-2.28-.46.67-.91,1.37-1.27,1.92-2.55,3.93-4.54,7-7.71,6.6s-4.24-4-5.62-8.46c-.2-.65-.46-1.49-.72-2.28-.39.75-.78,1.55-1.08,2.17-2,4.17-3.63,7.48-6.76,7.48h-.09c-3.22-.07-4.69-3.49-6.56-7.83-.29-.67-.66-1.53-1-2.34-.36.85-.71,1.78-1,2.48-1.62,4.21-3,7.85-6.21,8.14s-5.24-3-7.65-6.76c-.39-.62-.91-1.42-1.41-2.16-.17.88-.32,1.82-.44,2.55-.71,4.35-1.33,8.11-4.27,9.13s-5.61-1.37-9-4.39c-.46-.41-1.05-.92-1.63-1.41.12.7.26,1.4.37,2,.83,4.33,1.55,8.08-.78,10.12-2.55,2.22-6,.23-10.1-2.06-.74-.43-1.75-1-2.64-1.46.09,1,.25,2.2.36,3.07.63,4.64,1.17,8.65-1.92,10.13s-5.94-1.54-9.13-5.09c-.62-.7-1.48-1.66-2.23-2.41-.37,1-.77,2.23-1,3.12C136.74,170.12,135.44,174.2,132,174.2Zm170.69-44Z" fill="#5b616a"/><path d="M9.15,85.83S-6.2,47.56,2.86,21.05c0,0,.08-13.55,18.51-18.71,0,0,1.06-1.51,4.5-2A25.75,25.75,0,0,1,30.37,0S39.69-.17,41,15,37.89,37.77,29.7,39c-6.42,1-6.34-.64-6.34-.64s-4.71,2-4.79,4.12,13.85,32.6,13.85,32.6l1.1,2.83s10.38,31.82,11.9,33.36,6.32-.21,6.32-.21-1.17-1.15,4.23-4.77c6.87-4.62,15.26-1.91,24.59,10.08s2.34,18.17,2.34,18.17a25.42,25.42,0,0,1-3.56,2.78c-2.84,2-4.64,1.6-4.64,1.6-17.05,8.69-26.29-1.22-26.29-1.22C23.79,124.37,9.15,85.83,9.15,85.83Z"/></g></g></svg>