<svg xmlns="http://www.w3.org/2000/svg" xmlns:xlink="http://www.w3.org/1999/xlink" viewBox="0 0 96.17 96"><defs><linearGradient id="linear-gradient" x1="86.97" y1="10.64" x2="8.67" y2="89.72" gradientTransform="matrix(1, 0, 0, -1, 0, 98)" gradientUnits="userSpaceOnUse"><stop offset="0" stop-color="#00bfe7"/><stop offset="0.71" stop-color="#99d7f4"/></linearGradient><linearGradient id="linear-gradient-2" x1="91.39" y1="2.24" x2="58.51" y2="37.69" gradientTransform="matrix(1, 0, 0, -1, 0, 98)" gradientUnits="userSpaceOnUse"><stop offset="0" stop-color="#0071bb" stop-opacity="0"/><stop offset="1" stop-color="#0071bb" stop-opacity="0.5"/></linearGradient></defs><title>check-email</title><g id="Layer_2" data-name="Layer 2"><g id="Layer_1-2" data-name="Layer 1"><g id="Layer_2-2" data-name="Layer 2"><g id="Layer_1-2-2" data-name="Layer 1-2"><rect width="96" height="96" rx="8" ry="8" fill="url(#linear-gradient)"/><path d="M18.09,69.66,41,96H88a8,8,0,0,0,8-8l.17-41.65-19.28-20Z" fill="url(#linear-gradient-2)"/><circle cx="87" cy="87" r="3" fill="#112e51"/><circle cx="9" cy="87" r="3" fill="#112e51"/><circle cx="87" cy="9" r="3" fill="#112e51"/><circle cx="9" cy="9" r="3" fill="#112e51"/><rect x="18.09" y="26.34" width="59.82" height="43.33" rx="3" ry="3" fill="#fff"/><polygon points="19.51 34.29 19.45 40.34 37.01 52.78 38.08 50.55 19.51 34.29" fill="#99d7f4" opacity="0.45" style="isolation:isolate"/><polygon points="76.42 33.87 76.48 39.92 58.92 52.36 57.85 50.13 76.42 33.87" fill="#99d7f4" opacity="0.45" style="isolation:isolate"/><path d="M74.91,24.84H21.09a4.5,4.5,0,0,0-4.5,4.5V66.66a4.5,4.5,0,0,0,4.5,4.5H74.91a4.5,4.5,0,0,0,4.5-4.5V29.34A4.5,4.5,0,0,0,74.91,24.84Zm1.5,41.83a1.48,1.48,0,0,1-.09.48L57.44,50.55l19-16.67ZM21.09,27.84H74.91a1.5,1.5,0,0,1,1.5,1.5v1.88L51.81,52.84a6.27,6.27,0,0,1-8.15,0L19.59,31.68V29.34A1.5,1.5,0,0,1,21.09,27.84ZM19.6,66.75V34.35L38,50.55ZM21,68.16,39.54,51.88l2.79,2.46a8.3,8.3,0,0,0,10.79,0l2.79-2.46L74.45,68.16Z" fill="#112e51"/></g></g></g></g></svg>