<?xml version="1.0" encoding="UTF-8" standalone="no"?>
<svg width="26px" height="26px" viewBox="0 0 26 26" version="1.1" xmlns="http://www.w3.org/2000/svg" xmlns:xlink="http://www.w3.org/1999/xlink">
    <!-- Generator: Sketch 3.8.3 (29802) - http://www.bohemiancoding.com/sketch -->
    <title>login-graphics_Check Mark</title>
    <desc>Created with Sketch.</desc>
    <defs></defs>
    <g id="Page-1" stroke="none" stroke-width="1" fill="none" fill-rule="evenodd">
        <g id="login-graphics_Check-Mark">
            <g id="Layer_1">
                <path d="M13,25.28 C6.09644063,25.28 0.5,19.6835594 0.5,12.78 C0.5,5.87644063 6.09644063,0.28 13,0.28 C19.9035594,0.28 25.5,5.87644063 25.5,12.78 C25.4944856,19.6812739 19.9012739,25.2744856 13,25.28 L13,25.28 Z M13,1.28 C6.64872538,1.28 1.5,6.42872538 1.5,12.78 C1.5,19.1312746 6.64872538,24.28 13,24.28 C19.3512746,24.28 24.5,19.1312746 24.5,12.78 C24.4944863,6.43101062 19.3489894,1.28551367 13,1.28 L13,1.28 Z" id="Shape" fill="#0071BC"></path>
                <path d="M11.29,18 C11.137864,17.9992986 10.9943237,17.9293687 10.9,17.81 L7.4,13.44 C7.25623867,13.2237253 7.30198138,12.9333951 7.50527752,12.7718008 C7.70857366,12.6102064 8.00173817,12.6311488 8.18,12.82 L11.29,16.71 L18.43,7.78 C18.6039697,7.56460895 18.9196089,7.5310303 19.135,7.705 C19.3503911,7.8789697 19.3839697,8.19460895 19.21,8.41 L11.68,17.83 C11.5817947,17.9419062 11.4388268,18.0042255 11.29,18 L11.29,18 Z" id="Shape" fill="#E31C3D"></path>
            </g>
        </g>
    </g>
</svg>