<?xml version="1.0" encoding="UTF-8" standalone="no"?>
<svg width="30px" height="30px" viewBox="0 0 30 30" version="1.1" xmlns="http://www.w3.org/2000/svg" xmlns:xlink="http://www.w3.org/1999/xlink">
    <!-- Generator: Sketch 39.1 (31720) - http://www.bohemiancoding.com/sketch -->
    <title>circle-5</title>
    <desc>Created with Sketch.</desc>
    <defs></defs>
    <g id="Page-1" stroke="none" stroke-width="1" fill="none" fill-rule="evenodd">
        <g id="circle-5">
            <circle id="Oval" fill="#0071BC" cx="15" cy="15" r="15"></circle>
            <path d="M11.86,17.7 C12.2079116,18.012535 12.5903918,18.2842973 13,18.51 C13.4163495,18.7389174 13.884907,18.8560568 14.36,18.85 C14.873694,18.8757359 15.3789706,18.7120548 15.78,18.39 C16.159681,18.0324905 16.3518049,17.5189287 16.3,17 C16.3341288,16.5051302 16.1516842,16.0198274 15.8,15.67 C15.4349557,15.3536086 14.962618,15.1890061 14.48,15.21 C14.3301571,15.2002916 14.1798429,15.2002916 14.03,15.21 C13.8966028,15.2283053 13.7657468,15.2618581 13.64,15.31 L13.24,15.49 L12.78,15.76 L11.58,15 L11.91,9.16 L18.46,9.16 L18.46,11.42 L14.2,11.42 L14,13.66 C14.2022531,13.5686069 14.4133617,13.4982374 14.63,13.45 C14.8472994,13.4069951 15.0685079,13.3868853 15.29,13.39 C15.76871,13.3878679 16.2446938,13.4621348 16.7,13.61 C17.1295828,13.7509751 17.5271618,13.9752505 17.87,14.27 C18.2186083,14.5734376 18.492395,14.9533167 18.67,15.38 C19.076534,16.4492527 19.0586449,17.6335144 18.62,18.69 C18.4005932,19.1698667 18.0839043,19.598929 17.69,19.95 C17.2934154,20.300742 16.8311476,20.5692652 16.33,20.74 C15.8126379,20.9210784 15.2681307,21.0123933 14.72,21.01 C13.8958915,21.0352136 13.0763822,20.878141 12.32,20.55 C11.7002954,20.26307 11.1352101,19.8705557 10.65,19.39 L11.86,17.7 Z" id="Shape" fill="#FFFFFF"></path>
        </g>
    </g>
</svg>