<?xml version="1.0" encoding="UTF-8" standalone="no"?>
<svg width="30px" height="30px" viewBox="0 0 30 30" version="1.1" xmlns="http://www.w3.org/2000/svg" xmlns:xlink="http://www.w3.org/1999/xlink">
    <!-- Generator: Sketch 39.1 (31720) - http://www.bohemiancoding.com/sketch -->
    <title>circle-2</title>
    <desc>Created with Sketch.</desc>
    <defs></defs>
    <g id="Page-1" stroke="none" stroke-width="1" fill="none" fill-rule="evenodd">
        <g id="circle-2">
            <circle id="Oval" fill="#0071BC" cx="15" cy="15" r="15"></circle>
            <path d="M10.91,18.86 C11.65,18.1933333 12.3166667,17.5466667 12.91,16.92 C13.5033333,16.2933333 14.03,15.73 14.49,15.23 C14.8700087,14.7734328 15.2049054,14.2811347 15.49,13.76 C15.7207503,13.3647008 15.8480127,12.9175625 15.86,12.46 C15.8930039,11.9852724 15.7345441,11.5170959 15.42,11.16 C15.100171,10.8493544 14.6652272,10.6862505 14.22,10.71 C13.8154847,10.7020339 13.419192,10.8247794 13.09,11.06 C12.7530318,11.3048801 12.4414727,11.5829383 12.16,11.89 L10.7,10.45 C11.2023524,9.89839941 11.7939459,9.43526626 12.45,9.08 C13.112391,8.7567817 13.8432583,8.59894181 14.58,8.62 C15.1114686,8.61129092 15.640084,8.6993935 16.14,8.88 C16.5895941,9.0462319 17.0011078,9.30130234 17.35,9.63 C17.6910611,9.9555134 17.9572166,10.3513344 18.13,10.79 C18.3165719,11.2712014 18.4082575,11.7839615 18.4,12.3 C18.3942103,12.8088332 18.2888979,13.3116152 18.09,13.78 C17.8676717,14.3113464 17.5894389,14.8175289 17.26,15.29 C16.8974828,15.8166728 16.5034294,16.3209275 16.08,16.8 C15.64,17.3066667 15.1833333,17.8 14.71,18.28 L15.71,18.18 L16.71,18.18 L19,18.18 L19,20.44 L10.91,20.44 L10.91,18.86 Z" id="Shape" fill="#FFFFFF"></path>
        </g>
    </g>
</svg>