<?xml version="1.0" encoding="UTF-8" standalone="no"?>
<svg width="30px" height="30px" viewBox="0 0 30 30" version="1.1" xmlns="http://www.w3.org/2000/svg" xmlns:xlink="http://www.w3.org/1999/xlink">
    <!-- Generator: Sketch 39.1 (31720) - http://www.bohemiancoding.com/sketch -->
    <title>circle-3</title>
    <desc>Created with Sketch.</desc>
    <defs></defs>
    <g id="Page-1" stroke="none" stroke-width="1" fill="none" fill-rule="evenodd">
        <g id="circle-3">
            <circle id="Oval" fill="#0071BC" cx="15" cy="15" r="15"></circle>
            <path d="M11.87,17.27 C12.2143538,17.6042146 12.6050274,17.8871161 13.03,18.11 C13.4528776,18.3301959 13.9232407,18.4434951 14.4,18.44 C14.8828924,18.4644221 15.3614937,18.3386583 15.77,18.08 C16.1007045,17.8565927 16.2933424,17.4788712 16.28,17.08 C16.281994,16.8427505 16.2343048,16.6077106 16.14,16.39 C16.0380684,16.1709015 15.870257,15.9891058 15.66,15.87 C15.3641582,15.7073278 15.0429796,15.5957605 14.71,15.54 C14.1982698,15.4512408 13.6792939,15.411062 13.16,15.42 L13.16,13.53 C13.5959258,13.5370244 14.0314524,13.5001721 14.46,13.42 C14.7574012,13.3662744 15.0422336,13.2577668 15.3,13.1 C15.4955174,12.9821271 15.6546981,12.812565 15.76,12.61 C15.8517742,12.4197219 15.8996194,12.2112537 15.9,12 C15.9222075,11.6492541 15.7908185,11.3061828 15.54,11.06 C15.243357,10.8148992 14.8638644,10.6931751 14.48,10.72 C14.0897578,10.713084 13.7042239,10.8060252 13.36,10.99 C13.0014631,11.2045012 12.6663115,11.4558649 12.36,11.74 L11,10.08 C11.4948589,9.64207656 12.0506508,9.27828551 12.65,9 C13.2808868,8.72776245 13.9630512,8.59474039 14.65,8.61 C15.2003936,8.60490363 15.748871,8.67556635 16.28,8.82 C16.7369055,8.94120915 17.1651897,9.1519522 17.54,9.44 C17.8812455,9.70870674 18.1580124,10.0503943 18.35,10.44 C18.5503202,10.8613299 18.6496168,11.3235725 18.64,11.79 C18.6575881,12.3458726 18.4807685,12.8904769 18.14,13.33 C17.752554,13.7755605 17.2614616,14.1189818 16.71,14.33 L16.71,14.4 C17.3419804,14.5741317 17.9131979,14.9203241 18.36,15.4 C18.8046601,15.9066722 19.0342522,16.5667495 19,17.24 C19.0078311,17.7387868 18.8873074,18.2312121 18.65,18.67 C18.4215826,19.0873268 18.1040633,19.4492305 17.72,19.73 C17.3057355,20.0289146 16.8419509,20.2523437 16.35,20.39 C15.8103726,20.544995 15.2514403,20.6224374 14.69,20.62 C13.8671311,20.6420092 13.0490028,20.4886101 12.29,20.17 C11.6595122,19.908141 11.0957036,19.5083495 10.64,19 L11.87,17.27 Z" id="Shape" fill="#FFFFFF"></path>
        </g>
    </g>
</svg>