<svg xmlns="http://www.w3.org/2000/svg" viewBox="0 0 96.2 96"><linearGradient id="a" gradientUnits="userSpaceOnUse" x1="86.971" y1="757.359" x2="8.671" y2="678.279" gradientTransform="translate(0 -670)"><stop offset="0" stop-color="#00bfe7"/><stop offset=".71" stop-color="#99d7f4"/></linearGradient><path fill="url(#a)" d="M8 0h80c4.4 0 8 3.6 8 8v80c0 4.4-3.6 8-8 8H8c-4.4 0-8-3.6-8-8V8c0-4.4 3.6-8 8-8z"/><linearGradient id="b" gradientUnits="userSpaceOnUse" x1="91.165" y1="765.963" x2="62.515" y2="735.083" gradientTransform="translate(0 -670)"><stop offset="0" stop-color="#0071bb" stop-opacity="0"/><stop offset="1" stop-color="#0071bb" stop-opacity=".5"/></linearGradient><path fill="url(#b)" d="M25.8 74.6 48 96h40c4.4 0 8-3.6 8-8l.2-35.7-21.6-21.5-48.8 43.8z"/><circle fill="#112E51" cx="87" cy="87" r="3"/><circle fill="#112E51" cx="9" cy="87" r="3"/><circle fill="#112E51" cx="87" cy="9" r="3"/><circle fill="#112E51" cx="9" cy="9" r="3"/><path fill="#0071BB" stroke="#112E51" stroke-width="2.5" stroke-linejoin="round" d="M51.6 26.1v-4.5h5v-8.2c0-.9-.7-1.6-1.6-1.6H41.6c-.9 0-2.3.7-2.3 1.6v8.2h4.8v4.5"/><path fill="#112E51" d="m71 36 3.9-4c.1-.1.2-.3.2-.5 0-.1 0-.3-.1-.4l-4.6-4.7c-.1-.1-.2-.1-.4-.1s-.3.1-.4.2l-3.9 4c1.6 2 3.4 3.8 5.3 5.5z"/><ellipse fill="#FFF" stroke="#112E51" stroke-width="3" stroke-linecap="round" stroke-linejoin="round" cx="48" cy="54.3" rx="28.3" ry="28.6"/><ellipse fill="#FFF" cx="48" cy="54.3" rx="22.9" ry="23.2"/><ellipse fill="none" stroke="#112E51" stroke-width="1.5" stroke-miterlimit="10" stroke-dasharray="1.01,3.02" cx="48" cy="54.3" rx="22.9" ry="23.2"/><ellipse fill="#D1F0FF" cx="48" cy="54.3" rx="15.5" ry="15.7"/><path fill="none" stroke="#112E51" stroke-width="2" stroke-linecap="round" stroke-linejoin="round" d="M61.8 39.9 46.5 55.6"/></svg>