<svg xmlns="http://www.w3.org/2000/svg" xmlns:xlink="http://www.w3.org/1999/xlink" viewBox="0 0 96.17 96.02"><defs><style>.cls-1{fill:url(#linear-gradient);}.cls-2{fill:url(#New_Gradient_Swatch_2);}.cls-3{fill:#112e51;}.cls-4{fill:#0071bb;stroke-width:2.5px;}.cls-4,.cls-5,.cls-7,.cls-9{stroke:#112e51;}.cls-4,.cls-5,.cls-9{stroke-linejoin:round;}.cls-5,.cls-6{fill:#fff;}.cls-5,.cls-9{stroke-linecap:round;}.cls-5{stroke-width:3px;}.cls-7,.cls-9{fill:none;}.cls-7{stroke-miterlimit:10;stroke-width:1.5px;stroke-dasharray:1.01 3.02;}.cls-8{fill:#d1f0ff;}.cls-9{stroke-width:2px;}</style><linearGradient id="linear-gradient" x1="86.97" y1="87.36" x2="8.67" y2="8.28" gradientUnits="userSpaceOnUse"><stop offset="0" stop-color="#00bfe7"/><stop offset="0.71" stop-color="#99d7f4"/></linearGradient><linearGradient id="New_Gradient_Swatch_2" x1="91.16" y1="95.99" x2="62.51" y2="65.11" gradientUnits="userSpaceOnUse"><stop offset="0" stop-color="#0071bb" stop-opacity="0"/><stop offset="1" stop-color="#0071bb" stop-opacity="0.5"/></linearGradient></defs><title>timeout</title><g id="Layer_2" data-name="Layer 2"><g id="Layer_1-2" data-name="Layer 1"><rect class="cls-1" width="96" height="96" rx="8" ry="8"/><path class="cls-2" d="M25.83,74.6,48,96H88a8,8,0,0,0,8-8l.17-35.65L74.59,30.77Z"/><circle class="cls-3" cx="87" cy="87" r="3"/><circle class="cls-3" cx="9" cy="87" r="3"/><circle class="cls-3" cx="87" cy="9" r="3"/><circle class="cls-3" cx="9" cy="9" r="3"/><path class="cls-4" d="M51.6,26.08V21.56h5V13.32A1.56,1.56,0,0,0,55,11.77H41.61c-.86,0-2.32.7-2.32,1.56v8.23h4.8v4.52"/><path class="cls-3" d="M71,36l3.94-4a.87.87,0,0,0,.25-.46.45.45,0,0,0-.1-.4l-4.6-4.66a.44.44,0,0,0-.39-.11.85.85,0,0,0-.45.25l-3.94,4A50.8,50.8,0,0,0,71,36Z"/><ellipse class="cls-5" cx="47.97" cy="54.34" rx="28.26" ry="28.64"/><ellipse class="cls-6" cx="47.97" cy="54.34" rx="22.93" ry="23.24"/><ellipse class="cls-7" cx="47.97" cy="54.34" rx="22.93" ry="23.24"/><ellipse class="cls-8" cx="47.97" cy="54.34" rx="15.5" ry="15.71"/><line class="cls-9" x1="61.77" y1="39.91" x2="46.55" y2="55.56"/></g></g></svg>