<svg xmlns="http://www.w3.org/2000/svg" width="100" height="115" fill="none" viewBox="0 0 100 115"><circle cx="50" cy="50" r="48.5" fill="#F2F9FF" stroke="#A8B6C6" stroke-width="3"/><mask id="a" width="100" height="100" x="0" y="0" maskUnits="userSpaceOnUse" style="mask-type:alpha"><circle cx="50" cy="50" r="50" fill="#D9D9D9"/></mask><g mask="url(#a)"><path fill="#B62025" d="M86.966 31.425 51.433 6.474a2.58 2.58 0 0 0-2.982 0L12.92 31.425a4.47 4.47 0 0 0-1.904 3.665v1.166h77.87V35.09a4.49 4.49 0 0 0-1.92-3.665"/><g filter="url(#b)"><path fill="#B62025" d="M88.87 35.758H11.015V88.66H88.87z"/></g><g filter="url(#c)"><path fill="#fff" d="M83.076 23.778H16.2v64.88h66.876z"/></g><path fill="#E11D3F" stroke="#AB142F" stroke-width="2" d="M87.87 87.661H12v-49.95l30.706 22.167a12.32 12.32 0 0 0 7.229 2.332 12.34 12.34 0 0 0 6.829-2.056l.4-.276L87.87 37.712z"/><path fill="#E11D3F" stroke="#AB142F" stroke-width="2" d="M49.943 59.9c.327 0 .646.101.913.29l.002.002 35.533 24.955.003.002a3.48 3.48 0 0 1 1.472 2.512H12.031a3.47 3.47 0 0 1 1.462-2.514h.001l35.532-24.955.002-.002c.268-.19.587-.29.915-.29Z"/></g><circle cx="50" cy="50" r="48.5" stroke="#A8B6C6" stroke-width="3"/><path fill="#0E581E" stroke="#A8B6C6" stroke-width="2" d="M46.879 82.308A16 16 0 0 1 66 98v.001A16.02 16.02 0 0 1 50.001 114H50a16 16 0 0 1-3.121-31.692Z"/><path fill="#18852E" d="M50.002 83v30.003A15 15 0 0 1 35 98.002 15 15 0 0 1 50.002 83"/><path fill="#fff" d="m57.925 93.628-1.877-1.877-11.265 11.265 1.877 1.877z"/><path fill="#fff" d="m42.639 97.115-1.878 1.878 5.9 5.898 1.877-1.877z"/><defs><filter id="b" width="85.855" height="60.903" x="7.015" y="30.758" color-interpolation-filters="sRGB" filterUnits="userSpaceOnUse"><feFlood flood-opacity="0" result="BackgroundImageFix"/><feColorMatrix in="SourceAlpha" result="hardAlpha" values="0 0 0 0 0 0 0 0 0 0 0 0 0 0 0 0 0 0 127 0"/><feOffset dy="-1"/><feGaussianBlur stdDeviation="2"/><feColorMatrix values="0 0 0 0 0 0 0 0 0 0 0 0 0 0 0 0 0 0 0.25 0"/><feBlend in2="BackgroundImageFix" result="effect1_dropShadow_2193_663"/><feBlend in="SourceGraphic" in2="effect1_dropShadow_2193_663" result="shape"/></filter><filter id="c" width="82.876" height="80.879" x="8.2" y="15.778" color-interpolation-filters="sRGB" filterUnits="userSpaceOnUse"><feFlood flood-opacity="0" result="BackgroundImageFix"/><feColorMatrix in="SourceAlpha" result="hardAlpha" values="0 0 0 0 0 0 0 0 0 0 0 0 0 0 0 0 0 0 127 0"/><feOffset/><feGaussianBlur stdDeviation="4"/><feColorMatrix values="0 0 0 0 0 0 0 0 0 0 0 0 0 0 0 0 0 0 0.25 0"/><feBlend in2="BackgroundImageFix" result="effect1_dropShadow_2193_663"/><feBlend in="SourceGraphic" in2="effect1_dropShadow_2193_663" result="shape"/></filter></defs></svg>