<svg xmlns="http://www.w3.org/2000/svg" width="140" height="140" fill="none" viewBox="0 0 140 140"><g clip-path="url(#a)"><g filter="url(#b)"><path fill="#fff" d="M70.004 136.547c36.753 0 66.547-29.794 66.547-66.547S106.757 3.453 70.004 3.453 3.457 33.247 3.457 70s29.794 66.547 66.547 66.547Z"/></g><path fill="#006276" d="M70.004 16.097a53.903 53.903 0 1 0 0 107.805 53.903 53.903 0 0 0 0-107.805Zm0 102.414a48.51 48.51 0 0 1-44.825-29.947 48.515 48.515 0 1 1 44.825 29.947Z"/><path fill="#07819A" d="M70.004 11.343a1.57 1.57 0 1 0 0-3.141 1.57 1.57 0 0 0 0 3.141Zm-15.587 2.054a1.57 1.57 0 1 0 0-3.141 1.57 1.57 0 0 0 0 3.14ZM39.89 19.413a1.57 1.57 0 1 0 0-3.141 1.57 1.57 0 0 0 0 3.14Zm-12.473 9.571a1.57 1.57 0 1 0 0-3.141 1.57 1.57 0 0 0 0 3.14Zm-9.571 12.473a1.57 1.57 0 1 0 0-3.14 1.57 1.57 0 0 0 0 3.14ZM11.83 55.983a1.57 1.57 0 1 0 0-3.141 1.57 1.57 0 0 0 0 3.14ZM9.777 71.57a1.57 1.57 0 1 0 0-3.14 1.57 1.57 0 0 0 0 3.14Zm2.053 15.588a1.57 1.57 0 1 0 0-3.141 1.57 1.57 0 0 0 0 3.14Zm6.016 14.526a1.57 1.57 0 1 0 0-3.141 1.57 1.57 0 0 0 0 3.141Zm9.571 12.473a1.57 1.57 0 1 0 0-3.141 1.57 1.57 0 0 0 0 3.141Zm12.473 9.567a1.57 1.57 0 1 0 0-3.14 1.57 1.57 0 0 0 0 3.14Zm14.527 6.021a1.571 1.571 0 1 0-.002-3.142 1.571 1.571 0 0 0 .002 3.142Zm15.587 2.048a1.57 1.57 0 1 0 0-3.14 1.57 1.57 0 0 0 0 3.14Zm15.587-2.048a1.571 1.571 0 1 0-.001-3.142 1.571 1.571 0 0 0 .001 3.142Zm14.526-6.021a1.57 1.57 0 1 0 .001-3.14 1.57 1.57 0 0 0-.001 3.14Zm12.473-9.567a1.57 1.57 0 1 0 0-3.141 1.57 1.57 0 0 0 0 3.141Zm9.572-12.473a1.57 1.57 0 1 0 0-3.14 1.57 1.57 0 0 0 0 3.14Zm6.015-14.526a1.57 1.57 0 1 0 .001-3.141 1.57 1.57 0 0 0-.001 3.14Zm2.05-15.588a1.571 1.571 0 1 0 0-3.142 1.571 1.571 0 0 0 0 3.143Zm-2.05-15.587a1.57 1.57 0 1 0 .001-3.141 1.57 1.57 0 0 0-.001 3.14Zm-6.015-14.526a1.57 1.57 0 1 0 0-3.14 1.57 1.57 0 0 0 0 3.14Zm-9.572-12.473a1.57 1.57 0 1 0 .001-3.141 1.57 1.57 0 0 0-.001 3.14Zm-12.473-9.571a1.57 1.57 0 1 0 .001-3.141 1.57 1.57 0 0 0-.001 3.14Zm-14.526-6.016a1.57 1.57 0 1 0 0-3.141 1.57 1.57 0 0 0 0 3.14Z"/><path fill="#B62025" d="M108.152 38.681 71.54 12.971a2.662 2.662 0 0 0-3.073 0l-36.612 25.71a4.61 4.61 0 0 0-1.962 3.777v1.201h80.237v-1.201a4.62 4.62 0 0 0-1.978-3.776Z"/><g filter="url(#c)"><path fill="#B62025" d="M110.115 43.145H29.893v54.512h80.222V43.146Z"/></g><g filter="url(#d)"><path fill="#fff" d="M104.144 30.802H35.236v66.851h68.908V30.802Z"/></g><path fill="#E11D3F" d="M110.115 97.657H29.878V43.146L63.15 67.162a11.666 11.666 0 0 0 6.845 2.21 11.686 11.686 0 0 0 6.845-2.21l33.274-24.017v54.511Z"/><g filter="url(#e)"><path fill="#E11D3F" d="M108.152 93.193 71.54 67.48a2.662 2.662 0 0 0-3.073 0L31.855 93.193a4.61 4.61 0 0 0-1.962 3.776v.689h80.237v-.689a4.62 4.62 0 0 0-1.978-3.776Z"/></g><path fill="#006276" d="M133.425 90.204a66.42 66.42 0 0 1-13.556 23.877H20.154A66.415 66.415 0 0 1 6.598 90.219l126.827-.015Z"/><path fill="#fff" d="M131.881 94.527a66.442 66.442 0 0 1-8.495 15.211H16.622a66.434 66.434 0 0 1-8.496-15.21h123.755Z"/><path fill="#006276" d="M70.004 126.953a24.743 24.743 0 1 1 24.744-24.744 24.772 24.772 0 0 1-24.744 24.744Z"/><path fill="#07819A" d="M70.004 80.724v42.97A21.487 21.487 0 0 1 54.81 87.016a21.485 21.485 0 0 1 15.193-6.292Z"/><path fill="#fff" d="m82.293 95.487-2.69-2.69-16.133 16.134 2.69 2.689 16.133-16.133Z"/><path fill="#fff" d="m60.4 100.48-2.69 2.689 8.45 8.448 2.688-2.688-8.448-8.449Z"/></g><defs><filter id="b" width="145.094" height="145.095" x="-2.543" y="-2.547" color-interpolation-filters="sRGB" filterUnits="userSpaceOnUse"><feFlood flood-opacity="0" result="BackgroundImageFix"/><feColorMatrix in="SourceAlpha" result="hardAlpha" values="0 0 0 0 0 0 0 0 0 0 0 0 0 0 0 0 0 0 127 0"/><feOffset/><feGaussianBlur stdDeviation="3"/><feColorMatrix values="0 0 0 0 0.00392157 0 0 0 0 0.00392157 0 0 0 0 0.00392157 0 0 0 0.24 0"/><feBlend in2="BackgroundImageFix" result="effect1_dropShadow_227_11042"/><feBlend in="SourceGraphic" in2="effect1_dropShadow_227_11042" result="shape"/></filter><filter id="c" width="88.222" height="62.512" x="25.893" y="38.145" color-interpolation-filters="sRGB" filterUnits="userSpaceOnUse"><feFlood flood-opacity="0" result="BackgroundImageFix"/><feColorMatrix in="SourceAlpha" result="hardAlpha" values="0 0 0 0 0 0 0 0 0 0 0 0 0 0 0 0 0 0 127 0"/><feOffset dy="-1"/><feGaussianBlur stdDeviation="2"/><feColorMatrix values="0 0 0 0 0 0 0 0 0 0 0 0 0 0 0 0 0 0 0.25 0"/><feBlend in2="BackgroundImageFix" result="effect1_dropShadow_227_11042"/><feBlend in="SourceGraphic" in2="effect1_dropShadow_227_11042" result="shape"/></filter><filter id="d" width="84.909" height="82.852" x="27.236" y="22.802" color-interpolation-filters="sRGB" filterUnits="userSpaceOnUse"><feFlood flood-opacity="0" result="BackgroundImageFix"/><feColorMatrix in="SourceAlpha" result="hardAlpha" values="0 0 0 0 0 0 0 0 0 0 0 0 0 0 0 0 0 0 127 0"/><feOffset/><feGaussianBlur stdDeviation="4"/><feColorMatrix values="0 0 0 0 0 0 0 0 0 0 0 0 0 0 0 0 0 0 0.25 0"/><feBlend in2="BackgroundImageFix" result="effect1_dropShadow_227_11042"/><feBlend in="SourceGraphic" in2="effect1_dropShadow_227_11042" result="shape"/></filter><filter id="e" width="88.237" height="38.666" x="25.893" y="61.991" color-interpolation-filters="sRGB" filterUnits="userSpaceOnUse"><feFlood flood-opacity="0" result="BackgroundImageFix"/><feColorMatrix in="SourceAlpha" result="hardAlpha" values="0 0 0 0 0 0 0 0 0 0 0 0 0 0 0 0 0 0 127 0"/><feOffset dy="-1"/><feGaussianBlur stdDeviation="2"/><feColorMatrix values="0 0 0 0 0 0 0 0 0 0 0 0 0 0 0 0 0 0 0.25 0"/><feBlend in2="BackgroundImageFix" result="effect1_dropShadow_227_11042"/><feBlend in="SourceGraphic" in2="effect1_dropShadow_227_11042" result="shape"/></filter><clipPath id="a"><path fill="#fff" d="M0 0h140v140H0z"/></clipPath></defs></svg>