<svg xmlns="http://www.w3.org/2000/svg" viewBox="0 0 138.33 138.33"><title>come-back</title><g id="Layer_2" data-name="Layer 2"><g id="Layer_1-2" data-name="Layer 1"><circle cx="69.16" cy="69.16" r="68.91" fill="#112e51"/><path d="M68.16,134.58a1,1,0,0,1,1-1h.18a1,1,0,0,1,1,1h0a1,1,0,0,1-1,1h-.19A1,1,0,0,1,68.16,134.58ZM57,134.45h0a1,1,0,0,1-.8-1.16h0a1,1,0,0,1,1.16-.8h0a1,1,0,0,1,.8,1.16h0a1,1,0,0,1-1,.82h0Zm23.4-.83a1,1,0,0,1,.8-1.17h0a1,1,0,0,1,1.17.8h0a1,1,0,0,1-.8,1.17h-.19A1,1,0,0,1,80.37,133.62ZM45.18,131.1a1,1,0,0,1-.57-1.3h0a1,1,0,0,1,1.29-.57h0a1,1,0,0,1,.58,1.3h0a1,1,0,0,1-.94.63h0A1.13,1.13,0,0,1,45.18,131.1ZM92,130.47a1,1,0,0,1,.57-1.3h0a1,1,0,0,1,1.3.56h0a1,1,0,0,1-.57,1.3h0a.94.94,0,0,1-.37.07h0A1,1,0,0,1,92,130.47Zm-57.79-4.85a1,1,0,0,1-.32-1.38h0a1,1,0,0,1,1.38-.32h0a1,1,0,0,1,.32,1.38h0a1,1,0,0,1-.85.47h0A1,1,0,0,1,34.22,125.62Zm68.65-.41a1,1,0,0,1,.32-1.38h0a1,1,0,0,1,1.38.32h0a1,1,0,0,1-.32,1.38h0a1,1,0,0,1-.53.15h0A1,1,0,0,1,102.87,125.21Zm-78.42-7a1,1,0,0,1-.06-1.41h0a1,1,0,0,1,1.41-.07h0a1,1,0,0,1,.07,1.42h0a1,1,0,0,1-.74.32h0A1,1,0,0,1,24.45,118.23Zm88.14-.18a1,1,0,0,1,.06-1.41h0a1,1,0,0,1,1.41.06h0a1,1,0,0,1-.06,1.41h0a1,1,0,0,1-.67.26h0A1,1,0,0,1,112.59,118.05ZM16.2,109.19h0a1,1,0,0,1,.19-1.39h0a1,1,0,0,1,1.4.19h0a1,1,0,0,1-.19,1.4h0a1,1,0,0,1-.61.2h0A1,1,0,0,1,16.2,109.19Zm104.64.05a1,1,0,0,1-.2-1.4h0a1,1,0,0,1,1.4-.2h0a1,1,0,0,1,.2,1.4h0a1,1,0,0,1-.8.4h0A1,1,0,0,1,120.84,109.24ZM9.73,98.78a1,1,0,0,1,.44-1.34h0a1,1,0,0,1,1.35.45h0a1,1,0,0,1-.45,1.34h0a1.06,1.06,0,0,1-.45.11h0A1,1,0,0,1,9.73,98.78Zm117.6.29a1,1,0,0,1-.45-1.34h0a1,1,0,0,1,1.35-.45h0a1,1,0,0,1,.45,1.34h0a1,1,0,0,1-.9.56h0A1.07,1.07,0,0,1,127.33,99.07ZM5.28,87.37A1,1,0,0,1,6,86.13H6a1,1,0,0,1,1.24.69h0a1,1,0,0,1-.69,1.24h0a1.22,1.22,0,0,1-.27,0h0A1,1,0,0,1,5.28,87.37Zm126.58.51a1,1,0,0,1-.7-1.23h0A1,1,0,0,1,132.4,86h0a1,1,0,0,1,.69,1.23h0a1,1,0,0,1-1,.73h0A.74.74,0,0,1,131.86,87.88ZM3,75.33a1,1,0,0,1,.9-1.09h0a1,1,0,0,1,1.09.9H5a1,1,0,0,1-.9,1.09H4A1,1,0,0,1,3,75.33Zm131.19.72a1,1,0,0,1-.9-1.08h0a1,1,0,0,1,1.08-.91h0a1,1,0,0,1,.91,1.08h0a1,1,0,0,1-1,.92h-.09ZM3.93,64.17A1,1,0,0,1,3,63.08H3a1,1,0,0,1,1.08-.9h0A1,1,0,0,1,5,63.26H5a1,1,0,0,1-1,.91H3.93Zm129.36-1.08a1,1,0,0,1,.9-1.09h0a1,1,0,0,1,1.09.9h0a1,1,0,0,1-.9,1.09h-.1A1,1,0,0,1,133.29,63.09ZM6,52.28A1,1,0,0,1,5.26,51h0a1,1,0,0,1,1.23-.69h0a1,1,0,0,1,.69,1.24h0a1,1,0,0,1-1,.72h0Zm125.14-.87h0a1,1,0,0,1,.68-1.24h0a1,1,0,0,1,1.24.69h0a1,1,0,0,1-.68,1.23h0a.94.94,0,0,1-.28,0h0A1,1,0,0,1,131.09,51.41ZM10.14,41a1,1,0,0,1-.45-1.34h0A1,1,0,0,1,11,39.17h0a1,1,0,0,1,.45,1.34h0a1,1,0,0,1-.9.55h0A1,1,0,0,1,10.14,41Zm116.62-.61h0a1,1,0,0,1,.44-1.34h0a1,1,0,0,1,1.34.45h0a1,1,0,0,1-.44,1.34h0a1,1,0,0,1-.45.1h0A1,1,0,0,1,126.76,40.35ZM16.34,30.61a1,1,0,0,1-.2-1.4h0a1,1,0,0,1,1.4-.2h0a1,1,0,0,1,.2,1.4h0a1,1,0,0,1-.8.4h0A1,1,0,0,1,16.34,30.61Zm104.14-.34a1,1,0,0,1,.19-1.4h0a1,1,0,0,1,1.4.19h0a1,1,0,0,1-.19,1.41h0a1,1,0,0,1-.61.2h0A1,1,0,0,1,120.48,30.27ZM24.33,21.56a1,1,0,0,1,.06-1.41h0a1,1,0,0,1,1.41.06h0a1,1,0,0,1-.06,1.42h0a1,1,0,0,1-.68.26h0A1,1,0,0,1,24.33,21.56Zm88.12,0a1,1,0,0,1-.06-1.41h0A1,1,0,0,1,113.8,20h0a1,1,0,0,1,.06,1.41h0a1,1,0,0,1-.73.33h0A1,1,0,0,1,112.45,21.51ZM33.83,14.12a1,1,0,0,1,.32-1.37h0a1,1,0,0,1,1.37.32h0a1,1,0,0,1-.31,1.37h0a.91.91,0,0,1-.52.16h0A1,1,0,0,1,33.83,14.12Zm69.14.23a1,1,0,0,1-.33-1.38h0a1,1,0,0,1,1.38-.32h0a1,1,0,0,1,.33,1.38h0a1,1,0,0,1-.86.47h0A1,1,0,0,1,103,14.35ZM44.53,8.55a1,1,0,0,1,.57-1.29h0a1,1,0,0,1,1.29.57h0a1,1,0,0,1-.57,1.29h0a.92.92,0,0,1-.36.07h0A1,1,0,0,1,44.53,8.55Zm47.8.51a1,1,0,0,1-.57-1.29h0a1,1,0,0,1,1.29-.58h0a1,1,0,0,1,.58,1.3h0a1,1,0,0,1-.94.64h0A1.14,1.14,0,0,1,92.33,9.06Zm-36.26-4a1,1,0,0,1,.8-1.17h0a1,1,0,0,1,1.17.8h0a1,1,0,0,1-.8,1.16h0a.54.54,0,0,1-.18,0h0A1,1,0,0,1,56.07,5.06Zm24.83.76a1,1,0,0,1-.8-1.16h0a1,1,0,0,1,1.16-.81h0A1,1,0,0,1,82.07,5h0a1,1,0,0,1-1,.82h0ZM68.07,3.75a1,1,0,0,1,1-1h0a1,1,0,0,1,1,1h0a1,1,0,0,1-1,1h0A1,1,0,0,1,68.07,3.75Z" fill="#44d067"/><path d="M69.16,138.33a69.16,69.16,0,1,1,69.16-69.16A69.24,69.24,0,0,1,69.16,138.33ZM69.16.5a68.66,68.66,0,1,0,68.66,68.66A68.74,68.74,0,0,0,69.16.5Z" fill="#44d067"/><circle cx="69.16" cy="69.16" r="61.99" fill="#dcf8e1" stroke="#44d067" stroke-miterlimit="10" stroke-width="0.5"/><polygon points="68.5 73.96 58.48 130.18 62.98 130.8 68.5 73.96" fill="#a7efb5"/><polygon points="69.82 64.36 79.84 8.15 75.34 7.53 69.82 64.36" fill="#a7efb5"/><polygon points="67.86 73.83 50.28 128.16 54.65 129.38 67.86 73.83" fill="#a7efb5"/><polygon points="70.47 64.5 88.05 10.17 83.68 8.94 70.47 64.5" fill="#a7efb5"/><polygon points="67.23 73.61 42.42 125.04 46.58 126.84 67.23 73.61" fill="#a7efb5"/><polygon points="71.09 64.72 95.91 13.29 91.74 11.48 71.09 64.72" fill="#a7efb5"/><polygon points="66.64 73.3 35.06 120.88 38.94 123.23 66.64 73.3" fill="#a7efb5"/><polygon points="71.68 65.02 103.27 17.45 99.39 15.09 71.68 65.02" fill="#a7efb5"/><polygon points="66.11 72.92 28.34 115.75 31.86 118.61 66.11 72.92" fill="#a7efb5"/><polygon points="72.22 65.41 109.99 22.58 106.47 19.71 72.22 65.41" fill="#a7efb5"/><polygon points="65.62 72.47 22.37 109.76 25.47 113.07 65.62 72.47" fill="#a7efb5"/><polygon points="72.7 65.86 115.95 28.57 112.86 25.25 72.7 65.86" fill="#a7efb5"/><polygon points="65.2 71.96 17.28 103.01 19.9 106.72 65.2 71.96" fill="#a7efb5"/><polygon points="73.12 66.37 121.04 35.32 118.43 31.61 73.12 66.37" fill="#a7efb5"/><polygon points="64.86 71.39 13.16 95.63 15.24 99.66 64.86 71.39" fill="#a7efb5"/><polygon points="73.46 66.93 125.17 42.7 123.08 38.67 73.46 66.93" fill="#a7efb5"/><polygon points="64.6 70.79 10.07 87.75 11.59 92.03 64.6 70.79" fill="#a7efb5"/><polygon points="73.73 67.54 128.25 50.57 126.73 46.3 73.73 67.54" fill="#a7efb5"/><polygon points="64.42 70.15 8.09 79.54 9.02 83.98 64.42 70.15" fill="#a7efb5"/><polygon points="73.91 68.18 130.23 58.79 129.31 54.35 73.91 68.18" fill="#a7efb5"/><polygon points="64.33 69.49 7.25 71.12 7.56 75.65 64.33 69.49" fill="#a7efb5"/><polygon points="74 68.83 131.08 67.2 130.77 62.67 74 68.83" fill="#a7efb5"/><polygon points="64.33 68.83 7.56 62.67 7.25 67.2 64.33 68.83" fill="#a7efb5"/><polygon points="74 69.49 130.77 75.65 131.08 71.12 74 69.49" fill="#a7efb5"/><polygon points="64.42 68.18 9.02 54.35 8.09 58.79 64.42 68.18" fill="#a7efb5"/><polygon points="73.91 70.15 129.31 83.98 130.23 79.54 73.91 70.15" fill="#a7efb5"/><polygon points="64.6 67.54 11.59 46.3 10.07 50.57 64.6 67.54" fill="#a7efb5"/><polygon points="73.73 70.79 126.73 92.03 128.25 87.75 73.73 70.79" fill="#a7efb5"/><polygon points="64.86 66.93 15.24 38.67 13.16 42.7 64.86 66.93" fill="#a7efb5"/><polygon points="73.46 71.39 123.08 99.66 125.17 95.63 73.46 71.39" fill="#a7efb5"/><polygon points="65.2 66.37 19.9 31.61 17.28 35.32 65.2 66.37" fill="#a7efb5"/><polygon points="73.12 71.96 118.43 106.72 121.04 103.01 73.12 71.96" fill="#a7efb5"/><polygon points="65.62 65.86 25.47 25.25 22.37 28.57 65.62 65.86" fill="#a7efb5"/><polygon points="72.7 72.47 112.86 113.07 115.95 109.76 72.7 72.47" fill="#a7efb5"/><polygon points="66.11 65.41 31.86 19.71 28.34 22.58 66.11 65.41" fill="#a7efb5"/><polygon points="72.22 72.92 106.47 118.61 109.99 115.75 72.22 72.92" fill="#a7efb5"/><polygon points="66.64 65.02 38.94 15.09 35.06 17.45 66.64 65.02" fill="#a7efb5"/><polygon points="71.68 73.3 99.39 123.23 103.27 120.88 71.68 73.3" fill="#a7efb5"/><polygon points="67.23 64.72 46.58 11.48 42.42 13.29 67.23 64.72" fill="#a7efb5"/><polygon points="71.09 73.61 91.74 126.84 95.91 125.04 71.09 73.61" fill="#a7efb5"/><polygon points="67.86 64.5 54.65 8.94 50.28 10.17 67.86 64.5" fill="#a7efb5"/><polygon points="70.47 73.83 83.68 129.38 88.05 128.16 70.47 73.83" fill="#a7efb5"/><polygon points="68.5 64.36 62.98 7.53 58.48 8.15 68.5 64.36" fill="#a7efb5"/><polygon points="69.82 73.96 75.34 130.8 79.84 130.18 69.82 73.96" fill="#a7efb5"/><polygon points="69.16 64.32 71.43 7.26 66.89 7.26 69.16 64.32" fill="#a7efb5"/><polygon points="69.16 74.01 66.89 131.07 71.43 131.07 69.16 74.01" fill="#a7efb5"/><path d="M40.88,106.28a8.64,8.64,0,0,1-8.83-9V41A8.58,8.58,0,0,1,40.88,32H97c5.3,0,9.3,3.83,9.3,8.92V97.24a9.08,9.08,0,0,1-9.3,9Z" fill="#fff"/><path d="M97,34.05c4,0,7.3,2.87,7.3,6.91V97.24a7.07,7.07,0,0,1-7.3,7H40.88a6.68,6.68,0,0,1-6.83-7V41a6.58,6.58,0,0,1,6.83-6.91H97m0-4H40.88A10.52,10.52,0,0,0,30,41V97.24a10.7,10.7,0,0,0,10.83,11H97a11.05,11.05,0,0,0,11.3-11V41A11,11,0,0,0,97,30.05Z" fill="#112e51"/><path d="M97,34H40.88A6.58,6.58,0,0,0,34,41V55.74h70.23V41C104.28,36.92,101,34,97,34Z" fill="#e21c3d"/><line x1="34.05" y1="55.8" x2="104.28" y2="55.8" fill="none" stroke="#112e51" stroke-miterlimit="10" stroke-width="2"/><line x1="34.05" y1="67.99" x2="104.28" y2="67.99" fill="none" stroke="#112e51" stroke-miterlimit="10" stroke-width="2"/><line x1="34.05" y1="80.19" x2="104.28" y2="80.19" fill="none" stroke="#112e51" stroke-miterlimit="10" stroke-width="2"/><line x1="34.05" y1="92.39" x2="104.28" y2="92.39" fill="none" stroke="#112e51" stroke-miterlimit="10" stroke-width="2"/><line x1="60.79" y1="55.65" x2="60.79" y2="104.28" fill="none" stroke="#112e51" stroke-width="2"/><line x1="75.42" y1="55.65" x2="75.42" y2="104.28" fill="none" stroke="#112e51" stroke-width="2"/><line x1="90.06" y1="55.65" x2="90.06" y2="104.28" fill="none" stroke="#112e51" stroke-width="2"/><line x1="46.15" y1="55.65" x2="46.15" y2="104.28" fill="none" stroke="#112e51" stroke-width="2"/><circle cx="55.86" cy="43.41" r="2.54" fill="#fff" stroke="#112e51" stroke-linecap="round" stroke-linejoin="round" stroke-width="2"/><circle cx="82.47" cy="43.41" r="2.54" fill="#fff" stroke="#112e51" stroke-linecap="round" stroke-linejoin="round" stroke-width="2"/><path d="M82.47,95A14.11,14.11,0,1,1,96.58,80.94,14.12,14.12,0,0,1,82.47,95Z" fill="#fff"/><path d="M82.47,68.83A12.11,12.11,0,1,1,70.36,80.94,12.11,12.11,0,0,1,82.47,68.83m0-4A16.11,16.11,0,1,0,98.58,80.94,16.13,16.13,0,0,0,82.47,64.83Z" fill="#112e51"/><circle cx="82.47" cy="80.94" r="11.97" fill="#42cf5e"/><path d="M80.56,87.39a1.73,1.73,0,0,1-1.35-.65L75.9,82.61a1.74,1.74,0,0,1,2.71-2.17l2,2.45,5.77-7.22A1.74,1.74,0,0,1,89,77.83l-7.13,8.91A1.73,1.73,0,0,1,80.56,87.39Z" fill="#fff"/></g></g></svg>