<svg width="140" height="140" viewBox="0 0 140 140" fill="none" xmlns="http://www.w3.org/2000/svg">
<g clip-path="url(#clip0_227_11042)">
<g filter="url(#filter0_d_227_11042)">
<path d="M70.0038 136.547C106.757 136.547 136.551 106.753 136.551 70.0003C136.551 33.2473 106.757 3.45312 70.0038 3.45312C33.2508 3.45312 3.45667 33.2473 3.45667 70.0003C3.45667 106.753 33.2508 136.547 70.0038 136.547Z" fill="white"/>
</g>
<path d="M70.0038 16.0967C59.3428 16.0967 48.9211 19.258 40.0568 25.181C31.1925 31.104 24.2836 39.5225 20.2037 49.372C16.1239 59.2215 15.0565 70.0597 17.1363 80.5159C19.2162 90.9721 24.35 100.577 31.8885 108.115C39.427 115.654 49.0316 120.787 59.4878 122.867C69.944 124.947 80.7821 123.88 90.6317 119.8C100.481 115.72 108.9 108.811 114.823 99.9469C120.746 91.0826 123.907 80.6609 123.907 69.9999C123.907 55.7039 118.228 41.9934 108.119 31.8846C98.0103 21.7757 84.2998 16.0967 70.0038 16.0967ZM70.0038 118.511C60.4082 118.512 51.0278 115.667 43.049 110.336C35.0702 105.006 28.8514 97.4287 25.1789 88.5636C21.5065 79.6986 20.5454 69.9435 22.4172 60.5322C24.2891 51.1209 28.9097 42.4761 35.6949 35.6909C42.48 28.9058 51.1249 24.2851 60.5362 22.4133C69.9475 20.5415 79.7025 21.5025 88.5676 25.175C97.4326 28.8474 105.01 35.0663 110.34 43.0451C115.671 51.0239 118.516 60.4042 118.515 69.9999C118.515 82.8658 113.404 95.2047 104.306 104.302C95.2087 113.4 82.8697 118.511 70.0038 118.511Z" fill="#006276"/>
<path d="M70.0039 11.3432C70.8712 11.3432 71.5744 10.64 71.5744 9.77266C71.5744 8.90529 70.8712 8.20215 70.0039 8.20215C69.1365 8.20215 68.4333 8.90529 68.4333 9.77266C68.4333 10.64 69.1365 11.3432 70.0039 11.3432Z" fill="#07819A"/>
<path d="M54.4166 13.3969C55.284 13.3969 55.9871 12.6937 55.9871 11.8264C55.9871 10.959 55.284 10.2559 54.4166 10.2559C53.5492 10.2559 52.8461 10.959 52.8461 11.8264C52.8461 12.6937 53.5492 13.3969 54.4166 13.3969Z" fill="#07819A"/>
<path d="M39.8902 19.4125C40.7576 19.4125 41.4607 18.7094 41.4607 17.842C41.4607 16.9746 40.7576 16.2715 39.8902 16.2715C39.0228 16.2715 38.3197 16.9746 38.3197 17.842C38.3197 18.7094 39.0228 19.4125 39.8902 19.4125Z" fill="#07819A"/>
<path d="M27.4174 28.9838C28.2848 28.9838 28.988 28.2807 28.988 27.4133C28.988 26.5459 28.2848 25.8428 27.4174 25.8428C26.5501 25.8428 25.8469 26.5459 25.8469 27.4133C25.8469 28.2807 26.5501 28.9838 27.4174 28.9838Z" fill="#07819A"/>
<path d="M17.846 41.4574C18.7134 41.4574 19.4165 40.7543 19.4165 39.8869C19.4165 39.0195 18.7134 38.3164 17.846 38.3164C16.9787 38.3164 16.2755 39.0195 16.2755 39.8869C16.2755 40.7543 16.9787 41.4574 17.846 41.4574Z" fill="#07819A"/>
<path d="M11.8302 55.9828C12.6975 55.9828 13.4007 55.2797 13.4007 54.4123C13.4007 53.5449 12.6975 52.8418 11.8302 52.8418C10.9628 52.8418 10.2596 53.5449 10.2596 54.4123C10.2596 55.2797 10.9628 55.9828 11.8302 55.9828Z" fill="#07819A"/>
<path d="M9.77669 71.5707C10.6441 71.5707 11.3472 70.8676 11.3472 70.0002C11.3472 69.1328 10.6441 68.4297 9.77669 68.4297C8.90932 68.4297 8.20618 69.1328 8.20618 70.0002C8.20618 70.8676 8.90932 71.5707 9.77669 71.5707Z" fill="#07819A"/>
<path d="M11.8302 87.1576C12.6975 87.1576 13.4007 86.4545 13.4007 85.5871C13.4007 84.7197 12.6975 84.0166 11.8302 84.0166C10.9628 84.0166 10.2596 84.7197 10.2596 85.5871C10.2596 86.4545 10.9628 87.1576 11.8302 87.1576Z" fill="#07819A"/>
<path d="M17.846 101.684C18.7134 101.684 19.4165 100.981 19.4165 100.113C19.4165 99.2461 18.7134 98.543 17.846 98.543C16.9787 98.543 16.2755 99.2461 16.2755 100.113C16.2755 100.981 16.9787 101.684 17.846 101.684Z" fill="#07819A"/>
<path d="M27.4174 114.157C28.2848 114.157 28.988 113.454 28.988 112.586C28.988 111.719 28.2848 111.016 27.4174 111.016C26.5501 111.016 25.8469 111.719 25.8469 112.586C25.8469 113.454 26.5501 114.157 27.4174 114.157Z" fill="#07819A"/>
<path d="M39.8902 123.724C40.7576 123.724 41.4607 123.021 41.4607 122.154C41.4607 121.286 40.7576 120.583 39.8902 120.583C39.0228 120.583 38.3197 121.286 38.3197 122.154C38.3197 123.021 39.0228 123.724 39.8902 123.724Z" fill="#07819A"/>
<path d="M54.4166 129.745C55.284 129.745 55.9871 129.041 55.9871 128.174C55.9871 127.307 55.284 126.604 54.4166 126.604C53.5492 126.604 52.8461 127.307 52.8461 128.174C52.8461 129.041 53.5492 129.745 54.4166 129.745Z" fill="#07819A"/>
<path d="M70.0039 131.793C70.8712 131.793 71.5744 131.09 71.5744 130.223C71.5744 129.355 70.8712 128.652 70.0039 128.652C69.1365 128.652 68.4333 129.355 68.4333 130.223C68.4333 131.09 69.1365 131.793 70.0039 131.793Z" fill="#07819A"/>
<path d="M85.591 129.745C86.4584 129.745 87.1615 129.041 87.1615 128.174C87.1615 127.307 86.4584 126.604 85.591 126.604C84.7237 126.604 84.0205 127.307 84.0205 128.174C84.0205 129.041 84.7237 129.745 85.591 129.745Z" fill="#07819A"/>
<path d="M100.117 123.724C100.985 123.724 101.688 123.021 101.688 122.154C101.688 121.286 100.985 120.583 100.117 120.583C99.25 120.583 98.5469 121.286 98.5469 122.154C98.5469 123.021 99.25 123.724 100.117 123.724Z" fill="#07819A"/>
<path d="M112.59 114.157C113.458 114.157 114.161 113.454 114.161 112.586C114.161 111.719 113.458 111.016 112.59 111.016C111.723 111.016 111.02 111.719 111.02 112.586C111.02 113.454 111.723 114.157 112.59 114.157Z" fill="#07819A"/>
<path d="M122.162 101.684C123.029 101.684 123.732 100.981 123.732 100.113C123.732 99.2461 123.029 98.543 122.162 98.543C121.294 98.543 120.591 99.2461 120.591 100.113C120.591 100.981 121.294 101.684 122.162 101.684Z" fill="#07819A"/>
<path d="M128.177 87.1576C129.045 87.1576 129.748 86.4545 129.748 85.5871C129.748 84.7197 129.045 84.0166 128.177 84.0166C127.31 84.0166 126.607 84.7197 126.607 85.5871C126.607 86.4545 127.31 87.1576 128.177 87.1576Z" fill="#07819A"/>
<path d="M130.227 71.5707C131.094 71.5707 131.798 70.8676 131.798 70.0002C131.798 69.1328 131.094 68.4297 130.227 68.4297C129.36 68.4297 128.656 69.1328 128.656 70.0002C128.656 70.8676 129.36 71.5707 130.227 71.5707Z" fill="#07819A"/>
<path d="M128.177 55.9828C129.045 55.9828 129.748 55.2797 129.748 54.4123C129.748 53.5449 129.045 52.8418 128.177 52.8418C127.31 52.8418 126.607 53.5449 126.607 54.4123C126.607 55.2797 127.31 55.9828 128.177 55.9828Z" fill="#07819A"/>
<path d="M122.162 41.4574C123.029 41.4574 123.732 40.7543 123.732 39.8869C123.732 39.0195 123.029 38.3164 122.162 38.3164C121.294 38.3164 120.591 39.0195 120.591 39.8869C120.591 40.7543 121.294 41.4574 122.162 41.4574Z" fill="#07819A"/>
<path d="M112.59 28.9838C113.458 28.9838 114.161 28.2807 114.161 27.4133C114.161 26.5459 113.458 25.8428 112.59 25.8428C111.723 25.8428 111.02 26.5459 111.02 27.4133C111.02 28.2807 111.723 28.9838 112.59 28.9838Z" fill="#07819A"/>
<path d="M100.117 19.4125C100.985 19.4125 101.688 18.7094 101.688 17.842C101.688 16.9746 100.985 16.2715 100.117 16.2715C99.25 16.2715 98.5469 16.9746 98.5469 17.842C98.5469 18.7094 99.25 19.4125 100.117 19.4125Z" fill="#07819A"/>
<path d="M85.591 13.3969C86.4584 13.3969 87.1615 12.6937 87.1615 11.8264C87.1615 10.959 86.4584 10.2559 85.591 10.2559C84.7237 10.2559 84.0205 10.959 84.0205 11.8264C84.0205 12.6937 84.7237 13.3969 85.591 13.3969Z" fill="#07819A"/>
<path d="M108.152 38.6815L71.5401 12.9715C71.0907 12.6539 70.554 12.4834 70.0038 12.4834C69.4535 12.4834 68.9168 12.6539 68.4675 12.9715L31.8551 38.6815C31.2487 39.1069 30.7537 39.6722 30.4121 40.3295C30.0706 40.9868 29.8925 41.7168 29.8929 42.4576V43.6592H110.13V42.4576C110.128 41.7156 109.947 40.9851 109.603 40.3279C109.258 39.6706 108.761 39.1059 108.152 38.6815Z" fill="#B62025"/>
<g filter="url(#filter1_d_227_11042)">
<path d="M110.115 43.1455H29.8929V97.6571H110.115V43.1455Z" fill="#B62025"/>
</g>
<g filter="url(#filter2_d_227_11042)">
<path d="M104.144 30.8018H35.2357V97.6531H104.144V30.8018Z" fill="white"/>
</g>
<path d="M110.115 97.6571H29.8778V43.1455L63.1514 67.1633C65.1434 68.6023 67.5389 69.3755 69.9962 69.3727C72.4534 69.3742 74.8485 68.6011 76.8411 67.1633L110.115 43.1455V97.6571Z" fill="#E11D3F"/>
<g filter="url(#filter3_d_227_11042)">
<path d="M108.152 93.1931L71.5401 67.4793C71.0907 67.1617 70.554 66.9912 70.0038 66.9912C69.4535 66.9912 68.9168 67.1617 68.4675 67.4793L31.8551 93.1931C31.2487 93.6185 30.7537 94.1838 30.4121 94.8411C30.0706 95.4984 29.8925 96.2284 29.8929 96.9692V97.6575H110.13V96.9692C110.128 96.2272 109.947 95.4968 109.603 94.8395C109.258 94.1822 108.761 93.6175 108.152 93.1931Z" fill="#E11D3F"/>
</g>
<path d="M133.425 90.2041C130.619 99.0205 126.001 107.153 119.869 114.081H20.1543C14.0235 107.158 9.40613 99.0303 6.59766 90.2193L133.425 90.2041Z" fill="#006276"/>
<path d="M131.881 94.5273C129.729 99.9485 126.873 105.063 123.386 109.738H16.6216C13.1345 105.063 10.2782 99.9485 8.12634 94.5273H131.881Z" fill="white"/>
<path d="M70.0038 126.953C65.1099 126.953 60.3258 125.502 56.2567 122.783C52.1875 120.064 49.016 116.2 47.1432 111.678C45.2704 107.157 44.7803 102.182 45.7351 97.3816C46.6899 92.5818 49.0465 88.1728 52.507 84.7122C55.9676 81.2517 60.3766 78.8951 65.1764 77.9403C69.9763 76.9855 74.9516 77.4756 79.473 79.3484C83.9944 81.2212 87.8589 84.3927 90.5778 88.4619C93.2967 92.531 94.7479 97.3151 94.7479 102.209C94.7409 108.769 92.1316 115.059 87.4927 119.698C82.8539 124.337 76.5642 126.946 70.0038 126.953Z" fill="#006276"/>
<path d="M70.0038 80.7236V123.694C64.3055 123.694 58.8407 121.43 54.8114 117.401C50.7822 113.372 48.5186 107.907 48.5186 102.209C48.5186 96.5106 50.7822 91.0458 54.8114 87.0165C58.8407 82.9872 64.3055 80.7236 70.0038 80.7236Z" fill="#07819A"/>
<path d="M82.2928 95.4868L79.6039 92.7979L63.4704 108.931L66.1593 111.62L82.2928 95.4868Z" fill="white"/>
<path d="M60.3998 100.48L57.7109 103.169L66.1595 111.617L68.8484 108.929L60.3998 100.48Z" fill="white"/>
</g>
<defs>
<filter id="filter0_d_227_11042" x="-2.54333" y="-2.54688" width="145.094" height="145.095" filterUnits="userSpaceOnUse" color-interpolation-filters="sRGB">
<feFlood flood-opacity="0" result="BackgroundImageFix"/>
<feColorMatrix in="SourceAlpha" type="matrix" values="0 0 0 0 0 0 0 0 0 0 0 0 0 0 0 0 0 0 127 0" result="hardAlpha"/>
<feOffset/>
<feGaussianBlur stdDeviation="3"/>
<feColorMatrix type="matrix" values="0 0 0 0 0.00392157 0 0 0 0 0.00392157 0 0 0 0 0.00392157 0 0 0 0.24 0"/>
<feBlend mode="normal" in2="BackgroundImageFix" result="effect1_dropShadow_227_11042"/>
<feBlend mode="normal" in="SourceGraphic" in2="effect1_dropShadow_227_11042" result="shape"/>
</filter>
<filter id="filter1_d_227_11042" x="25.8929" y="38.1455" width="88.2217" height="62.5117" filterUnits="userSpaceOnUse" color-interpolation-filters="sRGB">
<feFlood flood-opacity="0" result="BackgroundImageFix"/>
<feColorMatrix in="SourceAlpha" type="matrix" values="0 0 0 0 0 0 0 0 0 0 0 0 0 0 0 0 0 0 127 0" result="hardAlpha"/>
<feOffset dy="-1"/>
<feGaussianBlur stdDeviation="2"/>
<feColorMatrix type="matrix" values="0 0 0 0 0 0 0 0 0 0 0 0 0 0 0 0 0 0 0.25 0"/>
<feBlend mode="normal" in2="BackgroundImageFix" result="effect1_dropShadow_227_11042"/>
<feBlend mode="normal" in="SourceGraphic" in2="effect1_dropShadow_227_11042" result="shape"/>
</filter>
<filter id="filter2_d_227_11042" x="27.2357" y="22.8018" width="84.9086" height="82.8516" filterUnits="userSpaceOnUse" color-interpolation-filters="sRGB">
<feFlood flood-opacity="0" result="BackgroundImageFix"/>
<feColorMatrix in="SourceAlpha" type="matrix" values="0 0 0 0 0 0 0 0 0 0 0 0 0 0 0 0 0 0 127 0" result="hardAlpha"/>
<feOffset/>
<feGaussianBlur stdDeviation="4"/>
<feColorMatrix type="matrix" values="0 0 0 0 0 0 0 0 0 0 0 0 0 0 0 0 0 0 0.25 0"/>
<feBlend mode="normal" in2="BackgroundImageFix" result="effect1_dropShadow_227_11042"/>
<feBlend mode="normal" in="SourceGraphic" in2="effect1_dropShadow_227_11042" result="shape"/>
</filter>
<filter id="filter3_d_227_11042" x="25.8929" y="61.9912" width="88.2368" height="38.666" filterUnits="userSpaceOnUse" color-interpolation-filters="sRGB">
<feFlood flood-opacity="0" result="BackgroundImageFix"/>
<feColorMatrix in="SourceAlpha" type="matrix" values="0 0 0 0 0 0 0 0 0 0 0 0 0 0 0 0 0 0 127 0" result="hardAlpha"/>
<feOffset dy="-1"/>
<feGaussianBlur stdDeviation="2"/>
<feColorMatrix type="matrix" values="0 0 0 0 0 0 0 0 0 0 0 0 0 0 0 0 0 0 0.25 0"/>
<feBlend mode="normal" in2="BackgroundImageFix" result="effect1_dropShadow_227_11042"/>
<feBlend mode="normal" in="SourceGraphic" in2="effect1_dropShadow_227_11042" result="shape"/>
</filter>
<clipPath id="clip0_227_11042">
<rect width="140" height="140" fill="white"/>
</clipPath>
</defs>
</svg>
