<svg xmlns="http://www.w3.org/2000/svg" viewBox="0 0 104 104"><defs><linearGradient id="a" y1="52" x2="104" y2="52" gradientUnits="userSpaceOnUse"><stop offset="0" stop-color="#00bfe7"/><stop offset="1" stop-color="#87eaff"/></linearGradient><linearGradient id="b" x1="45.44" y1="69.9" x2="54.48" y2="87.26" gradientUnits="userSpaceOnUse"><stop offset="0" stop-color="#a7efb5"/><stop offset="1" stop-color="#44d067"/></linearGradient></defs><circle cx="52" cy="52" r="52" fill="url(#a)"/><circle cx="52" cy="52" r="40.31" fill="none" stroke="#fff" stroke-miterlimit="10"/><path d="M51.29 98.51a.71.71 0 01.71-.71h.13a.72.72 0 01.72.71.71.71 0 01-.71.71H52a.71.71 0 01-.71-.71zm-8-.09a.7.7 0 01-.57-.82.7.7 0 01.82-.57.71.71 0 01.57.82.71.71 0 01-.7.58h-.13zm16.71-.6a.72.72 0 01.57-.83.72.72 0 01.83.57.72.72 0 01-.57.83h-.14a.71.71 0 01-.69-.57zM34.95 96a.72.72 0 01-.41-.92.71.71 0 01.92-.41.71.71 0 01.41.92.72.72 0 01-.67.45.81.81 0 01-.25-.04zm33.29-.45a.72.72 0 01.41-.92.71.71 0 01.92.4.72.72 0 01-.41.92.67.67 0 01-.26 0 .72.72 0 01-.66-.37zm-41.08-3.41a.71.71 0 01-.23-1 .72.72 0 011-.23.72.72 0 01.23 1 .72.72 0 01-.6.33.74.74 0 01-.4-.1zm48.84-.3a.71.71 0 01.23-1 .71.71 0 011 .23.71.71 0 01-.23 1 .72.72 0 01-.38.11.72.72 0 01-.62-.34zm-55.75-5a.7.7 0 010-1 .71.71 0 011 0 .72.72 0 010 1 .73.73 0 01-.53.23.7.7 0 01-.51-.19zm62.66-.13a.7.7 0 010-1 .7.7 0 011 0 .7.7 0 010 1 .69.69 0 01-.48.18.69.69 0 01-.56-.14zm-68.53-6.3a.7.7 0 01.13-1 .71.71 0 011 .13.71.71 0 01-.14 1 .7.7 0 01-.43.14.69.69 0 01-.59-.23zm74.39 0a.7.7 0 01-.14-1 .71.71 0 011-.14.71.71 0 01.14 1 .72.72 0 01-.57.28.68.68 0 01-.46-.06zm-79-7.44a.71.71 0 01.31-1 .71.71 0 011 .32.72.72 0 01-.32 1 .75.75 0 01-.32.08.7.7 0 01-.69-.32zm83.61.21a.71.71 0 01-.32-1A.72.72 0 0194 72a.72.72 0 01.32 1 .72.72 0 01-.64.4.76.76 0 01-.33-.14zm-86.8-8.24a.72.72 0 01.49-.88.72.72 0 01.88.49H8a.72.72 0 01-.49.88h-.19a.72.72 0 01-.74-.49zm90 .36a.71.71 0 01-.5-.87.71.71 0 01.88-.49.71.71 0 01.49.87.72.72 0 01-.69.52.53.53 0 01-.19-.03zM5 56.38a.72.72 0 01.64-.77.71.71 0 01.77.64.71.71 0 01-.64.77h-.08a.72.72 0 01-.69-.64zm93.27.51a.7.7 0 01-.64-.77.71.71 0 01.77-.65.71.71 0 01.65.77.72.72 0 01-.71.65h-.06zM5.62 48.45a.72.72 0 01-.62-.78.71.71 0 01.75-.67.72.72 0 01.65.77.71.71 0 01-.71.65h-.07zm92-.77a.71.71 0 01.64-.77.7.7 0 01.77.64.71.71 0 01-.64.77h-.07a.71.71 0 01-.73-.64zM7.06 40a.72.72 0 01-.49-.88.71.71 0 01.87-.49.72.72 0 01.49.88.7.7 0 01-.68.51zm89-.62a.71.71 0 01.48-.88.71.71 0 01.88.49.71.71 0 01-.48.87.67.67 0 01-.2 0 .71.71 0 01-.74-.48zM10 31.95a.71.71 0 01-.32-1 .7.7 0 011-.32.71.71 0 01.32 1 .71.71 0 01-.64.39.69.69 0 01-.36-.07zm82.91-.43a.7.7 0 01.31-1 .71.71 0 011 .32.71.71 0 01-.31 1 .74.74 0 01-.32.07.72.72 0 01-.64-.4zm-78.5-6.92a.71.71 0 01-.14-1 .71.71 0 011-.14.71.71 0 01.14 1 .72.72 0 01-.57.28.73.73 0 01-.39-.15zm74-.24a.71.71 0 01.14-1 .71.71 0 011 .13.71.71 0 01-.13 1 .74.74 0 01-.43.14.7.7 0 01-.51-.28zm-68.28-6.2a.7.7 0 010-1 .71.71 0 011 0 .72.72 0 010 1 .72.72 0 01-.48.18.68.68 0 01-.52-.18zm62.65 0a.71.71 0 010-1 .7.7 0 011 0 .7.7 0 010 1 .68.68 0 01-.52.23.75.75 0 01-.49-.27zm-55.9-5.29a.7.7 0 01.23-1 .7.7 0 011 .23.7.7 0 01-.22 1 .65.65 0 01-.37.11.7.7 0 01-.64-.34zM76 13a.72.72 0 01-.23-1 .71.71 0 011-.23.71.71 0 01.23 1 .72.72 0 01-.61.33.69.69 0 01-.39-.1zM34.49 8.91a.71.71 0 01.4-.91.71.71 0 01.92.41.71.71 0 01-.41.92.65.65 0 01-.26 0 .7.7 0 01-.65-.42zm34 .36a.71.71 0 01-.41-.92.71.71 0 01.92-.41.72.72 0 01.41.92.73.73 0 01-.67.45.81.81 0 01-.27-.04zm-25.8-2.84a.71.71 0 01.57-.83.71.71 0 01.83.57.7.7 0 01-.57.82h-.13a.71.71 0 01-.7-.56zM60.34 7a.71.71 0 01-.57-.82.71.71 0 01.82-.58.72.72 0 01.58.83.72.72 0 01-.7.58h-.13zm-9.12-1.51a.71.71 0 01.71-.71.71.71 0 01.71.71.71.71 0 01-.71.71.71.71 0 01-.71-.71zm25.12 12.43H27.25a5.76 5.76 0 00-6 6.05v49.25a5.84 5.84 0 006 6.16h49.09a6.18 6.18 0 006.39-6.16V24a6.1 6.1 0 00-6.39-6.08z" fill="#fff"/><path d="M76.34 17.92H27.25a5.76 5.76 0 00-6 6.05V36.9h61.48V24a6.1 6.1 0 00-6.39-6.08z" fill="#e21d3e"/><path fill="none" stroke="#0071bb" stroke-miterlimit="10" stroke-width="1.5" d="M21.27 36.95h61.46M21.27 47.62h61.46M21.27 58.3h61.46M21.27 68.97h61.46"/><path fill="none" stroke="#0071bb" stroke-width="1.5" d="M44.67 36.82v42.56m12.81-42.56v42.56m12.81-42.56v42.56M31.86 36.82v42.56"/><circle cx="40.35" cy="26.11" r="2.22" fill="#fff"/><circle cx="63.65" cy="26.11" r="2.22" fill="#fff"/><path d="M98 76.16q.79-1.5 1.48-3.06h-95q.69 1.56 1.52 3.06zM15.3 88.84q1.61 1.6 3.36 3.06h66.68q1.74-1.46 3.36-3.06z" fill="#112e51"/><path d="M15.3 88.84h73.4c.78-.77 1.52-1.58 2.25-2.4h-77.9c.73.82 1.47 1.62 2.25 2.4zm-8-10.27h89.4q.7-1.18 1.34-2.4H6q.6 1.21 1.3 2.4z" fill="#0071bb"/><path d="M13.05 86.44h77.9a52.15 52.15 0 005.75-7.87H7.3a52.15 52.15 0 005.75 7.87z" fill="#87eaff"/><circle cx="52" cy="82.5" r="18.07" fill="#112e51"/><circle cx="52" cy="82.5" r="14.1" fill="url(#b)"/><path d="M49.75 90.11a2 2 0 01-1.6-.77l-3.9-4.87a2 2 0 013.19-2.56l2.3 2.88 6.8-8.5a2 2 0 013.19 2.55l-8.38 10.5a2 2 0 01-1.6.77z" fill="#fff"/></svg>