<svg id="Layer_1" data-name="Layer 1" xmlns="http://www.w3.org/2000/svg" viewBox="0 0 30.5 26.24"><defs><style>.cls-1{fill:#0071bc;}.cls-2{fill:#e31c3d;}</style></defs><title>gov v3</title><path class="cls-1" d="M29.75,0H.75a.75.75,0,0,0,0,1.5H29V16.31H21.9l-4.27-3.76a.4.4,0,0,0-.66.36l.61,3.4H.75a.75.75,0,0,0,0,1.5H17.84l1.08,6.06a.4.4,0,0,0,.67.21l1.69-1.66L23.4,26a.4.4,0,0,0,.57.13l2.17-1.43a.38.38,0,0,0,.09-.56l-2.35-3L26,20.74a.39.39,0,0,0,.19-.67l-2.57-2.26h6.14a.75.75,0,0,0,.75-.75V.75A.75.75,0,0,0,29.75,0Z"/><path class="cls-2" d="M2.78,10.67a1,1,0,0,1,.3-.76,1,1,0,0,1,.74-.3,1,1,0,0,1,.74.3,1,1,0,0,1,.3.76,1,1,0,0,1-.3.75,1,1,0,0,1-.74.3,1,1,0,0,1-.74-.3A1,1,0,0,1,2.78,10.67Z"/><path class="cls-2" d="M6,12.56a1.33,1.33,0,0,1,.83-1.15v0A1.27,1.27,0,0,1,6.42,11a1,1,0,0,1-.15-.58,1,1,0,0,1,.19-.59,1.79,1.79,0,0,1,.47-.48v0a1.94,1.94,0,0,1-.54-.59,1.65,1.65,0,0,1-.24-.89,1.86,1.86,0,0,1,.73-1.54,2.28,2.28,0,0,1,.77-.38,3.21,3.21,0,0,1,.9-.13,2.68,2.68,0,0,1,.9.14h2.12V7.13h-.92a1.12,1.12,0,0,1,.13.32,1.62,1.62,0,0,1,.05.42,1.93,1.93,0,0,1-.18.85,1.63,1.63,0,0,1-.49.6,2.12,2.12,0,0,1-.73.35,3.37,3.37,0,0,1-.9.11,2.33,2.33,0,0,1-.7-.11.58.58,0,0,0-.16.18.53.53,0,0,0,0,.24.34.34,0,0,0,.19.32,1.58,1.58,0,0,0,.68.1h.94a3.26,3.26,0,0,1,1.64.34A1.19,1.19,0,0,1,11.65,12a1.53,1.53,0,0,1-.23.82,2,2,0,0,1-.65.64,3.57,3.57,0,0,1-1,.42A5.41,5.41,0,0,1,8.41,14a5,5,0,0,1-1-.09,2.93,2.93,0,0,1-.77-.26,1.36,1.36,0,0,1-.52-.45A1.13,1.13,0,0,1,6,12.56Zm1.42-.26a.52.52,0,0,0,.35.49,2.2,2.2,0,0,0,.94.17,2,2,0,0,0,1-.2.58.58,0,0,0,.37-.5.35.35,0,0,0-.23-.36,1.84,1.84,0,0,0-.66-.09h-.6l-.49,0-.33-.05A.76.76,0,0,0,7.39,12.3ZM8.53,8.77a.76.76,0,0,0,.57-.24,1,1,0,0,0,.23-.72.94.94,0,0,0-.23-.68A.81.81,0,0,0,8,7.13a.93.93,0,0,0-.23.69A1,1,0,0,0,8,8.53.76.76,0,0,0,8.53,8.77Z"/><path class="cls-2" d="M12,8.74a3.23,3.23,0,0,1,.23-1.27,2.76,2.76,0,0,1,.63-.93A2.71,2.71,0,0,1,13.8,6a2.91,2.91,0,0,1,1.07-.2,2.87,2.87,0,0,1,1.06.2,2.74,2.74,0,0,1,.9.58,2.79,2.79,0,0,1,.63.93,3.23,3.23,0,0,1,.23,1.27A3.23,3.23,0,0,1,17.46,10a2.79,2.79,0,0,1-.63.93,2.74,2.74,0,0,1-.9.58,2.89,2.89,0,0,1-1.06.2,2.93,2.93,0,0,1-1.07-.2,2.71,2.71,0,0,1-.91-.58,2.76,2.76,0,0,1-.63-.93A3.23,3.23,0,0,1,12,8.74Zm1.77,0a2.27,2.27,0,0,0,.26,1.18,1,1,0,0,0,1.6,0,2.23,2.23,0,0,0,.27-1.18,2.23,2.23,0,0,0-.27-1.18,1,1,0,0,0-1.6,0A2.27,2.27,0,0,0,13.8,8.74Z"/><path class="cls-2" d="M18.16,5.9h1.73l.75,2.68q.12.42.23.87l.23.89h0l.22-.89q.11-.44.23-.87l.76-2.68H24l-1.9,5.68h-2Z"/></svg>