<?xml version="1.0" encoding="UTF-8" standalone="no"?>
<svg width="31px" height="28px" viewBox="0 0 31 28" version="1.1" xmlns="http://www.w3.org/2000/svg" xmlns:xlink="http://www.w3.org/1999/xlink">
    <!-- Generator: Sketch 3.8.3 (29802) - http://www.bohemiancoding.com/sketch -->
    <title>login-graphics_.gov</title>
    <desc>Created with Sketch.</desc>
    <defs></defs>
    <g id="Page-1" stroke="none" stroke-width="1" fill="none" fill-rule="evenodd">
        <g id="login-graphics_.gov">
            <g id="Layer_1">
                <path d="M30.28,17.57 L16.43,17.57 C16.1538576,17.57 15.93,17.3461424 15.93,17.07 C15.93,16.7938576 16.1538576,16.57 16.43,16.57 L29.78,16.57 L29.78,1.35 L1.28,1.35 C1.00385763,1.35 0.78,1.12614237 0.78,0.85 C0.78,0.573857625 1.00385763,0.35 1.28,0.35 L30.28,0.35 C30.5561424,0.35 30.78,0.573857625 30.78,0.85 L30.78,17.07 C30.78,17.3461424 30.5561424,17.57 30.28,17.57 L30.28,17.57 Z" id="Shape" fill="#0071BC"></path>
                <path d="M12.5,17.57 L1.28,17.57 C1.00385763,17.57 0.78,17.3461424 0.78,17.07 C0.78,16.7938576 1.00385763,16.57 1.28,16.57 L12.5,16.57 C12.7761424,16.57 13,16.7938576 13,17.07 C13,17.3461424 12.7761424,17.57 12.5,17.57 L12.5,17.57 Z" id="Shape" fill="#0071BC"></path>
                <path d="M18.59,27.39 L18.39,27.39 C18.1612247,27.3402816 17.9626067,27.1994434 17.84,27 L16.21,24.19 L15.1,25.23 C14.8689909,25.4590068 14.5295258,25.5400155 14.22,25.44 C13.913738,25.3442282 13.6862684,25.0859154 13.63,24.77 L11.82,14.62 C11.7537472,14.2585942 11.9272111,13.8955303 12.25,13.72 C12.5701586,13.5348387 12.9728468,13.5751075 13.25,13.82 L21.17,20.82 C21.4172802,21.0355363 21.5184677,21.3741253 21.43,21.69 C21.3438309,22.0079229 21.0836389,22.2486976 20.76,22.31 L19.6,22.53 L21.28,24.7 C21.4247374,24.8894826 21.4843119,25.1305506 21.4444983,25.3656408 C21.4046846,25.6007311 21.2690566,25.8087406 21.07,25.94 L19.07,27.26 C18.9258263,27.3485808 18.7591709,27.3937166 18.59,27.39 L18.59,27.39 Z M16.31,22.84 L16.38,22.84 C16.5338585,22.8583474 16.6705168,22.9469907 16.75,23.08 L18.66,26.36 L20.41,25.16 L18.32,22.46 C18.2121967,22.3226986 18.1838067,22.1391139 18.2451009,21.9756628 C18.306395,21.8122118 18.448498,21.6925619 18.62,21.66 L20.3,21.34 L12.88,14.81 L14.58,24.34 L16,23 C16.0832814,22.9090237 16.1972501,22.8520394 16.32,22.84 L16.31,22.84 Z" id="Shape" fill="#0071BC"></path>
                <path d="M4.58,11.13 C4.56868066,10.9366466 4.63914787,10.7474384 4.77418823,10.608594 C4.9092286,10.4697497 5.09640686,10.3940549 5.29,10.4 C5.58694217,10.3918616 5.85920298,10.5644677 5.97852153,10.8365044 C6.09784009,11.1085411 6.04041806,11.4257501 5.83330671,11.6386956 C5.62619535,11.851641 5.31070348,11.9178506 5.03545794,11.8061332 C4.7602124,11.6944158 4.58011151,11.4270537 4.58,11.13 L4.58,11.13 Z" id="Shape" fill="#E31C3D"></path>
                <path d="M12.23,6.11 L12.23,7.65 L12.23,10.91 C12.3501609,11.8457762 12.0499302,12.7867432 11.41,13.48 C10.818792,13.951559 10.0751817,14.1899413 9.32,14.15 C8.65381771,14.1686458 7.99464935,14.0098932 7.41,13.69 L7.67,12.91 C8.18029537,13.2049472 8.76063845,13.3569418 9.35,13.35 C9.88232303,13.4019788 10.4083042,13.2018926 10.771493,12.809256 C11.1346818,12.4166195 11.2932381,11.8766652 11.2,11.35 L11.2,10.77 L11.2,10.77 C10.801325,11.3873091 10.1039974,11.7454992 9.37,11.71 C8.67184346,11.7034925 8.00741103,11.4087638 7.53400209,10.8955885 C7.06059315,10.3824132 6.8202963,9.69641542 6.87,9 C6.79212104,8.2552386 7.02472449,7.51131383 7.51298596,6.94356793 C8.00124744,6.37582203 8.70197212,6.03448153 9.45,6 C10.1896042,5.960167 10.8861646,6.34930691 11.24,7 L11.24,7 L11.24,6.15 L12.15,6.15 L12.23,6.11 Z M11.15,8.33 C11.15517,8.17442303 11.1349034,8.01904566 11.09,7.87 C10.9013062,7.22282783 10.3040598,6.78102915 9.63,6.79 C8.63,6.79 7.92,7.62 7.92,8.92 C7.85477319,9.41584054 8.00235156,9.91613346 8.32624854,10.2971887 C8.65014553,10.678244 9.12012809,10.9044934 9.62,10.92 C10.2668959,10.9292184 10.8487367,10.5279489 11.07,9.92 C11.1259636,9.74213731 11.1529747,9.55643553 11.15,9.37 L11.15,8.37 L11.15,8.33 Z" id="Shape" fill="#E31C3D"></path>
                <path d="M19.11,8.88 C19.1730212,9.66873922 18.8969556,10.4469618 18.3509779,11.0196656 C17.8050003,11.5923694 17.0408489,11.9052836 16.25,11.88 C15.4946874,11.8928794 14.768522,11.5887447 14.2478258,11.0414435 C13.7271296,10.4941424 13.4595287,9.75373449 13.51,9 C13.4439479,8.21225925 13.7176049,7.43382746 14.2620649,6.86071168 C14.8065249,6.2875959 15.5699093,5.97440514 16.36,6 C17.1179696,5.98117817 17.8486854,6.28310588 18.3722969,6.83146996 C18.8959085,7.37983404 19.163787,8.12370696 19.11,8.88 L19.11,8.88 Z M14.56,8.94 C14.3959352,9.6578105 14.6881722,10.4028613 15.2965075,10.8177075 C15.9048428,11.2325536 16.7051572,11.2325536 17.3134925,10.8177075 C17.9218278,10.4028613 18.2140648,9.6578105 18.05,8.94 C18.2161062,8.22266718 17.9259999,7.47679462 17.3188597,7.06021517 C16.7117195,6.64363572 15.9114181,6.64134259 15.3019006,7.05443592 C14.6923832,7.46752925 14.3980073,8.21172707 14.56,8.93 L14.56,8.94 Z" id="Shape" fill="#E31C3D"></path>
                <path d="M20.75,6.11 L21.88,9.27 C22.0592658,9.74132665 22.2128249,10.2220333 22.34,10.71 L22.34,10.71 C22.47,10.25 22.64,9.78 22.83,9.27 L24,6.11 L25.09,6.11 L22.84,11.73 L21.84,11.73 L19.66,6.11 L20.78,6.11 L20.75,6.11 Z" id="Shape" fill="#E31C3D"></path>
            </g>
        </g>
    </g>
</svg>