<svg xmlns="http://www.w3.org/2000/svg" width="88" height="88" fill="none" viewBox="0 0 88 88"><circle cx="44" cy="44" r="42.5" fill="#F2F9FF" stroke="#A8B6C6" stroke-width="3"/><mask id="a" width="88" height="88" x="0" y="0" maskUnits="userSpaceOnUse" style="mask-type:alpha"><path fill="#EBF3FA" d="M87.209 43.985c0 24.082-19.522 43.604-43.604 43.604S0 68.067 0 43.985 19.522.38 43.605.38s43.604 19.523 43.604 43.605"/></mask><g fill="#9EACBC" fill-opacity=".25" mask="url(#a)"><path d="M-.001 32.92a2.603 2.603 0 0 1 2.603-2.603h20.826a2.603 2.603 0 0 1 2.603 2.603v20.826a2.603 2.603 0 0 1-2.603 2.603H2.602a2.603 2.603 0 0 1-2.603-2.603zm33.841-6.508a2.603 2.603 0 0 1-2.602-2.603v-5.206a2.603 2.603 0 0 1 2.603-2.604h20.826a2.603 2.603 0 0 1 2.603 2.604v5.206a2.603 2.603 0 0 1-2.603 2.603zm0-15.619a2.603 2.603 0 0 1-2.602-2.603V2.983A2.603 2.603 0 0 1 33.84.38h20.826a2.603 2.603 0 0 1 2.603 2.603V8.19a2.603 2.603 0 0 1-2.603 2.603zM2.602 26.412A2.603 2.603 0 0 1-.001 23.81v-5.206A2.603 2.603 0 0 1 2.602 16h20.826a2.603 2.603 0 0 1 2.603 2.604v5.206a2.603 2.603 0 0 1-2.603 2.603zm0-15.619A2.603 2.603 0 0 1-.001 8.19V2.983A2.603 2.603 0 0 1 2.602.38h20.826a2.603 2.603 0 0 1 2.603 2.603V8.19a2.603 2.603 0 0 1-2.603 2.603zM65.08 87.588a2.603 2.603 0 0 1-2.604-2.603v-5.207a2.603 2.603 0 0 1 2.603-2.603h20.826a2.603 2.603 0 0 1 2.604 2.603v5.207a2.603 2.603 0 0 1-2.604 2.603zm0-15.62a2.603 2.603 0 0 1-2.604-2.603V64.16a2.603 2.603 0 0 1 2.603-2.604h20.826a2.603 2.603 0 0 1 2.604 2.604v5.206a2.603 2.603 0 0 1-2.604 2.603zM31.238 64.16a2.603 2.603 0 0 1 2.603-2.604h20.826a2.603 2.603 0 0 1 2.603 2.603v20.826a2.603 2.603 0 0 1-2.603 2.603H33.841a2.603 2.603 0 0 1-2.603-2.603zm0-31.24a2.603 2.603 0 0 1 2.603-2.603h20.826a2.603 2.603 0 0 1 2.603 2.603v20.826a2.603 2.603 0 0 1-2.603 2.603H33.841a2.603 2.603 0 0 1-2.603-2.603zm31.238 0a2.603 2.603 0 0 1 2.603-2.603h20.826a2.603 2.603 0 0 1 2.604 2.603v20.826a2.603 2.603 0 0 1-2.604 2.603H65.08a2.603 2.603 0 0 1-2.603-2.603zM26.032 68.602v17.683c0 .72-.583 1.302-1.302 1.302H7.046c-1.16 0-1.74-1.402-.92-2.222L23.81 67.68c.82-.82 2.222-.239 2.222.92M-.001 80.54V62.858c0-.719.583-1.302 1.301-1.302h17.684c1.16 0 1.74 1.402.92 2.222L2.221 81.461c-.82.82-2.222.24-2.222-.92M88.51 7.426V25.11c0 .719-.584 1.301-1.302 1.301H69.524c-1.16 0-1.74-1.402-.92-2.222L86.287 6.506c.82-.82 2.222-.24 2.222.92M62.476 19.364V1.68c0-.719.583-1.302 1.302-1.302H81.46c1.16 0 1.74 1.402.92 2.222L64.699 20.284c-.82.82-2.222.24-2.222-.92"/></g><path fill="#F5D600" d="M56.593 37.903a11.752 11.752 0 1 1-11.751-11.766 11.765 11.765 0 0 1 11.751 11.766"/><path fill="#F5D600" stroke="#EBF3FA" stroke-width="3" d="M44.841 14.537a23.324 23.324 0 0 1 23.325 23.325c0 2.259-.201 4.187-.802 6.181-.597 1.982-1.567 3.955-3.018 6.33-2.86 4.682-7.822 11.273-16.013 22.971a4.207 4.207 0 0 1-6.985.001v-.001c-8.19-11.698-13.151-18.29-16.012-22.972-1.451-2.374-2.42-4.347-3.018-6.329-.6-1.994-.802-3.922-.802-6.18a23.325 23.325 0 0 1 23.325-23.326Z"/><path fill="#CAB000" d="M60.274 22.43a21.83 21.83 0 0 0-15.433-6.393v57.669a2.7 2.7 0 0 0 2.248-1.198c16.504-23.571 19.577-25.994 19.577-34.646 0-5.788-2.3-11.34-6.392-15.432"/><path fill="#1B1B1B" d="M44.679 58.346a3.76 3.76 0 1 0 0-7.521 3.76 3.76 0 0 0 0 7.521M40.918 24.5h7.521v22.564h-7.521z"/></svg>