<svg xmlns="http://www.w3.org/2000/svg" width="65" height="65" fill="none" viewBox="0 0 65 65"><path fill="#EBF3FA" d="M64.396 32.402c0 17.783-14.416 32.198-32.198 32.198S0 50.185 0 32.402C0 14.62 14.416.204 32.198.204S64.396 14.62 64.396 32.402"/><mask id="a" width="65" height="65" x="0" y="0" maskUnits="userSpaceOnUse" style="mask-type:alpha"><path fill="#EBF3FA" d="M64.414 32.392c0 17.788-14.42 32.207-32.207 32.207S0 50.179 0 32.392 14.42.186 32.207.186s32.207 14.419 32.207 32.206"/></mask><g fill="#9EACBC" fill-opacity=".25" mask="url(#a)"><path d="M-.001 24.22c0-1.062.86-1.923 1.923-1.923h15.382c1.062 0 1.923.86 1.923 1.923v15.382c0 1.062-.86 1.923-1.923 1.923H1.922a1.923 1.923 0 0 1-1.923-1.923zm24.996-4.807a1.923 1.923 0 0 1-1.923-1.923v-3.845c0-1.062.861-1.923 1.923-1.923h15.382c1.062 0 1.923.86 1.923 1.923v3.845c0 1.062-.86 1.923-1.923 1.923zm0-11.537a1.923 1.923 0 0 1-1.923-1.923V2.108c0-1.062.861-1.923 1.923-1.923h15.382c1.062 0 1.923.86 1.923 1.923v3.845c0 1.062-.86 1.923-1.923 1.923zM1.922 19.413A1.923 1.923 0 0 1-.001 17.49v-3.845c0-1.062.86-1.923 1.923-1.923h15.382c1.062 0 1.923.86 1.923 1.923v3.845c0 1.062-.86 1.923-1.923 1.923zm0-11.537A1.923 1.923 0 0 1-.001 5.953V2.108c0-1.062.86-1.923 1.923-1.923h15.382c1.062 0 1.923.86 1.923 1.923v3.845c0 1.062-.86 1.923-1.923 1.923zm46.146 56.722a1.923 1.923 0 0 1-1.922-1.923v-3.846c0-1.062.86-1.922 1.922-1.922h15.383c1.062 0 1.922.86 1.922 1.922v3.846c0 1.062-.86 1.923-1.922 1.923zm0-11.538a1.923 1.923 0 0 1-1.922-1.922v-3.846c0-1.062.86-1.923 1.922-1.923h15.383c1.062 0 1.922.861 1.922 1.923v3.846c0 1.062-.86 1.922-1.922 1.922zm-24.996-5.767c0-1.062.861-1.923 1.923-1.923h15.382c1.062 0 1.923.861 1.923 1.923v15.382c0 1.062-.86 1.923-1.923 1.923H24.995a1.923 1.923 0 0 1-1.923-1.923zm0-23.073c0-1.062.861-1.923 1.923-1.923h15.382c1.062 0 1.923.86 1.923 1.923v15.382c0 1.062-.86 1.923-1.923 1.923H24.995a1.923 1.923 0 0 1-1.923-1.923zm23.074 0c0-1.062.86-1.923 1.922-1.923h15.383c1.062 0 1.922.86 1.922 1.923v15.382c0 1.062-.86 1.923-1.922 1.923H48.068a1.923 1.923 0 0 1-1.922-1.923zM19.227 50.574v13.061a.96.96 0 0 1-.961.961H5.205c-.857 0-1.286-1.035-.68-1.64l13.061-13.062c.606-.606 1.641-.177 1.641.68M0 59.392V46.331c0-.531.43-.962.96-.962h13.062c.857 0 1.285 1.036.68 1.642L1.64 60.072c-.606.606-1.642.177-1.642-.68M65.374 5.39v13.06c0 .531-.43.962-.962.962H51.351c-.856 0-1.285-1.036-.68-1.641L63.733 4.709c.605-.605 1.64-.176 1.64.68m-19.227 8.818V1.145c0-.53.43-.961.961-.961H60.17c.856 0 1.285 1.035.68 1.641L47.786 14.886c-.606.606-1.641.177-1.641-.68"/></g><path fill="#A8B6C6" fill-rule="evenodd" d="M0 32.499C0 14.555 14.546 0 32.499 0s32.499 14.555 32.499 32.499h-1.894c0-16.913-13.707-30.615-30.605-30.615S1.893 15.586 1.893 32.499z" clip-rule="evenodd"/><path fill="#A8B6C6" fill-rule="evenodd" d="M32.499 64.6C14.546 64.6 0 50.045 0 32.1h1.893c0 16.913 13.708 30.615 30.606 30.615s30.605-13.702 30.605-30.614h1.894c0 17.944-14.546 32.499-32.5 32.499" clip-rule="evenodd"/><path fill="#76848C" d="M41.8 27.9a8.68 8.68 0 1 1-8.68-8.69 8.69 8.69 0 0 1 8.68 8.69"/><path fill="#76848C" d="M31.46 53.46C19.27 36.05 17 34.26 17 27.87a16.12 16.12 0 0 1 32.24 0c0 6.39-2.27 8.18-14.46 25.59a2.002 2.002 0 0 1-3.32 0m1.66-19a6.61 6.61 0 1 0-6.71-6.61 6.67 6.67 0 0 0 6.71 6.68z"/><path fill="#76848C" fill-rule="evenodd" d="M33.12 22.94a5 5 0 1 0 0 10 5 5 0 0 0 0-10m-7.44 5a7.44 7.44 0 1 1 .552 2.822 7.4 7.4 0 0 1-.552-2.862z" clip-rule="evenodd"/><path fill="url(#b)" d="m33.12 18.87.06 35.44a2 2 0 0 0 1.65-.85c9.87-14.09 13.24-18 14.16-22.3z" opacity=".25" style="mix-blend-mode:multiply"/><path fill="#fff" d="M36.18 21.53a2.9 2.9 0 0 0-3.07-2.7 2.91 2.91 0 0 0-3.06 2.7v11.52a2.91 2.91 0 0 0 3.07 2.7 2.9 2.9 0 0 0 3.06-2.7zm0 19.48a3.07 3.07 0 1 0-6.14 0 3.07 3.07 0 0 0 6.14 0"/><defs><linearGradient id="b" x1="32.34" x2="41.06" y1="36.05" y2="41.75" gradientUnits="userSpaceOnUse"><stop offset=".02" stop-color="#606060"/><stop offset="1" stop-color="#fff"/></linearGradient></defs></svg>