<svg xmlns="http://www.w3.org/2000/svg" viewBox="0 0 12 12"><path fill="#0071bc" fill-rule="evenodd" d="M12 6a6 6 0 0 0-5.95-6h-.1a6 6 0 0 0 0 12h.1A6 6 0 0 0 12 6M1.28 4.13H2.9a11 11 0 0 0-.14 1.42H.94a5 5 0 0 1 .34-1.42m9.43 0a5 5 0 0 1 .34 1.43H9.24a11 11 0 0 0-.14-1.42h1.62zm-2.4 1.43H6.46V4.14h1.69a10 10 0 0 1 .16 1.42M6.46 3.22V1a3.58 3.58 0 0 1 1.47 2.22zM5.54 1v2.22H4.07A3.57 3.57 0 0 1 5.54 1m0 3.1v1.46H3.69a10 10 0 0 1 .15-1.42zM.95 6.49h1.81a11 11 0 0 0 .14 1.37H1.28a5 5 0 0 1-.33-1.37m2.75 0h1.84v1.37H3.85a10 10 0 0 1-.16-1.37zm1.84 2.3V11a3.58 3.58 0 0 1-1.47-2.22zM6.46 11V8.78h1.47A3.58 3.58 0 0 1 6.46 11m0-3.1V6.49h1.85a10 10 0 0 1-.15 1.37zm2.78-1.41h1.81a5 5 0 0 1-.33 1.37H9.1a11 11 0 0 0 .14-1.37m1-3.27H8.89a6.7 6.7 0 0 0-.79-1.83 5.1 5.1 0 0 1 2.14 1.83M3.89 1.39a6.7 6.7 0 0 0-.79 1.83H1.76a5.1 5.1 0 0 1 2.13-1.83M1.76 8.78h1.35a6.7 6.7 0 0 0 .79 1.83 5.1 5.1 0 0 1-2.14-1.83m6.35 1.83a6.7 6.7 0 0 0 .79-1.83h1.35a5.1 5.1 0 0 1-2.14 1.83"/></svg>