<svg xmlns="http://www.w3.org/2000/svg" viewBox="0 0 12 12"><path d="M12 6a6 6 0 0 0-5.95-6h-.1a6 6 0 0 0 0 12h.1A6 6 0 0 0 12 6zM1.28 4.13H2.9a10.8 10.8 0 0 0-.14 1.42H.94a5 5 0 0 1 .34-1.42zm9.43 0a5 5 0 0 1 .34 1.43H9.24a10.8 10.8 0 0 0-.14-1.42h1.62zm-2.4 1.43H6.46V4.14h1.69a9.83 9.83 0 0 1 .16 1.42zM6.46 3.22V1a3.58 3.58 0 0 1 1.47 2.22zM5.54 1v2.22H4.07A3.57 3.57 0 0 1 5.54 1zm0 3.1v1.46H3.69a9.7 9.7 0 0 1 .15-1.42zM.95 6.49h1.81a10.92 10.92 0 0 0 .14 1.37H1.28a5.05 5.05 0 0 1-.33-1.37zm2.75 0h1.84v1.37H3.85a9.73 9.73 0 0 1-.16-1.37zm1.84 2.3V11a3.58 3.58 0 0 1-1.47-2.22zM6.46 11V8.78h1.47A3.58 3.58 0 0 1 6.46 11zm0-3.1V6.49h1.85a9.87 9.87 0 0 1-.15 1.37zm2.78-1.41h1.81a5 5 0 0 1-.33 1.37H9.1a10.92 10.92 0 0 0 .14-1.37zm1-3.27H8.89a6.66 6.66 0 0 0-.79-1.83 5.1 5.1 0 0 1 2.14 1.83zM3.89 1.39a6.66 6.66 0 0 0-.79 1.83H1.76a5.1 5.1 0 0 1 2.13-1.83zM1.76 8.78h1.35a6.68 6.68 0 0 0 .79 1.83 5.11 5.11 0 0 1-2.14-1.83zm6.35 1.83a6.68 6.68 0 0 0 .79-1.83h1.35a5.12 5.12 0 0 1-2.14 1.83z" fill="#fff" fill-rule="evenodd"/></svg>