<svg xmlns="http://www.w3.org/2000/svg" viewBox="0 0 10 8.68"><title>history</title><g id="Layer_2" data-name="Layer 2"><g id="Layer_1-2" data-name="Layer 1"><g id="Layer_2-2" data-name="Layer 2"><g id="Layer_3" data-name="Layer 3"><path d="M10,4.33A4.35,4.35,0,0,1,5.65,8.68h0a.74.74,0,0,1,0-1.48h0A2.87,2.87,0,1,0,2.86,3.61l1,.1A.36.36,0,0,1,4,4.34l-1.92,2a.36.36,0,0,1-.5-.07L.07,4a.36.36,0,0,1,.32-.57l1,.1a4.34,4.34,0,0,1,8.6.86Zm-4.22,1,1.43-.78a.37.37,0,0,0-.36-.65L6,4.38V2.53a.37.37,0,1,0-.74,0V5a.37.37,0,0,0,.55.32Z" fill="#5b616a"/></g></g></g></g></svg>