<svg xmlns="http://www.w3.org/2000/svg" viewBox="0 0 9.97 8.7"><defs><style>.cls-1{fill:#5b616a;}</style></defs><title>history</title><g id="Layer_2" data-name="Layer 2"><g id="Layer_3" data-name="Layer 3"><path class="cls-1" d="M10,4.35A4.35,4.35,0,0,1,5.62,8.7a.74.74,0,1,1,0-1.48A2.87,2.87,0,1,0,2.86,3.63l1,.1A.36.36,0,0,1,4,4.36l-1.92,2a.36.36,0,0,1-.5-.07L.07,4a.36.36,0,0,1,.32-.57l1,.1a4.34,4.34,0,0,1,8.6.86Zm-4.22,1,1.43-.78a.37.37,0,1,0-.36-.65l-.88.48V2.55a.37.37,0,0,0-.74,0V5a.37.37,0,0,0,.55.32Z"/></g></g></svg>