<svg id="Layer_1" data-name="Layer 1" xmlns="http://www.w3.org/2000/svg" viewBox="0 0 22 20"><defs><style>.cls-1{fill:#0071bb;}</style></defs><title>printer</title><path class="cls-1" d="M22,16.25a.43.43,0,0,1-.42.42h-3v2.08A1.26,1.26,0,0,1,17.35,20H4.65a1.26,1.26,0,0,1-1.27-1.25V16.67h-3A.43.43,0,0,1,0,16.25V10.83a2.54,2.54,0,0,1,2.54-2.5h.85V1.25A1.26,1.26,0,0,1,4.65,0h8.88a3.53,3.53,0,0,1,2.17.89l2,2A3.42,3.42,0,0,1,18.62,5V8.33h.85A2.54,2.54,0,0,1,22,10.83ZM16.92,10V5H14.81a1.26,1.26,0,0,1-1.27-1.25V1.67H5.08V10Zm0,8.33V15H5.08v3.33ZM19.46,10a.83.83,0,1,0,.85.83A.85.85,0,0,0,19.46,10Z"/></svg>