<svg width="13" height="12" xmlns="http://www.w3.org/2000/svg"><path d="M10 10.5a.48.48 0 00-.148-.352A.48.48 0 009.5 10a.48.48 0 00-.352.148A.48.48 0 009 10.5c0 .135.05.253.148.352A.48.48 0 009.5 11a.48.48 0 00.352-.148A.48.48 0 0010 10.5zm2 0a.48.48 0 00-.148-.352A.48.48 0 0011.5 10a.48.48 0 00-.352.148.48.48 0 00-.148.352c0 .135.05.253.148.352A.48.48 0 0011.5 11a.48.48 0 00.352-.148A.48.48 0 0012 10.5zm1-1.75v2.5a.723.723 0 01-.219.531.723.723 0 01-.531.219H.75a.723.723 0 01-.531-.219A.723.723 0 010 11.25v-2.5c0-.208.073-.385.219-.531A.723.723 0 01.75 8h3.633l1.054 1.063A1.48 1.48 0 006.5 9.5c.406 0 .76-.146 1.063-.438L8.624 8h3.625c.208 0 .385.073.531.219a.723.723 0 01.22.531zm-2.54-4.445c.09.213.053.396-.108.547l-3.5 3.5A.464.464 0 016.5 8.5a.464.464 0 01-.352-.148l-3.5-3.5c-.161-.151-.197-.334-.109-.547A.467.467 0 013 4h2V.5a.48.48 0 01.148-.352A.48.48 0 015.5 0h2a.48.48 0 01.352.148A.48.48 0 018 .5V4h2c.219 0 .372.102.46.305z" fill="#0071BB" fill-rule="evenodd"/></svg>