<?xml version="1.0" encoding="UTF-8" standalone="no"?>
<svg width="32px" height="32px" viewBox="0 0 32 32" version="1.1" xmlns="http://www.w3.org/2000/svg" xmlns:xlink="http://www.w3.org/1999/xlink">
    <!-- Generator: Sketch 39.1 (31720) - http://www.bohemiancoding.com/sketch -->
    <title>ico-email</title>
    <desc>Created with Sketch.</desc>
    <defs></defs>
    <g id="Page-1" stroke="none" stroke-width="1" fill="none" fill-rule="evenodd">
        <g id="ico-email">
            <path d="M32,15.9994483 C32,7.16303448 24.8364138,0 16,0 C7.16358621,0 0,7.16303448 0,15.9994483 C0,24.8358621 7.16358621,31.9988966 16,31.9988966 C24.8364138,31.9988966 32,24.8358621 32,15.9994483 L32,15.9994483 Z" id="Stroke-1" fill="#00BFE7"></path>
            <path d="M15.56,24.44 C14.559995,24.44 13.6033379,24.2866682 12.69,23.98 C11.7766621,23.6733318 10.9700035,23.2066698 10.27,22.58 C9.5699965,21.9533302 9.0133354,21.1700047 8.6,20.23 C8.1866646,19.2899953 7.98,18.1800064 7.98,16.9 C7.98,15.499993 8.2199976,14.2300057 8.7,13.09 C9.1800024,11.9499943 9.8299959,10.9733374 10.65,10.16 C11.4700041,9.3466626 12.4266612,8.7200022 13.52,8.28 C14.6133388,7.8399978 15.7733272,7.62 17,7.62 C18.0800054,7.62 19.0566623,7.7933316 19.93,8.14 C20.8033377,8.4866684 21.5466636,8.9766635 22.16,9.61 C22.7733364,10.2433365 23.246665,10.9966623 23.58,11.87 C23.913335,12.7433377 24.08,13.6999948 24.08,14.74 C24.08,15.6600046 23.9400014,16.4633299 23.66,17.15 C23.3799986,17.8366701 23.0200022,18.4099977 22.58,18.87 C22.1399978,19.3300023 21.6500027,19.6733322 21.11,19.9 C20.5699973,20.1266678 20.0400026,20.24 19.52,20.24 C18.9466638,20.24 18.4466688,20.106668 18.02,19.84 C17.5933312,19.573332 17.3266672,19.2000024 17.22,18.72 L17.18,18.72 C16.8999986,19.1066686 16.5333356,19.4233321 16.08,19.67 C15.6266644,19.9166679 15.1933354,20.04 14.78,20.04 C13.979996,20.04 13.3400024,19.7700027 12.86,19.23 C12.3799976,18.6899973 12.14,17.9600046 12.14,17.04 C12.14,16.4266636 12.2433323,15.8266696 12.45,15.24 C12.6566677,14.6533304 12.9399982,14.1300023 13.3,13.67 C13.6600018,13.2099977 14.0866642,12.8400014 14.58,12.56 C15.0733358,12.2799986 15.6066638,12.14 16.18,12.14 C16.513335,12.14 16.8066654,12.2166659 17.06,12.37 C17.3133346,12.5233341 17.5266658,12.7799982 17.7,13.14 L17.74,13.14 L18.02,12.3 L19.84,12.3 L18.92,16.7 C18.6399986,17.8466724 18.9466622,18.42 19.84,18.42 C20.1333348,18.42 20.4233319,18.3366675 20.71,18.17 C20.9966681,18.0033325 21.2533322,17.7633349 21.48,17.45 C21.7066678,17.1366651 21.886666,16.7566689 22.02,16.31 C22.153334,15.8633311 22.22,15.3666694 22.22,14.82 C22.22,14.0999964 22.120001,13.4133366 21.92,12.76 C21.719999,12.1066634 21.4000022,11.5300025 20.96,11.03 C20.5199978,10.5299975 19.9533368,10.1333348 19.26,9.84 C18.5666632,9.5466652 17.7333382,9.4 16.76,9.4 C15.9066624,9.4 15.0733374,9.5766649 14.26,9.93 C13.4466626,10.2833351 12.7200032,10.7833301 12.08,11.43 C11.4399968,12.0766699 10.9266686,12.8566621 10.54,13.77 C10.1533314,14.6833379 9.96,15.6999944 9.96,16.82 C9.96,17.8066716 10.1166651,18.666663 10.43,19.4 C10.7433349,20.133337 11.1699973,20.7399976 11.71,21.22 C12.2500027,21.7000024 12.8699965,22.0599988 13.57,22.3 C14.2700035,22.5400012 15.0133294,22.66 15.8,22.66 C16.3200026,22.66 16.8499973,22.5866674 17.39,22.44 C17.9300027,22.2933326 18.4133312,22.1066678 18.84,21.88 L19.48,23.48 C18.8666636,23.813335 18.2400032,24.0566659 17.6,24.21 C16.9599968,24.3633341 16.2800036,24.44 15.56,24.44 L15.56,24.44 Z M15.4,18.2 C15.6133344,18.2 15.8233323,18.133334 16.03,18 C16.2366677,17.866666 16.4666654,17.633335 16.72,17.3 L17.2,14.6 C16.999999,14.2133314 16.6933354,14.02 16.28,14.02 C15.9733318,14.02 15.7033345,14.1133324 15.47,14.3 C15.2366655,14.4866676 15.0366675,14.7199986 14.87,15 C14.7033325,15.2800014 14.5766671,15.586665 14.49,15.92 C14.4033329,16.253335 14.36,16.5666652 14.36,16.86 C14.36,17.7533378 14.7066632,18.2 15.4,18.2 L15.4,18.2 Z" id="@" fill="#FFFFFF"></path>
        </g>
    </g>
</svg>