<svg width="64" height="78" viewBox="0 0 64 78" xmlns="http://www.w3.org/2000/svg"><g transform="translate(1 1)" fill="none" fill-rule="evenodd"><path d="M62 60v6c0 5.523-4.477 10-10 10H10C4.477 76 0 71.523 0 66v-6h62z" fill="#EBF3FA"/><path d="M57 32a5 5 0 0 1 5 5v23H0V37a5 5 0 0 1 5-5h52z" fill="#FFF"/><circle fill="#FFF" cx="31" cy="54" r="12"/><g transform="translate(19 42)" fill-rule="nonzero"><path d="M12 24c6.627 0 12-5.373 12-12S18.627 0 12 0 0 5.373 0 12s5.373 12 12 12z" fill="#E21C3D"/><rect fill="#FFF" x="9.75" y="15.72" width="4.5" height="4.5" rx="2"/><rect fill="#FFF" x="9.75" y="3.75" width="4.5" height="10.136" rx="2"/></g><path d="M5 32h52a5 5 0 0 1 5 5v29c0 5.523-4.477 10-10 10H10C4.477 76 0 71.523 0 66V37a5 5 0 0 1 5-5z" stroke="#A8B6C6" stroke-width="2"/><path d="M30.597 0c10.228 0 18.52 8.291 18.52 18.52l-.001 13.479h-8.642V18.601c0-5.455-4.422-9.877-9.877-9.877-5.362 0-9.726 4.273-9.873 9.6l-.004.277v13.398h-8.643v-13.48C12.078 8.291 20.37 0 30.598 0z" stroke="#A8B6C6" stroke-width="2" fill="#FFF"/></g></svg>