<svg width="216" height="116" viewBox="0 0 216 116" xmlns="http://www.w3.org/2000/svg"><clipPath id="inner-bounds"><path d="M8 8h200v100H8z"/></clipPath><linearGradient id="line-gradient"><stop stop-color="#A8B6C6" offset="0%"/><stop stop-color="#5B616A" offset="50%"/><stop stop-color="#A8B6C6" offset="100%"/></linearGradient><g clip-path="url(#inner-bounds)"><rect width="100%" height="100%" fill="#A8B6C6"/><path opacity=".1" fill="url(#line-gradient)" style="animation:card-loading 0.8s linear infinite" d="M-86-50H14v216H-86z"/></g><style>/*!lint-ignore*/@keyframes card-loading{from{transform:rotate(30deg) translate(0, 0)}to{transform:rotate(30deg) translate(260px, -100px)}}</style><path d="M206 0c5.523 0 10 4.477 10 10v96c0 5.523-4.477 10-10 10H10c-5.523 0-10-4.477-10-10V10C0 4.477 4.477 0 10 0h196zm-9.4 65.6h-22a5 5 0 0 0-5 5v26a5 5 0 0 0 5 5h22a5 5 0 0 0 5-5v-26a5 5 0 0 0-5-5zM81.4 14.4h-62a5 5 0 0 0-5 5v77.2a5 5 0 0 0 5 5h62a5 5 0 0 0 5-5V19.4a5 5 0 0 0-5-5zM121 84.8h-17.2a3 3 0 0 0-3 3v2a3 3 0 0 0 3 3H121a3 3 0 0 0 3-3v-2a3 3 0 0 0-3-3zm31.2 0H135a3 3 0 0 0-3 3v2a3 3 0 0 0 3 3h17.2a3 3 0 0 0 3-3v-2a3 3 0 0 0-3-3zm0-16h-48.4a3 3 0 0 0-3 3v2a3 3 0 0 0 3 3h48.4a3 3 0 0 0 3-3v-2a3 3 0 0 0-3-3zm8-16h-56.4a3 3 0 0 0-3 3v2a3 3 0 0 0 3 3h56.4a3 3 0 0 0 3-3v-2a3 3 0 0 0-3-3zm-16-16h-40.4a3 3 0 0 0-3 3v2a3 3 0 0 0 3 3h40.4a3 3 0 0 0 3-3v-2a3 3 0 0 0-3-3zm54.4 0h-40.4a3 3 0 0 0-3 3v2a3 3 0 0 0 3 3h40.4a3 3 0 0 0 3-3v-2a3 3 0 0 0-3-3zm-1-22.4h-92.8a4 4 0 0 0-4 4v6.4a4 4 0 0 0 4 4h92.8a4 4 0 0 0 4-4v-6.4a4 4 0 0 0-4-4z" fill="#EBF3FA"/></svg>