<svg width="65" height="65" viewBox="0 0 65 65" fill="none" xmlns="http://www.w3.org/2000/svg"><path d="M64.396 32.403c0 17.782-14.416 32.197-32.198 32.197S0 50.185 0 32.403C0 14.62 14.415.204 32.198.204c17.782 0 32.198 14.416 32.198 32.199Z" fill="#EBF3FA"/><mask id="a" style="mask-type:alpha" maskUnits="userSpaceOnUse" x="0" y="0" width="65" height="65"><path d="M64.413 32.392c0 17.788-14.419 32.207-32.206 32.207C14.419 64.6 0 50.18 0 32.392S14.42.186 32.207.186s32.206 14.419 32.206 32.206Z" fill="#EBF3FA"/></mask><g mask="url(#a)" fill="#9EACBC" fill-opacity=".25"><path d="M-.001 24.22c0-1.062.86-1.923 1.923-1.923h15.382c1.062 0 1.923.86 1.923 1.923v15.382c0 1.062-.86 1.923-1.923 1.923H1.922a1.923 1.923 0 0 1-1.923-1.923V24.22Zm24.996-4.807a1.923 1.923 0 0 1-1.922-1.923v-3.845c0-1.062.86-1.923 1.922-1.923h15.383c1.062 0 1.922.86 1.922 1.923v3.845c0 1.062-.86 1.923-1.922 1.923H24.995Zm0-11.537a1.923 1.923 0 0 1-1.922-1.922V2.108c0-1.062.86-1.923 1.922-1.923h15.383c1.062 0 1.922.861 1.922 1.923v3.846c0 1.061-.86 1.922-1.922 1.922H24.995ZM1.922 19.413A1.923 1.923 0 0 1-.001 17.49v-3.845c0-1.062.86-1.923 1.923-1.923h15.382c1.062 0 1.923.86 1.923 1.923v3.845c0 1.062-.86 1.923-1.923 1.923H1.922Zm0-11.537A1.923 1.923 0 0 1-.001 5.954V2.108c0-1.062.86-1.923 1.923-1.923h15.382c1.062 0 1.923.861 1.923 1.923v3.846c0 1.061-.86 1.922-1.923 1.922H1.922Zm46.146 56.722a1.923 1.923 0 0 1-1.922-1.923V58.83c0-1.062.86-1.923 1.922-1.923h15.383c1.062 0 1.922.86 1.922 1.923v3.845c0 1.062-.86 1.923-1.922 1.923H48.068Zm0-11.537a1.923 1.923 0 0 1-1.922-1.923v-3.845c0-1.062.86-1.923 1.922-1.923h15.383c1.062 0 1.922.86 1.922 1.923v3.845c0 1.062-.86 1.923-1.922 1.923H48.068Zm-24.995-5.768c0-1.062.86-1.923 1.922-1.923h15.383c1.062 0 1.922.861 1.922 1.923v15.383c0 1.061-.86 1.922-1.922 1.922H24.995a1.923 1.923 0 0 1-1.922-1.922V47.293Zm0-23.073c0-1.062.86-1.923 1.922-1.923h15.383c1.062 0 1.922.86 1.922 1.923v15.382c0 1.062-.86 1.923-1.922 1.923H24.995a1.923 1.923 0 0 1-1.922-1.923V24.22Zm23.072 0c0-1.062.861-1.923 1.923-1.923h15.383c1.062 0 1.922.86 1.922 1.923v15.382c0 1.062-.86 1.923-1.922 1.923H48.068a1.923 1.923 0 0 1-1.922-1.923V24.22ZM19.227 50.575v13.06a.96.96 0 0 1-.961.962H5.205c-.857 0-1.286-1.035-.68-1.641l13.061-13.061c.606-.606 1.641-.177 1.641.68ZM0 59.393V46.33c0-.53.43-.961.96-.961h13.062c.856 0 1.285 1.036.68 1.641L1.64 60.073c-.605.605-1.64.176-1.64-.68ZM65.374 5.39v13.06c0 .532-.43.962-.962.962h-13.06c-.857 0-1.286-1.035-.68-1.64L63.731 4.71c.606-.606 1.642-.177 1.642.68Zm-19.228 8.817V1.145c0-.53.43-.961.961-.961h13.061c.857 0 1.286 1.036.68 1.641L47.787 14.886c-.606.606-1.641.177-1.641-.68Z"/></g><path fill-rule="evenodd" clip-rule="evenodd" d="M0 32.499C0 14.555 14.546 0 32.499 0c17.953 0 32.499 14.555 32.499 32.499h-1.894c0-16.913-13.707-30.615-30.605-30.615S1.893 15.586 1.893 32.499H0Z" fill="#A8B6C6"/><path fill-rule="evenodd" clip-rule="evenodd" d="M32.499 64.6C14.546 64.6 0 50.045 0 32.1h1.893c0 16.913 13.708 30.615 30.606 30.615 16.898 0 30.605-13.702 30.605-30.615h1.894c0 17.944-14.546 32.499-32.5 32.499Z" fill="#A8B6C6"/><path d="M41.8 27.9a8.68 8.68 0 1 1-8.68-8.69 8.69 8.69 0 0 1 8.68 8.69Z" fill="#76848C"/><path d="M31.46 53.46C19.27 36.05 17 34.26 17 27.87a16.12 16.12 0 0 1 32.24 0c0 6.39-2.27 8.18-14.46 25.59a2.002 2.002 0 0 1-3.32 0Zm1.66-19a6.61 6.61 0 1 0-6.71-6.61 6.67 6.67 0 0 0 6.71 6.68v-.07Z" fill="#76848C"/><path fill-rule="evenodd" clip-rule="evenodd" d="M33.12 22.94a5 5 0 1 0 0 10 5 5 0 0 0 0-10Zm-7.44 5a7.44 7.44 0 1 1 .552 2.822 7.439 7.439 0 0 1-.552-2.862v.04Z" fill="#76848C"/><path style="mix-blend-mode:multiply" opacity=".25" d="m33.12 18.87.06 35.44a2 2 0 0 0 1.65-.85c9.87-14.09 13.24-18 14.16-22.3L33.12 18.87Z" fill="url(#b)"/><path d="M36.18 21.53a2.9 2.9 0 0 0-3.07-2.7 2.91 2.91 0 0 0-3.06 2.7v11.52a2.91 2.91 0 0 0 3.07 2.7 2.9 2.9 0 0 0 3.06-2.7V21.53Zm0 19.48a3.07 3.07 0 1 0-6.14 0 3.07 3.07 0 0 0 6.14 0Z" fill="#fff"/><defs><linearGradient id="b" x1="32.34" y1="36.05" x2="41.06" y2="41.75" gradientUnits="userSpaceOnUse"><stop offset=".02" stop-color="#606060"/><stop offset="1" stop-color="#fff"/></linearGradient></defs></svg>