<?xml version="1.0" encoding="UTF-8"?><svg id="Layer_2" xmlns="http://www.w3.org/2000/svg" xmlns:xlink="http://www.w3.org/1999/xlink" viewBox="0 0 350 350"><defs><style>.cls-1,.cls-2{fill:#fff;}.cls-3{fill:#f5d60c;}.cls-4{filter:url(#drop-shadow-3);}.cls-4,.cls-5{fill:#e11d3f;}.cls-6{filter:url(#drop-shadow-1);}.cls-6,.cls-7{fill:#b62025;}.cls-8{fill:#1b1b1b;}.cls-2{filter:url(#drop-shadow-2);}.cls-9{fill:#c9b12d;}</style><filter id="drop-shadow-1" filterUnits="userSpaceOnUse"><feOffset dx="0" dy="-1"/><feGaussianBlur result="blur" stdDeviation="2"/><feFlood flood-color="#000" flood-opacity=".15"/><feComposite in2="blur" operator="in"/><feComposite in="SourceGraphic"/></filter><filter id="drop-shadow-2" filterUnits="userSpaceOnUse"><feOffset dx="0" dy="0"/><feGaussianBlur result="blur-2" stdDeviation="4"/><feFlood flood-color="#000" flood-opacity=".15"/><feComposite in2="blur-2" operator="in"/><feComposite in="SourceGraphic"/></filter><filter id="drop-shadow-3" filterUnits="userSpaceOnUse"><feOffset dx="0" dy="-1"/><feGaussianBlur result="blur-3" stdDeviation="2"/><feFlood flood-color="#000" flood-opacity=".15"/><feComposite in2="blur-3" operator="in"/><feComposite in="SourceGraphic"/></filter></defs><g id="Layer_1-2"><g><g><g><circle class="cls-1" cx="175" cy="175" r="175"/><path class="cls-9" d="M175,33.25c-78.29,0-141.75,63.46-141.75,141.75s63.46,141.75,141.75,141.75,141.75-63.46,141.75-141.75S253.29,33.25,175,33.25Zm0,269.32c-70.46,0-127.58-57.12-127.58-127.57S104.54,47.42,175,47.42s127.58,57.12,127.58,127.58-57.12,127.57-127.58,127.57Z"/></g><g><circle class="cls-3" cx="175" cy="16.62" r="4.13"/><circle class="cls-3" cx="134.01" cy="22.02" r="4.13"/><circle class="cls-3" cx="95.81" cy="37.84" r="4.13"/><circle class="cls-3" cx="63.01" cy="63.01" r="4.13"/><circle class="cls-3" cx="37.84" cy="95.81" r="4.13"/><circle class="cls-3" cx="22.02" cy="134.01" r="4.13"/><circle class="cls-3" cx="16.62" cy="175" r="4.13"/><circle class="cls-3" cx="22.02" cy="215.99" r="4.13"/><circle class="cls-3" cx="37.84" cy="254.19" r="4.13"/><circle class="cls-3" cx="63.01" cy="286.99" r="4.13"/><circle class="cls-3" cx="95.81" cy="312.16" r="4.13"/><circle class="cls-3" cx="134.01" cy="327.98" r="4.13"/><circle class="cls-3" cx="175" cy="333.38" r="4.13"/><circle class="cls-3" cx="215.99" cy="327.98" r="4.13"/><circle class="cls-3" cx="254.19" cy="312.16" r="4.13"/><circle class="cls-3" cx="286.99" cy="286.99" r="4.13"/><circle class="cls-3" cx="312.16" cy="254.19" r="4.13"/><circle class="cls-3" cx="327.98" cy="215.99" r="4.13"/><circle class="cls-3" cx="333.38" cy="175" r="4.13"/><circle class="cls-3" cx="327.98" cy="134.01" r="4.13"/><circle class="cls-3" cx="312.16" cy="95.81" r="4.13"/><circle class="cls-3" cx="286.99" cy="63.01" r="4.13"/><circle class="cls-3" cx="254.19" cy="37.84" r="4.13"/><circle class="cls-3" cx="215.99" cy="22.02" r="4.13"/></g><g><path class="cls-7" d="M275.32,92.64L179.04,25.03c-2.42-1.7-5.65-1.7-8.08,0L74.68,92.64c-3.24,2.27-5.16,5.98-5.16,9.93v3.16h210.96v-3.16c0-3.95-1.93-7.66-5.16-9.93Z"/><rect class="cls-6" x="69.52" y="104.38" width="210.96" height="143.35"/><rect class="cls-2" x="83.57" y="71.93" width="181.21" height="175.8"/><path class="cls-5" d="M280.48,247.73H69.52V104.38l87.5,63.16c5.23,3.78,11.52,5.81,17.98,5.81h0c6.45,0,12.75-2.03,17.98-5.81l87.5-63.16V247.73Z"/><path class="cls-4" d="M275.32,235.99l-96.28-67.62c-2.42-1.7-5.65-1.7-8.08,0l-96.28,67.62c-3.24,2.27-5.16,5.98-5.16,9.93v1.81h210.96v-1.81c0-3.95-1.93-7.66-5.16-9.93Z"/></g></g><g><g><path class="cls-9" d="M341.78,228.13c-7.46,23.45-19.73,44.75-35.65,62.75H43.87c-15.92-18-28.19-39.3-35.65-62.75H341.78Z"/><path class="cls-1" d="M337.72,239.5c-5.7,14.37-13.24,27.79-22.34,40H34.62c-9.1-12.21-16.64-25.63-22.34-40H337.72Z"/></g><g><path class="cls-9" d="M175,324.77c-35.88,0-65.07-29.19-65.07-65.06s29.19-65.07,65.07-65.07,65.07,29.19,65.07,65.07-29.19,65.06-65.07,65.06Z"/><path class="cls-3" d="M175,203.2v113c-31.15,0-56.5-25.35-56.5-56.5s25.35-56.5,56.5-56.5Z"/><g><circle class="cls-8" cx="175" cy="283.15" r="6.7"/><path class="cls-8" d="M168.3,229.55h13.4v40.2h-13.4v-40.2Z"/></g></g></g></g></g></svg>