<svg width="140" height="140" viewBox="0 0 140 140" fill="none" xmlns="http://www.w3.org/2000/svg"><g clip-path="url(#clip0_227_12490)"><g filter="url(#filter0_d_227_12490)"><path d="M69.9696 136.517C106.723 136.517 136.517 106.722 136.517 69.9695C136.517 33.2165 106.723 3.42236 69.9696 3.42236C33.2166 3.42236 3.42242 33.2165 3.42242 69.9695C3.42242 106.722 33.2166 136.517 69.9696 136.517Z" fill="white"/></g><path d="M69.9696 16.0967C59.3092 16.0997 48.889 19.2636 40.0267 25.1884C31.1644 31.1132 24.2578 39.5328 20.1803 49.3826C16.1029 59.2323 15.0376 70.07 17.1192 80.5252C19.2007 90.9804 24.3357 100.584 31.8748 108.121C39.4139 115.658 49.0186 120.79 59.4744 122.868C69.9301 124.947 80.7675 123.879 90.6161 119.798C100.465 115.718 108.882 108.809 114.805 99.9453C120.727 91.0813 123.888 80.6603 123.888 69.9999C123.888 62.9199 122.493 55.9093 119.783 49.3685C117.074 42.8277 113.102 36.8848 108.095 31.8792C103.088 26.8736 97.1437 22.9034 90.6021 20.1955C84.0605 17.4875 77.0495 16.0947 69.9696 16.0967ZM69.9696 118.511C60.3746 118.509 50.9957 115.661 43.0189 110.329C35.0421 104.996 28.8256 97.4184 25.1555 88.5531C21.4854 79.6878 20.5265 69.9332 22.4 60.5229C24.2736 51.1126 28.8955 42.4692 35.6812 35.6856C42.467 28.9019 51.1118 24.2828 60.5227 22.4122C69.9336 20.5416 79.6878 21.5036 88.552 25.1764C97.4162 28.8493 104.992 35.0682 110.322 43.0467C115.652 51.0251 118.496 60.4049 118.496 69.9999C118.496 76.3717 117.24 82.6811 114.802 88.5677C112.363 94.4543 108.788 99.8028 104.282 104.308C99.7756 108.813 94.4259 112.386 88.5386 114.823C82.6512 117.26 76.3414 118.513 69.9696 118.511Z" fill="#C9B12D"/><path d="M69.9848 11.3437C70.8522 11.3437 71.5553 10.6405 71.5553 9.77315C71.5553 8.90578 70.8522 8.20264 69.9848 8.20264C69.1174 8.20264 68.4143 8.90578 68.4143 9.77315C68.4143 10.6405 69.1174 11.3437 69.9848 11.3437Z" fill="#F5D60C"/><path d="M54.3975 13.3969C55.2649 13.3969 55.9681 12.6937 55.9681 11.8264C55.9681 10.959 55.2649 10.2559 54.3975 10.2559C53.5302 10.2559 52.827 10.959 52.827 11.8264C52.827 12.6937 53.5302 13.3969 54.3975 13.3969Z" fill="#F5D60C"/><path d="M39.8712 19.413C40.7386 19.413 41.4417 18.7099 41.4417 17.8425C41.4417 16.9751 40.7386 16.272 39.8712 16.272C39.0039 16.272 38.3007 16.9751 38.3007 17.8425C38.3007 18.7099 39.0039 19.413 39.8712 19.413Z" fill="#F5D60C"/><path d="M27.3984 28.9843C28.2658 28.9843 28.9689 28.2811 28.9689 27.4138C28.9689 26.5464 28.2658 25.8433 27.3984 25.8433C26.531 25.8433 25.8279 26.5464 25.8279 27.4138C25.8279 28.2811 26.531 28.9843 27.3984 28.9843Z" fill="#F5D60C"/><path d="M17.827 41.4569C18.6944 41.4569 19.3976 40.7538 19.3976 39.8864C19.3976 39.0191 18.6944 38.3159 17.827 38.3159C16.9597 38.3159 16.2565 39.0191 16.2565 39.8864C16.2565 40.7538 16.9597 41.4569 17.827 41.4569Z" fill="#F5D60C"/><path d="M11.8112 55.9833C12.6785 55.9833 13.3817 55.2802 13.3817 54.4128C13.3817 53.5454 12.6785 52.8423 11.8112 52.8423C10.9438 52.8423 10.2407 53.5454 10.2407 54.4128C10.2407 55.2802 10.9438 55.9833 11.8112 55.9833Z" fill="#F5D60C"/><path d="M9.75771 71.5707C10.6251 71.5707 11.3282 70.8676 11.3282 70.0002C11.3282 69.1328 10.6251 68.4297 9.75771 68.4297C8.89034 68.4297 8.18719 69.1328 8.18719 70.0002C8.18719 70.8676 8.89034 71.5707 9.75771 71.5707Z" fill="#F5D60C"/><path d="M11.8112 87.1576C12.6785 87.1576 13.3817 86.4545 13.3817 85.5871C13.3817 84.7197 12.6785 84.0166 11.8112 84.0166C10.9438 84.0166 10.2407 84.7197 10.2407 85.5871C10.2407 86.4545 10.9438 87.1576 11.8112 87.1576Z" fill="#F5D60C"/><path d="M17.827 101.684C18.6944 101.684 19.3976 100.981 19.3976 100.113C19.3976 99.2461 18.6944 98.543 17.827 98.543C16.9597 98.543 16.2565 99.2461 16.2565 100.113C16.2565 100.981 16.9597 101.684 17.827 101.684Z" fill="#F5D60C"/><path d="M27.3984 114.157C28.2658 114.157 28.9689 113.454 28.9689 112.586C28.9689 111.719 28.2658 111.016 27.3984 111.016C26.531 111.016 25.8279 111.719 25.8279 112.586C25.8279 113.454 26.531 114.157 27.3984 114.157Z" fill="#F5D60C"/><path d="M39.8712 123.725C40.7386 123.725 41.4417 123.021 41.4417 122.154C41.4417 121.287 40.7386 120.583 39.8712 120.583C39.0039 120.583 38.3007 121.287 38.3007 122.154C38.3007 123.021 39.0039 123.725 39.8712 123.725Z" fill="#F5D60C"/><path d="M54.3975 129.744C55.2649 129.744 55.9681 129.041 55.9681 128.174C55.9681 127.306 55.2649 126.603 54.3975 126.603C53.5302 126.603 52.827 127.306 52.827 128.174C52.827 129.041 53.5302 129.744 54.3975 129.744Z" fill="#F5D60C"/><path d="M69.9848 131.794C70.8522 131.794 71.5553 131.091 71.5553 130.223C71.5553 129.356 70.8522 128.653 69.9848 128.653C69.1174 128.653 68.4143 129.356 68.4143 130.223C68.4143 131.091 69.1174 131.794 69.9848 131.794Z" fill="#F5D60C"/><path d="M85.572 129.744C86.4394 129.744 87.1426 129.041 87.1426 128.174C87.1426 127.306 86.4394 126.603 85.572 126.603C84.7047 126.603 84.0015 127.306 84.0015 128.174C84.0015 129.041 84.7047 129.744 85.572 129.744Z" fill="#F5D60C"/><path d="M100.098 123.725C100.966 123.725 101.669 123.021 101.669 122.154C101.669 121.287 100.966 120.583 100.098 120.583C99.231 120.583 98.5278 121.287 98.5278 122.154C98.5278 123.021 99.231 123.725 100.098 123.725Z" fill="#F5D60C"/><path d="M112.571 114.157C113.439 114.157 114.142 113.454 114.142 112.586C114.142 111.719 113.439 111.016 112.571 111.016C111.704 111.016 111.001 111.719 111.001 112.586C111.001 113.454 111.704 114.157 112.571 114.157Z" fill="#F5D60C"/><path d="M122.143 101.684C123.01 101.684 123.713 100.981 123.713 100.113C123.713 99.2461 123.01 98.543 122.143 98.543C121.275 98.543 120.572 99.2461 120.572 100.113C120.572 100.981 121.275 101.684 122.143 101.684Z" fill="#F5D60C"/><path d="M128.158 87.1576C129.026 87.1576 129.729 86.4545 129.729 85.5871C129.729 84.7197 129.026 84.0166 128.158 84.0166C127.291 84.0166 126.588 84.7197 126.588 85.5871C126.588 86.4545 127.291 87.1576 128.158 87.1576Z" fill="#F5D60C"/><path d="M130.208 71.5707C131.075 71.5707 131.779 70.8676 131.779 70.0002C131.779 69.1328 131.075 68.4297 130.208 68.4297C129.341 68.4297 128.638 69.1328 128.638 70.0002C128.638 70.8676 129.341 71.5707 130.208 71.5707Z" fill="#F5D60C"/><path d="M128.158 55.9833C129.026 55.9833 129.729 55.2802 129.729 54.4128C129.729 53.5454 129.026 52.8423 128.158 52.8423C127.291 52.8423 126.588 53.5454 126.588 54.4128C126.588 55.2802 127.291 55.9833 128.158 55.9833Z" fill="#F5D60C"/><path d="M122.143 41.4569C123.01 41.4569 123.713 40.7538 123.713 39.8864C123.713 39.0191 123.01 38.3159 122.143 38.3159C121.275 38.3159 120.572 39.0191 120.572 39.8864C120.572 40.7538 121.275 41.4569 122.143 41.4569Z" fill="#F5D60C"/><path d="M112.571 28.9843C113.439 28.9843 114.142 28.2811 114.142 27.4138C114.142 26.5464 113.439 25.8433 112.571 25.8433C111.704 25.8433 111.001 26.5464 111.001 27.4138C111.001 28.2811 111.704 28.9843 112.571 28.9843Z" fill="#F5D60C"/><path d="M100.098 19.413C100.966 19.413 101.669 18.7099 101.669 17.8425C101.669 16.9751 100.966 16.272 100.098 16.272C99.231 16.272 98.5278 16.9751 98.5278 17.8425C98.5278 18.7099 99.231 19.413 100.098 19.413Z" fill="#F5D60C"/><path d="M85.572 13.3969C86.4394 13.3969 87.1426 12.6937 87.1426 11.8264C87.1426 10.959 86.4394 10.2559 85.572 10.2559C84.7047 10.2559 84.0015 10.959 84.0015 11.8264C84.0015 12.6937 84.7047 13.3969 85.572 13.3969Z" fill="#F5D60C"/><path d="M108.133 38.681L71.5211 12.971C71.0717 12.6534 70.535 12.4829 69.9848 12.4829C69.4345 12.4829 68.8978 12.6534 68.4485 12.971L31.8362 38.681C31.2297 39.1064 30.7347 39.6717 30.3932 40.329C30.0516 40.9863 29.8735 41.7163 29.874 42.4571V43.6587H110.111V42.4571C110.109 41.7151 109.928 40.9847 109.584 40.3274C109.239 39.6701 108.742 39.1054 108.133 38.681Z" fill="#B62025"/><g filter="url(#filter1_d_227_12490)"><path d="M110.096 43.1455H29.874V97.6571H110.096V43.1455Z" fill="#B62025"/></g><g filter="url(#filter2_d_227_12490)"><path d="M104.125 30.8018H35.2167V97.6531H104.125V30.8018Z" fill="white"/></g><path d="M110.096 97.6571H29.8588V43.1455L63.1323 67.1633C65.1243 68.6023 67.5198 69.3755 69.9772 69.3727C72.4343 69.3742 74.8295 68.6011 76.822 67.1633L110.096 43.1455V97.6571Z" fill="#E11D3F"/><g filter="url(#filter3_d_227_12490)"><path d="M108.133 93.1926L71.5211 67.4788C71.0717 67.1612 70.535 66.9907 69.9848 66.9907C69.4345 66.9907 68.8978 67.1612 68.4485 67.4788L31.8362 93.1926C31.2297 93.618 30.7347 94.1833 30.3932 94.8406C30.0516 95.498 29.8735 96.2279 29.874 96.9687V97.657H110.111V96.9687C110.109 96.2268 109.928 95.4963 109.584 94.839C109.239 94.1817 108.742 93.617 108.133 93.1926Z" fill="#E11D3F"/></g><path d="M133.406 90.2036C130.6 99.02 125.982 107.153 119.85 114.081H20.1201C13.9894 107.157 9.37195 99.0298 6.56348 90.2188L133.406 90.2036Z" fill="#C9B12D"/><path d="M131.862 94.5273C129.71 99.9485 126.854 105.063 123.367 109.738H16.6026C13.1155 105.063 10.2592 99.9485 8.10736 94.5273H131.862Z" fill="white"/><path d="M69.9696 126.953C65.0757 126.953 60.2917 125.502 56.2225 122.783C52.1534 120.064 48.9818 116.2 47.109 111.678C45.2362 107.157 44.7462 102.182 45.7009 97.3816C46.6557 92.5818 49.0123 88.1728 52.4729 84.7122C55.9334 81.2517 60.3424 78.8951 65.1423 77.9403C69.9422 76.9855 74.9174 77.4756 79.4388 79.3484C83.9602 81.2212 87.8247 84.3927 90.5436 88.4619C93.2625 92.531 94.7137 97.3151 94.7137 102.209C94.7067 108.769 92.0975 115.059 87.4586 119.698C82.8197 124.337 76.53 126.946 69.9696 126.953Z" fill="#C9B12D"/><path d="M69.9696 80.7236V123.694C64.2714 123.694 58.8065 121.43 54.7772 117.401C50.748 113.372 48.4844 107.907 48.4844 102.209C48.4844 96.5106 50.748 91.0458 54.7772 87.0165C58.8065 82.9872 64.2714 80.7236 69.9696 80.7236Z" fill="#F5D60C"/><path d="M69.9848 113.674C71.3919 113.674 72.5326 112.533 72.5326 111.126C72.5326 109.719 71.3919 108.578 69.9848 108.578C68.5777 108.578 67.437 109.719 67.437 111.126C67.437 112.533 68.5777 113.674 69.9848 113.674Z" fill="#1B1B1B"/><path d="M67.437 90.7437H72.5326V106.03H67.437V90.7437Z" fill="#1B1B1B"/></g><defs><filter id="filter0_d_227_12490" x="-2.57758" y="-2.57764" width="145.094" height="145.094" filterUnits="userSpaceOnUse" color-interpolation-filters="sRGB"><feFlood flood-opacity="0" result="BackgroundImageFix"/><feColorMatrix in="SourceAlpha" type="matrix" values="0 0 0 0 0 0 0 0 0 0 0 0 0 0 0 0 0 0 127 0" result="hardAlpha"/><feOffset/><feGaussianBlur stdDeviation="3"/><feColorMatrix type="matrix" values="0 0 0 0 0.00392157 0 0 0 0 0.00392157 0 0 0 0 0.00392157 0 0 0 0.24 0"/><feBlend mode="normal" in2="BackgroundImageFix" result="effect1_dropShadow_227_12490"/><feBlend mode="normal" in="SourceGraphic" in2="effect1_dropShadow_227_12490" result="shape"/></filter><filter id="filter1_d_227_12490" x="25.874" y="38.1455" width="88.2216" height="62.5117" filterUnits="userSpaceOnUse" color-interpolation-filters="sRGB"><feFlood flood-opacity="0" result="BackgroundImageFix"/><feColorMatrix in="SourceAlpha" type="matrix" values="0 0 0 0 0 0 0 0 0 0 0 0 0 0 0 0 0 0 127 0" result="hardAlpha"/><feOffset dy="-1"/><feGaussianBlur stdDeviation="2"/><feColorMatrix type="matrix" values="0 0 0 0 0 0 0 0 0 0 0 0 0 0 0 0 0 0 0.25 0"/><feBlend mode="normal" in2="BackgroundImageFix" result="effect1_dropShadow_227_12490"/><feBlend mode="normal" in="SourceGraphic" in2="effect1_dropShadow_227_12490" result="shape"/></filter><filter id="filter2_d_227_12490" x="27.2167" y="22.8018" width="84.9086" height="82.8516" filterUnits="userSpaceOnUse" color-interpolation-filters="sRGB"><feFlood flood-opacity="0" result="BackgroundImageFix"/><feColorMatrix in="SourceAlpha" type="matrix" values="0 0 0 0 0 0 0 0 0 0 0 0 0 0 0 0 0 0 127 0" result="hardAlpha"/><feOffset/><feGaussianBlur stdDeviation="4"/><feColorMatrix type="matrix" values="0 0 0 0 0 0 0 0 0 0 0 0 0 0 0 0 0 0 0.25 0"/><feBlend mode="normal" in2="BackgroundImageFix" result="effect1_dropShadow_227_12490"/><feBlend mode="normal" in="SourceGraphic" in2="effect1_dropShadow_227_12490" result="shape"/></filter><filter id="filter3_d_227_12490" x="25.874" y="61.9907" width="88.2369" height="38.666" filterUnits="userSpaceOnUse" color-interpolation-filters="sRGB"><feFlood flood-opacity="0" result="BackgroundImageFix"/><feColorMatrix in="SourceAlpha" type="matrix" values="0 0 0 0 0 0 0 0 0 0 0 0 0 0 0 0 0 0 127 0" result="hardAlpha"/><feOffset dy="-1"/><feGaussianBlur stdDeviation="2"/><feColorMatrix type="matrix" values="0 0 0 0 0 0 0 0 0 0 0 0 0 0 0 0 0 0 0.25 0"/><feBlend mode="normal" in2="BackgroundImageFix" result="effect1_dropShadow_227_12490"/><feBlend mode="normal" in="SourceGraphic" in2="effect1_dropShadow_227_12490" result="shape"/></filter><clipPath id="clip0_227_12490"><rect width="140" height="140" fill="white"/></clipPath></defs></svg>