<svg xmlns="http://www.w3.org/2000/svg" xmlns:xlink="http://www.w3.org/1999/xlink" viewBox="0 0 137.83 137.83"><defs><linearGradient id="New_Gradient_Swatch_3" x1="93.51" y1="38.07" x2="105.78" y2="59.17" gradientUnits="userSpaceOnUse"><stop offset="0" stop-color="#fc768c"/><stop offset="1" stop-color="#e21d3e"/></linearGradient></defs><title>no-verify</title><g style="isolation:isolate"><g id="Layer_2" data-name="Layer 2"><g id="Layer_1-2" data-name="Layer 1"><circle cx="68.91" cy="68.91" r="68.91" fill="#112e51"/><path d="M67.91,134.33a1,1,0,0,1,1-1h.18a1,1,0,0,1,1,1h0a1,1,0,0,1-1,1h-.19A1,1,0,0,1,67.91,134.33Zm-11.19-.13h0a1,1,0,0,1-.8-1.16h0a1,1,0,0,1,1.16-.8h0a1,1,0,0,1,.8,1.16h0a1,1,0,0,1-1,.82h0Zm23.4-.83a1,1,0,0,1,.8-1.17h0a1,1,0,0,1,1.17.8h0a1,1,0,0,1-.8,1.17H81.1A1,1,0,0,1,80.12,133.37Zm-35.19-2.52a1,1,0,0,1-.57-1.3h0a1,1,0,0,1,1.29-.57h0a1,1,0,0,1,.58,1.3h0a1,1,0,0,1-.94.63h0A1.13,1.13,0,0,1,44.93,130.85Zm46.83-.63a1,1,0,0,1,.57-1.3h0a1,1,0,0,1,1.3.56h0a1,1,0,0,1-.57,1.3h0a.94.94,0,0,1-.37.07h0A1,1,0,0,1,91.76,130.22ZM34,125.37a1,1,0,0,1-.32-1.38h0a1,1,0,0,1,1.38-.32h0a1,1,0,0,1,.32,1.38h0a1,1,0,0,1-.85.47h0A1,1,0,0,1,34,125.37Zm68.65-.41a1,1,0,0,1,.32-1.38h0a1,1,0,0,1,1.38.32h0a1,1,0,0,1-.32,1.38h0a1,1,0,0,1-.53.15h0A1,1,0,0,1,102.62,125ZM24.2,118a1,1,0,0,1-.06-1.41h0a1,1,0,0,1,1.41-.07h0a1,1,0,0,1,.07,1.42h0a1,1,0,0,1-.74.32h0A1,1,0,0,1,24.2,118Zm88.14-.18a1,1,0,0,1,.06-1.41h0a1,1,0,0,1,1.41.06h0a1,1,0,0,1-.06,1.41h0a1,1,0,0,1-.67.26h0A1,1,0,0,1,112.34,117.8ZM16,108.94h0a1,1,0,0,1,.19-1.39h0a1,1,0,0,1,1.4.19h0a1,1,0,0,1-.19,1.4h0a1,1,0,0,1-.61.2h0A1,1,0,0,1,16,108.94Zm104.64.05a1,1,0,0,1-.2-1.4h0a1,1,0,0,1,1.4-.2h0a1,1,0,0,1,.2,1.4h0a1,1,0,0,1-.8.4h0A1,1,0,0,1,120.59,109ZM9.48,98.53a1,1,0,0,1,.44-1.34h0a1,1,0,0,1,1.35.45h0A1,1,0,0,1,10.82,99h0a1.06,1.06,0,0,1-.45.11h0A1,1,0,0,1,9.48,98.53Zm117.6.29a1,1,0,0,1-.45-1.34h0A1,1,0,0,1,128,97h0a1,1,0,0,1,.45,1.34h0a1,1,0,0,1-.9.56h0A1.07,1.07,0,0,1,127.08,98.82ZM5,87.12a1,1,0,0,1,.69-1.24h0A1,1,0,0,1,7,86.57H7a1,1,0,0,1-.69,1.24h0a1.22,1.22,0,0,1-.27,0H6A1,1,0,0,1,5,87.12Zm126.58.51a1,1,0,0,1-.7-1.23h0a1,1,0,0,1,1.24-.69h0a1,1,0,0,1,.69,1.23h0a1,1,0,0,1-1,.73h0A.74.74,0,0,1,131.61,87.63ZM2.78,75.08A1,1,0,0,1,3.68,74h0a1,1,0,0,1,1.09.9h0A1,1,0,0,1,3.87,76H3.78A1,1,0,0,1,2.78,75.08ZM134,75.8a1,1,0,0,1-.9-1.08h0a1,1,0,0,1,1.08-.91h0a1,1,0,0,1,.91,1.08h0a1,1,0,0,1-1,.92H134ZM3.68,63.92a1,1,0,0,1-.91-1.09h0a1,1,0,0,1,1.08-.9h0A1,1,0,0,1,4.77,63h0a1,1,0,0,1-1,.91H3.68ZM133,62.84a1,1,0,0,1,.9-1.09h0a1,1,0,0,1,1.09.9h0a1,1,0,0,1-.9,1.09H134A1,1,0,0,1,133,62.84ZM5.7,52A1,1,0,0,1,5,50.79H5a1,1,0,0,1,1.23-.69h0a1,1,0,0,1,.69,1.24h0a1,1,0,0,1-1,.72H6Zm125.14-.87h0a1,1,0,0,1,.68-1.24h0a1,1,0,0,1,1.24.69h0a1,1,0,0,1-.68,1.23h0a.94.94,0,0,1-.28,0h0A1,1,0,0,1,130.84,51.16ZM9.89,40.71a1,1,0,0,1-.45-1.34h0a1,1,0,0,1,1.34-.45h0a1,1,0,0,1,.45,1.34h0a1,1,0,0,1-.9.55h0A1,1,0,0,1,9.89,40.71Zm116.62-.61h0a1,1,0,0,1,.44-1.34h0a1,1,0,0,1,1.34.45h0a1,1,0,0,1-.44,1.34h0a1,1,0,0,1-.45.1h0A1,1,0,0,1,126.51,40.1ZM16.09,30.36a1,1,0,0,1-.2-1.4h0a1,1,0,0,1,1.4-.2h0a1,1,0,0,1,.2,1.4h0a1,1,0,0,1-.8.4h0A1,1,0,0,1,16.09,30.36ZM120.23,30a1,1,0,0,1,.19-1.4h0a1,1,0,0,1,1.4.19h0a1,1,0,0,1-.19,1.41h0a1,1,0,0,1-.61.2h0A1,1,0,0,1,120.23,30ZM24.08,21.31a1,1,0,0,1,.06-1.41h0a1,1,0,0,1,1.41.06h0a1,1,0,0,1-.06,1.42h0a1,1,0,0,1-.68.26h0A1,1,0,0,1,24.08,21.31Zm88.12,0a1,1,0,0,1-.06-1.41h0a1,1,0,0,1,1.41-.07h0a1,1,0,0,1,.06,1.41h0a1,1,0,0,1-.73.33h0A1,1,0,0,1,112.2,21.26ZM33.58,13.87a1,1,0,0,1,.32-1.37h0a1,1,0,0,1,1.37.32h0A1,1,0,0,1,35,14.19h0a.91.91,0,0,1-.52.16h0A1,1,0,0,1,33.58,13.87Zm69.14.23a1,1,0,0,1-.33-1.38h0a1,1,0,0,1,1.38-.32h0a1,1,0,0,1,.33,1.38h0a1,1,0,0,1-.86.47h0A1,1,0,0,1,102.72,14.1ZM44.28,8.3A1,1,0,0,1,44.85,7h0a1,1,0,0,1,1.29.57h0a1,1,0,0,1-.57,1.29h0a.92.92,0,0,1-.36.07h0A1,1,0,0,1,44.28,8.3Zm47.8.51a1,1,0,0,1-.57-1.29h0a1,1,0,0,1,1.29-.58h0a1,1,0,0,1,.58,1.3h0a1,1,0,0,1-.94.64h0A1.14,1.14,0,0,1,92.08,8.81Zm-36.26-4a1,1,0,0,1,.8-1.17h0a1,1,0,0,1,1.17.8h0A1,1,0,0,1,57,5.6h0a.54.54,0,0,1-.18,0h0A1,1,0,0,1,55.82,4.81Zm24.83.76a1,1,0,0,1-.8-1.16h0A1,1,0,0,1,81,3.6h0a1,1,0,0,1,.81,1.17h0a1,1,0,0,1-1,.82h0ZM67.82,3.5a1,1,0,0,1,1-1h0a1,1,0,0,1,1,1h0a1,1,0,0,1-1,1h0A1,1,0,0,1,67.82,3.5Z" fill="#00bfe7"/><circle cx="68.91" cy="68.91" r="61.99" fill="#99e5f5" stroke="#009ae3" stroke-miterlimit="10" stroke-width="0.5"/><polygon points="68.26 73.69 58.27 129.71 62.75 130.32 68.26 73.69" fill="#b5ecf8"/><polygon points="69.57 64.13 79.55 8.12 75.07 7.5 69.57 64.13" fill="#b5ecf8"/><polygon points="67.61 73.56 50.09 127.69 54.45 128.91 67.61 73.56" fill="#b5ecf8"/><polygon points="70.22 64.27 87.73 10.13 83.38 8.91 70.22 64.27" fill="#b5ecf8"/><polygon points="66.99 73.34 42.27 124.58 46.41 126.39 66.99 73.34" fill="#b5ecf8"/><polygon points="70.84 64.49 95.56 13.24 91.41 11.44 70.84 64.49" fill="#b5ecf8"/><polygon points="66.41 73.04 34.93 120.44 38.8 122.79 66.41 73.04" fill="#b5ecf8"/><polygon points="71.42 64.79 102.89 17.39 99.03 15.04 71.42 64.79" fill="#b5ecf8"/><polygon points="65.87 72.66 28.23 115.33 31.74 118.19 65.87 72.66" fill="#b5ecf8"/><polygon points="71.96 65.17 109.59 22.5 106.08 19.64 71.96 65.17" fill="#b5ecf8"/><polygon points="65.39 72.21 22.29 109.36 25.38 112.66 65.39 72.21" fill="#b5ecf8"/><polygon points="72.44 65.62 115.53 28.47 112.45 25.16 72.44 65.62" fill="#b5ecf8"/><polygon points="64.97 71.7 17.22 102.64 19.83 106.33 64.97 71.7" fill="#b5ecf8"/><polygon points="72.86 66.13 120.61 35.19 118 31.5 72.86 66.13" fill="#b5ecf8"/><polygon points="64.63 71.13 13.11 95.28 15.19 99.3 64.63 71.13" fill="#b5ecf8"/><polygon points="73.2 66.69 124.72 42.54 122.64 38.53 73.2 66.69" fill="#b5ecf8"/><polygon points="64.36 70.53 10.04 87.44 11.55 91.7 64.36 70.53" fill="#b5ecf8"/><polygon points="73.46 67.3 127.79 50.39 126.27 46.13 73.46 67.3" fill="#b5ecf8"/><polygon points="64.19 69.89 8.06 79.25 8.98 83.68 64.19 69.89" fill="#b5ecf8"/><polygon points="73.64 67.93 129.76 58.58 128.84 54.15 73.64 67.93" fill="#b5ecf8"/><polygon points="64.1 69.24 7.22 70.87 7.53 75.38 64.1 69.24" fill="#b5ecf8"/><polygon points="73.73 68.58 130.6 66.96 130.29 62.45 73.73 68.58" fill="#b5ecf8"/><polygon points="64.1 68.58 7.53 62.45 7.22 66.96 64.1 68.58" fill="#b5ecf8"/><polygon points="73.73 69.24 130.29 75.38 130.6 70.87 73.73 69.24" fill="#b5ecf8"/><polygon points="64.19 67.93 8.98 54.15 8.06 58.58 64.19 67.93" fill="#b5ecf8"/><polygon points="73.64 69.89 128.84 83.68 129.76 79.25 73.64 69.89" fill="#b5ecf8"/><polygon points="64.36 67.3 11.55 46.13 10.04 50.39 64.36 67.3" fill="#b5ecf8"/><polygon points="73.46 70.53 126.27 91.7 127.79 87.44 73.46 70.53" fill="#b5ecf8"/><polygon points="64.63 66.69 15.19 38.53 13.11 42.54 64.63 66.69" fill="#b5ecf8"/><polygon points="73.2 71.13 122.64 99.3 124.72 95.28 73.2 71.13" fill="#b5ecf8"/><polygon points="64.97 66.13 19.83 31.5 17.22 35.19 64.97 66.13" fill="#b5ecf8"/><polygon points="72.86 71.7 118 106.33 120.61 102.64 72.86 71.7" fill="#b5ecf8"/><polygon points="65.39 65.62 25.38 25.16 22.29 28.47 65.39 65.62" fill="#b5ecf8"/><polygon points="72.44 72.21 112.45 112.66 115.53 109.36 72.44 72.21" fill="#b5ecf8"/><polygon points="65.87 65.17 31.74 19.64 28.23 22.5 65.87 65.17" fill="#b5ecf8"/><polygon points="71.96 72.66 106.08 118.19 109.59 115.33 71.96 72.66" fill="#b5ecf8"/><polygon points="66.41 64.79 38.8 15.04 34.93 17.39 66.41 64.79" fill="#b5ecf8"/><polygon points="71.42 73.04 99.03 122.79 102.89 120.44 71.42 73.04" fill="#b5ecf8"/><polygon points="66.99 64.49 46.41 11.44 42.27 13.24 66.99 64.49" fill="#b5ecf8"/><polygon points="70.84 73.34 91.41 126.39 95.56 124.58 70.84 73.34" fill="#b5ecf8"/><polygon points="67.61 64.27 54.45 8.91 50.09 10.13 67.61 64.27" fill="#b5ecf8"/><polygon points="70.22 73.56 83.38 128.91 87.73 127.69 70.22 73.56" fill="#b5ecf8"/><polygon points="68.26 64.13 62.75 7.5 58.27 8.12 68.26 64.13" fill="#b5ecf8"/><polygon points="69.57 73.69 75.07 130.32 79.55 129.71 69.57 73.69" fill="#b5ecf8"/><polygon points="68.91 64.09 71.17 7.23 66.65 7.23 68.91 64.09" fill="#b5ecf8"/><polygon points="68.91 73.74 66.65 130.59 71.17 130.59 68.91 73.74" fill="#b5ecf8"/><path d="M39.54,106.68a2.8,2.8,0,0,0,2.77,2.8H95.53a2.78,2.78,0,0,0,2.75-2.8V31.17a2.8,2.8,0,0,0-2.75-2.82h-42a2,2,0,0,0-1.58.82L40.37,40.61a2.27,2.27,0,0,0-.83,1.74Z" fill="#fff" stroke="#112e51" stroke-linecap="round" stroke-linejoin="round" stroke-width="3"/><polyline points="53.54 28.35 53.54 42.34 39.54 42.34" fill="none" stroke="#112e51" stroke-linecap="round" stroke-linejoin="round" stroke-width="2"/><polygon points="41.6 43.72 41.6 57.06 53.74 43.71 41.6 43.72" fill="#ccebf9" style="mix-blend-mode:multiply"/><rect x="53.74" y="84.44" width="26.1" height="2.75" rx="0.5" ry="0.5" fill="#112e51"/><rect x="53.74" y="89.68" width="30.22" height="2.75" rx="0.5" ry="0.5" fill="#112e51"/><rect x="53.74" y="94.92" width="15.11" height="2.75" rx="0.5" ry="0.5" fill="#112e51"/><path d="M83.39,71.48c-4.88-2.08-10.31-4.66-10.76-6.27V63.53a11,11,0,0,0,2.29-4.6,2.91,2.91,0,0,0,.48-4V51.2c0-3.9-2-6.57-6.48-6.57s-6.48,2.67-6.48,6.57V55a2.91,2.91,0,0,0,.48,4,11,11,0,0,0,2.29,4.6v1.69c-.45,1.61-5.88,4.19-10.76,6.27a1.21,1.21,0,0,0-.69,1.12v4.22A1.14,1.14,0,0,0,54.81,78H83a1.14,1.14,0,0,0,1.08-1.2V72.6A1.2,1.2,0,0,0,83.39,71.48Z" fill="#112e51"/><circle cx="99.46" cy="48.31" r="11.92" fill="url(#New_Gradient_Swatch_3)"/><path d="M105.69,46.17H93.23a2.14,2.14,0,0,0,0,4.28h12.46a2.14,2.14,0,0,0,0-4.28Z" fill="#fff"/><path d="M68.91,130.9a62,62,0,1,1,62-62A62.06,62.06,0,0,1,68.91,130.9Zm0-123.53a61.54,61.54,0,1,0,61.54,61.54A61.61,61.61,0,0,0,68.91,7.37Z" fill="#009ae3"/></g></g></g></svg>