<svg xmlns="http://www.w3.org/2000/svg" xmlns:xlink="http://www.w3.org/1999/xlink" viewBox="0 0 96 96"><defs><style>.cls-1{fill:url(#linear-gradient);}.cls-2{fill:#112e51;}.cls-3{fill:url(#linear-gradient-2);}.cls-4{fill:#fff;}</style><linearGradient id="linear-gradient" x1="26.51" y1="21.85" x2="93.29" y2="103.11" gradientUnits="userSpaceOnUse"><stop offset="0" stop-color="#e21c3d"/><stop offset="1" stop-color="#a50025"/></linearGradient><linearGradient id="linear-gradient-2" x1="88.68" y1="91.29" x2="55.38" y2="57.98" gradientUnits="userSpaceOnUse"><stop offset="0" stop-color="#820025" stop-opacity="0"/><stop offset="1" stop-color="#820025" stop-opacity="0.5"/></linearGradient></defs><title>p-key</title><g id="Layer_2" data-name="Layer 2"><g id="Layer_1-2" data-name="Layer 1"><rect class="cls-1" width="96" height="96" rx="8" ry="8"/><circle class="cls-2" cx="87" cy="87" r="3"/><circle class="cls-2" cx="9" cy="87" r="3"/><circle class="cls-2" cx="87" cy="9" r="3"/><circle class="cls-2" cx="9" cy="9" r="3"/><path class="cls-3" d="M17.54,62,51.78,96H88a8,8,0,0,0,8-8V57.11L80.43,41.17,52.91,48,36.25,61.71Z"/><path class="cls-4" d="M84.93,45.82l-4.57-4.57H51.74a20.53,20.53,0,1,0-1.08,16l6.69-6.69L65,58.22l7.52-7.52,7.67,7.67,4.78-4.78A5.5,5.5,0,0,0,84.93,45.82ZM32.37,56.54A8.54,8.54,0,1,1,40.92,48,8.54,8.54,0,0,1,32.37,56.54Z"/></g></g></svg>