<?xml version="1.0" encoding="UTF-8"?>
<svg width="120px" height="116px" viewBox="0 0 120 116" version="1.1" xmlns="http://www.w3.org/2000/svg" xmlns:xlink="http://www.w3.org/1999/xlink">
    <title>PIV-CAC-round</title>
    <defs>
        <path d="M8.45295,10.4072471 L8.45295,11.4130353 C7.5196375,11.5672471 6.8084125,12.3710588 6.8084125,13.34 L6.8084125,13.34 L6.8084125,15.6204235 C6.8084125,16.6057412 7.545525,17.4218353 8.502,17.5555765 L8.502,17.5555765 C8.842625,20.7817412 10.8795625,23.5070588 13.7135625,24.8403765 L13.7135625,24.8403765 L13.7135625,27.8359059 L13.055475,27.8359059 C6.5182,27.8359059 1.2194375,33.0872941 1.2194375,39.5655529 L1.2194375,39.5655529 L1.2194375,41.0298824 L34.097925,41.0298824 L34.097925,39.5655529 C34.097925,33.0872941 28.7978,27.8359059 22.2618875,27.8359059 L22.2618875,27.8359059 L21.6038,27.8359059 L21.6038,24.8403765 C24.4378,23.5070588 26.4747375,20.7817412 26.814,17.5555765 L26.814,17.5555765 C27.7718375,17.4218353 28.50895,16.6057412 28.50895,15.6204235 L28.50895,15.6204235 L28.50895,13.34 C28.50895,12.3710588 27.797725,11.5672471 26.8644125,11.4130353 L26.8644125,11.4130353 L26.8644125,10.4072471 C26.8644125,5.37011765 22.74285,1.28555294 17.658,1.28555294 L17.658,1.28555294 C12.5745125,1.28555294 8.45295,5.37011765 8.45295,10.4072471 L8.45295,10.4072471 Z" id="path-1"></path>
        <path d="M1.2194375,12.1486118 L1.2194375,13.6088471 L34.097925,13.6088471 L34.097925,12.1486118 C34.097925,5.98832941 29.321,0.936188235 23.241525,0.442164706 L23.241525,0.442164706 C23.2456125,0.499482353 23.2483375,0.555435294 23.2483375,0.614117647 L23.2483375,0.614117647 C23.2483375,2.54927059 20.7822125,4.11731765 17.7411125,4.11731765 L17.7411125,4.11731765 C14.69865,4.11731765 12.2338875,2.54927059 12.2338875,0.614117647 L12.2338875,0.614117647 C12.2338875,0.552705882 12.2366125,0.491294118 12.2420625,0.429882353 L12.2420625,0.429882353 C6.0835625,0.844752941 1.2194375,5.93374118 1.2194375,12.1486118 L1.2194375,12.1486118 Z" id="path-3"></path>
        <path d="M1.3420625,0.429882353 L1.33593125,0.522 L1.3338875,0.614117647 L1.34203348,0.806364776 C1.49343953,2.58841996 3.73713287,4.01581335 6.53886181,4.1121353 L6.8411125,4.11731765 L7.14323587,4.1121353 C9.94385846,4.01581335 12.1887005,2.58841996 12.3401871,0.806364776 L12.3483375,0.614117647 L12.3464641,0.527629412 L12.341525,0.442164706 L12.6907941,0.47569861 C12.9100264,0.499994902 13.1274474,0.530232295 13.3428902,0.566244835 L13.3457301,0.6035625 L13.3457301,0.6035625 L13.3565875,0.8584 L13.3486136,1.07743653 C13.1791672,3.39949614 10.3304337,5.24865882 6.8411125,5.24865882 L6.8411125,5.24865882 L6.5159239,5.24328336 C3.06855269,5.1290547 0.324275,3.20867166 0.324275,0.8584 L0.324275,0.8584 L0.335153711,0.6035625 C0.336957959,0.582500184 0.338984412,0.561481847 0.341231406,0.540507824 C0.671195288,0.489364778 1.00468663,0.452609856 1.3420625,0.429882353 Z" id="path-5"></path>
        <path d="M1.2194375,12.1486118 L1.2194375,13.6088471 L12.6222,13.6088471 C12.0622125,11.6368471 11.7406625,9.31821176 11.7406625,6.83717647 L11.7406625,6.83717647 C11.7406625,4.5008 12.025425,2.30771765 12.526825,0.413505882 L12.526825,0.413505882 C6.2348,0.689176471 1.2194375,5.83684706 1.2194375,12.1486118 L1.2194375,12.1486118 Z M23.7415625,6.83717647 C23.7415625,9.31821176 23.41865,11.6368471 22.860025,13.6088471 L22.860025,13.6088471 L34.097925,13.6088471 L34.097925,12.1486118 C34.097925,5.8928 29.1697625,0.779247059 22.9567625,0.421694118 L22.9567625,0.421694118 C23.4554375,2.31454118 23.7415625,4.50352941 23.7415625,6.83717647 L23.7415625,6.83717647 Z" id="path-7"></path>
        <path d="M2.7590625,0.335717647 L1.1881,1.50390588 L4.640675,1.17774118 L3.5574875,0.341176471 C3.43895,0.249741176 3.29725,0.204705882 3.1541875,0.204705882 L3.1541875,0.204705882 C3.0152125,0.204705882 2.8762375,0.248376471 2.7590625,0.335717647 L2.7590625,0.335717647 Z" id="path-9"></path>
        <path d="M3.4008,0.3944 L0.27795,5.28687059 L1.2630375,6.26536471 L0.27795,7.73515294 L2.5792125,13.6088471 L5.2088375,13.6088471 C4.0043875,7.84432941 3.730525,3.38447059 4.38725,0.230635294 L4.38725,0.230635294 C4.062975,0.236094118 3.7346125,0.290682353 3.4008,0.3944 L3.4008,0.3944 Z" id="path-11"></path>
        <path d="M0.1321625,13.6088471 L2.76315,13.6088471 L5.0644125,7.73515294 L4.0779625,6.26536471 L5.0644125,5.28687059 L1.9415625,0.3944 C1.60775,0.290682353 1.2793875,0.236094118 0.95375,0.230635294 L0.95375,0.230635294 C1.6132,3.38447059 1.337975,7.84432941 0.1321625,13.6088471 L0.1321625,13.6088471 Z" id="path-13"></path>
    </defs>
    <g id="Page-1" stroke="none" stroke-width="1" fill="none" fill-rule="evenodd">
        <g id="Gov-Verify---Revised" transform="translate(-496.000000, -365.000000)">
            <g id="PIV-CAC-round" transform="translate(496.000000, 365.000000)">
                <g id="PIV-/-round" transform="translate(5.000000, 0.000000)">
                    <path d="M108.999864,58.4619529 C108.999864,88.6096706 84.5988513,113.050188 54.4998638,113.050188 C24.4008763,113.050188 -0.00013625,88.6096706 -0.00013625,58.4619529 C-0.00013625,28.3142353 24.4008763,3.87371765 54.4998638,3.87371765 C84.5988513,3.87371765 108.999864,28.3142353 108.999864,58.4619529" id="Fill-1" fill="#EBF3FA"></path>
                    <path d="M108.999864,58.4619529 C108.999864,88.6096706 84.5988513,113.050188 54.4998638,113.050188 C24.4008763,113.050188 -0.00013625,88.6096706 -0.00013625,58.4619529 C-0.00013625,28.3142353 24.4008763,3.87371765 54.4998638,3.87371765 C84.5988513,3.87371765 108.999864,28.3142353 108.999864,58.4619529 Z" id="Stroke-3" stroke="#A8B6C6" stroke-width="2"></path>
                    <g id="PIV" transform="translate(13.625000, 0.924315)">
                        <g id="Group-27">
                            <path d="M75.6186138,113.953078 L6.13111375,113.953078 C3.12135125,113.953078 0.68111375,111.508889 0.68111375,108.494254 L0.68111375,6.58211294 C0.68111375,3.56611294 3.12135125,1.12328941 6.13111375,1.12328941 L75.6186138,1.12328941 C78.6283763,1.12328941 81.0686138,3.56611294 81.0686138,6.58211294 L81.0686138,108.494254 C81.0686138,111.508889 78.6283763,113.953078 75.6186138,113.953078" id="Fill-5" fill="#FFFFFF"></path>
                            <path d="M75.6186138,113.953078 L6.13111375,113.953078 C3.12135125,113.953078 0.68111375,111.508889 0.68111375,108.494254 L0.68111375,6.58211294 C0.68111375,3.56611294 3.12135125,1.12328941 6.13111375,1.12328941 L75.6186138,1.12328941 C78.6283763,1.12328941 81.0686138,3.56611294 81.0686138,6.58211294 L81.0686138,108.494254 C81.0686138,111.508889 78.6283763,113.953078 75.6186138,113.953078 Z" id="Stroke-7" stroke="#112E51"></path>
                            <path d="M45.8391325,58.6471435 L11.7766325,58.6471435 C10.27107,58.6471435 9.0516325,57.4243671 9.0516325,55.9177318 L9.0516325,12.2471435 C9.0516325,10.7405082 10.27107,9.51773176 11.7766325,9.51773176 L45.8391325,9.51773176 C47.3433325,9.51773176 48.5641325,10.7405082 48.5641325,12.2471435 L48.5641325,55.9177318 C48.5641325,57.4243671 47.3433325,58.6471435 45.8391325,58.6471435" id="Fill-9" fill="#EBF3FA"></path>
                            <ellipse id="Oval" stroke="#EBF3FA" cx="65.4" cy="43.6705882" rx="10.4" ry="10.4176471"></ellipse>
                            <ellipse id="Oval" fill="#EBF3FA" cx="65.4" cy="43.6705882" rx="8.175" ry="8.18823529"></ellipse>
                            <path d="M64.66207,15.1085224 L56.947595,15.1085224 C55.7281575,15.1085224 54.7389825,14.1177459 54.7389825,12.8963341 C54.7389825,11.6749224 55.7281575,10.6855106 56.947595,10.6855106 L64.66207,10.6855106 C65.8815075,10.6855106 66.8706825,11.6749224 66.8706825,12.8963341 C66.8706825,14.1177459 65.8815075,15.1085224 64.66207,15.1085224" id="Fill-11" fill="#5B616A"></path>
                            <path d="M69.7128575,23.2967576 L56.947595,23.2967576 C55.7281575,23.2967576 54.7389825,22.3059812 54.7389825,21.0845694 C54.7389825,19.8631576 55.7281575,18.8737459 56.947595,18.8737459 L69.7128575,18.8737459 C70.932295,18.8737459 71.92147,19.8631576 71.92147,21.0845694 C71.92147,22.3059812 70.932295,23.2967576 69.7128575,23.2967576" id="Fill-13" fill="#5B616A"></path>
                            <path d="M70.1747429,31.7171294 L57.0157221,31.7171294 C55.7586697,31.7171294 54.7389825,30.7263529 54.7389825,29.5049412 C54.7389825,28.2835294 55.7586697,27.2941176 57.0157221,27.2941176 L70.1747429,27.2941176 C71.4317953,27.2941176 72.4514825,28.2835294 72.4514825,29.5049412 C72.4514825,30.7263529 71.4317953,31.7171294 70.1747429,31.7171294" id="Fill-13" fill="#5B616A"></path>
                            <path d="M65.4252782,39.9053647 L56.3151868,39.9053647 C55.4449198,39.9053647 54.7389825,38.9145882 54.7389825,37.6931765 C54.7389825,36.4717647 55.4449198,35.4823529 56.3151868,35.4823529 L65.4252782,35.4823529 C66.2955452,35.4823529 67.0014825,36.4717647 67.0014825,37.6931765 C67.0014825,38.9145882 66.2955452,39.9053647 65.4252782,39.9053647" id="Fill-13" fill="#5B616A"></path>
                            <path d="M70.6855462,71.7743859 L11.0639087,71.7743859 C9.84447125,71.7743859 8.85665875,70.7836094 8.85665875,69.5621976 L8.85665875,66.1245035 C8.85665875,64.9030918 9.84447125,63.9123153 11.0639087,63.9123153 L70.6855462,63.9123153 C71.9049837,63.9123153 72.8941587,64.9030918 72.8941587,66.1245035 L72.8941587,69.5621976 C72.8941587,70.7836094 71.9049837,71.7743859 70.6855462,71.7743859" id="Fill-19" fill="#5B616A"></path>
                            <path d="M36.6410312,79.9339624 L11.2481187,79.9339624 C10.0286812,79.9339624 9.03950625,78.9431859 9.03950625,77.7217741 C9.03950625,76.5003624 10.0286812,75.5109506 11.2481187,75.5109506 L36.6410312,75.5109506 C37.8604687,75.5109506 38.8496437,76.5003624 38.8496437,77.7217741 C38.8496437,78.9431859 37.8604687,79.9339624 36.6410312,79.9339624" id="Fill-21" fill="#5B616A"></path>
                            <path d="M70.5018812,79.9339624 L45.1089687,79.9339624 C43.8895312,79.9339624 42.9017187,78.9431859 42.9017187,77.7217741 C42.9017187,76.5003624 43.8895312,75.5109506 45.1089687,75.5109506 L70.5018812,75.5109506 C71.7226812,75.5109506 72.7104937,76.5003624 72.7104937,77.7217741 C72.7104937,78.9431859 71.7226812,79.9339624 70.5018812,79.9339624" id="Fill-23" fill="#5B616A"></path>
                            <path d="M47.573595,106.33256 L34.1761325,106.33256 C32.956695,106.33256 31.96752,105.341784 31.96752,104.120372 L31.96752,88.5531718 C31.96752,87.33176 32.956695,86.3409835 34.1761325,86.3409835 L47.573595,86.3409835 C48.7930325,86.3409835 49.7822075,87.33176 49.7822075,88.5531718 L49.7822075,104.120372 C49.7822075,105.341784 48.7930325,106.33256 47.573595,106.33256" id="Fill-25" fill="#F5D600"></path>
                        </g>
                        <g id="Group-30" transform="translate(10.900000, 17.741176)">
                            <mask id="mask-2" fill="white">
                                <use xlink:href="#path-1"></use>
                            </mask>
                            <g id="Clip-29"></g>
                            <polygon id="Fill-28" fill="#D08B5B" mask="url(#mask-2)" points="-10.853675 47.8534118 46.1710375 47.8534118 46.1710375 -5.53797647 -10.853675 -5.53797647"></polygon>
                        </g>
                        <g id="Group-34" transform="translate(10.900000, 45.035294)">
                            <mask id="mask-4" fill="white">
                                <use xlink:href="#path-3"></use>
                            </mask>
                            <g id="Clip-32"></g>
                            <polygon id="Fill-31" fill="#E6E6E6" mask="url(#mask-4)" points="-5.5930625 20.4310118 40.910425 20.4310118 40.910425 -6.39364706 -5.5930625 -6.39364706"></polygon>
                            <polygon id="Fill-33" fill="#262E33" mask="url(#mask-4)" points="-10.853675 20.4310118 46.1710375 20.4310118 46.1710375 -11.1605647 -10.853675 -11.1605647"></polygon>
                        </g>
                        <g id="Group-37" transform="translate(21.800000, 45.035294)">
                            <mask id="mask-6" fill="white">
                                <use xlink:href="#path-5"></use>
                            </mask>
                            <g id="Clip-36"></g>
                            <polygon id="Fill-35" fill="#000000" mask="url(#mask-6)" points="-6.4868625 12.0735529 20.1690875 12.0735529 20.1690875 -10.3553882 -6.4868625 -10.3553882"></polygon>
                        </g>
                        <g id="Group-40" transform="translate(10.900000, 45.035294)">
                            <mask id="mask-8" fill="white">
                                <use xlink:href="#path-7"></use>
                            </mask>
                            <g id="Clip-39"></g>
                            <polygon id="Fill-38" fill="#3A4C5A" mask="url(#mask-8)" points="-5.5930625 20.4310118 40.910425 20.4310118 40.910425 -6.41002353 -5.5930625 -6.41002353"></polygon>
                        </g>
                        <g id="Group-43" transform="translate(35.425000, 53.223529)">
                            <mask id="mask-10" fill="white">
                                <use xlink:href="#path-9"></use>
                            </mask>
                            <g id="Clip-42"></g>
                            <polygon id="Fill-41" fill="#E6E6E6" mask="url(#mask-10)" points="-5.6244 8.32743529 11.453175 8.32743529 11.453175 -6.61882353 -5.6244 -6.61882353"></polygon>
                        </g>
                        <g id="Group-46" transform="translate(19.075000, 45.035294)">
                            <mask id="mask-12" fill="white">
                                <use xlink:href="#path-11"></use>
                            </mask>
                            <g id="Clip-45"></g>
                            <polygon id="Fill-44" fill="#2F4351" mask="url(#mask-12)" points="-6.5359125 20.4310118 12.0213375 20.4310118 12.0213375 -6.59289412 -6.5359125 -6.59289412"></polygon>
                        </g>
                        <g id="Group-49" transform="translate(32.700000, 45.035294)">
                            <mask id="mask-14" fill="white">
                                <use xlink:href="#path-13"></use>
                            </mask>
                            <g id="Clip-48"></g>
                            <polygon id="Fill-47" fill="#2F4351" mask="url(#mask-14)" points="-6.678975 20.4310118 11.878275 20.4310118 11.878275 -6.59289412 -6.678975 -6.59289412"></polygon>
                        </g>
                        <g id="Group-68" transform="translate(12.262500, 15.011765)">
                            <path d="M5.56227,16.6031482 C8.4603075,11.3449365 17.0331575,11.3353835 19.78132,8.66874824 C21.533495,10.0498306 24.4097325,11.1170306 25.397545,14.1425835 C24.4097325,10.65576 21.533495,9.05086588 19.78132,7.45961882 C17.0331575,10.5329365 8.4603075,10.5438541 5.56227,16.6031482" id="Fill-50" fill="#AE744C"></path>
                            <path d="M22.7072888,14.3228612 C22.0778137,13.4248847 20.3515263,12.9226729 18.8650388,13.2925082 C18.6933638,13.3348141 18.5189638,13.2283671 18.4767263,13.05232 C18.4344887,12.8776376 18.5394013,12.7015906 18.7110763,12.6592847 C20.4387263,12.2294024 22.4375138,12.8121318 23.2318512,13.9462024 C23.3340388,14.0922259 23.3013387,14.2955671 23.1555512,14.4006494 C23.0111262,14.5043671 22.8108388,14.4702494 22.7072888,14.3228612" id="Fill-52" fill="#533734"></path>
                            <path d="M9.7236175,14.3228612 C10.3530925,13.4248847 12.07938,12.9213082 13.5658675,13.2925082 C13.738905,13.3348141 13.913305,13.2283671 13.95418,13.05232 C13.99778,12.8776376 13.891505,12.7015906 13.71983,12.6592847 C11.9935425,12.2294024 9.994755,12.8121318 9.199055,13.9462024 C9.0968675,14.0922259 9.13093,14.2955671 9.275355,14.4006494 C9.41978,14.5043671 9.62143,14.4702494 9.7236175,14.3228612" id="Fill-54" fill="#533734"></path>
                            <path d="M20.3967612,17.3941318 C20.9294987,17.3941318 21.3614112,16.9560612 21.3614112,16.4156376 C21.3614112,15.8765788 20.9294987,15.4385082 20.3967612,15.4385082 C19.8640238,15.4385082 19.4321113,15.8765788 19.4321113,16.4156376 C19.4321113,16.9560612 19.8640238,17.3941318 20.3967612,17.3941318" id="Fill-56" fill="#533734"></path>
                            <path d="M12.0348263,17.3941318 C12.5675638,17.3941318 12.9994763,16.9560612 12.9994763,16.4156376 C12.9994763,15.8765788 12.5675638,15.4385082 12.0348263,15.4385082 C11.5020888,15.4385082 11.0701763,15.8765788 11.0701763,16.4156376 C11.0701763,16.9560612 11.5020888,17.3941318 12.0348263,17.3941318" id="Fill-58" fill="#533734"></path>
                            <path d="M14.286085,19.6317035 C14.286085,20.1966918 15.14991,20.6538682 16.215385,20.6538682 C17.28086,20.6538682 18.1460475,20.1966918 18.1460475,19.6317035" id="Fill-60" fill="#AE744C"></path>
                            <path d="M13.9641263,22.4470918 C13.9641263,23.7067153 14.9723762,24.72888 16.2149763,24.72888 C17.4589388,24.72888 18.4671888,23.7067153 18.4671888,22.4470918" id="Fill-62" fill="#3D291B"></path>
                            <path d="M25.502185,16.8835953 L25.502185,20.6297129 C25.502185,25.6682071 21.3806225,29.7514071 16.2957725,29.7514071 C11.212285,29.7514071 7.08936,25.6682071 7.08936,20.6297129 L7.08936,16.8835953 L7.08936,19.3264188 C7.08936,24.3635482 11.212285,28.4481129 16.2957725,28.4481129 C21.3806225,28.4481129 25.502185,24.3635482 25.502185,19.3264188 L25.502185,16.8835953 Z" id="Fill-64" fill="#AE744C"></path>
                            <path d="M4.58631125,26.2853271 L4.58631125,11.8945035 C4.58631125,11.3199624 4.65034875,10.7617976 4.77433625,10.2227388 C5.27028625,6.96518588 7.15189875,4.37633882 9.30192375,2.78099765 C12.5392237,0.38048 17.9946737,-0.312790588 19.8817363,2.54080941 C21.2891988,1.91577412 23.3738237,2.48485647 24.9148112,3.91916235 C26.4707863,5.44899765 27.7133862,8.82937412 26.9749112,11.5942682 C26.9912612,11.8003388 26.9994362,12.0091388 26.9994362,12.2193035 L26.9994362,15.7716329 C26.8563738,14.9637271 26.2146362,14.3264094 25.4039487,14.1913035 L25.4039487,14.1640094 C24.4215862,10.6621741 21.5371737,9.05455059 19.7809113,7.46057412 C17.0341112,10.5338918 8.46126125,10.5434447 5.56186125,16.6027388 L5.56186125,18.2294682 C5.56186125,19.2079624 6.28262375,20.0185976 7.22274875,20.1591624 C7.50614875,23.4508329 9.54172375,26.2430212 12.3920737,27.5968094 L12.3920737,27.6609506 C12.8689487,34.7915388 11.3129738,43.7262682 1.17052375,40.9954918 C3.38322375,39.7003859 4.55497375,31.4097976 4.58631125,26.2853271 L4.58631125,26.2853271 Z M20.1991988,27.5968094 C23.0509112,26.2430212 25.0864863,23.4508329 25.3698863,20.1591624 C26.1969238,20.0349741 26.8550113,19.3921976 26.9994363,18.5720094 L26.9994363,18.7930918 C26.9994363,21.3669271 27.6111988,23.9039153 28.7829488,26.1966212 L33.1661113,34.7669741 C34.2983488,36.9818918 33.9645363,39.5598212 32.5257363,41.3967153 C32.0652112,35.3510682 27.0144238,30.5882447 20.8504738,30.5882447 L20.1991988,30.5882447 L20.1991988,27.5968094 Z" id="Fill-66" fill="#4A312C"></path>
                        </g>
                    </g>
                </g>
                <rect id="Rectangle" x="0" y="0" width="120" height="116"></rect>
            </g>
        </g>
    </g>
</svg>
