<svg width="120" height="116" xmlns="http://www.w3.org/2000/svg" xmlns:xlink="http://www.w3.org/1999/xlink"><defs><path d="M8.453 10.407v1.006a1.96 1.96 0 00-1.645 1.927v2.28c0 .986.738 1.802 1.694 1.936.34 3.226 2.378 5.951 5.212 7.284v2.996h-.659c-6.537 0-11.836 5.251-11.836 11.73v1.464h32.879v-1.464c0-6.479-5.3-11.73-11.836-11.73h-.658V24.84c2.834-1.333 4.87-4.058 5.21-7.284a1.961 1.961 0 001.695-1.936v-2.28a1.96 1.96 0 00-1.645-1.927v-1.006c0-5.037-4.121-9.121-9.206-9.121-5.083 0-9.205 4.084-9.205 9.121z" id="a"/><path d="M1.22 12.149v1.46h32.878v-1.46c0-6.16-4.777-11.213-10.856-11.707.004.057.006.113.006.172 0 1.935-2.466 3.503-5.507 3.503-3.042 0-5.507-1.568-5.507-3.503 0-.061.003-.123.008-.184C6.084.845 1.22 5.934 1.22 12.149z" id="c"/><path d="M1.342.43l-.006.092-.002.092.008.192c.151 1.782 2.395 3.21 5.197 3.306l.302.005.302-.005c2.8-.096 5.046-1.524 5.197-3.306l.008-.192-.002-.086-.004-.086.349.034c.219.024.436.054.652.09l.003.038.01.254-.007.22c-.17 2.321-3.019 4.17-6.508 4.17l-.325-.005C3.069 5.13.324 3.21.324.858L.335.604.341.54C.671.489 1.005.453 1.342.43z" id="e"/><path d="M1.22 12.149v1.46h11.402c-.56-1.972-.881-4.29-.881-6.772 0-2.336.284-4.53.786-6.423C6.235.689 1.219 5.837 1.219 12.149zm22.522-5.312c0 2.481-.323 4.8-.882 6.772h11.238v-1.46c0-6.256-4.928-11.37-11.141-11.727.498 1.893.785 4.082.785 6.415z" id="g"/><path d="M2.76.336L1.187 1.504l3.453-.326L3.557.34A.66.66 0 002.76.336z" id="i"/><path d="M3.4.394L.279 5.287l.985.978-.985 1.47 2.301 5.874h2.63C4.004 7.844 3.73 3.384 4.387.23c-.324.005-.652.06-.986.163z" id="k"/><path d="M.132 13.609h2.631l2.301-5.874-.986-1.47.986-.978L1.942.394A3.513 3.513 0 00.954.231c.66 3.153.384 7.613-.822 13.378z" id="m"/></defs><g fill="none" fill-rule="evenodd"><path d="M114 58.462c0 30.148-24.401 54.588-54.5 54.588C29.4 113.05 5 88.61 5 58.462S29.4 3.874 59.5 3.874c30.099 0 54.5 24.44 54.5 54.588" fill="#EBF3FA"/><path d="M114 58.462c0 30.148-24.401 54.588-54.5 54.588C29.4 113.05 5 88.61 5 58.462S29.4 3.874 59.5 3.874c30.099 0 54.5 24.44 54.5 54.588z" stroke="#A8B6C6" stroke-width="2"/><g transform="translate(18.625 .924)"><path d="M75.619 113.953H6.13a5.455 5.455 0 01-5.45-5.459V6.582a5.454 5.454 0 015.45-5.459H75.62c3.01 0 5.45 2.443 5.45 5.46v101.911a5.455 5.455 0 01-5.45 5.46" fill="#FFF"/><path d="M75.619 113.953H6.13a5.455 5.455 0 01-5.45-5.459V6.582a5.454 5.454 0 015.45-5.459H75.62c3.01 0 5.45 2.443 5.45 5.46v101.911a5.455 5.455 0 01-5.45 5.46z" stroke="#112E51"/><path d="M45.84 58.647H11.776a2.727 2.727 0 01-2.725-2.73v-43.67c0-1.506 1.22-2.73 2.725-2.73h34.062a2.728 2.728 0 012.725 2.73v43.67c0 1.507-1.22 2.73-2.725 2.73" fill="#EBF3FA"/><ellipse stroke="#EBF3FA" cx="65.4" cy="43.671" rx="10.4" ry="10.418"/><ellipse fill="#EBF3FA" cx="65.4" cy="43.671" rx="8.175" ry="8.188"/><path d="M64.662 15.109h-7.714a2.21 2.21 0 010-4.423h7.714a2.21 2.21 0 010 4.423M69.713 23.297H56.948a2.21 2.21 0 010-4.423h12.765a2.21 2.21 0 010 4.423M70.175 31.717h-13.16c-1.256 0-2.276-.99-2.276-2.212 0-1.221 1.02-2.21 2.277-2.21h13.159c1.257 0 2.276.989 2.276 2.21s-1.02 2.212-2.276 2.212M65.425 39.905h-9.11c-.87 0-1.576-.99-1.576-2.212 0-1.221.706-2.21 1.576-2.21h9.11c.87 0 1.576.989 1.576 2.21 0 1.222-.705 2.212-1.576 2.212M70.686 71.774H11.064a2.21 2.21 0 01-2.207-2.212v-3.437a2.21 2.21 0 012.207-2.213h59.622c1.219 0 2.208.991 2.208 2.213v3.437a2.21 2.21 0 01-2.208 2.212M36.641 79.934H11.248a2.21 2.21 0 010-4.423h25.393a2.21 2.21 0 010 4.423M70.502 79.934H45.109a2.21 2.21 0 01-2.207-2.212c0-1.222.988-2.211 2.207-2.211h25.393c1.22 0 2.208.99 2.208 2.21a2.21 2.21 0 01-2.208 2.213" fill="#5B616A"/><path d="M47.574 106.333H34.176a2.21 2.21 0 01-2.208-2.213V88.553a2.21 2.21 0 012.208-2.212h13.398c1.219 0 2.208.99 2.208 2.212v15.567a2.21 2.21 0 01-2.208 2.213" fill="#F5D600"/></g><g transform="translate(29.525 18.665)"><mask id="b" fill="#fff"><use xlink:href="#a"/></mask><path fill="#D08B5B" mask="url(#b)" d="M-10.854 47.853h57.025V-5.538h-57.025z"/></g><g transform="translate(29.525 45.96)"><mask id="d" fill="#fff"><use xlink:href="#c"/></mask><path fill="#E6E6E6" mask="url(#d)" d="M-5.593 20.431H40.91V-6.394H-5.593z"/><path fill="#262E33" mask="url(#d)" d="M-10.854 20.431h57.025v-31.592h-57.025z"/></g><g transform="translate(40.425 45.96)"><mask id="f" fill="#fff"><use xlink:href="#e"/></mask><path fill="#000" mask="url(#f)" d="M-6.487 12.074H20.17v-22.43H-6.487z"/></g><g transform="translate(29.525 45.96)"><mask id="h" fill="#fff"><use xlink:href="#g"/></mask><path fill="#3A4C5A" mask="url(#h)" d="M-5.593 20.431H40.91V-6.41H-5.593z"/></g><g transform="translate(54.05 54.148)"><mask id="j" fill="#fff"><use xlink:href="#i"/></mask><path fill="#E6E6E6" mask="url(#j)" d="M-5.624 8.327h17.077V-6.619H-5.624z"/></g><g transform="translate(37.7 45.96)"><mask id="l" fill="#fff"><use xlink:href="#k"/></mask><path fill="#2F4351" mask="url(#l)" d="M-6.536 20.431h18.557V-6.593H-6.536z"/></g><g transform="translate(51.325 45.96)"><mask id="n" fill="#fff"><use xlink:href="#m"/></mask><path fill="#2F4351" mask="url(#n)" d="M-6.679 20.431h18.557V-6.593H-6.679z"/></g><path d="M36.45 32.54c2.898-5.259 11.47-5.269 14.219-7.935 1.752 1.38 4.628 2.448 5.616 5.474-.988-3.487-3.864-5.092-5.616-6.683-2.748 3.073-11.321 3.084-14.22 9.143" fill="#AE744C"/><path d="M53.595 30.259c-.63-.898-2.356-1.4-3.842-1.03a.321.321 0 01-.389-.24.325.325 0 01.235-.394c1.727-.43 3.726.153 4.52 1.287.103.146.07.35-.076.455a.319.319 0 01-.448-.078M40.611 30.259c.63-.898 2.356-1.402 3.842-1.03a.32.32 0 00.389-.24.324.324 0 00-.235-.394c-1.726-.43-3.725.153-4.52 1.287a.33.33 0 00.076.455c.144.103.346.07.448-.078M51.284 33.33a.972.972 0 00.965-.978.971.971 0 00-.965-.977.971.971 0 00-.964.977c0 .54.432.978.964.978M42.922 33.33a.972.972 0 00.965-.978.971.971 0 00-.965-.977.971.971 0 00-.964.977c0 .54.432.978.964.978" fill="#533734"/><path d="M45.174 35.568c0 .565.863 1.022 1.929 1.022 1.065 0 1.93-.457 1.93-1.022" fill="#AE744C"/><path d="M44.852 38.383c0 1.26 1.008 2.282 2.25 2.282 1.244 0 2.253-1.022 2.253-2.282" fill="#3D291B"/><path d="M56.39 32.82v3.746c0 5.038-4.122 9.121-9.207 9.121-5.083 0-9.206-4.083-9.206-9.121V32.82v2.442c0 5.038 4.123 9.122 9.206 9.122 5.085 0 9.207-4.084 9.207-9.122V32.82z" fill="#AE744C"/><path d="M35.474 42.221v-14.39c0-.575.064-1.133.188-1.672.496-3.258 2.377-5.847 4.527-7.442 3.238-2.4 8.693-3.094 10.58-.24 1.408-.625 3.492-.056 5.033 1.378 1.556 1.53 2.799 4.91 2.06 7.675.017.206.025.415.025.625v3.553a1.951 1.951 0 00-1.596-1.58V30.1c-.982-3.502-3.866-5.11-5.623-6.703-2.746 3.073-11.32 3.083-14.219 9.142v1.627c0 .978.721 1.789 1.661 1.93a9.11 9.11 0 005.17 7.437v.064c.476 7.13-1.08 16.065-11.222 13.335 2.213-1.296 3.384-9.586 3.416-14.71zm15.613 1.312a9.11 9.11 0 005.17-7.438 1.952 1.952 0 001.63-1.587v.221c0 2.574.612 5.111 1.783 7.404l4.384 8.57a6.183 6.183 0 01-.64 6.63c-.461-6.046-5.512-10.809-11.676-10.809h-.651v-2.991z" fill="#4A312C"/><path d="M0 0h120v116H0z"/></g></svg>