<svg xmlns="http://www.w3.org/2000/svg" width="84" height="95" viewBox="0 0 84 95" fill="none"><g clip-path="url(#a)" fill="#e21c3d"><path d="M0 54.43c.231-11.534 4.613-21.928 13.456-30.291a40.06 40.06 0 0 1 22.169-10.716c11.494-1.684 22.016.869 31.356 7.805 8.572 6.365 13.851 14.949 16.056 25.417.724 3.43 1.237 6.92.803 10.413-.783 6.294-4.218 10.755-9.986 13.261-9.336 4.056-20.289-1.79-22.275-11.802a21.47 21.47 0 0 1-.392-3.493c-.141-4.795-3.728-8.733-8.267-9.005-5.056-.307-9.277 2.97-9.861 7.915-.392 3.269.137 6.53 1.006 9.705 3.168 11.57 10.284 19.611 21.398 24.04 1.547.618 2.796 1.428 2.98 3.249a3.6 3.6 0 0 1-.215 1.834 3.58 3.58 0 0 1-1.096 1.483 3.56 3.56 0 0 1-1.686.736 3.55 3.55 0 0 1-1.827-.206 40.95 40.95 0 0 1-14.012-8.363 41.65 41.65 0 0 1-12.293-19.67c-1.375-4.803-2.169-9.705-1.371-14.713 1.093-6.849 7.049-12.329 13.89-13.277 8.169-1.137 16.538 4.351 18.257 13.08.282 1.436.278 2.923.466 4.382.627 4.886 4.359 8.143 9.25 8.045 2.324-.053 4.537-1.007 6.177-2.662s2.58-3.882 2.622-6.217a34.934 34.934 0 0 0-6.911-21.194A34.67 34.67 0 0 0 51.403 21.55c-8.012-2.258-15.954-1.782-23.547 1.703-10.26 4.721-16.8 12.675-19.58 23.651a33.74 33.74 0 0 0 .235 17.443c.345 1.243.427 2.467-.356 3.576a3.5 3.5 0 0 1-1.481 1.319 3.48 3.48 0 0 1-1.957.298 3.432 3.432 0 0 1-2.001-.859 3.45 3.45 0 0 1-1.085-1.894A47.63 47.63 0 0 1 0 54.43zm12.817 1.436c0-11.196 4.754-20.527 15.241-26.499a27.084 27.084 0 0 1 18.586-3.19C58.001 28.223 65.645 34.8 69.651 45.63a26.3 26.3 0 0 1 1.543 9.233c0 2.089-1.312 3.604-3.207 3.781-2.056.193-3.642-1.019-3.979-3.147-.29-1.833-.294-3.725-.72-5.507a21.13 21.13 0 0 0-3.749-8.177 21.03 21.03 0 0 0-6.801-5.863 21.74 21.74 0 0 0-11.235-2.793 20.56 20.56 0 0 0-13.213 4.847c-5.874 4.929-8.455 11.267-8.114 18.961a49.15 49.15 0 0 0 6.591 22.482 3.6 3.6 0 0 1-.303 4.204c-.485.579-1.14.99-1.871 1.173a3.56 3.56 0 0 1-2.2-.153A4.565 4.565 0 0 1 20.4 82.92a56.37 56.37 0 0 1-7.104-20.81c-.235-1.81-.278-3.651-.478-6.243zM41.671.004a57.02 57.02 0 0 1 24.056 5.622 54.037 54.037 0 0 1 13.397 9.225c1.805 1.684 1.993 3.906.458 5.531-1.32 1.396-3.246 1.534-4.836.271-1.273-1.015-2.459-2.144-3.732-3.147a44.317 44.317 0 0 0-20.528-9.249c-14.854-2.514-28.106 1.18-39.67 10.917a9.706 9.706 0 0 1-2.741 1.751c-1.375.515-2.968-.197-3.756-1.377a3.71 3.71 0 0 1-.65-2.179 3.7 3.7 0 0 1 .744-2.148 11.25 11.25 0 0 1 1.453-1.448C13.832 6.908 22.952 2.506 33.342.881c2.749-.437 5.565-.598 8.33-.877zm25.795 84.41a29.234 29.234 0 0 1-17.07-5.604A29.45 29.45 0 0 1 39.78 64.26a29.27 29.27 0 0 1-1.461-8.757c-.043-3.065 2.69-4.894 5.314-3.592A3.29 3.29 0 0 1 44.929 53a3.32 3.32 0 0 1 .588 1.591c.204 1.648.231 3.336.591 4.949 1.758 7.868 6.36 13.304 13.89 16.153a21.68 21.68 0 0 0 10.26 1.227 3.55 3.55 0 0 1 1.402.105 3.56 3.56 0 0 1 1.252.641 3.58 3.58 0 0 1 .909 1.078 3.59 3.59 0 0 1 .424 1.347c.208 2.234-1.175 3.898-3.376 4.064l-3.403.26z"/></g><defs><clipPath id="a"><path fill="#fff" d="M0 0h84v95H0z"/></clipPath></defs></svg>