<svg xmlns="http://www.w3.org/2000/svg" viewBox="0 0 22 17.28"><g fill="#5b616a"><path d="M21.57 2.44L20 1.66a.72.72 0 00-.36-.09.79.79 0 00-.38.1l-8.47 4.75-1.35-.81-.15-.06a3.23 3.23 0 00.12-1.19A4.57 4.57 0 007.11 1a6.44 6.44 0 00-3.4-1A3.89 3.89 0 001 1a3 3 0 00-1 2.5 4.63 4.63 0 002.3 3.33 6.48 6.48 0 003.41 1 4.46 4.46 0 001.85-.38 1 1 0 00.27.27l1.5.9-1.5.9a1 1 0 00-.27.27 4.47 4.47 0 00-1.85-.38 6.48 6.48 0 00-3.41 1A4.63 4.63 0 000 13.78a3.08 3.08 0 001 2.54 3.94 3.94 0 002.73 1 6.44 6.44 0 003.4-1 4.59 4.59 0 002.31-3.33 3.23 3.23 0 00-.12-1.19l.15-.06 1.35-.81 3.42 1.92c.36-.08.77-.16 1.2-.23l-2.94-1.71a.33.33 0 00.16-.09l2.17-1.69 3.88 3 1.18-.06-4.42-3.43 6.22-4.89a.76.76 0 00.31-.68.83.83 0 00-.43-.63zm-14.46 3a2 2 0 01-1.39.44 4.51 4.51 0 01-2.36-.72C2 4.33 1.57 3.09 2.32 2.41A2 2 0 013.71 2a4.54 4.54 0 012.36.72c1.32.8 1.79 2.04 1.04 2.73zm-1 9.15a4.54 4.54 0 01-2.36.72 2 2 0 01-1.39-.44c-.75-.69-.28-1.93 1-2.76a4.51 4.51 0 012.36-.72 2 2 0 011.39.44c.75.69.28 1.93-1.05 2.77zm2.14-7.52L8.36 7l.09-.07c.1-.09.17-.18.27-.28L9 6.28l1 .58-.17.14a.81.81 0 00-.41.69v.14zm3.93 3.14L11 9.82 9 11l-.32-.32-.27-.29a.25.25 0 01-.09-.07l-.11-.1 2-1.18V7.65l9.43-5.29 1.57.79z"/><circle cx="11.78" cy="8.64" r=".79"/></g></svg>