<svg xmlns="http://www.w3.org/2000/svg" viewBox="0 0 382.8 529.3"><title>security-key</title><g id="Layer_2" data-name="Layer 2"><g id="Layer_1-2" data-name="Layer 1"><path d="M64.85,168.4a12,12,0,0,0,.8,13l4.92,6.7a84.34,84.34,0,0,1,6.77-9.45A97.56,97.56,0,0,1,64.85,168.4Z" fill="none"/><path d="M122.84,213.24a12,12,0,0,1-.41-17l.7-.74q-3.54-.36-7-1l-13.84,9.86a24.71,24.71,0,0,0,13.51,18.27l9.77-6.89Z" fill="#dadfe5"/><path d="M125.89,175.69a12.07,12.07,0,0,1-.6,11q3,.27,6,.33l7.72-8.11A24.89,24.89,0,0,0,125.89,175.69Z" fill="#dadfe5"/><path d="M58.64,285,20.94,519.65l9.55,8.14a6.15,6.15,0,0,0,.79.58L70.09,286.82Z" fill="#d3d7dd"/><path d="M80.43,288.9l-38,236.48,19.09-12.53L79.35,500a4.54,4.54,0,0,0,.48-.39,6.29,6.29,0,0,0,1.73-2.51,7.08,7.08,0,0,0,.32-1.2l.64-4,1.29-8c0-.21,0-.42.07-.63a6.28,6.28,0,0,0-1.19-4.06l-3.82-5.28-3-4.08a6.38,6.38,0,0,1-1.19-3.46h0a6.21,6.21,0,0,1,.08-1.22l.82-5.1.82-5.1a6.15,6.15,0,0,1,.69-2,6.38,6.38,0,0,1,1.35-1.71c.15-.13.32-.27.49-.39l4.07-2.94.49-.39A6.42,6.42,0,0,0,84.72,446a6.22,6.22,0,0,0,.86-2.3l2.87-17.87a6.39,6.39,0,0,1,.69-2,7.25,7.25,0,0,1,.51-.8c.13-.17.26-.33.4-.48a6.65,6.65,0,0,1,.93-.82l1.73-1.25a6.27,6.27,0,0,0,2.53-4.11l1.35-8.4.68-4.2a6.45,6.45,0,0,0,.07-1.24c0-.21,0-.41,0-.62a6.18,6.18,0,0,0-.8-2.31,6,6,0,0,0-.34-.53l-4.81-6.65-9.63-13.31a6,6,0,0,1-.8-1.53,3.68,3.68,0,0,1-.15-.47,6.46,6.46,0,0,1-.24-1.46,6.36,6.36,0,0,1,.08-1.23l1.09-6.78,1.08-6.77a7.08,7.08,0,0,1,.32-1.2q.1-.29.24-.57a6.25,6.25,0,0,1,1-1.51,6.13,6.13,0,0,1,.93-.83L101.59,345a6.35,6.35,0,0,0,2.4-3.5c.05-.2.09-.41.13-.61l1.43-8.91a6.18,6.18,0,0,1,.33-1.23,5.47,5.47,0,0,1,.55-1.11,6.12,6.12,0,0,1,1-1.18,6.5,6.5,0,0,1,.69-.59,6.44,6.44,0,0,1,1.6-.84,6.8,6.8,0,0,1,1.1-.27,6.32,6.32,0,0,1,2,0h0a8.43,8.43,0,0,0,6.63-1.78,6.47,6.47,0,0,0,.56-.5,7.83,7.83,0,0,0,.83-.9c.16-.22.32-.44.47-.67a8.94,8.94,0,0,0,.73-1.49,8.18,8.18,0,0,0,.44-1.65l1-6.29A83.66,83.66,0,0,1,80.43,288.9Z" fill="#d3d7dd"/><path d="M171.5,191.2a13.5,13.5,0,0,0,21.32-15.46,97.61,97.61,0,0,1-22.64,13C170.66,189.53,171.1,190.35,171.5,191.2Z" fill="#ced2d9"/><path d="M170.64,171.76a13.41,13.41,0,0,0-3.7,8.57,89.12,89.12,0,0,0,19.72-11.22A13.5,13.5,0,0,0,170.64,171.76Z" fill="#ced2d9"/><path d="M169.5,189a13.86,13.86,0,0,0,1.6,1.85l.4.35c-.4-.85-.84-1.67-1.32-2.48Z" fill="#ced2d9"/><path d="M145.41,300.24,238.3,497l20.58,7.37a6.35,6.35,0,0,0,.82.24l.26.05a5.81,5.81,0,0,0,.58.09l.29,0,.58,0h.24a6.94,6.94,0,0,0,.81-.08h0a7.78,7.78,0,0,0,.81-.17l.2-.06.57-.2.23-.1a3.82,3.82,0,0,0,.54-.26l.19-.1a7,7,0,0,0,.68-.43h0L165.33,290.84Z" fill="#c2c6cc"/><path d="M191.39,278.53l-15.27,7.21,96,203.34,3.05-8.52,2.35-6.56a7.34,7.34,0,0,0-4.43-9.39l-1.7-.61-1-.35a7.34,7.34,0,0,1-4.44-9.39l1.6-4.45,1.11-3.1a7.37,7.37,0,0,0-1-6.82h0c-.09-.12-.19-.24-.29-.35a1.56,1.56,0,0,0-.16-.2,5.66,5.66,0,0,0-.42-.43.6.6,0,0,1-.08-.08c-.16-.14-.32-.28-.5-.41,0,0,0,0,0-.05a7.38,7.38,0,0,0-1.21-.74l0,0-.37-.15c-.11,0-.21-.1-.32-.13l-.84-.31a7.35,7.35,0,0,1-4.44-9.39l.09-.22a7.35,7.35,0,0,0-4.44-9.39l-8.17-2.93a7.34,7.34,0,0,1-4.43-9.39l.26-.73.48-1.33a7.35,7.35,0,0,0-4.44-9.39l-2.81-1-4.75-1.7a7.35,7.35,0,0,1-4.43-9.39l3.42-9.56,1.48-4.11a7.34,7.34,0,0,0-4.32-9.34l-.12-.05-.83-.3a7.19,7.19,0,0,1-2.5-1.51l-.2-.2c-.1-.1-.21-.2-.3-.31l-.06-.07a7.33,7.33,0,0,1-1.38-7.3l2.85-7.94a7.39,7.39,0,0,0,.13-4.53,8.93,8.93,0,0,0-.4-1.09l-22.42-47.45Z" fill="#c2c6cc"/><path d="M276.84,321.25,321,363.32a2,2,0,0,0,2.83-.07l8.27-8.69a2,2,0,0,0-.07-2.82l-44.17-42.08L280.93,317Z" fill="#fdb81e"/><polygon points="280.94 316.95 287.87 309.66 287.87 309.66 280.94 316.95" fill="#fdb81e"/><path d="M358.25,324.22a2,2,0,0,0,2.83-.07l8.27-8.69a2,2,0,0,0-.06-2.83l-44.17-42.07-11,11.59Z" fill="#fdb81e"/><polygon points="314.08 282.15 314.08 282.15 325.12 270.56 325.12 270.56 314.08 282.15" fill="#fdb81e"/><rect x="303.06" y="295.44" width="16" height="45" transform="translate(-133.7 323.91) rotate(-46.4)" fill="#fdb81e"/><polygon points="289.25 308.22 289.25 308.22 300.29 296.63 300.29 296.63 289.25 308.22" fill="#fdb81e"/><polygon points="301.67 295.18 334.25 326.22 345.29 314.63 312.7 283.6 304.16 292.56 301.67 295.18" fill="#fdb81e"/><polygon points="304.16 292.56 312.7 283.6 312.7 283.6 304.16 292.56" fill="#fdb81e"/><path d="M260.64,207.77a36,36,0,1,0,1.23,50.89A36,36,0,0,0,260.64,207.77Z" fill="#fdb81e"/><path d="M48.76,126.52a89,89,0,1,1,167.9,2.07l7,6.71A98,98,0,1,0,50.58,151l8.61-3.28A89.29,89.29,0,0,1,48.76,126.52Z" fill="#969aa0"/><path d="M83.54,172a89.47,89.47,0,0,1-11.6-9.25,11.89,11.89,0,0,0-7.09,5.68,97.56,97.56,0,0,0,12.49,10.24A82.84,82.84,0,0,1,83.54,172Z" fill="#969aa0"/><path d="M31.28,528.37a6.33,6.33,0,0,0,6.76-.1l4.4-2.89,38-236.48a83.66,83.66,0,0,1-22.3-59.51L32,225.18a7.38,7.38,0,0,1-6.12-8.45l4.25-26.42a7.38,7.38,0,0,1,13.21-3.23l17.55,23.67a84.18,84.18,0,0,1,9.73-22.66l-4.92-6.7a12.05,12.05,0,0,1,6.29-18.67l.22-.07L81.74,160a38.57,38.57,0,0,1,18.42-.5c1.87-1.07,3.79-2.1,5.78-3a83.48,83.48,0,0,1,19.8-6.5l-8.84-7.19a32,32,0,0,0-31.59-5.07l-26.12,10L50.58,151,30,158.81A32,32,0,0,0,9.8,183.63L.41,242.09A32,32,0,0,0,11.81,272l16.88,13.73a5.31,5.31,0,0,0-.19.81l-2,12.49a13.72,13.72,0,0,0,11.37,15.72A6.32,6.32,0,0,1,43.09,322l-30,187a6.31,6.31,0,0,0,2.13,5.8l5.76,4.91L58.64,285l11.45,1.83Z" fill="#dadfe5"/><path d="M176.12,285.74l15.27-7.21L167,255.27l-17-16.19-15.75-15A24.79,24.79,0,1,1,139,178.92l9.76-10.25,16.09-16.89a83.11,83.11,0,0,0-58.87,4.7c-2,.93-3.91,2-5.78,3a83.81,83.81,0,0,0-22.82,19.13,84.2,84.2,0,0,0-16.5,32.11A83.4,83.4,0,0,0,123.45,313.5h0a83.65,83.65,0,0,0,23.13,1.88,8.12,8.12,0,0,0,.42,1.13l82.67,175.06a7.31,7.31,0,0,0,4.16,3.77l25,9L238.3,497,145.41,300.24l19.92-9.4L265.68,503.35a7.3,7.3,0,0,0,2.59-3.46l3.88-10.81Z" fill="#ced2d9"/><path d="M379.08,308.15l-44.9-42.76a11.54,11.54,0,0,0-2.44-1.78l4.41-4.63a12,12,0,0,0-.41-17L223.7,135.3l-7-6.71L209.74,122a12,12,0,0,0-17,.41l-28,29.36-16.09,16.89L139,178.92,131.24,187a88.95,88.95,0,0,0,30.32-4.69c.91-.3,1.8-.63,2.69-1s1.8-.69,2.69-1a13.49,13.49,0,0,1,19.72-11.22,13.12,13.12,0,0,1,3.06,2.19,13.38,13.38,0,0,1,3.1,4.44A13.5,13.5,0,0,1,171.5,191.2l-.4-.35a13.86,13.86,0,0,1-1.6-1.85q-2.49,1-5.05,1.87a100.45,100.45,0,0,1-13.7,3.56,97.35,97.35,0,0,1-27.62,1.11l-.7.74a12,12,0,0,0,.41,17l2.69,2.56,8.69,8.28,15.75,15,17,16.19,24.42,23.26,10.33,9.85.8.76,46.32,44.11a12,12,0,0,0,17-.41l4.41-4.63a12.39,12.39,0,0,0,1.9,2.35L317,373.32a12,12,0,0,0,17-.41l45.52-47.79A12,12,0,0,0,379.08,308.15ZM261.87,258.66a36,36,0,1,1-1.23-50.89A36,36,0,0,1,261.87,258.66Zm70.24,95.9-8.27,8.69a2,2,0,0,1-2.83.07l-44.17-42.07,4.09-4.3,6.94-7.29L332,351.74A2,2,0,0,1,332.11,354.56Zm-10.27-15.31-32.59-31,11-11.59,32.58,31Zm12.41-13-32.58-31,2.49-2.62,8.54-9h0l32.59,31Zm35.1-10.76-8.27,8.69a2,2,0,0,1-2.83.07l-44.17-42.07,11-11.59,44.17,42.07A2,2,0,0,1,369.35,315.46Z" fill="#112e51"/><path d="M189.72,171.3a13.12,13.12,0,0,0-3.06-2.19,89.12,89.12,0,0,1-19.72,11.22c-.89.36-1.79.71-2.69,1s-1.78.66-2.69,1A88.95,88.95,0,0,1,131.24,187q-3-.06-6-.33a88.93,88.93,0,0,1-16.73-3.11,24.56,24.56,0,0,0-4.94,7.91,99.5,99.5,0,0,0,12.47,3.06q3.5.62,7,1a97.35,97.35,0,0,0,27.62-1.11,100.45,100.45,0,0,0,13.7-3.56Q167,190,169.5,189l.68-.28a97.61,97.61,0,0,0,22.64-13A13.38,13.38,0,0,0,189.72,171.3Z" fill="#969aa0"/></g></g></svg>