<?xml version="1.0" encoding="UTF-8" standalone="no"?>
<svg width="24px" height="32px" viewBox="0 0 24 32" version="1.1" xmlns="http://www.w3.org/2000/svg" xmlns:xlink="http://www.w3.org/1999/xlink">
    <!-- Generator: Sketch 3.8.3 (29802) - http://www.bohemiancoding.com/sketch -->
    <title>login-graphics_Shield</title>
    <desc>Created with Sketch.</desc>
    <defs></defs>
    <g id="Page-1" stroke="none" stroke-width="1" fill="none" fill-rule="evenodd">
        <g id="login-graphics_Shield">
            <g id="Layer_1">
                <path d="M12,31.29 C11.9339867,31.3032 11.8660133,31.3032 11.8,31.29 C3.75,27.7 0.92,22.92 0.25,21.54 C0.079073094,21.1881962 -0.00657343717,20.8010738 -9.38138456e-15,20.41 L-9.38138456e-15,4.41 C-0.00531853581,3.41808606 0.38362437,2.46468707 1.08126276,1.75954719 C1.77890114,1.05440732 2.7280859,0.65529017 3.72,0.65 L20.28,0.65 C21.2806853,0.655175787 22.2375593,1.06115865 22.9366528,1.77716575 C23.6357464,2.49317285 24.018743,3.45947681 24,4.46 L24,20.46 C24.0003896,20.8375889 23.9149004,21.2103216 23.75,21.55 C23.08,22.93 20.25,27.71 12.2,31.3 C12.1333276,31.3099163 12.0653508,31.3065174 12,31.29 L12,31.29 Z M3.72,1.71 C2.21064809,1.72100726 0.994451134,2.95061816 1,4.46 L1,20.46 C0.996052225,20.6845506 1.04396116,20.906985 1.14,21.11 C1.77,22.4 4.41,26.86 12,30.29 C19.59,26.85 22.22,22.4 22.86,21.11 C22.9634742,20.8917144 23.0115586,20.6512922 23,20.41 L23,4.41 C23.0053237,3.68330102 22.7217394,2.98425296 22.2116363,2.46664833 C21.7015331,1.9490437 21.0066993,1.65528501 20.28,1.65 L3.72,1.65 L3.72,1.71 Z" id="Shape" fill="#0071BC"></path>
                <path d="M12,21 L12,21 C10.9405452,20.998365 9.88323573,20.9046794 8.84,20.72 C8.70843578,20.6980172 8.59110928,20.6243764 8.51411289,20.5154547 C8.4371165,20.406533 8.40683402,20.271361 8.43,20.14 L9.43,14.21 C8.29784185,13.1575587 7.92515057,11.5194497 8.49055092,10.0807915 C9.05595127,8.64213333 10.4442268,7.69609368 11.99,7.69609368 C13.5357732,7.69609368 14.9240487,8.64213333 15.4894491,10.0807915 C16.0548494,11.5194497 15.6821582,13.1575587 14.55,14.21 L15.55,20.21 C15.573166,20.341361 15.5428835,20.476533 15.4658871,20.5854547 C15.3888907,20.6943764 15.2715642,20.7680172 15.14,20.79 C14.1012726,20.9497388 13.0507479,21.0199968 12,21 L12,21 Z M9.5,19.79 C10.3271738,19.9202371 11.1626909,19.9904205 12,20 L12,20 C12.8432556,20.0012484 13.6854828,19.9410893 14.52,19.82 L13.52,14.08 C13.4910302,13.9023548 13.5597774,13.7228482 13.7,13.61 C14.6252682,12.8831328 14.9879861,11.649594 14.6034349,10.5375789 C14.2188837,9.42556381 13.1716296,8.67961409 11.995,8.67961409 C10.8183704,8.67961409 9.7711163,9.42556381 9.38656511,10.5375789 C9.00201393,11.649594 9.36473177,12.8831328 10.29,13.61 C10.4336978,13.7247293 10.502827,13.9090739 10.47,14.09 L9.5,19.79 Z" id="Shape" fill="#E31C3D"></path>
            </g>
        </g>
    </g>
</svg>