<svg id="Layer_1" data-name="Layer 1" xmlns="http://www.w3.org/2000/svg" viewBox="0 0 25 31.59"><defs><style>.cls-1{fill:#0071bc;}.cls-2{fill:#e31c3d;}</style></defs><title>Shield v3</title><path class="cls-1" d="M12.5,31.59a1,1,0,0,1-.41-.09C3.89,27.85,1,22.94.3,21.52A3,3,0,0,1,0,20.21v-16A4.24,4.24,0,0,1,4.22,0H20.78A4.24,4.24,0,0,1,25,4.26v16a3,3,0,0,1-.3,1.31c-.69,1.42-3.59,6.33-11.79,10A1,1,0,0,1,12.5,31.59ZM4.22,2A2.24,2.24,0,0,0,2,4.26v16a1,1,0,0,0,.09.43c.61,1.24,3.13,5.5,10.41,8.85,7.28-3.36,9.8-7.61,10.41-8.85a1,1,0,0,0,.09-.43v-16A2.24,2.24,0,0,0,20.78,2Z"/><path class="cls-2" d="M12.52,21.26A21.65,21.65,0,0,1,9.25,21a1,1,0,0,1-.81-1.15l1-5.67a4.26,4.26,0,1,1,6.19,0l1,5.71A1,1,0,0,1,15.79,21,18.79,18.79,0,0,1,12.52,21.26Zm-1.93-2.11a14.54,14.54,0,0,0,1.93.11,16.86,16.86,0,0,0,1.94-.11l-.9-5.23a1,1,0,0,1,.35-.94,2.26,2.26,0,1,0-2.79,0,1,1,0,0,1,.36,1Z"/></svg>