<svg xmlns="http://www.w3.org/2000/svg" viewBox="0 0 10.29 8.57"><title>sign-in</title><g id="Layer_2" data-name="Layer 2"><g id="Layer_1-2" data-name="Layer 1"><g id="Layer_2-2" data-name="Layer 2"><g id="Layer_3" data-name="Layer 3"><path d="M7.8,4.59,4.16,8.23a.43.43,0,0,1-.73-.3V6h-3A.43.43,0,0,1,0,5.57V3a.43.43,0,0,1,.43-.43h3V.64a.42.42,0,0,1,.73-.3L7.8,4a.42.42,0,0,1,0,.59h0Zm2.49,2.06A1.93,1.93,0,0,1,8.36,8.57H6.22A.22.22,0,0,1,6,8.36c0-.19-.09-.64.21-.64H8.36A1.08,1.08,0,0,0,9.43,6.64V1.93A1.08,1.08,0,0,0,8.36.86H6.43C6.26.86,6,.89,6,.64S5.92,0,6.22,0H8.36a1.93,1.93,0,0,1,1.93,1.93h0Z" fill="#5b616a"/></g></g></g></g></svg>