<svg id="Black_w_white_type" data-name="Black w/white type" xmlns="http://www.w3.org/2000/svg" viewBox="0 0 333 333"><defs><style>.cls-1{fill:#fff;}</style></defs><title>18F_Logo-REV</title><path class="cls-1" d="M157.5,169.65a23.93,23.93,0,1,0,23.93,23.93A24,24,0,0,0,157.5,169.65Z"/><path class="cls-1" d="M157.5,153.77a19.14,19.14,0,1,0-19.14-19.14A19.16,19.16,0,0,0,157.5,153.77Z"/><path class="cls-1" d="M327.32,0H5.68A5.68,5.68,0,0,0,0,5.68V327.32A5.68,5.68,0,0,0,5.68,333H327.32a5.68,5.68,0,0,0,5.68-5.68V5.68A5.68,5.68,0,0,0,327.32,0ZM98,229.32a2,2,0,0,1-2,2H83.53a2,2,0,0,1-2-2V117.38H65.21a2,2,0,0,1-2-2v-11.9a2,2,0,0,1,2-2H96.05a2,2,0,0,1,2,2Zm59.47,4.06a39.85,39.85,0,0,1-39.81-39.81,39.37,39.37,0,0,1,17.05-32.52,35,35,0,1,1,45.51,0,39.37,39.37,0,0,1,17.05,32.52A39.85,39.85,0,0,1,157.5,233.38Zm112.27-118a2,2,0,0,1-2,2H233.43v39h28.31a2,2,0,0,1,2,2v11.9a2,2,0,0,1-2,2H233.43v57.08a2,2,0,0,1-2,2H218.94a2,2,0,0,1-2-2V103.51a2,2,0,0,1,2-2h48.86a2,2,0,0,1,2,2Z"/></svg>