<svg width="302" height="178" viewBox="0 0 302 178" fill="none" xmlns="http://www.w3.org/2000/svg">
<rect y="33" width="270" height="145" rx="10" fill="#EBF3FA"/>
<rect y="51" width="270" height="36" fill="#5B616A"/>
<rect x="18" y="105" width="58" height="10" rx="3" fill="#5B616A"/>
<rect x="18" y="125" width="78" height="10" rx="3" fill="#5B616A"/>
<rect x="18" y="145" width="126" height="10" rx="3" fill="#5B616A"/>
<rect x="184" y="105" width="68" height="10" rx="3" fill="#5B616A"/>
<rect x="86" y="105" width="58" height="10" rx="3" fill="#5B616A"/>
<rect x="184" y="125" width="29" height="10" rx="3" fill="#5B616A"/>
<rect x="223" y="125" width="29" height="10" rx="3" fill="#5B616A"/>
<circle cx="264.5" cy="37.5" r="37.5" fill="#0071BB"/>
<path d="M259.853 45.14C259.653 43.78 259.693 42.54 259.973 41.42C260.293 40.3 260.733 39.26 261.293 38.3C261.853 37.34 262.473 36.46 263.153 35.66C263.873 34.86 264.553 34.1 265.193 33.38C265.833 32.62 266.353 31.9 266.753 31.22C267.193 30.5 267.413 29.76 267.413 29C267.413 27.76 267.033 26.82 266.273 26.18C265.553 25.54 264.593 25.22 263.393 25.22C262.273 25.22 261.273 25.48 260.393 26C259.553 26.52 258.733 27.18 257.933 27.98L253.073 23.54C254.473 21.9 256.133 20.58 258.053 19.58C260.013 18.58 262.173 18.08 264.533 18.08C266.133 18.08 267.613 18.28 268.973 18.68C270.373 19.08 271.573 19.7 272.573 20.54C273.613 21.38 274.413 22.46 274.973 23.78C275.573 25.06 275.873 26.58 275.873 28.34C275.873 29.58 275.653 30.7 275.213 31.7C274.773 32.66 274.213 33.56 273.533 34.4C272.893 35.24 272.193 36.06 271.433 36.86C270.713 37.62 270.033 38.42 269.393 39.26C268.793 40.1 268.313 41 267.953 41.96C267.593 42.88 267.473 43.94 267.593 45.14H259.853ZM263.693 59.72C262.173 59.72 260.913 59.2 259.913 58.16C258.913 57.08 258.413 55.76 258.413 54.2C258.413 52.6 258.913 51.28 259.913 50.24C260.913 49.16 262.173 48.62 263.693 48.62C265.213 48.62 266.473 49.16 267.473 50.24C268.513 51.28 269.033 52.6 269.033 54.2C269.033 55.76 268.513 57.08 267.473 58.16C266.473 59.2 265.213 59.72 263.693 59.72Z" fill="white"/>
</svg>
