<svg width="122" height="116" xmlns="http://www.w3.org/2000/svg" xmlns:xlink="http://www.w3.org/1999/xlink"><defs><path d="M8.414 9.569v1.004a1.957 1.957 0 00-1.645 1.924v2.277c0 .985.736 1.797 1.694 1.932.34 3.22 2.38 5.943 5.216 7.273v2.99h-.659c-6.543 0-11.846 5.243-11.846 11.711v1.462H34.08V38.68c0-6.468-5.305-11.71-11.846-11.71h-.659v-2.991c2.837-1.33 4.875-4.052 5.215-7.273a1.959 1.959 0 001.695-1.932v-2.277c0-.968-.71-1.77-1.645-1.924V9.569c0-5.03-4.125-9.107-9.212-9.107-5.09 0-9.214 4.078-9.214 9.107z" id="a"/><path d="M1.174 12.669v1.457H34.08V12.67c0-6.15-4.782-11.193-10.865-11.687.004.058.006.113.006.173 0 1.931-2.468 3.497-5.513 3.497-3.042 0-5.512-1.566-5.512-3.497 0-.062.004-.124.01-.185C6.044 1.386 1.174 6.465 1.174 12.67z" id="c"/><path d="M1.174 12.669v1.457H34.08V12.67c0-6.15-4.782-11.193-10.865-11.687.004.058.006.113.006.173 0 1.931-2.468 3.497-5.513 3.497-3.042 0-5.512-1.566-5.512-3.497 0-.062.004-.124.01-.185C6.044 1.386 1.174 6.465 1.174 12.67z" id="e"/><path d="M1.297.97l-.007.092-.003.093.008.192c.152 1.778 2.4 3.203 5.202 3.3l.302.005.303-.006c2.804-.096 5.05-1.52 5.202-3.299l.008-.192-.002-.087-.005-.086.35.034c.219.024.436.054.652.09l.003.039.011.254-.008.219c-.17 2.318-3.02 4.163-6.514 4.163l-.325-.005C3.024 5.662.278 3.746.278 1.399l.011-.254.006-.065C.625 1.03.96.993 1.297.97z" id="g"/><path d="M1.174 12.669v1.457h11.412c-.559-1.967-.882-4.28-.882-6.758 0-2.334.286-4.522.787-6.413C6.194 1.23 1.174 6.368 1.174 12.67zm22.541-5.3c0 2.476-.323 4.79-.882 6.757H34.08V12.67c0-6.243-4.932-11.35-11.15-11.707.499 1.89.785 4.077.785 6.406z" id="i"/><path d="M2.716.876L1.144 2.042l3.454-.325L3.515.883A.667.667 0 003.11.745a.655.655 0 00-.394.131z" id="k"/><path d="M3.357.935L.232 5.82l.987.977-.987 1.466 2.303 5.862h2.632C3.96 8.373 3.686 3.92 4.345.773a3.52 3.52 0 00-.988.162z" id="m"/><path d="M.086 14.126h2.633l2.303-5.862-.986-1.466.986-.977L1.897.935A3.52 3.52 0 00.91.773c.658 3.147.383 7.6-.824 13.353z" id="o"/></defs><g fill="none" fill-rule="evenodd"><path d="M115.406 58.5c0 30.099-24.421 54.5-54.545 54.5-30.124 0-54.546-24.401-54.546-54.5S30.737 4 60.861 4s54.545 24.401 54.545 54.5" fill="#EBF3FA"/><path d="M115.406 58.5c0 30.099-24.421 54.5-54.545 54.5-30.124 0-54.546-24.401-54.546-54.5S30.737 4 60.861 4s54.545 24.401 54.545 54.5z" stroke="#A8B6C6" stroke-width="2"/><path d="M115.218 90.398H6.502a5.453 5.453 0 01-5.454-5.45V32.052c0-3.01 2.442-5.45 5.454-5.45h108.716a5.453 5.453 0 015.455 5.45v52.896c0 3.01-2.442 5.45-5.455 5.45" fill="#FFF"/><path d="M115.218 90.398H6.502a5.453 5.453 0 01-5.454-5.45V32.052c0-3.01 2.442-5.45 5.454-5.45h108.716a5.453 5.453 0 015.455 5.45v52.896c0 3.01-2.442 5.45-5.455 5.45z" stroke="#112E51"/><path d="M110.703 42.18H59.204a2.21 2.21 0 01-2.209-2.21v-3.432c0-1.219.989-2.208 2.21-2.208h51.498c1.22 0 2.21.989 2.21 2.208v3.433a2.21 2.21 0 01-2.21 2.208m-.253 40.313H97.04c-1.22 0-2.208-.99-2.208-2.209V64.74c0-1.22.988-2.207 2.209-2.207h13.409c1.221 0 2.21.988 2.21 2.207v15.543a2.21 2.21 0 01-2.21 2.209M80.482 51.093H59.255a2.21 2.21 0 01-2.21-2.209c0-1.22.99-2.209 2.21-2.209h21.227a2.21 2.21 0 110 4.417m30.156.001H89.412a2.21 2.21 0 01-2.21-2.209c0-1.22.99-2.209 2.21-2.209h21.226a2.21 2.21 0 110 4.417M89.37 59.926H59.19a2.21 2.21 0 01-2.21-2.209c0-1.22.99-2.209 2.21-2.209h30.18a2.21 2.21 0 110 4.418m-4.563 8.832H59.19a2.209 2.209 0 110-4.416h25.618a2.209 2.209 0 110 4.416m-17.265 8.869h-8.45a2.209 2.209 0 110-4.416h8.45a2.209 2.209 0 110 4.416m17.425-.103h-8.45a2.209 2.209 0 110-4.416h8.45a2.209 2.209 0 110 4.416" fill="#5B616A"/><path d="M45.473 83.543h-34.09a2.727 2.727 0 01-2.728-2.725v-43.6a2.727 2.727 0 012.727-2.725h34.091a2.727 2.727 0 012.727 2.725v43.6a2.727 2.727 0 01-2.727 2.725" fill="#EBF3FA"/><g transform="translate(10.545 43.513)"><mask id="b" fill="#fff"><use xlink:href="#a"/></mask><path fill="#D08B5B" mask="url(#b)" d="M-10.91 46.954h57.073V-6.35h-57.072z"/></g><g transform="translate(10.545 69.4)"><mask id="d" fill="#fff"><use xlink:href="#c"/></mask><path fill="#E6E6E6" mask="url(#d)" d="M-5.644-5.843h46.542V20.94H-5.644z"/><mask id="f" fill="#fff"><use xlink:href="#e"/></mask><path fill="#262E33" mask="url(#f)" d="M-10.91 20.939h57.073v-31.54h-57.072z"/></g><g transform="translate(21.455 69.4)"><mask id="h" fill="#fff"><use xlink:href="#g"/></mask><path fill="#000" mask="url(#h)" d="M-6.54 12.595h26.678V-9.798H-6.54z"/></g><g transform="translate(10.545 69.4)"><mask id="j" fill="#fff"><use xlink:href="#i"/></mask><path fill="#3A4C5A" mask="url(#j)" d="M-5.644 20.939h46.542V-5.857H-5.644z"/></g><g transform="translate(35.09 77.575)"><mask id="l" fill="#fff"><use xlink:href="#k"/></mask><path fill="#E6E6E6" mask="url(#l)" d="M-5.674 8.855h17.092V-6.067H-5.674z"/></g><g transform="translate(18.727 69.4)"><mask id="n" fill="#fff"><use xlink:href="#m"/></mask><path fill="#2F4351" mask="url(#n)" d="M-6.586 20.939h18.572v-26.98H-6.586z"/></g><g transform="translate(32.364 69.4)"><mask id="p" fill="#fff"><use xlink:href="#o"/></mask><path fill="#2F4351" mask="url(#p)" d="M-6.732 20.939H11.84v-26.98H-6.732z"/></g><path d="M17.43 56.542c2.9-5.25 11.48-5.26 14.23-7.922 1.755 1.38 4.633 2.445 5.621 5.465-.988-3.48-3.866-5.083-5.62-6.67-2.751 3.067-11.331 3.077-14.232 9.127" fill="#AE744C"/><path d="M34.59 54.266c-.63-.896-2.358-1.4-3.846-1.03a.32.32 0 01-.389-.238.325.325 0 01.235-.394c1.728-.43 3.728.154 4.524 1.285a.33.33 0 01-.076.455.32.32 0 01-.449-.078m-12.994 0c.63-.896 2.358-1.4 3.845-1.03a.32.32 0 00.389-.238.325.325 0 00-.235-.394c-1.727-.43-3.728.154-4.524 1.285a.327.327 0 00.076.453.32.32 0 00.449-.076m10.681 3.066a.971.971 0 00.966-.977.97.97 0 00-.966-.975.97.97 0 00-.965.975c0 .54.432.977.965.977m-8.369 0a.971.971 0 00.966-.977.97.97 0 00-.966-.975.97.97 0 00-.965.975c0 .54.432.977.965.977" fill="#533734"/><path d="M26.16 59.566c0 .565.865 1.02 1.933 1.02 1.066 0 1.93-.455 1.93-1.02" fill="#AE744C"/><path d="M25.839 62.377c0 1.259 1.009 2.278 2.253 2.278 1.245 0 2.254-1.02 2.254-2.278" fill="#3D291B"/><path d="M37.386 56.822v3.74c0 5.03-4.125 9.107-9.213 9.107-5.089 0-9.214-4.077-9.214-9.107v-3.74 2.44c0 5.03 4.125 9.107 9.214 9.107 5.088 0 9.213-4.078 9.213-9.107v-2.44z" fill="#AE744C"/><path d="M16.453 66.209V51.842c0-.573.064-1.132.187-1.669.498-3.253 2.381-5.838 4.533-7.43 3.24-2.397 8.698-3.088 10.588-.24 1.408-.625 3.495-.055 5.038 1.376 1.557 1.528 2.8 4.902 2.06 7.664.018.205.026.413.026.622v3.548a1.952 1.952 0 00-1.598-1.579v-.027c-.982-3.496-3.869-5.101-5.626-6.693-2.75 3.069-11.33 3.078-14.231 9.128v1.624a1.95 1.95 0 001.662 1.926 9.097 9.097 0 005.174 7.427v.063c.477 7.12-1.08 16.04-11.231 13.313 2.214-1.292 3.387-9.57 3.418-14.686zm15.626 1.31a9.097 9.097 0 005.174-7.427 1.953 1.953 0 001.632-1.584v.222c0 2.568.611 5.102 1.785 7.39l4.387 8.557a6.158 6.158 0 01-.642 6.619c-.46-6.036-5.516-10.791-11.684-10.791h-.652v-2.986z" fill="#4A312C"/><path d="M1 0h120v116H1z"/></g></svg>