<?xml version="1.0" encoding="UTF-8"?>
<svg width="122px" height="116px" viewBox="0 0 122 116" version="1.1" xmlns="http://www.w3.org/2000/svg" xmlns:xlink="http://www.w3.org/1999/xlink">
    <title>state-issued-ID-round</title>
    <defs>
        <path d="M8.41363636,9.5688375 L8.41363636,10.573 C7.48090909,10.7269625 6.76909091,11.529475 6.76909091,12.49685 L6.76909091,12.49685 L6.76909091,14.7735875 C6.76909091,15.758675 7.50545455,16.570725 8.46272727,16.7056125 L8.46272727,16.7056125 C8.80363636,19.9265625 10.8422727,22.6488375 13.6786364,23.9786375 L13.6786364,23.9786375 L13.6786364,26.969325 L13.02,26.969325 C6.47727273,26.969325 1.17409091,32.212225 1.17409091,38.6800125 L1.17409091,38.6800125 L1.17409091,40.141975 L34.08,40.141975 L34.08,38.6800125 C34.08,32.212225 28.7754545,26.969325 22.2340909,26.969325 L22.2340909,26.969325 L21.5754545,26.969325 L21.5754545,23.9786375 C24.4118182,22.6488375 26.4504545,19.9265625 26.79,16.7056125 L26.79,16.7056125 C27.7486364,16.570725 28.485,15.758675 28.485,14.7735875 L28.485,14.7735875 L28.485,12.49685 C28.485,11.529475 27.7745455,10.7269625 26.8404545,10.573 L26.8404545,10.573 L26.8404545,9.5688375 C26.8404545,4.53985 22.7154545,0.4618875 17.6277273,0.4618875 L17.6277273,0.4618875 C12.5386364,0.4618875 8.41363636,4.53985 8.41363636,9.5688375 L8.41363636,9.5688375 Z" id="path-1"></path>
        <path d="M1.17409091,12.668525 L1.17409091,14.1264 L34.08,14.1264 L34.08,12.668525 C34.08,6.5195625 29.2977273,1.4755875 23.2145455,0.9823625 L23.2145455,0.9823625 C23.2186364,1.0395875 23.2213636,1.09545 23.2213636,1.1554 L23.2213636,1.1554 C23.2213636,3.0860625 20.7531818,4.651575 17.7081818,4.651575 L17.7081818,4.651575 C14.6659091,4.651575 12.1963636,3.0860625 12.1963636,1.1554 L12.1963636,1.1554 C12.1963636,1.092725 12.2004545,1.0314125 12.2059091,0.9701 L12.2059091,0.9701 C6.04363636,1.3856625 1.17409091,6.4650625 1.17409091,12.668525 L1.17409091,12.668525 Z" id="path-3"></path>
        <path d="M1.17409091,12.668525 L1.17409091,14.1264 L34.08,14.1264 L34.08,12.668525 C34.08,6.5195625 29.2977273,1.4755875 23.2145455,0.9823625 L23.2145455,0.9823625 C23.2186364,1.0395875 23.2213636,1.09545 23.2213636,1.1554 L23.2213636,1.1554 C23.2213636,3.0860625 20.7531818,4.651575 17.7081818,4.651575 L17.7081818,4.651575 C14.6659091,4.651575 12.1963636,3.0860625 12.1963636,1.1554 L12.1963636,1.1554 C12.1963636,1.092725 12.2004545,1.0314125 12.2059091,0.9701 L12.2059091,0.9701 C6.04363636,1.3856625 1.17409091,6.4650625 1.17409091,12.668525 L1.17409091,12.668525 Z" id="path-5"></path>
        <path d="M1.29681818,0.9701 L1.29,1.06223906 L1.28727273,1.1554 L1.29543429,1.34720463 C1.44712783,3.12519103 3.69499187,4.55023624 6.49684298,4.64640108 L6.79909091,4.651575 L7.10159813,4.64640108 C9.90574581,4.55023624 12.1525012,3.12519103 12.3041155,1.34720463 L12.3122727,1.1554 L12.3103977,1.06785937 L12.3054545,0.9823625 L12.6549393,1.01584219 C12.8740071,1.04006586 13.0912706,1.07020469 13.3065632,1.10609363 L13.3104972,1.14464902 L13.3104972,1.14464902 L13.3213636,1.3992875 L13.313383,1.6179663 C13.1437941,3.93619494 10.2926446,5.7810875 6.79909091,5.7810875 L6.79909091,5.7810875 L6.47375134,5.7757244 C3.02474831,5.66175802 0.278181818,3.74576023 0.278181818,1.3992875 L0.278181818,1.3992875 L0.289048295,1.14464902 C0.290887861,1.12313099 0.292958201,1.10165601 0.295257184,1.08022516 C0.625245146,1.02965906 0.9590902,0.992875215 1.29681818,0.9701 Z" id="path-7"></path>
        <path d="M1.17409091,12.668525 L1.17409091,14.1264 L12.5863636,14.1264 C12.0272727,12.15895 11.7040909,9.845425 11.7040909,7.3684 L11.7040909,7.3684 C11.7040909,5.0344375 11.9904545,2.8462625 12.4909091,0.9551125 L12.4909091,0.9551125 C6.19363636,1.228975 1.17409091,6.368325 1.17409091,12.668525 L1.17409091,12.668525 Z M23.715,7.3684 C23.715,9.845425 23.3918182,12.15895 22.8327273,14.1264 L22.8327273,14.1264 L34.08,14.1264 L34.08,12.668525 C34.08,6.42555 29.1477273,1.3189 22.9295455,0.961925 L22.9295455,0.961925 C23.4286364,2.8517125 23.715,5.038525 23.715,7.3684 L23.715,7.3684 Z" id="path-9"></path>
        <path d="M2.71636364,0.8760875 L1.14409091,2.0423875 L4.59818182,1.71675 L3.51545455,0.8829 C3.39545455,0.7916125 3.25363636,0.7452875 3.11045455,0.7452875 L3.11045455,0.7452875 C2.97136364,0.7452875 2.83227273,0.7888875 2.71636364,0.8760875 L2.71636364,0.8760875 Z" id="path-11"></path>
        <path d="M3.35727273,0.934675 L0.231818182,5.8206 L1.21909091,6.7975125 L0.231818182,8.2635625 L2.535,14.1264 L5.16681818,14.1264 C3.96136364,8.3725625 3.68590909,3.9199125 4.34454545,0.7725375 L4.34454545,0.7725375 C4.02,0.7779875 3.69136364,0.831125 3.35727273,0.934675 L3.35727273,0.934675 Z" id="path-13"></path>
        <path d="M0.0859090909,14.1264 L2.71909091,14.1264 L5.02227273,8.2635625 L4.03636364,6.7975125 L5.02227273,5.8206 L1.89681818,0.934675 C1.56272727,0.831125 1.23409091,0.7779875 0.909545455,0.7725375 L0.909545455,0.7725375 C1.56818182,3.9199125 1.29272727,8.3725625 0.0859090909,14.1264 L0.0859090909,14.1264 Z" id="path-15"></path>
    </defs>
    <g id="Page-1" stroke="none" stroke-width="1" fill="none" fill-rule="evenodd">
        <g id="Gov-Verify---Revised" transform="translate(-495.000000, -605.000000)">
            <g id="state-issued-ID-round" transform="translate(496.000000, 605.000000)">
                <g id="license-/-round" transform="translate(0.000000, 4.000000)">
                    <path d="M114.406091,54.5 C114.406091,84.5989875 89.9847273,109 59.8606364,109 C29.7365455,109 5.31518182,84.5989875 5.31518182,54.5 C5.31518182,24.4010125 29.7365455,0 59.8606364,0 C89.9847273,0 114.406091,24.4010125 114.406091,54.5" id="Fill-1" fill="#EBF3FA"></path>
                    <path d="M114.406091,54.5 C114.406091,84.5989875 89.9847273,109 59.8606364,109 C29.7365455,109 5.31518182,84.5989875 5.31518182,54.5 C5.31518182,24.4010125 29.7365455,0 59.8606364,0 C89.9847273,0 114.406091,24.4010125 114.406091,54.5 Z" id="Stroke-3" stroke="#A8B6C6" stroke-width="2"></path>
                    <g id="license" transform="translate(0.000000, 21.800000)">
                        <g id="Group-27">
                            <path d="M114.218318,64.598305 L5.50240909,64.598305 C2.49013636,64.598305 0.0478636364,62.1580675 0.0478636364,59.148305 L0.0478636364,6.2519675 C0.0478636364,3.242205 2.49013636,0.8019675 5.50240909,0.8019675 L114.218318,0.8019675 C117.230591,0.8019675 119.672864,3.242205 119.672864,6.2519675 L119.672864,59.148305 C119.672864,62.1580675 117.230591,64.598305 114.218318,64.598305" id="Fill-5" fill="#FFFFFF"></path>
                            <path d="M114.218318,64.598305 L5.50240909,64.598305 C2.49013636,64.598305 0.0478636364,62.1580675 0.0478636364,59.148305 L0.0478636364,6.2519675 C0.0478636364,3.242205 2.49013636,0.8019675 5.50240909,0.8019675 L114.218318,0.8019675 C117.230591,0.8019675 119.672864,3.242205 119.672864,6.2519675 L119.672864,59.148305 C119.672864,62.1580675 117.230591,64.598305 114.218318,64.598305 Z" id="Stroke-7" stroke="#112E51"></path>
                            <path d="M109.703318,16.3791575 L58.2042273,16.3791575 C56.9837727,16.3791575 55.9951364,15.3899825 55.9951364,14.170545 L55.9951364,10.7384075 C55.9951364,9.51897 56.9837727,8.529795 58.2042273,8.529795 L109.703318,8.529795 C110.923773,8.529795 111.913773,9.51897 111.913773,10.7384075 L111.913773,14.170545 C111.913773,15.3899825 110.923773,16.3791575 109.703318,16.3791575" id="Fill-9" fill="#5B616A"></path>
                            <path d="M109.449545,56.69199 L96.0409091,56.69199 C94.8204545,56.69199 93.8318182,55.702815 93.8318182,54.4833775 L93.8318182,38.9399775 C93.8318182,37.72054 94.8204545,36.7327275 96.0409091,36.7327275 L109.449545,36.7327275 C110.671364,36.7327275 111.66,37.72054 111.66,38.9399775 L111.66,54.4833775 C111.66,55.702815 110.671364,56.69199 109.449545,56.69199" id="Fill-11" fill="#5B616A"></path>
                            <path d="M79.4815909,25.2926325 L58.2552273,25.2926325 C57.0347727,25.2926325 56.0447727,24.3034575 56.0447727,23.08402 C56.0447727,21.8645825 57.0347727,20.8754075 58.2552273,20.8754075 L79.4815909,20.8754075 C80.7020455,20.8754075 81.6920455,21.8645825 81.6920455,23.08402 C81.6920455,24.3034575 80.7020455,25.2926325 79.4815909,25.2926325" id="Fill-13" fill="#5B616A"></path>
                            <path d="M109.638,25.2926325 L88.4116364,25.2926325 C87.1911818,25.2926325 86.2011818,24.3034575 86.2011818,23.08402 C86.2011818,21.8645825 87.1911818,20.8754075 88.4116364,20.8754075 L109.638,20.8754075 C110.858455,20.8754075 111.848455,21.8645825 111.848455,23.08402 C111.848455,24.3034575 110.858455,25.2926325 109.638,25.2926325" id="Fill-15" fill="#5B616A"></path>
                            <path d="M88.3697727,34.1255838 L58.1897727,34.1255838 C56.9693182,34.1255838 55.9793182,33.1364088 55.9793182,31.9169713 C55.9793182,30.6975338 56.9693182,29.7083588 58.1897727,29.7083588 L88.3697727,29.7083588 C89.5915909,29.7083588 90.5802273,30.6975338 90.5802273,31.9169713 C90.5802273,33.1364088 89.5915909,34.1255838 88.3697727,34.1255838" id="Fill-17" fill="#5B616A"></path>
                            <path d="M83.8074545,42.95799 L58.1888182,42.95799 C56.9683636,42.95799 55.9797273,41.968815 55.9797273,40.7493775 C55.9797273,39.52994 56.9683636,38.5421275 58.1888182,38.5421275 L83.8074545,38.5421275 C85.0279091,38.5421275 86.0179091,39.52994 86.0179091,40.7493775 C86.0179091,41.968815 85.0279091,42.95799 83.8074545,42.95799" id="Fill-19" fill="#5B616A"></path>
                            <path d="M66.543,51.8274563 L58.0939091,51.8274563 C56.8734545,51.8274563 55.8834545,50.8382813 55.8834545,49.6188438 C55.8834545,48.3994063 56.8734545,47.4115938 58.0939091,47.4115938 L66.543,47.4115938 C67.7634545,47.4115938 68.7534545,48.3994063 68.7534545,49.6188438 C68.7534545,50.8382813 67.7634545,51.8274563 66.543,51.8274563" id="Fill-21" fill="#5B616A"></path>
                            <path d="M83.9679545,51.724315 L75.5188636,51.724315 C74.2984091,51.724315 73.3084091,50.73514 73.3084091,49.5157025 C73.3084091,48.296265 74.2984091,47.3084525 75.5188636,47.3084525 L83.9679545,47.3084525 C85.1884091,47.3084525 86.1784091,48.296265 86.1784091,49.5157025 C86.1784091,50.73514 85.1884091,51.724315 83.9679545,51.724315" id="Fill-23" fill="#5B616A"></path>
                            <path d="M44.4730909,57.7431587 L10.3821818,57.7431587 C8.87672727,57.7431587 7.65490909,56.5223587 7.65490909,55.0181587 L7.65490909,11.4181587 C7.65490909,9.91395875 8.87672727,8.69315875 10.3821818,8.69315875 L44.4730909,8.69315875 C45.9785455,8.69315875 47.2003636,9.91395875 47.2003636,11.4181587 L47.2003636,55.0181587 C47.2003636,56.5223587 45.9785455,57.7431587 44.4730909,57.7431587" id="Fill-25" fill="#EBF3FA"></path>
                        </g>
                        <g id="Group-30" transform="translate(9.545455, 17.712500)">
                            <mask id="mask-2" fill="white">
                                <use xlink:href="#path-1"></use>
                            </mask>
                            <g id="Clip-29"></g>
                            <polygon id="Fill-28" fill="#D08B5B" mask="url(#mask-2)" points="-10.9090909 46.954475 46.1631818 46.954475 46.1631818 -6.3506125 -10.9090909 -6.3506125"></polygon>
                        </g>
                        <g id="Group-36" transform="translate(9.545455, 43.600000)">
                            <g id="Group-33">
                                <mask id="mask-4" fill="white">
                                    <use xlink:href="#path-3"></use>
                                </mask>
                                <g id="Clip-32"></g>
                                <polygon id="Fill-31" fill="#E6E6E6" mask="url(#mask-4)" points="-5.64381818 -5.84253625 40.8984545 -5.84253625 40.8984545 20.9387638 -5.64381818 20.9387638"></polygon>
                            </g>
                            <mask id="mask-6" fill="white">
                                <use xlink:href="#path-5"></use>
                            </mask>
                            <g id="Clip-35"></g>
                            <polygon id="Fill-34" fill="#262E33" mask="url(#mask-6)" points="-10.9090909 20.9389 46.1631818 20.9389 46.1631818 -10.6016125 -10.9090909 -10.6016125"></polygon>
                        </g>
                        <g id="Group-39" transform="translate(20.454545, 43.600000)">
                            <mask id="mask-8" fill="white">
                                <use xlink:href="#path-7"></use>
                            </mask>
                            <g id="Clip-38"></g>
                            <polygon id="Fill-37" fill="#000000" mask="url(#mask-8)" points="-6.54 12.59495 20.1381818 12.59495 20.1381818 -9.7977375 -6.54 -9.7977375"></polygon>
                        </g>
                        <g id="Group-42" transform="translate(9.545455, 43.600000)">
                            <mask id="mask-10" fill="white">
                                <use xlink:href="#path-9"></use>
                            </mask>
                            <g id="Clip-41"></g>
                            <polygon id="Fill-40" fill="#3A4C5A" mask="url(#mask-10)" points="-5.64409091 20.9389 40.8981818 20.9389 40.8981818 -5.8573875 -5.64409091 -5.8573875"></polygon>
                        </g>
                        <g id="Group-45" transform="translate(34.090909, 51.775000)">
                            <mask id="mask-12" fill="white">
                                <use xlink:href="#path-11"></use>
                            </mask>
                            <g id="Clip-44"></g>
                            <polygon id="Fill-43" fill="#E6E6E6" mask="url(#mask-12)" points="-5.67409091 8.8548875 11.4177273 8.8548875 11.4177273 -6.0672125 -5.67409091 -6.0672125"></polygon>
                        </g>
                        <g id="Group-48" transform="translate(17.727273, 43.600000)">
                            <mask id="mask-14" fill="white">
                                <use xlink:href="#path-13"></use>
                            </mask>
                            <g id="Clip-47"></g>
                            <polygon id="Fill-46" fill="#2F4351" mask="url(#mask-14)" points="-6.58636364 20.9389 11.9863636 20.9389 11.9863636 -6.041325 -6.58636364 -6.041325"></polygon>
                        </g>
                        <g id="Group-51" transform="translate(31.363636, 43.600000)">
                            <mask id="mask-16" fill="white">
                                <use xlink:href="#path-15"></use>
                            </mask>
                            <g id="Clip-50"></g>
                            <polygon id="Fill-49" fill="#2F4351" mask="url(#mask-16)" points="-6.73227273 20.9389 11.8404545 20.9389 11.8404545 -6.041325 -6.73227273 -6.041325"></polygon>
                        </g>
                        <g id="Group-70" transform="translate(10.909091, 13.625000)">
                            <path d="M5.52027273,17.1169512 C8.42072727,11.8672387 17.0007273,11.8577012 19.7511818,9.19537625 C21.5061818,10.5742262 24.3834545,11.6397012 25.3720909,14.6603637 C24.3834545,11.1791763 21.5061818,9.57687625 19.7511818,7.98956375 C17.0007273,11.0565512 8.42072727,11.0674513 5.52027273,17.1169512" id="Fill-52" fill="#AE744C"></path>
                            <path d="M22.6802727,14.8410312 C22.0502727,13.9445062 20.3225455,13.4417437 18.8348182,13.8109812 C18.6616364,13.8545812 18.4884545,13.7469437 18.4461818,13.5725437 C18.4025455,13.3981437 18.5089091,13.2223812 18.6807273,13.1787812 C20.4084545,12.7495938 22.4089091,13.3327437 23.2052727,14.4636187 C23.3075455,14.6107687 23.2734545,14.8137812 23.1289091,14.9186937 C22.9843636,15.0222437 22.7825455,14.9868187 22.6802727,14.8410312" id="Fill-54" fill="#533734"></path>
                            <path d="M9.68577273,14.8410312 C10.3157727,13.9445062 12.0435,13.4417437 13.5312273,13.8109812 C13.7030455,13.8545813 13.8775909,13.7469437 13.9198636,13.5725437 C13.9635,13.3981437 13.8571364,13.2223812 13.6853182,13.1787812 C11.9575909,12.7495938 9.95713636,13.3327437 9.16077273,14.4636187 C9.0585,14.6107688 9.09122727,14.8137812 9.23713636,14.9173312 C9.38168182,15.0222437 9.58213636,14.9868187 9.68577273,14.8410312" id="Fill-56" fill="#533734"></path>
                            <path d="M20.3671364,17.9073375 C20.9003182,17.9073375 21.3325909,17.469975 21.3325909,16.930425 C21.3325909,16.3922375 20.9003182,15.954875 20.3671364,15.954875 C19.8339545,15.954875 19.4016818,16.3922375 19.4016818,16.930425 C19.4016818,17.469975 19.8339545,17.9073375 20.3671364,17.9073375" id="Fill-58" fill="#533734"></path>
                            <path d="M11.9982273,17.9073375 C12.5314091,17.9073375 12.9636818,17.469975 12.9636818,16.930425 C12.9636818,16.3922375 12.5314091,15.954875 11.9982273,15.954875 C11.4650455,15.954875 11.0327727,16.3922375 11.0327727,16.930425 C11.0327727,17.469975 11.4650455,17.9073375 11.9982273,17.9073375" id="Fill-60" fill="#533734"></path>
                            <path d="M14.2513636,20.1414287 C14.2513636,20.7055037 15.1159091,21.1619412 16.1836364,21.1619412 C17.25,21.1619412 18.1145455,20.7055037 18.1145455,20.1414287" id="Fill-62" fill="#AE744C"></path>
                            <path d="M13.9298182,22.951585 C13.9298182,24.210535 14.9389091,25.229685 16.1825455,25.229685 C17.4275455,25.229685 18.4366364,24.210535 18.4366364,22.951585" id="Fill-64" fill="#3D291B"></path>
                            <path d="M25.4766818,17.3970812 L25.4766818,21.1371437 C25.4766818,26.1674937 21.3516818,30.2440937 16.2639545,30.2440937 C11.1748636,30.2440937 7.04986364,26.1674937 7.04986364,21.1371437 L7.04986364,17.3970812 L7.04986364,19.8373187 C7.04986364,24.8663062 11.1748636,28.9442687 16.2639545,28.9442687 C21.3516818,28.9442687 25.4766818,24.8663062 25.4766818,19.8373187 L25.4766818,17.3970812 Z" id="Fill-66" fill="#AE744C"></path>
                            <path d="M4.54418182,26.7836162 L4.54418182,12.4174162 C4.54418182,11.8438037 4.60827273,11.2851787 4.731,10.7483537 C5.22872727,7.49470375 7.11190909,4.91004125 9.26372727,3.31727875 C12.5037273,0.92064125 17.9623636,0.22985375 19.8523636,3.07747875 C21.2596364,2.45345375 23.3473636,3.02297875 24.8896364,4.45360375 C26.4469091,5.98232875 27.6905455,9.35587875 26.9500909,12.1176662 C26.9678182,12.3234037 26.976,12.5305037 26.976,12.7403287 L26.976,16.2882787 C26.8328182,15.4803162 26.1905455,14.8453912 25.3778182,14.7091412 L25.3778182,14.6818912 C24.396,11.1857162 21.5091818,9.58069125 19.7514545,7.98929125 C17.001,11.0576412 8.421,11.0671787 5.52054545,17.1166787 L5.52054545,18.7407787 C5.52054545,19.7176912 6.24190909,20.5270162 7.18281818,20.6673537 C7.46645455,23.9550662 9.50372727,26.7413787 12.3564545,28.0943412 L12.3564545,28.1570162 C12.8337273,35.2774412 11.2764545,44.1977287 1.12554545,41.4700037 C3.34009091,40.1783537 4.51281818,31.8998037 4.54418182,26.7836162 L4.54418182,26.7836162 Z M20.1700909,28.0943413 C23.0228182,26.7427412 25.0600909,23.9550662 25.3437273,20.6673538 C26.1728182,20.5433662 26.8300909,19.9016287 26.976,19.0827662 L26.976,19.3048537 C26.976,21.8731662 27.5869091,24.4074162 28.761,26.6950537 L33.1478182,35.2515537 C34.281,37.4628912 33.9469091,40.0380162 32.5055455,41.8705787 C32.046,35.8347037 26.9896364,31.0795787 20.8219091,31.0795787 L20.1700909,31.0795787 L20.1700909,28.0943413 Z" id="Fill-68" fill="#4A312C"></path>
                        </g>
                    </g>
                </g>
                <rect id="Rectangle" x="0" y="0" width="120" height="116"></rect>
            </g>
        </g>
    </g>
</svg>
