<svg width="302" height="178" viewBox="0 0 302 178" fill="none" xmlns="http://www.w3.org/2000/svg">
<rect y="33" width="270" height="145" rx="10" fill="#EBF3FA"/>
<rect x="18" y="51" width="90" height="109" rx="5" fill="white"/>
<rect x="126" y="51" width="126" height="18" rx="4" fill="#5B616A"/>
<rect x="126" y="79" width="58" height="10" rx="3" fill="#5B616A"/>
<rect x="126" y="99" width="78" height="10" rx="3" fill="#5B616A"/>
<rect x="126" y="119" width="68" height="10" rx="3" fill="#5B616A"/>
<rect x="212" y="115" width="40" height="45" rx="5" fill="#5B616A"/>
<rect x="194" y="79" width="58" height="10" rx="3" fill="#5B616A"/>
<rect x="126" y="139" width="29" height="10" rx="3" fill="#5B616A"/>
<rect x="165" y="139" width="29" height="10" rx="3" fill="#5B616A"/>
<circle cx="264.5" cy="37.5" r="37.5" fill="#0071BB"/>
<mask id="mask0" mask-type="alpha" maskUnits="userSpaceOnUse" x="24" y="65" width="78" height="96">
<path d="M72.2727 121.782V128.886H73.8182C89.1817 128.886 101.636 141.341 101.636 156.705V160.182H24.3636V156.705C24.3636 141.341 36.8183 128.886 52.1818 128.886H53.7273V121.782C47.0674 118.618 42.2802 112.152 41.4815 104.5C39.231 104.181 37.5 102.247 37.5 99.9091V94.5C37.5 92.2027 39.1709 90.2956 41.3636 89.9278V87.5455C41.3636 75.596 51.0506 65.9091 63 65.9091C74.9494 65.9091 84.6364 75.596 84.6364 87.5455V89.9278C86.8291 90.2956 88.5 92.2027 88.5 94.5V99.9091C88.5 102.247 86.769 104.181 84.5185 104.5C83.7198 112.152 78.9326 118.618 72.2727 121.782Z" fill="white"/>
</mask>
<g mask="url(#mask0)">
<path d="M72.2727 121.782V128.886H73.8182C89.1817 128.886 101.636 141.341 101.636 156.705V160.182H24.3636V156.705C24.3636 141.341 36.8183 128.886 52.1818 128.886H53.7273V121.782C47.0674 118.618 42.2802 112.152 41.4815 104.5C39.231 104.181 37.5 102.247 37.5 99.9091V94.5C37.5 92.2027 39.1709 90.2956 41.3636 89.9278V87.5455C41.3636 75.596 51.0506 65.9091 63 65.9091C74.9494 65.9091 84.6364 75.596 84.6364 87.5455V89.9278C86.8291 90.2956 88.5 92.2027 88.5 94.5V99.9091C88.5 102.247 86.769 104.181 84.5185 104.5C83.7198 112.152 78.9326 118.618 72.2727 121.782Z" fill="#D0C6AC"/>
<path d="M114 65.9091H12V160.182H114V65.9091Z" fill="#D08B5B"/>
<path fill-rule="evenodd" clip-rule="evenodd" d="M84.6364 96.4318V105.318C84.6364 117.268 74.9494 126.955 63 126.955C51.0506 126.955 41.3636 117.268 41.3636 105.318V96.4318V102.227C41.3636 114.177 51.0506 123.864 63 123.864C74.9494 123.864 84.6364 114.177 84.6364 102.227V96.4318Z" fill="black" fill-opacity="0.1"/>
</g>
<mask id="mask1" mask-type="alpha" maskUnits="userSpaceOnUse" x="24" y="128" width="78" height="33">
<path fill-rule="evenodd" clip-rule="evenodd" d="M76.1211 129C90.4073 130.171 101.636 142.136 101.636 156.725V160.182H24.3636V156.725C24.3636 142.004 35.7969 129.955 50.2675 128.971C50.2559 129.116 50.25 129.261 50.25 129.407C50.25 133.991 56.0449 137.706 63.1932 137.706C70.3415 137.706 76.1364 133.991 76.1364 129.407C76.1364 129.271 76.1312 129.135 76.1211 129Z" fill="white"/>
</mask>
<g mask="url(#mask1)">
<path fill-rule="evenodd" clip-rule="evenodd" d="M76.1211 129C90.4073 130.171 101.636 142.136 101.636 156.725V160.182H24.3636V156.725C24.3636 142.004 35.7969 129.955 50.2675 128.971C50.2559 129.116 50.25 129.261 50.25 129.407C50.25 133.991 56.0449 137.706 63.1932 137.706C70.3415 137.706 76.1364 133.991 76.1364 129.407C76.1364 129.271 76.1312 129.135 76.1211 129Z" fill="#E6E6E6"/>
<path d="M114 117.682H12V160.182H114V117.682Z" fill="#262E33"/>
<g opacity="0.6">
<g opacity="0.6">
<path opacity="0.6" d="M63.1932 140.385C71.6506 140.385 78.5067 135.73 78.5067 129.987C78.5067 124.244 71.6506 119.588 63.1932 119.588C54.7357 119.588 47.8796 124.244 47.8796 129.987C47.8796 135.73 54.7357 140.385 63.1932 140.385Z" fill="black" fill-opacity="0.16"/>
</g>
</g>
</g>
<path fill-rule="evenodd" clip-rule="evenodd" d="M57.5909 109.568C57.5909 112.556 60.0126 114.977 63 114.977C65.9874 114.977 68.4091 112.556 68.4091 109.568" fill="black" fill-opacity="0.7"/>
<path fill-rule="evenodd" clip-rule="evenodd" d="M58.3636 102.227C58.3636 103.934 60.4394 105.318 63 105.318C65.5606 105.318 67.6364 103.934 67.6364 102.227" fill="black" fill-opacity="0.16"/>
<path d="M52.9545 97.591C54.2348 97.591 55.2727 96.5531 55.2727 95.2728C55.2727 93.9925 54.2348 92.9546 52.9545 92.9546C51.6742 92.9546 50.6364 93.9925 50.6364 95.2728C50.6364 96.5531 51.6742 97.591 52.9545 97.591Z" fill="black" fill-opacity="0.6"/>
<path d="M73.0454 97.591C74.3257 97.591 75.3636 96.5531 75.3636 95.2728C75.3636 93.9925 74.3257 92.9546 73.0454 92.9546C71.7651 92.9546 70.7273 93.9925 70.7273 95.2728C70.7273 96.5531 71.7651 97.591 73.0454 97.591Z" fill="black" fill-opacity="0.6"/>
<path d="M47.4026 90.3113C48.9152 88.1829 53.0619 86.9894 56.6339 87.8666C57.0484 87.9684 57.4668 87.7149 57.5686 87.3005C57.6704 86.886 57.4169 86.4675 57.0025 86.3657C52.8542 85.3471 48.0524 86.7291 46.1429 89.416C45.8956 89.7639 45.9772 90.2463 46.3251 90.4935C46.673 90.7407 47.1554 90.6591 47.4026 90.3113Z" fill="black" fill-opacity="0.6"/>
<path d="M78.5975 90.3113C77.0849 88.1829 72.9382 86.9894 69.3662 87.8666C68.9518 87.9684 68.5333 87.7149 68.4315 87.3005C68.3297 86.886 68.5832 86.4675 68.9976 86.3657C73.1459 85.3471 77.9477 86.7291 79.8573 89.416C80.1045 89.7639 80.0229 90.2463 79.675 90.4935C79.3272 90.7407 78.8447 90.6591 78.5975 90.3113Z" fill="black" fill-opacity="0.6"/>
<mask id="mask2" mask-type="alpha" maskUnits="userSpaceOnUse" x="12" y="52" width="102" height="109">
<path d="M114 52H12V160.182H114V52Z" fill="white"/>
</mask>
<g mask="url(#mask2)">
<mask id="mask3" mask-type="alpha" maskUnits="userSpaceOnUse" x="40" y="89" width="46" height="36">
<path fill-rule="evenodd" clip-rule="evenodd" d="M69.7337 117.747C68.7626 118.633 67.728 119.032 66.4205 118.753C66.1955 118.705 65.2781 117 62.9999 117C60.7217 117 59.8046 118.705 59.5794 118.753C58.2719 119.032 57.2373 118.633 56.2662 117.747C54.4406 116.081 52.9223 113.783 53.8346 111.276C54.3101 109.969 55.0833 108.534 56.49 108.118C57.9921 107.673 60.1011 108.117 61.6148 107.813C62.1052 107.715 62.6409 107.54 62.9999 107.25C63.3589 107.54 63.8948 107.715 64.385 107.813C65.8988 108.117 68.0078 107.673 69.5099 108.118C70.9166 108.534 71.6898 109.969 72.1654 111.276C73.0777 113.783 71.5594 116.081 69.7337 117.747ZM84.6677 89.8637C83.35 93.1092 83.8589 97.1497 83.6151 100.557C83.417 103.326 82.8348 107.476 80.3759 109.265C79.1185 110.179 76.8296 111.716 75.1866 111.288C74.0556 110.993 73.9349 107.748 72.4486 106.534C70.7627 105.157 68.6575 104.552 66.5349 104.645C65.619 104.685 63.7666 104.676 63 105.38C62.2334 104.676 60.3811 104.685 59.4652 104.645C57.3424 104.552 55.2372 105.157 53.5513 106.534C52.065 107.748 51.9445 110.993 50.8134 111.288C49.1704 111.716 46.8816 110.179 45.6241 109.265C43.165 107.476 42.5831 103.326 42.3847 100.557C42.141 97.1497 42.6499 93.1092 41.3323 89.8637C40.6913 89.8637 41.1141 96.0953 41.1141 96.0953V103.96C41.1263 109.867 44.8158 118.708 52.9963 122.084C54.9969 122.909 59.5286 124.25 63 124.25C66.4713 124.25 71.003 123.037 73.0037 122.211C81.1841 118.835 84.8737 109.867 84.886 103.96V96.0953C84.886 96.0953 85.3087 89.8637 84.6677 89.8637Z" fill="white"/>
</mask>
<g mask="url(#mask3)">
<path fill-rule="evenodd" clip-rule="evenodd" d="M69.7337 117.747C68.7626 118.633 67.728 119.032 66.4205 118.753C66.1955 118.705 65.2781 117 62.9999 117C60.7217 117 59.8046 118.705 59.5794 118.753C58.2719 119.032 57.2373 118.633 56.2662 117.747C54.4406 116.081 52.9223 113.783 53.8346 111.276C54.3101 109.969 55.0833 108.534 56.49 108.118C57.9921 107.673 60.1011 108.117 61.6148 107.813C62.1052 107.715 62.6409 107.54 62.9999 107.25C63.3589 107.54 63.8948 107.715 64.385 107.813C65.8988 108.117 68.0078 107.673 69.5099 108.118C70.9166 108.534 71.6898 109.969 72.1654 111.276C73.0777 113.783 71.5594 116.081 69.7337 117.747ZM84.6677 89.8637C83.35 93.1092 83.8589 97.1497 83.6151 100.557C83.417 103.326 82.8348 107.476 80.3759 109.265C79.1185 110.179 76.8296 111.716 75.1866 111.288C74.0556 110.993 73.9349 107.748 72.4486 106.534C70.7627 105.157 68.6575 104.552 66.5349 104.645C65.619 104.685 63.7666 104.676 63 105.38C62.2334 104.676 60.3811 104.685 59.4652 104.645C57.3424 104.552 55.2372 105.157 53.5513 106.534C52.065 107.748 51.9445 110.993 50.8134 111.288C49.1704 111.716 46.8816 110.179 45.6241 109.265C43.165 107.476 42.5831 103.326 42.3847 100.557C42.141 97.1497 42.6499 93.1092 41.3323 89.8637C40.6913 89.8637 41.1141 96.0953 41.1141 96.0953V103.96C41.1263 109.867 44.8158 118.708 52.9963 122.084C54.9969 122.909 59.5286 124.25 63 124.25C66.4713 124.25 71.003 123.037 73.0037 122.211C81.1841 118.835 84.8737 109.867 84.886 103.96V96.0953C84.886 96.0953 85.3087 89.8637 84.6677 89.8637Z" fill="#331B0C"/>
<path d="M120.182 79.8182H18.1818V174.091H120.182V79.8182Z" fill="#2C1B18"/>
</g>
<mask id="mask4" mask-type="alpha" maskUnits="userSpaceOnUse" x="40" y="62" width="46" height="29">
<path fill-rule="evenodd" clip-rule="evenodd" d="M76.2557 65.5251C68.4559 61.0048 60.7316 61.7449 54.9006 63.2161C49.0696 64.6874 45.6201 68.8653 42.6605 75.0459C41.2074 78.0807 40.346 81.6694 40.2135 85.0269C40.1614 86.3451 40.3392 87.7059 40.6944 88.9751C40.8246 89.441 41.5272 91.0563 41.72 89.7512C41.7842 89.3167 41.5493 88.7172 41.5265 88.2555C41.4967 87.6496 41.5287 87.0358 41.57 86.4308C41.6473 85.2997 41.8489 84.1901 42.2077 83.1118C42.7205 81.571 43.3733 79.9004 44.3724 78.6004C46.8455 75.383 51.1265 75.1996 54.5256 73.4291C54.2307 73.972 53.0935 74.8508 53.4875 75.4627C53.7596 75.8853 54.7896 75.7572 55.2813 75.7436C56.5752 75.7082 57.8749 75.4831 59.1529 75.3004C61.1671 75.0125 63.0543 74.4291 64.9498 73.7206C66.5016 73.1404 68.2739 72.6031 69.4402 71.3725C71.3222 73.3227 73.7447 75.1565 76.1636 76.3961C78.3341 77.5086 81.8347 78.0645 83.1615 80.3207C84.7321 82.9921 84.0095 86.2733 84.4892 89.1685C84.6716 90.2695 85.0862 90.2448 85.313 89.2601C85.6982 87.5873 85.8802 85.8494 85.7576 84.1297C85.48 80.2476 84.0555 70.0454 76.2557 65.5251Z" fill="white"/>
</mask>
<g mask="url(#mask4)">
<path fill-rule="evenodd" clip-rule="evenodd" d="M76.2557 65.5251C68.4559 61.0048 60.7316 61.7449 54.9006 63.2161C49.0696 64.6874 45.6201 68.8653 42.6605 75.0459C41.2074 78.0807 40.346 81.6694 40.2135 85.0269C40.1614 86.3451 40.3392 87.7059 40.6944 88.9751C40.8246 89.441 41.5272 91.0563 41.72 89.7512C41.7842 89.3167 41.5493 88.7172 41.5265 88.2555C41.4967 87.6496 41.5287 87.0358 41.57 86.4308C41.6473 85.2997 41.8489 84.1901 42.2077 83.1118C42.7205 81.571 43.3733 79.9004 44.3724 78.6004C46.8455 75.383 51.1265 75.1996 54.5256 73.4291C54.2307 73.972 53.0935 74.8508 53.4875 75.4627C53.7596 75.8853 54.7896 75.7572 55.2813 75.7436C56.5752 75.7082 57.8749 75.4831 59.1529 75.3004C61.1671 75.0125 63.0543 74.4291 64.9498 73.7206C66.5016 73.1404 68.2739 72.6031 69.4402 71.3725C71.3222 73.3227 73.7447 75.1565 76.1636 76.3961C78.3341 77.5086 81.8347 78.0645 83.1615 80.3207C84.7321 82.9921 84.0095 86.2733 84.4892 89.1685C84.6716 90.2695 85.0862 90.2448 85.313 89.2601C85.6982 87.5873 85.8802 85.8494 85.7576 84.1297C85.48 80.2476 84.0555 70.0454 76.2557 65.5251Z" fill="#28354B"/>
<path d="M113.614 52H11.6136V160.182H113.614V52Z" fill="#2C1B18"/>
<g filter="url(#filter0_d)">
<path d="M51.0227 103.386H49.9572C44.5761 103.386 41.3636 100.425 41.3636 95.4659C41.3636 91.4582 42.0657 87.5455 50.4547 87.5455H51.5907C59.9798 87.5455 60.6818 91.4582 60.6818 95.4659C60.6818 100.129 56.7105 103.386 51.0227 103.386ZM50.3989 89.8637C42.9091 89.8637 42.9091 92.5068 42.9091 95.8529C42.9091 98.5846 44.1131 101.841 49.8524 101.841H51.0227C55.8001 101.841 59.1364 99.3786 59.1364 95.8529C59.1364 92.5068 59.1364 89.8637 51.6466 89.8637H50.3989Z" fill="#252C2F"/>
<path d="M74.9773 103.386H73.9117C68.5307 103.386 65.3182 100.425 65.3182 95.4659C65.3182 91.4582 66.0202 87.5455 74.4093 87.5455H75.5452C83.9343 87.5455 84.6364 91.4582 84.6364 95.4659C84.6364 100.129 80.665 103.386 74.9773 103.386ZM74.3534 89.8637C66.8636 89.8637 66.8636 92.5068 66.8636 95.8529C66.8636 98.5846 68.0689 101.841 73.8069 101.841H74.9773C79.7546 101.841 83.0909 99.3786 83.0909 95.8529C83.0909 92.5068 83.0909 89.8637 75.6011 89.8637H74.3534Z" fill="#252C2F"/>
<path d="M39.0279 89.7754C39.295 89.5145 42.2173 87.5455 50.4432 87.5455C57.3403 87.5455 58.8003 88.2613 61.0103 89.3428L61.1721 89.4226C61.3257 89.4769 62.1115 89.7438 63.0305 89.7732C63.8679 89.7372 64.5841 89.5103 64.7934 89.4376C67.3158 88.2108 69.785 87.5455 75.5568 87.5455C83.7827 87.5455 86.705 89.5145 86.9721 89.7754C87.6034 89.7754 88.1136 90.2738 88.1136 90.8904V92.0053C88.1136 92.6219 87.6034 93.1203 86.9721 93.1203C86.9721 93.1203 84.3056 93.1203 84.3056 94.2352C84.3056 95.3502 83.5475 92.6219 83.5475 92.0053V90.9194C82.1554 90.3866 79.6632 89.3947 75.5568 89.3947C70.9817 89.3947 68.7032 90.206 66.7486 91.0116L66.7705 91.0643L66.7695 91.8317L65.9129 93.8987L64.8547 93.4803C64.7602 93.443 64.5563 93.3758 64.2736 93.3061C63.4854 93.1117 62.675 93.0525 61.9584 93.1996C61.6955 93.2536 61.4515 93.3346 61.2277 93.444L60.2068 93.9428L59.1853 91.9485L59.2307 91.0621L59.2619 90.9867C57.5762 90.2013 56.022 89.3947 50.4432 89.3947C46.337 89.3947 43.8449 90.3862 42.4525 90.919V92.0053C42.4525 92.6219 41.311 95.3502 41.311 94.2352C41.311 93.1203 39.0279 93.1203 39.0279 93.1203C38.3978 93.1203 37.8864 92.6219 37.8864 92.0053V90.8904C37.8864 90.2738 38.3978 89.7754 39.0279 89.7754Z" fill="#252C2F"/>
</g>
</g>
</g>
<path d="M259.853 45.14C259.653 43.78 259.693 42.54 259.973 41.42C260.293 40.3 260.733 39.26 261.293 38.3C261.853 37.34 262.473 36.46 263.153 35.66C263.873 34.86 264.553 34.1 265.193 33.38C265.833 32.62 266.353 31.9 266.753 31.22C267.193 30.5 267.413 29.76 267.413 29C267.413 27.76 267.033 26.82 266.273 26.18C265.553 25.54 264.593 25.22 263.393 25.22C262.273 25.22 261.273 25.48 260.393 26C259.553 26.52 258.733 27.18 257.933 27.98L253.073 23.54C254.473 21.9 256.133 20.58 258.053 19.58C260.013 18.58 262.173 18.08 264.533 18.08C266.133 18.08 267.613 18.28 268.973 18.68C270.373 19.08 271.573 19.7 272.573 20.54C273.613 21.38 274.413 22.46 274.973 23.78C275.573 25.06 275.873 26.58 275.873 28.34C275.873 29.58 275.653 30.7 275.213 31.7C274.773 32.66 274.213 33.56 273.533 34.4C272.893 35.24 272.193 36.06 271.433 36.86C270.713 37.62 270.033 38.42 269.393 39.26C268.793 40.1 268.313 41 267.953 41.96C267.593 42.88 267.473 43.94 267.593 45.14H259.853ZM263.693 59.72C262.173 59.72 260.913 59.2 259.913 58.16C258.913 57.08 258.413 55.76 258.413 54.2C258.413 52.6 258.913 51.28 259.913 50.24C260.913 49.16 262.173 48.62 263.693 48.62C265.213 48.62 266.473 49.16 267.473 50.24C268.513 51.28 269.033 52.6 269.033 54.2C269.033 55.76 268.513 57.08 267.473 58.16C266.473 59.2 265.213 59.72 263.693 59.72Z" fill="white"/>
<defs>
<filter id="filter0_d" x="33.8864" y="85.5455" width="58.2273" height="23.8409" filterUnits="userSpaceOnUse" color-interpolation-filters="sRGB">
<feFlood flood-opacity="0" result="BackgroundImageFix"/>
<feColorMatrix in="SourceAlpha" type="matrix" values="0 0 0 0 0 0 0 0 0 0 0 0 0 0 0 0 0 0 127 0"/>
<feOffset dy="2"/>
<feGaussianBlur stdDeviation="2"/>
<feColorMatrix type="matrix" values="0 0 0 0 0 0 0 0 0 0 0 0 0 0 0 0 0 0 0.2 0"/>
<feBlend mode="normal" in2="BackgroundImageFix" result="effect1_dropShadow"/>
<feBlend mode="normal" in="SourceGraphic" in2="effect1_dropShadow" result="shape"/>
</filter>
</defs>
</svg>
