<?xml version="1.0" encoding="UTF-8" standalone="no"?>
<svg width="16px" height="16px" viewBox="0 0 16 16" version="1.1" xmlns="http://www.w3.org/2000/svg" xmlns:xlink="http://www.w3.org/1999/xlink">
    <!-- Generator: Sketch 39.1 (31720) - http://www.bohemiancoding.com/sketch -->
    <title>tooltip</title>
    <desc>Created with Sketch.</desc>
    <defs></defs>
    <g id="Page-2" stroke="none" stroke-width="1" fill="none" fill-rule="evenodd">
        <g id="tooltip">
            <path d="M13.6,16 L2.4,16 C1.0744,16 0,14.9256 0,13.6 L0,2.4 C0,1.0744 1.0744,0 2.4,0 L13.6,0 C14.9256,0 16,1.0744 16,2.4 L16,13.6 C16,14.9256 14.9256,16 13.6,16" id="Fill-1" fill="#0071BC"></path>
            <path d="M7.82496,10.774 C7.38016,10.774 7.02016,10.414 7.02016,9.9692 L7.02016,8.4388 C7.02016,7.9948 7.38016,7.6348 7.82496,7.6348 C8.85776,7.6348 9.69776,6.794 9.69776,5.7612 C9.69776,4.7284 8.85776,3.8884 7.82496,3.8884 C7.15376,3.8884 6.52976,4.2516 6.19616,4.8356 C5.97616,5.2212 5.48496,5.3556 5.09856,5.1356 C4.71296,4.9156 4.57856,4.4236 4.79856,4.038 C5.41776,2.9532 6.57696,2.2788 7.82496,2.2788 C9.74496,2.2788 11.30736,3.8412 11.30736,5.7612 C11.30736,7.4052 10.16336,8.786 8.62976,9.15 L8.62976,9.9692 C8.62976,10.414 8.26976,10.774 7.82496,10.774" id="Fill-3" fill="#FFFFFF"></path>
            <path d="M7.8352,11.784 L7.8144,11.784 C7.2856,11.784 6.8568,12.2128 6.8568,12.7424 L6.8568,12.7624 C6.8568,13.292 7.2856,13.7208 7.8144,13.7208 L7.8352,13.7208 C8.3648,13.7208 8.7936,13.292 8.7936,12.7624 L8.7936,12.7424 C8.7936,12.2128 8.3648,11.784 7.8352,11.784" id="Fill-5" fill="#FFFFFF"></path>
        </g>
    </g>
</svg>