<svg xmlns="http://www.w3.org/2000/svg" width="270" height="96" fill="none" viewBox="0 0 270 96"><circle cx="226" cy="52" r="42.5" fill="#F2F9FF" stroke="#A8B6C6" stroke-width="3"/><mask id="a" width="88" height="88" x="182" y="8" maskUnits="userSpaceOnUse" style="mask-type:alpha"><circle cx="226" cy="52" r="44" fill="#D9D9D9"/></mask><g mask="url(#a)"><path fill="#fff" d="M189.822 45.156h72.356v38.133h-72.356z"/><path fill="#112E51" d="M188.16 66.96h1.76v27.28h-1.76zm73.92 0h1.76v27.28h-1.76zm-69.324 14.373h66.489v1.956h-66.489z"/></g><circle cx="226" cy="52" r="42.5" stroke="#A8B6C6" stroke-width="3"/><path fill="#112E51" d="M258.069 18.56a5.77 5.77 0 0 1 5.771 5.77v43.51h-1.76l-.064-43.51a3.947 3.947 0 0 0-3.947-3.946h-64.138c-2.18 0-4.011 2.156-4.011 4.336v43.12h-1.76V24.33a5.77 5.77 0 0 1 5.771-5.77z"/><path fill="#112E51" fill-rule="evenodd" d="M193.197 19.472h65.606a4.125 4.125 0 0 1 4.125 4.125v10.452h-73.856V23.597a4.125 4.125 0 0 1 4.125-4.125" clip-rule="evenodd"/><path fill="#fff" d="M195.388 28.218a1.458 1.458 0 1 0 0-2.916 1.458 1.458 0 0 0 0 2.916m4.859 0a1.458 1.458 0 1 0 0-2.916 1.458 1.458 0 0 0 0 2.916m4.859 0a1.458 1.458 0 1 0 0-2.916 1.458 1.458 0 0 0 0 2.916"/><path stroke="#fff" stroke-linecap="round" stroke-width="3" d="M232.802 26.76h25.267"/><mask id="b" width="23" height="24" x="196" y="41" maskUnits="userSpaceOnUse" style="mask-type:alpha"><path fill="#fff" d="M207.764 64.73c6.18 0 11.19-5.177 11.19-11.563s-5.01-11.563-11.19-11.563-11.191 5.177-11.191 11.563 5.011 11.563 11.191 11.563"/></mask><g mask="url(#b)"><path fill="#E6E6E6" d="M207.764 64.73c6.18 0 11.19-5.177 11.19-11.563s-5.01-11.563-11.19-11.563-11.191 5.177-11.191 11.563 5.011 11.563 11.191 11.563"/><path fill="#CEDCED" d="M218.954 41.604h-22.381V64.73h22.381z"/></g><mask id="c" width="26" height="27" x="195" y="38" maskUnits="userSpaceOnUse" style="mask-type:alpha"><path fill="#fff" d="M196.573 53.54c0 6.18 5.011 11.19 11.191 11.19s11.19-5.01 11.19-11.19h1.119V38.62h-24.619v14.92z"/></mask><g mask="url(#c)"><mask id="d" width="20" height="24" x="198" y="41" maskUnits="userSpaceOnUse" style="mask-type:alpha"><path fill="#fff" d="M210.002 55.462v1.715h.373a6.714 6.714 0 0 1 6.714 6.714v.84h-18.651v-.84a6.714 6.714 0 0 1 6.715-6.714h.373v-1.715a5.23 5.23 0 0 1-2.956-4.171 1.12 1.12 0 0 1-.961-1.108v-1.306c0-.554.404-1.014.933-1.103v-.575a5.222 5.222 0 1 1 10.444 0v.575c.529.089.932.549.932 1.103v1.306a1.12 1.12 0 0 1-.96 1.108 5.23 5.23 0 0 1-2.956 4.171"/></mask><g mask="url(#d)"><path fill="#D0C6AC" d="M210.002 55.462v1.715h.373a6.714 6.714 0 0 1 6.714 6.714v.84h-18.651v-.84a6.714 6.714 0 0 1 6.715-6.714h.373v-1.715a5.23 5.23 0 0 1-2.956-4.171 1.12 1.12 0 0 1-.961-1.108v-1.306c0-.554.404-1.014.933-1.103v-.575a5.222 5.222 0 1 1 10.444 0v.575c.529.089.932.549.932 1.103v1.306a1.12 1.12 0 0 1-.96 1.108 5.23 5.23 0 0 1-2.956 4.171"/><path fill="#D08B5B" d="M220.073 41.977h-24.619V64.73h24.619z"/><path fill="#000" fill-opacity=".1" fill-rule="evenodd" d="M212.986 49.344v2.144a5.222 5.222 0 1 1-10.444 0v-2.144 1.398a5.222 5.222 0 1 0 10.444 0z" clip-rule="evenodd"/></g><mask id="e" width="20" height="8" x="198" y="57" maskUnits="userSpaceOnUse" style="mask-type:alpha"><path fill="#fff" d="M210.931 57.204a6.715 6.715 0 0 1 6.158 6.692v.834h-18.651v-.834a6.715 6.715 0 0 1 6.253-6.699q-.005.052-.005.105c0 1.107 1.399 2.004 3.124 2.004s3.124-.897 3.124-2.003z"/></mask><g mask="url(#e)"><path fill="#E6E6E6" fill-rule="evenodd" d="M210.931 57.204a6.715 6.715 0 0 1 6.158 6.692v.834h-18.651v-.834a6.715 6.715 0 0 1 6.253-6.699q-.005.052-.005.105c0 1.107 1.399 2.004 3.124 2.004s3.124-.897 3.124-2.003z" clip-rule="evenodd"/><path fill="#262E33" d="M220.073 54.473h-24.619V64.73h24.619z"/><path fill="#000" fill-opacity=".16" d="M207.811 59.952c2.041 0 3.696-1.124 3.696-2.51s-1.655-2.51-3.696-2.51-3.697 1.124-3.697 2.51 1.655 2.51 3.697 2.51" opacity=".6"/></g><path fill="#3A4C5A" fill-rule="evenodd" d="M204.853 57.188a6.715 6.715 0 0 0-6.415 6.708v.834h6.468c-.317-1.126-.499-2.452-.499-3.87 0-1.336.162-2.59.446-3.672m5.861 7.542h6.375v-.834a6.714 6.714 0 0 0-6.32-6.703c.283 1.082.445 2.333.445 3.667 0 1.419-.183 2.744-.5 3.87" clip-rule="evenodd"/><path fill="#2F4351" fill-rule="evenodd" d="M204.873 57.084q-.56 2.703.466 7.646h-1.492l-1.305-3.357.559-.84-.559-.559 1.771-2.797q.284-.088.56-.093m5.782 0q.56 2.703-.467 7.646h1.492l1.306-3.357-.56-.84.56-.559-1.772-2.797a2 2 0 0 0-.559-.093" clip-rule="evenodd"/><path fill="#000" fill-opacity=".7" fill-rule="evenodd" d="M206.458 52.514a1.306 1.306 0 0 0 2.611 0" clip-rule="evenodd"/><path fill="#000" fill-opacity=".16" fill-rule="evenodd" d="M206.645 50.742c0 .412.501.746 1.119.746.617 0 1.119-.334 1.119-.746" clip-rule="evenodd"/><path fill="#000" fill-opacity=".6" d="M205.339 49.623a.56.56 0 1 0 0-1.12.56.56 0 0 0 0 1.12m4.849 0a.56.56 0 1 0 0-1.12.56.56 0 0 0 0 1.12m-6.189-1.757c.365-.513 1.366-.801 2.228-.59a.187.187 0 1 0 .089-.362c-1.001-.246-2.16.088-2.621.736a.186.186 0 1 0 .304.216m7.529 0c-.365-.513-1.366-.801-2.227-.59a.19.19 0 0 1-.227-.136.19.19 0 0 1 .137-.226c1.001-.246 2.16.088 2.622.736a.187.187 0 0 1-.305.216"/><mask id="f" width="26" height="27" x="195" y="38" maskUnits="userSpaceOnUse" style="mask-type:alpha"><path fill="#fff" d="M220.073 38.62h-24.619v26.11h24.619z"/></mask><g mask="url(#f)"><mask id="g" width="19" height="24" x="199" y="40" maskUnits="userSpaceOnUse" style="mask-type:alpha"><path fill="#fff" d="M201.05 54.71v-8.253q.001-.495.107-.958c.285-1.869 1.364-3.354 2.597-4.268 1.856-1.377 4.983-1.774 6.066-.138.806-.358 2.002-.032 2.886.79.892.878 1.604 2.816 1.18 4.402q.015.178.015.358v2.038a1.12 1.12 0 0 0-.915-.907v-.016c-.563-2.008-2.217-2.93-3.224-3.844-1.575 1.762-6.491 1.768-8.153 5.243v.933c0 .56.413 1.026.952 1.106a5.23 5.23 0 0 0 2.965 4.266v.036c.273 4.09-.619 9.213-6.435 7.647 1.269-.743 1.941-5.497 1.959-8.436m8.952.752a5.23 5.23 0 0 0 2.964-4.266 1.12 1.12 0 0 0 .935-.91v.127c0 1.476.351 2.931 1.022 4.245l2.514 4.916a3.55 3.55 0 0 1-.367 3.801 6.716 6.716 0 0 0-6.695-6.198h-.373z"/></mask><g mask="url(#g)"><path fill="#272C2E" fill-rule="evenodd" d="M201.05 54.71v-8.253q.001-.495.107-.958c.285-1.869 1.364-3.353 2.597-4.268 1.856-1.377 4.983-1.774 6.066-.138.806-.358 2.002-.032 2.886.79.892.879 1.604 2.817 1.18 4.402q.015.178.015.358v2.038a1.12 1.12 0 0 0-.915-.907v-.016c-.563-2.008-2.217-2.93-3.224-3.844-1.575 1.762-6.491 1.769-8.153 5.243v.933c0 .561.413 1.026.952 1.106a5.23 5.23 0 0 0 2.965 4.266v.036c.273 4.09-.62 9.214-6.435 7.647 1.269-.742 1.941-5.497 1.959-8.435m8.952.752a5.23 5.23 0 0 0 2.964-4.266 1.12 1.12 0 0 0 .935-.91v.127c0 1.476.351 2.931 1.022 4.246l2.514 4.915a3.55 3.55 0 0 1-.367 3.801 6.716 6.716 0 0 0-6.695-6.198h-.373z" clip-rule="evenodd"/><path fill="#2C1B18" d="M223.71 40.02h-24.619v26.11h24.619z"/></g><path fill="#000" fill-opacity=".16" fill-rule="evenodd" d="M201.609 49.157c1.662-3.015 6.578-3.02 8.153-4.55 1.005.792 2.654 1.404 3.22 3.139-.566-2-2.215-2.92-3.22-3.832-1.575 1.762-6.491 1.768-8.153 5.243" clip-rule="evenodd"/></g></g><path fill="#A8B6C6" d="M257.244 48.65h-29.447a.825.825 0 0 1-.825-.825v-2.91c0-.455.369-.825.825-.825h29.447c.455 0 .825.37.825.825v2.91c0 .455-.37.824-.825.824m-8.746 7.295h-20.701a.825.825 0 0 1-.825-.825v-2.91c0-.455.369-.824.825-.824h20.701c.455 0 .825.37.825.825v2.909c0 .456-.37.825-.825.825m4.859 7.294h-25.56a.825.825 0 0 1-.825-.825v-2.909c0-.455.369-.825.825-.825h25.56c.455 0 .825.37.825.825v2.91c0 .455-.37.824-.825.824"/><path fill="#E21C3D" d="M218.336 70.533h-21.145a.825.825 0 0 1-.825-.825v-2.91c0-.455.37-.824.825-.824h21.145c.456 0 .825.369.825.825v2.909a.825.825 0 0 1-.825.825"/><path fill="#A8B6C6" d="M248.498 70.533h-20.701a.825.825 0 0 1-.825-.825v-2.91c0-.455.369-.824.825-.824h20.701c.455 0 .825.369.825.825v2.909c0 .455-.37.825-.825.825"/><circle cx="135" cy="52" r="25.5" fill="#F2F9FF" stroke="#A8B6C6" stroke-width="3"/><path fill="#B51E23" d="M147.666 25h-12.849v45.728c12.19-5.442 16.452-12.499 17.53-14.7a3.05 3.05 0 0 0 .303-1.349V30.03a5.06 5.06 0 0 0-1.46-3.555A4.96 4.96 0 0 0 147.666 25"/><path fill="#E21D3E" d="M121.984 25C119.23 25 117 27.251 117 30.03v24.65c-.004.468.098.93.301 1.35 1.08 2.18 5.394 9.289 17.518 14.699V25z"/><path fill="#fff" d="M137.98 44.707a5.134 5.134 0 0 0-.187-8.169 5.06 5.06 0 0 0-2.941-.953 5.06 5.06 0 0 0-4.782 3.438 5.14 5.14 0 0 0 1.653 5.684c-.56 3.202-1.114 6.4-1.66 9.603 1.571.273 3.163.412 4.756.412a27.7 27.7 0 0 0 4.833-.326c-.562-3.267-1.081-6.467-1.672-9.69"/><circle cx="44" cy="52" r="42.5" fill="#F2F9FF" stroke="#A8B6C6" stroke-width="3"/><mask id="h" width="88" height="88" x="0" y="8" maskUnits="userSpaceOnUse" style="mask-type:alpha"><circle cx="44" cy="52" r="42.5" fill="#F2F9FF" stroke="#A8B6C6" stroke-width="3"/></mask><g mask="url(#h)"><path fill="#D0C6AC" fill-rule="evenodd" d="M52.817 60.191v6.438h1.406c13.985 0 25.3 11.266 25.3 25.191v3.15H9.245v-3.15c0-13.925 11.314-25.191 25.3-25.191h1.405v-6.438c-6.044-2.869-10.4-8.712-11.139-15.64a4.2 4.2 0 0 1-3.62-4.163V35.49a4.18 4.18 0 0 1 3.515-4.13v-2.168c0-10.812 8.82-19.594 19.678-19.594s19.678 8.782 19.678 19.594v2.169c2.003.35 3.514 2.064 3.514 4.128v4.899a4.2 4.2 0 0 1-3.62 4.163c-.738 6.928-5.095 12.771-11.139 15.64" clip-rule="evenodd"/><mask id="i" width="71" height="86" x="9" y="9" maskUnits="userSpaceOnUse" style="mask-type:alpha"><path fill="#fff" fill-rule="evenodd" d="M52.817 60.191v6.438h1.406c13.985 0 25.3 11.266 25.3 25.191v3.15H9.245v-3.15c0-13.925 11.314-25.191 25.3-25.191h1.405v-6.438c-6.044-2.869-10.4-8.712-11.139-15.64a4.2 4.2 0 0 1-3.62-4.163V35.49a4.18 4.18 0 0 1 3.515-4.13v-2.168c0-10.812 8.82-19.594 19.678-19.594s19.678 8.782 19.678 19.594v2.169c2.003.35 3.514 2.064 3.514 4.128v4.899a4.2 4.2 0 0 1-3.62 4.163c-.738 6.928-5.095 12.771-11.139 15.64" clip-rule="evenodd"/></mask><g mask="url(#i)"><path fill="#D08B5B" d="M102.012 9.598H9.245v97.967h92.767z"/></g><mask id="j" width="71" height="86" x="9" y="9" maskUnits="userSpaceOnUse" style="mask-type:alpha"><path fill="#fff" fill-rule="evenodd" d="M52.817 60.191v6.438h1.406c13.985 0 25.3 11.266 25.3 25.191v3.15H9.245v-3.15c0-13.925 11.314-25.191 25.3-25.191h1.405v-6.438c-6.044-2.869-10.4-8.712-11.139-15.64a4.2 4.2 0 0 1-3.62-4.163V35.49a4.18 4.18 0 0 1 3.515-4.13v-2.168c0-10.812 8.82-19.594 19.678-19.594s19.678 8.782 19.678 19.594v2.169c2.003.35 3.514 2.064 3.514 4.128v4.899a4.2 4.2 0 0 1-3.62 4.163c-.738 6.928-5.095 12.771-11.139 15.64" clip-rule="evenodd"/></mask><g mask="url(#j)"><path fill="#000" fill-opacity=".1" fill-rule="evenodd" d="M64.062 37.239v8.047c0 10.812-8.82 19.594-19.678 19.594s-19.678-8.782-19.678-19.594V37.24v5.248c0 10.812 8.82 19.594 19.678 19.594S64.062 53.3 64.062 42.488z" clip-rule="evenodd"/></g><path fill="#E6E6E6" fill-rule="evenodd" d="M56.331 66.734c13.001 1.05 23.192 11.896 23.192 25.122v3.114H9.245v-3.114c0-13.331 10.4-24.247 23.543-25.157v.385c0 4.163 5.27 7.522 11.771 7.522s11.772-3.358 11.772-7.522z" clip-rule="evenodd"/><mask id="k" width="71" height="29" x="9" y="66" maskUnits="userSpaceOnUse" style="mask-type:alpha"><path fill="#fff" fill-rule="evenodd" d="M56.331 66.734c13.001 1.05 23.192 11.896 23.192 25.122v3.114H9.245v-3.114c0-13.331 10.4-24.247 23.543-25.157v.385c0 4.163 5.27 7.522 11.771 7.522s11.772-3.358 11.772-7.522z" clip-rule="evenodd"/></mask><g mask="url(#k)"><path fill="#262E33" d="M90.767 56.483H-2V94.97h92.767z"/></g><mask id="l" width="71" height="29" x="9" y="66" maskUnits="userSpaceOnUse" style="mask-type:alpha"><path fill="#fff" fill-rule="evenodd" d="M56.331 66.734c13.001 1.05 23.192 11.896 23.192 25.122v3.114H9.245v-3.114c0-13.331 10.4-24.247 23.543-25.157v.385c0 4.163 5.27 7.522 11.771 7.522s11.772-3.358 11.772-7.522z" clip-rule="evenodd"/></mask><g mask="url(#l)"><path fill="#000" fill-opacity=".16" d="M44.56 77.02c7.685 0 13.914-4.213 13.914-9.411s-6.23-9.412-13.915-9.412-13.915 4.214-13.915 9.412 6.23 9.412 13.915 9.412" opacity=".6"/></g><path fill="#3A4C5A" fill-rule="evenodd" d="M33.42 66.664c-13.458.595-24.175 11.651-24.175 25.192v3.113H33.63c-1.195-4.233-1.897-9.201-1.897-14.52 0-5.003.597-9.726 1.686-13.785m22.068 28.305h24.035v-3.113c0-13.401-10.542-24.387-23.824-25.157 1.054 4.059 1.686 8.747 1.686 13.75 0 5.319-.703 10.287-1.897 14.52" clip-rule="evenodd"/><path fill="#E6E6E6" fill-rule="evenodd" d="m61.602 86.572 3.373-2.519c.492-.385 1.195-.385 1.722 0l2.284 1.82z" clip-rule="evenodd"/><path fill="#2F4351" fill-rule="evenodd" d="M33.49 66.28c-1.405 6.752-.808 16.339 1.758 28.69h-5.623l-4.92-12.596 2.11-3.15-2.11-2.099 6.677-10.496c.703-.21 1.406-.35 2.109-.35m21.786.001c1.405 6.752.808 16.339-1.757 28.69h5.622l4.92-12.596-2.109-3.15 2.109-2.099-6.677-10.496c-.703-.21-1.405-.35-2.108-.35" clip-rule="evenodd"/><path fill="#000" fill-opacity=".7" fill-rule="evenodd" d="M39.464 49.135c0 2.694 2.214 4.898 4.92 4.898s4.92-2.204 4.92-4.898" clip-rule="evenodd"/><path fill="#000" fill-opacity=".16" fill-rule="evenodd" d="M40.167 42.487c0 1.54 1.898 2.8 4.217 2.8s4.216-1.26 4.216-2.8" clip-rule="evenodd"/><path fill="#000" fill-opacity=".6" d="M35.248 38.289c1.164 0 2.108-.94 2.108-2.1s-.944-2.099-2.108-2.099-2.109.94-2.109 2.1c0 1.159.944 2.099 2.109 2.099m18.272 0c1.164 0 2.108-.94 2.108-2.1s-.944-2.099-2.108-2.099-2.108.94-2.108 2.1c0 1.159.944 2.099 2.108 2.099M30.188 31.71c1.37-1.924 5.13-3.008 8.398-2.203a.673.673 0 0 0 .843-.525.67.67 0 0 0-.527-.84c-3.76-.945-8.117.315-9.839 2.73-.246.314-.176.769.14.979.317.21.774.175.985-.14m28.392-.001c-1.37-1.924-5.13-3.008-8.398-2.204a.673.673 0 0 1-.844-.524c-.07-.385.141-.77.527-.84 3.76-.91 8.153.315 9.875 2.764.21.315.14.735-.176.98s-.773.14-.984-.175"/><mask id="m" width="93" height="98" x="-2" y="-3" maskUnits="userSpaceOnUse" style="mask-type:alpha"><path fill="#fff" d="M90.767-2.997H-2V94.97h92.767z"/></mask><g mask="url(#m)"><path fill="#272C2E" fill-rule="evenodd" d="M19.084 57.357V26.393c0-1.225.14-2.45.421-3.604 1.054-6.998 5.13-12.56 9.769-15.99 6.993-5.178 18.764-6.648 22.84-.525 3.057-1.33 7.555-.105 10.894 2.974 3.373 3.29 6.043 10.567 4.462 16.515.035.455.07.874.07 1.33v7.662a4.17 4.17 0 0 0-3.443-3.394v-.07c-2.109-7.523-8.363-10.986-12.158-14.415-5.974 6.613-24.492 6.613-30.747 19.663v3.499c0 2.1 1.546 3.849 3.584 4.164.597 7.067 5.025 13.085 11.174 15.99v.14c1.02 15.359-2.319 34.568-24.246 28.69 4.78-2.8 7.31-20.609 7.38-31.665m33.733 2.834c6.15-2.904 10.542-8.922 11.174-15.99a4.21 4.21 0 0 0 3.514-3.428v.49a34.9 34.9 0 0 0 3.866 15.92l9.452 18.438c2.46 4.758 1.722 10.322-1.37 14.275-.984-13.015-11.913-23.267-25.23-23.267h-1.406z" clip-rule="evenodd"/><mask id="n" width="72" height="89" x="11" y="2" maskUnits="userSpaceOnUse" style="mask-type:alpha"><path fill="#fff" fill-rule="evenodd" d="M19.084 57.357V26.393c0-1.225.14-2.45.421-3.604 1.054-6.998 5.13-12.56 9.769-15.99 6.993-5.178 18.764-6.648 22.84-.525 3.057-1.33 7.555-.105 10.894 2.974 3.373 3.29 6.043 10.567 4.462 16.515.035.455.07.874.07 1.33v7.662a4.17 4.17 0 0 0-3.443-3.394v-.07c-2.109-7.523-8.363-10.986-12.158-14.415-5.974 6.613-24.492 6.613-30.747 19.663v3.499c0 2.1 1.546 3.849 3.584 4.164.597 7.067 5.025 13.085 11.174 15.99v.14c1.02 15.359-2.319 34.568-24.246 28.69 4.78-2.8 7.31-20.609 7.38-31.665m33.733 2.834c6.15-2.904 10.542-8.922 11.174-15.99a4.21 4.21 0 0 0 3.514-3.428v.49a34.9 34.9 0 0 0 3.866 15.92l9.452 18.438c2.46 4.758 1.722 10.322-1.37 14.275-.984-13.015-11.913-23.267-25.23-23.267h-1.406z" clip-rule="evenodd"/></mask><g mask="url(#n)"><path fill="#4A312C" d="M104.472 2.251H11.704v97.967h92.768z"/></g><path fill="#000" fill-opacity=".16" fill-rule="evenodd" d="M21.192 36.54c6.255-11.302 24.773-11.337 30.711-17.075 3.796 2.974 10.015 5.283 12.123 11.791-2.143-7.488-8.363-10.951-12.123-14.38-5.938 6.613-24.456 6.613-30.711 19.663" clip-rule="evenodd"/></g></g><circle cx="44" cy="52" r="42.5" stroke="#A8B6C6" stroke-width="3"/><mask id="o" width="82" height="72" x="5" y="0" maskUnits="userSpaceOnUse" style="mask-type:alpha"><path fill="#D9D9D9" d="M5 72h82V0H5z"/></mask><g mask="url(#o)"><path fill="#D0C6AC" fill-rule="evenodd" d="M52.817 60.191v6.438h1.406c13.985 0 25.3 11.266 25.3 25.191v3.15H9.245v-3.15c0-13.925 11.314-25.191 25.3-25.191h1.405v-6.438c-6.044-2.869-10.4-8.712-11.139-15.64a4.2 4.2 0 0 1-3.62-4.163V35.49a4.18 4.18 0 0 1 3.515-4.13v-2.168c0-10.812 8.82-19.594 19.678-19.594s19.678 8.782 19.678 19.594v2.169c2.003.35 3.514 2.064 3.514 4.128v4.899a4.2 4.2 0 0 1-3.62 4.163c-.738 6.928-5.095 12.771-11.139 15.64" clip-rule="evenodd"/><mask id="p" width="71" height="86" x="9" y="9" maskUnits="userSpaceOnUse" style="mask-type:alpha"><path fill="#fff" fill-rule="evenodd" d="M52.817 60.191v6.438h1.406c13.985 0 25.3 11.266 25.3 25.191v3.15H9.245v-3.15c0-13.925 11.314-25.191 25.3-25.191h1.405v-6.438c-6.044-2.869-10.4-8.712-11.139-15.64a4.2 4.2 0 0 1-3.62-4.163V35.49a4.18 4.18 0 0 1 3.515-4.13v-2.168c0-10.812 8.82-19.594 19.678-19.594s19.678 8.782 19.678 19.594v2.169c2.003.35 3.514 2.064 3.514 4.128v4.899a4.2 4.2 0 0 1-3.62 4.163c-.738 6.928-5.095 12.771-11.139 15.64" clip-rule="evenodd"/></mask><g mask="url(#p)"><path fill="#D08B5B" d="M102.012 9.598H9.245v97.967h92.767z"/></g><mask id="q" width="71" height="86" x="9" y="9" maskUnits="userSpaceOnUse" style="mask-type:alpha"><path fill="#fff" fill-rule="evenodd" d="M52.817 60.191v6.438h1.406c13.985 0 25.3 11.266 25.3 25.191v3.15H9.245v-3.15c0-13.925 11.314-25.191 25.3-25.191h1.405v-6.438c-6.044-2.869-10.4-8.712-11.139-15.64a4.2 4.2 0 0 1-3.62-4.163V35.49a4.18 4.18 0 0 1 3.515-4.13v-2.168c0-10.812 8.82-19.594 19.678-19.594s19.678 8.782 19.678 19.594v2.169c2.003.35 3.514 2.064 3.514 4.128v4.899a4.2 4.2 0 0 1-3.62 4.163c-.738 6.928-5.095 12.771-11.139 15.64" clip-rule="evenodd"/></mask><g mask="url(#q)"><path fill="#000" fill-opacity=".1" fill-rule="evenodd" d="M64.062 37.239v8.047c0 10.812-8.82 19.594-19.678 19.594s-19.678-8.782-19.678-19.594V37.24v5.248c0 10.812 8.82 19.594 19.678 19.594S64.062 53.3 64.062 42.488z" clip-rule="evenodd"/></g><path fill="#E6E6E6" fill-rule="evenodd" d="M56.331 66.734c13.001 1.05 23.192 11.896 23.192 25.122v3.114H9.245v-3.114c0-13.331 10.4-24.247 23.543-25.157v.385c0 4.163 5.27 7.522 11.771 7.522s11.772-3.358 11.772-7.522z" clip-rule="evenodd"/><mask id="r" width="71" height="29" x="9" y="66" maskUnits="userSpaceOnUse" style="mask-type:alpha"><path fill="#fff" fill-rule="evenodd" d="M56.331 66.734c13.001 1.05 23.192 11.896 23.192 25.122v3.114H9.245v-3.114c0-13.331 10.4-24.247 23.543-25.157v.385c0 4.163 5.27 7.522 11.771 7.522s11.772-3.358 11.772-7.522z" clip-rule="evenodd"/></mask><g mask="url(#r)"><path fill="#262E33" d="M90.767 56.483H-2V94.97h92.767z"/></g><mask id="s" width="71" height="29" x="9" y="66" maskUnits="userSpaceOnUse" style="mask-type:alpha"><path fill="#fff" fill-rule="evenodd" d="M56.331 66.734c13.001 1.05 23.192 11.896 23.192 25.122v3.114H9.245v-3.114c0-13.331 10.4-24.247 23.543-25.157v.385c0 4.163 5.27 7.522 11.771 7.522s11.772-3.358 11.772-7.522z" clip-rule="evenodd"/></mask><g mask="url(#s)"><path fill="#000" fill-opacity=".16" d="M44.56 77.02c7.685 0 13.914-4.213 13.914-9.411s-6.23-9.412-13.915-9.412-13.915 4.214-13.915 9.412 6.23 9.412 13.915 9.412" opacity=".6"/></g><path fill="#3A4C5A" fill-rule="evenodd" d="M33.42 66.664c-13.458.595-24.175 11.651-24.175 25.192v3.113H33.63c-1.195-4.233-1.897-9.201-1.897-14.52 0-5.003.597-9.726 1.686-13.785m22.068 28.305h24.035v-3.113c0-13.401-10.542-24.387-23.824-25.157 1.054 4.059 1.686 8.747 1.686 13.75 0 5.319-.703 10.287-1.897 14.52" clip-rule="evenodd"/><path fill="#2F4351" fill-rule="evenodd" d="M33.49 66.28c-1.405 6.752-.808 16.339 1.758 28.69h-5.623l-4.92-12.596 2.11-3.15-2.11-2.099 6.677-10.496c.703-.21 1.406-.35 2.109-.35m21.786.001c1.405 6.752.808 16.339-1.757 28.69h5.622l4.92-12.596-2.109-3.15 2.109-2.099-6.677-10.496c-.703-.21-1.405-.35-2.108-.35" clip-rule="evenodd"/><path fill="#000" fill-opacity=".7" fill-rule="evenodd" d="M39.464 49.135c0 2.694 2.214 4.898 4.92 4.898s4.92-2.204 4.92-4.898" clip-rule="evenodd"/><path fill="#000" fill-opacity=".16" fill-rule="evenodd" d="M40.167 42.487c0 1.54 1.898 2.8 4.217 2.8s4.216-1.26 4.216-2.8" clip-rule="evenodd"/><path fill="#000" fill-opacity=".6" d="M35.248 38.289c1.164 0 2.108-.94 2.108-2.1s-.944-2.099-2.108-2.099-2.109.94-2.109 2.1c0 1.159.944 2.099 2.109 2.099m18.272 0c1.164 0 2.108-.94 2.108-2.1s-.944-2.099-2.108-2.099-2.108.94-2.108 2.1c0 1.159.944 2.099 2.108 2.099M30.188 31.71c1.37-1.924 5.13-3.008 8.398-2.203a.673.673 0 0 0 .843-.525.67.67 0 0 0-.527-.84c-3.76-.945-8.117.315-9.839 2.73-.246.314-.176.769.14.979.317.21.774.175.985-.14m28.392-.001c-1.37-1.924-5.13-3.008-8.398-2.204a.673.673 0 0 1-.844-.524c-.07-.385.141-.77.527-.84 3.76-.91 8.153.315 9.875 2.764.21.315.14.735-.176.98s-.773.14-.984-.175"/><mask id="t" width="93" height="98" x="-2" y="-3" maskUnits="userSpaceOnUse" style="mask-type:alpha"><path fill="#fff" d="M90.767-2.997H-2V94.97h92.767z"/></mask><g mask="url(#t)"><path fill="#272C2E" fill-rule="evenodd" d="M19.084 57.357V26.393c0-1.225.14-2.45.421-3.604 1.054-6.998 5.13-12.56 9.769-15.99 6.993-5.178 18.764-6.648 22.84-.525 3.057-1.33 7.555-.105 10.894 2.974 3.373 3.29 6.043 10.567 4.462 16.515.035.455.07.874.07 1.33v7.662a4.17 4.17 0 0 0-3.443-3.394v-.07c-2.109-7.523-8.363-10.986-12.158-14.415-5.974 6.613-24.492 6.613-30.747 19.663v3.499c0 2.1 1.546 3.849 3.584 4.164.597 7.067 5.025 13.085 11.174 15.99v.14c1.02 15.359-2.319 34.568-24.246 28.69 4.78-2.8 7.31-20.609 7.38-31.665m33.733 2.834c6.15-2.904 10.542-8.922 11.174-15.99a4.21 4.21 0 0 0 3.514-3.428v.49a34.9 34.9 0 0 0 3.866 15.92l9.452 18.438c2.46 4.758 1.722 10.322-1.37 14.275-.984-13.015-11.913-23.267-25.23-23.267h-1.406z" clip-rule="evenodd"/><mask id="u" width="72" height="89" x="11" y="2" maskUnits="userSpaceOnUse" style="mask-type:alpha"><path fill="#fff" fill-rule="evenodd" d="M19.084 57.357V26.393c0-1.225.14-2.45.421-3.604 1.054-6.998 5.13-12.56 9.769-15.99 6.993-5.178 18.764-6.648 22.84-.525 3.057-1.33 7.555-.105 10.894 2.974 3.373 3.29 6.043 10.567 4.462 16.515.035.455.07.874.07 1.33v7.662a4.17 4.17 0 0 0-3.443-3.394v-.07c-2.109-7.523-8.363-10.986-12.158-14.415-5.974 6.613-24.492 6.613-30.747 19.663v3.499c0 2.1 1.546 3.849 3.584 4.164.597 7.067 5.025 13.085 11.174 15.99v.14c1.02 15.359-2.319 34.568-24.246 28.69 4.78-2.8 7.31-20.609 7.38-31.665m33.733 2.834c6.15-2.904 10.542-8.922 11.174-15.99a4.21 4.21 0 0 0 3.514-3.428v.49a34.9 34.9 0 0 0 3.866 15.92l9.452 18.438c2.46 4.758 1.722 10.322-1.37 14.275-.984-13.015-11.913-23.267-25.23-23.267h-1.406z" clip-rule="evenodd"/></mask><g mask="url(#u)"><path fill="#4A312C" d="M104.472 2.251H11.704v97.967h92.768z"/></g><path fill="#000" fill-opacity=".16" fill-rule="evenodd" d="M21.192 36.54c6.255-11.302 24.773-11.337 30.711-17.075 3.796 2.974 10.015 5.283 12.123 11.791-2.143-7.488-8.363-10.951-12.123-14.38-5.938 6.613-24.456 6.613-30.711 19.663" clip-rule="evenodd"/></g></g><path stroke="#A8B6C6" stroke-width="2" d="M86 52h24m50 0h24"/><circle cx="184" cy="52" r="3" fill="#F2F9FF" stroke="#A8B6C6" stroke-width="2"/><circle cx="160" cy="52" r="3" fill="#F2F9FF" stroke="#A8B6C6" stroke-width="2"/><circle cx="110" cy="52" r="3" fill="#F2F9FF" stroke="#A8B6C6" stroke-width="2"/><circle cx="86" cy="52" r="3" fill="#F2F9FF" stroke="#A8B6C6" stroke-width="2"/></svg>