<svg width="107" height="119" viewBox="0 0 107 119" xmlns="http://www.w3.org/2000/svg" xmlns:xlink="http://www.w3.org/1999/xlink"><defs><path d="M14.017 28.033c7.491 0 13.564-6.275 13.564-14.016C27.581 6.275 21.508 0 14.017 0 6.525 0 .452 6.275.452 14.017c0 7.741 6.073 14.016 13.565 14.016z" id="a"/><path d="M1.356 18.086c0 7.492 6.074 13.565 13.565 13.565s13.565-6.073 13.565-13.565h1.356V0H0v18.086h1.356z" id="c"/><path d="M14.017 16.799v2.078h.452a8.138 8.138 0 0 1 8.139 8.14v1.016H0v-1.017a8.138 8.138 0 0 1 8.139-8.139h.452V16.8a6.335 6.335 0 0 1-3.583-5.056A1.357 1.357 0 0 1 3.843 10.4V8.817c0-.672.49-1.23 1.13-1.338v-.697a6.33 6.33 0 1 1 12.661 0v.697c.641.108 1.13.666 1.13 1.338V10.4c0 .684-.506 1.25-1.164 1.343a6.335 6.335 0 0 1-3.583 5.056z" id="e"/><path d="M15.143.825a8.14 8.14 0 0 1 7.465 8.11v1.012H0V8.936A8.14 8.14 0 0 1 7.579.816a1.493 1.493 0 0 0-.005.128c0 1.34 1.695 2.428 3.786 2.428 2.092 0 3.787-1.087 3.787-2.428 0-.04-.002-.08-.004-.12z" id="g"/><path id="i" d="M29.842 0H0v31.65h29.842z"/><path d="M3.165 18.6V8.595c0-.4.045-.788.13-1.161.346-2.266 1.653-4.065 3.148-5.174 2.25-1.669 6.04-2.15 7.353-.167.978-.435 2.427-.039 3.499.958 1.081 1.064 1.944 3.414 1.43 5.336.012.143.019.288.019.434v2.47a1.357 1.357 0 0 0-1.11-1.1v-.019c-.683-2.434-2.687-3.551-3.908-4.66-1.91 2.137-7.868 2.144-9.883 6.356v1.13c0 .68.501 1.244 1.154 1.342a6.335 6.335 0 0 0 3.594 5.17v.045c.33 4.957-.75 11.168-7.8 9.269 1.538-.9 2.352-6.663 2.374-10.226zm10.852.912a6.335 6.335 0 0 0 3.593-5.171 1.358 1.358 0 0 0 1.134-1.103v.154c0 1.789.425 3.553 1.238 5.146l3.047 5.957a4.297 4.297 0 0 1-.445 4.609 8.14 8.14 0 0 0-8.115-7.514h-.452v-2.078z" id="k"/></defs><g transform="translate(1 1)" fill="none" fill-rule="evenodd"><ellipse fill="#EBF3FA" cx="52.105" cy="52.457" rx="52.105" ry="52.457"/><path d="M104.21 52.457C104.21 23.486 80.883 0 52.106 0 23.328 0 0 23.486 0 52.457" stroke="#A8B6C6" stroke-width="2"/><path d="M96.158 44.21v35.68c-9.414 14.539-25.446 24.12-43.658 24.12-18.946 0-35.534-10.37-44.765-25.904l.002-33.895h88.42z" fill="#FFF"/><path d="M91.373 11.053a6.995 6.995 0 0 1 6.995 6.995v59.19a51.87 51.87 0 0 1-2.209 3.568l-.001-62.758a4.785 4.785 0 0 0-4.785-4.785H13.627a4.785 4.785 0 0 0-4.785 4.785v62.759a51.87 51.87 0 0 1-2.211-3.57v-59.19a6.995 6.995 0 0 1 6.996-6.994z" fill="#112E51" fill-rule="nonzero"/><path d="M12.737 12.158h79.526a5 5 0 0 1 5 5v12.67H7.737v-12.67a5 5 0 0 1 5-5z" fill="#112E51"/><circle fill="#FFF" cx="15.394" cy="20.993" r="1.767"/><circle fill="#FFF" cx="21.284" cy="20.993" r="1.767"/><circle fill="#FFF" cx="27.173" cy="20.993" r="1.767"/><path d="M60.746 20.993h30.627" stroke="#FFF" stroke-width="3" stroke-linecap="round"/><g transform="translate(16.378 38.986)"><mask id="b" fill="#fff"><use xlink:href="#a"/></mask><g mask="url(#b)" fill-rule="nonzero"><path d="M14.017 28.033c7.491 0 13.564-6.275 13.564-14.016C27.581 6.275 21.508 0 14.017 0 6.525 0 .452 6.275.452 14.017c0 7.741 6.073 14.016 13.565 14.016z" fill="#E6E6E6"/><path fill="#CEDCED" d="M27.581 0H.452v28.033h27.13z"/></g></g><g transform="translate(15.474 35.368)"><mask id="d" fill="#fff"><use xlink:href="#c"/></mask><g mask="url(#d)"><g transform="translate(3.617 3.617)"><mask id="f" fill="#fff"><use xlink:href="#e"/></mask><g mask="url(#f)"><path d="M14.017 16.799v2.078h.452a8.138 8.138 0 0 1 8.139 8.14v1.016H0v-1.017a8.138 8.138 0 0 1 8.139-8.139h.452V16.8a6.335 6.335 0 0 1-3.583-5.056A1.357 1.357 0 0 1 3.843 10.4V8.817c0-.672.49-1.23 1.13-1.338v-.697a6.33 6.33 0 1 1 12.661 0v.697c.641.108 1.13.666 1.13 1.338V10.4c0 .684-.506 1.25-1.164 1.343a6.335 6.335 0 0 1-3.583 5.056z" fill="#D0C6AC" fill-rule="nonzero"/><path fill="#D08B5B" fill-rule="nonzero" d="M26.225.452H-3.617v27.581h29.842z"/><path d="M17.634 9.382v2.6a6.33 6.33 0 1 1-12.66 0v-2.6 1.696a6.33 6.33 0 1 0 12.66 0V9.382z" fill-opacity=".1" fill="#000"/></g></g><g transform="translate(3.617 21.703)"><mask id="h" fill="#fff"><use xlink:href="#g"/></mask><g mask="url(#h)"><path d="M15.143.825a8.14 8.14 0 0 1 7.465 8.11v1.012H0V8.936A8.14 8.14 0 0 1 7.579.816a1.493 1.493 0 0 0-.005.128c0 1.34 1.695 2.428 3.786 2.428 2.092 0 3.787-1.087 3.787-2.428 0-.04-.002-.08-.004-.12z" fill="#E6E6E6"/><path fill="#262E33" fill-rule="nonzero" d="M26.225-2.487H-3.617V9.947h29.842z"/><path d="M11.36 4.155c2.475 0 4.48-1.362 4.48-3.042 0-1.68-2.005-3.042-4.48-3.042-2.474 0-4.48 1.362-4.48 3.042 0 1.68 2.006 3.042 4.48 3.042z" fill="#000" fill-rule="nonzero" opacity=".6" fill-opacity=".16"/></g></g><path d="M11.392 22.508a8.139 8.139 0 0 0-7.775 8.131v1.012h7.84c-.384-1.366-.605-2.972-.605-4.691 0-1.62.196-3.14.54-4.452zm7.106 9.143h7.727v-1.012a8.14 8.14 0 0 0-7.66-8.125c.342 1.311.538 2.829.538 4.446 0 1.719-.221 3.325-.605 4.69z" fill="#3A4C5A"/><path d="M11.417 22.382c-.452 2.185-.264 5.275.565 9.269h-1.809l-1.582-4.07.678-1.017-.678-.678 2.148-3.391c.228-.072.455-.11.678-.113zm7.008 0c.452 2.185.264 5.275-.565 9.269h1.809l1.582-4.07-.678-1.017.678-.678-2.148-3.391a2.422 2.422 0 0 0-.678-.113z" fill="#2F4351"/><path d="M13.339 16.843a1.583 1.583 0 0 0 3.165 0" fill-opacity=".7" fill="#000"/><path d="M13.565 14.695c0 .5.607.904 1.356.904.749 0 1.357-.405 1.357-.904" fill-opacity=".16" fill="#000"/><path d="M11.982 13.339a.678.678 0 1 0 0-1.357.678.678 0 0 0 0 1.357zm5.878 0a.678.678 0 1 0 0-1.357.678.678 0 0 0 0 1.357zm-7.502-2.13c.442-.623 1.656-.972 2.7-.716a.227.227 0 0 0 .109-.439c-1.214-.298-2.62.107-3.178.893a.227.227 0 0 0 .369.262zm9.126 0c-.442-.623-1.656-.972-2.7-.716a.227.227 0 0 1-.109-.439c1.214-.298 2.62.107 3.178.893a.227.227 0 0 1-.369.262z" fill-opacity=".6" fill="#000" fill-rule="nonzero"/><mask id="j" fill="#fff"><use xlink:href="#i"/></mask><g mask="url(#j)"><g transform="translate(3.617 .904)"><mask id="l" fill="#fff"><use xlink:href="#k"/></mask><g mask="url(#l)"><path d="M3.165 18.6V8.595c0-.4.045-.788.13-1.161.346-2.266 1.653-4.065 3.148-5.174 2.25-1.669 6.04-2.15 7.353-.167.978-.435 2.427-.039 3.499.958 1.081 1.064 1.944 3.414 1.43 5.336.012.143.019.288.019.434v2.47a1.357 1.357 0 0 0-1.11-1.1v-.019c-.683-2.434-2.687-3.551-3.908-4.66-1.91 2.137-7.868 2.144-9.883 6.356v1.13c0 .68.501 1.244 1.154 1.342a6.335 6.335 0 0 0 3.594 5.17v.045c.33 4.957-.75 11.168-7.8 9.269 1.538-.9 2.352-6.663 2.374-10.226zm10.852.912a6.335 6.335 0 0 0 3.593-5.171 1.358 1.358 0 0 0 1.134-1.103v.154c0 1.789.425 3.553 1.238 5.146l3.047 5.957a4.297 4.297 0 0 1-.445 4.609 8.14 8.14 0 0 0-8.115-7.514h-.452v-2.078z" fill="#272C2E"/><path fill="#2C1B18" fill-rule="nonzero" d="M30.633.793H.791v31.65h29.842z"/></g></g><path d="M7.46 12.773c2.015-3.655 7.974-3.661 9.884-5.515 1.218.96 3.216 1.702 3.903 3.805-.687-2.424-2.685-3.54-3.903-4.645-1.91 2.136-7.869 2.144-9.883 6.355z" fill-opacity=".16" fill="#000"/></g></g></g><rect fill="#A8B6C6" fill-rule="nonzero" transform="matrix(1 0 0 -1 0 89.526)" x="53.678" y="42" width="37.695" height="5.526" rx="1"/><rect fill="#A8B6C6" fill-rule="nonzero" transform="matrix(1 0 0 -1 0 107.21)" x="53.678" y="50.842" width="27.093" height="5.526" rx="1"/><rect fill="#A8B6C6" fill-rule="nonzero" transform="matrix(1 0 0 -1 0 124.895)" x="53.678" y="59.684" width="32.983" height="5.526" rx="1"/><rect fill="#E21C3D" fill-rule="nonzero" transform="matrix(1 0 0 -1 0 142.579)" x="16.579" y="68.526" width="27.632" height="5.526" rx="1"/><rect fill="#A8B6C6" fill-rule="nonzero" transform="matrix(1 0 0 -1 0 142.579)" x="53.678" y="68.526" width="27.093" height="5.526" rx="1"/><path d="M0 52.5c0 28.971 23.328 52.457 52.105 52.457 28.777 0 52.106-23.486 52.106-52.457" stroke="#A8B6C6" stroke-width="2"/><g transform="translate(38 88)" fill-rule="nonzero"><circle stroke="#A8B6C6" stroke-width="2" fill="#FFF" cx="14.5" cy="14.5" r="14.5"/><path d="M28 14.5c0 7.456-6.044 13.499-13.5 13.499S1 21.956 1 14.499C1 7.043 7.044 1 14.5 1S28 7.043 28 14.5zm-15.062 7.147 10.017-10.015a.872.872 0 0 0 0-1.233l-1.232-1.231a.872.872 0 0 0-1.232 0l-8.168 8.168-3.814-3.814a.872.872 0 0 0-1.232 0l-1.232 1.233a.87.87 0 0 0 0 1.231l5.662 5.661a.87.87 0 0 0 1.231 0z" fill="#63BB60"/></g></g></svg>