<svg xmlns="http://www.w3.org/2000/svg" xmlns:xlink="http://www.w3.org/1999/xlink" viewBox="0 0 104 104"><defs><linearGradient id="New_Gradient_Swatch_5" y1="52" x2="104" y2="52" gradientUnits="userSpaceOnUse"><stop offset="0" stop-color="#00bfe7"/><stop offset="1" stop-color="#87eaff"/></linearGradient><linearGradient id="New_Gradient_Swatch_2" x1="45.44" y1="69.9" x2="54.48" y2="87.26" gradientUnits="userSpaceOnUse"><stop offset="0" stop-color="#a7efb5"/><stop offset="1" stop-color="#44d067"/></linearGradient></defs><title>LOA1-success</title><g id="Layer_1" data-name="Layer 1"><circle cx="52" cy="52" r="52" fill="url(#New_Gradient_Swatch_5)"/><circle cx="52" cy="52" r="40.31" fill="none" stroke="#fff" stroke-miterlimit="10"/><path d="M51.29,98.51a.71.71,0,0,1,.71-.71h.13a.72.72,0,0,1,.72.71h0a.71.71,0,0,1-.71.71H52A.71.71,0,0,1,51.29,98.51Zm-8-.09h0a.7.7,0,0,1-.57-.82h0a.7.7,0,0,1,.82-.57h0a.71.71,0,0,1,.57.82h0a.71.71,0,0,1-.7.58h-.13ZM60,97.82a.72.72,0,0,1,.57-.83h0a.72.72,0,0,1,.83.57h0a.72.72,0,0,1-.57.83h-.14A.71.71,0,0,1,60,97.82ZM34.95,96a.72.72,0,0,1-.41-.92h0a.71.71,0,0,1,.92-.41h0a.71.71,0,0,1,.41.92h0a.72.72,0,0,1-.67.45h0A.81.81,0,0,1,34.95,96Zm33.29-.45a.72.72,0,0,1,.41-.92h0a.71.71,0,0,1,.92.4h0a.72.72,0,0,1-.41.92h0a.67.67,0,0,1-.26,0h0A.72.72,0,0,1,68.24,95.58ZM27.16,92.14a.71.71,0,0,1-.23-1h0a.72.72,0,0,1,1-.23h0a.72.72,0,0,1,.23,1h0a.72.72,0,0,1-.6.33h0A.74.74,0,0,1,27.16,92.14ZM76,91.84a.71.71,0,0,1,.23-1h0a.71.71,0,0,1,1,.23h0a.71.71,0,0,1-.23,1h0a.72.72,0,0,1-.38.11h0A.72.72,0,0,1,76,91.84Zm-55.75-5a.7.7,0,0,1,0-1h0a.71.71,0,0,1,1,0h0a.72.72,0,0,1,0,1h0a.73.73,0,0,1-.53.23h0A.7.7,0,0,1,20.21,86.88Zm62.66-.13a.7.7,0,0,1,0-1h0a.7.7,0,0,1,1,0h0a.7.7,0,0,1,0,1h0a.69.69,0,0,1-.48.18h0A.69.69,0,0,1,82.87,86.75Zm-68.53-6.3h0a.7.7,0,0,1,.13-1h0a.71.71,0,0,1,1,.13h0a.71.71,0,0,1-.14,1h0a.7.7,0,0,1-.43.14h0A.69.69,0,0,1,14.35,80.45Zm74.39,0a.7.7,0,0,1-.14-1h0a.71.71,0,0,1,1-.14h0a.71.71,0,0,1,.14,1h0a.72.72,0,0,1-.57.28h0A.68.68,0,0,1,88.74,80.49Zm-79-7.44a.71.71,0,0,1,.31-1h0a.71.71,0,0,1,1,.32h0a.72.72,0,0,1-.32,1h0a.75.75,0,0,1-.32.08h0A.7.7,0,0,1,9.75,73.05Zm83.61.21a.71.71,0,0,1-.32-1h0A.72.72,0,0,1,94,72h0a.72.72,0,0,1,.32,1h0a.72.72,0,0,1-.64.4h0A.76.76,0,0,1,93.35,73.26ZM6.58,64.94a.72.72,0,0,1,.49-.88h0a.72.72,0,0,1,.88.49H8a.72.72,0,0,1-.49.88h0l-.19,0h0A.72.72,0,0,1,6.58,64.94Zm90,.36a.71.71,0,0,1-.5-.87h0a.71.71,0,0,1,.88-.49h0a.71.71,0,0,1,.49.87h0a.72.72,0,0,1-.69.52h0A.53.53,0,0,1,96.57,65.3ZM5,56.38a.72.72,0,0,1,.64-.77h0a.71.71,0,0,1,.77.64h0a.71.71,0,0,1-.64.77H5.69A.72.72,0,0,1,5,56.38Zm93.27.51a.7.7,0,0,1-.64-.77h0a.71.71,0,0,1,.77-.65h0a.71.71,0,0,1,.65.77h0a.72.72,0,0,1-.71.65h-.06ZM5.62,48.45A.72.72,0,0,1,5,47.67H5A.71.71,0,0,1,5.75,47h0a.72.72,0,0,1,.65.77h0a.71.71,0,0,1-.71.65H5.62Zm92-.77a.71.71,0,0,1,.64-.77h0a.7.7,0,0,1,.77.64h0a.71.71,0,0,1-.64.77h-.07A.71.71,0,0,1,97.59,47.68ZM7.06,40a.72.72,0,0,1-.49-.88h0a.71.71,0,0,1,.87-.49h0a.72.72,0,0,1,.49.88h0a.7.7,0,0,1-.68.51h0Zm89-.62h0a.71.71,0,0,1,.48-.88h0a.71.71,0,0,1,.88.49h0a.71.71,0,0,1-.48.87h0a.67.67,0,0,1-.2,0h0A.71.71,0,0,1,96,39.38ZM10,31.95a.71.71,0,0,1-.32-1h0a.7.7,0,0,1,1-.32h0a.71.71,0,0,1,.32,1h0a.71.71,0,0,1-.64.39h0A.69.69,0,0,1,10,31.95Zm82.91-.43h0a.7.7,0,0,1,.31-1h0a.71.71,0,0,1,1,.32h0a.71.71,0,0,1-.31,1h0a.74.74,0,0,1-.32.07h0A.72.72,0,0,1,92.95,31.51Zm-78.5-6.92a.71.71,0,0,1-.14-1h0a.71.71,0,0,1,1-.14h0a.71.71,0,0,1,.14,1h0a.72.72,0,0,1-.57.28h0A.73.73,0,0,1,14.45,24.59Zm74-.24a.71.71,0,0,1,.14-1h0a.71.71,0,0,1,1,.13h0a.71.71,0,0,1-.13,1h0a.74.74,0,0,1-.43.14h0A.7.7,0,0,1,88.48,24.35ZM20.13,18.16a.7.7,0,0,1,0-1h0a.71.71,0,0,1,1,0h0a.72.72,0,0,1,0,1h0a.72.72,0,0,1-.48.18h0A.68.68,0,0,1,20.13,18.16Zm62.65,0a.71.71,0,0,1,0-1h0a.7.7,0,0,1,1,0h0a.7.7,0,0,1,0,1h0a.68.68,0,0,1-.52.23h0A.75.75,0,0,1,82.77,18.12ZM26.88,12.87a.7.7,0,0,1,.23-1h0a.7.7,0,0,1,1,.23h0a.7.7,0,0,1-.22,1h0a.65.65,0,0,1-.37.11h0A.7.7,0,0,1,26.88,12.87ZM76,13a.72.72,0,0,1-.23-1h0a.71.71,0,0,1,1-.23h0a.71.71,0,0,1,.23,1h0a.72.72,0,0,1-.61.33h0A.69.69,0,0,1,76,13ZM34.49,8.91A.71.71,0,0,1,34.89,8h0a.71.71,0,0,1,.92.41h0a.71.71,0,0,1-.41.92h0a.65.65,0,0,1-.26,0h0A.7.7,0,0,1,34.49,8.91Zm34,.36a.71.71,0,0,1-.41-.92h0A.71.71,0,0,1,69,7.94h0a.72.72,0,0,1,.41.92h0a.73.73,0,0,1-.67.45h0A.81.81,0,0,1,68.47,9.27ZM42.69,6.43a.71.71,0,0,1,.57-.83h0a.71.71,0,0,1,.83.57h0a.7.7,0,0,1-.57.82h-.13A.71.71,0,0,1,42.69,6.43ZM60.34,7a.71.71,0,0,1-.57-.82h0a.71.71,0,0,1,.82-.58h0a.72.72,0,0,1,.58.83h0a.72.72,0,0,1-.7.58h-.13ZM51.22,5.49a.71.71,0,0,1,.71-.71h0a.71.71,0,0,1,.71.71h0a.71.71,0,0,1-.71.71h0A.71.71,0,0,1,51.22,5.49Z" fill="#fff"/></g><g id="Layer_2" data-name="Layer 2"><rect x="67.13" y="24.46" width="5.88" height="1.76" fill="#fff"/><rect x="20.41" y="18.42" width="63.19" height="67.24" rx="4" ry="4" fill="#112e51"/><rect x="22.41" y="20.42" width="59.19" height="63.24" rx="2" ry="2" fill="#fff"/><rect x="49.71" y="28.52" width="21.62" height="4.98" rx="1" ry="1" fill="#205493"/><path d="M23.41,18.42H79.59a4,4,0,0,1,4,4V24a0,0,0,0,1,0,0H20.41a0,0,0,0,1,0,0V21.42a3,3,0,0,1,3-3Z" fill="#112e51"/><rect x="26.89" y="52.46" width="48.52" height="1.35" fill="#0071bb"/><rect x="26.89" y="56.16" width="44.01" height="1.35" fill="#0071bb"/><rect x="26.89" y="59.87" width="46.26" height="1.35" fill="#0071bb"/><rect x="26.89" y="63.57" width="48.52" height="1.35" fill="#0071bb"/><rect x="26.89" y="67.27" width="28.58" height="1.35" fill="#0071bb"/><rect x="49.76" y="36.36" width="26.62" height="2.43" rx="0.91" ry="0.91" fill="#205493"/><rect x="49.76" y="41.09" width="26.62" height="2.43" rx="0.91" ry="0.91" fill="#205493"/><rect x="49.73" y="45.81" width="17.33" height="2.43" rx="0.91" ry="0.91" fill="#205493"/><circle cx="23.75" cy="21.12" r="1.05" fill="#fff"/><circle cx="27.26" cy="21.12" r="1.05" fill="#fff"/><circle cx="30.78" cy="21.12" r="1.05" fill="#fff"/><rect x="37.26" y="20.07" width="30.19" height="2.11" fill="#fff"/><rect x="26.51" y="28.71" width="20.93" height="19.5" fill="#e21c3d"/><path d="M98,76.16q.79-1.5,1.48-3.06h-95Q5.17,74.66,6,76.16Z" fill="#112e51"/><path d="M15.3,88.84q1.61,1.6,3.36,3.06H85.34q1.74-1.46,3.36-3.06Z" fill="#112e51"/><path d="M7.3,78.57H96.7q.7-1.18,1.34-2.4H6Q6.6,77.38,7.3,78.57Z" fill="#0071bb"/><path d="M15.3,88.84H88.7c.78-.77,1.52-1.58,2.25-2.4H13.05C13.78,87.26,14.52,88.06,15.3,88.84Z" fill="#0071bb"/><path d="M13.05,86.44h77.9a52.15,52.15,0,0,0,5.75-7.87H7.3A52.15,52.15,0,0,0,13.05,86.44Z" fill="#87eaff"/><circle cx="52" cy="82.5" r="18.07" fill="#112e51"/><circle cx="52" cy="82.5" r="14.1" fill="url(#New_Gradient_Swatch_2)"/><path d="M49.75,90.11a2,2,0,0,1-1.6-.77l-3.9-4.87a2,2,0,0,1,3.19-2.56l2.3,2.88,6.8-8.5a2,2,0,0,1,3.19,2.55L51.35,89.34A2,2,0,0,1,49.75,90.11Z" fill="#fff"/></g></svg>