<svg xmlns="http://www.w3.org/2000/svg" xmlns:xlink="http://www.w3.org/1999/xlink" viewBox="0 0 143.73 138.33"><defs><style>.cls-1{stroke:#000;}.cls-1,.cls-18,.cls-5,.cls-6,.cls-7{stroke-miterlimit:10;}.cls-1,.cls-6,.cls-7{stroke-width:0.5px;}.cls-1,.cls-2{filter:url(#luminosity-invert);}.cls-18,.cls-3,.cls-5,.cls-6{fill:none;}.cls-4{fill:#112e51;}.cls-5,.cls-6,.cls-7{stroke:#44d067;}.cls-5,.cls-6{stroke-linecap:round;}.cls-5{stroke-width:2px;stroke-dasharray:0 12.08;}.cls-7{fill:#dcf8e1;}.cls-8{opacity:0.31;}.cls-9{fill:#68e380;}.cls-10{fill:#e21c3d;}.cls-11{fill:#fff;}.cls-12{fill:#0071bb;}.cls-13,.cls-20{fill:#5b616a;}.cls-14{fill:#d1f0ff;}.cls-15{clip-path:url(#clip-path);}.cls-16{fill:url(#New_Gradient_Swatch_2);}.cls-17{fill:#354d6b;}.cls-18{stroke:#0071bb;stroke-width:3px;}.cls-19{mask:url(#mask);}.cls-20{opacity:0.4;}.cls-21{mask:url(#mask-2);}.cls-22{fill:#42cf5e;}</style><clipPath id="clip-path"><path class="cls-3" d="M54.19,74.37A16.17,16.17,0,1,1,70.36,58.2,16.19,16.19,0,0,1,54.19,74.37Z"/></clipPath><linearGradient id="New_Gradient_Swatch_2" x1="53.2" y1="57.89" x2="54.52" y2="71.24" gradientUnits="userSpaceOnUse"><stop offset="0" stop-color="#00bfe7"/><stop offset="0.71" stop-color="#edf9ff"/></linearGradient><filter id="luminosity-invert" filterUnits="userSpaceOnUse" color-interpolation-filters="sRGB"><feColorMatrix values="-1 0 0 0 1 0 -1 0 0 1 0 0 -1 0 1 0 0 0 1 0"/></filter><mask id="mask" x="6.92" y="6.35" width="136.81" height="125.06" maskUnits="userSpaceOnUse"><circle class="cls-1" cx="69.16" cy="69.16" r="61.99"/></mask><mask id="mask-2" x="-0.14" y="-0.14" width="140.75" height="138.61" maskUnits="userSpaceOnUse"><circle class="cls-2" cx="69.16" cy="69.16" r="69.3"/></mask></defs><title>LOA1-v2</title><g id="Layer_2" data-name="Layer 2"><g id="Layer_1-2" data-name="Layer 1"><circle class="cls-4" cx="69.16" cy="69.16" r="68.91"/><path class="cls-5" d="M69.16,134.58a65.41,65.41,0,1,1,65.41-65.41A65.49,65.49,0,0,1,69.16,134.58Z"/><circle class="cls-6" cx="69.16" cy="69.16" r="68.91"/><circle class="cls-7" cx="69.16" cy="69.16" r="61.99"/><g class="cls-8"><polygon class="cls-9" points="68.5 73.96 58.49 130.18 62.98 130.8 68.5 73.96"/><polygon class="cls-9" points="69.82 64.36 79.84 8.15 75.34 7.53 69.82 64.36"/><polygon class="cls-9" points="67.86 73.83 50.28 128.16 54.65 129.38 67.86 73.83"/><polygon class="cls-9" points="70.47 64.5 88.05 10.17 83.68 8.94 70.47 64.5"/><polygon class="cls-9" points="67.23 73.61 42.42 125.04 46.58 126.84 67.23 73.61"/><polygon class="cls-9" points="71.09 64.72 95.91 13.29 91.74 11.48 71.09 64.72"/><polygon class="cls-9" points="66.65 73.3 35.06 120.88 38.94 123.23 66.65 73.3"/><polygon class="cls-9" points="71.68 65.02 103.27 17.45 99.39 15.09 71.68 65.02"/><polygon class="cls-9" points="66.11 72.92 28.34 115.75 31.86 118.61 66.11 72.92"/><polygon class="cls-9" points="72.22 65.41 109.99 22.58 106.47 19.71 72.22 65.41"/><polygon class="cls-9" points="65.62 72.47 22.37 109.76 25.47 113.07 65.62 72.47"/><polygon class="cls-9" points="72.7 65.86 115.95 28.57 112.86 25.25 72.7 65.86"/><polygon class="cls-9" points="65.2 71.96 17.28 103.01 19.9 106.72 65.2 71.96"/><polygon class="cls-9" points="73.12 66.37 121.04 35.32 118.43 31.61 73.12 66.37"/><polygon class="cls-9" points="64.86 71.39 13.16 95.63 15.24 99.66 64.86 71.39"/><polygon class="cls-9" points="73.46 66.93 125.17 42.7 123.08 38.67 73.46 66.93"/><polygon class="cls-9" points="64.6 70.78 10.07 87.75 11.59 92.03 64.6 70.78"/><polygon class="cls-9" points="73.73 67.54 128.25 50.57 126.73 46.3 73.73 67.54"/><polygon class="cls-9" points="64.42 70.15 8.09 79.54 9.02 83.98 64.42 70.15"/><polygon class="cls-9" points="73.91 68.18 130.23 58.79 129.31 54.35 73.91 68.18"/><polygon class="cls-9" points="64.33 69.49 7.25 71.12 7.56 75.65 64.33 69.49"/><polygon class="cls-9" points="74 68.83 131.08 67.2 130.77 62.67 74 68.83"/><polygon class="cls-9" points="64.33 68.83 7.56 62.67 7.25 67.2 64.33 68.83"/><polygon class="cls-9" points="74 69.49 130.77 75.65 131.08 71.12 74 69.49"/><polygon class="cls-9" points="64.42 68.18 9.02 54.35 8.09 58.79 64.42 68.18"/><polygon class="cls-9" points="73.91 70.15 129.31 83.98 130.23 79.54 73.91 70.15"/><polygon class="cls-9" points="64.6 67.54 11.59 46.3 10.07 50.57 64.6 67.54"/><polygon class="cls-9" points="73.73 70.78 126.73 92.03 128.25 87.75 73.73 70.78"/><polygon class="cls-9" points="64.86 66.93 15.24 38.67 13.16 42.7 64.86 66.93"/><polygon class="cls-9" points="73.46 71.39 123.08 99.66 125.17 95.63 73.46 71.39"/><polygon class="cls-9" points="65.2 66.37 19.9 31.61 17.28 35.32 65.2 66.37"/><polygon class="cls-9" points="73.12 71.96 118.43 106.72 121.04 103.01 73.12 71.96"/><polygon class="cls-9" points="65.62 65.86 25.47 25.25 22.37 28.57 65.62 65.86"/><polygon class="cls-9" points="72.7 72.47 112.86 113.07 115.95 109.76 72.7 72.47"/><polygon class="cls-9" points="66.11 65.41 31.86 19.71 28.34 22.58 66.11 65.41"/><polygon class="cls-9" points="72.22 72.92 106.47 118.61 109.99 115.75 72.22 72.92"/><polygon class="cls-9" points="66.65 65.02 38.94 15.09 35.06 17.45 66.65 65.02"/><polygon class="cls-9" points="71.68 73.3 99.39 123.23 103.27 120.88 71.68 73.3"/><polygon class="cls-9" points="67.23 64.72 46.58 11.48 42.42 13.29 67.23 64.72"/><polygon class="cls-9" points="71.09 73.61 91.74 126.84 95.91 125.04 71.09 73.61"/><polygon class="cls-9" points="67.86 64.5 54.65 8.94 50.28 10.17 67.86 64.5"/><polygon class="cls-9" points="70.47 73.83 83.68 129.38 88.05 128.16 70.47 73.83"/><polygon class="cls-9" points="68.5 64.36 62.98 7.53 58.49 8.15 68.5 64.36"/><polygon class="cls-9" points="69.82 73.96 75.34 130.8 79.84 130.18 69.82 73.96"/><polygon class="cls-9" points="69.16 64.32 71.43 7.26 66.89 7.26 69.16 64.32"/><polygon class="cls-9" points="69.16 74.01 66.89 131.07 71.43 131.07 69.16 74.01"/></g><rect class="cls-10" x="30.01" y="27.25" width="78" height="83" rx="4" ry="4"/><rect class="cls-11" x="32.01" y="29.25" width="74" height="79" rx="2" ry="2"/><rect class="cls-12" x="75.57" y="46.68" width="25.71" height="6.15" rx="2" ry="2"/><path class="cls-10" d="M34,27.25h70a4,4,0,0,1,4,4v2.93a0,0,0,0,1,0,0H30a0,0,0,0,1,0,0V31.25A4,4,0,0,1,34,27.25Z"/><rect class="cls-13" x="38.01" y="82.5" width="61.53" height="1.66"/><rect class="cls-13" x="38.01" y="87.07" width="61.53" height="1.66"/><rect class="cls-13" x="38.01" y="91.64" width="61.75" height="1.66"/><rect class="cls-13" x="38.01" y="96.21" width="61.75" height="1.66"/><rect class="cls-13" x="38.01" y="100.78" width="35.29" height="1.66"/><rect class="cls-13" x="75.62" y="56.36" width="22.74" height="3" rx="1" ry="1"/><rect class="cls-13" x="75.62" y="62.19" width="22.74" height="3" rx="1" ry="1"/><rect class="cls-13" x="75.58" y="68.02" width="12.38" height="3" rx="1" ry="1"/><circle class="cls-11" cx="34.15" cy="30.58" r="1.3"/><circle class="cls-11" cx="38.48" cy="30.58" r="1.3"/><circle class="cls-11" cx="42.81" cy="30.58" r="1.3"/><rect class="cls-11" x="50.81" y="29.28" width="37.27" height="2.6"/><rect class="cls-11" x="95.01" y="28.98" width="8.67" height="2.6"/><path class="cls-14" d="M54.29,74.37A16.17,16.17,0,1,1,70.36,58.1,16.19,16.19,0,0,1,54.29,74.37Z"/><g class="cls-15"><path class="cls-4" d="M54.66,63.2c3.12-.17,6.87-.09,8.68,0a1,1,0,0,0,1-1C64.08,59.73,63.39,54,62,51c-2.9-6.35-7.78-4.92-7.78-4.92s-9.63-1.4-10.14,8.5a63.42,63.42,0,0,0,.24,9.25,1,1,0,0,0,1.13.84A82.85,82.85,0,0,1,54.66,63.2Z"/><path class="cls-16" d="M51.21,63.2s.9,1.19-.9,3.88a5.91,5.91,0,0,0-.6,5.38l4.48,1.79,3.58-1.49s3.72-1.74.3-5.68a7.38,7.38,0,0,1-1.49-4.37Z"/><path class="cls-10" d="M54.15,71.44c-2.1-2.54-3.83-4.36-3.83-4.36a6.73,6.73,0,0,0,.9-1.75s-4.19,2.1-6.28,3.18a2.21,2.21,0,0,0-1.19,1.9l-.1,3.34c6.9,3.86,13.91,3.75,21,0l-.09-3.36a2.16,2.16,0,0,0-1.16-1.85c-2.08-1.08-6.32-3.28-6.37-3.25h0s.66,1.54,1.06,1.69c0,0-1.53,1.93-3.95,4.47"/><path class="cls-11" d="M55.85,50.35c-3.09,2.38-9,4.08-9,4.08a16.76,16.76,0,0,1,.53,3.47,1.18,1.18,0,0,0,.75,2.19h0c.62,3.07,4.42,5.26,6.62,5s5.37-3.3,5.23-6.43h0a1.18,1.18,0,0,0,.2-2.3c-.3-.62-.13-2.94-.23-3.72Z"/><circle class="cls-17" cx="51.49" cy="57.12" r="0.69" transform="translate(-6.52 6.63) rotate(-6.93)"/><circle class="cls-17" cx="56.03" cy="56.57" r="0.69" transform="translate(-6.42 7.18) rotate(-6.93)"/><path class="cls-17" d="M54.6,60.77a5.85,5.85,0,0,0,2.27-.94c-1.75,3.87-5.07,1.31-5.07,1.31a8.29,8.29,0,0,0,2.8-.38"/></g><path class="cls-18" d="M54.19,74.37A16.17,16.17,0,1,1,70.36,58.2,16.19,16.19,0,0,1,54.19,74.37Z"/><g class="cls-19"><circle class="cls-20" cx="117.68" cy="32.4" r="26.06"/></g><g class="cls-21"><circle class="cls-11" cx="117.68" cy="32.4" r="22.94"/></g><circle class="cls-22" cx="117.68" cy="32.4" r="20.65"/><path class="cls-11" d="M114.39,43.54A3,3,0,0,1,112,42.42l-5.71-7.14A3,3,0,0,1,111,31.54l3.37,4.22,10-12.45A3,3,0,1,1,129,27.05L116.72,42.42A3,3,0,0,1,114.39,43.54Z"/></g></g></svg>