<svg xmlns="http://www.w3.org/2000/svg" width="100" height="115" fill="none" viewBox="0 0 100 115"><circle cx="50" cy="50" r="48.5" fill="#F2F9FF" stroke="#A8B6C6" stroke-width="3"/><mask id="a" width="100" height="100" x="0" y="0" maskUnits="userSpaceOnUse" style="mask-type:alpha"><circle cx="50" cy="50" r="50" fill="#D9D9D9"/></mask><g mask="url(#a)"><path fill="#fff" d="M9 43h82v55H9z"/><path fill="#112E51" d="M7 67h2v31H7zm84 0h2v31h-2z"/></g><circle cx="50" cy="50" r="48.5" stroke="#A8B6C6" stroke-width="3"/><path fill="#112E51" d="M86.442 12A6.56 6.56 0 0 1 93 18.558V68h-2l-.073-49.442a4.485 4.485 0 0 0-4.485-4.486H13.558C11.08 14.072 9 16.522 9 19v49H7V18.558A6.56 6.56 0 0 1 13.558 12z"/><path fill="#112E51" fill-rule="evenodd" d="M12.723 13.036h74.553a4.687 4.687 0 0 1 4.687 4.687v11.878H8.036V17.723a4.687 4.687 0 0 1 4.687-4.687" clip-rule="evenodd"/><path fill="#fff" d="M15.214 22.975a1.657 1.657 0 1 0 0-3.313 1.657 1.657 0 0 0 0 3.313m5.522 0a1.656 1.656 0 1 0 0-3.313 1.656 1.656 0 0 0 0 3.313m5.521 0a1.656 1.656 0 1 0 0-3.313 1.656 1.656 0 0 0 0 3.313"/><path stroke="#fff" stroke-linecap="round" stroke-width="3" d="M57.73 21.318h28.712"/><mask id="b" width="26" height="27" x="16" y="38" maskUnits="userSpaceOnUse" style="mask-type:alpha"><path fill="#fff" d="M29.277 64.466c7.023 0 12.716-5.883 12.716-13.14s-5.693-13.14-12.716-13.14-12.716 5.883-12.716 13.14 5.693 13.14 12.716 13.14"/></mask><g mask="url(#b)"><path fill="#E6E6E6" d="M29.277 64.466c7.023 0 12.716-5.883 12.716-13.14s-5.693-13.14-12.716-13.14-12.716 5.883-12.716 13.14 5.693 13.14 12.716 13.14"/><path fill="#CEDCED" d="M41.993 38.186H16.561v26.28h25.432z"/></g><mask id="c" width="29" height="31" x="15" y="34" maskUnits="userSpaceOnUse" style="mask-type:alpha"><path fill="#fff" d="M16.56 51.75c0 7.023 5.694 12.716 12.717 12.716s12.716-5.693 12.716-12.716h1.272V34.795H15.289V51.75z"/></mask><g mask="url(#c)"><mask id="d" width="22" height="27" x="18" y="38" maskUnits="userSpaceOnUse" style="mask-type:alpha"><path fill="#fff" d="M31.82 53.934v1.949h.424a7.63 7.63 0 0 1 7.63 7.63v.953H18.68v-.953a7.63 7.63 0 0 1 7.63-7.63h.424v-1.949a5.94 5.94 0 0 1-3.359-4.74 1.27 1.27 0 0 1-1.092-1.259v-1.483c0-.63.459-1.154 1.06-1.255v-.653a5.934 5.934 0 0 1 11.868 0v.654c.601.1 1.06.624 1.06 1.254v1.483c0 .641-.475 1.172-1.092 1.26a5.94 5.94 0 0 1-3.359 4.74"/></mask><g mask="url(#d)"><path fill="#D0C6AC" d="M31.82 53.934v1.949h.424a7.63 7.63 0 0 1 7.63 7.63v.953H18.68v-.953a7.63 7.63 0 0 1 7.63-7.63h.424v-1.949a5.94 5.94 0 0 1-3.359-4.74 1.27 1.27 0 0 1-1.092-1.259v-1.483c0-.63.459-1.154 1.06-1.255v-.653a5.934 5.934 0 0 1 11.868 0v.653c.601.101 1.06.624 1.06 1.255v1.483c0 .641-.475 1.172-1.092 1.26a5.94 5.94 0 0 1-3.359 4.74"/><path fill="#D08B5B" d="M43.265 38.61H15.289v25.856h27.976z"/><path fill="#000" fill-opacity=".1" fill-rule="evenodd" d="M35.211 46.981v2.438a5.934 5.934 0 1 1-11.868 0V46.98v1.59a5.934 5.934 0 0 0 11.868 0z" clip-rule="evenodd"/></g><mask id="e" width="22" height="10" x="18" y="55" maskUnits="userSpaceOnUse" style="mask-type:alpha"><path fill="#fff" d="M32.876 55.914a7.63 7.63 0 0 1 6.998 7.604v.948H18.68v-.948a7.63 7.63 0 0 1 7.105-7.612q-.005.06-.005.12c0 1.257 1.59 2.276 3.55 2.276s3.55-1.02 3.55-2.276q0-.057-.004-.112"/></mask><g mask="url(#e)"><path fill="#E6E6E6" fill-rule="evenodd" d="M32.876 55.914a7.63 7.63 0 0 1 6.998 7.604v.948H18.68v-.948a7.63 7.63 0 0 1 7.105-7.612q-.005.06-.005.12c0 1.257 1.59 2.276 3.55 2.276s3.55-1.02 3.55-2.276z" clip-rule="evenodd"/><path fill="#262E33" d="M43.265 52.81H15.289v11.656h27.976z"/><path fill="#000" fill-opacity=".16" d="M29.33 59.037c2.32 0 4.2-1.277 4.2-2.852 0-1.576-1.88-2.852-4.2-2.852s-4.2 1.276-4.2 2.852 1.88 2.852 4.2 2.852" opacity=".6"/></g><path fill="#3A4C5A" fill-rule="evenodd" d="M25.97 55.896a7.63 7.63 0 0 0-7.29 7.622v.948h7.35c-.36-1.28-.568-2.786-.568-4.397 0-1.519.184-2.943.507-4.173m6.66 8.57h7.244v-.948a7.63 7.63 0 0 0-7.181-7.617c.32 1.23.505 2.652.505 4.167 0 1.612-.208 3.118-.568 4.398" clip-rule="evenodd"/><path fill="#2F4351" fill-rule="evenodd" d="M25.992 55.777q-.637 3.072.53 8.69h-1.696l-1.483-3.816.636-.953-.636-.636 2.013-3.18a2.3 2.3 0 0 1 .636-.105m6.57 0q.636 3.072-.53 8.69h1.696l1.483-3.816-.636-.953.636-.636-2.013-3.18a2.3 2.3 0 0 0-.636-.105" clip-rule="evenodd"/><path fill="#000" fill-opacity=".7" fill-rule="evenodd" d="M27.793 50.584a1.484 1.484 0 0 0 2.968 0" clip-rule="evenodd"/><path fill="#000" fill-opacity=".16" fill-rule="evenodd" d="M28.005 48.57c0 .47.57.849 1.272.849s1.272-.38 1.272-.848" clip-rule="evenodd"/><path fill="#000" fill-opacity=".6" d="M26.522 47.3a.636.636 0 1 0 0-1.273.636.636 0 0 0 0 1.272m5.51.001a.636.636 0 1 0 0-1.273.636.636 0 0 0 0 1.272M25 45.303c.414-.584 1.552-.911 2.53-.67a.213.213 0 0 0 .102-.413c-1.137-.279-2.455.1-2.979.837a.212.212 0 0 0 .346.246m8.556 0c-.415-.584-1.553-.911-2.532-.67a.213.213 0 0 1-.101-.413c1.137-.279 2.455.1 2.979.837a.212.212 0 0 1-.346.246"/><mask id="f" width="29" height="31" x="15" y="34" maskUnits="userSpaceOnUse" style="mask-type:alpha"><path fill="#fff" d="M43.265 34.795H15.289v29.671h27.976z"/></mask><g mask="url(#f)"><mask id="g" width="22" height="27" x="19" y="36" maskUnits="userSpaceOnUse" style="mask-type:alpha"><path fill="#fff" d="M21.647 53.079V43.7a5 5 0 0 1 .122-1.089c.324-2.123 1.55-3.81 2.951-4.85 2.11-1.564 5.663-2.015 6.893-.157.917-.407 2.276-.035 3.28.899 1.014.998 1.823 3.2 1.341 5.002q.017.201.017.407v2.315a1.27 1.27 0 0 0-1.04-1.03v-.018c-.64-2.282-2.518-3.33-3.663-4.368-1.79 2.002-7.376 2.01-9.265 5.958v1.06c0 .637.47 1.165 1.082 1.257a5.94 5.94 0 0 0 3.369 4.847v.041c.31 4.648-.704 10.47-7.312 8.69 1.442-.844 2.205-6.246 2.225-9.586m10.173.855a5.94 5.94 0 0 0 3.37-4.847c.538-.081.967-.5 1.061-1.035v.145c0 1.677.399 3.33 1.162 4.824l2.856 5.585a4.03 4.03 0 0 1-.417 4.32 7.63 7.63 0 0 0-7.608-7.043h-.424z"/></mask><g mask="url(#g)"><path fill="#272C2E" fill-rule="evenodd" d="M21.647 53.08v-9.378a5 5 0 0 1 .122-1.09c.324-2.123 1.55-3.81 2.951-4.85 2.11-1.564 5.663-2.015 6.893-.156.917-.407 2.276-.036 3.28.898 1.014.998 1.823 3.2 1.341 5.002q.017.201.017.407v2.315a1.27 1.27 0 0 0-1.04-1.03v-.018c-.64-2.282-2.518-3.33-3.663-4.368-1.79 2.002-7.376 2.01-9.265 5.958v1.06c0 .637.47 1.165 1.082 1.257a5.94 5.94 0 0 0 3.369 4.847v.042c.31 4.647-.704 10.469-7.312 8.689 1.442-.844 2.205-6.246 2.225-9.586m10.173.854a5.94 5.94 0 0 0 3.37-4.847c.538-.08.967-.5 1.061-1.034v.144c0 1.677.399 3.33 1.162 4.824l2.856 5.585a4.03 4.03 0 0 1-.417 4.32 7.63 7.63 0 0 0-7.608-7.043h-.424z" clip-rule="evenodd"/><path fill="#2C1B18" d="M47.398 36.386H19.422v29.671h27.976z"/></g><path fill="#000" fill-opacity=".16" fill-rule="evenodd" d="M22.283 46.77c1.889-3.427 7.475-3.433 9.265-5.171 1.142.9 3.015 1.596 3.659 3.567-.644-2.272-2.517-3.318-3.659-4.354-1.79 2.002-7.376 2.009-9.265 5.957" clip-rule="evenodd"/></g></g><path fill="#A8B6C6" d="M85.504 46.193H52.041a.937.937 0 0 1-.937-.938V41.95c0-.517.42-.937.938-.937h33.462c.518 0 .938.42.938.937v3.306c0 .518-.42.938-.938.938m-9.938 8.288H52.04a.94.94 0 0 1-.937-.938v-3.306c0-.517.42-.937.938-.937h23.524c.517 0 .937.42.937.937v3.306c0 .518-.42.938-.937.938m5.522 8.288H52.041a.937.937 0 0 1-.937-.937v-3.305c0-.518.42-.938.938-.938h29.045c.518 0 .938.42.938.938v3.305c0 .518-.42.938-.938.938"/><path fill="#E21C3D" d="M41.291 71.06H17.263a.937.937 0 0 1-.938-.938v-3.305c0-.518.42-.938.938-.938H41.29c.518 0 .938.42.938.938v3.305c0 .518-.42.938-.938.938"/><path fill="#A8B6C6" d="M75.566 71.06H52.04a.937.937 0 0 1-.937-.938v-3.305c0-.518.42-.938.938-.938h23.524c.517 0 .937.42.937.938v3.305c0 .518-.42.938-.937.938"/><path fill="#0E581E" stroke="#A8B6C6" stroke-width="2" d="M46.879 82.308A16 16 0 0 1 66 98v.001A16.02 16.02 0 0 1 50.001 114H50a16 16 0 0 1-3.121-31.692Z"/><path fill="#18852E" d="M50.002 83v30.003A15 15 0 0 1 35 98.002 15 15 0 0 1 50.002 83"/><path fill="#fff" d="m57.925 93.628-1.877-1.877-11.265 11.265 1.877 1.877z"/><path fill="#fff" d="m42.639 97.115-1.878 1.878 5.9 5.898 1.877-1.877z"/></svg>