<svg width="107" height="135" viewBox="0 0 107 135" xmlns="http://www.w3.org/2000/svg" xmlns:xlink="http://www.w3.org/1999/xlink"><defs><path d="M55.97 65.087v8.276h1.805c17.948 0 32.498 14.509 32.498 32.406v4.051H0v-4.05c0-17.898 14.55-32.407 32.498-32.407h1.806v-8.276C26.524 61.4 20.93 53.869 19.998 44.955a5.407 5.407 0 0 1-4.652-5.348v-6.3a5.407 5.407 0 0 1 4.514-5.327v-2.775C19.86 11.285 31.177 0 45.136 0c13.96 0 25.277 11.284 25.277 25.205v2.775a5.407 5.407 0 0 1 4.514 5.326v6.301a5.407 5.407 0 0 1-4.652 5.348C69.342 53.869 63.75 61.4 55.97 65.087z" id="a"/><path d="M55.97 65.087v8.276h1.805c17.948 0 32.498 14.509 32.498 32.406v4.051H0v-4.05c0-17.898 14.55-32.407 32.498-32.407h1.806v-8.276C26.524 61.4 20.93 53.869 19.998 44.955a5.407 5.407 0 0 1-4.652-5.348v-6.3a5.407 5.407 0 0 1 4.514-5.327v-2.775C19.86 11.285 31.177 0 45.136 0c13.96 0 25.277 11.284 25.277 25.205v2.775a5.407 5.407 0 0 1 4.514 5.326v6.301a5.407 5.407 0 0 1-4.652 5.348C69.342 53.869 63.75 61.4 55.97 65.087z" id="c"/><path d="M60.465.133c16.69 1.364 29.808 15.302 29.808 32.296v4.028H0v-4.028C0 15.281 13.357 1.244 30.262.1a6.11 6.11 0 0 0-.02.508c0 5.339 6.77 9.667 15.12 9.667 8.351 0 15.12-4.328 15.12-9.667a6.2 6.2 0 0 0-.017-.474z" id="e"/><path d="M60.465.133c16.69 1.364 29.808 15.302 29.808 32.296v4.028H0v-4.028C0 15.281 13.357 1.244 30.262.1a6.11 6.11 0 0 0-.02.508c0 5.339 6.77 9.667 15.12 9.667 8.351 0 15.12-4.328 15.12-9.667a6.2 6.2 0 0 0-.017-.474z" id="g"/><path d="M.053.958C.531 5.23 4.164 8.552 8.576 8.552c4.425 0 8.068-3.343 8.527-7.634.037-.345-.35-.918-.835-.918H.942C.454 0 .005.53.053.958z" id="i"/><path d="M.053.958C.531 5.23 4.164 8.552 8.576 8.552c4.425 0 8.068-3.343 8.527-7.634.037-.345-.35-.918-.835-.918H.942C.454 0 .005.53.053.958z" id="k"/><path id="m" d="M0 0h119.16v126.023H0z"/><path d="M9.479 70.906v-39.83c0-1.59.18-3.137.52-4.624 1.378-9.02 6.6-16.185 12.57-20.6 8.984-6.644 24.121-8.56 29.36-.666 3.904-1.729 9.69-.153 13.97 3.816 4.318 4.237 7.764 13.59 5.713 21.245.048.57.072 1.146.072 1.727v9.835a5.414 5.414 0 0 0-4.43-4.378v-.074c-2.725-9.693-10.73-14.142-15.604-18.554-7.626 8.505-31.419 8.535-39.463 25.305v4.5c0 2.71 2 4.953 4.608 5.342.786 9.113 6.436 16.84 14.35 20.588v.176c1.321 19.738-3 44.466-31.145 36.906 6.141-3.583 9.392-26.53 9.479-40.714zm43.33 3.632c7.913-3.748 13.563-11.475 14.35-20.588a5.414 5.414 0 0 0 4.525-4.392v.613a44.904 44.904 0 0 0 4.948 20.489l12.164 23.723c3.142 6.13 2.22 13.265-1.777 18.349-1.275-16.735-15.296-29.917-32.404-29.917H52.81v-8.277z" id="o"/></defs><g transform="translate(-7 -6)" fill="none" fill-rule="evenodd"><ellipse fill="#EBF3FA" fill-rule="nonzero" cx="60.105" cy="75.457" rx="52.105" ry="52.457"/><path d="M112.21 75.457C112.21 46.486 88.883 23 60.106 23 31.328 23 8 46.486 8 75.457" stroke="#A8B6C6" stroke-width="2"/><g transform="translate(14.444 16.203)"><mask id="b" fill="#fff"><use xlink:href="#a"/></mask><g mask="url(#b)"><path d="M-12.252 109.82h-2.192l-.002-2.493a78.66 78.66 0 0 0 2.194 2.493zM104.717 0v57.057h-5.283c0 26.195-18.8 48.011-43.68 52.764H35.358c-24.88-4.753-43.68-26.569-43.68-52.763l-6.122-.001V0h119.16zm.001 108.307-.001 1.513h-1.353c.458-.499.91-1.003 1.354-1.513z" fill="#D08B5B" fill-rule="nonzero"/></g></g><g transform="translate(14.444 16.203)"><mask id="d" fill="#fff"><use xlink:href="#c"/></mask><path d="M70.413 35.556v10.352c0 13.92-11.317 25.205-25.277 25.205S19.86 59.828 19.86 45.908V35.556v6.752c0 13.92 11.317 25.204 25.276 25.204 13.96 0 25.277-11.284 25.277-25.204v-6.752z" fill-opacity=".1" fill="#000" fill-rule="nonzero" mask="url(#d)"/></g><g transform="translate(14.444 89.566)"><mask id="f" fill="#fff"><use xlink:href="#e"/></mask><g mask="url(#f)"><path d="m-12.25 36.458-2.194-.001-.002-2.493a78.661 78.661 0 0 0 2.195 2.494zm68.003 0H35.36C11.518 31.904-6.742 11.68-8.224-13.052h107.56c-1.481 24.732-19.741 44.956-43.583 49.51zm48.965-1.515-.001 1.514h-1.354c.458-.498.91-1.003 1.355-1.514z" fill="#262E33" fill-rule="nonzero"/></g></g><g transform="translate(14.444 89.566)"><mask id="h" fill="#fff"><use xlink:href="#g"/></mask><g opacity=".6" mask="url(#h)"><ellipse cx="18.28" cy="12.534" rx="17.89" ry="12.113" fill="#000" fill-rule="nonzero" transform="translate(27.082 -11.252)"/></g></g><g fill-rule="nonzero"><path d="M74.127 89.645c11.976.691 22.212 7.85 27.25 18.025-6.981 8.34-16.45 14.535-27.27 17.455 1.383-5.24 2.174-11.31 2.174-17.78 0-6.44-.783-12.48-2.154-17.7zm-28.636-.024c-1.375 5.225-2.16 11.275-2.16 17.724 0 6.424.78 12.454 2.145 17.666-10.916-3.04-20.434-9.423-27.374-17.971 5.212-9.968 15.466-16.896 27.389-17.419z" fill="#3A4C5A"/><path d="m81.697 115.22 4.313-3.225a1.81 1.81 0 0 1 2.192.02l2.974 2.306-9.479.9z" fill="#E6E6E6"/><path d="M45.588 89.116c-1.79 8.623-1.067 20.78 2.167 36.474a53.4 53.4 0 0 1-8.342-2.666l-5.11-13.104 2.709-4.05-2.708-2.701 8.576-13.503a9.707 9.707 0 0 1 2.708-.45zm27.984 0a9.71 9.71 0 0 1 2.709.45l8.576 13.503-2.709 2.7 2.709 4.051-5.264 13.502a53.578 53.578 0 0 1-8.23 2.466c3.27-15.79 4.006-28.013 2.21-36.672z" fill="#2F4351"/></g><path d="M51.057 67.12c.478 4.272 4.112 7.594 8.523 7.594 4.425 0 8.068-3.343 8.527-7.634.037-.345-.35-.918-.834-.918H51.946c-.487 0-.936.53-.889.958z" fill="#000" fill-opacity=".7" fill-rule="nonzero"/><g transform="translate(51.004 66.162)"><mask id="j" fill="#fff"><use xlink:href="#i"/></mask><rect fill="#FFF" fill-rule="nonzero" mask="url(#j)" x="1.805" y="-4.951" width="13.992" height="7.201" rx="3.601"/></g><g transform="translate(51.004 66.162)"><mask id="l" fill="#fff"><use xlink:href="#k"/></mask><g mask="url(#l)"><g fill="#FF4F6D" fill-rule="nonzero" transform="translate(1.354 4.95)"><ellipse cx="4.965" cy="4.951" rx="4.965" ry="4.951"/><ellipse cx="9.479" cy="4.951" rx="4.965" ry="4.951"/></g></g></g><path d="M54.164 58.51c0 1.99 2.425 3.601 5.416 3.601 2.992 0 5.417-1.612 5.417-3.6" fill="#000" fill-opacity=".16" fill-rule="nonzero"/><path d="M41.598 50.61c.833-1.71 2.71-2.901 4.891-2.901 2.174 0 4.045 1.183 4.883 2.883.25.505-.105.919-.462.612-1.107-.948-2.678-1.54-4.42-1.54-1.689 0-3.216.556-4.316 1.453-.402.327-.82-.006-.576-.507zm26.179 0c.833-1.71 2.71-2.901 4.892-2.901 2.173 0 4.045 1.183 4.882 2.883.25.505-.105.919-.462.612-1.106-.948-2.678-1.54-4.42-1.54-1.689 0-3.216.556-4.315 1.453-.402.327-.82-.006-.577-.507zm-26.418-5.98c1.767-2.48 6.611-3.87 10.784-2.848a.9.9 0 1 0 .43-1.748c-4.846-1.187-10.455.422-12.686 3.553a.899.899 0 0 0 .213 1.255.904.904 0 0 0 1.259-.213zm36.443 0c-1.767-2.48-6.612-3.87-10.785-2.848a.9.9 0 1 1-.43-1.748c4.846-1.187 10.456.422 12.686 3.553a.899.899 0 0 1-.212 1.255.904.904 0 0 1-1.26-.213z" fill="#000" fill-opacity=".6" fill-rule="nonzero"/><mask id="n" fill="#fff"><use xlink:href="#m"/></mask><g mask="url(#n)"><g transform="translate(17.603 6.751)"><mask id="p" fill="#fff"><use xlink:href="#o"/></mask><g mask="url(#p)"><path d="m119.162 82.305-.002 43.718H93.186c13.044-11.079 22.4-26.348 25.976-43.718zM119.16 0v66.509H96.274c0 29.671-24.121 53.725-53.877 53.725-17.21 0-32.535-8.046-42.399-20.571L0 0h119.16z" fill="#4A312C" fill-rule="nonzero"/></g></g><path d="M29.79 50.86c8.045-14.554 31.837-14.58 39.463-21.961 4.865 3.821 12.847 6.777 15.587 15.15-2.74-9.652-10.722-14.092-15.587-18.495C61.627 34.06 37.835 34.09 29.79 50.86z" fill-opacity=".16" fill="#000" fill-rule="nonzero"/></g><path d="M8 75c0 28.971 23.328 52.457 52.105 52.457 28.777 0 52.106-23.486 52.106-52.457" stroke="#A8B6C6" stroke-width="2"/><g transform="translate(46 111)" fill-rule="nonzero"><circle stroke="#A8B6C6" stroke-width="2" fill="#FFF" cx="14.5" cy="14.5" r="14.5"/><path d="M28 14.5c0 7.456-6.044 13.499-13.5 13.499S1 21.956 1 14.499C1 7.043 7.044 1 14.5 1S28 7.043 28 14.5zm-15.062 7.147 10.017-10.015a.872.872 0 0 0 0-1.233l-1.232-1.231a.872.872 0 0 0-1.232 0l-8.168 8.168-3.814-3.814a.872.872 0 0 0-1.232 0l-1.232 1.233a.87.87 0 0 0 0 1.231l5.662 5.661a.87.87 0 0 0 1.231 0z" fill="#63BB60"/></g></g></svg>