<?xml version="1.0" encoding="UTF-8"?>
<svg width="107px" height="135px" viewBox="0 0 107 135" version="1.1" xmlns="http://www.w3.org/2000/svg" xmlns:xlink="http://www.w3.org/1999/xlink">
    <title>Identity verfication confirmed</title>
    <desc>Identity is verified with login.gov</desc>
    <defs>
        <path d="M55.9692554,65.086752 L55.9692554,73.3633276 L57.7747153,73.3633276 L57.7747153,73.3633276 C75.7230182,73.3633276 90.2729926,87.8719375 90.2729926,105.769215 L90.2729926,109.819951 L0,109.819951 L0,105.769215 C0,87.8719375 14.5499744,73.3633276 32.4982773,73.3633276 L32.4982773,73.3633276 L34.3037372,73.3633276 L34.3037372,65.086752 C26.5233943,61.4012219 20.9307974,53.8689411 19.9977873,44.9547241 C17.3686639,44.5841034 15.3464087,42.3311395 15.3464087,39.6071953 L15.3464087,33.3060506 C15.3464087,30.6298677 17.2983696,28.4082937 19.8600584,27.9797456 L19.8600584,25.2045788 L19.8600584,25.2045788 C19.8600584,11.2844743 31.1767051,0 45.1364963,0 L45.1364963,0 L45.1364963,0 C59.0962875,0 70.4129342,11.2844743 70.4129342,25.2045788 L70.4129342,27.9797456 C72.9746231,28.4082937 74.9265838,30.6298677 74.9265838,33.3060506 L74.9265838,39.6071953 C74.9265838,42.3311395 72.9043289,44.5841034 70.2752052,44.9547241 C69.342195,53.8689411 63.749598,61.4012219 55.9692554,65.086752 Z" id="path-1"></path>
        <path d="M55.9692554,65.086752 L55.9692554,73.3633276 L57.7747153,73.3633276 L57.7747153,73.3633276 C75.7230182,73.3633276 90.2729926,87.8719375 90.2729926,105.769215 L90.2729926,109.819951 L0,109.819951 L0,105.769215 C0,87.8719375 14.5499744,73.3633276 32.4982773,73.3633276 L32.4982773,73.3633276 L34.3037372,73.3633276 L34.3037372,65.086752 C26.5233943,61.4012219 20.9307974,53.8689411 19.9977873,44.9547241 C17.3686639,44.5841034 15.3464087,42.3311395 15.3464087,39.6071953 L15.3464087,33.3060506 C15.3464087,30.6298677 17.2983696,28.4082937 19.8600584,27.9797456 L19.8600584,25.2045788 L19.8600584,25.2045788 C19.8600584,11.2844743 31.1767051,0 45.1364963,0 L45.1364963,0 L45.1364963,0 C59.0962875,0 70.4129342,11.2844743 70.4129342,25.2045788 L70.4129342,27.9797456 C72.9746231,28.4082937 74.9265838,30.6298677 74.9265838,33.3060506 L74.9265838,39.6071953 C74.9265838,42.3311395 72.9043289,44.5841034 70.2752052,44.9547241 C69.342195,53.8689411 63.749598,61.4012219 55.9692554,65.086752 Z" id="path-3"></path>
        <path d="M60.4650635,0.132736364 C77.1547348,1.49652104 90.2729926,15.4352326 90.2729926,32.4291669 L90.2729926,36.4566229 L0,36.4566229 L0,32.4291669 C0,15.2814295 13.3567852,1.24446763 30.2619473,0.0988048331 C30.2483403,0.266950043 30.2414525,0.436231482 30.2414525,0.606541488 C30.2414525,5.94590314 37.0112323,10.274311 45.3621788,10.274311 C53.7131252,10.274311 60.482905,5.94590314 60.482905,0.606541488 C60.482905,0.447682418 60.4769123,0.289718253 60.4650635,0.132736364 Z" id="path-5"></path>
        <path d="M60.4650635,0.132736364 C77.1547348,1.49652104 90.2729926,15.4352326 90.2729926,32.4291669 L90.2729926,36.4566229 L0,36.4566229 L0,32.4291669 C0,15.2814295 13.3567852,1.24446763 30.2619473,0.0988048331 C30.2483403,0.266950043 30.2414525,0.436231482 30.2414525,0.606541488 C30.2414525,5.94590314 37.0112323,10.274311 45.3621788,10.274311 C53.7131252,10.274311 60.482905,5.94590314 60.482905,0.606541488 C60.482905,0.447682418 60.4769123,0.289718253 60.4650635,0.132736364 Z" id="path-7"></path>
        <path d="M0.0531906527,0.957808742 C0.530675248,5.22986121 4.16428742,8.55155353 8.57593429,8.55155353 C13.0012091,8.55155353 16.643635,5.20930756 17.1030125,0.918191374 C17.1399835,0.572839766 16.7531973,0 16.2684422,0 C9.54580638,0 4.39535649,0 0.941919418,0 C0.454351555,0 0.00541899747,0.53039593 0.0531906527,0.957808742 Z" id="path-9"></path>
        <path d="M0.0531906527,0.957808742 C0.530675248,5.22986121 4.16428742,8.55155353 8.57593429,8.55155353 C13.0012091,8.55155353 16.643635,5.20930756 17.1030125,0.918191374 C17.1399835,0.572839766 16.7531973,0 16.2684422,0 C9.54580638,0 4.39535649,0 0.941919418,0 C0.454351555,0 0.00541899747,0.53039593 0.0531906527,0.957808742 Z" id="path-11"></path>
        <rect id="path-13" x="0" y="0" width="119.16035" height="126.022894"></rect>
        <path d="M9.47866422,70.9062467 L9.47866422,31.0764589 C9.47866422,29.4866786 9.65835974,27.938749 9.99860208,26.4517645 C11.3766724,17.4323055 16.5990676,10.266764 22.5682481,5.85106294 C31.5525071,-0.791971583 46.690067,-2.70871922 51.928216,5.18588917 C55.833098,3.45709396 61.6199155,5.03286443 65.8992846,9.00163529 C70.2166609,13.2391748 73.662613,22.5929239 71.6123955,30.2470776 C71.6596512,30.8167367 71.6837414,31.392769 71.6837414,31.974212 L71.6837414,41.8090491 C71.2859381,39.5704239 69.505237,37.8081787 67.2533795,37.4314626 L67.2533795,37.3567865 C64.5288733,27.6639195 56.5242158,23.2152387 51.6495501,18.8031167 C44.0240426,27.3079272 20.2313696,27.3378795 12.186854,44.1080129 L12.186854,48.6088306 C12.186854,51.3177039 14.1867938,53.560794 16.7946497,53.9500351 C17.5814807,63.0631128 23.2314016,70.790203 31.1441824,74.5384691 L31.1441824,74.7135729 C32.4668493,94.4519591 28.1464249,119.180495 0,111.620278 C6.14115095,108.036615 9.39205284,85.0904614 9.47866422,70.9062467 Z M52.8097007,74.5384691 C60.7224814,70.790203 66.3724022,63.0631128 67.1592333,53.9500351 C69.4554808,53.6073041 71.2804103,51.8272825 71.6837414,49.5575494 L71.6837414,50.1707898 L71.6837414,50.1707898 C71.6837414,57.2947569 73.3796257,64.3169745 76.6319309,70.6599606 L88.7955252,94.3826758 C91.9384214,100.512281 91.0157416,107.647664 87.0189739,112.731515 C85.7440922,95.9974026 71.7234679,82.8150447 54.6151605,82.8150447 L54.6151605,82.8150447 L52.8097007,82.8150447 L52.8097007,74.5384691 Z" id="path-15"></path>
    </defs>
    <g id="Page-1" stroke="none" stroke-width="1" fill="none" fill-rule="evenodd">
        <g id="icon-consent-verified" transform="translate(-7.000000, -6.000000)">
            <ellipse id="Oval" fill="#EBF3FA" fill-rule="nonzero" cx="60.1052632" cy="75.4567194" rx="52.1052632" ry="52.4567194"></ellipse>
            <path d="M112.210526,75.4567194 C112.210526,46.4856733 88.8822054,23 60.1052632,23 C31.3283209,23 8,46.4856733 8,75.4567194" id="Shape" stroke="#A8B6C6" stroke-width="2"></path>
            <g id="avataaars">
                <g id="Body" transform="translate(14.443679, 16.202944)">
                    <g id="Skin/ðŸ‘¶ðŸ½-03-Brown-Clipped">
                        <g>
                            <mask id="mask-2" fill="white">
                                <use xlink:href="#path-1"></use>
                            </mask>
                            <g id="path-1"></g>
                            <g id="Skin/ðŸ‘¶ðŸ½-03-Brown" mask="url(#mask-2)">
                                <g transform="translate(-15.000000, 0.000000)" id="Color">
                                    <g transform="translate(0.331831, 0.000000)">
                                        <g id="Group" fill="#D08B5B" fill-rule="nonzero">
                                            <path d="M2.41651738,109.819848 L0.2244898,109.819951 L0.22225227,107.327081 C0.93618118,108.173514 1.66779201,109.004625 2.41651738,109.819848 Z M119.38484,0 L119.38484,57.057 L114.102041,57.057576 C114.102041,83.2520164 95.3019893,105.067953 70.4225693,109.820866 L50.0264103,109.820866 C25.1469903,105.067953 6.34693878,83.2520164 6.34693878,57.057576 L0.22425392,57.057 L0.22425392,0 L119.38484,0 Z M119.386552,108.306763 L119.38484,109.819951 L118.032462,109.819848 C118.490267,109.321383 118.941674,108.816978 119.386552,108.306763 Z" id="Combined-Shape"></path>
                                        </g>
                                    </g>
                                </g>
                            </g>
                        </g>
                    </g>
                    <g id="Neck-Shadow-Clipped">
                        <g>
                            <mask id="mask-4" fill="white">
                                <use xlink:href="#path-3"></use>
                            </mask>
                            <g id="path-3"></g>
                            <path d="M70.4129342,35.5564594 L70.4129342,45.90834 C70.4129342,59.8284445 59.0962875,71.1129188 45.1364963,71.1129188 C31.1767051,71.1129188 19.8600584,59.8284445 19.8600584,45.90834 L19.8600584,35.5564594 L19.8600584,42.3076859 C19.8600584,56.2277904 31.1767051,67.5122647 45.1364963,67.5122647 C59.0962875,67.5122647 70.4129342,56.2277904 70.4129342,42.3076859 L70.4129342,35.5564594 Z" id="Neck-Shadow" fill-opacity="0.100000001" fill="#000000" fill-rule="nonzero" mask="url(#mask-4)"></path>
                        </g>
                    </g>
                </g>
                <g id="Clothing/Blazer-+-Shirt" transform="translate(14.443679, 89.116189)">
                    <g id="Shirt" transform="translate(0.000000, 0.450082)">
                        <g id="Color/Palette/Black-Clipped">
                            <g>
                                <mask id="mask-6" fill="white">
                                    <use xlink:href="#path-5"></use>
                                </mask>
                                <g id="path-5"></g>
                                <g id="Color/Palette/Black" mask="url(#mask-6)">
                                    <g transform="translate(-15.000000, -14.000000)" id="ðŸ–Color">
                                        <g transform="translate(0.331831, 0.947629)">
                                            <g id="Group" fill="#262E33" fill-rule="nonzero">
                                                <path d="M2.41744111,49.5098975 L0.2244898,49.5089941 L0.22255612,47.0164843 C0.93668236,47.863141 1.66849997,48.6944674 2.41744111,49.5098975 Z M70.4208549,49.510237 L50.0281247,49.510237 C26.1857967,44.9562499 7.92617343,24.7322102 6.44417567,0.00121231946 L114.004804,0.00121231946 C112.522806,24.7322102 94.2631829,44.9562499 70.4208549,49.510237 Z M119.386552,47.9958062 L119.38484,49.5089941 L118.031538,49.5098975 C118.48966,49.0111051 118.941375,48.5063648 119.386552,47.9958062 Z" id="Combined-Shape"></path>
                                            </g>
                                        </g>
                                    </g>
                                </g>
                            </g>
                        </g>
                        <g id="Shadowy-Clipped">
                            <g>
                                <mask id="mask-8" fill="white">
                                    <use xlink:href="#path-7"></use>
                                </mask>
                                <g id="path-7"></g>
                                <g id="Shadowy" opacity="0.599999964" mask="url(#mask-8)">
                                    <g transform="translate(27.000000, -12.000000)" id="Hola-ðŸ‘‹ðŸ¼">
                                        <g transform="translate(0.081898, 0.747956)">
                                            <g id="Group" fill="#000000" fill-rule="nonzero">
                                                <ellipse id="Oval" cx="18.280281" cy="12.5337082" rx="17.8898976" ry="12.1134228"></ellipse>
                                            </g>
                                        </g>
                                    </g>
                                </g>
                            </g>
                        </g>
                    </g>
                    <g id="Blazer" transform="translate(3.448980, 0.000000)" fill-rule="nonzero">
                        <path d="M56.2344313,0.528324991 C68.2104001,1.21995419 78.4466898,8.37811742 83.4840657,18.5534146 C76.5033903,26.8931737 67.0340325,33.0891475 56.2142308,36.008358 C57.5970425,30.7696981 58.3880203,24.6996253 58.3880203,18.2283115 C58.3880203,11.7895325 57.6049757,5.74797009 56.2344313,0.528324991 Z M27.5980723,0.50509457 C26.2237481,5.73004113 25.438378,11.7799781 25.438378,18.2283115 C25.438378,24.6532522 26.2180603,30.6826818 27.5831386,35.8946321 C16.6675168,32.8543098 7.14962304,26.4721712 0.20957715,17.9237051 C5.42092043,7.95593716 15.6752412,1.02754897 27.5980723,0.50509457 Z" id="Combined-Shape" fill="#3A4C5A"></path>
                        <path d="M63.8043999,26.1047424 L68.1175771,22.8790559 L68.1175771,22.8790559 C68.7689166,22.3919402 69.6666283,22.3997919 70.3092984,22.8982253 L73.2830641,25.2045788 L63.8043999,26.1047424 Z" id="Pocket-hanky" fill="#E6E6E6"></path>
                        <path d="M27.6952028,1.13686838e-13 C25.9061697,8.62241051 26.6285407,20.780253 29.8623157,36.4735275 C26.9868174,35.8087332 24.1993804,34.9126706 21.5207849,33.8074075 L16.4110788,20.7037612 L19.1192686,16.6530253 L16.4110788,13.9525347 L24.9870131,0.450081765 C25.9022273,0.166187577 26.8049572,0.0161603225 27.6952028,1.13686838e-13 Z" id="Combined-Shape" fill="#2F4351"></path>
                        <path d="M55.6798305,1.13686838e-13 C56.5700762,0.0161603225 57.4728061,0.166187577 58.3880203,0.450081765 L58.3880203,0.450081765 L66.9639546,13.9525347 L64.2557648,16.6530253 L66.9639546,20.7037612 L61.7001966,34.2058716 C59.052656,35.2369368 56.3032691,36.0651973 53.4712433,36.6715006 C56.7404304,20.8816104 57.4763165,8.65833035 55.6798305,1.13686838e-13 Z" id="Combined-Shape" fill="#2F4351"></path>
                    </g>
                </g>
                <g id="Face" transform="translate(39.720117, 39.607195)">
                    <g id="Mouth/Smile" transform="translate(11.284124, 26.554824)">
                        <g id="Mouth" fill="#000000" fill-opacity="0.699999988" fill-rule="nonzero">
                            <path d="M0.0531906527,0.957808742 C0.530675248,5.22986121 4.16428742,8.55155353 8.57593429,8.55155353 C13.0012091,8.55155353 16.643635,5.20930756 17.1030125,0.918191374 C17.1399835,0.572839766 16.7531973,0 16.2684422,0 C9.54580638,0 4.39535649,0 0.941919418,0 C0.454351555,0 0.00541899747,0.53039593 0.0531906527,0.957808742 Z" id="react-path-50"></path>
                        </g>
                        <g id="Teeth-Clipped">
                            <g>
                                <mask id="mask-10" fill="white">
                                    <use xlink:href="#path-9"></use>
                                </mask>
                                <g id="path-9"></g>
                                <rect id="Teeth" fill="#FFFFFF" fill-rule="nonzero" mask="url(#mask-10)" x="1.80545985" y="-4.95089941" width="13.9923138" height="7.20130824" rx="3.60065412"></rect>
                            </g>
                        </g>
                        <g id="Tongue-Clipped">
                            <g>
                                <mask id="mask-12" fill="white">
                                    <use xlink:href="#path-11"></use>
                                </mask>
                                <g id="path-11"></g>
                                <g id="Tongue" mask="url(#mask-12)">
                                    <g transform="translate(1.000000, 4.000000)" id="Group">
                                        <g transform="translate(0.354095, 0.950899)">
                                            <g fill="#FF4F6D" fill-rule="nonzero" id="Oval">
                                                <ellipse cx="4.96501459" cy="4.95089941" rx="4.96501459" ry="4.95089941"></ellipse>
                                                <ellipse cx="9.47866422" cy="4.95089941" rx="4.96501459" ry="4.95089941"></ellipse>
                                            </g>
                                        </g>
                                    </g>
                                </g>
                            </g>
                        </g>
                    </g>
                    <g id="Nose/Default" transform="translate(14.443679, 18.903434)" fill="#000000" fill-opacity="0.16" fill-rule="nonzero">
                        <path d="M0,0 C0,1.98858636 2.42499573,3.60065412 5.41637955,3.60065412 L5.41637955,3.60065412 C8.40776338,3.60065412 10.8327591,1.98858636 10.8327591,0" id="Nose"></path>
                    </g>
                    <g id="Eyes/Happy-ðŸ˜" transform="translate(1.805460, 8.101472)" fill="#000000" fill-opacity="0.599999964" fill-rule="nonzero">
                        <path d="M0.0722939496,2.90181738 C0.905743235,1.19204515 2.78240433,0 4.96392242,0 C7.13773955,0 9.00884822,1.18364393 9.84668545,2.88372977 C10.095572,3.38875459 9.74140543,3.80205747 9.38415155,3.49579533 C8.27781058,2.54736526 6.70670393,1.95505995 4.96392242,1.95505995 C3.27564856,1.95505995 1.74847881,2.5108945 0.648854825,3.40785763 C0.246803109,3.73581115 -0.171473011,3.40189099 0.0722939496,2.90181738 Z" id="Squint"></path>
                        <path d="M26.2514618,2.90181738 C27.0849111,1.19204515 28.9615722,0 31.1430903,0 C33.3169074,0 35.1880161,1.18364393 36.0258533,2.88372977 C36.2747399,3.38875459 35.9205733,3.80205747 35.5633194,3.49579533 C34.4569784,2.54736526 32.8858718,1.95505995 31.1430903,1.95505995 C29.4548164,1.95505995 27.9276467,2.5108945 26.8280227,3.40785763 C26.425971,3.73581115 26.0076948,3.40189099 26.2514618,2.90181738 Z" id="Squint"></path>
                    </g>
                    <g id="Eyebrow/Outline/Default" fill="#000000" fill-opacity="0.599999964" fill-rule="nonzero">
                        <g id="I-Browse">
                            <path d="M1.63856556,5.02227189 C3.40561861,2.54290199 8.25001255,1.15258613 12.42293,2.17442623 C12.9071083,2.29298903 13.3960005,1.99771498 13.5149013,1.51491316 C13.6338022,1.03211134 13.3376862,0.544608999 12.853508,0.426046192 C8.00737842,-0.760646234 2.39769565,0.849303534 0.166894289,3.97936338 C-0.121918021,4.38459884 -0.0266018223,4.94657012 0.379788979,5.23456137 C0.786179779,5.52255258 1.34975325,5.42750738 1.63856556,5.02227189 Z" id="Eyebrow"></path>
                            <path d="M27.8177339,5.02227189 C29.5847869,2.54290199 34.4291808,1.15258613 38.6020982,2.17442623 C39.0862765,2.29298903 39.5751688,1.99771498 39.6940696,1.51491316 C39.8129704,1.03211134 39.5168545,0.544608999 39.0326762,0.426046192 C34.1865467,-0.760646234 28.5768639,0.849303534 26.3460625,3.97936338 C26.0572503,4.38459884 26.1525664,4.94657012 26.5589573,5.23456137 C26.965348,5.52255258 27.5289215,5.42750738 27.8177339,5.02227189 Z" id="Eyebrow" transform="translate(32.949712, 2.718133) scale(-1, 1) translate(-32.949712, -2.718133) "></path>
                        </g>
                    </g>
                </g>
                <g id="Top">
                    <g id="Top/Long-Hair/Straight-Clipped">
                        <g>
                            <mask id="mask-14" fill="white">
                                <use xlink:href="#path-13"></use>
                            </mask>
                            <g id="path-13"></g>
                            <g id="Top/Long-Hair/Straight" mask="url(#mask-14)">
                                <g transform="translate(17.000000, 6.000000)" id="Group">
                                    <g transform="translate(0.603234, 0.751226)">
                                        <g>
                                            <g id="Hair">
                                                <g id="Skin/ðŸ‘¶ðŸ½-03-Brown-Clipped">
                                                    <g>
                                                        <mask id="mask-16" fill="white">
                                                            <use xlink:href="#path-15"></use>
                                                        </mask>
                                                        <g id="path-15"></g>
                                                        <g id="Skin/ðŸ‘¶ðŸ½-03-Brown" mask="url(#mask-16)">
                                                            <g transform="translate(-1.000000, 0.000000)" id="Color">
                                                                <g transform="translate(0.775510, 0.000000)">
                                                                    <g id="Group" fill="#4A312C" fill-rule="nonzero">
                                                                        <path d="M119.386902,82.304637 L119.38484,126.022894 L93.4099937,126.023677 C106.454573,114.944067 115.811094,99.6754855 119.386902,82.304637 Z M119.38484,0 L119.38484,66.509 L96.4988073,66.5092931 C96.4988073,96.1804494 72.377006,120.233674 42.6212562,120.233674 C25.4116711,120.233674 10.0866543,112.187817 0.2229261,99.6626548 L0.2244898,0 L119.38484,0 Z" id="Combined-Shape"></path>
                                                                    </g>
                                                                </g>
                                                            </g>
                                                        </g>
                                                    </g>
                                                </g>
                                            </g>
                                            <path d="M12.186854,44.1080129 C20.2313696,29.5544694 44.0240428,29.528476 51.6495501,22.1477876 C56.5142994,25.9689489 64.4963191,28.925203 67.2366871,37.297698 C64.4963191,27.6458201 56.5142994,23.2062632 51.6495501,18.8031167 C44.0240428,27.3079272 20.2313696,27.3378795 12.186854,44.1080129 Z" id="Shadow" fill-opacity="0.16" fill="#000000" fill-rule="nonzero"></path>
                                        </g>
                                    </g>
                                </g>
                            </g>
                        </g>
                    </g>
                </g>
            </g>
            <path d="M8,75 C8,103.971046 31.3283209,127.456719 60.1052632,127.456719 L60.1052632,127.456719 C88.8822054,127.456719 112.210526,103.971046 112.210526,75" id="Path" stroke="#A8B6C6" stroke-width="2"></path>
            <g id="Group-4" transform="translate(46.000000, 111.000000)" fill-rule="nonzero">
                <circle id="Oval" stroke="#A8B6C6" stroke-width="2" fill="#FFFFFF" cx="14.5" cy="14.5" r="14.5"></circle>
                <g id="icon-/-badges-/-checkmark" transform="translate(1.000000, 1.000000)" fill="#63BB60">
                    <path d="M27,13.4993442 C27,20.9556252 20.9557891,26.9986884 13.5,26.9986884 C6.04421087,26.9986884 0,20.9556252 0,13.4993442 C0,6.04306325 6.04421087,5.32907052e-15 13.5,5.32907052e-15 C20.9557891,5.32907052e-15 27,6.04306325 27,13.4993442 Z M11.9384108,20.647406 L21.9545504,10.6319222 C22.2947391,10.2909137 22.2947391,9.74005392 21.9545504,9.39904547 L20.7228213,8.16780822 C20.3827966,7.82843923 19.831281,7.82843923 19.4910922,8.16780822 L11.3226282,16.3356164 L7.50890775,12.5222238 C7.16871903,12.1828549 6.61736739,12.1828549 6.27717867,12.5222238 L5.04544958,13.7551006 C4.70526086,14.0944695 4.70526086,14.6453294 5.04544958,14.9863378 L10.7066817,20.647406 C11.0468704,20.986775 11.5982221,20.986775 11.9384108,20.647406 Z" id="Shape"></path>
                </g>
            </g>
        </g>
    </g>
</svg>