<svg xmlns="http://www.w3.org/2000/svg" xmlns:xlink="http://www.w3.org/1999/xlink" viewBox="0 0 104 104"><defs><linearGradient id="New_Gradient_Swatch_5" y1="52" x2="104" y2="52" gradientUnits="userSpaceOnUse"><stop offset="0" stop-color="#00bfe7"/><stop offset="1" stop-color="#87eaff"/></linearGradient><linearGradient id="New_Gradient_Swatch_2" x1="45.44" y1="69.9" x2="54.48" y2="87.26" gradientUnits="userSpaceOnUse"><stop offset="0" stop-color="#a7efb5"/><stop offset="1" stop-color="#44d067"/></linearGradient></defs><title>LOA3-success</title><g id="Layer_1" data-name="Layer 1"><circle cx="52" cy="52" r="52" fill="url(#New_Gradient_Swatch_5)"/><circle cx="52" cy="52" r="40.31" fill="none" stroke="#fff" stroke-miterlimit="10"/><path d="M51.29,98.51a.71.71,0,0,1,.71-.71h.13a.72.72,0,0,1,.72.71h0a.71.71,0,0,1-.71.71H52A.71.71,0,0,1,51.29,98.51Zm-8-.09h0a.7.7,0,0,1-.57-.82h0a.7.7,0,0,1,.82-.57h0a.71.71,0,0,1,.57.82h0a.71.71,0,0,1-.7.58h-.13ZM60,97.82a.72.72,0,0,1,.57-.83h0a.72.72,0,0,1,.83.57h0a.72.72,0,0,1-.57.83h-.14A.71.71,0,0,1,60,97.82ZM34.95,96a.72.72,0,0,1-.41-.92h0a.71.71,0,0,1,.92-.41h0a.71.71,0,0,1,.41.92h0a.72.72,0,0,1-.67.45h0A.81.81,0,0,1,34.95,96Zm33.29-.45a.72.72,0,0,1,.41-.92h0a.71.71,0,0,1,.92.4h0a.72.72,0,0,1-.41.92h0a.67.67,0,0,1-.26,0h0A.72.72,0,0,1,68.24,95.58ZM27.16,92.14a.71.71,0,0,1-.23-1h0a.72.72,0,0,1,1-.23h0a.72.72,0,0,1,.23,1h0a.72.72,0,0,1-.6.33h0A.74.74,0,0,1,27.16,92.14ZM76,91.84a.71.71,0,0,1,.23-1h0a.71.71,0,0,1,1,.23h0a.71.71,0,0,1-.23,1h0a.72.72,0,0,1-.38.11h0A.72.72,0,0,1,76,91.84Zm-55.75-5a.7.7,0,0,1,0-1h0a.71.71,0,0,1,1,0h0a.72.72,0,0,1,0,1h0a.73.73,0,0,1-.53.23h0A.7.7,0,0,1,20.21,86.88Zm62.66-.13a.7.7,0,0,1,0-1h0a.7.7,0,0,1,1,0h0a.7.7,0,0,1,0,1h0a.69.69,0,0,1-.48.18h0A.69.69,0,0,1,82.87,86.75Zm-68.53-6.3h0a.7.7,0,0,1,.13-1h0a.71.71,0,0,1,1,.13h0a.71.71,0,0,1-.14,1h0a.7.7,0,0,1-.43.14h0A.69.69,0,0,1,14.35,80.45Zm74.39,0a.7.7,0,0,1-.14-1h0a.71.71,0,0,1,1-.14h0a.71.71,0,0,1,.14,1h0a.72.72,0,0,1-.57.28h0A.68.68,0,0,1,88.74,80.49Zm-79-7.44a.71.71,0,0,1,.31-1h0a.71.71,0,0,1,1,.32h0a.72.72,0,0,1-.32,1h0a.75.75,0,0,1-.32.08h0A.7.7,0,0,1,9.75,73.05Zm83.61.21a.71.71,0,0,1-.32-1h0A.72.72,0,0,1,94,72h0a.72.72,0,0,1,.32,1h0a.72.72,0,0,1-.64.4h0A.76.76,0,0,1,93.35,73.26ZM6.58,64.94a.72.72,0,0,1,.49-.88h0a.72.72,0,0,1,.88.49H8a.72.72,0,0,1-.49.88h0l-.19,0h0A.72.72,0,0,1,6.58,64.94Zm90,.36a.71.71,0,0,1-.5-.87h0a.71.71,0,0,1,.88-.49h0a.71.71,0,0,1,.49.87h0a.72.72,0,0,1-.69.52h0A.53.53,0,0,1,96.57,65.3ZM5,56.38a.72.72,0,0,1,.64-.77h0a.71.71,0,0,1,.77.64h0a.71.71,0,0,1-.64.77H5.69A.72.72,0,0,1,5,56.38Zm93.27.51a.7.7,0,0,1-.64-.77h0a.71.71,0,0,1,.77-.65h0a.71.71,0,0,1,.65.77h0a.72.72,0,0,1-.71.65h-.06ZM5.62,48.45A.72.72,0,0,1,5,47.67H5A.71.71,0,0,1,5.75,47h0a.72.72,0,0,1,.65.77h0a.71.71,0,0,1-.71.65H5.62Zm92-.77a.71.71,0,0,1,.64-.77h0a.7.7,0,0,1,.77.64h0a.71.71,0,0,1-.64.77h-.07A.71.71,0,0,1,97.59,47.68ZM7.06,40a.72.72,0,0,1-.49-.88h0a.71.71,0,0,1,.87-.49h0a.72.72,0,0,1,.49.88h0a.7.7,0,0,1-.68.51h0Zm89-.62h0a.71.71,0,0,1,.48-.88h0a.71.71,0,0,1,.88.49h0a.71.71,0,0,1-.48.87h0a.67.67,0,0,1-.2,0h0A.71.71,0,0,1,96,39.38ZM10,31.95a.71.71,0,0,1-.32-1h0a.7.7,0,0,1,1-.32h0a.71.71,0,0,1,.32,1h0a.71.71,0,0,1-.64.39h0A.69.69,0,0,1,10,31.95Zm82.91-.43h0a.7.7,0,0,1,.31-1h0a.71.71,0,0,1,1,.32h0a.71.71,0,0,1-.31,1h0a.74.74,0,0,1-.32.07h0A.72.72,0,0,1,92.95,31.51Zm-78.5-6.92a.71.71,0,0,1-.14-1h0a.71.71,0,0,1,1-.14h0a.71.71,0,0,1,.14,1h0a.72.72,0,0,1-.57.28h0A.73.73,0,0,1,14.45,24.59Zm74-.24a.71.71,0,0,1,.14-1h0a.71.71,0,0,1,1,.13h0a.71.71,0,0,1-.13,1h0a.74.74,0,0,1-.43.14h0A.7.7,0,0,1,88.48,24.35ZM20.13,18.16a.7.7,0,0,1,0-1h0a.71.71,0,0,1,1,0h0a.72.72,0,0,1,0,1h0a.72.72,0,0,1-.48.18h0A.68.68,0,0,1,20.13,18.16Zm62.65,0a.71.71,0,0,1,0-1h0a.7.7,0,0,1,1,0h0a.7.7,0,0,1,0,1h0a.68.68,0,0,1-.52.23h0A.75.75,0,0,1,82.77,18.12ZM26.88,12.87a.7.7,0,0,1,.23-1h0a.7.7,0,0,1,1,.23h0a.7.7,0,0,1-.22,1h0a.65.65,0,0,1-.37.11h0A.7.7,0,0,1,26.88,12.87ZM76,13a.72.72,0,0,1-.23-1h0a.71.71,0,0,1,1-.23h0a.71.71,0,0,1,.23,1h0a.72.72,0,0,1-.61.33h0A.69.69,0,0,1,76,13ZM34.49,8.91A.71.71,0,0,1,34.89,8h0a.71.71,0,0,1,.92.41h0a.71.71,0,0,1-.41.92h0a.65.65,0,0,1-.26,0h0A.7.7,0,0,1,34.49,8.91Zm34,.36a.71.71,0,0,1-.41-.92h0A.71.71,0,0,1,69,7.94h0a.72.72,0,0,1,.41.92h0a.73.73,0,0,1-.67.45h0A.81.81,0,0,1,68.47,9.27ZM42.69,6.43a.71.71,0,0,1,.57-.83h0a.71.71,0,0,1,.83.57h0a.7.7,0,0,1-.57.82h-.13A.71.71,0,0,1,42.69,6.43ZM60.34,7a.71.71,0,0,1-.57-.82h0a.71.71,0,0,1,.82-.58h0a.72.72,0,0,1,.58.83h0a.72.72,0,0,1-.7.58h-.13ZM51.22,5.49a.71.71,0,0,1,.71-.71h0a.71.71,0,0,1,.71.71h0a.71.71,0,0,1-.71.71h0A.71.71,0,0,1,51.22,5.49Z" fill="#fff"/></g><g id="Layer_2" data-name="Layer 2"><path d="M43,64.09l.13-.24Z" fill="none"/><path d="M35.68,47.35h-.06a3.23,3.23,0,0,1-2-6c.41-2.19-1.19-7.33-1.45-9.45,0,0,23.2-6.36,24.23-11.4l1.91,2.23C63.91,28.64,68,27,68,27c.26,2.11-.21,8.42.61,10.12A3.23,3.23,0,0,1,68,43.42H68c.18,4.17-1.76,8.26-4.5,11.45l.34,0c19.88,1.68,17-16.23,9.64-32.34C65.56,5.25,52.26,9.15,52.26,9.15S26,5.34,24.62,32.3c-1.39,26.52,4.76,29.24,18.2,25.15l.1,0C39.44,55,36.51,51.46,35.68,47.35Z" fill="#112e51"/><path d="M43.13,63.85l-.13.24a21.79,21.79,0,0,1-1.27,2.17l10.43,3.9,10.42-4A14.71,14.71,0,0,1,61,63.91h0a19.47,19.47,0,0,1-1.88-5.23,21.38,21.38,0,0,0,4.29-3.82c-8.57-.62-19.49,2.26-20.57,2.55.57.4,1.15.78,1.75,1.11a12.28,12.28,0,0,1-1.42,5.08h0Z" fill="#fff"/><path d="M63.48,54.87c2.75-3.19,4.69-7.28,4.5-11.45H68a3.23,3.23,0,0,0,.55-6.28c-.82-1.7-.36-8-.61-10.12,0,0-4.06,1.63-9.7-4.24l-1.91-2.23c-1,5-24.23,11.4-24.23,11.4.26,2.11,1.86,7.26,1.45,9.45a3.23,3.23,0,0,0,2,6h.06c.83,4.11,3.76,7.63,7.23,10.07C44,57.13,54.92,54.24,63.48,54.87ZM57,35.92A1.87,1.87,0,1,1,55.34,38,1.87,1.87,0,0,1,57,35.92ZM45,41.15a1.87,1.87,0,1,1,1.63-2.09A1.87,1.87,0,0,1,45,41.15Zm14.32,8.27c-4,3.77-8.94,3.41-12.37,2.48-1.16-.32-.93-1.61.31-1.73a51.19,51.19,0,0,0,6-.94c2-.44,3.56-.84,4.74-1.19S60.12,48.69,59.35,49.42Z" fill="#fff"/><circle cx="44.81" cy="39.29" r="1.87" transform="translate(-4.41 5.7) rotate(-6.93)" fill="#112e51"/><circle cx="57.2" cy="37.78" r="1.87" transform="translate(-4.14 7.18) rotate(-6.93)" fill="#112e51"/><path d="M58,48c-1.18.35-2.73.76-4.74,1.19a51.19,51.19,0,0,1-6,.94c-1.24.12-1.47,1.41-.31,1.73,3.42.93,8.4,1.29,12.37-2.48C60.12,48.69,59.14,47.68,58,48Z" fill="#112e51"/><path d="M80.32,72c-5.13-5-18.56-7.89-19.25-8a13.84,13.84,0,0,0,1.71,2.5C72.11,77.14,62,81.88,62,81.88L52.2,85.95,40,81.07a16.1,16.1,0,0,1,1.63-14.65A25.21,25.21,0,0,0,43,64.09l.13-.24.11-.24c-.33-.05-14.07,3.15-19.43,8.35a1.2,1.2,0,0,0-.36.86l-.32,22.43A52,52,0,0,0,81.8,94.6c-.09-9.29-1.12-21.78-1.12-21.78A1.2,1.2,0,0,0,80.32,72Z" fill="#e21c3d"/><path d="M43.25,63.61h0l-.11.24Z" fill="#e21c3d"/><path d="M62.57,66.19l-10.42,4-10.43-3.9A21.79,21.79,0,0,0,43,64.09a25.21,25.21,0,0,1-1.38,2.33A16.1,16.1,0,0,0,40,81.07L52.2,85.95,62,81.88s10.14-4.74.81-15.46a13.84,13.84,0,0,1-1.71-2.5h0A14.71,14.71,0,0,0,62.57,66.19Z" fill="#e21c3d"/><path d="M98,76.16q.79-1.5,1.48-3.06h-95Q5.17,74.66,6,76.16Z" fill="#112e51"/><path d="M15.3,88.84q1.61,1.6,3.36,3.06H85.34q1.74-1.46,3.36-3.06Z" fill="#112e51"/><path d="M7.3,78.57H96.7q.7-1.18,1.34-2.4H6Q6.6,77.38,7.3,78.57Z" fill="#0071bb"/><path d="M15.3,88.84H88.7c.78-.77,1.52-1.58,2.25-2.4H13.05C13.78,87.26,14.52,88.06,15.3,88.84Z" fill="#0071bb"/><path d="M13.05,86.44h77.9a52.15,52.15,0,0,0,5.75-7.87H7.3A52.15,52.15,0,0,0,13.05,86.44Z" fill="#87eaff"/><circle cx="52" cy="82.5" r="18.07" fill="#112e51"/><circle cx="52" cy="82.5" r="14.1" fill="url(#New_Gradient_Swatch_2)"/><path d="M49.75,90.11a2,2,0,0,1-1.6-.77l-3.9-4.87a2,2,0,0,1,3.19-2.56l2.3,2.88,6.8-8.5a2,2,0,0,1,3.19,2.55L51.35,89.34A2,2,0,0,1,49.75,90.11Z" fill="#fff"/></g></svg>