<svg xmlns="http://www.w3.org/2000/svg" xmlns:xlink="http://www.w3.org/1999/xlink" viewBox="0 0 143.58 139.35"><defs><filter id="luminosity-invert" filterUnits="userSpaceOnUse" color-interpolation-filters="sRGB"><feColorMatrix values="-1 0 0 0 1 0 -1 0 0 1 0 0 -1 0 1 0 0 0 1 0"/></filter><mask id="mask" x="-84.7" y="0" width="136.81" height="125.06" maskUnits="userSpaceOnUse"><circle cx="-22.46" cy="62.82" r="61.99" stroke="#000" stroke-miterlimit="10" stroke-width="0.5" filter="url(#luminosity-invert)"/></mask><mask id="mask-2" x="-91.76" y="-6.49" width="140.75" height="138.61" maskUnits="userSpaceOnUse"><circle cx="-22.46" cy="62.82" r="69.3" filter="url(#luminosity-invert)"/></mask><mask id="mask-3" x="7.06" y="6.87" width="123.93" height="128.35" maskUnits="userSpaceOnUse"><path d="M69,130.8a62,62,0,1,1,62-62A62,62,0,0,1,69,130.8Z" filter="url(#luminosity-invert)"/></mask><clipPath id="clip-path"><path d="M69.16,130.82A61.83,61.83,0,1,1,131,69,61.9,61.9,0,0,1,69.16,130.82Z" fill="none"/></clipPath><linearGradient id="linear-gradient" x1="66.88" y1="78.12" x2="69.29" y2="106.02" gradientUnits="userSpaceOnUse"><stop offset="0" stop-color="#8adaeb"/><stop offset="0.71" stop-color="#edf9ff"/></linearGradient><symbol id="New_Symbol" data-name="New Symbol" viewBox="0 0 52.11 52.11"><g mask="url(#mask)"><circle cx="26.06" cy="26.06" r="26.06" fill="#5b616a" opacity="0.4"/></g><g mask="url(#mask-2)"><circle cx="26.06" cy="26.06" r="22.94" fill="#fff"/></g><circle cx="26.06" cy="26.06" r="20.65" fill="#42cf5e"/><path d="M22.77,37.19a3,3,0,0,1-2.34-1.12l-5.71-7.14a3,3,0,0,1,4.67-3.74l3.37,4.22L32.72,17a3,3,0,1,1,4.67,3.74L25.1,36.07A3,3,0,0,1,22.77,37.19Z" fill="#fff"/></symbol></defs><title>user-verified-true</title><g style="isolation:isolate"><g id="Layer_2" data-name="Layer 2"><g id="Layer_3" data-name="Layer 3"><circle cx="69.16" cy="69.16" r="68.91" fill="#112e51"/><path d="M69.16,134.58a65.41,65.41,0,1,1,65.41-65.41A65.49,65.49,0,0,1,69.16,134.58Z" fill="none" stroke="#44d067" stroke-linecap="round" stroke-miterlimit="10" stroke-width="2" stroke-dasharray="0 12.08"/><circle cx="69.16" cy="69.16" r="68.91" fill="none" stroke="#44d067" stroke-linecap="round" stroke-miterlimit="10" stroke-width="0.5"/><circle cx="69.16" cy="69.16" r="61.99" fill="#dcf8e1" stroke="#44d067" stroke-miterlimit="10" stroke-width="0.5"/><g opacity="0.31"><polygon points="68.5 73.96 58.49 130.18 62.98 130.8 68.5 73.96" fill="#68e380"/><polygon points="69.82 64.36 79.84 8.15 75.34 7.53 69.82 64.36" fill="#68e380"/><polygon points="67.86 73.83 50.28 128.16 54.65 129.38 67.86 73.83" fill="#68e380"/><polygon points="70.47 64.5 88.05 10.17 83.68 8.94 70.47 64.5" fill="#68e380"/><polygon points="67.23 73.61 42.42 125.04 46.58 126.84 67.23 73.61" fill="#68e380"/><polygon points="71.09 64.72 95.91 13.29 91.74 11.48 71.09 64.72" fill="#68e380"/><polygon points="66.65 73.3 35.06 120.88 38.94 123.23 66.65 73.3" fill="#68e380"/><polygon points="71.68 65.02 103.27 17.45 99.39 15.09 71.68 65.02" fill="#68e380"/><polygon points="66.11 72.92 28.34 115.75 31.86 118.61 66.11 72.92" fill="#68e380"/><polygon points="72.22 65.41 109.99 22.58 106.47 19.71 72.22 65.41" fill="#68e380"/><polygon points="65.62 72.47 22.37 109.76 25.47 113.07 65.62 72.47" fill="#68e380"/><polygon points="72.7 65.86 115.95 28.57 112.86 25.25 72.7 65.86" fill="#68e380"/><polygon points="65.2 71.96 17.28 103.01 19.9 106.72 65.2 71.96" fill="#68e380"/><polygon points="73.12 66.37 121.04 35.32 118.43 31.61 73.12 66.37" fill="#68e380"/><polygon points="64.86 71.39 13.16 95.63 15.24 99.66 64.86 71.39" fill="#68e380"/><polygon points="73.46 66.93 125.17 42.7 123.08 38.67 73.46 66.93" fill="#68e380"/><polygon points="64.6 70.78 10.07 87.75 11.59 92.03 64.6 70.78" fill="#68e380"/><polygon points="73.73 67.54 128.25 50.57 126.73 46.3 73.73 67.54" fill="#68e380"/><polygon points="64.42 70.15 8.09 79.54 9.02 83.98 64.42 70.15" fill="#68e380"/><polygon points="73.91 68.18 130.23 58.79 129.31 54.35 73.91 68.18" fill="#68e380"/><polygon points="64.33 69.49 7.25 71.12 7.56 75.65 64.33 69.49" fill="#68e380"/><polygon points="74 68.83 131.08 67.2 130.77 62.67 74 68.83" fill="#68e380"/><polygon points="64.33 68.83 7.56 62.67 7.25 67.2 64.33 68.83" fill="#68e380"/><polygon points="74 69.49 130.77 75.65 131.08 71.12 74 69.49" fill="#68e380"/><polygon points="64.42 68.18 9.02 54.35 8.09 58.79 64.42 68.18" fill="#68e380"/><polygon points="73.91 70.15 129.31 83.98 130.23 79.54 73.91 70.15" fill="#68e380"/><polygon points="64.6 67.54 11.59 46.3 10.07 50.57 64.6 67.54" fill="#68e380"/><polygon points="73.73 70.78 126.73 92.03 128.25 87.75 73.73 70.78" fill="#68e380"/><polygon points="64.86 66.93 15.24 38.67 13.16 42.7 64.86 66.93" fill="#68e380"/><polygon points="73.46 71.39 123.08 99.66 125.17 95.63 73.46 71.39" fill="#68e380"/><polygon points="65.2 66.37 19.9 31.61 17.28 35.32 65.2 66.37" fill="#68e380"/><polygon points="73.12 71.96 118.43 106.72 121.04 103.01 73.12 71.96" fill="#68e380"/><polygon points="65.62 65.86 25.47 25.25 22.37 28.57 65.62 65.86" fill="#68e380"/><polygon points="72.7 72.47 112.86 113.07 115.95 109.76 72.7 72.47" fill="#68e380"/><polygon points="66.11 65.41 31.86 19.71 28.34 22.58 66.11 65.41" fill="#68e380"/><polygon points="72.22 72.92 106.47 118.61 109.99 115.75 72.22 72.92" fill="#68e380"/><polygon points="66.65 65.02 38.94 15.09 35.06 17.45 66.65 65.02" fill="#68e380"/><polygon points="71.68 73.3 99.39 123.23 103.27 120.88 71.68 73.3" fill="#68e380"/><polygon points="67.23 64.72 46.58 11.48 42.42 13.29 67.23 64.72" fill="#68e380"/><polygon points="71.09 73.61 91.74 126.84 95.91 125.04 71.09 73.61" fill="#68e380"/><polygon points="67.86 64.5 54.65 8.94 50.28 10.17 67.86 64.5" fill="#68e380"/><polygon points="70.47 73.83 83.68 129.38 88.05 128.16 70.47 73.83" fill="#68e380"/><polygon points="68.5 64.36 62.98 7.53 58.49 8.15 68.5 64.36" fill="#68e380"/><polygon points="69.82 73.96 75.34 130.8 79.84 130.18 69.82 73.96" fill="#68e380"/><polygon points="69.16 64.32 71.43 7.26 66.89 7.26 69.16 64.32" fill="#68e380"/><polygon points="69.16 74.01 66.89 131.07 71.43 131.07 69.16 74.01" fill="#68e380"/></g></g><g id="Layer_1-2" data-name="Layer 1"><g mask="url(#mask-3)"><path d="M105.47,112.93a7.7,7.7,0,0,0-4.55-6.65C93.08,102.56,77.43,95.14,76,94.64a26.24,26.24,0,0,1-1.15-3.73,29.84,29.84,0,0,0,5.3-4.14c8.2-.07,15.94.1,20.5.23a3.55,3.55,0,0,0,3.83-3.74c-.93-8.54-3.64-29.06-9.07-39.93C84.05,20.55,64.89,25.68,64.89,25.68s-37.78-5-39.82,30.47A208,208,0,0,0,26,89.34a3.69,3.69,0,0,0,4.45,3c4.62-.86,12.6-2.29,20.44-3.45a32.84,32.84,0,0,0,3,1.8,12.47,12.47,0,0,1-.82,4c-1.6.6-16.9,7.85-24.71,11.55A7.89,7.89,0,0,0,23.76,113l-.38,12c27.09,13.83,54.58,13.44,82.45,0Z" fill="#747980" opacity="0.42" style="mix-blend-mode:multiply"/></g><g clip-path="url(#clip-path)"><path d="M71,88.09c11.93-.66,26.27-.36,33.17-.15a3.63,3.63,0,0,0,3.73-4c-.91-9.1-3.54-31-8.84-42.57C88,17.11,69.29,22.59,69.29,22.59S32.5,17.25,30.51,55.07a242.47,242.47,0,0,0,.92,35.37,3.63,3.63,0,0,0,4.34,3.2C43.58,92.06,61.25,88.63,71,88.09Z" fill="#112e51"/><path d="M57.79,88.09s3.43,4.57-3.43,14.84a22.59,22.59,0,0,0-2.28,20.55l17.13,6.85,13.7-5.71s14.23-6.65,1.14-21.7c-5.8-6.66-5.71-16.7-5.71-16.7Z" fill="url(#linear-gradient)"/><path d="M69,119.62c-8-9.71-15.1-17.1-15.1-17.1C55.47,102,58,96.06,58,96.06c-.19-.1-16.23,8.21-24.2,12.36a8.45,8.45,0,0,0-4.55,7.25l-.37,12.77c26.38,14.74,53.16,14.32,80.3,0l-.35-12.86a8.24,8.24,0,0,0-4.44-7.09C96.43,104.36,80.23,96,80,96.06h0s2.51,5.89,4.07,6.47c0,0-5.86,7.39-15.1,17.1" fill="#e21c3d"/><path d="M75.53,39C63.71,48.09,41.07,54.57,41.07,54.57c.36,3,2.61,10.18,2,13.25A4.53,4.53,0,0,0,46,76.2H46C48.39,87.9,62.92,96.27,71.35,95.25c8.65-1.05,20.53-12.63,20-24.58h.08a4.53,4.53,0,0,0,.77-8.81c-1.16-2.39-.5-11.24-.86-14.2Z" fill="#fff"/><circle cx="58.84" cy="64.88" r="2.63" transform="translate(-7.4 7.58) rotate(-6.93)" fill="#2686c5"/><circle cx="76.22" cy="62.76" r="2.63" transform="translate(-7.02 9.66) rotate(-6.93)" fill="#2686c5"/><path d="M70.76,78.81c7.21-2,8.69-3.58,8.69-3.58-6.7,14.79-19.38,5-19.38,5a31.68,31.68,0,0,0,10.69-1.43" fill="#2686c5"/></g><circle cx="69.16" cy="69.16" r="61.99" fill="none" stroke="#44d067" stroke-miterlimit="10" stroke-width="0.5"/><use width="52.11" height="52.11" transform="translate(91.47 6.31)" xlink:href="#New_Symbol"/></g></g></g></svg>