<?xml version="1.0" encoding="UTF-8"?>
<svg width="107px" height="119px" viewBox="0 0 107 119" version="1.1" xmlns="http://www.w3.org/2000/svg" xmlns:xlink="http://www.w3.org/1999/xlink">
    <title>Account creation confirmed</title>
    <desc>Account is created with login.gov</desc>
    <defs>
        <path d="M14.0167464,28.0334928 C21.5080191,28.0334928 27.5813397,21.7580086 27.5813397,14.0167464 C27.5813397,6.27548426 21.5080191,0 14.0167464,0 C6.52547368,0 0.45215311,6.27548426 0.45215311,14.0167464 C0.45215311,21.7580086 6.52547368,28.0334928 14.0167464,28.0334928 Z" id="path-1"></path>
        <path d="M1.35645933,18.0861244 C1.35645933,25.5776684 7.4297799,31.6507177 14.9210526,31.6507177 C22.4123254,31.6507177 28.4856459,25.5776684 28.4856459,18.0861244 L29.8421053,18.0861244 L29.8421053,0 L0,0 L0,18.0861244 L1.35645933,18.0861244 Z" id="path-3"></path>
        <path d="M14.0167464,16.7987541 L14.0167464,18.8773923 L14.4688995,18.8773923 C18.9642057,18.8773923 22.6076555,22.5212038 22.6076555,27.0161483 L22.6076555,28.0334928 L0,28.0334928 L0,27.0161483 C0,22.5212038 3.64344976,18.8773923 8.13875598,18.8773923 L8.59090909,18.8773923 L8.59090909,16.7987541 C6.64212919,15.8731062 5.24226316,13.981388 5.00804785,11.7425971 C4.34971292,11.6494536 3.84330144,11.0836292 3.84330144,10.3995215 L3.84330144,8.81698565 C3.84330144,8.14490526 4.3325311,7.58694833 4.97368421,7.47924545 L4.97368421,6.78229665 C4.97368421,3.2862488 7.8077799,0.45215311 11.3038278,0.45215311 C14.7998756,0.45215311 17.6339713,3.2862488 17.6339713,6.78229665 L17.6339713,7.47924545 C18.2751244,7.58694833 18.7643541,8.14490526 18.7643541,8.81698565 L18.7643541,10.3995215 C18.7643541,11.0836292 18.2579426,11.6494536 17.5996077,11.7425971 C17.3653923,13.981388 15.9655263,15.8731062 14.0167464,16.7987541 Z" id="path-5"></path>
        <path d="M15.1426077,0.824636842 C19.322311,1.16709761 22.6076555,4.66784785 22.6076555,8.93590191 L22.6076555,9.94736842 L0,9.94736842 L0,8.93590191 C0,4.62923397 3.34502871,1.10379617 7.57899043,0.816045933 C7.57537321,0.858277033 7.57356459,0.900779426 7.57356459,0.94355311 C7.57356459,2.2845488 9.26913876,3.37170574 11.3598947,3.37170574 C13.451555,3.37170574 15.1471292,2.2845488 15.1471292,0.94355311 C15.1471292,0.903673206 15.1453206,0.864064593 15.1426077,0.824636842 Z" id="path-7"></path>
        <polygon id="path-9" points="29.8421053 0 0 0 0 31.6507177 29.8421053 31.6507177"></polygon>
        <path d="M3.16507177,18.5994086 L3.16507177,8.59615407 C3.16507177,8.19681244 3.21028708,7.8080512 3.29529187,7.43466316 C3.64073684,5.16937608 4.94836364,3.3698067 6.44318182,2.26076555 C8.69309569,0.592320574 12.4839474,0.110958373 13.7960957,2.09374019 C14.7736507,1.65949234 16.2232536,2.05530718 17.2948565,3.05203349 C18.3764067,4.11631148 19.2391148,6.46551818 18.7254689,8.38780191 C18.7372249,8.53086316 18.743555,8.67555215 18.743555,8.82159761 L18.743555,11.2916196 C18.6440813,10.7294124 18.1982584,10.286845 17.6339713,10.1921641 L17.6339713,10.173445 C16.9512201,7.73905263 14.9472775,6.6217823 13.7264641,5.51364545 C11.8165694,7.64970718 5.85809569,7.65721292 3.84330144,11.8690191 L3.84330144,12.9994019 C3.84330144,13.6797115 4.34428708,14.2430943 4.99719617,14.3408498 C5.19433493,16.6295584 6.60957416,18.57029 8.59090909,19.5116727 L8.59090909,19.555622 C8.92188517,24.5129383 7.84033493,30.7235325 0.791267943,28.8247608 C2.32949282,27.9247048 3.14336842,22.1617421 3.16507177,18.5994086 Z M14.0167464,19.5116727 C15.9980813,18.57029 17.4133206,16.6295584 17.6104593,14.3408498 C18.1855981,14.2547598 18.6422727,13.8076708 18.743555,13.2376866 L18.743555,13.39169 C18.743555,15.1808598 19.1685789,16.9445282 19.9824545,18.5375541 L23.0290622,24.4954852 C23.8158086,26.0349761 23.5852105,27.8270397 22.5841435,29.1038297 C22.2649234,24.9010665 18.7535024,21.590311 14.4688995,21.590311 L14.0167464,21.590311 L14.0167464,19.5116727 Z" id="path-11"></path>
    </defs>
    <g id="Page-1" stroke="none" stroke-width="1" fill="none" fill-rule="evenodd">
        <g id="icon-created" transform="translate(1.000000, 1.000000)">
            <ellipse id="Oval" fill="#EBF3FA" cx="52.1052632" cy="52.4567194" rx="52.1052632" ry="52.4567194"></ellipse>
            <path d="M104.210526,52.4567194 C104.210526,23.4856733 80.8822054,7.10542736e-15 52.1052632,7.10542736e-15 C23.3283209,7.10542736e-15 -1.27897692e-13,23.4856733 -1.27897692e-13,52.4567194" id="Shape" stroke="#A8B6C6" stroke-width="2"></path>
            <path d="M96.1578947,44.2105263 L96.1583502,79.8888625 C86.7438516,94.4293159 70.7116976,104.010212 52.5,104.010212 C33.5537959,104.010212 16.9664896,93.6409059 7.73512971,78.1056451 L7.73684211,44.2105263 L96.1578947,44.2105263 Z" id="Combined-Shape" fill="#FFFFFF"></path>
            <path d="M91.3732687,11.0526316 C95.2365847,11.0526316 98.3684211,14.184468 98.3684211,18.0477839 L98.3684211,18.0477839 L98.3683903,77.2370801 C97.679457,78.4578725 96.9421824,79.6483677 96.1591208,80.8060201 L96.1578947,18.0477839 C96.1578947,15.4053079 94.0157447,13.2631579 91.3732687,13.2631579 L91.3732687,13.2631579 L13.6267313,13.2631579 C10.9842553,13.2631579 8.84210526,15.4053079 8.84210526,18.0477839 L8.84210526,18.0477839 L8.8415569,80.807022 C8.05802804,79.6487368 7.32033709,78.4575712 6.63104249,77.236075 L6.63157895,18.0477839 C6.63157895,14.184468 9.76341533,11.0526316 13.6267313,11.0526316 L13.6267313,11.0526316 Z" id="Combined-Shape" fill="#112E51" fill-rule="nonzero"></path>
            <path d="M12.7368421,12.1578947 L92.2631579,12.1578947 C95.0245816,12.1578947 97.2631579,14.396471 97.2631579,17.1578947 L97.2631579,29.8275623 L97.2631579,29.8275623 L7.73684211,29.8275623 L7.73684211,17.1578947 C7.73684211,14.396471 9.97541836,12.1578947 12.7368421,12.1578947 Z" id="Rectangle" fill="#112E51"></path>
            <circle id="Oval" fill="#FFFFFF" cx="15.3936981" cy="20.9927285" r="1.76696676"></circle>
            <circle id="Oval" fill="#FFFFFF" cx="21.2835873" cy="20.9927285" r="1.76696676"></circle>
            <circle id="Oval" fill="#FFFFFF" cx="27.1734765" cy="20.9927285" r="1.76696676"></circle>
            <path d="M60.7458449,20.9927285 L91.3732687,20.9927285" id="Line" stroke="#FFFFFF" stroke-width="3" stroke-linecap="round"></path>
            <g id="Group" transform="translate(15.473684, 35.368421)">
                <g id="Clipped" transform="translate(0.904306, 3.617225)">
                    <mask id="mask-2" fill="white">
                        <use xlink:href="#path-1"></use>
                    </mask>
                    <g id="Path"></g>
                    <g id="Group" mask="url(#mask-2)" fill-rule="nonzero">
                        <path d="M14.0167464,28.0334928 C21.5080191,28.0334928 27.5813397,21.7580086 27.5813397,14.0167464 C27.5813397,6.27548426 21.5080191,0 14.0167464,0 C6.52547368,0 0.45215311,6.27548426 0.45215311,14.0167464 C0.45215311,21.7580086 6.52547368,28.0334928 14.0167464,28.0334928 Z" id="Path" fill="#E6E6E6"></path>
                        <polygon id="Path" fill="#CEDCED" points="27.5813397 0 0.45215311 0 0.45215311 28.0334928 27.5813397 28.0334928"></polygon>
                    </g>
                </g>
                <g id="Clipped">
                    <mask id="mask-4" fill="white">
                        <use xlink:href="#path-3"></use>
                    </mask>
                    <g id="Path"></g>
                    <g id="Group" mask="url(#mask-4)">
                        <g id="Clipped" transform="translate(3.617225, 3.617225)">
                            <mask id="mask-6" fill="white">
                                <use xlink:href="#path-5"></use>
                            </mask>
                            <g id="Path"></g>
                            <g id="Group" mask="url(#mask-6)">
                                <g transform="translate(-3.617225, 0.000000)" id="Path">
                                    <path d="M17.6339713,16.7987541 L17.6339713,18.8773923 L18.0861244,18.8773923 C22.5814306,18.8773923 26.2248804,22.5212038 26.2248804,27.0161483 L26.2248804,28.0334928 L3.61722488,28.0334928 L3.61722488,27.0161483 C3.61722488,22.5212038 7.26067464,18.8773923 11.7559809,18.8773923 L12.208134,18.8773923 L12.208134,16.7987541 C10.2593541,15.8731062 8.85948804,13.981388 8.62527273,11.7425971 C7.9669378,11.6494536 7.46052632,11.0836292 7.46052632,10.3995215 L7.46052632,8.81698565 C7.46052632,8.14490526 7.94975598,7.58694833 8.59090909,7.47924545 L8.59090909,6.78229665 C8.59090909,3.2862488 11.4250048,0.45215311 14.9210526,0.45215311 C18.4171005,0.45215311 21.2511962,3.2862488 21.2511962,6.78229665 L21.2511962,7.47924545 C21.8923493,7.58694833 22.3815789,8.14490526 22.3815789,8.81698565 L22.3815789,10.3995215 C22.3815789,11.0836292 21.8751675,11.6494536 21.2168325,11.7425971 C20.9826172,13.981388 19.5827512,15.8731062 17.6339713,16.7987541 Z" fill="#D0C6AC" fill-rule="nonzero"></path>
                                    <polygon fill="#D08B5B" fill-rule="nonzero" points="29.8421053 0.45215311 0 0.45215311 0 28.0334928 29.8421053 28.0334928"></polygon>
                                    <path d="M21.2511962,9.38217703 L21.2511962,11.9820574 C21.2511962,15.4781053 18.4171005,18.312201 14.9210526,18.312201 C11.4250048,18.312201 8.59090909,15.4781053 8.59090909,11.9820574 L8.59090909,9.38217703 L8.59090909,11.0777512 C8.59090909,14.573799 11.4250048,17.4078947 14.9210526,17.4078947 C18.4171005,17.4078947 21.2511962,14.573799 21.2511962,11.0777512 L21.2511962,9.38217703 Z" fill-opacity="0.1" fill="#000000" fill-rule="evenodd"></path>
                                </g>
                            </g>
                        </g>
                        <g id="Clipped" transform="translate(3.617225, 21.703349)">
                            <mask id="mask-8" fill="white">
                                <use xlink:href="#path-7"></use>
                            </mask>
                            <g id="Path"></g>
                            <g id="Group" mask="url(#mask-8)">
                                <g transform="translate(-3.617225, -2.712919)">
                                    <path d="M18.7598325,3.5375555 C22.9395359,3.88001627 26.2248804,7.38076651 26.2248804,11.6488206 L26.2248804,12.6602871 L3.61722488,12.6602871 L3.61722488,11.6488206 C3.61722488,7.34215263 6.96225359,3.81671483 11.1962153,3.52896459 C11.1925981,3.57119569 11.1907895,3.61369809 11.1907895,3.65647177 C11.1907895,4.99746746 12.8863636,6.0846244 14.9771196,6.0846244 C17.0687799,6.0846244 18.7643541,4.99746746 18.7643541,3.65647177 C18.7643541,3.61659187 18.7625455,3.57698325 18.7598325,3.5375555 Z" id="Path" fill="#E6E6E6" fill-rule="evenodd"></path>
                                    <polygon id="Path" fill="#262E33" fill-rule="nonzero" points="29.8421053 0.226076555 0 0.226076555 0 12.6602871 29.8421053 12.6602871"></polygon>
                                    <g id="Group" opacity="0.6" stroke-width="1" fill="none" fill-rule="evenodd" transform="translate(9.947368, 0.000000)" fill-opacity="0.16">
                                        <path d="M5.0306555,6.8683866 C7.50483732,6.8683866 9.51058852,5.50623014 9.51058852,3.82602919 C9.51058852,2.14582823 7.50483732,0.783762201 5.0306555,0.783762201 C2.55556938,0.783762201 0.549818182,2.14582823 0.549818182,3.82602919 C0.549818182,5.50623014 2.55556938,6.8683866 5.0306555,6.8683866 Z" id="Path" fill="#000000" fill-rule="nonzero"></path>
                                    </g>
                                </g>
                            </g>
                        </g>
                        <path d="M11.3924498,22.5084531 C7.0662488,22.6985383 3.61722488,26.2661167 3.61722488,30.6392512 L3.61722488,30.6392512 L3.61722488,31.6507177 L11.4575598,31.6507177 C11.0732297,30.2852153 10.8516746,28.6788057 10.8516746,26.9596292 C10.8516746,25.3401072 11.0479091,23.8206919 11.3924498,22.5084531 Z M18.4975837,31.6507177 L26.2248804,31.6507177 L26.2248804,30.6392512 C26.2248804,26.3048211 22.836445,22.7617493 18.5645024,22.5142407 C18.9072344,23.8252134 19.1034689,25.3425488 19.1034689,26.9596292 C19.1034689,28.6788057 18.8819139,30.2852153 18.4975837,31.6507177 Z" id="Shape" fill="#3A4C5A"></path>
                        <path d="M11.416866,22.3815789 C10.9647129,24.5670158 11.1528086,27.6566684 11.9820574,31.6507177 L10.173445,31.6507177 L8.59090909,27.5813397 L9.26913876,26.5639952 L8.59090909,25.8857656 L10.7386364,22.4946172 C10.9674258,22.4233579 11.1935024,22.3856483 11.416866,22.3815789 Z" id="Path" fill="#2F4351"></path>
                        <path d="M18.4252392,22.3815789 C18.8773923,24.5670158 18.6892967,27.6566684 17.8600478,31.6507177 L19.6686603,31.6507177 L21.2511962,27.5813397 L20.5729665,26.5639952 L21.2511962,25.8857656 L19.1034689,22.4946172 C18.8746794,22.4233579 18.6486029,22.3856483 18.4252392,22.3815789 Z" id="Path" fill="#2F4351"></path>
                        <path d="M13.3385167,16.8427033 C13.3385167,17.7167153 14.0474928,18.4252392 14.9210526,18.4252392 C15.7955167,18.4252392 16.5035885,17.7167153 16.5035885,16.8427033" id="Path" fill-opacity="0.7" fill="#000000"></path>
                        <path d="M13.5645933,14.6949761 C13.5645933,15.1944244 14.1722871,15.5992823 14.9210526,15.5992823 C15.6698182,15.5992823 16.277512,15.1944244 16.277512,14.6949761" id="Path" fill-opacity="0.16" fill="#000000"></path>
                        <path d="M11.9820574,13.3385167 C12.3564402,13.3385167 12.6602871,13.0348507 12.6602871,12.6602871 C12.6602871,12.2857234 12.3564402,11.9820574 11.9820574,11.9820574 C11.6076746,11.9820574 11.3038278,12.2857234 11.3038278,12.6602871 C11.3038278,13.0348507 11.6076746,13.3385167 11.9820574,13.3385167 Z" id="Path" fill-opacity="0.6" fill="#000000" fill-rule="nonzero"></path>
                        <path d="M17.8600478,13.3385167 C18.2344306,13.3385167 18.5382775,13.0348507 18.5382775,12.6602871 C18.5382775,12.2857234 18.2344306,11.9820574 17.8600478,11.9820574 C17.4856651,11.9820574 17.1818182,12.2857234 17.1818182,12.6602871 C17.1818182,13.0348507 17.4856651,13.3385167 17.8600478,13.3385167 Z" id="Path" fill-opacity="0.6" fill="#000000" fill-rule="nonzero"></path>
                        <path d="M10.3579234,11.2086947 C10.8001292,10.5859895 12.0137081,10.2368368 13.0581818,10.4934789 C13.1793589,10.5232306 13.3023445,10.4490775 13.3321866,10.32781 C13.3620287,10.206633 13.2878756,10.08419 13.1666986,10.0543478 C11.9531196,9.75637895 10.5478278,10.1606943 9.98896651,10.9468077 C9.91662201,11.0485421 9.94103828,11.1897043 10.0423206,11.2620488 C10.1445072,11.3343933 10.2855789,11.3105196 10.3579234,11.2086947 Z" id="Path" fill-opacity="0.6" fill="#000000" fill-rule="nonzero"></path>
                        <path d="M19.4841818,11.2086947 C19.0419761,10.5859895 17.8283971,10.2368368 16.7839234,10.4934789 C16.6627464,10.5232306 16.5397608,10.4490775 16.5099187,10.32781 C16.4800766,10.206633 16.5542297,10.08419 16.6754067,10.0543478 C17.8889856,9.75637895 19.2942775,10.1606943 19.8531388,10.9468077 C19.9254833,11.0485421 19.901067,11.1897043 19.7997847,11.2620488 C19.6975981,11.3343933 19.5565263,11.3105196 19.4841818,11.2086947 Z" id="Path" fill-opacity="0.6" fill="#000000" fill-rule="nonzero"></path>
                        <g id="Clipped">
                            <mask id="mask-10" fill="white">
                                <use xlink:href="#path-9"></use>
                            </mask>
                            <g id="Path"></g>
                            <g id="Group" mask="url(#mask-10)">
                                <g transform="translate(3.617225, 0.904306)">
                                    <g id="Clipped" stroke-width="1" fill="none">
                                        <mask id="mask-12" fill="white">
                                            <use xlink:href="#path-11"></use>
                                        </mask>
                                        <g id="Shape"></g>
                                        <g id="Group" mask="url(#mask-12)">
                                            <path d="M3.16507177,18.5994086 L3.16507177,8.59615407 C3.16507177,8.19681244 3.21028708,7.8080512 3.29529187,7.43466316 C3.64073684,5.16937608 4.94836364,3.3698067 6.44318182,2.26076555 C8.69309569,0.592320574 12.4839474,0.110958373 13.7960957,2.09374019 C14.7736507,1.65949234 16.2232536,2.05530718 17.2948565,3.05203349 C18.3764067,4.11631148 19.2391148,6.46551818 18.7254689,8.38780191 C18.7372249,8.53086316 18.743555,8.67555215 18.743555,8.82159761 L18.743555,11.2916196 C18.6440813,10.7294124 18.1982584,10.286845 17.6339713,10.1921641 L17.6339713,10.173445 C16.9512201,7.73905263 14.9472775,6.6217823 13.7264641,5.51364545 C11.8165694,7.64970718 5.85809569,7.65721292 3.84330144,11.8690191 L3.84330144,12.9994019 C3.84330144,13.6797115 4.34428708,14.2430943 4.99719617,14.3408498 C5.19433493,16.6295584 6.60957416,18.57029 8.59090909,19.5116727 L8.59090909,19.555622 C8.92188517,24.5129383 7.84033493,30.7235325 0.791267943,28.8247608 C2.32949282,27.9247048 3.14336842,22.1617421 3.16507177,18.5994086 Z M14.0167464,19.5116727 C15.9980813,18.57029 17.4133206,16.6295584 17.6104593,14.3408498 C18.1855981,14.2547598 18.6422727,13.8076708 18.743555,13.2376866 L18.743555,13.39169 C18.743555,15.1808598 19.1685789,16.9445282 19.9824545,18.5375541 L23.0290622,24.4954852 C23.8158086,26.0349761 23.5852105,27.8270397 22.5841435,29.1038297 C22.2649234,24.9010665 18.7535024,21.590311 14.4688995,21.590311 L14.0167464,21.590311 L14.0167464,19.5116727 Z" id="Shape" fill="#272C2E"></path>
                                            <polygon id="Path" fill="#2C1B18" fill-rule="nonzero" points="30.6333732 0.792805263 0.791267943 0.792805263 0.791267943 32.443523 30.6333732 32.443523"></polygon>
                                        </g>
                                    </g>
                                    <path d="M3.84330144,11.8690191 C5.85809569,8.21390383 11.8165694,8.20739282 13.7264641,6.3536555 C14.9445646,7.31339569 16.9430813,8.0558311 17.6294498,10.1586144 C16.9430813,7.7345311 14.9445646,6.61952153 13.7264641,5.51364545 C11.8165694,7.64970718 5.85809569,7.65721292 3.84330144,11.8690191 Z" id="Path" fill-opacity="0.16" fill="#000000"></path>
                                </g>
                            </g>
                        </g>
                    </g>
                </g>
            </g>
            <rect id="Rectangle" fill="#A8B6C6" fill-rule="nonzero" transform="translate(72.525623, 44.763158) scale(-1, 1) rotate(-180.000000) translate(-72.525623, -44.763158) " x="53.6779778" y="42" width="37.6952909" height="5.52631579" rx="1"></rect>
            <rect id="Rectangle" fill="#A8B6C6" fill-rule="nonzero" transform="translate(67.224723, 53.605263) scale(-1, 1) rotate(-180.000000) translate(-67.224723, -53.605263) " x="53.6779778" y="50.8421053" width="27.0934903" height="5.52631579" rx="1"></rect>
            <rect id="Rectangle" fill="#A8B6C6" fill-rule="nonzero" transform="translate(70.169668, 62.447368) scale(-1, 1) rotate(-180.000000) translate(-70.169668, -62.447368) " x="53.6779778" y="59.6842105" width="32.9833795" height="5.52631579" rx="1"></rect>
            <rect id="Rectangle" fill="#E21C3D" fill-rule="nonzero" transform="translate(30.394737, 71.289474) scale(-1, 1) rotate(-180.000000) translate(-30.394737, -71.289474) " x="16.5789474" y="68.5263158" width="27.6315789" height="5.52631579" rx="1"></rect>
            <rect id="Rectangle" fill="#A8B6C6" fill-rule="nonzero" transform="translate(67.224723, 71.289474) scale(-1, 1) rotate(-180.000000) translate(-67.224723, -71.289474) " x="53.6779778" y="68.5263158" width="27.0934903" height="5.52631579" rx="1"></rect>
            <path d="M-1.27897692e-13,52.5 C-1.27897692e-13,81.4710462 23.3283209,104.956719 52.1052632,104.956719 L52.1052632,104.956719 C80.8822054,104.956719 104.210526,81.4710462 104.210526,52.5" id="Path" stroke="#A8B6C6" stroke-width="2"></path>
            <g id="Group-4" transform="translate(38.000000, 88.000000)" fill-rule="nonzero">
                <circle id="Oval" stroke="#A8B6C6" stroke-width="2" fill="#FFFFFF" cx="14.5" cy="14.5" r="14.5"></circle>
                <g id="icon-/-badges-/-checkmark" transform="translate(1.000000, 1.000000)" fill="#63BB60">
                    <path d="M27,13.4993442 C27,20.9556252 20.9557891,26.9986884 13.5,26.9986884 C6.04421087,26.9986884 0,20.9556252 0,13.4993442 C0,6.04306325 6.04421087,5.32907052e-15 13.5,5.32907052e-15 C20.9557891,5.32907052e-15 27,6.04306325 27,13.4993442 Z M11.9384108,20.647406 L21.9545504,10.6319222 C22.2947391,10.2909137 22.2947391,9.74005392 21.9545504,9.39904547 L20.7228213,8.16780822 C20.3827966,7.82843923 19.831281,7.82843923 19.4910922,8.16780822 L11.3226282,16.3356164 L7.50890775,12.5222238 C7.16871903,12.1828549 6.61736739,12.1828549 6.27717867,12.5222238 L5.04544958,13.7551006 C4.70526086,14.0944695 4.70526086,14.6453294 5.04544958,14.9863378 L10.7066817,20.647406 C11.0468704,20.986775 11.5982221,20.986775 11.9384108,20.647406 Z" id="Shape"></path>
                </g>
            </g>
        </g>
    </g>
</svg>