<svg width="360" height="117" viewBox="0 0 360 117" fill="none" xmlns="http://www.w3.org/2000/svg"><g clip-path="url(#a)"><mask id="b" maskUnits="userSpaceOnUse" x="4" y="15" width="91" height="91"><path d="M49.5 105c24.853 0 45-20.147 45-45s-20.147-45-45-45-45 20.147-45 45 20.147 45 45 45z" fill="#fff"/></mask><g mask="url(#b)"><path d="M49.5 105c24.853 0 45-20.147 45-45s-20.147-45-45-45-45 20.147-45 45 20.147 45 45 45z" fill="#E6E6E6"/><path d="M94.5 15h-90v90h90V15z" fill="#F2F9FF"/></g><mask id="c" maskUnits="userSpaceOnUse" x="0" y="0" width="99" height="105"><path d="M4.5 60c0 24.853 20.147 45 45 45s45-20.147 45-45H99V0H0v60h4.5z" fill="#fff"/></mask><g mask="url(#c)"><mask id="d" maskUnits="userSpaceOnUse" x="12" y="13" width="75" height="92"><path d="M58.5 67.73v6.895H60c14.912 0 27 12.088 27 27V105H12v-3.375c0-14.912 12.088-27 27-27h1.5v-6.896c-6.464-3.07-11.11-9.346-11.886-16.773A4.501 4.501 0 0 1 24.75 46.5v-5.25c0-2.23 1.622-4.08 3.75-4.438V34.5c0-11.598 9.402-21 21-21s21 9.402 21 21v2.312a4.501 4.501 0 0 1 3.75 4.438v5.25c0 2.27-1.68 4.147-3.864 4.456-.776 7.427-5.422 13.702-11.886 16.773z" fill="#fff"/></mask><g mask="url(#d)"><path d="M58.5 67.73v6.895H60c14.912 0 27 12.088 27 27V105H12v-3.375c0-14.912 12.088-27 27-27h1.5v-6.896c-6.464-3.07-11.11-9.346-11.886-16.773A4.501 4.501 0 0 1 24.75 46.5v-5.25c0-2.23 1.622-4.08 3.75-4.438V34.5c0-11.598 9.402-21 21-21s21 9.402 21 21v2.312a4.501 4.501 0 0 1 3.75 4.438v5.25c0 2.27-1.68 4.147-3.864 4.456-.776 7.427-5.422 13.702-11.886 16.773z" fill="#D0C6AC"/><path d="M99 13.5H0V105h99V13.5z" fill="#D08B5B"/><path fill-rule="evenodd" clip-rule="evenodd" d="M70.5 43.125v8.625c0 11.598-9.402 21-21 21s-21-9.402-21-21v-8.625 5.625c0 11.598 9.402 21 21 21s21-9.402 21-21v-5.625z" fill="#000" fill-opacity=".1"/></g><mask id="e" maskUnits="userSpaceOnUse" x="12" y="74" width="75" height="32"><path fill-rule="evenodd" clip-rule="evenodd" d="M62.235 74.736C76.101 75.872 87 87.486 87 101.644V105H12v-3.356c0-14.287 11.097-25.982 25.142-26.937-.011.14-.017.282-.017.423 0 4.449 5.624 8.055 12.563 8.055 6.938 0 12.562-3.606 12.562-8.055 0-.132-.005-.264-.015-.394z" fill="#fff"/></mask><g mask="url(#e)"><path fill-rule="evenodd" clip-rule="evenodd" d="M62.235 74.736C76.101 75.872 87 87.486 87 101.644V105H12v-3.356c0-14.287 11.097-25.982 25.142-26.937-.011.14-.017.282-.017.423 0 4.449 5.624 8.055 12.563 8.055 6.938 0 12.562-3.606 12.562-8.055 0-.132-.005-.264-.015-.394z" fill="#E6E6E6"/><path d="M99 63.75H0V105h99V63.75z" fill="#262E33"/><path opacity=".6" d="M49.687 85.786c8.21 0 14.864-4.52 14.864-10.093 0-5.574-6.655-10.093-14.864-10.093-8.208 0-14.863 4.519-14.863 10.093s6.655 10.093 14.863 10.093z" fill="#000" fill-opacity=".16"/></g><path fill-rule="evenodd" clip-rule="evenodd" d="M37.794 74.67C23.442 75.303 12 87.138 12 101.645V105h26.01C36.736 100.47 36 95.14 36 89.437c0-5.372.653-10.413 1.794-14.766zM61.364 105H87v-3.356c0-14.379-11.24-26.133-25.414-26.954 1.138 4.35 1.789 9.383 1.789 14.748 0 5.703-.735 11.032-2.01 15.562z" fill="#3A4C5A"/><path fill-rule="evenodd" clip-rule="evenodd" d="m67.875 96 3.583-2.688a1.5 1.5 0 0 1 1.821.016l2.471 1.922-7.875.75z" fill="#E6E6E6"/><path fill-rule="evenodd" clip-rule="evenodd" d="M37.875 74.25C36.375 81.5 37 91.75 39.75 105h-6L28.5 91.5l2.25-3.375-2.25-2.25 7.125-11.25a8.047 8.047 0 0 1 2.25-.375zm23.25 0c1.5 7.25.875 17.5-1.875 30.75h6l5.25-13.5-2.25-3.375 2.25-2.25-7.125-11.25a8.047 8.047 0 0 0-2.25-.375z" fill="#2F4351"/><mask id="f" fill="#fff"><path fill-rule="evenodd" clip-rule="evenodd" d="M50 103c23.748 0 43-19.252 43-43S73.748 17 50 17 7 36.252 7 60s19.252 43 43 43zm0 2c24.853 0 45-20.147 45-45S74.853 15 50 15 5 35.147 5 60s20.147 45 45 45z"/></mask><path d="M91 60c0 22.644-18.356 41-41 41v4c24.853 0 45-20.147 45-45h-4zM50 19c22.644 0 41 18.356 41 41h4c0-24.853-20.147-45-45-45v4zM9 60c0-22.644 18.356-41 41-41v-4C25.147 15 5 35.147 5 60h4zm41 41C27.356 101 9 82.644 9 60H5c0 24.853 20.147 45 45 45v-4zm43-41c0 23.748-19.252 43-43 43v4c25.957 0 47-21.043 47-47h-4zM50 17c23.748 0 43 19.252 43 43h4c0-25.957-21.043-47-47-47v4zM7 60c0-23.748 19.252-43 43-43v-4C24.043 13 3 34.043 3 60h4zm43 43C26.252 103 7 83.748 7 60H3c0 25.957 21.043 47 47 47v-4z" fill="#0071BB" mask="url(#f)"/><path fill-rule="evenodd" clip-rule="evenodd" d="M44.25 55.875a5.25 5.25 0 1 0 10.5 0" fill="#000" fill-opacity=".7"/><path fill-rule="evenodd" clip-rule="evenodd" d="M45 48.75c0 1.657 2.015 3 4.5 3s4.5-1.343 4.5-3" fill="#000" fill-opacity=".16"/><path d="M39.75 44.25a2.25 2.25 0 1 0 0-4.5 2.25 2.25 0 0 0 0 4.5zm19.5 0a2.25 2.25 0 1 0 0-4.5 2.25 2.25 0 0 0 0 4.5zm-24.889-7.066c1.469-2.065 5.493-3.224 8.96-2.372a.75.75 0 1 0 .358-1.457c-4.026-.989-8.687.353-10.54 2.96a.75.75 0 0 0 1.222.87zm30.278 0c-1.468-2.065-5.493-3.224-8.96-2.372a.75.75 0 1 1-.358-1.457c4.026-.989 8.687.353 10.54 2.96a.75.75 0 1 1-1.222.87z" fill="#000" fill-opacity=".6"/><mask id="g" maskUnits="userSpaceOnUse" x="0" y="0" width="99" height="105"><path d="M99 0H0v105h99V0z" fill="#fff"/></mask><g mask="url(#g)"><mask id="h" maskUnits="userSpaceOnUse" x="14" y="5" width="76" height="95"><path fill-rule="evenodd" clip-rule="evenodd" d="M22.5 64.703V31.517c0-1.324.15-2.614.432-3.853C24.077 20.15 28.416 14.18 33.375 10.5c7.464-5.535 20.04-7.132 24.393-.554 3.244-1.44 8.052-.128 11.607 3.179 3.587 3.53 6.45 11.324 4.746 17.701.04.475.06.955.06 1.44v8.194a4.504 4.504 0 0 0-3.681-3.648v-.062c-2.264-8.076-8.914-11.782-12.964-15.459-6.335 7.087-26.103 7.111-32.786 21.084v3.75a4.501 4.501 0 0 0 3.828 4.45c.654 7.593 5.348 14.031 11.922 17.154v.146c1.099 16.446-2.49 37.049-25.875 30.75 5.102-2.986 7.803-22.104 7.875-33.922zm36 3.026c6.574-3.123 11.268-9.56 11.922-17.154a4.504 4.504 0 0 0 3.759-3.66v.511a37.5 37.5 0 0 0 4.11 17.072l10.106 19.765c2.612 5.107 1.845 11.052-1.476 15.288C85.862 85.608 74.214 74.625 60 74.625h-1.5v-6.896z" fill="#fff"/></mask><g mask="url(#h)"><path fill-rule="evenodd" clip-rule="evenodd" d="M22.5 64.703V31.517c0-1.324.15-2.614.432-3.853C24.077 20.15 28.416 14.18 33.375 10.5c7.464-5.535 20.04-7.132 24.393-.554 3.244-1.44 8.052-.128 11.607 3.179 3.587 3.53 6.45 11.324 4.746 17.701.04.475.06.955.06 1.44v8.194a4.504 4.504 0 0 0-3.681-3.648v-.062c-2.264-8.076-8.914-11.782-12.964-15.459-6.335 7.087-26.103 7.111-32.786 21.084v3.75a4.501 4.501 0 0 0 3.828 4.45c.654 7.593 5.348 14.031 11.922 17.154v.146c1.099 16.446-2.49 37.049-25.875 30.75 5.102-2.986 7.803-22.104 7.875-33.922zm36 3.026c6.574-3.123 11.268-9.56 11.922-17.154a4.504 4.504 0 0 0 3.759-3.66v.511a37.5 37.5 0 0 0 4.11 17.072l10.106 19.765c2.612 5.107 1.845 11.052-1.476 15.288C85.862 85.608 74.214 74.625 60 74.625h-1.5v-6.896z" fill="#272C2E"/><path d="M113.625 5.625h-99v105h99v-105z" fill="#2C1B18"/></g><path fill-rule="evenodd" clip-rule="evenodd" d="M24.75 42.375c6.683-12.126 26.45-12.147 32.786-18.297 4.042 3.184 10.673 5.647 12.95 12.623-2.277-8.042-8.908-11.74-12.95-15.41-6.335 7.087-26.103 7.111-32.786 21.084z" fill="#000" fill-opacity=".16"/></g></g><path fill-rule="evenodd" clip-rule="evenodd" d="M4.045 58c-.03.677-.045 1.358-.045 2.043C4 85.424 24.595 106 50 106s46-20.576 46-45.957c0-.685-.015-1.366-.045-2.043h-2.002c.031.677.047 1.358.047 2.043C94 84.318 74.302 104 50 104S6 84.318 6 60.043c0-.685.016-1.366.047-2.043H4.045z" fill="#fff"/><mask id="i" fill="#fff"><path fill-rule="evenodd" clip-rule="evenodd" d="M5.044 58c-.03.663-.044 1.33-.044 2 0 24.853 20.147 45 45 45s45-20.147 45-45c0-.67-.015-1.337-.044-2h-2.002c.03.663.046 1.33.046 2 0 23.748-19.252 43-43 43S7 83.748 7 60c0-.67.015-1.337.046-2H5.044z"/></mask><path d="M5.044 58v-2H3.129l-.083 1.913L5.044 58zm89.912 0 1.998-.087L96.871 56h-1.915v2zm-2.002 0v-2h-2.093l.095 2.092L92.954 58zM7.046 58l1.998.092L9.139 56H7.046v2zm-4-.087C3.016 58.605 3 59.3 3 60h4c0-.641.014-1.279.042-1.913l-3.996-.174zM3 60c0 25.957 21.043 47 47 47v-4C26.252 103 7 83.748 7 60H3zm47 47c25.957 0 47-21.043 47-47h-4c0 23.748-19.252 43-43 43v4zm47-47c0-.7-.015-1.395-.046-2.087l-3.996.174c.028.634.042 1.272.042 1.913h4zm-2.044-4h-2.002v4h2.002v-4zM95 60c0-.7-.016-1.398-.048-2.092l-3.996.184c.03.632.044 1.268.044 1.908h4zm-45 45c24.853 0 45-20.147 45-45h-4c0 22.644-18.356 41-41 41v4zM5 60c0 24.853 20.147 45 45 45v-4C27.356 101 9 82.644 9 60H5zm.048-2.092A45.435 45.435 0 0 0 5 60h4c0-.64.015-1.276.044-1.908l-3.996-.184zM7.046 56H5.044v4h2.002v-4z" fill="#0071BB" mask="url(#i)"/></g><circle cx="176.5" cy="60.5" r="25.5" fill="#F2F9FF" stroke="#0071BB" stroke-width="2"/><circle cx="202.5" cy="60.5" r="3.5" fill="#fff" stroke="#0071BB" stroke-width="2"/><circle cx="150.5" cy="60.5" r="3.5" fill="#fff" stroke="#0071BB" stroke-width="2"/><circle cx="94.5" cy="60.5" r="3.5" fill="#fff" stroke="#0071BB" stroke-width="2"/><path d="M187.942 40.36h-20.901v26.807h20.901V40.36z" fill="#fff"/><path d="m171.829 62.818 1.762-10.062a5.34 5.34 0 0 1-1.776-5.956 5.335 5.335 0 0 1 5.069-3.595V32.037h-13.61A5.273 5.273 0 0 0 158 37.311V63.17c-.004.488.104.97.316 1.41 1.142 2.308 5.651 9.72 18.556 15.42V63.23a29.534 29.534 0 0 1-5.043-.412z" fill="#E21D3E"/><path d="M190.457 32h-13.585v11.167a5.335 5.335 0 0 1 3.342 9.515l1.762 10.11c-1.686.294-3.393.44-5.104.438v16.745c12.893-5.675 17.413-13.112 18.556-15.42.211-.44.32-.922.315-1.41V37.298a5.265 5.265 0 0 0-1.54-3.749A5.267 5.267 0 0 0 190.457 32z" fill="#B51E23"/><circle cx="303" cy="60" r="44" fill="#F2F9FF" stroke="#0071BB" stroke-width="2"/><path fill-rule="evenodd" clip-rule="evenodd" d="M291.286 29.917h5.857v5.916h-5.857v-5.916zm-11.715 0h5.858v5.916h-5.858v-5.916zm-11.714 0h5.857v5.916h-5.857v-5.916zm70.286 59.166h-70.286V41.75h70.286v47.333zm0-53.25H303v-5.916h35.143v5.916zM344 29.917c0-3.255-2.636-5.917-5.857-5.917h-70.286c-3.221 0-5.857 2.663-5.857 5.917v59.166c0 3.255 2.636 5.917 5.857 5.917h70.286c3.221 0 5.857-2.662 5.857-5.917V29.917z" fill="#0071BB" clip-path="url(#j)"/><g clip-path="url(#k)"><mask id="l" maskUnits="userSpaceOnUse" x="274" y="52" width="31" height="31"><path d="M289.5 82c8.284 0 15-6.716 15-15 0-8.284-6.716-15-15-15-8.284 0-15 6.716-15 15 0 8.284 6.716 15 15 15z" fill="#fff"/></mask><g mask="url(#l)"><path d="M289.5 82c8.284 0 15-6.716 15-15 0-8.284-6.716-15-15-15-8.284 0-15 6.716-15 15 0 8.284 6.716 15 15 15z" fill="#E6E6E6"/><path d="M304.5 52h-30v30h30V52z" fill="#CEDCED"/></g><mask id="m" maskUnits="userSpaceOnUse" x="273" y="47" width="33" height="35"><path d="M274.5 67c0 8.284 6.716 15 15 15 8.284 0 15-6.716 15-15h1.5V47h-33v20h1.5z" fill="#fff"/></mask><g mask="url(#m)"><mask id="n" maskUnits="userSpaceOnUse" x="277" y="51" width="25" height="31"><path d="M292.5 69.576v2.299h.5a9 9 0 0 1 9 9V82h-25v-1.125a9 9 0 0 1 9-9h.5v-2.299a7.006 7.006 0 0 1-3.962-5.59 1.5 1.5 0 0 1-1.288-1.486v-1.75c0-.743.541-1.36 1.25-1.48v-.77a7 7 0 1 1 14 0v.77c.709.12 1.25.737 1.25 1.48v1.75a1.5 1.5 0 0 1-1.288 1.485 7.006 7.006 0 0 1-3.962 5.591z" fill="#fff"/></mask><g mask="url(#n)"><path d="M292.5 69.576v2.299h.5a9 9 0 0 1 9 9V82h-25v-1.125a9 9 0 0 1 9-9h.5v-2.299a7.006 7.006 0 0 1-3.962-5.59 1.5 1.5 0 0 1-1.288-1.486v-1.75c0-.743.541-1.36 1.25-1.48v-.77a7 7 0 1 1 14 0v.77c.709.12 1.25.737 1.25 1.48v1.75a1.5 1.5 0 0 1-1.288 1.485 7.006 7.006 0 0 1-3.962 5.591z" fill="#D0C6AC"/><path d="M306 51.5h-33V82h33V51.5z" fill="#D08B5B"/><path fill-rule="evenodd" clip-rule="evenodd" d="M296.5 61.375v2.875a7 7 0 1 1-14 0v-2.875 1.875a7 7 0 1 0 14 0v-1.875z" fill="#000" fill-opacity=".1"/></g><mask id="o" maskUnits="userSpaceOnUse" x="277" y="71" width="25" height="11"><path fill-rule="evenodd" clip-rule="evenodd" d="M293.745 71.912a9 9 0 0 1 8.255 8.97V82h-25v-1.118a9 9 0 0 1 8.381-8.98 1.651 1.651 0 0 0-.006.141c0 1.483 1.875 2.685 4.187 2.685 2.313 0 4.188-1.202 4.188-2.685 0-.044-.002-.088-.005-.131z" fill="#fff"/></mask><g mask="url(#o)"><path fill-rule="evenodd" clip-rule="evenodd" d="M293.745 71.912a9 9 0 0 1 8.255 8.97V82h-25v-1.118a9 9 0 0 1 8.381-8.98 1.651 1.651 0 0 0-.006.141c0 1.483 1.875 2.685 4.187 2.685 2.313 0 4.188-1.202 4.188-2.685 0-.044-.002-.088-.005-.131z" fill="#E6E6E6"/><path d="M306 68.25h-33V82h33V68.25z" fill="#262E33"/><path opacity=".6" d="M289.563 75.595c2.736 0 4.954-1.506 4.954-3.364 0-1.858-2.218-3.364-4.954-3.364-2.737 0-4.955 1.506-4.955 3.364 0 1.858 2.218 3.364 4.955 3.364z" fill="#000" fill-opacity=".16"/></g><path fill-rule="evenodd" clip-rule="evenodd" d="M285.598 71.89A9 9 0 0 0 277 80.882V82h8.67c-.425-1.51-.67-3.286-.67-5.188 0-1.79.217-3.47.598-4.922zM293.455 82H302v-1.118a9 9 0 0 0-8.471-8.985c.379 1.45.596 3.127.596 4.915 0 1.902-.245 3.678-.67 5.188z" fill="#3A4C5A"/><path fill-rule="evenodd" clip-rule="evenodd" d="m295.625 79 1.194-.896a.5.5 0 0 1 .607.005l.824.641-2.625.25z" fill="#E6E6E6"/><path fill-rule="evenodd" clip-rule="evenodd" d="M285.625 71.75c-.5 2.417-.292 5.833.625 10.25h-2l-1.75-4.5.75-1.125-.75-.75 2.375-3.75c.253-.079.503-.12.75-.125zm7.75 0c.5 2.417.292 5.833-.625 10.25h2l1.75-4.5-.75-1.125.75-.75-2.375-3.75a2.678 2.678 0 0 0-.75-.125z" fill="#2F4351"/><path fill-rule="evenodd" clip-rule="evenodd" d="M287.75 65.625a1.75 1.75 0 0 0 3.5 0" fill="#000" fill-opacity=".7"/><path fill-rule="evenodd" clip-rule="evenodd" d="M288 63.25c0 .552.672 1 1.5 1s1.5-.448 1.5-1" fill="#000" fill-opacity=".16"/><path d="M286.25 61.75a.75.75 0 1 0 0-1.5.75.75 0 0 0 0 1.5zm6.5 0a.75.75 0 1 0 0-1.5.75.75 0 0 0 0 1.5zm-8.296-2.355c.489-.689 1.831-1.075 2.986-.791a.25.25 0 0 0 .12-.486c-1.342-.33-2.896.118-3.514.987a.25.25 0 0 0 .408.29zm10.092 0c-.489-.689-1.831-1.075-2.986-.791a.25.25 0 0 1-.12-.486c1.342-.33 2.896.118 3.514.987a.25.25 0 0 1-.408.29z" fill="#000" fill-opacity=".6"/><mask id="p" maskUnits="userSpaceOnUse" x="273" y="47" width="33" height="35"><path d="M306 47h-33v35h33V47z" fill="#fff"/></mask><g mask="url(#p)"><mask id="q" maskUnits="userSpaceOnUse" x="277" y="48" width="26" height="33"><path fill-rule="evenodd" clip-rule="evenodd" d="M280.5 68.568V57.506c0-.442.05-.872.144-1.285.382-2.505 1.828-4.495 3.481-5.721 2.488-1.845 6.68-2.377 8.131-.185 1.081-.48 2.684-.042 3.869 1.06 1.196 1.177 2.15 3.775 1.582 5.9.013.159.02.319.02.48v2.731a1.5 1.5 0 0 0-1.227-1.215v-.021c-.755-2.692-2.971-3.928-4.321-5.153-2.112 2.362-8.701 2.37-10.929 7.028v1.25a1.5 1.5 0 0 0 1.276 1.483 7.005 7.005 0 0 0 3.974 5.718v.049c.366 5.482-.83 12.35-8.625 10.25 1.701-.995 2.601-7.368 2.625-11.307zm12 1.008a7.005 7.005 0 0 0 3.974-5.718 1.502 1.502 0 0 0 1.253-1.22v.17c0 1.98.47 3.93 1.37 5.691l3.369 6.589a4.751 4.751 0 0 1-.492 5.096A9 9 0 0 0 293 71.875h-.5v-2.299z" fill="#fff"/></mask><g mask="url(#q)"><path fill-rule="evenodd" clip-rule="evenodd" d="M280.5 68.568V57.506c0-.442.05-.872.144-1.285.382-2.505 1.828-4.495 3.481-5.721 2.488-1.845 6.68-2.377 8.131-.185 1.081-.48 2.684-.042 3.869 1.06 1.196 1.177 2.15 3.775 1.582 5.9.013.159.02.319.02.48v2.731a1.5 1.5 0 0 0-1.227-1.215v-.021c-.755-2.692-2.971-3.928-4.321-5.153-2.112 2.362-8.701 2.37-10.929 7.028v1.25a1.5 1.5 0 0 0 1.276 1.483 7.005 7.005 0 0 0 3.974 5.718v.049c.366 5.482-.83 12.35-8.625 10.25 1.701-.995 2.601-7.368 2.625-11.307zm12 1.008a7.005 7.005 0 0 0 3.974-5.718 1.502 1.502 0 0 0 1.253-1.22v.17c0 1.98.47 3.93 1.37 5.691l3.369 6.589a4.751 4.751 0 0 1-.492 5.096A9 9 0 0 0 293 71.875h-.5v-2.299z" fill="#272C2E"/><path d="M310.875 48.877h-33v35h33v-35z" fill="#2C1B18"/></g><path fill-rule="evenodd" clip-rule="evenodd" d="M281.25 61.125c2.228-4.042 8.817-4.05 10.929-6.099 1.347 1.061 3.557 1.882 4.316 4.208-.759-2.681-2.969-3.914-4.316-5.137-2.112 2.362-8.701 2.37-10.929 7.028z" fill="#000" fill-opacity=".16"/></g></g></g><path fill="#fff" d="M279 35.9h6v-6h-6z"/><path fill="#0071BB" d="M267 29h72v8h-72z"/><rect width="35.2" height="6.034" rx="1" transform="matrix(1 0 0 -1 303 35.9)" fill="#fff"/><rect width="20" height="3.333" rx="1" transform="matrix(1 0 0 -1 311 58.333)" fill="#E21C3D"/><rect width="16" height="3" rx="1" transform="matrix(1 0 0 -1 311 63.333)" fill="#DDDFE4"/><rect width="19" height="3" rx="1" transform="matrix(1 0 0 -1 311 68.333)" fill="#DDDFE4"/><rect width="16" height="3" rx="1" transform="matrix(1 0 0 -1 311 73)" fill="#DDDFE4"/><rect width="6" height="6" rx="1" transform="matrix(1 0 0 -1 267.8 35.9)" fill="#fff"/><rect width="6" height="6" rx="1" transform="matrix(1 0 0 -1 279 36)" fill="#fff"/><rect width="6" height="6" rx="1" transform="matrix(1 0 0 -1 290 35.9)" fill="#fff"/><circle cx="258.5" cy="60.5" r="3.5" fill="#fff" stroke="#0071BB" stroke-width="2"/><path stroke="#0071BB" stroke-width="2" d="M206 60.5h49m-157 0h49"/><defs><clipPath id="a"><path fill="#fff" d="M0 0h99v105H0z"/></clipPath><clipPath id="k"><path fill="#fff" transform="translate(273 47)" d="M0 0h33v35H0z"/></clipPath><clipPath id="j"><circle cx="303" cy="60" r="44" stroke-width="2"/><path fill="#00f" d="M259 15h88v49h-88z"/></clipPath></defs></svg>