<svg xmlns="http://www.w3.org/2000/svg" xmlns:xlink="http://www.w3.org/1999/xlink" viewBox="0 0 483 144"><defs><linearGradient id="linear-gradient" x1="128.6" y1="155.4" x2="9.36" y2="274.64" gradientTransform="matrix(1, 0, 0, -1, 0, 284)" gradientUnits="userSpaceOnUse"><stop offset="0" stop-color="#8adaeb"/><stop offset="0.71" stop-color="#edf9ff"/></linearGradient><linearGradient id="linear-gradient-2" x1="276.29" y1="163.52" x2="208.12" y2="258.51" xlink:href="#linear-gradient"/><linearGradient id="linear-gradient-3" x1="467.74" y1="155.26" x2="345.57" y2="277.43" xlink:href="#linear-gradient"/><linearGradient id="linear-gradient-4" x1="69.49" y1="201.97" x2="72.14" y2="171.28" xlink:href="#linear-gradient"/><linearGradient id="linear-gradient-5" x1="394.04" y1="225.22" x2="395.46" y2="210.81" gradientTransform="matrix(1, 0, 0, -1, 0, 284)" gradientUnits="userSpaceOnUse"><stop offset="0" stop-color="#00bfe7"/><stop offset="0.71" stop-color="#edf9ff"/></linearGradient></defs><title>user-access</title><g id="Layer_2" data-name="Layer 2"><g id="Layer_1-2" data-name="Layer 1"><circle cx="72" cy="72" r="72" fill="#0071bb"/><path d="M72,140a68,68,0,1,1,68-68A67.94,67.94,0,0,1,72,140Z" fill="url(#linear-gradient)"/><path d="M72,140a68,68,0,1,1,68-68A67.94,67.94,0,0,1,72,140Z" fill="none"/><path d="M25.8,119.4a5.6,5.6,0,0,0-1.5,1,67.82,67.82,0,0,0,84.1,9l-.1-2.2a9.12,9.12,0,0,0-4.9-7.8C95,115,78.2,106.3,76.7,105.7a31.66,31.66,0,0,1-1.2-4.4,33,33,0,0,0,5.7-4.8c8.8-.1,17.1.1,22,.3a4,4,0,0,0,4.1-3.9v-.5c-1-10-3.9-34.1-9.7-46.8C85.4,18.9,64.8,25,64.8,25S24.3,19.1,22.1,60.7a265.74,265.74,0,0,0,1,38.9,4,4,0,0,0,4.4,3.6.6.6,0,0,0,.4-.1c5-1,13.5-2.7,21.9-4a22,22,0,0,0,3.2,2.1,14.46,14.46,0,0,1-.9,4.6C50.6,106.6,34.2,115.1,25.8,119.4Z" fill="#747980" opacity="0.42" style="isolation:isolate"/><line x1="144" y1="72" x2="339" y2="72" fill="none" stroke="#00bfe7" stroke-miterlimit="10" stroke-width="4"/><circle cx="241.5" cy="72" r="45" fill="#0071bb"/><path d="M241.5,113a41,41,0,1,1,41-41,41.06,41.06,0,0,1-41,41Z" fill="url(#linear-gradient-2)"/><circle cx="198.5" cy="72" r="9" fill="#0071bb"/><circle cx="198.5" cy="72" r="5" fill="#fff"/><circle cx="284.5" cy="72" r="9" fill="#0071bb"/><circle cx="284.5" cy="72" r="5" fill="#fff"/><rect x="230.8" y="58.2" width="21.6" height="27.7" fill="#fff"/><path d="M235.8,81.4,237.6,71a5.54,5.54,0,0,1-1-7.7,5.36,5.36,0,0,1,4.4-2.1V49.6H226.9a5.53,5.53,0,0,0-5.5,5.4V81.8a4,4,0,0,0,.3,1.5c1.2,2.4,5.8,10.1,19.2,16V81.9A29.37,29.37,0,0,1,235.8,81.4Z" fill="#e21d3e"/><path d="M255,49.6H241V61.1h0a5.55,5.55,0,0,1,3.5,9.9l1.8,10.5a23.25,23.25,0,0,1-5.3.4V99.2c13.3-5.9,18-13.6,19.2-15.9a4,4,0,0,0,.3-1.5V55a5.46,5.46,0,0,0-5.5-5.4Z" fill="#b51e23"/><circle cx="411" cy="72" r="72" fill="#0071bb"/><path d="M411,140a68,68,0,1,1,68-68A67.94,67.94,0,0,1,411,140Z" fill="url(#linear-gradient-3)"/><circle cx="144" cy="72" r="9" fill="#0071bb"/><circle cx="144" cy="72" r="5" fill="#fff"/><circle cx="339" cy="72" r="9" fill="#0071bb"/><circle cx="339" cy="72" r="5" fill="#fff"/><path d="M74,93c13.1-.7,28.9-.4,36.5-.2a4,4,0,0,0,4.1-3.9v-.5c-1-10-3.9-34.1-9.7-46.8C92.7,14.9,72.1,21,72.1,21S31.6,15.1,29.4,56.7a265.74,265.74,0,0,0,1,38.9,4,4,0,0,0,4.4,3.6.6.6,0,0,0,.4-.1C43.9,97.4,63.3,93.6,74,93Z" fill="#112e51"/><path d="M59.5,93s3.8,5-3.8,16.3a24.84,24.84,0,0,0-2.5,22.6L72,139.4l15.1-6.3s15.7-7.3,1.3-23.9C82,102,82.1,91,82.1,91Z" fill="url(#linear-gradient-4)"/><path d="M79,39C66,49,41.1,56.1,41.1,56.1c.4,3.3,2.9,11.2,2.2,14.6a5,5,0,0,0-1.5,6.9,4.91,4.91,0,0,0,4.7,2.3h.1c2.6,12.9,18.6,22.1,27.8,21,9.5-1.2,22.6-13.9,22-27h.1a5.05,5.05,0,0,0,4.2-5.7,5,5,0,0,0-3.4-4c-1.3-2.6-.6-12.4-.9-15.6Z" fill="#fff"/><circle cx="60.6" cy="67.5" r="2.9" transform="translate(-7.7 7.81) rotate(-6.93)" fill="#2686c5"/><circle cx="79.8" cy="65.1" r="2.9" transform="translate(-7.27 10.11) rotate(-6.93)" fill="#2686c5"/><path d="M73.8,82.8c7.9-2.2,9.6-3.9,9.6-3.9C75.9,95.1,62,84.4,62,84.4a36.76,36.76,0,0,0,11.8-1.6" fill="#2686c5"/><path d="M444.6,30H369a4.27,4.27,0,0,0-4.3,4.3h0v81a4.27,4.27,0,0,0,4.3,4.3h75.6a4.21,4.21,0,0,0,4.4-4.2V34.3a4.35,4.35,0,0,0-4.4-4.3Z" fill="#5b616a" opacity="0.42" style="isolation:isolate"/><path d="M373,25.7h76.2a4,4,0,0,1,4,4v81.6a4,4,0,0,1-4,4H373a4,4,0,0,1-4-4V29.7A4,4,0,0,1,373,25.7Z" fill="#e21c3d"/><path d="M373,27.8h76.2a1.79,1.79,0,0,1,1.8,1.8v81.6a1.79,1.79,0,0,1-1.8,1.8H373a1.79,1.79,0,0,1-1.8-1.8V29.7A1.88,1.88,0,0,1,373,27.8Z" fill="#fff"/><path d="M420.2,46.7H444a2,2,0,0,1,2,2v2.6a2,2,0,0,1-2,2H420.2a2,2,0,0,1-2-2V48.7A2,2,0,0,1,420.2,46.7Z" fill="#0071bb"/><path d="M373,25.7h76.2a4,4,0,0,1,4,4v3.5H369V29.7A4,4,0,0,1,373,25.7Z" fill="#e21c3d"/><rect x="377.7" y="85.3" width="66.4" height="1.8" fill="#5b616a"/><rect x="377.7" y="90.3" width="66.4" height="1.8" fill="#5b616a"/><rect x="377.7" y="95.2" width="66.7" height="1.8" fill="#5b616a"/><rect x="377.7" y="100.1" width="66.7" height="1.8" fill="#5b616a"/><rect x="377.7" y="105.1" width="38.1" height="1.8" fill="#5b616a"/><path d="M419.3,57.1h22.5a.94.94,0,0,1,1,1v1.2a.94.94,0,0,1-1,1H419.3a.94.94,0,0,1-1-1V58.1A1,1,0,0,1,419.3,57.1Z" fill="#5b616a"/><path d="M419.3,63.4h22.5a.94.94,0,0,1,1,1v1.2a.94.94,0,0,1-1,1H419.3a.94.94,0,0,1-1-1V64.4A1,1,0,0,1,419.3,63.4Z" fill="#5b616a"/><path d="M419.2,69.7h11.4a.94.94,0,0,1,1,1v1.2a.94.94,0,0,1-1,1H419.2a.94.94,0,0,1-1-1V70.7A1,1,0,0,1,419.2,69.7Z" fill="#5b616a"/><circle cx="373.5" cy="29.3" r="1.4" fill="#fff"/><circle cx="378.2" cy="29.3" r="1.4" fill="#fff"/><circle cx="382.9" cy="29.3" r="1.4" fill="#fff"/><rect x="391.5" y="27.9" width="40.2" height="2.8" fill="#fff"/><rect x="439.2" y="27.5" width="9.4" height="2.8" fill="#fff"/><path d="M395.3,76.6A17.45,17.45,0,1,1,412.6,59h0A17.5,17.5,0,0,1,395.3,76.6Z" fill="#d1f0ff"/><path d="M395.1,76.6a17.5,17.5,0,1,1,17.5-17.5h0A17.58,17.58,0,0,1,395.1,76.6Z" fill="none"/><path d="M395.7,64.5c3.4-.2,7.4-.1,9.4,0a1.09,1.09,0,0,0,1.1-.9v-.2c-.3-2.6-1-8.8-2.5-12-3.1-6.9-8.4-5.3-8.4-5.3s-10.4-1.5-11,9.2a55.74,55.74,0,0,0,.3,10,.9.9,0,0,0,1.1.9h.2A60.71,60.71,0,0,1,395.7,64.5Z" fill="#112e51"/><path d="M391.9,64.5s1,1.3-1,4.2a6.29,6.29,0,0,0-.6,5.8l4.8,1.9,3.9-1.6s4-1.9.3-6.1a8.07,8.07,0,0,1-1.6-4.7Z" fill="url(#linear-gradient-5)"/><path d="M395.1,73.4c-2.3-2.7-4.1-4.7-4.1-4.7a6.92,6.92,0,0,0,1-1.9s-4.5,2.3-6.8,3.4a2.51,2.51,0,0,0-1.3,2l-.1,1.4c7.5,4.2,15,4.3,22.7.3l-.1-1.7a2.4,2.4,0,0,0-1.2-2c-2.2-1.2-6.8-3.5-6.9-3.5h0s.7,1.7,1.1,1.8a62.18,62.18,0,0,1-4.3,4.9" fill="#e21c3d"/><path d="M397,50.6c-3.3,2.6-9.7,4.4-9.7,4.4a23.76,23.76,0,0,1,.6,3.7,1.3,1.3,0,0,0-.4,1.8,1.43,1.43,0,0,0,1.2.6h0c.7,3.3,4.8,5.7,7.1,5.4s5.8-3.6,5.6-6.9h0a1.24,1.24,0,0,0,1.1-1.4,1.44,1.44,0,0,0-.9-1.1c-.3-.7-.1-3.2-.2-4Z" fill="#fff"/><circle cx="392.21" cy="58" r="0.7" transform="translate(-4.13 47.76) rotate(-6.93)" fill="#354d6b"/><circle cx="397.11" cy="57.4" r="0.7" transform="translate(-4.03 48.35) rotate(-6.93)" fill="#354d6b"/><path d="M395.6,61.9a7.71,7.71,0,0,0,2.5-1c-1.9,4.2-5.5,1.4-5.5,1.4a10.32,10.32,0,0,0,3-.4" fill="#354d6b"/><path d="M395.1,76.6a17.5,17.5,0,1,1,17.5-17.5h0A17.58,17.58,0,0,1,395.1,76.6Z" fill="none" stroke="#0071bb" stroke-miterlimit="10" stroke-width="3.24"/><path d="M72,140a67.62,67.62,0,0,0,43.6-15.9v-.8a9.12,9.12,0,0,0-4.9-7.8c-8.7-4.6-26.6-13.8-26.7-13.7s2.8,6.5,4.5,7.1c0,0-6.5,8.1-16.6,18.8h0C63,117,55.2,108.9,55.2,108.9c1.7-.6,4.5-7.1,4.5-7.1-.2-.1-17.9,9-26.6,13.6a9.33,9.33,0,0,0-5,8v.5A67.86,67.86,0,0,0,72,140Z" fill="#e21c3d"/></g></g></svg>