<svg xmlns="http://www.w3.org/2000/svg" xmlns:xlink="http://www.w3.org/1999/xlink" viewBox="0 0 145.28 139.42"><defs><style>.cls-1{fill:none;}.cls-2{fill:#112e51;}.cls-3{fill:#44d067;}.cls-4{fill:#dcf8e1;}.cls-5{opacity:0.31;}.cls-6{fill:#68e380;}.cls-7{clip-path:url(#clip-path);}.cls-8{opacity:0.33;}.cls-9{fill:#5b616a;}.cls-10{clip-path:url(#clip-path-2);}.cls-11{fill:#a9e4f1;}.cls-12{fill:#aae4f2;}.cls-13{fill:#abe4f2;}.cls-14{fill:#ace5f2;}.cls-15{fill:#ade5f2;}.cls-16{fill:#aee5f2;}.cls-17{fill:#afe6f3;}.cls-18{fill:#b0e6f3;}.cls-19{fill:#b1e6f3;}.cls-20{fill:#b2e7f3;}.cls-21{fill:#b3e7f3;}.cls-22{fill:#b4e7f4;}.cls-23{fill:#b5e8f4;}.cls-24{fill:#b6e8f4;}.cls-25{fill:#b7e8f4;}.cls-26{fill:#b8e9f4;}.cls-27{fill:#b9e9f5;}.cls-28{fill:#bae9f5;}.cls-29{fill:#bceaf5;}.cls-30{fill:#bdeaf5;}.cls-31{fill:#beeaf5;}.cls-32{fill:#bfeaf6;}.cls-33{fill:#c0ebf6;}.cls-34{fill:#c1ebf6;}.cls-35{fill:#c2ebf6;}.cls-36{fill:#c3ecf6;}.cls-37{fill:#c4ecf7;}.cls-38{fill:#c5ecf7;}.cls-39{fill:#c6edf7;}.cls-40{fill:#c7edf7;}.cls-41{fill:#c8edf7;}.cls-42{fill:#c9eef8;}.cls-43{fill:#caeef8;}.cls-44{fill:#cbeef8;}.cls-45{fill:#cceff8;}.cls-46{fill:#cdeff8;}.cls-47{fill:#ceeff9;}.cls-48{fill:#cff0f9;}.cls-49{fill:#d0f0f9;}.cls-50{fill:#d1f0f9;}.cls-51{fill:#d2f0f9;}.cls-52{fill:#d3f1fa;}.cls-53{fill:#d4f1fa;}.cls-54{fill:#d5f1fa;}.cls-55{fill:#d6f2fa;}.cls-56{fill:#d7f2fb;}.cls-57{fill:#d8f2fb;}.cls-58{fill:#d9f3fb;}.cls-59{fill:#daf3fb;}.cls-60{fill:#dbf3fb;}.cls-61{fill:#dcf4fc;}.cls-62{fill:#ddf4fc;}.cls-63{fill:#def4fc;}.cls-64{fill:#dff5fc;}.cls-65{fill:#e0f5fc;}.cls-66{fill:#e1f5fd;}.cls-67{fill:#e2f6fd;}.cls-68{fill:#e3f6fd;}.cls-69{fill:#e4f6fd;}.cls-70{fill:#e5f6fd;}.cls-71{fill:#e6f7fe;}.cls-72{fill:#e7f7fe;}.cls-73{fill:#e8f7fe;}.cls-74{fill:#e9f8fe;}.cls-75{fill:#eaf8fe;}.cls-76{fill:#ebf8ff;}.cls-77{fill:#ecf9ff;}.cls-78{fill:#edf9ff;}.cls-79{fill:#e21c3d;}.cls-80{fill:#545385;}.cls-81{fill:#fff;}.cls-82{fill:#42cf5e;}</style><clipPath id="clip-path"><path class="cls-1" d="M69.16,130.89A61.86,61.86,0,1,1,131,69,61.93,61.93,0,0,1,69.16,130.89Z"/></clipPath><clipPath id="clip-path-2"><path class="cls-1" d="M57.78,88.13s3.43,4.57-3.43,14.85a22.6,22.6,0,0,0-2.29,20.57l17.14,6.86,13.71-5.71S97.16,118,84.06,103c-5.8-6.67-5.71-16.71-5.71-16.71Z"/></clipPath></defs><title>user-verified</title><g id="Layer_2" data-name="Layer 2"><g id="Layer_1-2" data-name="Layer 1"><circle class="cls-2" cx="69.16" cy="69.16" r="68.91"/><path class="cls-3" d="M68.16,134.57a1,1,0,0,1,1-1h.18a1,1,0,0,1,1,1h0a1,1,0,0,1-1,1h-.18A1,1,0,0,1,68.16,134.57ZM57,134.45a1,1,0,0,1-.81-1.17h0a1,1,0,0,1,1.17-.8h0a1,1,0,0,1,.8,1.17h0a1,1,0,0,1-1,.82h0Zm23.4-.83a1,1,0,0,1,.79-1.17h0a1,1,0,0,1,1.17.79h0a1,1,0,0,1-.79,1.17h0a.66.66,0,0,1-.19,0h0A1,1,0,0,1,80.37,133.62Zm-35.19-2.53h0a1,1,0,0,1-.57-1.29h0a1,1,0,0,1,1.29-.57h0a1,1,0,0,1,.57,1.29h0a1,1,0,0,1-.93.64h0A.93.93,0,0,1,45.18,131.09ZM92,130.46a1,1,0,0,1,.57-1.3h0a1,1,0,0,1,1.29.56h0a1,1,0,0,1-.56,1.3h0a1.15,1.15,0,0,1-.36.07h0A1,1,0,0,1,92,130.46Zm-57.79-4.84h0a1,1,0,0,1-.32-1.38h0a1,1,0,0,1,1.37-.32h0a1,1,0,0,1,.33,1.38h0a1,1,0,0,1-.85.47h0A1,1,0,0,1,34.22,125.62Zm68.65-.42a1,1,0,0,1,.32-1.37h0a1,1,0,0,1,1.38.32h0a1,1,0,0,1-.32,1.37h0a.94.94,0,0,1-.53.16h0A1,1,0,0,1,102.87,125.2Zm-78.42-7a1,1,0,0,1-.06-1.41h0a1,1,0,0,1,1.41-.07h0a1,1,0,0,1,.06,1.41h0a1,1,0,0,1-.74.33h0A1,1,0,0,1,24.45,118.23Zm88.14-.18a1,1,0,0,1,.06-1.41h0a1,1,0,0,1,1.41.07h0a1,1,0,0,1-.06,1.41h0a1,1,0,0,1-.68.26h0A1,1,0,0,1,112.59,118.05Zm-96.4-8.87h0a1,1,0,0,1,.2-1.4h0a1,1,0,0,1,1.4.19h0a1,1,0,0,1-.2,1.4h0a1,1,0,0,1-.6.21h0A1,1,0,0,1,16.19,109.18Zm104.64.06a1,1,0,0,1-.19-1.4h0a1,1,0,0,1,1.4-.2h0a1,1,0,0,1,.19,1.4h0a1,1,0,0,1-.8.4h0A1,1,0,0,1,120.83,109.24ZM9.72,98.78a1,1,0,0,1,.45-1.34h0a1,1,0,0,1,1.34.45h0a1,1,0,0,1-.44,1.35h0a1.06,1.06,0,0,1-.45.1h0A1,1,0,0,1,9.72,98.78Zm117.61.29a1,1,0,0,1-.45-1.34h0a1,1,0,0,1,1.34-.45h0a1,1,0,0,1,.45,1.34h0a1,1,0,0,1-.9.56h0A1,1,0,0,1,127.33,99.07ZM5.28,87.36h0A1,1,0,0,1,6,86.13H6a1,1,0,0,1,1.24.69h0a1,1,0,0,1-.69,1.23h0a.86.86,0,0,1-.28,0h0A1,1,0,0,1,5.28,87.36Zm126.57.52a1,1,0,0,1-.69-1.23h0a1,1,0,0,1,1.23-.7h0a1,1,0,0,1,.69,1.24h0a1,1,0,0,1-1,.73h0A.83.83,0,0,1,131.85,87.88ZM3,75.33a1,1,0,0,1,.9-1.09h0a1,1,0,0,1,1.09.9H5a1,1,0,0,1-.9,1.09H4A1,1,0,0,1,3,75.33Zm131.19.72a1,1,0,0,1-.91-1.09h0a1,1,0,0,1,1.09-.9h0a1,1,0,0,1,.9,1.08h0a1,1,0,0,1-1,.91h-.09ZM3.93,64.17A1,1,0,0,1,3,63.08H3a1,1,0,0,1,1.09-.91h0A1,1,0,0,1,5,63.26H5a1,1,0,0,1-1,.91H3.93Zm129.36-1.09a1,1,0,0,1,.9-1.08h0a1,1,0,0,1,1.09.9h0a1,1,0,0,1-.9,1.09h-.1A1,1,0,0,1,133.29,63.08ZM6,52.27A1,1,0,0,1,5.26,51h0a1,1,0,0,1,1.23-.69h0a1,1,0,0,1,.69,1.23h0a1,1,0,0,1-1,.73h0A.86.86,0,0,1,6,52.27Zm125.14-.86a1,1,0,0,1,.68-1.23h0a1,1,0,0,1,1.24.68h0a1,1,0,0,1-.69,1.24h0a1.22,1.22,0,0,1-.27,0h0A1,1,0,0,1,131.09,51.41ZM10.13,41a1,1,0,0,1-.44-1.34h0A1,1,0,0,1,11,39.16h0a1,1,0,0,1,.44,1.35h0a1,1,0,0,1-.89.55h0A.94.94,0,0,1,10.13,41Zm116.63-.6h0a1,1,0,0,1,.45-1.34h0a1,1,0,0,1,1.34.44h0a1,1,0,0,1-.44,1.35h0a1,1,0,0,1-.45.1h0A1,1,0,0,1,126.76,40.35ZM16.34,30.6a1,1,0,0,1-.2-1.4h0a1,1,0,0,1,1.4-.19h0a1,1,0,0,1,.2,1.4h0a1,1,0,0,1-.8.39h0A1,1,0,0,1,16.34,30.6Zm104.13-.33a1,1,0,0,1,.2-1.4h0a1,1,0,0,1,1.4.19h0a1,1,0,0,1-.2,1.4h0a.94.94,0,0,1-.6.2h0A1,1,0,0,1,120.47,30.27ZM24.32,21.56a1,1,0,0,1,.07-1.41h0a1,1,0,0,1,1.41.06h0a1,1,0,0,1-.06,1.41h0a1,1,0,0,1-.68.26h0A1,1,0,0,1,24.32,21.56Zm88.13-.06h0a1,1,0,0,1-.06-1.42h0A1,1,0,0,1,113.8,20h0a1,1,0,0,1,.06,1.41h0a1,1,0,0,1-.73.32h0A1,1,0,0,1,112.45,21.5ZM33.83,14.12a1,1,0,0,1,.32-1.38h0a1,1,0,0,1,1.37.32h0a1,1,0,0,1-.32,1.38h0a1,1,0,0,1-.52.15h0A1,1,0,0,1,33.83,14.12Zm69.14.23a1,1,0,0,1-.33-1.38h0a1,1,0,0,1,1.38-.32h0a1,1,0,0,1,.32,1.37h0a1,1,0,0,1-.85.48h0A1,1,0,0,1,103,14.35ZM44.53,8.55a1,1,0,0,1,.56-1.29h0a1,1,0,0,1,1.3.56h0a1,1,0,0,1-.57,1.3h0a.93.93,0,0,1-.36.07h0A1,1,0,0,1,44.53,8.55Zm47.8.5a1,1,0,0,1-.57-1.29h0a1,1,0,0,1,1.29-.57h0a1,1,0,0,1,.57,1.29h0a1,1,0,0,1-.93.64h0A.93.93,0,0,1,92.33,9.05Zm-36.26-4a1,1,0,0,1,.8-1.17h0A1,1,0,0,1,58,4.68h0a1,1,0,0,1-.8,1.17h0l-.19,0h0A1,1,0,0,1,56.07,5.05Zm24.83.77a1,1,0,0,1-.8-1.17h0a1,1,0,0,1,1.16-.8h0A1,1,0,0,1,82.06,5h0a1,1,0,0,1-1,.81H80.9ZM68.07,3.75a1,1,0,0,1,1-1h0a1,1,0,0,1,1,1h0a1,1,0,0,1-1,1h0A1,1,0,0,1,68.07,3.75Z"/><path class="cls-3" d="M69.16,138.33a69.16,69.16,0,1,1,69.16-69.16A69.24,69.24,0,0,1,69.16,138.33ZM69.16.5a68.66,68.66,0,1,0,68.66,68.66A68.74,68.74,0,0,0,69.16.5Z"/><circle class="cls-4" cx="69.16" cy="69.16" r="61.99"/><path class="cls-3" d="M69.16,131.4A62.24,62.24,0,1,1,131.4,69.16,62.31,62.31,0,0,1,69.16,131.4Zm0-124A61.74,61.74,0,1,0,130.9,69.16,61.81,61.81,0,0,0,69.16,7.42Z"/><g class="cls-5"><polygon class="cls-6" points="68.5 73.96 58.49 130.18 62.98 130.8 68.5 73.96"/><polygon class="cls-6" points="69.82 64.36 79.84 8.14 75.34 7.53 69.82 64.36"/><polygon class="cls-6" points="67.86 73.83 50.28 128.16 54.65 129.38 67.86 73.83"/><polygon class="cls-6" points="70.47 64.5 88.05 10.17 83.68 8.94 70.47 64.5"/><polygon class="cls-6" points="67.23 73.61 42.42 125.04 46.58 126.84 67.23 73.61"/><polygon class="cls-6" points="71.09 64.72 95.91 13.29 91.74 11.48 71.09 64.72"/><polygon class="cls-6" points="66.65 73.3 35.06 120.88 38.94 123.23 66.65 73.3"/><polygon class="cls-6" points="71.68 65.02 103.27 17.45 99.39 15.09 71.68 65.02"/><polygon class="cls-6" points="66.11 72.92 28.34 115.75 31.86 118.61 66.11 72.92"/><polygon class="cls-6" points="72.22 65.41 109.99 22.58 106.47 19.71 72.22 65.41"/><polygon class="cls-6" points="65.62 72.47 22.37 109.76 25.47 113.07 65.62 72.47"/><polygon class="cls-6" points="72.7 65.86 115.95 28.57 112.86 25.25 72.7 65.86"/><polygon class="cls-6" points="65.2 71.96 17.28 103.01 19.9 106.72 65.2 71.96"/><polygon class="cls-6" points="73.12 66.37 121.04 35.32 118.43 31.61 73.12 66.37"/><polygon class="cls-6" points="64.86 71.39 13.16 95.63 15.24 99.66 64.86 71.39"/><polygon class="cls-6" points="73.46 66.93 125.17 42.7 123.08 38.67 73.46 66.93"/><polygon class="cls-6" points="64.6 70.78 10.07 87.75 11.59 92.03 64.6 70.78"/><polygon class="cls-6" points="73.73 67.54 128.25 50.57 126.73 46.3 73.73 67.54"/><polygon class="cls-6" points="64.42 70.15 8.09 79.53 9.02 83.98 64.42 70.15"/><polygon class="cls-6" points="73.91 68.18 130.23 58.79 129.31 54.35 73.91 68.18"/><polygon class="cls-6" points="64.33 69.49 7.25 71.12 7.56 75.65 64.33 69.49"/><polygon class="cls-6" points="74 68.83 131.08 67.2 130.77 62.67 74 68.83"/><polygon class="cls-6" points="64.33 68.83 7.56 62.67 7.25 67.2 64.33 68.83"/><polygon class="cls-6" points="74 69.49 130.77 75.65 131.08 71.12 74 69.49"/><polygon class="cls-6" points="64.42 68.18 9.02 54.35 8.09 58.79 64.42 68.18"/><polygon class="cls-6" points="73.91 70.15 129.31 83.98 130.23 79.53 73.91 70.15"/><polygon class="cls-6" points="64.6 67.54 11.59 46.3 10.07 50.57 64.6 67.54"/><polygon class="cls-6" points="73.73 70.78 126.73 92.03 128.25 87.75 73.73 70.78"/><polygon class="cls-6" points="64.86 66.93 15.24 38.67 13.16 42.7 64.86 66.93"/><polygon class="cls-6" points="73.46 71.39 123.08 99.66 125.17 95.63 73.46 71.39"/><polygon class="cls-6" points="65.2 66.37 19.9 31.61 17.28 35.32 65.2 66.37"/><polygon class="cls-6" points="73.12 71.96 118.43 106.72 121.04 103.01 73.12 71.96"/><polygon class="cls-6" points="65.62 65.86 25.47 25.25 22.37 28.57 65.62 65.86"/><polygon class="cls-6" points="72.7 72.47 112.86 113.07 115.95 109.76 72.7 72.47"/><polygon class="cls-6" points="66.11 65.41 31.86 19.71 28.34 22.58 66.11 65.41"/><polygon class="cls-6" points="72.22 72.92 106.47 118.61 109.99 115.75 72.22 72.92"/><polygon class="cls-6" points="66.65 65.02 38.94 15.09 35.06 17.45 66.65 65.02"/><polygon class="cls-6" points="71.68 73.3 99.39 123.23 103.27 120.88 71.68 73.3"/><polygon class="cls-6" points="67.23 64.72 46.58 11.48 42.42 13.29 67.23 64.72"/><polygon class="cls-6" points="71.09 73.61 91.74 126.84 95.91 125.04 71.09 73.61"/><polygon class="cls-6" points="67.86 64.5 54.65 8.94 50.28 10.17 67.86 64.5"/><polygon class="cls-6" points="70.47 73.83 83.68 129.38 88.05 128.16 70.47 73.83"/><polygon class="cls-6" points="68.5 64.36 62.98 7.53 58.49 8.14 68.5 64.36"/><polygon class="cls-6" points="69.82 73.96 75.34 130.8 79.84 130.18 69.82 73.96"/><polygon class="cls-6" points="69.16 64.32 71.43 7.26 66.89 7.26 69.16 64.32"/><polygon class="cls-6" points="69.16 74.01 66.89 131.06 71.43 131.06 69.16 74.01"/></g><g class="cls-7"><g class="cls-8"><path class="cls-9" d="M102.3,111.79C95,105.11,74.85,98,73.28,97.67a27.75,27.75,0,0,1-1.14-3.82,30,30,0,0,0,6.14-5.19l.47,0C107.14,91,103,66.72,92.52,44.9,81.23,21.48,62.23,26.76,62.23,26.76S24.77,21.61,22.75,58.1c-2,35.9,6.8,39.59,26,34l.12,0c.82.55,1.66,1.05,2.52,1.52a13.23,13.23,0,0,1-.8,4c-1.78.42-21.6,7.32-29,14.12a1.58,1.58,0,0,0-.52,1.17V128.9c26.86,14.22,54.12,13.82,81.75,0V113A1.59,1.59,0,0,0,102.3,111.79Zm-25-7.9L77,104A20,20,0,0,1,73.85,99C74.72,100.77,76.24,103.52,77.32,103.89ZM50,99.1A29.66,29.66,0,0,1,47.21,104c-.4-.1-.63-.14-.63-.14C47.64,103.52,49.15,100.82,50,99.1Z"/></g><g class="cls-10"><polygon class="cls-11" points="48.06 86.28 47.5 86.33 47.5 86.28 48.06 86.28"/><polygon class="cls-12" points="50.42 86.28 47.5 86.53 47.5 86.33 48.06 86.28 50.42 86.28"/><polygon class="cls-13" points="52.77 86.28 47.5 86.73 47.5 86.53 50.42 86.28 52.77 86.28"/><polygon class="cls-14" points="55.12 86.28 47.5 86.94 47.5 86.73 52.77 86.28 55.12 86.28"/><polygon class="cls-15" points="57.47 86.28 47.5 87.14 47.5 86.94 55.12 86.28 57.47 86.28"/><polygon class="cls-16" points="59.83 86.28 47.5 87.34 47.5 87.14 57.47 86.28 59.83 86.28"/><polygon class="cls-17" points="62.18 86.28 47.5 87.55 47.5 87.34 59.83 86.28 62.18 86.28"/><polygon class="cls-18" points="64.53 86.28 47.5 87.75 47.5 87.55 62.18 86.28 64.53 86.28"/><polygon class="cls-19" points="66.88 86.28 47.5 87.95 47.5 87.75 64.53 86.28 66.88 86.28"/><polygon class="cls-20" points="69.23 86.28 47.5 88.16 47.5 87.95 66.88 86.28 69.23 86.28"/><polygon class="cls-21" points="71.59 86.28 47.5 88.36 47.5 88.16 69.23 86.28 71.59 86.28"/><polygon class="cls-22" points="73.94 86.28 47.5 88.56 47.5 88.36 71.59 86.28 73.94 86.28"/><polygon class="cls-23" points="76.29 86.28 47.5 88.77 47.5 88.56 73.94 86.28 76.29 86.28"/><polygon class="cls-24" points="78.64 86.28 47.5 88.97 47.5 88.77 76.29 86.28 78.64 86.28"/><polygon class="cls-25" points="81 86.28 47.5 89.17 47.5 88.97 78.64 86.28 81 86.28"/><polygon class="cls-26" points="83.35 86.28 47.5 89.38 47.5 89.17 81 86.28 83.35 86.28"/><polygon class="cls-27" points="85.7 86.28 47.5 89.58 47.5 89.38 83.35 86.28 85.7 86.28"/><polygon class="cls-28" points="88.05 86.28 47.5 89.78 47.5 89.58 85.7 86.28 88.05 86.28"/><polygon class="cls-29" points="90.4 86.28 47.5 89.98 47.5 89.78 88.05 86.28 90.4 86.28"/><polygon class="cls-30" points="92.76 86.28 47.5 90.19 47.5 89.98 90.4 86.28 92.76 86.28"/><polygon class="cls-31" points="95.11 86.28 47.5 90.39 47.5 90.19 92.76 86.28 95.11 86.28"/><polygon class="cls-32" points="96.42 86.28 96.43 86.37 47.5 90.59 47.5 90.39 95.11 86.28 96.42 86.28"/><polygon class="cls-33" points="96.43 86.37 96.45 86.57 47.5 90.8 47.5 90.59 96.43 86.37"/><polygon class="cls-34" points="96.45 86.57 96.47 86.77 47.5 91 47.5 90.8 96.45 86.57"/><polygon class="cls-35" points="96.47 86.77 96.48 86.97 47.5 91.2 47.5 91 96.47 86.77"/><polygon class="cls-36" points="96.48 86.97 96.5 87.17 47.5 91.41 47.5 91.2 96.48 86.97"/><polygon class="cls-37" points="96.5 87.17 96.52 87.38 47.5 91.61 47.5 91.41 96.5 87.17"/><polygon class="cls-38" points="96.52 87.38 96.53 87.58 47.5 91.81 47.5 91.61 96.52 87.38"/><polygon class="cls-39" points="96.53 87.58 96.55 87.78 47.5 92.02 47.5 91.81 96.53 87.58"/><polygon class="cls-40" points="96.55 87.78 96.57 87.98 47.5 92.22 47.5 92.02 96.55 87.78"/><polygon class="cls-41" points="96.57 87.98 96.59 88.18 47.5 92.42 47.5 92.22 96.57 87.98"/><polygon class="cls-42" points="96.59 88.18 96.61 88.39 47.5 92.62 47.5 92.42 96.59 88.18"/><polygon class="cls-43" points="96.61 88.39 96.62 88.59 47.5 92.83 47.5 92.62 96.61 88.39"/><polygon class="cls-44" points="96.62 88.59 96.64 88.79 47.5 93.03 47.5 92.83 96.62 88.59"/><polygon class="cls-45" points="96.64 88.79 96.66 88.99 47.5 93.23 47.5 93.03 96.64 88.79"/><polygon class="cls-46" points="96.66 88.99 96.67 89.19 47.5 93.44 47.5 93.23 96.66 88.99"/><polygon class="cls-47" points="96.67 89.19 96.69 89.39 47.5 93.64 47.5 93.44 96.67 89.19"/><polygon class="cls-48" points="96.69 89.39 96.71 89.59 47.5 93.84 47.5 93.64 96.69 89.39"/><polygon class="cls-49" points="96.71 89.59 96.73 89.8 47.5 94.05 47.5 93.84 96.71 89.59"/><polygon class="cls-50" points="96.73 89.8 96.74 90 47.5 94.25 47.5 94.05 96.73 89.8"/><polygon class="cls-51" points="96.74 90 96.76 90.2 47.5 94.45 47.5 94.25 96.74 90"/><polygon class="cls-52" points="96.76 90.2 96.78 90.4 47.5 94.66 47.5 94.45 96.76 90.2"/><polygon class="cls-53" points="96.78 90.4 96.8 90.6 47.5 94.86 47.5 94.66 96.78 90.4"/><polygon class="cls-54" points="96.8 90.6 96.81 90.8 47.5 95.06 47.5 94.86 96.8 90.6"/><polygon class="cls-55" points="96.81 90.8 96.83 91 47.5 95.26 47.5 95.06 96.81 90.8"/><polygon class="cls-56" points="96.83 91 96.85 91.21 47.5 95.47 47.5 95.26 96.83 91"/><polygon class="cls-57" points="96.85 91.21 96.87 91.41 47.5 95.67 47.5 95.47 96.85 91.21"/><polygon class="cls-58" points="96.87 91.41 96.88 91.61 47.5 95.87 47.5 95.67 96.87 91.41"/><polygon class="cls-59" points="96.88 91.61 96.9 91.81 47.5 96.08 47.5 95.87 96.88 91.61"/><polygon class="cls-60" points="96.9 91.81 96.92 92.01 47.5 96.28 47.5 96.08 96.9 91.81"/><polygon class="cls-61" points="96.92 92.01 96.94 92.21 47.5 96.48 47.5 96.28 96.92 92.01"/><polygon class="cls-62" points="96.94 92.21 96.95 92.42 47.5 96.69 47.5 96.48 96.94 92.21"/><polygon class="cls-63" points="96.95 92.42 96.97 92.62 47.5 96.89 47.5 96.69 96.95 92.42"/><polygon class="cls-64" points="96.97 92.62 96.99 92.82 47.5 97.09 47.5 96.89 96.97 92.62"/><polygon class="cls-65" points="96.99 92.82 97 93.02 47.5 97.3 47.5 97.09 96.99 92.82"/><polygon class="cls-66" points="97 93.02 97.02 93.22 47.5 97.5 47.5 97.3 97 93.02"/><polygon class="cls-67" points="97.02 93.22 97.04 93.42 47.5 97.7 47.5 97.5 97.02 93.22"/><polygon class="cls-68" points="97.04 93.42 97.06 93.63 47.5 97.9 47.5 97.7 97.04 93.42"/><polygon class="cls-69" points="97.06 93.63 97.07 93.83 47.5 98.11 47.5 97.9 97.06 93.63"/><polygon class="cls-70" points="97.07 93.83 97.09 94.03 47.5 98.31 47.5 98.11 97.07 93.83"/><polygon class="cls-71" points="97.09 94.03 97.11 94.23 47.5 98.51 47.5 98.31 97.09 94.03"/><polygon class="cls-72" points="97.11 94.23 97.13 94.43 47.5 98.72 47.5 98.51 97.11 94.23"/><polygon class="cls-73" points="97.13 94.43 97.14 94.63 47.5 98.92 47.5 98.72 97.13 94.43"/><polygon class="cls-74" points="97.14 94.63 97.16 94.79 97.16 94.83 47.5 99.12 47.5 98.92 97.14 94.63"/><polygon class="cls-75" points="97.16 95.04 47.5 99.33 47.5 99.12 97.16 94.83 97.16 95.04"/><polygon class="cls-76" points="97.16 95.24 47.5 99.53 47.5 99.33 97.16 95.04 97.16 95.24"/><polygon class="cls-77" points="97.16 95.44 47.5 99.73 47.5 99.53 97.16 95.24 97.16 95.44"/><polygon class="cls-78" points="97.16 95.65 47.5 99.93 47.5 99.73 97.16 95.44 97.16 95.65"/><polygon class="cls-78" points="47.5 99.93 97.16 95.65 97.16 130.41 47.5 130.41 47.5 99.93"/></g><path class="cls-79" d="M69,119.68c-2.93-15-15.11-17.1-15.11-17.1C55.47,102,58,96.11,58,96.11c-.25-.13-21.06,7.32-28.63,14.66a1.68,1.68,0,0,0-.51,1.21v16.54c26.4,14.75,53.19,14.33,80.35,0V112a1.69,1.69,0,0,0-.51-1.21C101.28,103.6,80.3,96,80.05,96.11h0s2.51,5.9,4.07,6.47c0,0-12.18,2.06-15.11,17.1"/><path class="cls-80" d="M85.53,86.81C113.44,89.17,109.4,64,99.06,41.41,88,17.12,69.29,22.6,69.29,22.6s-36.82-5.34-38.8,32.5c-2,37.23,6.68,41,25.55,35.3C56,90.4,72.8,85.73,85.53,86.81Z"/><path class="cls-81" d="M75.06,38.59c-1.44,7.08-34,16-34,16,.36,3,2.61,10.19,2,13.26a4.53,4.53,0,0,0,2.86,8.37H46c2.36,11.73,16.9,20.1,25.33,19.08,8.65-1.05,20.54-12.64,20-24.59h.08a4.53,4.53,0,0,0,.77-8.81c-1.16-2.39-.5-11.25-.86-14.21,0,0-5.7,2.29-13.61-6Z"/><circle class="cls-80" cx="58.83" cy="64.91" r="2.63" transform="translate(-7.4 7.58) rotate(-6.93)"/><circle class="cls-80" cx="76.22" cy="62.79" r="2.63" transform="translate(-7.02 9.66) rotate(-6.93)"/><path class="cls-80" d="M79.45,75.27c-6.7,14.79-19.39,5-19.39,5a31.7,31.7,0,0,0,10.69-1.44C78,76.81,79.45,75.27,79.45,75.27Z"/></g><circle class="cls-82" cx="124.63" cy="34.25" r="20.65"/><path class="cls-81" d="M121.34,45.39A3,3,0,0,1,119,44.26l-5.71-7.13A3,3,0,0,1,118,33.39l3.37,4.22,10-12.45A3,3,0,0,1,136,28.9L123.67,44.26A3,3,0,0,1,121.34,45.39Z"/></g></g></svg>