<svg xmlns="http://www.w3.org/2000/svg" xmlns:xlink="http://www.w3.org/1999/xlink" viewBox="0 0 483 153.38"><defs><style>.cls-1{filter:url(#luminosity-invert);}.cls-2,.cls-25,.cls-8{fill:none;}.cls-3{isolation:isolate;}.cls-4{fill:#0071bb;}.cls-5{fill:url(#linear-gradient);}.cls-6{mask:url(#mask);}.cls-7{fill:#747980;}.cls-19,.cls-7{opacity:0.42;mix-blend-mode:multiply;}.cls-8{stroke:#00bfe7;stroke-width:4px;}.cls-25,.cls-8{stroke-miterlimit:10;}.cls-9{fill:url(#linear-gradient-2);}.cls-10{fill:#fff;}.cls-11{fill:#e21d3e;}.cls-12{fill:#b51e23;}.cls-13{fill:url(#linear-gradient-3);}.cls-14{clip-path:url(#clip-path);}.cls-15{fill:#112e51;}.cls-16{fill:url(#linear-gradient-4);}.cls-17{fill:#e21c3d;}.cls-18{fill:#2686c5;}.cls-19,.cls-20{fill:#5b616a;}.cls-21{fill:#d1f0ff;}.cls-22{clip-path:url(#clip-path-2);}.cls-23{fill:url(#New_Gradient_Swatch_2);}.cls-24{fill:#354d6b;}.cls-25{stroke:#0071bb;stroke-width:3.24px;}</style><linearGradient id="linear-gradient" x1="128.6" y1="128.6" x2="9.36" y2="9.36" gradientUnits="userSpaceOnUse"><stop offset="0" stop-color="#8adaeb"/><stop offset="0.71" stop-color="#edf9ff"/></linearGradient><filter id="luminosity-invert" filterUnits="userSpaceOnUse" color-interpolation-filters="sRGB"><feColorMatrix values="-1 0 0 0 1 0 -1 0 0 1 0 0 -1 0 1 0 0 0 1 0"/></filter><mask id="mask" x="4" y="4" width="136" height="149.38" maskUnits="userSpaceOnUse"><path class="cls-1" d="M72,140a68,68,0,1,1,68-68A68.08,68.08,0,0,1,72,140Z"/></mask><linearGradient id="linear-gradient-2" x1="276.29" y1="120.48" x2="208.12" y2="25.49" xlink:href="#linear-gradient"/><linearGradient id="linear-gradient-3" x1="467.74" y1="128.74" x2="345.57" y2="6.57" xlink:href="#linear-gradient"/><clipPath id="clip-path"><path class="cls-2" d="M72,140a68,68,0,1,1,68-68A68.08,68.08,0,0,1,72,140Z"/></clipPath><linearGradient id="linear-gradient-4" x1="69.49" y1="82.03" x2="72.14" y2="112.72" xlink:href="#linear-gradient"/><clipPath id="clip-path-2"><path class="cls-2" d="M395.15,76.56A17.46,17.46,0,1,1,412.61,59.1,17.48,17.48,0,0,1,395.15,76.56Z"/></clipPath><linearGradient id="New_Gradient_Swatch_2" x1="394.09" y1="58.77" x2="395.51" y2="73.18" gradientUnits="userSpaceOnUse"><stop offset="0" stop-color="#00bfe7"/><stop offset="0.71" stop-color="#edf9ff"/></linearGradient></defs><title>User-access</title><g class="cls-3"><g id="Layer_2" data-name="Layer 2"><g id="Layer_1-2" data-name="Layer 1"><circle class="cls-4" cx="72" cy="72" r="72"/><path class="cls-5" d="M72,140a68,68,0,1,1,68-68A68.08,68.08,0,0,1,72,140Z"/><g class="cls-6"><path class="cls-7" d="M108.32,127.24a9.06,9.06,0,0,0-4.88-7.8c-8.4-4.37-25.16-13.06-26.65-13.65a32.94,32.94,0,0,1-1.24-4.37,32.55,32.55,0,0,0,5.68-4.85c8.78-.08,17.07.11,22,.26a4,4,0,0,0,4.1-4.39c-1-10-3.9-34.07-9.72-46.82C85.37,18.94,64.84,25,64.84,25S24.37,19.08,22.19,60.68a266.69,266.69,0,0,0,1,38.91A4,4,0,0,0,28,103.11c4.95-1,13.5-2.68,21.9-4a34.65,34.65,0,0,0,3.25,2.11,15.83,15.83,0,0,1-.87,4.64c-1.72.7-18.11,9.2-26.47,13.54a9.29,9.29,0,0,0-5,8l-.41,14.05c29,16.21,58.47,15.75,88.32,0Z"/></g><line class="cls-8" x1="144" y1="72" x2="339" y2="72"/><circle class="cls-4" cx="241.5" cy="72" r="45"/><path class="cls-9" d="M241.5,113a41,41,0,1,1,41-41A41,41,0,0,1,241.5,113Z"/><circle class="cls-4" cx="198.5" cy="72" r="9"/><circle class="cls-10" cx="198.5" cy="72" r="5"/><circle class="cls-4" cx="284.5" cy="72" r="9"/><circle class="cls-10" cx="284.5" cy="72" r="5"/><rect class="cls-10" x="230.81" y="58.22" width="21.62" height="27.73"/><path class="cls-11" d="M235.76,81.41,237.58,71a5.52,5.52,0,0,1,3.4-9.88V49.57H226.92A5.46,5.46,0,0,0,221.46,55V81.77a3.29,3.29,0,0,0,.33,1.46C223,85.62,227.64,93.31,241,99.18V81.87A30.54,30.54,0,0,1,235.76,81.41Z"/><path class="cls-12" d="M255,49.57H241V61.12h0A5.52,5.52,0,0,1,244.44,71l1.83,10.46a30.53,30.53,0,0,1-5.28.45V99.18c13.34-5.87,18-13.56,19.19-15.95a3.29,3.29,0,0,0,.33-1.46V55A5.46,5.46,0,0,0,255,49.57Z"/><circle class="cls-4" cx="411" cy="72" r="72"/><path class="cls-13" d="M411,140a68,68,0,1,1,68-68A68.08,68.08,0,0,1,411,140Z"/><circle class="cls-4" cx="144" cy="72" r="9"/><circle class="cls-10" cx="144" cy="72" r="5"/><circle class="cls-4" cx="339" cy="72" r="9"/><circle class="cls-10" cx="339" cy="72" r="5"/><g class="cls-14"><path class="cls-15" d="M74,93c13.12-.73,28.9-.4,36.49-.16a4,4,0,0,0,4.1-4.39c-1-10-3.9-34.07-9.72-46.82C92.67,14.94,72.14,21,72.14,21S31.67,15.08,29.49,56.68a266.68,266.68,0,0,0,1,38.91,4,4,0,0,0,4.77,3.52C43.86,97.36,63.29,93.59,74,93Z"/><path class="cls-16" d="M59.49,93s3.77,5-3.77,16.33a24.84,24.84,0,0,0-2.51,22.61L72,139.47l15.07-6.28s15.65-7.32,1.26-23.86C82,102,82.1,91,82.1,91Z"/><path class="cls-17" d="M71.84,127.68C63,117,55.23,108.88,55.23,108.88c1.71-.63,4.48-7.11,4.48-7.11-.2-.11-17.85,9-26.62,13.59a9.29,9.29,0,0,0-5,8l-.41,14.05c29,16.21,58.47,15.75,88.32,0l-.38-14.14a9.06,9.06,0,0,0-4.88-7.8C102,110.9,84.17,101.65,84,101.76h0s2.76,6.48,4.47,7.11c0,0-6.45,8.12-16.61,18.8"/><path class="cls-10" d="M79,39C66,49,41.1,56.14,41.1,56.14c.4,3.26,2.87,11.2,2.24,14.58a5,5,0,0,0,3.14,9.2h.09c2.6,12.89,18.58,22.1,27.85,21,9.51-1.16,22.58-13.89,22-27h.09a5,5,0,0,0,.84-9.69c-1.27-2.63-.55-12.36-.95-15.62Z"/><circle class="cls-18" cx="60.64" cy="67.47" r="2.89" transform="translate(-7.7 7.81) rotate(-6.93)"/><circle class="cls-18" cx="79.76" cy="65.14" r="2.89" transform="translate(-7.28 10.1) rotate(-6.93)"/><path class="cls-18" d="M73.75,82.8c7.94-2.24,9.56-3.94,9.56-3.94C75.95,95.12,62,84.37,62,84.37s4.55.46,11.75-1.58"/></g><path class="cls-19" d="M444.63,30H369a4.32,4.32,0,0,0-4.32,4.32v81a4.32,4.32,0,0,0,4.32,4.32h75.58A4.32,4.32,0,0,0,449,115.3v-81A4.32,4.32,0,0,0,444.63,30Z"/><rect class="cls-17" x="369.05" y="25.68" width="84.22" height="89.62" rx="4" ry="4"/><rect class="cls-10" x="371.21" y="27.84" width="79.9" height="85.3" rx="1.84" ry="1.84"/><rect class="cls-4" x="418.24" y="46.66" width="27.76" height="6.64" rx="2" ry="2"/><path class="cls-17" d="M373,25.68h76.22a4,4,0,0,1,4,4v3.49a0,0,0,0,1,0,0H369a0,0,0,0,1,0,0V29.68A4,4,0,0,1,373,25.68Z"/><rect class="cls-20" x="377.69" y="85.33" width="66.43" height="1.8"/><rect class="cls-20" x="377.69" y="90.27" width="66.43" height="1.8"/><rect class="cls-20" x="377.69" y="95.21" width="66.67" height="1.8"/><rect class="cls-20" x="377.69" y="100.14" width="66.67" height="1.8"/><rect class="cls-20" x="377.69" y="105.08" width="38.1" height="1.8"/><rect class="cls-20" x="418.29" y="57.11" width="24.55" height="3.24" rx="1" ry="1"/><rect class="cls-20" x="418.29" y="63.41" width="24.55" height="3.24" rx="1" ry="1"/><rect class="cls-20" x="418.25" y="69.7" width="13.37" height="3.24" rx="1" ry="1"/><circle class="cls-10" cx="373.51" cy="29.28" r="1.4"/><circle class="cls-10" cx="378.19" cy="29.28" r="1.4"/><circle class="cls-10" cx="382.87" cy="29.28" r="1.4"/><rect class="cls-10" x="391.51" y="27.87" width="40.24" height="2.81"/><rect class="cls-10" x="439.23" y="27.55" width="9.36" height="2.81"/><path class="cls-21" d="M395.26,76.56A17.46,17.46,0,1,1,412.61,59,17.48,17.48,0,0,1,395.26,76.56Z"/><g class="cls-22"><path class="cls-15" d="M395.66,64.49c3.37-.19,7.42-.1,9.37,0a1,1,0,0,0,1.05-1.13c-.26-2.57-1-8.75-2.5-12-3.13-6.86-8.4-5.31-8.4-5.31s-10.39-1.51-11,9.17a68.48,68.48,0,0,0,.26,10,1,1,0,0,0,1.23.91A89.46,89.46,0,0,1,395.66,64.49Z"/><path class="cls-23" d="M391.94,64.49s1,1.29-1,4.19a6.38,6.38,0,0,0-.65,5.81l4.84,1.94L399,74.81s4-1.88.32-6.13A8,8,0,0,1,397.74,64Z"/><path class="cls-17" d="M395.11,73.4c-2.27-2.74-4.14-4.71-4.14-4.71a7.26,7.26,0,0,0,1-1.88c-.05,0-4.53,2.26-6.78,3.43a2.39,2.39,0,0,0-1.28,2l-.1,3.61c7.45,4.16,15,4,22.68,0l-.1-3.63a2.33,2.33,0,0,0-1.25-2c-2.25-1.17-6.82-3.54-6.87-3.51h0s.71,1.66,1.15,1.83c0,0-1.66,2.09-4.26,4.83"/><path class="cls-10" d="M396.95,50.63c-3.34,2.57-9.73,4.4-9.73,4.4.1.84.74,2.88.57,3.74a1.28,1.28,0,0,0,.81,2.36h0c.67,3.31,4.77,5.67,7.15,5.39s5.8-3.57,5.65-6.94h0a1.28,1.28,0,0,0,.22-2.49c-.33-.67-.14-3.17-.24-4Z"/><circle class="cls-24" cx="392.23" cy="57.94" r="0.74" transform="translate(-4.13 47.77) rotate(-6.93)"/><circle class="cls-24" cx="397.14" cy="57.34" r="0.74" transform="translate(-4.02 48.36) rotate(-6.93)"/><path class="cls-24" d="M395.6,61.87a6.32,6.32,0,0,0,2.45-1c-1.89,4.18-5.47,1.42-5.47,1.42a9,9,0,0,0,3-.41"/></g><path class="cls-25" d="M395.15,76.56A17.46,17.46,0,1,1,412.61,59.1,17.48,17.48,0,0,1,395.15,76.56Z"/></g></g></g></svg>