<svg xmlns="http://www.w3.org/2000/svg" viewBox="0 0 11 12"><title>ico-thumb</title><g id="Layer_2" data-name="Layer 2"><g id="Layer_1-2" data-name="Layer 1"><path d="M10.65,6.71a2,2,0,0,1,.06.5,2.13,2.13,0,0,1-.27,1,2.21,2.21,0,0,1,0,.31A2.11,2.11,0,0,1,10,9.84,2,2,0,0,1,7.8,12H6.88A8.75,8.75,0,0,1,4,11.36a5.31,5.31,0,0,0-1-.29H.92A.92.92,0,0,1,0,10.15V5.54a.92.92,0,0,1,.92-.92h2a6.7,6.7,0,0,0,1-1.12c.24-.32.49-.63.77-.92.43-.46.2-1.6.92-2.31A.93.93,0,0,1,6.19,0,1.9,1.9,0,0,1,8,1a2.78,2.78,0,0,1,.25,1.34,3.09,3.09,0,0,1-.34,1.38H9.17A1.87,1.87,0,0,1,11,5.53,2.14,2.14,0,0,1,10.65,6.71ZM1.38,9.23a.46.46,0,1,0,.46.46A.46.46,0,0,0,1.38,9.23ZM9.17,4.62H6.65c0-.84.69-1.46.69-2.31S7.17.92,6.19.92C5.73,1.39,6,2.5,5.27,3.23c-.2.21-.37.43-.55.66C4.4,4.31,3.54,5.54,3,5.54H2.75v4.62H3a5.51,5.51,0,0,1,1.45.4,7.55,7.55,0,0,0,2.45.53h.87c.81,0,1.38-.32,1.38-1.2a2.57,2.57,0,0,0,0-.4,1.08,1.08,0,0,0,.47-.91,1,1,0,0,0-.13-.5A1.15,1.15,0,0,0,9.8,7.2a1.3,1.3,0,0,0-.25-.74c.34,0,.54-.66.54-.92A1,1,0,0,0,9.17,4.62Z" fill="#5b616a"/></g></g></svg>