<?xml version="1.0" encoding="UTF-8" standalone="no"?>
<!DOCTYPE svg PUBLIC "-//W3C//DTD SVG 1.1//EN"
 "http://www.w3.org/Graphics/SVG/1.1/DTD/svg11.dtd">
<!-- Generated by graphviz version 2.40.1 (20161225.0304)
 -->
<!-- Title: models_diagram Pages: 1 -->
<svg width="3997pt" height="225pt"
 viewBox="0.00 0.00 3997.00 225.00" xmlns="http://www.w3.org/2000/svg" xmlns:xlink="http://www.w3.org/1999/xlink">
<g id="graph0" class="graph" transform="scale(1 1) rotate(0) translate(4 221)">
<title>models_diagram</title>
<polygon fill="transparent" stroke="transparent" points="-4,4 -4,-221 3992.9991,-221 3992.9991,4 -4,4"/>
<!-- _diagram_info -->
<g id="node1" class="node">
<title>_diagram_info</title>
<text text-anchor="start" x="805.9457" y="-202.6" font-family="Times,serif" font-size="13.00" fill="#000000">Models diagram</text>
<text text-anchor="start" x="805.9457" y="-189.6" font-family="Times,serif" font-size="13.00" fill="#000000">Date: Feb 26 2019 &#45; 09:35</text>
<text text-anchor="start" x="805.9457" y="-176.6" font-family="Times,serif" font-size="13.00" fill="#000000">Migration version: 20190111231134</text>
<text text-anchor="start" x="805.9457" y="-163.6" font-family="Times,serif" font-size="13.00" fill="#000000">Generated by RailRoady 1.5.3</text>
<text text-anchor="start" x="805.9457" y="-150.6" font-family="Times,serif" font-size="13.00" fill="#000000">http://railroady.prestonlee.com</text>
</g>
<!-- Identity -->
<g id="node2" class="node">
<title>Identity</title>
<ellipse fill="none" stroke="#000000" cx="1438.9193" cy="-90" rx="37.7266" ry="18"/>
<text text-anchor="middle" x="1438.9193" y="-85.8" font-family="Times,serif" font-size="14.00" fill="#000000">Identity</text>
</g>
<!-- PersonalKeyConfiguration -->
<g id="node3" class="node">
<title>PersonalKeyConfiguration</title>
<polygon fill="none" stroke="#000000" points="1780.737,-198.5 1615.1016,-198.5 1615.1016,-162.5 1780.737,-162.5 1780.737,-198.5"/>
<text text-anchor="middle" x="1697.9193" y="-176.3" font-family="Times,serif" font-size="14.00" fill="#000000">PersonalKeyConfiguration</text>
</g>
<!-- NullServiceProvider -->
<g id="node4" class="node">
<title>NullServiceProvider</title>
<polygon fill="none" stroke="#000000" points="1929.5023,-198.5 1798.3363,-198.5 1798.3363,-162.5 1929.5023,-162.5 1929.5023,-198.5"/>
<text text-anchor="middle" x="1863.9193" y="-176.3" font-family="Times,serif" font-size="14.00" fill="#000000">NullServiceProvider</text>
</g>
<!-- BackupCodeConfiguration -->
<g id="node5" class="node">
<title>BackupCodeConfiguration</title>
<ellipse fill="none" stroke="#000000" cx="104.9193" cy="-90" rx="104.8387" ry="18"/>
<text text-anchor="middle" x="104.9193" y="-85.8" font-family="Times,serif" font-size="14.00" fill="#000000">BackupCodeConfiguration</text>
</g>
<!-- ServiceProviderRequest -->
<g id="node6" class="node">
<title>ServiceProviderRequest</title>
<ellipse fill="none" stroke="#000000" cx="2042.9193" cy="-180.5" rx="95.6413" ry="18"/>
<text text-anchor="middle" x="2042.9193" y="-176.3" font-family="Times,serif" font-size="14.00" fill="#000000">ServiceProviderRequest</text>
</g>
<!-- PhoneConfiguration -->
<g id="node7" class="node">
<title>PhoneConfiguration</title>
<ellipse fill="none" stroke="#000000" cx="308.9193" cy="-90" rx="81.1939" ry="18"/>
<text text-anchor="middle" x="308.9193" y="-85.8" font-family="Times,serif" font-size="14.00" fill="#000000">PhoneConfiguration</text>
</g>
<!-- PivCacConfiguration -->
<g id="node8" class="node">
<title>PivCacConfiguration</title>
<polygon fill="none" stroke="#000000" points="2291.1402,-198.5 2156.6984,-198.5 2156.6984,-162.5 2291.1402,-162.5 2291.1402,-198.5"/>
<text text-anchor="middle" x="2223.9193" y="-176.3" font-family="Times,serif" font-size="14.00" fill="#000000">PivCacConfiguration</text>
</g>
<!-- FederatedProtocols::Saml -->
<g id="node9" class="node">
<title>FederatedProtocols::Saml</title>
<polygon fill="none" stroke="#000000" points="2469.0613,-198.5 2308.7773,-198.5 2308.7773,-162.5 2469.0613,-162.5 2469.0613,-198.5"/>
<text text-anchor="middle" x="2388.9193" y="-176.3" font-family="Times,serif" font-size="14.00" fill="#000000">FederatedProtocols::Saml</text>
</g>
<!-- FederatedProtocols::Oidc -->
<g id="node10" class="node">
<title>FederatedProtocols::Oidc</title>
<polygon fill="none" stroke="#000000" points="2646.4955,-198.5 2487.3431,-198.5 2487.3431,-162.5 2646.4955,-162.5 2646.4955,-198.5"/>
<text text-anchor="middle" x="2566.9193" y="-176.3" font-family="Times,serif" font-size="14.00" fill="#000000">FederatedProtocols::Oidc</text>
</g>
<!-- UspsConfirmationCode -->
<g id="node11" class="node">
<title>UspsConfirmationCode</title>
<ellipse fill="none" stroke="#000000" cx="1118.9193" cy="-18" rx="93.7638" ry="18"/>
<text text-anchor="middle" x="1118.9193" y="-13.8" font-family="Times,serif" font-size="14.00" fill="#000000">UspsConfirmationCode</text>
</g>
<!-- EmailAddress -->
<g id="node12" class="node">
<title>EmailAddress</title>
<ellipse fill="none" stroke="#000000" cx="468.9193" cy="-90" rx="60.4202" ry="18"/>
<text text-anchor="middle" x="468.9193" y="-85.8" font-family="Times,serif" font-size="14.00" fill="#000000">EmailAddress</text>
</g>
<!-- WebauthnConfiguration -->
<g id="node13" class="node">
<title>WebauthnConfiguration</title>
<ellipse fill="none" stroke="#000000" cx="641.9193" cy="-90" rx="94.751" ry="18"/>
<text text-anchor="middle" x="641.9193" y="-85.8" font-family="Times,serif" font-size="14.00" fill="#000000">WebauthnConfiguration</text>
</g>
<!-- UspsConfirmation -->
<g id="node14" class="node">
<title>UspsConfirmation</title>
<ellipse fill="none" stroke="#000000" cx="2739.9193" cy="-180.5" rx="74.9293" ry="18"/>
<text text-anchor="middle" x="2739.9193" y="-176.3" font-family="Times,serif" font-size="14.00" fill="#000000">UspsConfirmation</text>
</g>
<!-- Authorization -->
<g id="node15" class="node">
<title>Authorization</title>
<ellipse fill="none" stroke="#000000" cx="813.9193" cy="-90" rx="59.4512" ry="18"/>
<text text-anchor="middle" x="813.9193" y="-85.8" font-family="Times,serif" font-size="14.00" fill="#000000">Authorization</text>
</g>
<!-- NullIdentity -->
<g id="node16" class="node">
<title>NullIdentity</title>
<polygon fill="none" stroke="#000000" points="2917.355,-198.5 2832.4836,-198.5 2832.4836,-162.5 2917.355,-162.5 2917.355,-198.5"/>
<text text-anchor="middle" x="2874.9193" y="-176.3" font-family="Times,serif" font-size="14.00" fill="#000000">NullIdentity</text>
</g>
<!-- AnonymousUser -->
<g id="node17" class="node">
<title>AnonymousUser</title>
<polygon fill="none" stroke="#000000" points="3046.3022,-198.5 2935.5364,-198.5 2935.5364,-162.5 3046.3022,-162.5 3046.3022,-198.5"/>
<text text-anchor="middle" x="2990.9193" y="-176.3" font-family="Times,serif" font-size="14.00" fill="#000000">AnonymousUser</text>
</g>
<!-- AccountResetRequest -->
<g id="node18" class="node">
<title>AccountResetRequest</title>
<ellipse fill="none" stroke="#000000" cx="978.9193" cy="-90" rx="88.4084" ry="18"/>
<text text-anchor="middle" x="978.9193" y="-85.8" font-family="Times,serif" font-size="14.00" fill="#000000">AccountResetRequest</text>
</g>
<!-- Device -->
<g id="node19" class="node">
<title>Device</title>
<ellipse fill="none" stroke="#000000" cx="1205.9193" cy="-90" rx="35.2956" ry="18"/>
<text text-anchor="middle" x="1205.9193" y="-85.8" font-family="Times,serif" font-size="14.00" fill="#000000">Device</text>
</g>
<!-- Event -->
<g id="node30" class="node">
<title>Event</title>
<ellipse fill="none" stroke="#000000" cx="1316.9193" cy="-18" rx="30.9706" ry="18"/>
<text text-anchor="middle" x="1316.9193" y="-13.8" font-family="Times,serif" font-size="14.00" fill="#000000">Event</text>
</g>
<!-- Device&#45;&gt;Event -->
<g id="edge1" class="edge">
<title>Device&#45;&gt;Event</title>
<path fill="none" stroke="#4b61fe" d="M1234.6635,-71.3551C1250.9104,-60.8166 1271.1786,-47.6697 1287.5302,-37.0632"/>
<ellipse fill="none" stroke="#4b61fe" cx="1231.2052" cy="-73.5983" rx="4" ry="4"/>
<polygon fill="#4b61fe" stroke="#4b61fe" points="1287.7715,-36.9067 1298.61,-35.2401 1291.9663,-34.1858 1296.1611,-31.4648 1296.1611,-31.4648 1296.1611,-31.4648 1291.9663,-34.1858 1293.7122,-27.6894 1287.7715,-36.9067 1287.7715,-36.9067"/>
</g>
<!-- NonexistentUser -->
<g id="node20" class="node">
<title>NonexistentUser</title>
<polygon fill="none" stroke="#000000" points="3174.0092,-198.5 3063.8294,-198.5 3063.8294,-162.5 3174.0092,-162.5 3174.0092,-198.5"/>
<text text-anchor="middle" x="3118.9193" y="-176.3" font-family="Times,serif" font-size="14.00" fill="#000000">NonexistentUser</text>
</g>
<!-- AuthAppConfiguration -->
<g id="node21" class="node">
<title>AuthAppConfiguration</title>
<polygon fill="none" stroke="#000000" points="3337.809,-198.5 3192.0296,-198.5 3192.0296,-162.5 3337.809,-162.5 3337.809,-198.5"/>
<text text-anchor="middle" x="3264.9193" y="-176.3" font-family="Times,serif" font-size="14.00" fill="#000000">AuthAppConfiguration</text>
</g>
<!-- AgencyIdentity -->
<g id="node22" class="node">
<title>AgencyIdentity</title>
<ellipse fill="none" stroke="#000000" cx="1559.9193" cy="-90" rx="65.2304" ry="18"/>
<text text-anchor="middle" x="1559.9193" y="-85.8" font-family="Times,serif" font-size="14.00" fill="#000000">AgencyIdentity</text>
</g>
<!-- RemoteSetting -->
<g id="node23" class="node">
<title>RemoteSetting</title>
<ellipse fill="none" stroke="#000000" cx="3418.9193" cy="-180.5" rx="62.8425" ry="18"/>
<text text-anchor="middle" x="3418.9193" y="-176.3" font-family="Times,serif" font-size="14.00" fill="#000000">RemoteSetting</text>
</g>
<!-- Profile -->
<g id="node24" class="node">
<title>Profile</title>
<ellipse fill="none" stroke="#000000" cx="1118.9193" cy="-90" rx="33.8857" ry="18"/>
<text text-anchor="middle" x="1118.9193" y="-85.8" font-family="Times,serif" font-size="14.00" fill="#000000">Profile</text>
</g>
<!-- Profile&#45;&gt;UspsConfirmationCode -->
<g id="edge2" class="edge">
<title>Profile&#45;&gt;UspsConfirmationCode</title>
<path fill="none" stroke="#753f68" d="M1118.9193,-63.8144C1118.9193,-58.2775 1118.9193,-52.4053 1118.9193,-46.7785"/>
<ellipse fill="none" stroke="#753f68" cx="1118.9194" cy="-67.8314" rx="4" ry="4"/>
<polygon fill="#753f68" stroke="#753f68" points="1118.9194,-46.4133 1123.4193,-36.4132 1118.9194,-41.4133 1118.9193,-36.4133 1118.9193,-36.4133 1118.9193,-36.4133 1118.9194,-41.4133 1114.4193,-36.4133 1118.9194,-46.4133 1118.9194,-46.4133"/>
</g>
<!-- OtpRequestsTracker -->
<g id="node25" class="node">
<title>OtpRequestsTracker</title>
<ellipse fill="none" stroke="#000000" cx="3581.9193" cy="-180.5" rx="82.4736" ry="18"/>
<text text-anchor="middle" x="3581.9193" y="-176.3" font-family="Times,serif" font-size="14.00" fill="#000000">OtpRequestsTracker</text>
</g>
<!-- Agency -->
<g id="node26" class="node">
<title>Agency</title>
<ellipse fill="none" stroke="#000000" cx="1559.9193" cy="-180.5" rx="37.7179" ry="18"/>
<text text-anchor="middle" x="1559.9193" y="-176.3" font-family="Times,serif" font-size="14.00" fill="#000000">Agency</text>
</g>
<!-- Agency&#45;&gt;AgencyIdentity -->
<g id="edge3" class="edge">
<title>Agency&#45;&gt;AgencyIdentity</title>
<path fill="none" stroke="#119b54" d="M1559.9193,-153.9687C1559.9193,-142.8402 1559.9193,-129.878 1559.9193,-118.5429"/>
<ellipse fill="none" stroke="#119b54" cx="1559.9194" cy="-158.186" rx="4" ry="4"/>
<polygon fill="#119b54" stroke="#119b54" points="1559.9194,-118.2868 1564.4193,-108.2867 1559.9194,-113.2868 1559.9193,-108.2868 1559.9193,-108.2868 1559.9193,-108.2868 1559.9194,-113.2868 1555.4193,-108.2868 1559.9194,-118.2868 1559.9194,-118.2868"/>
</g>
<!-- DocAuth -->
<g id="node27" class="node">
<title>DocAuth</title>
<ellipse fill="none" stroke="#000000" cx="1301.9193" cy="-90" rx="42.5542" ry="18"/>
<text text-anchor="middle" x="1301.9193" y="-85.8" font-family="Times,serif" font-size="14.00" fill="#000000">DocAuth</text>
</g>
<!-- ApplicationRecord -->
<g id="node28" class="node">
<title>ApplicationRecord</title>
<ellipse fill="none" stroke="#000000" cx="3759.9193" cy="-180.5" rx="77.2916" ry="18"/>
<text text-anchor="middle" x="3759.9193" y="-176.3" font-family="Times,serif" font-size="14.00" fill="#000000">ApplicationRecord</text>
</g>
<!-- ServiceProvider -->
<g id="node29" class="node">
<title>ServiceProvider</title>
<ellipse fill="none" stroke="#000000" cx="3921.9193" cy="-180.5" rx="67.1597" ry="18"/>
<text text-anchor="middle" x="3921.9193" y="-176.3" font-family="Times,serif" font-size="14.00" fill="#000000">ServiceProvider</text>
</g>
<!-- User -->
<g id="node31" class="node">
<title>User</title>
<ellipse fill="none" stroke="#000000" cx="1048.9193" cy="-180.5" rx="27" ry="18"/>
<text text-anchor="middle" x="1048.9193" y="-176.3" font-family="Times,serif" font-size="14.00" fill="#000000">User</text>
</g>
<!-- User&#45;&gt;Identity -->
<g id="edge5" class="edge">
<title>User&#45;&gt;Identity</title>
<path fill="none" stroke="#a58adf" d="M1083.7033,-174.4878C1145.356,-163.5111 1277.6078,-138.5201 1386.9193,-108 1391.0082,-106.8584 1395.2444,-105.5707 1399.4535,-104.2221"/>
<ellipse fill="none" stroke="#a58adf" cx="1079.4209" cy="-175.2457" rx="4" ry="4"/>
<polygon fill="#a58adf" stroke="#a58adf" points="1399.6532,-104.1559 1410.5617,-105.2756 1404.3985,-102.5804 1409.1438,-101.0049 1409.1438,-101.0049 1409.1438,-101.0049 1404.3985,-102.5804 1407.7258,-96.7341 1399.6532,-104.1559 1399.6532,-104.1559"/>
</g>
<!-- User&#45;&gt;BackupCodeConfiguration -->
<g id="edge14" class="edge">
<title>User&#45;&gt;BackupCodeConfiguration</title>
<path fill="none" stroke="#7537c6" d="M1031.7515,-157.8329C1026.3664,-152.3319 1019.9655,-147.1365 1012.9193,-144 932.2387,-108.0862 306.7825,-116.9005 218.9193,-108 209.1263,-107.008 198.8939,-105.7339 188.7513,-104.3224"/>
<ellipse fill="none" stroke="#7537c6" cx="1034.4969" cy="-160.8711" rx="4" ry="4"/>
<polygon fill="#7537c6" stroke="#7537c6" points="188.5564,-104.2945 179.299,-98.4164 183.6073,-103.5825 178.6582,-102.8706 178.6582,-102.8706 178.6582,-102.8706 183.6073,-103.5825 178.0175,-107.3248 188.5564,-104.2945 188.5564,-104.2945"/>
</g>
<!-- User&#45;&gt;PhoneConfiguration -->
<g id="edge10" class="edge">
<title>User&#45;&gt;PhoneConfiguration</title>
<path fill="none" stroke="#2b1f9e" d="M1031.7238,-157.8945C1026.3385,-152.394 1019.9444,-147.1835 1012.9193,-144 888.6286,-87.6766 535.2778,-125.2795 399.9193,-108 392.4772,-107.05 384.7301,-105.8496 377.0356,-104.5215"/>
<ellipse fill="none" stroke="#2b1f9e" cx="1034.4697" cy="-160.9289" rx="4" ry="4"/>
<polygon fill="#2b1f9e" stroke="#2b1f9e" points="376.8226,-104.4833 367.7775,-98.2834 371.9016,-103.5978 366.9806,-102.7123 366.9806,-102.7123 366.9806,-102.7123 371.9016,-103.5978 366.1837,-107.1412 376.8226,-104.4833 376.8226,-104.4833"/>
</g>
<!-- User&#45;&gt;EmailAddress -->
<g id="edge11" class="edge">
<title>User&#45;&gt;EmailAddress</title>
<path fill="none" stroke="#2cd1fe" d="M1031.688,-157.9727C1026.3024,-152.4728 1019.9171,-147.243 1012.9193,-144 916.8737,-99.4891 642.3327,-125.4307 537.9193,-108 532.8593,-107.1553 527.6296,-106.1124 522.4177,-104.9577"/>
<ellipse fill="none" stroke="#2cd1fe" cx="1034.4345" cy="-161.002" rx="4" ry="4"/>
<polygon fill="#2cd1fe" stroke="#2cd1fe" points="522.2014,-104.907 513.4943,-98.241 517.3337,-103.7645 512.466,-102.6219 512.466,-102.6219 512.466,-102.6219 517.3337,-103.7645 511.4377,-107.0028 522.2014,-104.907 522.2014,-104.907"/>
</g>
<!-- User&#45;&gt;WebauthnConfiguration -->
<g id="edge12" class="edge">
<title>User&#45;&gt;WebauthnConfiguration</title>
<path fill="none" stroke="#08eeae" d="M1031.5598,-158.239C1026.1733,-152.7412 1019.8195,-147.4459 1012.9193,-144 905.794,-90.5028 864.2665,-126.2135 745.9193,-108 737.9364,-106.7714 729.6193,-105.4323 721.3198,-104.0571"/>
<ellipse fill="none" stroke="#08eeae" cx="1034.309" cy="-161.2516" rx="4" ry="4"/>
<polygon fill="#08eeae" stroke="#08eeae" points="721.0911,-104.0189 711.972,-97.9287 716.1598,-103.1929 711.2285,-102.3668 711.2285,-102.3668 711.2285,-102.3668 716.1598,-103.1929 710.4851,-106.805 721.0911,-104.0189 721.0911,-104.0189"/>
</g>
<!-- User&#45;&gt;Authorization -->
<g id="edge4" class="edge">
<title>User&#45;&gt;Authorization</title>
<path fill="none" stroke="#603d5f" d="M1030.6285,-158.1983C1025.3796,-152.9191 1019.3271,-147.7427 1012.9193,-144 1009.705,-142.1226 926.6164,-119.8773 868.8322,-104.5314"/>
<ellipse fill="none" stroke="#603d5f" cx="1033.662" cy="-161.4417" rx="4" ry="4"/>
<polygon fill="#603d5f" stroke="#603d5f" points="868.7433,-104.5078 860.2323,-97.5931 863.9106,-103.2252 859.0779,-101.9426 859.0779,-101.9426 859.0779,-101.9426 863.9106,-103.2252 857.9236,-106.292 868.7433,-104.5078 868.7433,-104.5078"/>
</g>
<!-- User&#45;&gt;AccountResetRequest -->
<g id="edge9" class="edge">
<title>User&#45;&gt;AccountResetRequest</title>
<path fill="none" stroke="#bfece3" d="M1031.2067,-157.6002C1021.053,-144.4728 1008.3072,-127.9943 997.9418,-114.5934"/>
<ellipse fill="none" stroke="#bfece3" cx="1033.9574" cy="-161.1564" rx="4" ry="4"/>
<ellipse fill="#bfece3" stroke="#bfece3" cx="995.212" cy="-111.0642" rx="4" ry="4"/>
</g>
<!-- User&#45;&gt;Device -->
<g id="edge15" class="edge">
<title>User&#45;&gt;Device</title>
<path fill="none" stroke="#5fe8c6" d="M1076.68,-164.4978C1103.7637,-148.8859 1144.9467,-125.1466 1173.5155,-108.6786"/>
<ellipse fill="none" stroke="#5fe8c6" cx="1072.9098" cy="-166.6711" rx="4" ry="4"/>
<polygon fill="#5fe8c6" stroke="#5fe8c6" points="1173.6502,-108.601 1184.5613,-107.5056 1177.9821,-106.104 1182.314,-103.6069 1182.314,-103.6069 1182.314,-103.6069 1177.9821,-106.104 1180.0666,-99.7082 1173.6502,-108.601 1173.6502,-108.601"/>
</g>
<!-- User&#45;&gt;AgencyIdentity -->
<g id="edge6" class="edge">
<title>User&#45;&gt;AgencyIdentity</title>
<path fill="none" stroke="#0f11a1" d="M1083.7577,-175.6176C1158.0044,-165.0158 1337.1861,-138.3833 1485.9193,-108 1491.182,-106.9249 1496.6379,-105.7378 1502.0933,-104.5012"/>
<ellipse fill="none" stroke="#0f11a1" cx="1079.6089" cy="-176.2078" rx="4" ry="4"/>
<polygon fill="#0f11a1" stroke="#0f11a1" points="1502.1285,-104.4931 1512.8862,-106.6193 1506.9994,-103.3643 1511.8703,-102.2355 1511.8703,-102.2355 1511.8703,-102.2355 1506.9994,-103.3643 1510.8544,-97.8516 1502.1285,-104.4931 1502.1285,-104.4931"/>
</g>
<!-- User&#45;&gt;Profile -->
<g id="edge7" class="edge">
<title>User&#45;&gt;Profile</title>
<path fill="none" stroke="#ebf72a" d="M1066.4422,-157.8455C1076.6281,-144.6765 1089.4708,-128.0727 1099.9017,-114.587"/>
<ellipse fill="none" stroke="#ebf72a" cx="1063.8812" cy="-161.1564" rx="4" ry="4"/>
<polygon fill="#ebf72a" stroke="#ebf72a" points="1099.9212,-114.5618 1109.599,-109.405 1102.9803,-110.6068 1106.0395,-106.6518 1106.0395,-106.6518 1106.0395,-106.6518 1102.9803,-110.6068 1102.48,-103.8986 1099.9212,-114.5618 1099.9212,-114.5618"/>
</g>
<!-- User&#45;&gt;DocAuth -->
<g id="edge13" class="edge">
<title>User&#45;&gt;DocAuth</title>
<path fill="none" stroke="#6f99f1" d="M1080.3562,-169.2548C1126.1388,-152.878 1211.1744,-122.4601 1261.5375,-104.4449"/>
<ellipse fill="none" stroke="#6f99f1" cx="1076.4872" cy="-170.6387" rx="4" ry="4"/>
<ellipse fill="#6f99f1" stroke="#6f99f1" cx="1265.5452" cy="-103.0113" rx="4" ry="4"/>
</g>
<!-- User&#45;&gt;Event -->
<g id="edge8" class="edge">
<title>User&#45;&gt;Event</title>
<path fill="none" stroke="#607185" d="M1083.7874,-177.5189C1156.5385,-170.5011 1320.5347,-150.2505 1353.9193,-108 1369.5907,-88.1668 1354.3036,-60.7727 1338.8933,-41.4313"/>
<ellipse fill="none" stroke="#607185" cx="1079.7776" cy="-177.8966" rx="4" ry="4"/>
<polygon fill="#607185" stroke="#607185" points="1338.8099,-41.3321 1335.8144,-30.7833 1335.5906,-37.5064 1332.3712,-33.6806 1332.3712,-33.6806 1332.3712,-33.6806 1335.5906,-37.5064 1328.9281,-36.578 1338.8099,-41.3321 1338.8099,-41.3321"/>
</g>
</g>
</svg>
