<?xml version="1.0" encoding="UTF-8" standalone="no"?>
<svg width="58px" height="8px" viewBox="0 0 58 8" version="1.1" xmlns="http://www.w3.org/2000/svg" xmlns:xlink="http://www.w3.org/1999/xlink">
    <!-- Generator: Sketch 39.1 (31720) - http://www.bohemiancoding.com/sketch -->
    <title>hr-blue-2</title>
    <desc>Created with Sketch.</desc>
    <defs></defs>
    <g id="Page-3" stroke="none" stroke-width="1" fill="none" fill-rule="evenodd">
        <g id="hr-blue-2" fill="#00BFE7">
            <path d="M14,4 C14,1.790861 15.7867947,0 17.9992748,0 L40.0007252,0 C42.2094637,0 44,1.79535615 44,4 L44,4 C44,6.209139 42.2132053,8 40.0007252,8 L17.9992748,8 C15.7905363,8 14,6.20464385 14,4 L14,4 Z" id="Rectangle-234-Copy-8" transform="translate(29.000000, 4.000000) rotate(-180.000000) translate(-29.000000, -4.000000) "></path>
            <path d="M50,4 C50,1.790861 51.7953562,0 54,0 L54,0 C56.209139,0 58,1.79535615 58,4 L58,4 C58,6.209139 56.2046438,8 54,8 L54,8 C51.790861,8 50,6.20464385 50,4 L50,4 Z" id="Rectangle-234-Copy-10" transform="translate(54.000000, 4.000000) rotate(-180.000000) translate(-54.000000, -4.000000) "></path>
            <path d="M1.13509202e-13,4 C1.13509202e-13,1.790861 1.79535615,0 4,0 L4,0 C6.209139,0 8,1.79535615 8,4 L8,4 C8,6.209139 6.20464385,8 4,8 L4,8 C1.790861,8 1.13509202e-13,6.20464385 1.13509202e-13,4 L1.13509202e-13,4 Z" id="Rectangle-234-Copy-11" transform="translate(4.000000, 4.000000) rotate(-180.000000) translate(-4.000000, -4.000000) "></path>
        </g>
    </g>
</svg>