<?xml version="1.0" encoding="UTF-8" standalone="no"?>
<svg width="58px" height="8px" viewBox="0 0 58 8" version="1.1" xmlns="http://www.w3.org/2000/svg" xmlns:xlink="http://www.w3.org/1999/xlink">
    <!-- Generator: Sketch 39.1 (31720) - http://www.bohemiancoding.com/sketch -->
    <title>hr-blue-1</title>
    <desc>Created with Sketch.</desc>
    <defs></defs>
    <g id="Page-3" stroke="none" stroke-width="1" fill="none" fill-rule="evenodd">
        <g id="hr-blue-1" fill="#00BFE7">
            <path d="M5.6177285e-14,4 C5.6177285e-14,1.790861 1.78679466,0 3.9992748,0 L26.0007252,0 C28.2094637,0 30,1.79535615 30,4 L30,4 C30,6.209139 28.2132053,8 26.0007252,8 L3.9992748,8 C1.79053632,8 5.6177285e-14,6.20464385 5.6177285e-14,4 L5.6177285e-14,4 Z" id="Rectangle-234-Copy-8" transform="translate(15.000000, 4.000000) rotate(-180.000000) translate(-15.000000, -4.000000) "></path>
            <path d="M36,4 C36,1.790861 37.7953562,0 40,0 L40,0 C42.209139,0 44,1.79535615 44,4 L44,4 C44,6.209139 42.2046438,8 40,8 L40,8 C37.790861,8 36,6.20464385 36,4 L36,4 Z" id="Rectangle-234-Copy-10" transform="translate(40.000000, 4.000000) rotate(-180.000000) translate(-40.000000, -4.000000) "></path>
            <path d="M50,4 C50,1.790861 51.7953562,0 54,0 L54,0 C56.209139,0 58,1.79535615 58,4 L58,4 C58,6.209139 56.2046438,8 54,8 L54,8 C51.790861,8 50,6.20464385 50,4 L50,4 Z" id="Rectangle-234-Copy-11" transform="translate(54.000000, 4.000000) rotate(-180.000000) translate(-54.000000, -4.000000) "></path>
        </g>
    </g>
</svg>