<?xml version="1.0" encoding="UTF-8" standalone="no"?>
<svg width="114px" height="8px" viewBox="0 0 114 8" version="1.1" xmlns="http://www.w3.org/2000/svg" xmlns:xlink="http://www.w3.org/1999/xlink">
    <!-- Generator: Sketch 39.1 (31720) - http://www.bohemiancoding.com/sketch -->
    <title>separator4</title>
    <desc>Created with Sketch.</desc>
    <defs></defs>
    <g id="Page-3" stroke="none" stroke-width="1" fill="none" fill-rule="evenodd">
        <g id="separator4" fill="#E21C3D">
            <path d="M-8.8817842e-16,4 C-8.8817842e-16,1.790861 1.79642476,0 4.00002553,0 L35.9999745,0 C38.2091276,0 40,1.79535615 40,4 L40,4 C40,6.209139 38.2035752,8 35.9999745,8 L4.00002553,8 C1.79087243,8 -8.8817842e-16,6.20464385 -8.8817842e-16,4 L-8.8817842e-16,4 Z" id="Rectangle-234-Copy-8"></path>
            <path d="M46,4 C46,1.790861 47.7953562,0 50,0 L50,0 C52.209139,0 54,1.79535615 54,4 L54,4 C54,6.209139 52.2046438,8 50,8 L50,8 C47.790861,8 46,6.20464385 46,4 L46,4 Z" id="Rectangle-234-Copy-10"></path>
            <path d="M60,4 C60,1.790861 61.7964248,0 64.0000255,0 L95.9999745,0 C98.2091276,0 100,1.79535615 100,4 L100,4 C100,6.209139 98.2035752,8 95.9999745,8 L64.0000255,8 C61.7908724,8 60,6.20464385 60,4 L60,4 Z" id="Rectangle-234-Copy-8"></path>
            <path d="M106,4 C106,1.790861 107.795356,0 110,0 L110,0 C112.209139,0 114,1.79535615 114,4 L114,4 C114,6.209139 112.204644,8 110,8 L110,8 C107.790861,8 106,6.20464385 106,4 L106,4 Z" id="Rectangle-234-Copy-10"></path>
        </g>
    </g>
</svg>