<?xml version="1.0" encoding="UTF-8" standalone="no"?>
<svg width="91px" height="8px" viewBox="0 0 91 8" version="1.1" xmlns="http://www.w3.org/2000/svg" xmlns:xlink="http://www.w3.org/1999/xlink">
    <!-- Generator: Sketch 39.1 (31720) - http://www.bohemiancoding.com/sketch -->
    <title>separator5</title>
    <desc>Created with Sketch.</desc>
    <defs></defs>
    <g id="Page-3" stroke="none" stroke-width="1" fill="none" fill-rule="evenodd">
        <g id="separator5" fill="#E21C3D">
            <path d="M28,4 C28,1.790861 29.7874392,0 32.0098757,0 L72.9901243,0 C75.2047175,0 77,1.79535615 77,4 L77,4 C77,6.209139 75.2125608,8 72.9901243,8 L32.0098757,8 C29.7952825,8 28,6.20464385 28,4 L28,4 Z" id="Rectangle-234-Copy-8"></path>
            <path d="M-1.77635684e-16,4 C-1.77635684e-16,1.790861 1.79535615,-9.09494702e-13 4,-9.09494702e-13 L4,-9.09494702e-13 C6.209139,-9.09494702e-13 8,1.79535615 8,4 L8,4 C8,6.209139 6.20464385,8 4,8 L4,8 C1.790861,8 -1.77635684e-16,6.20464385 -1.77635684e-16,4 L-1.77635684e-16,4 Z" id="Rectangle-234-Copy-10"></path>
            <path d="M14,4 C14,1.790861 15.7953562,0 18,0 L18,0 C20.209139,0 22,1.79535615 22,4 L22,4 C22,6.209139 20.2046438,8 18,8 L18,8 C15.790861,8 14,6.20464385 14,4 L14,4 Z" id="Rectangle-234-Copy-11"></path>
            <path d="M83,4 C83,1.790861 84.7953562,0 87,0 L87,0 C89.209139,0 91,1.79535615 91,4 L91,4 C91,6.209139 89.2046438,8 87,8 L87,8 C84.790861,8 83,6.20464385 83,4 L83,4 Z" id="Rectangle-234-Copy-12"></path>
        </g>
    </g>
</svg>