<?xml version="1.0" encoding="UTF-8" standalone="no"?>
<svg width="88px" height="8px" viewBox="0 0 88 8" version="1.1" xmlns="http://www.w3.org/2000/svg" xmlns:xlink="http://www.w3.org/1999/xlink">
    <!-- Generator: Sketch 39.1 (31720) - http://www.bohemiancoding.com/sketch -->
    <title>separator2</title>
    <desc>Created with Sketch.</desc>
    <defs></defs>
    <g id="Page-3" stroke="none" stroke-width="1" fill="none" fill-rule="evenodd">
        <g id="Bar-+-Dots" fill="#E21C3D">
            <path d="M-1.33226763e-15,4 C-1.33226763e-15,1.790861 1.79568082,0 4.0065556,0 L55.9934444,0 C58.206204,0 60,1.79535615 60,4 L60,4 C60,6.209139 58.2043192,8 55.9934444,8 L4.0065556,8 C1.79379604,8 -1.33226763e-15,6.20464385 -1.33226763e-15,4 L-1.33226763e-15,4 Z" id="Rectangle-234-Copy-8"></path>
            <path d="M66,4 C66,1.790861 67.7953562,0 70,0 L70,0 C72.209139,0 74,1.79535615 74,4 L74,4 C74,6.209139 72.2046438,8 70,8 L70,8 C67.790861,8 66,6.20464385 66,4 L66,4 Z" id="Rectangle-234-Copy-10"></path>
            <path d="M80,4 C80,1.790861 81.7953562,0 84,0 L84,0 C86.209139,0 88,1.79535615 88,4 L88,4 C88,6.209139 86.2046438,8 84,8 L84,8 C81.790861,8 80,6.20464385 80,4 L80,4 Z" id="Rectangle-234-Copy-11"></path>
        </g>
    </g>
</svg>