<?xml version="1.0" encoding="UTF-8" standalone="no"?>
<!DOCTYPE svg PUBLIC "-//W3C//DTD SVG 1.1//EN"
 "http://www.w3.org/Graphics/SVG/1.1/DTD/svg11.dtd">
<!-- Generated by graphviz version 2.40.1 (20161225.0304)
 -->
<!-- Title: models_diagram Pages: 1 -->
<svg width="4120pt" height="225pt"
 viewBox="0.00 0.00 4120.00 225.00" xmlns="http://www.w3.org/2000/svg" xmlns:xlink="http://www.w3.org/1999/xlink">
<g id="graph0" class="graph" transform="scale(1 1) rotate(0) translate(4 221)">
<title>models_diagram</title>
<polygon fill="transparent" stroke="transparent" points="-4,4 -4,-221 4115.9991,-221 4115.9991,4 -4,4"/>
<!-- _diagram_info -->
<g id="node1" class="node">
<title>_diagram_info</title>
<text text-anchor="start" x="874.2316" y="-202.6" font-family="Times,serif" font-size="13.00" fill="#000000">Models diagram</text>
<text text-anchor="start" x="874.2316" y="-189.6" font-family="Times,serif" font-size="13.00" fill="#000000">Date: Mar 18 2019 &#45; 11:26</text>
<text text-anchor="start" x="874.2316" y="-176.6" font-family="Times,serif" font-size="13.00" fill="#000000">Migration version: 20190225005651</text>
<text text-anchor="start" x="874.2316" y="-163.6" font-family="Times,serif" font-size="13.00" fill="#000000">Generated by RailRoady 1.5.3</text>
<text text-anchor="start" x="874.2316" y="-150.6" font-family="Times,serif" font-size="13.00" fill="#000000">http://railroady.prestonlee.com</text>
</g>
<!-- Identity -->
<g id="node2" class="node">
<title>Identity</title>
<ellipse fill="none" stroke="#000000" cx="1561.9193" cy="-90" rx="37.7266" ry="18"/>
<text text-anchor="middle" x="1561.9193" y="-85.8" font-family="Times,serif" font-size="14.00" fill="#000000">Identity</text>
</g>
<!-- PersonalKeyConfiguration -->
<g id="node3" class="node">
<title>PersonalKeyConfiguration</title>
<polygon fill="none" stroke="#000000" points="1903.737,-198.5 1738.1016,-198.5 1738.1016,-162.5 1903.737,-162.5 1903.737,-198.5"/>
<text text-anchor="middle" x="1820.9193" y="-176.3" font-family="Times,serif" font-size="14.00" fill="#000000">PersonalKeyConfiguration</text>
</g>
<!-- NullServiceProvider -->
<g id="node4" class="node">
<title>NullServiceProvider</title>
<polygon fill="none" stroke="#000000" points="2052.5023,-198.5 1921.3363,-198.5 1921.3363,-162.5 2052.5023,-162.5 2052.5023,-198.5"/>
<text text-anchor="middle" x="1986.9193" y="-176.3" font-family="Times,serif" font-size="14.00" fill="#000000">NullServiceProvider</text>
</g>
<!-- BackupCodeConfiguration -->
<g id="node5" class="node">
<title>BackupCodeConfiguration</title>
<ellipse fill="none" stroke="#000000" cx="104.9193" cy="-90" rx="104.8387" ry="18"/>
<text text-anchor="middle" x="104.9193" y="-85.8" font-family="Times,serif" font-size="14.00" fill="#000000">BackupCodeConfiguration</text>
</g>
<!-- ServiceProviderRequest -->
<g id="node6" class="node">
<title>ServiceProviderRequest</title>
<ellipse fill="none" stroke="#000000" cx="2165.9193" cy="-180.5" rx="95.6413" ry="18"/>
<text text-anchor="middle" x="2165.9193" y="-176.3" font-family="Times,serif" font-size="14.00" fill="#000000">ServiceProviderRequest</text>
</g>
<!-- PhoneConfiguration -->
<g id="node7" class="node">
<title>PhoneConfiguration</title>
<ellipse fill="none" stroke="#000000" cx="308.9193" cy="-90" rx="81.1939" ry="18"/>
<text text-anchor="middle" x="308.9193" y="-85.8" font-family="Times,serif" font-size="14.00" fill="#000000">PhoneConfiguration</text>
</g>
<!-- PivCacConfiguration -->
<g id="node8" class="node">
<title>PivCacConfiguration</title>
<polygon fill="none" stroke="#000000" points="2414.1402,-198.5 2279.6984,-198.5 2279.6984,-162.5 2414.1402,-162.5 2414.1402,-198.5"/>
<text text-anchor="middle" x="2346.9193" y="-176.3" font-family="Times,serif" font-size="14.00" fill="#000000">PivCacConfiguration</text>
</g>
<!-- FederatedProtocols::Saml -->
<g id="node9" class="node">
<title>FederatedProtocols::Saml</title>
<polygon fill="none" stroke="#000000" points="2592.0613,-198.5 2431.7773,-198.5 2431.7773,-162.5 2592.0613,-162.5 2592.0613,-198.5"/>
<text text-anchor="middle" x="2511.9193" y="-176.3" font-family="Times,serif" font-size="14.00" fill="#000000">FederatedProtocols::Saml</text>
</g>
<!-- FederatedProtocols::Oidc -->
<g id="node10" class="node">
<title>FederatedProtocols::Oidc</title>
<polygon fill="none" stroke="#000000" points="2769.4955,-198.5 2610.3431,-198.5 2610.3431,-162.5 2769.4955,-162.5 2769.4955,-198.5"/>
<text text-anchor="middle" x="2689.9193" y="-176.3" font-family="Times,serif" font-size="14.00" fill="#000000">FederatedProtocols::Oidc</text>
</g>
<!-- UspsConfirmationCode -->
<g id="node11" class="node">
<title>UspsConfirmationCode</title>
<ellipse fill="none" stroke="#000000" cx="1118.9193" cy="-18" rx="93.7638" ry="18"/>
<text text-anchor="middle" x="1118.9193" y="-13.8" font-family="Times,serif" font-size="14.00" fill="#000000">UspsConfirmationCode</text>
</g>
<!-- EmailAddress -->
<g id="node12" class="node">
<title>EmailAddress</title>
<ellipse fill="none" stroke="#000000" cx="468.9193" cy="-90" rx="60.4202" ry="18"/>
<text text-anchor="middle" x="468.9193" y="-85.8" font-family="Times,serif" font-size="14.00" fill="#000000">EmailAddress</text>
</g>
<!-- WebauthnConfiguration -->
<g id="node13" class="node">
<title>WebauthnConfiguration</title>
<ellipse fill="none" stroke="#000000" cx="641.9193" cy="-90" rx="94.751" ry="18"/>
<text text-anchor="middle" x="641.9193" y="-85.8" font-family="Times,serif" font-size="14.00" fill="#000000">WebauthnConfiguration</text>
</g>
<!-- UspsConfirmation -->
<g id="node14" class="node">
<title>UspsConfirmation</title>
<ellipse fill="none" stroke="#000000" cx="2862.9193" cy="-180.5" rx="74.9293" ry="18"/>
<text text-anchor="middle" x="2862.9193" y="-176.3" font-family="Times,serif" font-size="14.00" fill="#000000">UspsConfirmation</text>
</g>
<!-- Authorization -->
<g id="node15" class="node">
<title>Authorization</title>
<ellipse fill="none" stroke="#000000" cx="813.9193" cy="-90" rx="59.4512" ry="18"/>
<text text-anchor="middle" x="813.9193" y="-85.8" font-family="Times,serif" font-size="14.00" fill="#000000">Authorization</text>
</g>
<!-- NullIdentity -->
<g id="node16" class="node">
<title>NullIdentity</title>
<polygon fill="none" stroke="#000000" points="3040.355,-198.5 2955.4836,-198.5 2955.4836,-162.5 3040.355,-162.5 3040.355,-198.5"/>
<text text-anchor="middle" x="2997.9193" y="-176.3" font-family="Times,serif" font-size="14.00" fill="#000000">NullIdentity</text>
</g>
<!-- AnonymousUser -->
<g id="node17" class="node">
<title>AnonymousUser</title>
<polygon fill="none" stroke="#000000" points="3169.3022,-198.5 3058.5364,-198.5 3058.5364,-162.5 3169.3022,-162.5 3169.3022,-198.5"/>
<text text-anchor="middle" x="3113.9193" y="-176.3" font-family="Times,serif" font-size="14.00" fill="#000000">AnonymousUser</text>
</g>
<!-- AccountResetRequest -->
<g id="node18" class="node">
<title>AccountResetRequest</title>
<ellipse fill="none" stroke="#000000" cx="978.9193" cy="-90" rx="88.4084" ry="18"/>
<text text-anchor="middle" x="978.9193" y="-85.8" font-family="Times,serif" font-size="14.00" fill="#000000">AccountResetRequest</text>
</g>
<!-- Device -->
<g id="node19" class="node">
<title>Device</title>
<ellipse fill="none" stroke="#000000" cx="1205.9193" cy="-90" rx="35.2956" ry="18"/>
<text text-anchor="middle" x="1205.9193" y="-85.8" font-family="Times,serif" font-size="14.00" fill="#000000">Device</text>
</g>
<!-- Event -->
<g id="node30" class="node">
<title>Event</title>
<ellipse fill="none" stroke="#000000" cx="1316.9193" cy="-18" rx="30.9706" ry="18"/>
<text text-anchor="middle" x="1316.9193" y="-13.8" font-family="Times,serif" font-size="14.00" fill="#000000">Event</text>
</g>
<!-- Device&#45;&gt;Event -->
<g id="edge1" class="edge">
<title>Device&#45;&gt;Event</title>
<path fill="none" stroke="#f588e3" d="M1234.6635,-71.3551C1250.9104,-60.8166 1271.1786,-47.6697 1287.5302,-37.0632"/>
<ellipse fill="none" stroke="#f588e3" cx="1231.2052" cy="-73.5983" rx="4" ry="4"/>
<polygon fill="#f588e3" stroke="#f588e3" points="1287.7715,-36.9067 1298.61,-35.2401 1291.9663,-34.1858 1296.1611,-31.4648 1296.1611,-31.4648 1296.1611,-31.4648 1291.9663,-34.1858 1293.7122,-27.6894 1287.7715,-36.9067 1287.7715,-36.9067"/>
</g>
<!-- NonexistentUser -->
<g id="node20" class="node">
<title>NonexistentUser</title>
<polygon fill="none" stroke="#000000" points="3297.0092,-198.5 3186.8294,-198.5 3186.8294,-162.5 3297.0092,-162.5 3297.0092,-198.5"/>
<text text-anchor="middle" x="3241.9193" y="-176.3" font-family="Times,serif" font-size="14.00" fill="#000000">NonexistentUser</text>
</g>
<!-- AuthAppConfiguration -->
<g id="node21" class="node">
<title>AuthAppConfiguration</title>
<polygon fill="none" stroke="#000000" points="3460.809,-198.5 3315.0296,-198.5 3315.0296,-162.5 3460.809,-162.5 3460.809,-198.5"/>
<text text-anchor="middle" x="3387.9193" y="-176.3" font-family="Times,serif" font-size="14.00" fill="#000000">AuthAppConfiguration</text>
</g>
<!-- AgencyIdentity -->
<g id="node22" class="node">
<title>AgencyIdentity</title>
<ellipse fill="none" stroke="#000000" cx="1682.9193" cy="-90" rx="65.2304" ry="18"/>
<text text-anchor="middle" x="1682.9193" y="-85.8" font-family="Times,serif" font-size="14.00" fill="#000000">AgencyIdentity</text>
</g>
<!-- RemoteSetting -->
<g id="node23" class="node">
<title>RemoteSetting</title>
<ellipse fill="none" stroke="#000000" cx="3541.9193" cy="-180.5" rx="62.8425" ry="18"/>
<text text-anchor="middle" x="3541.9193" y="-176.3" font-family="Times,serif" font-size="14.00" fill="#000000">RemoteSetting</text>
</g>
<!-- Profile -->
<g id="node24" class="node">
<title>Profile</title>
<ellipse fill="none" stroke="#000000" cx="1118.9193" cy="-90" rx="33.8857" ry="18"/>
<text text-anchor="middle" x="1118.9193" y="-85.8" font-family="Times,serif" font-size="14.00" fill="#000000">Profile</text>
</g>
<!-- Profile&#45;&gt;UspsConfirmationCode -->
<g id="edge2" class="edge">
<title>Profile&#45;&gt;UspsConfirmationCode</title>
<path fill="none" stroke="#df9b36" d="M1118.9193,-63.8144C1118.9193,-58.2775 1118.9193,-52.4053 1118.9193,-46.7785"/>
<ellipse fill="none" stroke="#df9b36" cx="1118.9194" cy="-67.8314" rx="4" ry="4"/>
<polygon fill="#df9b36" stroke="#df9b36" points="1118.9194,-46.4133 1123.4193,-36.4132 1118.9194,-41.4133 1118.9193,-36.4133 1118.9193,-36.4133 1118.9193,-36.4133 1118.9194,-41.4133 1114.4193,-36.4133 1118.9194,-46.4133 1118.9194,-46.4133"/>
</g>
<!-- OtpRequestsTracker -->
<g id="node25" class="node">
<title>OtpRequestsTracker</title>
<ellipse fill="none" stroke="#000000" cx="3704.9193" cy="-180.5" rx="82.4736" ry="18"/>
<text text-anchor="middle" x="3704.9193" y="-176.3" font-family="Times,serif" font-size="14.00" fill="#000000">OtpRequestsTracker</text>
</g>
<!-- Agency -->
<g id="node26" class="node">
<title>Agency</title>
<ellipse fill="none" stroke="#000000" cx="1682.9193" cy="-180.5" rx="37.7179" ry="18"/>
<text text-anchor="middle" x="1682.9193" y="-176.3" font-family="Times,serif" font-size="14.00" fill="#000000">Agency</text>
</g>
<!-- Agency&#45;&gt;AgencyIdentity -->
<g id="edge3" class="edge">
<title>Agency&#45;&gt;AgencyIdentity</title>
<path fill="none" stroke="#214e91" d="M1682.9193,-153.9687C1682.9193,-142.8402 1682.9193,-129.878 1682.9193,-118.5429"/>
<ellipse fill="none" stroke="#214e91" cx="1682.9194" cy="-158.186" rx="4" ry="4"/>
<polygon fill="#214e91" stroke="#214e91" points="1682.9194,-118.2868 1687.4193,-108.2867 1682.9194,-113.2868 1682.9193,-108.2868 1682.9193,-108.2868 1682.9193,-108.2868 1682.9194,-113.2868 1678.4193,-108.2868 1682.9194,-118.2868 1682.9194,-118.2868"/>
</g>
<!-- DocAuth -->
<g id="node27" class="node">
<title>DocAuth</title>
<ellipse fill="none" stroke="#000000" cx="1301.9193" cy="-90" rx="42.5542" ry="18"/>
<text text-anchor="middle" x="1301.9193" y="-85.8" font-family="Times,serif" font-size="14.00" fill="#000000">DocAuth</text>
</g>
<!-- ApplicationRecord -->
<g id="node28" class="node">
<title>ApplicationRecord</title>
<ellipse fill="none" stroke="#000000" cx="3882.9193" cy="-180.5" rx="77.2916" ry="18"/>
<text text-anchor="middle" x="3882.9193" y="-176.3" font-family="Times,serif" font-size="14.00" fill="#000000">ApplicationRecord</text>
</g>
<!-- ServiceProvider -->
<g id="node29" class="node">
<title>ServiceProvider</title>
<ellipse fill="none" stroke="#000000" cx="4044.9193" cy="-180.5" rx="67.1597" ry="18"/>
<text text-anchor="middle" x="4044.9193" y="-176.3" font-family="Times,serif" font-size="14.00" fill="#000000">ServiceProvider</text>
</g>
<!-- DocCapture -->
<g id="node31" class="node">
<title>DocCapture</title>
<ellipse fill="none" stroke="#000000" cx="1453.9193" cy="-90" rx="52.6693" ry="18"/>
<text text-anchor="middle" x="1453.9193" y="-85.8" font-family="Times,serif" font-size="14.00" fill="#000000">DocCapture</text>
</g>
<!-- User -->
<g id="node32" class="node">
<title>User</title>
<ellipse fill="none" stroke="#000000" cx="1118.9193" cy="-180.5" rx="27" ry="18"/>
<text text-anchor="middle" x="1118.9193" y="-176.3" font-family="Times,serif" font-size="14.00" fill="#000000">User</text>
</g>
<!-- User&#45;&gt;Identity -->
<g id="edge5" class="edge">
<title>User&#45;&gt;Identity</title>
<path fill="none" stroke="#6548d2" d="M1153.8539,-176.4178C1223.622,-167.7645 1384.7729,-145.259 1515.9193,-108 1518.5359,-107.2566 1521.2102,-106.4211 1523.8879,-105.5278"/>
<ellipse fill="none" stroke="#6548d2" cx="1149.7771" cy="-176.9177" rx="4" ry="4"/>
<polygon fill="#6548d2" stroke="#6548d2" points="1524.0821,-105.4586 1535.0126,-106.3391 1528.7917,-103.7795 1533.5014,-102.1004 1533.5014,-102.1004 1533.5014,-102.1004 1528.7917,-103.7795 1531.9902,-97.8617 1524.0821,-105.4586 1524.0821,-105.4586"/>
</g>
<!-- User&#45;&gt;BackupCodeConfiguration -->
<g id="edge14" class="edge">
<title>User&#45;&gt;BackupCodeConfiguration</title>
<path fill="none" stroke="#8786e9" d="M1101.759,-157.8159C1096.374,-152.3148 1089.9713,-147.1236 1082.9193,-144 995.0684,-105.0872 314.531,-117.5084 218.9193,-108 209.0498,-107.0185 198.7347,-105.7436 188.5155,-104.3254"/>
<ellipse fill="none" stroke="#8786e9" cx="1104.5043" cy="-160.8553" rx="4" ry="4"/>
<polygon fill="#8786e9" stroke="#8786e9" points="188.2467,-104.2869 178.9881,-98.4108 183.2975,-103.576 178.3482,-102.865 178.3482,-102.865 178.3482,-102.865 183.2975,-103.576 177.7084,-107.3193 188.2467,-104.2869 188.2467,-104.2869"/>
</g>
<!-- User&#45;&gt;PhoneConfiguration -->
<g id="edge10" class="edge">
<title>User&#45;&gt;PhoneConfiguration</title>
<path fill="none" stroke="#49fe39" d="M1101.7363,-157.8668C1096.3511,-152.3661 1089.954,-147.1624 1082.9193,-144 944.2943,-81.6815 550.7413,-126.7939 399.9193,-108 392.4744,-107.0723 384.7255,-105.8861 377.0299,-104.5663"/>
<ellipse fill="none" stroke="#49fe39" cx="1104.482" cy="-160.9029" rx="4" ry="4"/>
<polygon fill="#49fe39" stroke="#49fe39" points="376.8173,-104.5283 367.7676,-98.3353 371.8956,-103.6466 366.974,-102.7648 366.974,-102.7648 366.974,-102.7648 371.8956,-103.6466 366.1804,-107.1943 376.8173,-104.5283 376.8173,-104.5283"/>
</g>
<!-- User&#45;&gt;EmailAddress -->
<g id="edge11" class="edge">
<title>User&#45;&gt;EmailAddress</title>
<path fill="none" stroke="#1e75b6" d="M1101.7085,-157.9282C1096.3231,-152.4279 1089.9328,-147.2091 1082.9193,-144 972.5494,-93.4986 657.733,-127.4056 537.9193,-108 532.7808,-107.1677 527.4689,-106.1233 522.1792,-104.9588"/>
<ellipse fill="none" stroke="#1e75b6" cx="1104.4546" cy="-160.9603" rx="4" ry="4"/>
<polygon fill="#1e75b6" stroke="#1e75b6" points="521.8221,-104.8753 513.1112,-98.2142 516.9537,-103.7355 512.0854,-102.5957 512.0854,-102.5957 512.0854,-102.5957 516.9537,-103.7355 511.0596,-106.9773 521.8221,-104.8753 521.8221,-104.8753"/>
</g>
<!-- User&#45;&gt;WebauthnConfiguration -->
<g id="edge12" class="edge">
<title>User&#45;&gt;WebauthnConfiguration</title>
<path fill="none" stroke="#343a1e" d="M1101.6214,-158.1135C1096.2353,-152.6148 1089.8664,-147.3503 1082.9193,-144 947.243,-78.5683 895.0985,-128.8553 745.9193,-108 737.6367,-106.8421 729.0017,-105.5249 720.4033,-104.1421"/>
<ellipse fill="none" stroke="#343a1e" cx="1104.3693" cy="-161.134" rx="4" ry="4"/>
<polygon fill="#343a1e" stroke="#343a1e" points="720.2179,-104.1118 711.0775,-98.0534 715.2838,-103.303 710.3496,-102.4942 710.3496,-102.4942 710.3496,-102.4942 715.2838,-103.303 709.6217,-106.9349 720.2179,-104.1118 720.2179,-104.1118"/>
</g>
<!-- User&#45;&gt;Authorization -->
<g id="edge4" class="edge">
<title>User&#45;&gt;Authorization</title>
<path fill="none" stroke="#3f9a1f" d="M1100.844,-157.81C1095.5926,-152.5352 1089.4851,-147.458 1082.9193,-144 1002.6206,-101.7086 970.5262,-127.6281 881.9193,-108 877.2469,-106.965 872.4116,-105.8251 867.5727,-104.6366"/>
<ellipse fill="none" stroke="#3f9a1f" cx="1103.8716" cy="-161.0748" rx="4" ry="4"/>
<polygon fill="#3f9a1f" stroke="#3f9a1f" points="867.3836,-104.589 858.7852,-97.7832 862.535,-103.368 857.6863,-102.147 857.6863,-102.147 857.6863,-102.147 862.535,-103.368 856.5874,-106.5108 867.3836,-104.589 867.3836,-104.589"/>
</g>
<!-- User&#45;&gt;AccountResetRequest -->
<g id="edge9" class="edge">
<title>User&#45;&gt;AccountResetRequest</title>
<path fill="none" stroke="#1be412" d="M1099.7617,-158.8286C1094.5878,-153.6267 1088.7879,-148.3295 1082.9193,-144 1064.9978,-130.7787 1043.3865,-118.9905 1024.5181,-109.8274"/>
<ellipse fill="none" stroke="#1be412" cx="1102.746" cy="-161.9407" rx="4" ry="4"/>
<ellipse fill="#1be412" stroke="#1be412" cx="1020.7746" cy="-108.0419" rx="4" ry="4"/>
</g>
<!-- User&#45;&gt;Device -->
<g id="edge15" class="edge">
<title>User&#45;&gt;Device</title>
<path fill="none" stroke="#6e8c75" d="M1139.5441,-159.0455C1152.6424,-145.4202 1169.6082,-127.7719 1183.1083,-113.7287"/>
<ellipse fill="none" stroke="#6e8c75" cx="1136.4498" cy="-162.2643" rx="4" ry="4"/>
<polygon fill="#6e8c75" stroke="#6e8c75" points="1183.2749,-113.5554 1193.4493,-109.4649 1186.74,-109.9508 1190.2052,-106.3463 1190.2052,-106.3463 1190.2052,-106.3463 1186.74,-109.9508 1186.9611,-103.2276 1183.2749,-113.5554 1183.2749,-113.5554"/>
</g>
<!-- User&#45;&gt;AgencyIdentity -->
<g id="edge6" class="edge">
<title>User&#45;&gt;AgencyIdentity</title>
<path fill="none" stroke="#2d551f" d="M1153.9368,-176.4389C1234.5907,-166.8414 1439.533,-141.0599 1608.9193,-108 1614.1912,-106.9711 1619.6534,-105.8154 1625.1128,-104.5991"/>
<ellipse fill="none" stroke="#2d551f" cx="1149.5954" cy="-176.9529" rx="4" ry="4"/>
<polygon fill="#2d551f" stroke="#2d551f" points="1625.1473,-104.5913 1635.8996,-106.7451 1630.0211,-103.475 1634.8949,-102.3587 1634.8949,-102.3587 1634.8949,-102.3587 1630.0211,-103.475 1633.8903,-97.9723 1625.1473,-104.5913 1625.1473,-104.5913"/>
</g>
<!-- User&#45;&gt;Profile -->
<g id="edge7" class="edge">
<title>User&#45;&gt;Profile</title>
<path fill="none" stroke="#7d9491" d="M1118.9193,-153.9687C1118.9193,-142.8402 1118.9193,-129.878 1118.9193,-118.5429"/>
<ellipse fill="none" stroke="#7d9491" cx="1118.9194" cy="-158.186" rx="4" ry="4"/>
<polygon fill="#7d9491" stroke="#7d9491" points="1118.9194,-118.2868 1123.4193,-108.2867 1118.9194,-113.2868 1118.9193,-108.2868 1118.9193,-108.2868 1118.9193,-108.2868 1118.9194,-113.2868 1114.4193,-108.2868 1118.9194,-118.2868 1118.9194,-118.2868"/>
</g>
<!-- User&#45;&gt;DocAuth -->
<g id="edge13" class="edge">
<title>User&#45;&gt;DocAuth</title>
<path fill="none" stroke="#7277e6" d="M1148.0689,-166.0845C1180.2231,-150.1831 1231.9683,-124.5933 1266.4506,-107.5405"/>
<ellipse fill="none" stroke="#7277e6" cx="1144.216" cy="-167.9899" rx="4" ry="4"/>
<ellipse fill="#7277e6" stroke="#7277e6" cx="1270.3767" cy="-105.599" rx="4" ry="4"/>
</g>
<!-- User&#45;&gt;Event -->
<g id="edge8" class="edge">
<title>User&#45;&gt;Event</title>
<path fill="none" stroke="#76e4c9" d="M1153.3123,-174.968C1212.5689,-164.6581 1329.8868,-140.5644 1353.9193,-108 1368.8413,-87.7804 1353.9302,-60.672 1338.8173,-41.5069"/>
<ellipse fill="none" stroke="#76e4c9" cx="1149.2947" cy="-175.6557" rx="4" ry="4"/>
<polygon fill="#76e4c9" stroke="#76e4c9" points="1338.816,-41.5053 1335.8715,-30.9422 1335.6152,-37.6641 1332.4144,-33.8229 1332.4144,-33.8229 1332.4144,-33.8229 1335.6152,-37.6641 1328.9573,-36.7036 1338.816,-41.5053 1338.816,-41.5053"/>
</g>
<!-- User&#45;&gt;DocCapture -->
<g id="edge16" class="edge">
<title>User&#45;&gt;DocCapture</title>
<path fill="none" stroke="#f3e684" d="M1151.9329,-171.5814C1211.0602,-155.6082 1335.3061,-122.0433 1404.5857,-103.3274"/>
<ellipse fill="none" stroke="#f3e684" cx="1147.9603" cy="-172.6546" rx="4" ry="4"/>
<ellipse fill="#f3e684" stroke="#f3e684" cx="1408.4824" cy="-102.2748" rx="4" ry="4"/>
</g>
</g>
</svg>
