<svg xmlns="http://www.w3.org/2000/svg" width="24" height="24" fill="none" viewBox="0 0 24 24"><path fill="currentColor" d="M13.2 1.2h-2.4v2.4h2.4zm0 19.2h-2.4v2.4h2.4zm-1.09-9.576C10.04 10.656 9.6 10.476 9.6 9c0-.444 0-1.8 2.4-1.8 1.6 0 2.4.816 2.4 2.424h2.4C16.8 6.06 14.22 4.8 12 4.8 9.04 4.8 7.2 6.408 7.2 9c0 3.816 2.95 4.068 4.72 4.212 2.05.168 2.48.348 2.48 1.788 0 .54 0 1.8-2.4 1.8-2.15 0-2.4-1.356-2.4-2.376H7.2c0 3.528 2.48 4.776 4.8 4.776 2.96 0 4.8-1.608 4.8-4.2 0-3.792-2.94-4.032-4.69-4.176"/></svg>