<svg xmlns="http://www.w3.org/2000/svg" width="16" height="16" fill="none" viewBox="0 0 16 16"><defs><clipPath id="a"><path fill="#fff" d="M1372 474h16v16h-16z"/></clipPath></defs><g clip-path="url(#a)" transform="translate(-1372 -474)"><g fill="currentColor"><path d="M1376.8 478h-1.6v1.6h1.6zm3.2 0h-1.6v1.6h1.6z"/><path fill-rule="evenodd" d="M1383.2 478v-4H1372v16h16v-12zm-1.6 10.4h-8v-12.8h8zm4-2.4h-1.6v-1.6h1.6zm0-3.2h-1.6v-1.6h1.6z" clip-rule="evenodd"/><path d="M1376.8 481.2h-1.6v1.6h1.6zm3.2 0h-1.6v1.6h1.6zm-3.2 3.2h-1.6v1.6h1.6zm3.2 0h-1.6v1.6h1.6z"/></g></g></svg>