<svg xmlns="http://www.w3.org/2000/svg" width="20" height="20" fill="none" viewBox="0 0 20 20"><defs><clipPath id="a"><path fill="#fff" d="M1456 472h20v20h-20z"/></clipPath></defs><g clip-path="url(#a)" transform="translate(-1456 -472)"><g fill="currentColor"><path d="M1462 477h-2v2h2zm4 0h-2v2h2z"/><path fill-rule="evenodd" d="M1470 477v-5h-14v20h20v-15zm-2 13h-10v-16h10zm5-3h-2v-2h2zm0-4h-2v-2h2z" clip-rule="evenodd"/><path d="M1462 481h-2v2h2zm4 0h-2v2h2zm-4 4h-2v2h2zm4 0h-2v2h2z"/></g></g></svg>