<svg xmlns="http://www.w3.org/2000/svg" width="24" height="24" fill="none" viewBox="0 0 24 24"><defs><clipPath id="a"><path fill="#fff" d="M1548 470h24v24h-24z"/></clipPath></defs><g clip-path="url(#a)" transform="translate(-1548 -470)"><g fill="currentColor"><path d="M1555.2 476h-2.4v2.4h2.4zm4.8 0h-2.4v2.4h2.4z"/><path fill-rule="evenodd" d="M1564.8 476v-6H1548v24h24v-18zm-2.4 15.6h-12v-19.2h12zm6-3.6h-2.4v-2.4h2.4zm0-4.8h-2.4v-2.4h2.4z" clip-rule="evenodd"/><path d="M1555.2 480.8h-2.4v2.4h2.4zm4.8 0h-2.4v2.4h2.4zm-4.8 4.8h-2.4v2.4h2.4zm4.8 0h-2.4v2.4h2.4z"/></g></g></svg>