<svg xmlns="http://www.w3.org/2000/svg" viewBox="0 0 71.44 51.84"><title>pkey-email</title><g id="Layer_2" data-name="Layer 2"><g id="Layer_1-2" data-name="Layer 1"><rect x="1.56" y="6.71" width="59.99" height="43.45" rx="3" fill="#fff"/><polygon points="60.72 13.04 60.06 20.5 42.45 32.98 39.91 31.31 60.72 13.04" fill="#d0f0f7"/><polygon points="2.26 13.64 2.87 20.92 20.48 33.4 22.19 31.14 2.26 13.64" fill="#d0f0f7"/><path d="M58.49,5.38h-54A4.51,4.51,0,0,0,0,9.89V47.32a4.52,4.52,0,0,0,4.51,4.52h54A4.52,4.52,0,0,0,63,47.32V9.89A4.51,4.51,0,0,0,58.49,5.38ZM60,47.32a1.33,1.33,0,0,1-.09.49L41,31.17,60,14.45ZM4.51,8.38h54A1.51,1.51,0,0,1,60,9.89v1.89L38.79,30.41h0l-3.47,3.05a6.29,6.29,0,0,1-8.17,0L3,12.24V9.89A1.51,1.51,0,0,1,4.51,8.38ZM3,47.43s0-.07,0-.11V14.91L21.5,31.17Zm1.43,1.39L23,32.5,25.82,35a8.32,8.32,0,0,0,10.83,0l2.8-2.46L58,48.83H4.45Z" fill="#00bfe7"/><circle cx="59.44" cy="12" r="12" fill="#e21d3e"/><rect x="57.79" y="4.08" width="3.3" height="15.84" rx="1.65" transform="translate(8.92 45.55) rotate(-45)" fill="#fff"/><rect x="57.79" y="4.08" width="3.3" height="15.84" rx="1.65" transform="translate(92.99 62.52) rotate(-135)" fill="#fff"/></g></g></svg>