<svg xmlns="http://www.w3.org/2000/svg" viewBox="0 0 71.44 51.84"><rect x="1.56" y="6.71" width="59.99" height="43.45" rx="3" fill="#fff"/><path fill="#d0f0f7" d="m60.72 13.04-.66 7.46-17.61 12.48-2.54-1.67 20.81-18.27zm-58.46.6.61 7.28L20.48 33.4l1.71-2.26-19.93-17.5z"/><path d="M58.49 5.38h-54A4.51 4.51 0 0 0 0 9.89v37.43a4.52 4.52 0 0 0 4.51 4.52h54A4.52 4.52 0 0 0 63 47.32V9.89a4.51 4.51 0 0 0-4.51-4.51zM60 47.32a1.33 1.33 0 0 1-.09.49L41 31.17l19-16.72zM4.51 8.38h54A1.51 1.51 0 0 1 60 9.89v1.89L38.79 30.41l-3.47 3.05a6.29 6.29 0 0 1-8.17 0L3 12.24V9.89a1.51 1.51 0 0 1 1.51-1.51zM3 47.43V14.91l18.5 16.26zm1.43 1.39L23 32.5l2.82 2.5a8.32 8.32 0 0 0 10.83 0l2.8-2.46L58 48.83H4.45z" fill="#00bfe7"/><circle cx="59.44" cy="12" r="12" fill="#e21d3e"/><rect x="57.79" y="4.08" width="3.3" height="15.84" rx="1.65" transform="rotate(-45 59.444 12.008)" fill="#fff"/><rect x="57.79" y="4.08" width="3.3" height="15.84" rx="1.65" transform="rotate(-135 59.443 12.001)" fill="#fff"/></svg>