<svg xmlns="http://www.w3.org/2000/svg" viewBox="0 0 50 61.08"><title>lock-check-4x</title><g id="Layer_2" data-name="Layer 2"><g id="Layer_1-2" data-name="Layer 1"><g id="Layer_2-2" data-name="Layer 2"><g id="Layer_1-2-2" data-name="Layer 1-2"><g id="Layer_2-2-2" data-name="Layer 2-2"><g id="Layer_3" data-name="Layer 3"><path d="M50,56.93a4.15,4.15,0,0,1-4.15,4.15H4.15A4.15,4.15,0,0,1,0,56.93H0v-25a4.15,4.15,0,0,1,4.15-4.15H5.57V19.43a19.43,19.43,0,0,1,38.86,0v8.35h1.36a4.15,4.15,0,0,1,4.15,4.15ZM36.08,27.78V19.43a11.14,11.14,0,0,0-22.22,0h0v8.35Z" fill="#44d067"/></g></g></g></g><path d="M38.65,34.48a3.65,3.65,0,0,0-5.17,0L21.15,46.81l-4.63-4.64a3.66,3.66,0,0,0-6.24,2.59,3.63,3.63,0,0,0,1.07,2.58l7.22,7.22a3.66,3.66,0,0,0,5.17,0L38.65,39.65a3.66,3.66,0,0,0,0-5.17Z" fill="#fff"/></g></g></svg>