<?xml version="1.0" encoding="UTF-8"?><svg xmlns="http://www.w3.org/2000/svg" xmlns:xlink="http://www.w3.org/1999/xlink" viewBox="0 0 304 304"><defs><style>.f,.g{fill:#fff;}.h{fill:#e21c3d;}.i{fill:#b51e23;}.g{filter:url(#d);}</style><filter id="d" filterUnits="userSpaceOnUse"><feOffset dx="0" dy="0"/><feGaussianBlur result="e" stdDeviation="3"/><feFlood flood-color="#000" flood-opacity=".24"/><feComposite in2="e" operator="in"/><feComposite in="SourceGraphic"/></filter></defs><g id="a"/><g id="b"><g id="c"><g><g><circle class="g" cx="151.85" cy="151.7" r="142.33"/><circle class="h" cx="151.85" cy="151.7" r="128.1"/><circle class="f" cx="151.85" cy="151.7" r="115.29"/></g><g><g><path class="h" d="M151.85,212.16c-33.34,0-60.46-27.12-60.46-60.46s27.12-60.46,60.46-60.46,60.46,27.12,60.46,60.46-27.12,60.46-60.46,60.46Z"/><path class="i" d="M151.85,91.24v120.92c33.34,0,60.46-27.12,60.46-60.46s-27.12-60.46-60.46-60.46Z"/></g><g><circle class="f" cx="133.46" cy="151.7" r="6.68"/><path class="f" d="M133.46,131.69c-11.05,0-20.01,8.96-20.01,20.01s8.96,20.01,20.01,20.01,20.01-8.96,20.01-20.01-8.96-20.01-20.01-20.01Zm0,33.36c-7.37,0-13.35-5.98-13.35-13.35s5.98-13.35,13.35-13.35,13.35,5.98,13.35,13.35-5.98,13.35-13.35,13.35Z"/><polygon class="f" points="149.6 141.67 180.23 141.67 190.24 151.69 175.22 166.72 172.91 165.01 164.4 156.46 168.54 153.36 174.58 157.9 180.79 151.69 177.45 148.35 149.6 148.35 149.6 141.67"/></g></g></g></g></g></svg>