<svg width="100" height="100" viewBox="0 0 100 100" fill="none" xmlns="http://www.w3.org/2000/svg"><g filter="url(#a)"><path d="M50 94c24.3 0 44-19.7 44-44S74.3 6 50 6 6 25.7 6 50s19.7 44 44 44Z" fill="#fff"/></g><path d="M50 89.6c21.87 0 39.6-17.73 39.6-39.6 0-21.871-17.73-39.601-39.6-39.601-21.872 0-39.602 17.73-39.602 39.6 0 21.872 17.73 39.602 39.601 39.602Z" fill="#F5D600"/><path d="M50 85.64c19.683 0 35.64-15.956 35.64-35.64S69.683 14.36 50 14.36c-19.685 0-35.642 15.956-35.642 35.64S30.315 85.64 50 85.64Z" fill="#fff"/><path d="M33.715 64.672a4.713 4.713 0 0 1-4.133-2.393 4.717 4.717 0 0 1 .019-4.776l16.288-27.857a4.72 4.72 0 0 1 4.112-2.358c1.71 0 3.25.88 4.115 2.358L70.404 57.5a4.717 4.717 0 0 1 .022 4.776 4.712 4.712 0 0 1-4.133 2.393H33.715v.003Z" fill="#F5D600"/><path d="M50.001 27.29a4.72 4.72 0 0 1 4.108 2.36L70.4 57.505a4.717 4.717 0 0 1 .018 4.776 4.712 4.712 0 0 1-4.134 2.393H50.001V27.291Z" fill="#CAB000"/><path d="M50 58.393a2.071 2.071 0 1 0 0-4.142 2.071 2.071 0 0 0 0 4.142Zm-2.07-18.641h4.142V52.18H47.93V39.752Z" fill="#1B1B1B"/><defs><filter id="a" x="0" y="0" width="100" height="100" filterUnits="userSpaceOnUse" color-interpolation-filters="sRGB"><feFlood flood-opacity="0" result="BackgroundImageFix"/><feColorMatrix in="SourceAlpha" values="0 0 0 0 0 0 0 0 0 0 0 0 0 0 0 0 0 0 127 0" result="hardAlpha"/><feOffset/><feGaussianBlur stdDeviation="3"/><feColorMatrix values="0 0 0 0 0 0 0 0 0 0 0 0 0 0 0 0 0 0 0.24 0"/><feBlend in2="BackgroundImageFix" result="effect1_dropShadow_119_1056"/><feBlend in="SourceGraphic" in2="effect1_dropShadow_119_1056" result="shape"/></filter></defs></svg>