<svg xmlns="http://www.w3.org/2000/svg" width="16" height="16" fill="none" viewBox="0 0 16 16"><g fill="currentColor"><path d="M4.8 14.8c-1.52-1.67-3.2-4.18-3.2-7.66S3.9 1.2 7.2 1.2c3.09 0 5.6 2.51 5.6 5.6h-1.6c0-2.21-1.79-4-4-4-2.39 0-4 1.74-4 4.34 0 2.92 1.41 5.06 2.78 6.58z"/><path d="M12 14.8a7.8 7.8 0 0 1-2.67-.46A8.15 8.15 0 0 1 6 12.09 7.98 7.98 0 0 1 3.99 6.8c0-1.77 1.43-3.2 3.2-3.2.25 0 .51.03.79.11 1.42.37 2.41 1.63 2.41 3.09 0 .73.5 1.36 1.2 1.54.15.04.28.06.4.06.46 0 .91-.19 1.21-.54l1.19 1.07c-.61.68-1.49 1.06-2.4 1.06-.25 0-.51-.03-.79-.11a3.195 3.195 0 0 1-2.41-3.09c0-.73-.49-1.36-1.2-1.54-.15-.04-.28-.06-.4-.06-.88 0-1.6.72-1.6 1.6 0 1.55.57 3.06 1.61 4.23.72.82 1.64 1.44 2.66 1.8.47.17.95.28 1.43.34.23.02.47.04.71.04z"/><path d="M14.4 11.86a5.604 5.604 0 0 1-8-5.06H8c0 2.21 1.79 4 4 4 .55 0 1.1-.11 1.6-.34z"/></g></svg>