<svg xmlns="http://www.w3.org/2000/svg" width="20" height="20" fill="none" viewBox="0 0 20 20"><g fill="currentColor"><path d="M6 18.5c-1.9-2.09-4-5.23-4-9.58S4.88 1.5 9 1.5c3.86 0 7 3.14 7 7h-2c0-2.76-2.24-5-5-5-2.99 0-5 2.18-5 5.42 0 3.65 1.76 6.33 3.48 8.23z"/><path d="M15 18.5a9.7 9.7 0 0 1-3.34-.58 10.1 10.1 0 0 1-4.16-2.81A9.97 9.97 0 0 1 4.99 8.5c0-2.21 1.79-4 4-4 .31 0 .64.04.99.14 1.77.46 3.01 2.04 3.01 3.86a2 2 0 0 0 1.5 1.93c.19.05.35.07.5.07.57 0 1.13-.24 1.51-.67l1.49 1.33a4.03 4.03 0 0 1-3 1.33c-.31 0-.64-.04-.99-.14a4 4 0 0 1-3.01-3.86 2 2 0 0 0-1.5-1.93c-.19-.05-.35-.07-.5-.07-1.1 0-2 .9-2 2 0 1.94.71 3.82 2.01 5.29.9 1.02 2.05 1.79 3.33 2.25.58.21 1.18.35 1.78.42.29.03.59.05.89.05z"/><path d="M18 14.83A7.008 7.008 0 0 1 8 8.5h2c0 2.76 2.24 5 5 5 .69 0 1.37-.14 2-.42l1 1.74z"/></g></svg>