<svg xmlns="http://www.w3.org/2000/svg" width="24" height="24" fill="none" viewBox="0 0 24 24"><g fill="currentColor"><path d="M7.2 22.2c-2.28-2.51-4.8-6.28-4.8-11.5s3.46-8.9 8.4-8.9c4.63 0 8.4 3.77 8.4 8.4h-2.4c0-3.31-2.69-6-6-6-3.59 0-6 2.62-6 6.5 0 4.38 2.11 7.6 4.18 9.88z"/><path d="M18 22.2c-.46 0-.9-.02-1.34-.07q-1.35-.15-2.67-.63c-1.91-.67-3.63-1.84-4.99-3.37a11.96 11.96 0 0 1-3.01-7.93c0-2.65 2.15-4.8 4.8-4.8.37 0 .77.05 1.19.17 2.12.55 3.61 2.45 3.61 4.63 0 1.09.74 2.04 1.8 2.32.23.06.42.08.6.08.68 0 1.35-.29 1.81-.8l1.79 1.59a4.83 4.83 0 0 1-3.6 1.6c-.37 0-.77-.05-1.19-.17-2.12-.55-3.61-2.45-3.61-4.63a2.416 2.416 0 0 0-2.4-2.4c-1.32 0-2.4 1.08-2.4 2.4 0 2.33.85 4.58 2.41 6.35a9.8 9.8 0 0 0 4 2.7 9.3 9.3 0 0 0 3.2.56z"/><path d="M21.6 17.8c-1.12.52-2.35.8-3.6.8-4.63 0-8.4-3.77-8.4-8.4H12a6.005 6.005 0 0 0 8.4 5.5l1.2 2.08z"/></g></svg>