<svg xmlns="http://www.w3.org/2000/svg" width="16" height="16" fill="none" viewBox="0 0 16 16"><g fill="currentColor"><path d="M9.6 8.8c0 .88-.72 1.6-1.6 1.6s-1.6-.72-1.6-1.6.72-1.6 1.6-1.6 1.6.72 1.6 1.6"/><path fill-rule="evenodd" d="M6.552 2.4h2.824c.608 0 1.16.34 1.432.89l.36.71H12.8c.88 0 1.6.72 1.6 1.6V12c0 .88-.72 1.6-1.6 1.6H3.2c-.88 0-1.6-.72-1.6-1.6V5.6c0-.88.72-1.6 1.6-1.6h1.568l.36-.71c.272-.55.824-.89 1.432-.89zm3.184 2.31L9.376 4H6.56l-.36.71-.44.89H3.2V12h9.6V5.6h-2.624z" clip-rule="evenodd"/></g></svg>