<svg xmlns="http://www.w3.org/2000/svg" width="24" height="24" fill="none" viewBox="0 0 24 24"><g fill="currentColor"><path d="M14.4 13.2c0 1.32-1.08 2.4-2.4 2.4s-2.4-1.08-2.4-2.4 1.08-2.4 2.4-2.4 2.4 1.08 2.4 2.4"/><path fill-rule="evenodd" d="M9.828 3.6h4.236c.912 0 1.74.52 2.148 1.33l.54 1.07H19.2c1.32 0 2.4 1.08 2.4 2.4V18c0 1.32-1.08 2.4-2.4 2.4H4.8c-1.32 0-2.4-1.08-2.4-2.4V8.4C2.4 7.08 3.48 6 4.8 6h2.352l.54-1.07A2.41 2.41 0 0 1 9.84 3.6zm4.776 3.47L14.064 6H9.84L9.3 7.07 8.64 8.4H4.8V18h14.4V8.4h-3.936z" clip-rule="evenodd"/></g></svg>