<svg xmlns="http://www.w3.org/2000/svg" width="16" height="16" fill="none" viewBox="0 0 16 16"><defs><clipPath id="a"><path fill="#fff" d="M2012 682h16v16h-16z"/></clipPath></defs><g clip-path="url(#a)" transform="translate(-2012 -682)"><path fill="currentColor" d="M2020 684.4c2.65 0 4.8 2.152 4.8 4.8s-2.15 4.8-4.8 4.8h-.37l-.34.168-.89.44v-.792l-.79-.464a4.8 4.8 0 0 1-2.34-4.944c.32-2.072 2.08-3.744 4.18-3.976.18-.024.38-.032.55-.032m0-1.6c-.24 0-.49.016-.73.04-2.8.32-5.14 2.528-5.59 5.312-.45 2.776.93 5.312 3.12 6.584v2.464l3.2-1.6c3.52 0 6.4-2.88 6.4-6.4s-2.88-6.4-6.4-6.4"/></g></svg>