<svg xmlns="http://www.w3.org/2000/svg" xmlns:xlink="http://www.w3.org/1999/xlink" viewBox="0 0 96 96"><defs><style>.cls-1{isolation:isolate;}.cls-2{fill:url(#linear-gradient);}.cls-3{fill:url(#linear-gradient-2);}.cls-4{opacity:0.34;mix-blend-mode:multiply;fill:url(#linear-gradient-3);}.cls-5{fill:#ccb800;}.cls-6{fill:#fff;}</style><linearGradient id="linear-gradient" x1="20.07" y1="11.02" x2="72.88" y2="80.95" gradientUnits="userSpaceOnUse"><stop offset="0" stop-color="#f9ed83"/><stop offset="1" stop-color="#ebdc52"/></linearGradient><linearGradient id="linear-gradient-2" x1="38.56" y1="-5.51" x2="57.44" y2="101.51" gradientUnits="userSpaceOnUse"><stop offset="0" stop-color="#f9ed83"/><stop offset="0.57" stop-color="#ebdc52"/><stop offset="1" stop-color="#ccb800"/></linearGradient><linearGradient id="linear-gradient-3" x1="85.51" y1="86.13" x2="56.55" y2="58.51" gradientUnits="userSpaceOnUse"><stop offset="0" stop-color="#bfbba8" stop-opacity="0"/><stop offset="1" stop-color="#bfbba8" stop-opacity="0.5"/></linearGradient></defs><title>alert-warning</title><g class="cls-1"><g id="Layer_2" data-name="Layer 2"><g id="Layer_1-2" data-name="Layer 1"><rect class="cls-2" width="96" height="96" rx="8" ry="8"/><path class="cls-3" d="M88,2a6,6,0,0,1,6,6V88a6,6,0,0,1-6,6H8a6,6,0,0,1-6-6V8A6,6,0,0,1,8,2H88m0-2H8A8,8,0,0,0,0,8V88a8,8,0,0,0,8,8H88a8,8,0,0,0,8-8V8a8,8,0,0,0-8-8Z"/><path class="cls-4" d="M42.21,83.14,53.56,96H88a8,8,0,0,0,8-8V60.25L53.79,15.54,48.1,63v7Z"/><circle class="cls-5" cx="87" cy="87" r="3"/><circle class="cls-5" cx="9" cy="87" r="3"/><circle class="cls-5" cx="87" cy="9" r="3"/><circle class="cls-5" cx="9" cy="9" r="3"/><rect class="cls-6" x="40" y="13.05" width="16" height="49.95" rx="8" ry="8"/><rect class="cls-6" x="39" y="67.28" width="18" height="18" rx="9" ry="9"/></g></g></g></svg>