<svg xmlns="http://www.w3.org/2000/svg" viewBox="0 0 24 24"><defs><style>.cls-1{fill:#fc768c;}.cls-2{fill:#5b616a;}</style></defs><title>fail</title><g id="Layer_2" data-name="Layer 2"><g id="Layer_1-2" data-name="Layer 1"><circle class="cls-1" cx="12" cy="12" r="12"/><path class="cls-2" d="M12,4.6A7.4,7.4,0,1,0,19.4,12,7.41,7.41,0,0,0,12,4.6ZM16.4,12A4.36,4.36,0,0,1,16,13.86L10.14,8A4.36,4.36,0,0,1,12,7.6,4.41,4.41,0,0,1,16.4,12ZM7.6,12A4.36,4.36,0,0,1,8,10.14L13.86,16a4.36,4.36,0,0,1-1.86.43A4.41,4.41,0,0,1,7.6,12Z"/></g></g></svg>