<svg xmlns="http://www.w3.org/2000/svg" viewBox="0 0 96 96"><defs><linearGradient id="a" x1="20.07" y1="11.02" x2="72.88" y2="80.95" gradientUnits="userSpaceOnUse"><stop offset="0" stop-color="#ea4d67"/><stop offset="1" stop-color="#e21c3d"/></linearGradient><linearGradient id="b" x1="38.56" y1="-5.51" x2="57.44" y2="101.51" gradientUnits="userSpaceOnUse"><stop offset="0" stop-color="#ea4d67"/><stop offset="1" stop-color="#a50025"/></linearGradient><linearGradient id="c" x1="92.24" y1="94.99" x2="53.08" y2="52.78" gradientUnits="userSpaceOnUse"><stop offset="0" stop-color="#969aa0" stop-opacity="0"/><stop offset="1" stop-color="#969aa0" stop-opacity=".5"/></linearGradient></defs><rect width="96" height="96" rx="8" ry="8" fill="url(#a)"/><path d="M88 2a6 6 0 016 6v80a6 6 0 01-6 6H8a6 6 0 01-6-6V8a6 6 0 016-6h80m0-2H8a8 8 0 00-8 8v80a8 8 0 008 8h80a8 8 0 008-8V8a8 8 0 00-8-8z" fill="url(#b)"/><path d="M16.26 53.39L57.36 96H88a8 8 0 008-8V58.75L79.64 41.81z" opacity=".55" fill="url(#c)" style="mix-blend-mode:multiply"/><circle cx="87" cy="87" r="3" fill="#820025"/><circle cx="9" cy="87" r="3" fill="#820025"/><circle cx="87" cy="9" r="3" fill="#820025"/><circle cx="9" cy="9" r="3" fill="#820025"/><path d="M74.06 55.58H21.94a8 8 0 110-16h52.12a8 8 0 010 16z" fill="#fff"/></svg>