<svg xmlns="http://www.w3.org/2000/svg" viewBox="0 0 96 96"><defs><linearGradient id="a" x1="20.07" y1="11.02" x2="72.88" y2="80.95" gradientUnits="userSpaceOnUse"><stop offset="0" stop-color="#99d7f4"/><stop offset="1" stop-color="#00bfe7"/></linearGradient><linearGradient id="b" x1="92.92" y1="90.81" x2="40.43" y2="38.32" gradientUnits="userSpaceOnUse"><stop offset="0" stop-color="#009ae3" stop-opacity="0"/><stop offset="1" stop-color="#009ae3"/></linearGradient><linearGradient id="c" x1="89.78" y1="95.43" x2="5.03" y2="-.78" gradientUnits="userSpaceOnUse"><stop offset="0" stop-color="#0071bb"/><stop offset="1" stop-color="#99d7f4"/></linearGradient><linearGradient id="d" x1="44.01" y1="59.76" x2="50.59" y2="59.76" gradientTransform="translate(-.58 .72)" gradientUnits="userSpaceOnUse"><stop offset="0" stop-color="#11a8e6"/><stop offset="1" stop-color="#41c9ec"/></linearGradient></defs><rect width="96" height="96" rx="8" ry="8" fill="url(#a)"/><path d="M47.06 62.86l-6.21 14.35L59.62 96H88a8 8 0 008-8V55.43L61.81 21.24 47.06 57.49z" fill="url(#b)"/><circle cx="87" cy="87" r="3" fill="#009ae3"/><circle cx="9" cy="87" r="3" fill="#009ae3"/><circle cx="87" cy="9" r="3" fill="#009ae3"/><circle cx="9" cy="9" r="3" fill="#009ae3"/><path d="M88 2a6 6 0 016 6v80a6 6 0 01-6 6H8a6 6 0 01-6-6V8a6 6 0 016-6h80m0-2H8a8 8 0 00-8 8v80a8 8 0 008 8h80a8 8 0 008-8V8a8 8 0 00-8-8z" fill="url(#c)"/><path transform="rotate(180 46.72 60.485)" fill="url(#d)" d="M38.95 56.58h15.54v7.8H38.95z"/><path d="M52.53 32.82c0-3.76-2.53-5.82-6.18-5.82C43 27 40.5 28.78 38 31.28l-7.43-6.8a23.23 23.23 0 0117.5-8.34c9.87 0 17.4 4.88 17.4 15.74 0 11.31-13.79 14.78-12.71 25.64H40.94c-1.87-12.58 11.59-17.76 11.59-24.7zM38.68 71.38a8.17 8.17 0 018.15-8.52c4.68 0 8.14 3.71 8.14 8.52a8.15 8.15 0 11-16.29 0z" fill="#fff"/></svg>