<svg xmlns="http://www.w3.org/2000/svg" xmlns:xlink="http://www.w3.org/1999/xlink" viewBox="0 0 96 96"><defs><linearGradient id="linear-gradient" x1="20.07" y1="11.02" x2="72.88" y2="80.95" gradientUnits="userSpaceOnUse"><stop offset="0" stop-color="#99d7f4"/><stop offset="1" stop-color="#00bfe7"/></linearGradient><linearGradient id="New_Gradient_Swatch_8" x1="92.92" y1="90.81" x2="40.43" y2="38.32" gradientUnits="userSpaceOnUse"><stop offset="0" stop-color="#009ae3" stop-opacity="0"/><stop offset="1" stop-color="#009ae3"/></linearGradient><linearGradient id="linear-gradient-2" x1="89.78" y1="95.43" x2="5.03" y2="-0.78" gradientUnits="userSpaceOnUse"><stop offset="0" stop-color="#0071bb"/><stop offset="1" stop-color="#99d7f4"/></linearGradient><linearGradient id="linear-gradient-3" x1="44.01" y1="59.76" x2="50.59" y2="59.76" gradientTransform="translate(-0.58 0.72)" gradientUnits="userSpaceOnUse"><stop offset="0" stop-color="#11a8e6"/><stop offset="1" stop-color="#41c9ec"/></linearGradient></defs><title>forgot</title><g id="Layer_2" data-name="Layer 2"><g id="Layer_1-2" data-name="Layer 1"><rect width="96" height="96" rx="8" ry="8" fill="url(#linear-gradient)"/><path d="M47.06,62.86,40.85,77.21,59.62,96,88,96a8,8,0,0,0,8-8V55.43L61.81,21.24,47.06,57.49Z" fill="url(#New_Gradient_Swatch_8)"/><circle cx="87" cy="87" r="3" fill="#009ae3"/><circle cx="9" cy="87" r="3" fill="#009ae3"/><circle cx="87" cy="9" r="3" fill="#009ae3"/><circle cx="9" cy="9" r="3" fill="#009ae3"/><path d="M88,2a6,6,0,0,1,6,6V88a6,6,0,0,1-6,6H8a6,6,0,0,1-6-6V8A6,6,0,0,1,8,2H88m0-2H8A8,8,0,0,0,0,8V88a8,8,0,0,0,8,8H88a8,8,0,0,0,8-8V8a8,8,0,0,0-8-8Z" fill="url(#linear-gradient-2)"/><rect x="38.95" y="56.58" width="15.54" height="7.8" transform="translate(93.44 120.97) rotate(180)" fill="url(#linear-gradient-3)"/><path d="M52.53,32.82C52.53,29.06,50,27,46.35,27,43,27,40.5,28.78,38,31.28l-7.43-6.8a23.23,23.23,0,0,1,17.5-8.34c9.87,0,17.4,4.88,17.4,15.74,0,11.31-13.79,14.78-12.71,25.64H40.94C39.07,44.94,52.53,39.76,52.53,32.82ZM38.68,71.38a8.17,8.17,0,0,1,8.15-8.52c4.68,0,8.14,3.71,8.14,8.52a8.15,8.15,0,1,1-16.29,0Z" fill="#fff"/></g></g></svg>