<?xml version="1.0" encoding="UTF-8" standalone="no"?>
<svg width="20px" height="20px" viewBox="0 0 20 20" version="1.1" xmlns="http://www.w3.org/2000/svg" xmlns:xlink="http://www.w3.org/1999/xlink">
    <!-- Generator: Sketch 39.1 (31720) - http://www.bohemiancoding.com/sketch -->
    <title>ico-success</title>
    <desc>Created with Sketch.</desc>
    <defs></defs>
    <g id="Page-1" stroke="none" stroke-width="1" fill="none" fill-rule="evenodd">
        <g id="ico-success">
            <g id="Page-2">
                <g id="ico-success">
                    <path d="M9.99841667,0 C4.47591667,0 8.33333333e-05,4.475 8.33333333e-05,9.99833333 C8.33333333e-05,15.5233333 4.47591667,20 9.99841667,20 C15.52175,20 20.0000833,15.5233333 20.0000833,9.99833333 C20.0000833,4.475 15.52175,0 9.99841667,0" id="Fill-1" fill="#088A22"></path>
                    <path d="M8.57583333,14.5709167 C8.38583333,14.5709167 8.20666667,14.48425 8.0875,14.33675 L5.1725,10.69175 C4.95666667,10.42175 5.00083333,10.0284167 5.27,9.81258333 C5.54,9.59841667 5.9325,9.64175 6.14916667,9.91008333 L8.57583333,12.9450833 L14.3641667,5.70591667 C14.5816667,5.43675 14.9741667,5.39425 15.2433333,5.60841667 C15.5125,5.82425 15.5566667,6.21758333 15.3408333,6.48758333 L9.06416667,14.33675 C8.945,14.48425 8.76583333,14.5709167 8.57583333,14.5709167" id="Combined-Shape" fill="#FFFFFF"></path>
                </g>
            </g>
        </g>
    </g>
</svg>