<?xml version="1.0" encoding="UTF-8" standalone="no"?>
<svg width="32px" height="32px" viewBox="0 0 32 32" version="1.1" xmlns="http://www.w3.org/2000/svg" xmlns:xlink="http://www.w3.org/1999/xlink">
    <!-- Generator: Sketch 39.1 (31720) - http://www.bohemiancoding.com/sketch -->
    <title>ico</title>
    <desc>Created with Sketch.</desc>
    <defs></defs>
    <g id="Page-2" stroke="none" stroke-width="1" fill="none" fill-rule="evenodd">
        <g id="ico">
            <path d="M32,16 C32,7.16333333 24.8366667,0 16,0 C7.16333333,0 0,7.16333333 0,16 C0,24.8366667 7.16333333,32 16,32 C24.8366667,32 32,24.8366667 32,16" id="Fill-1" fill="#FDB81E"></path>
            <path d="M16.9446,15.6466 C17.2886,15.3659333 17.5132667,14.9406 17.5132667,14.4586 C17.5132667,13.6119333 16.8359333,12.9259333 15.9999333,12.9259333 C15.1639333,12.9259333 14.4866,13.6119333 14.4866,14.4586 C14.4866,14.9479333 14.7179333,15.3792667 15.0712667,15.6599333 C14.9052667,16.6199333 14.7399333,17.5799333 14.5746,18.5399333 C15.0459333,18.6232667 15.5232667,18.6646 15.9999333,18.6652667 C16.4832667,18.6659333 16.9659333,18.6239333 17.4432667,18.5399333 C17.2772667,17.5752667 17.1106,16.6112667 16.9446,15.6466 M21.3332667,11.2419333 L21.3332667,18.6392667 C21.3332667,18.7792667 21.3039333,18.9179333 21.2426,19.0432667 C20.9206,19.7032667 19.6452667,21.8292667 15.9999333,23.4539333 C12.3546,21.8292667 11.0792667,19.7032667 10.7572667,19.0432667 C10.6959333,18.9179333 10.6666,18.7792667 10.6666,18.6392667 L10.6666,11.2419333 C10.6666,10.4072667 11.3346,9.73126667 12.1586,9.73126667 L19.8412667,9.73126667 C20.6652667,9.73126667 21.3332667,10.4072667 21.3332667,11.2419333" id="Fill-3" fill="#FFFFFF"></path>
        </g>
    </g>
</svg>