<?xml version="1.0" encoding="UTF-8" standalone="no"?>
<svg width="32px" height="32px" viewBox="0 0 32 32" version="1.1" xmlns="http://www.w3.org/2000/svg" xmlns:xlink="http://www.w3.org/1999/xlink">
    <!-- Generator: Sketch 39.1 (31720) - http://www.bohemiancoding.com/sketch -->
    <title>ico-success</title>
    <desc>Created with Sketch.</desc>
    <defs></defs>
    <g id="Page-1" stroke="none" stroke-width="1" fill="none" fill-rule="evenodd">
        <g id="ico-success">
            <path d="M15.9975,0 C7.1615,0 0.0005,7.161 0.0005,15.998 C0.0005,24.837 7.1615,32 15.9975,32 C24.8345,32 32.0005,24.837 32.0005,15.998 C32.0005,7.161 24.8345,0 15.9975,0" id="Fill-1" fill="#088A22"></path>
            <path d="M13.2924,22.7856 C12.9864,22.7856 12.6984,22.6456 12.5084,22.4066 L7.9904,16.7046 C7.6474,16.2716 7.7204,15.6426 8.1534,15.2996 C8.5844,14.9566 9.2144,15.0296 9.5584,15.4626 L13.2924,20.1756 L22.2384,8.8856 C22.5814,8.4526 23.2114,8.3806 23.6434,8.7226 C24.0764,9.0656 24.1494,9.6946 23.8064,10.1276 L14.0764,22.4066 C13.8864,22.6456 13.5974,22.7856 13.2924,22.7856" id="Fill-4" fill="#FFFFFF"></path>
        </g>
    </g>
</svg>