<?xml version="1.0" encoding="UTF-8" standalone="no"?>
<svg width="30px" height="30px" viewBox="0 0 30 30" version="1.1" xmlns="http://www.w3.org/2000/svg" xmlns:xlink="http://www.w3.org/1999/xlink">
    <!-- Generator: Sketch 39.1 (31720) - http://www.bohemiancoding.com/sketch -->
    <title>ico-success</title>
    <desc>Created with Sketch.</desc>
    <defs></defs>
    <g id="Page-2" stroke="none" stroke-width="1" fill="none" fill-rule="evenodd">
        <g id="ico-success">
            <path d="M14.997625,0 C6.713875,0 0.000125,6.7125 0.000125,14.9975 C0.000125,23.285 6.713875,30 14.997625,30 C23.282625,30 30.000125,23.285 30.000125,14.9975 C30.000125,6.7125 23.282625,0 14.997625,0" id="Fill-1" fill="#088A22"></path>
            <path d="M12.86375,21.856375 C12.57875,21.856375 12.31,21.726375 12.13125,21.505125 L7.75875,16.037625 C7.435,15.632625 7.50125,15.042625 7.905,14.718875 C8.31,14.397625 8.89875,14.462625 9.22375,14.865125 L12.86375,19.417625 L21.54625,8.558875 C21.8725,8.155125 22.46125,8.091375 22.865,8.412625 C23.26875,8.736375 23.335,9.326375 23.01125,9.731375 L13.59625,21.505125 C13.4175,21.726375 13.14875,21.856375 12.86375,21.856375" id="Combined-Shape" fill="#FFFFFF"></path>
        </g>
    </g>
</svg>