<svg id="Layer_1" data-name="Layer 1" xmlns="http://www.w3.org/2000/svg" viewBox="0 0 24 24"><defs><style>.cls-1{fill:#fdb81e;}.cls-2{fill:#fff;fill-rule:evenodd;}</style></defs><title>ALERT-Warning</title><circle class="cls-1" cx="12" cy="12" r="12"/><path class="cls-2" d="M13,12.65a.17.17,0,0,1-.08.13.31.31,0,0,1-.18,0H11.29a.33.33,0,0,1-.18,0,.15.15,0,0,1-.08-.13L10.9,9.16A.18.18,0,0,1,11,9a.3.3,0,0,1,.18-.08h1.68A.29.29,0,0,1,13,9a.17.17,0,0,1,.08.15Zm0,2.86a.24.24,0,0,1-.07.18.23.23,0,0,1-.17.07H11.27a.23.23,0,0,1-.17-.07A.24.24,0,0,1,11,15.5V14.05a.24.24,0,0,1,.07-.18.23.23,0,0,1,.17-.07h1.47a.23.23,0,0,1,.17.07.24.24,0,0,1,.07.18V15.5Zm5.74.76L12.86,5.51a1,1,0,0,0-.36-.37,1,1,0,0,0-1,0,1,1,0,0,0-.36.37L5.28,16.27a.91.91,0,0,0,0,1,1,1,0,0,0,.84.48H17.87a1,1,0,0,0,.84-.48A.91.91,0,0,0,18.72,16.27Z"/></svg>