<?xml version="1.0" encoding="UTF-8" standalone="no"?>
<svg
   width="16"
   height="16"
   viewBox="0 0 16 16"
   version="1.1"
   id="svg54"
   sodipodi:docname="info-white.svg"
   inkscape:version="1.2.1 (9c6d41e410, 2022-07-14)"
   xmlns:inkscape="http://www.inkscape.org/namespaces/inkscape"
   xmlns:sodipodi="http://sodipodi.sourceforge.net/DTD/sodipodi-0.dtd"
   xmlns="http://www.w3.org/2000/svg"
   xmlns:svg="http://www.w3.org/2000/svg">
  <defs
     id="defs58" />
  <sodipodi:namedview
     id="namedview56"
     pagecolor="#ffffff"
     bordercolor="#000000"
     borderopacity="0.25"
     inkscape:showpageshadow="2"
     inkscape:pageopacity="0.0"
     inkscape:pagecheckerboard="0"
     inkscape:deskcolor="#d1d1d1"
     showgrid="false"
     inkscape:zoom="32.09375"
     inkscape:cx="4.6893866"
     inkscape:cy="8.7400195"
     inkscape:window-width="1536"
     inkscape:window-height="801"
     inkscape:window-x="5120"
     inkscape:window-y="23"
     inkscape:window-maximized="1"
     inkscape:current-layer="svg54" />
  <rect
     style="fill:#ffffff;fill-opacity:1"
     id="rect947"
     width="5.4527755"
     height="11.777993"
     x="5.234664"
     y="1.6202532"
     ry="0" />
  <path
     d="M14.927 3.984a7.966 7.966 0 0 0-2.911-2.911A7.825 7.825 0 0 0 8 0C6.55 0 5.21.358 3.985 1.073a7.963 7.963 0 0 0-2.912 2.911A7.825 7.825 0 0 0 0 8c0 1.451.358 2.79 1.073 4.016a7.966 7.966 0 0 0 2.911 2.911A7.825 7.825 0 0 0 8 16a7.83 7.83 0 0 0 4.016-1.073 7.965 7.965 0 0 0 2.911-2.911A7.827 7.827 0 0 0 16 8c0-1.451-.358-2.79-1.073-4.016zM6.667 2c0-.097.031-.177.094-.24A.325.325 0 0 1 7 1.667h2c.097 0 .176.03.239.093a.325.325 0 0 1 .094.24v1.667a.325.325 0 0 1-.094.24A.324.324 0 0 1 9 4H7a.324.324 0 0 1-.24-.094.324.324 0 0 1-.093-.24V2zm4 11a.325.325 0 0 1-.094.24.324.324 0 0 1-.24.093H5.668a.324.324 0 0 1-.24-.094.324.324 0 0 1-.094-.24v-1.666c0-.097.032-.177.094-.24a.325.325 0 0 1 .24-.093h1V7.667h-1a.324.324 0 0 1-.24-.094.324.324 0 0 1-.094-.24V5.667c0-.098.032-.177.094-.24a.324.324 0 0 1 .24-.094H9c.098 0 .177.032.24.094a.325.325 0 0 1 .094.24V11h1a.32.32 0 0 1 .239.094.325.325 0 0 1 .094.24V13z"
     fill="#00A2C4"
     id="path52"
     inkscape:label="path52" />
</svg>
