<svg width="16" height="16" viewBox="0 0 16 16" xmlns="http://www.w3.org/2000/svg"><path d="M14.927 3.984a7.966 7.966 0 00-2.911-2.911A7.825 7.825 0 008 0C6.55 0 5.21.358 3.985 1.073a7.963 7.963 0 00-2.912 2.911A7.825 7.825 0 000 8c0 1.451.358 2.79 1.073 4.016a7.966 7.966 0 002.911 2.911A7.825 7.825 0 008 16c1.452 0 2.79-.358 4.016-1.073a7.965 7.965 0 002.911-2.911A7.827 7.827 0 0016 8c0-1.451-.358-2.79-1.073-4.016zM6.667 2c0-.097.031-.177.094-.24A.325.325 0 017 1.667h2c.097 0 .176.03.239.093a.325.325 0 01.094.24v1.667a.325.325 0 01-.094.24A.324.324 0 019 4H7a.324.324 0 01-.24-.094.324.324 0 01-.093-.24V2zm4 11a.325.325 0 01-.094.24.324.324 0 01-.24.093H5.668a.324.324 0 01-.24-.094.324.324 0 01-.094-.24v-1.666c0-.097.032-.177.094-.24a.325.325 0 01.24-.093h1V7.667h-1a.324.324 0 01-.24-.094.324.324 0 01-.094-.24V5.667c0-.098.032-.177.094-.24a.324.324 0 01.24-.094H9c.098 0 .177.032.24.094a.325.325 0 01.094.24V11h1c.097 0 .177.031.239.094a.325.325 0 01.094.24V13z" fill="#00A2C4"/></svg>
