<svg xmlns="http://www.w3.org/2000/svg" viewBox="0 0 16 16"><path fill="#18852E" d="M14.927 3.984a7.97 7.97 0 0 0-2.911-2.911A7.8 7.8 0 0 0 8 0Q5.824 0 3.985 1.073a7.96 7.96 0 0 0-2.912 2.911A7.8 7.8 0 0 0 0 8q0 2.177 1.073 4.016a7.97 7.97 0 0 0 2.911 2.911A7.8 7.8 0 0 0 8 16a7.83 7.83 0 0 0 4.016-1.073 7.97 7.97 0 0 0 2.911-2.911A7.83 7.83 0 0 0 16 8q0-2.177-1.073-4.016m-1.74 2.797-5.656 5.657a.65.65 0 0 1-.479.197.64.64 0 0 1-.469-.197l-3.77-3.771a.64.64 0 0 1-.188-.469.65.65 0 0 1 .187-.48l.948-.937a.64.64 0 0 1 .47-.198.64.64 0 0 1 .468.198l2.354 2.354 4.25-4.24a.64.64 0 0 1 .469-.197.64.64 0 0 1 .469.198l.948.937a.65.65 0 0 1 .187.48.64.64 0 0 1-.188.468"/></svg>