<svg viewBox="0 0 16 16" xmlns="http://www.w3.org/2000/svg"><path d="M14.927 3.984a7.966 7.966 0 0 0-2.911-2.911A7.825 7.825 0 0 0 8 0C6.55 0 5.21.358 3.985 1.073a7.963 7.963 0 0 0-2.912 2.911A7.825 7.825 0 0 0 0 8c0 1.451.358 2.79 1.073 4.016a7.966 7.966 0 0 0 2.911 2.911A7.825 7.825 0 0 0 8 16a7.83 7.83 0 0 0 4.016-1.073 7.965 7.965 0 0 0 2.911-2.911A7.827 7.827 0 0 0 16 8c0-1.451-.358-2.79-1.073-4.016zm-1.74 2.797-5.656 5.657a.653.653 0 0 1-.479.197.64.64 0 0 1-.469-.197l-3.77-3.771a.636.636 0 0 1-.188-.469.65.65 0 0 1 .187-.48l.948-.937a.64.64 0 0 1 .47-.198.64.64 0 0 1 .468.198l2.354 2.354 4.25-4.24a.64.64 0 0 1 .469-.197.64.64 0 0 1 .469.198l.948.937a.648.648 0 0 1 .187.48.635.635 0 0 1-.188.468z" fill="#18852E"/></svg>