<svg xmlns="http://www.w3.org/2000/svg" xmlns:xlink="http://www.w3.org/1999/xlink" viewBox="0 0 96 96"><defs><linearGradient id="New_Gradient_Swatch_4" x1="20.07" y1="11.02" x2="72.88" y2="80.95" gradientUnits="userSpaceOnUse"><stop offset="0" stop-color="#ea4d67"/><stop offset="1" stop-color="#e21c3d"/></linearGradient><linearGradient id="New_Gradient_Swatch_6" x1="21.57" y1="27.32" x2="80.28" y2="86.76" gradientUnits="userSpaceOnUse"><stop offset="0" stop-color="#a50025"/><stop offset="1" stop-color="#e21c3d"/></linearGradient><linearGradient id="linear-gradient" x1="38.56" y1="-5.51" x2="57.44" y2="101.51" gradientUnits="userSpaceOnUse"><stop offset="0" stop-color="#ea4d67"/><stop offset="1" stop-color="#a50025"/></linearGradient></defs><title>temp-lock</title><g id="Layer_2" data-name="Layer 2"><g id="Layer_1-2" data-name="Layer 1"><rect width="96" height="96" rx="8" ry="8" fill="url(#New_Gradient_Swatch_4)"/><circle cx="87" cy="87" r="3" fill="#820025"/><circle cx="9" cy="87" r="3" fill="#820025"/><circle cx="87" cy="9" r="3" fill="#820025"/><circle cx="9" cy="9" r="3" fill="#820025"/><path d="M36.91,33.09C32.49,33.09,36,44,36,48.46L27.67,73l23,23L88,96a8,8,0,0,0,8-8V63.16L59.55,26.7l-12-.74Z" fill="url(#New_Gradient_Swatch_6)"/><g id="Layer_2-2" data-name="Layer 2"><g id="Layer_1-2-2" data-name="Layer 1-2"><g id="Layer_2-2-2" data-name="Layer 2-2"><g id="Layer_3" data-name="Layer 3"><path d="M69.33,70.52a3.54,3.54,0,0,1-3.54,3.53H30.21a3.54,3.54,0,0,1-3.54-3.53h0V49.19a3.54,3.54,0,0,1,3.54-3.54h1.21V38.52a16.58,16.58,0,0,1,33.16,0v7.13h1.16a3.53,3.53,0,0,1,3.53,3.54ZM57.45,45.65V38.52a9.5,9.5,0,0,0-19,0h0v7.13Z" fill="#fff"/></g></g></g></g><path d="M88,2a6,6,0,0,1,6,6V88a6,6,0,0,1-6,6H8a6,6,0,0,1-6-6V8A6,6,0,0,1,8,2H88m0-2H8A8,8,0,0,0,0,8V88a8,8,0,0,0,8,8H88a8,8,0,0,0,8-8V8a8,8,0,0,0-8-8Z" fill="url(#linear-gradient)"/></g></g></svg>