<svg width="17" height="17" fill="none" xmlns="http://www.w3.org/2000/svg"><path fill-rule="evenodd" clip-rule="evenodd" d="M8.5 17a8.5 8.5 0 100-17 8.5 8.5 0 000 17zm4.25-8.652a.91.91 0 00-.91-.91h-.456V6.07A2.887 2.887 0 008.5 3.188 2.888 2.888 0 005.616 6.07v1.367h-.455a.91.91 0 00-.911.91v3.643c0 .503.408.91.91.91h6.68a.91.91 0 00.91-.91V8.348zM9.866 6.071v1.367H7.134V6.07c0-.753.613-1.366 1.366-1.366.753 0 1.366.613 1.366 1.366zM7.65 9.623a.85.85 0 011.7 0v.972a.85.85 0 11-1.7 0v-.972z" fill="#63BB60"/></svg>