<svg xmlns="http://www.w3.org/2000/svg" viewBox="0 0 96 96"><defs><linearGradient id="a" x1="20.07" y1="11.02" x2="72.88" y2="80.95" gradientUnits="userSpaceOnUse"><stop offset="0" stop-color="#f9ed83"/><stop offset="1" stop-color="#ebdc52"/></linearGradient><linearGradient id="b" x1="38.56" y1="-5.51" x2="57.44" y2="101.51" gradientUnits="userSpaceOnUse"><stop offset="0" stop-color="#f9ed83"/><stop offset=".57" stop-color="#ebdc52"/><stop offset="1" stop-color="#ccb800"/></linearGradient><linearGradient id="c" x1="85.51" y1="86.13" x2="56.55" y2="58.51" gradientUnits="userSpaceOnUse"><stop offset="0" stop-color="#bfbba8" stop-opacity="0"/><stop offset="1" stop-color="#bfbba8" stop-opacity=".5"/></linearGradient></defs><rect width="96" height="96" rx="8" ry="8" fill="url(#a)"/><path d="M88 2a6 6 0 016 6v80a6 6 0 01-6 6H8a6 6 0 01-6-6V8a6 6 0 016-6h80m0-2H8a8 8 0 00-8 8v80a8 8 0 008 8h80a8 8 0 008-8V8a8 8 0 00-8-8z" fill="url(#b)"/><path d="M42.21 83.14L53.56 96H88a8 8 0 008-8V60.25L53.79 15.54 48.1 63v7z" opacity=".34" fill="url(#c)" style="mix-blend-mode:multiply"/><circle cx="87" cy="87" r="3" fill="#ccb800"/><circle cx="9" cy="87" r="3" fill="#ccb800"/><circle cx="87" cy="9" r="3" fill="#ccb800"/><circle cx="9" cy="9" r="3" fill="#ccb800"/><rect x="40" y="13.05" width="16" height="49.95" rx="8" ry="8" fill="#fff"/><rect x="39" y="67.28" width="18" height="18" rx="9" ry="9" fill="#fff"/></svg>