<?xml version="1.0" encoding="UTF-8"?><svg xmlns="http://www.w3.org/2000/svg" xmlns:xlink="http://www.w3.org/1999/xlink" viewBox="0 0 304 304"><defs><style>.f,.g{fill:#fff;}.h{fill:#cab000;}.i{fill:#1b1b1b;}.j{fill:#f5d600;}.g{filter:url(#d);}</style><filter id="d" filterUnits="userSpaceOnUse"><feOffset dx="0" dy="0"/><feGaussianBlur result="e" stdDeviation="3"/><feFlood flood-color="#000" flood-opacity=".24"/><feComposite in2="e" operator="in"/><feComposite in="SourceGraphic"/></filter></defs><g id="a"/><g id="b"><g id="c"><g><g><circle class="g" cx="151.89" cy="151.7" r="142.33"/><circle class="j" cx="151.89" cy="151.7" r="128.1"/><circle class="f" cx="151.89" cy="151.7" r="115.29"/></g><g><g><path class="j" d="M99.21,199.16c-5.59,0-10.59-2.89-13.37-7.74s-2.76-10.62,.06-15.45l52.69-90.11c2.8-4.78,7.77-7.63,13.3-7.63s10.51,2.85,13.31,7.63l52.69,90.1c2.82,4.82,2.85,10.6,.07,15.45-2.78,4.85-7.78,7.74-13.37,7.74H99.21Z"/><path class="h" d="M151.89,78.24c5.53,0,10.49,2.86,13.29,7.63l52.69,90.11c2.82,4.83,2.84,10.6,.06,15.45-2.78,4.85-7.78,7.74-13.37,7.74h-52.67V78.24Z"/></g><g><circle class="i" cx="151.89" cy="172.15" r="6.7"/><path class="i" d="M145.19,118.55h13.4v40.2h-13.4v-40.2Z"/></g></g></g></g></g></svg>