<svg xmlns="http://www.w3.org/2000/svg" width="24" height="24" fill="none" viewBox="0 0 24 24"><g fill="currentColor"><path d="M6 6h12v3.78l-1.896-1.9L14.4 9.59l4.8 4.81L24 9.59l-1.704-1.71-1.896 1.9V6c0-1.32-1.08-2.4-2.4-2.4H6C4.68 3.6 3.6 4.68 3.6 6v2.4H6z"/><path d="M12 13.8c.994 0 1.8-.81 1.8-1.8s-.806-1.8-1.8-1.8-1.8.81-1.8 1.8.806 1.8 1.8 1.8"/><path d="M18 18H6v-3.78l1.896 1.9L9.6 14.41 4.8 9.6 0 14.41l1.704 1.71 1.896-1.9V18c0 1.32 1.08 2.4 2.4 2.4h12c1.32 0 2.4-1.08 2.4-2.4v-2.4H18z"/></g></svg>