<svg xmlns="http://www.w3.org/2000/svg" width="42" height="48" viewBox="0 0 42 48" fill="none"><path fill-rule="evenodd" clip-rule="evenodd" d="M5.8833 17.6504H36.1167H5.8833ZM5.8833 29.4171H36.1167H5.8833ZM17.5115 5.88379L14.0231 41.1837L17.5115 5.88379ZM27.9769 5.88379L24.4884 41.1837L27.9769 5.88379Z" fill="white"/><path fill-rule="evenodd" clip-rule="evenodd" d="M0 17.6504C0 14.4011 2.63405 11.7671 5.88332 11.7671H11.0181L11.6567 5.30516C11.9763 2.07164 14.8566 -0.290596 18.0901 0.0289517C20.1522 0.23273 21.8599 1.4779 22.7437 3.19196C23.816 1.10889 26.0824 -0.215447 28.5555 0.0289517C31.789 0.348499 34.1513 3.22883 33.8317 6.46235L33.3075 11.7671H36.1167C39.3659 11.7671 42 14.4011 42 17.6504C42 20.8986 39.3678 23.5319 36.12 23.5337C39.3678 23.5355 42 26.1689 42 29.417C42 32.6663 39.3659 35.3004 36.1167 35.3004H30.9819L30.3433 41.7623C30.0237 44.9958 27.1434 47.358 23.9099 47.0385C21.8478 46.8347 20.1401 45.5895 19.2563 43.8755C18.184 45.9585 15.9176 47.2829 13.4445 47.0385C10.211 46.7189 7.84872 43.8386 8.16827 40.6051L8.6925 35.3004H5.88332C2.63405 35.3004 0 32.6663 0 29.417C0 26.1689 2.63224 23.5355 5.87997 23.5337C2.63224 23.5319 0 20.8986 0 17.6504Z" fill="#0071BB"/><path fill-rule="evenodd" clip-rule="evenodd" d="M5.88379 17.6497H36.1171H5.88379ZM5.88379 29.4163H36.1171H5.88379ZM17.512 5.88303L14.0235 41.183L17.512 5.88303ZM27.9774 5.88303L24.4889 41.183L27.9774 5.88303Z" fill="white"/><path fill-rule="evenodd" clip-rule="evenodd" d="M3.92261 17.6498C3.92261 16.5667 4.80063 15.6887 5.88372 15.6887H14.5723L15.5603 5.69029C15.6668 4.61245 16.627 3.82504 17.7048 3.93156C18.7826 4.03807 19.57 4.99818 19.4635 6.07602L18.5136 15.6887H25.0376L26.0257 5.69029C26.1322 4.61245 27.0923 3.82504 28.1702 3.93156C29.248 4.03807 30.0354 4.99818 29.9289 6.07602L28.979 15.6887H36.1171C37.2002 15.6887 38.0782 16.5667 38.0782 17.6498C38.0782 18.7329 37.2002 19.6109 36.1171 19.6109H28.5914L27.8161 27.4553H36.1171C37.2002 27.4553 38.0782 28.3334 38.0782 29.4164C38.0782 30.4995 37.2002 31.3776 36.1171 31.3776H27.4285L26.4405 41.376C26.3339 42.4538 25.3738 43.2412 24.296 43.1347C23.2182 43.0282 22.4307 42.0681 22.5373 40.9902L23.4872 31.3776H16.9631L15.9751 41.376C15.8686 42.4538 14.9084 43.2412 13.8306 43.1347C12.7528 43.0282 11.9653 42.0681 12.0719 40.9902L13.0218 31.3776H5.88372C4.80063 31.3776 3.92261 30.4995 3.92261 29.4164C3.92261 28.3334 4.80063 27.4553 5.88372 27.4553H13.4094L14.1846 19.6109H5.88372C4.80063 19.6109 3.92261 18.7329 3.92261 17.6498ZM18.126 19.6109L17.3508 27.4553H23.8748L24.65 19.6109H18.126Z" fill="white"/></svg>