<svg width="42" height="48" viewBox="0 0 42 48" fill="none" xmlns="http://www.w3.org/2000/svg"><path fill-rule="evenodd" clip-rule="evenodd" d="M5.883 11.767a5.883 5.883 0 0 0-.003 11.767A5.883 5.883 0 0 0 5.883 35.3h2.81l-.525 5.305a5.883 5.883 0 0 0 11.088 3.27 5.883 5.883 0 0 0 11.087-2.113l.639-6.462h5.135a5.883 5.883 0 0 0 .003-11.766 5.883 5.883 0 0 0-.003-11.767h-2.81l.525-5.305a5.883 5.883 0 0 0-11.088-3.27 5.883 5.883 0 0 0-11.087 2.113l-.639 6.462H5.883Zm.001 3.922a1.961 1.961 0 1 0 0 3.922h8.3l-.774 7.844H5.884a1.961 1.961 0 1 0 0 3.922h7.138l-.95 9.613a1.961 1.961 0 0 0 3.903.386l.988-9.999h6.524l-.95 9.613a1.961 1.961 0 0 0 3.904.386l.988-9.999h8.688a1.961 1.961 0 1 0 0-3.922h-8.3l.775-7.844h7.525a1.961 1.961 0 1 0 0-3.922H28.98l.95-9.613a1.961 1.961 0 0 0-3.903-.386l-.988 9.999h-6.524l.95-9.613a1.961 1.961 0 0 0-3.903-.386l-.989 9.999H5.884Zm11.467 11.766.775-7.844h6.524l-.775 7.844h-6.524Z" fill="#0071BB"/></svg>