<svg xmlns="http://www.w3.org/2000/svg" width="42" height="44" viewBox="0 0 42 44" fill="none"><path fill-rule="evenodd" clip-rule="evenodd" d="M40.0906 31.908V37.9401C40.095 39.0724 39.6434 40.1541 38.8467 40.9196C38.05 41.6851 36.9821 42.0634 35.9053 41.9614C29.9975 41.2891 24.3227 39.1749 19.3368 35.7886C14.6981 32.7015 10.7652 28.5826 7.81757 23.7245C4.57294 18.479 2.55374 12.5068 1.92356 6.29178C1.82655 5.16755 2.18518 4.05238 2.91184 3.21868C3.6385 2.38499 4.66628 1.90954 5.7441 1.90827H11.5037C13.431 1.88861 15.0737 3.36817 15.3435 5.36686C15.5866 7.29726 16.0374 9.19266 16.6874 11.0169C17.2148 12.4865 16.8775 14.1431 15.8234 15.2595L13.3852 17.813C16.1182 22.8469 20.0979 27.0149 24.9044 29.8772L27.3427 27.3236C28.4086 26.2197 29.9904 25.8664 31.3936 26.4188C33.1355 27.0995 34.9452 27.5717 36.7885 27.8263C38.719 28.1115 40.139 29.8667 40.0906 31.908Z" fill="white"/><path fill-rule="evenodd" clip-rule="evenodd" d="M13.4517 5.61497C13.2987 4.50633 12.4191 3.80712 11.5233 3.81626L11.5038 3.81636H5.74549C5.2348 3.81724 4.72562 4.04184 4.35033 4.47241C3.97404 4.90412 3.77381 5.49955 3.82365 6.11547C4.4269 12.0407 6.35277 17.7291 9.4404 22.7207L9.44897 22.7347C12.2544 27.3585 15.993 31.2712 20.394 34.2001L20.4089 34.2102C25.137 37.4213 30.5111 39.4237 36.1001 40.0632C36.6057 40.1067 37.1227 39.9301 37.5248 39.5437C37.9348 39.1498 38.1851 38.5726 38.1827 37.9475L38.1827 37.9401V31.908C38.1827 31.8929 38.1828 31.8779 38.1832 31.8628C38.2103 30.7189 37.425 29.853 36.5168 29.7149C34.5281 29.4394 32.5765 28.9297 30.6992 28.196L30.6947 28.1943C30.0274 27.9315 29.2608 28.0867 28.7187 28.6456L26.2846 31.1949C25.6702 31.8383 24.6926 31.9718 23.9283 31.5166C18.8196 28.4743 14.6011 24.0513 11.7084 18.7235C11.313 17.9951 11.4329 17.0948 12.0053 16.4954L14.4392 13.9463C14.987 13.3636 15.1809 12.4677 14.8916 11.6615L14.8901 11.6573C14.1946 9.70538 13.7122 7.67845 13.4517 5.61497ZM11.4951 0.000199681C14.4471 -0.0244198 16.8457 2.23052 17.2345 5.11167L17.2367 5.12846C17.4625 6.92176 17.8812 8.68168 18.4842 10.3746C19.2481 12.5055 18.7683 14.9199 17.2109 16.5694L17.2036 16.5772L15.7483 18.1012C18.0151 21.8613 21.0404 25.0447 24.6029 27.4301L25.9701 25.9982C27.5589 24.3528 29.953 23.8022 32.09 24.6423C33.6925 25.2684 35.3562 25.7022 37.0496 25.9361L37.0674 25.9387C40.0091 26.3733 42.0563 29.0027 41.9988 31.9285V37.9368C42.0041 39.5748 41.3512 41.1594 40.1688 42.2955C38.9815 43.4363 37.3689 44.0166 35.7256 43.861C35.7204 43.8605 35.7152 43.86 35.71 43.8595C35.7033 43.8588 35.6965 43.8581 35.6897 43.8573C29.4735 43.1499 23.5082 40.9265 18.2722 37.372C13.4013 34.1288 9.2784 29.8081 6.19063 24.7213C2.79433 19.2282 0.684015 12.9806 0.025312 6.48427L0.0226418 6.45582C-0.117847 4.82763 0.399025 3.19777 1.47356 1.96497C2.55136 0.728407 4.09733 0.0021248 5.74197 0.000200932L5.74421 0.00019843L11.4951 0.000199681Z" fill="#0071BB"/></svg>