<svg width="42" height="44" viewBox="0 0 42 44" fill="none" xmlns="http://www.w3.org/2000/svg"><path fill-rule="evenodd" clip-rule="evenodd" d="M13.452 5.615c-.153-1.109-1.033-1.808-1.929-1.799H5.745a1.86 1.86 0 0 0-1.395.656 2.234 2.234 0 0 0-.526 1.643c.603 5.926 2.529 11.614 5.616 16.606l.009.014c2.805 4.623 6.544 8.536 10.945 11.465l.015.01c4.728 3.211 10.102 5.214 15.691 5.853a1.826 1.826 0 0 0 1.425-.52c.41-.393.66-.97.658-1.596v-6.084c.027-1.144-.758-2.01-1.666-2.148a25.647 25.647 0 0 1-5.818-1.519l-.004-.002c-.668-.262-1.434-.107-1.976.452l-2.434 2.549a1.908 1.908 0 0 1-2.357.322c-5.108-3.043-9.327-7.466-12.22-12.793a1.908 1.908 0 0 1 .297-2.229l2.434-2.549c.548-.582.742-1.478.453-2.284l-.002-.005a28.724 28.724 0 0 1-1.438-6.042ZM11.495 0c2.952-.024 5.35 2.23 5.74 5.112l.002.016a24.914 24.914 0 0 0 1.247 5.247c.764 2.13.284 4.545-1.273 6.194l-.007.008-1.456 1.524c2.267 3.76 5.292 6.944 8.855 9.33l1.367-1.433c1.589-1.645 3.983-2.196 6.12-1.356a21.84 21.84 0 0 0 4.96 1.294l.017.003c2.942.434 4.99 3.064 4.932 5.99v6.008a6.019 6.019 0 0 1-1.83 4.358 5.64 5.64 0 0 1-4.443 1.566l-.016-.002c-.007 0-.014 0-.02-.002-6.216-.707-12.182-2.93-17.418-6.485-4.87-3.243-8.994-7.564-12.081-12.65C2.794 19.227.684 12.98.025 6.483l-.002-.028a6.05 6.05 0 0 1 1.45-4.491A5.672 5.672 0 0 1 5.743 0h5.753Z" fill="#0071BB"/></svg>