<svg xmlns="http://www.w3.org/2000/svg" width="42" height="40" viewBox="0 0 42 32" fill="none"><rect x="2" y="2" width="38" height="27" fill="white"/><path fill-rule="evenodd" clip-rule="evenodd" d="M3.95652 3.65217C3.78843 3.65217 3.65217 3.78843 3.65217 3.95652V10.779H38.3478V3.95652C38.3478 3.78844 38.2116 3.65217 38.0435 3.65217H3.95652ZM42 3.95652C42 1.77139 40.2286 0 38.0435 0H3.95652C1.77139 0 0 1.7714 0 3.95652V27.721C0 29.9061 1.7714 31.6775 3.95652 31.6775H38.0435C40.2286 31.6775 42 29.9061 42 27.721V3.95652ZM38.3478 14.4312H3.65217V27.721C3.65217 27.8891 3.78843 28.0254 3.95652 28.0254H38.0435C38.2116 28.0254 38.3478 27.8891 38.3478 27.721V14.4312Z" fill="#0071BB"/></svg>