<svg width="45" height="43" viewBox="0 0 45 43" fill="none" xmlns="http://www.w3.org/2000/svg"><path clip-rule="evenodd" d="M17.024 40.427a2 2 0 0 1-2.818-.246L2.286 25.974a2 2 0 0 1 .246-2.817L17.27 10.79c.38-.319.865-.366 1.083-.106l13.701 16.329c.218.26.088.729-.292 1.047L17.024 40.427Z" stroke="#0071BB" stroke-width="3.5"/><path clip-rule="evenodd" d="m31.382 26.508-12.384-14.76 10.52-8.827a1.435 1.435 0 0 1 2.02.177l10.54 12.56c.51.607.43 1.512-.177 2.022l-10.52 8.826Z" stroke="#0071BB" stroke-width="3.5"/><path fill-rule="evenodd" clip-rule="evenodd" d="m33.16 14.57-.429-.51c-.148-.177-.493-.133-.769.1l-6.408 5.376.966 1.152 6.408-5.377c.276-.232.38-.563.232-.74Zm-1.932-2.305-.428-.51c-.149-.177-.493-.133-.77.1l-6.407 5.376.966 1.151 6.408-5.377c.276-.231.38-.563.231-.74Zm5.014 3.642-.429-.51c-.148-.178-.492-.134-.767.097l-7.561 6.345.966 1.151 7.562-6.345c.275-.23.377-.561.229-.738Zm-5.794-6.908-.428-.511c-.149-.177-.492-.133-.767.097l-7.562 6.345.966 1.152 7.562-6.345c.275-.23.378-.561.23-.738Z" fill="#0071BB"/></svg>