<svg xmlns="http://www.w3.org/2000/svg" width="42" height="40" viewBox="0 0 42 40" fill="none"><path fill-rule="evenodd" clip-rule="evenodd" d="M16.592 37.383a2.705 2.705 0 0 1-3.811-.334L2.437 24.722a2.705 2.705 0 0 1 .333-3.812L16.215 9.63c.362-.305.824-.35 1.032-.102l13.068 15.574c.208.248.084.696-.278 1l-13.445 11.28Z" fill="#fff"/><path fill-rule="evenodd" clip-rule="evenodd" d="M32.127 26.065c.158-.564.168-1.41-.43-2.122L18.629 8.369c-.598-.712-1.432-.85-2.016-.792a2.881 2.881 0 0 0-1.558.67L1.611 19.53a4.51 4.51 0 0 0-.556 6.352L11.4 38.21a4.51 4.51 0 0 0 6.353.555l13.444-11.28a2.88 2.88 0 0 0 .931-1.419Zm-3.976-.736L15.433 36.001a.902.902 0 0 1-1.27-.111L3.817 23.563a.902.902 0 0 1 .112-1.27L16.648 11.62l11.503 13.71Z" fill="#0071BB"/><path fill-rule="evenodd" clip-rule="evenodd" d="M29.674 24.619 17.863 10.543l10.033-8.42a1.368 1.368 0 0 1 1.928.17l10.052 11.98c.486.578.41 1.441-.169 1.927l-10.033 8.42Z" fill="#fff"/><path fill-rule="evenodd" clip-rule="evenodd" d="M40.867 17.582a3.172 3.172 0 0 0 .39-4.469l-10.05-11.98a3.172 3.172 0 0 0-4.47-.39L15.323 10.32l14.13 16.84 11.415-9.578Zm-2.652-2.484-8.318 6.98-9.493-11.313 8.318-6.98 9.493 11.313Z" fill="#0071BB"/><path fill-rule="evenodd" clip-rule="evenodd" d="m31.372 13.232-.408-.487c-.142-.168-.47-.126-.734.095l-6.112 5.128.922 1.099 6.111-5.129c.264-.22.363-.537.221-.706Zm-1.842-2.196-.41-.487c-.141-.169-.47-.127-.733.095l-6.112 5.128.922 1.098 6.111-5.128c.264-.221.363-.537.221-.706Zm4.783 3.471-.408-.487c-.142-.17-.47-.127-.731.093l-7.213 6.051.922 1.098 7.212-6.051c.262-.22.36-.536.218-.704Zm-5.528-6.589-.409-.487c-.141-.169-.469-.127-.73.093l-7.213 6.052.922 1.098 7.212-6.052c.262-.22.36-.535.218-.704Z" fill="#0071BB"/></svg>