<svg width="42" height="48" viewBox="0 0 42 48" fill="none" xmlns="http://www.w3.org/2000/svg"><path d="M0 26.966c.116-5.715 2.307-10.864 6.728-15.008a20.103 20.103 0 0 1 11.085-5.31c5.746-.834 11.008.431 15.678 3.867 4.286 3.154 6.925 7.407 8.028 12.594.362 1.7.618 3.428.401 5.16-.392 3.118-2.109 5.328-4.993 6.57-4.668 2.01-10.145-.887-11.137-5.848-.114-.57-.18-1.15-.196-1.73-.07-2.377-1.864-4.328-4.134-4.462-2.527-.152-4.638 1.471-4.93 3.922-.196 1.62.069 3.235.503 4.808 1.584 5.732 5.142 9.716 10.699 11.911.773.306 1.398.708 1.49 1.61a1.767 1.767 0 0 1-.655 1.644 1.786 1.786 0 0 1-1.757.262c-2.59-.9-4.973-2.31-7.006-4.144a20.613 20.613 0 0 1-6.146-9.745c-.688-2.38-1.085-4.809-.686-7.29.546-3.393 3.525-6.108 6.945-6.578 4.085-.563 8.27 2.156 9.129 6.48.14.712.139 1.449.233 2.172.313 2.42 2.18 4.035 4.625 3.986a4.514 4.514 0 0 0 3.088-1.319 4.473 4.473 0 0 0 1.312-3.08 17.205 17.205 0 0 0-3.456-10.501 17.338 17.338 0 0 0-9.146-6.262c-4.007-1.118-7.978-.883-11.774.844-5.13 2.34-8.4 6.28-9.79 11.718a16.573 16.573 0 0 0 .117 8.643c.172.616.213 1.222-.178 1.772a1.744 1.744 0 0 1-1.72.8 1.72 1.72 0 0 1-1-.425 1.708 1.708 0 0 1-.542-.939A23.398 23.398 0 0 1 0 26.966Z" fill="#0071BB"/><path d="M6.409 27.678c0-5.547 2.377-10.17 7.62-13.13a13.648 13.648 0 0 1 9.293-1.58c5.679 1.013 9.5 4.272 11.504 9.638a12.92 12.92 0 0 1 .771 4.575c0 1.035-.656 1.785-1.603 1.873-1.028.096-1.821-.505-1.99-1.56-.145-.908-.146-1.845-.36-2.728a10.432 10.432 0 0 0-1.874-4.052c-.91-1.2-2.07-2.191-3.401-2.904a10.95 10.95 0 0 0-5.618-1.384 10.336 10.336 0 0 0-6.606 2.4c-2.937 2.443-4.228 5.583-4.057 9.396a24.188 24.188 0 0 0 3.295 11.139 1.773 1.773 0 0 1-.151 2.083 1.789 1.789 0 0 1-2.036.505 2.275 2.275 0 0 1-.997-.867 27.76 27.76 0 0 1-3.552-10.31c-.117-.897-.139-1.81-.238-3.094ZM20.836 0c4.165.046 8.27.996 12.028 2.785a27.025 27.025 0 0 1 6.699 4.571c.902.834.996 1.935.229 2.74-.66.692-1.623.76-2.418.135-.637-.503-1.23-1.062-1.866-1.56A22.255 22.255 0 0 0 25.243 4.09c-7.426-1.245-14.052.585-19.835 5.41a4.85 4.85 0 0 1-1.37.866c-.688.256-1.485-.097-1.878-.682a1.824 1.824 0 0 1 .047-2.144c.22-.26.463-.5.726-.717C6.916 3.42 11.476 1.24 16.671.435 18.046.218 19.453.138 20.836 0Z" fill="#0071BB"/><path d="M33.733 41.822a14.706 14.706 0 0 1-8.535-2.776 14.599 14.599 0 0 1-5.308-7.21 14.347 14.347 0 0 1-.73-4.338c-.022-1.518 1.345-2.425 2.657-1.78a1.642 1.642 0 0 1 .941 1.328c.102.816.116 1.653.296 2.452.88 3.898 3.18 6.592 6.945 8.003 1.637.61 3.396.818 5.13.608a1.791 1.791 0 0 1 1.782.904c.114.206.186.433.212.667.103 1.107-.588 1.931-1.688 2.013l-1.702.129Z" fill="#0071BB"/></svg>