<svg xmlns="http://www.w3.org/2000/svg" width="16" height="16" fill="none" viewBox="0 0 16 16"><defs><clipPath id="a"><path fill="#fff" d="M732 1098h16v16h-16z"/></clipPath></defs><g clip-path="url(#a)" transform="translate(-732 -1098)"><path fill="currentColor" d="M739.196 1102h-3.2v1.2h3.2zm-3.2 3.6h1.2v3.6c0 .22-.176.4-.4.4h-.8l.8 1.2c.88 0 1.6-.72 1.6-1.6v-3.6h.8v-1.2h-3.2zm-2.08-1.2c0 1.12-.8 1.92-1.92 1.92v1.28c.424 0 .832-.09 1.2-.24v3.44h1.2v-4.3c.488-.56.8-1.29.8-2.1zm-1.92-1.28v1.28c1.768 0 3.2-1.43 3.2-3.2h-1.28c0 1.12-.8 1.92-1.92 1.92m11.08-1.12-3.072 8.8h1.576l.624-1.94h3.544l.632 1.94h1.624l-3.128-8.8zm-.416 5.44s.968-2.93 1.296-3.97c.328 1.04 1.32 3.97 1.32 3.97z"/></g></svg>