<svg xmlns="http://www.w3.org/2000/svg" width="20" height="20" fill="none" viewBox="0 0 20 20"><defs><clipPath id="a"><path fill="#fff" d="M816 1096h20v20h-20z"/></clipPath></defs><g clip-path="url(#a)" transform="translate(-816 -1096)"><path fill="currentColor" d="M824.995 1101h-4v1.5h4zm-4 4.5h1.5v4.5c0 .28-.22.5-.5.5h-1l1 1.5c1.1 0 2-.9 2-2v-4.5h1v-1.5h-4zm-2.6-1.5c0 1.4-1 2.4-2.4 2.4v1.6c.53 0 1.04-.11 1.5-.3v4.3h1.5v-5.38c.61-.7 1-1.61 1-2.62zm-2.4-1.6v1.6c2.21 0 4-1.79 4-4h-1.6c0 1.4-1 2.4-2.4 2.4m13.85-1.4-3.84 11h1.97l.78-2.43h4.43l.79 2.43h2.03l-3.91-11zm-.52 6.8s1.21-3.66 1.62-4.96c.41 1.3 1.65 4.96 1.65 4.96z"/></g></svg>