<svg xmlns="http://www.w3.org/2000/svg" width="24" height="24" fill="none" viewBox="0 0 24 24"><defs><clipPath id="a"><path fill="#fff" d="M908 1094h24v24h-24z"/></clipPath></defs><g clip-path="url(#a)" transform="translate(-908 -1094)"><path fill="currentColor" d="M918.794 1100h-4.8v1.8h4.8zm-4.8 5.4h1.8v5.4c0 .34-.264.6-.6.6h-1.2l1.2 1.8c1.32 0 2.4-1.08 2.4-2.4v-5.4h1.2v-1.8h-4.8zm-3.12-1.8c0 1.68-1.2 2.88-2.88 2.88v1.92c.636 0 1.248-.13 1.8-.36v5.16h1.8v-6.46c.732-.84 1.2-1.93 1.2-3.14zm-2.88-1.92v1.92a4.8 4.8 0 0 0 4.8-4.8h-1.92c0 1.68-1.2 2.88-2.88 2.88m16.62-1.68-4.608 13.2h2.364l.936-2.92h5.316l.948 2.92h2.436l-4.692-13.2zm-.624 8.16s1.452-4.39 1.944-5.95c.492 1.56 1.98 5.95 1.98 5.95z"/></g></svg>