<svg xmlns="http://www.w3.org/2000/svg" width="16" height="16" fill="none" viewBox="0 0 16 16"><defs><clipPath id="a"><path fill="#fff" d="M2012 994h16v16h-16z"/></clipPath></defs><g clip-path="url(#a)" transform="translate(-2012 -994)"><path fill="currentColor" d="M2022.4 996.4h3.2v3.2h1.6v-3.2c0-.88-.72-1.6-1.6-1.6h-3.2zm-8 3.2v-3.2h3.2v-1.6h-3.2c-.88 0-1.6.72-1.6 1.6v3.2zm0 8h3.2v1.6h-3.2c-.88 0-1.6-.72-1.6-1.6v-3.2h1.6zm11.2-3.2v3.2h-3.2v1.6h3.2c.88 0 1.6-.72 1.6-1.6v-3.2zm-5.6 0c1.33 0 2.4-1.07 2.4-2.4s-1.07-2.4-2.4-2.4-2.4 1.07-2.4 2.4 1.07 2.4 2.4 2.4"/></g></svg>