<svg xmlns="http://www.w3.org/2000/svg" viewBox="0 0 320 60"><title>pkey-block</title><g id="Layer_2" data-name="Layer 2"><g id="Layer_1-2" data-name="Layer 1"><rect x="1.5" y="1.5" width="317" height="57" rx="2.5" ry="2.5" fill="#fff"/><path d="M316,3a1,1,0,0,1,1,1V56a1,1,0,0,1-1,1H4a1,1,0,0,1-1-1V4A1,1,0,0,1,4,3H316m0-3H4A4,4,0,0,0,0,4V56a4,4,0,0,0,4,4H316a4,4,0,0,0,4-4V4a4,4,0,0,0-4-4Z" fill="#112e51"/><circle cx="12" cy="12" r="1" fill="#fff"/><path d="M12,9a3,3,0,1,0,3,3,3,3,0,0,0-3-3Z" fill="#112e51"/><circle cx="12" cy="48" r="1" fill="#fff"/><path d="M12,45a3,3,0,1,0,3,3,3,3,0,0,0-3-3Z" fill="#112e51"/><circle cx="308" cy="12" r="1" fill="#fff"/><path d="M308,9a3,3,0,1,0,3,3,3,3,0,0,0-3-3Z" fill="#112e51"/><circle cx="308" cy="48" r="1" fill="#fff"/><path d="M308,45a3,3,0,1,0,3,3,3,3,0,0,0-3-3Z" fill="#112e51"/></g></g></svg>