<svg xmlns="http://www.w3.org/2000/svg" viewBox="0 0 62.82 53.37"><title>warning-4x</title><g id="Layer_2" data-name="Layer 2"><g id="Layer_1-2" data-name="Layer 1"><path d="M24.63,3.75,1.23,41.12A8,8,0,0,0,8,53.37H54.8a8,8,0,0,0,6.78-12.25L38.19,3.75A8,8,0,0,0,24.63,3.75Z" fill="#e3d238"/><path d="M26.72,43.4a4.75,4.75,0,0,1,1.41-3.58,5.27,5.27,0,0,1,7.07,0,4.75,4.75,0,0,1,1.41,3.58A4.92,4.92,0,0,1,35.2,47a5.16,5.16,0,0,1-7.07,0A4.92,4.92,0,0,1,26.72,43.4Zm.44-23.82L26.88,14a1,1,0,0,1,1-1h7.56a1,1,0,0,1,1,1l-.28,5.54L34.91,34.83a1,1,0,0,1-1,.92H29.41a1,1,0,0,1-1-.92Z" fill="#fff"/></g></g></svg>