<svg xmlns="http://www.w3.org/2000/svg" width="16" height="16" fill="none" viewBox="0 0 16 16"><g fill="currentColor"><path d="M4.256 6.94a.9.9 0 0 0-.344-.07H3.52v1.11h.392c.136 0 .248-.03.344-.08a.46.46 0 0 0 .216-.19.56.56 0 0 0 .072-.29q0-.18-.072-.3a.44.44 0 0 0-.216-.18m4.168.08c-.152-.07-.328-.1-.552-.1H7.48v2.15h.424q.312 0 .528-.09a.7.7 0 0 0 .336-.33c.072-.16.112-.38.112-.65s-.04-.5-.12-.66a.64.64 0 0 0-.336-.32"/><path d="M13.6 1.6H2.4C1.072 1.6 0 2.67 0 4v8c0 1.33 1.072 2.4 2.4 2.4h11.2c1.328 0 2.4-1.07 2.4-2.4V4c0-1.33-1.072-2.4-2.4-2.4M5.52 8.16q-.192.315-.552.48c-.24.11-.512.17-.824.17H3.52v1.18H2.4v-4h1.784q.458 0 .808.18c.232.12.408.28.536.49q.192.33.192.75c0 .28-.064.53-.2.74zm4.232.91q-.254.45-.712.69c-.304.16-.672.24-1.088.24H6.36V6h1.576q.636 0 1.104.24t.72.69c.168.29.248.65.248 1.07s-.08.78-.248 1.07zm2.064-2.2v.91h1.608v.85h-1.608V10h-1.12V6h2.912v.87z"/></g></svg>