<svg xmlns="http://www.w3.org/2000/svg" width="20" height="20" fill="none" viewBox="0 0 20 20"><g fill="currentColor"><path d="M5.32 8.67a1.1 1.1 0 0 0-.43-.08H4.4v1.38h.49c.17 0 .31-.03.43-.09q.18-.09.27-.24c.06-.1.09-.23.09-.37S5.65 9 5.59 8.9a.56.56 0 0 0-.27-.23m5.21.1c-.19-.08-.41-.12-.69-.12h-.49v2.69h.53q.39 0 .66-.12c.18-.08.32-.21.42-.41.09-.2.14-.47.14-.81s-.05-.62-.15-.82-.24-.33-.42-.41"/><path d="M17 2H3C1.34 2 0 3.34 0 5v10c0 1.66 1.34 3 3 3h14c1.66 0 3-1.34 3-3V5c0-1.66-1.34-3-3-3M6.9 10.2q-.24.39-.69.6c-.3.14-.64.21-1.03.21H4.4v1.48H3v-5h2.23c.38 0 .72.07 1.01.22s.51.35.67.62q.24.405.24.93c0 .35-.08.67-.25.93zm5.29 1.14c-.21.37-.51.66-.89.86s-.84.3-1.36.3H7.95v-5h1.97q.795 0 1.38.3c.39.2.69.49.9.86s.31.82.31 1.34-.1.97-.31 1.34zm2.58-2.75v1.13h2.01v1.07h-2.01v1.71h-1.4v-5h3.64v1.09z"/></g></svg>