<svg xmlns="http://www.w3.org/2000/svg" width="24" height="24" fill="none" viewBox="0 0 24 24"><g fill="currentColor"><path d="M6.384 10.4a1.3 1.3 0 0 0-.516-.09H5.28v1.65h.588c.204 0 .372-.03.516-.1a.8.8 0 0 0 .324-.29.9.9 0 0 0 .108-.45c0-.16-.036-.32-.108-.44a.68.68 0 0 0-.324-.28m6.252.12a2.2 2.2 0 0 0-.828-.14h-.588v3.23h.636q.468 0 .792-.15a.98.98 0 0 0 .504-.49c.108-.24.168-.56.168-.97s-.06-.74-.18-.98-.288-.4-.504-.5"/><path d="M20.4 2.4H3.6C1.608 2.4 0 4.01 0 6v12c0 1.99 1.608 3.6 3.6 3.6h16.8c1.992 0 3.6-1.61 3.6-3.6V6c0-1.99-1.608-3.6-3.6-3.6M8.28 12.24q-.288.465-.828.72c-.36.17-.768.25-1.236.25H5.28v1.78H3.6v-6h2.676c.456 0 .864.08 1.212.26s.612.42.804.75q.288.48.288 1.11c0 .42-.096.81-.3 1.12zm6.348 1.37c-.252.44-.612.79-1.068 1.03s-1.008.36-1.632.36H9.54V9h2.364q.954 0 1.656.36c.468.24.828.59 1.08 1.03.252.45.372.99.372 1.61s-.12 1.16-.372 1.61zm3.096-3.3v1.35h2.412v1.29h-2.412V15h-1.68V9h4.368v1.31z"/></g></svg>