<svg xmlns="http://www.w3.org/2000/svg" width="16" height="16" fill="none" viewBox="0 0 16 16"><defs><clipPath id="a"><path fill="#fff" d="M732 266h16v16h-16z"/></clipPath></defs><g clip-path="url(#a)" transform="translate(-732 -266)"><g fill="currentColor"><path d="M739.2 278v-4.8h1.6v4.8zm1.76-7.04c0 .53-.24.96-.96.96s-.96-.43-.96-.96.24-.96.96-.96.96.43.96.96"/><path fill-rule="evenodd" d="M740 266.8c-4 0-7.2 3.2-7.2 7.2s3.2 7.2 7.2 7.2 7.2-3.2 7.2-7.2-3.2-7.2-7.2-7.2m0 1.6c3.12 0 5.6 2.48 5.6 5.6s-2.48 5.6-5.6 5.6-5.6-2.48-5.6-5.6 2.48-5.6 5.6-5.6" clip-rule="evenodd"/></g></g></svg>