<svg xmlns="http://www.w3.org/2000/svg" width="16" height="16" fill="none" viewBox="0 0 16 16"><defs><clipPath id="a"><path fill="#fff" d="M732 1722h16v16h-16z"/></clipPath></defs><g clip-path="url(#a)" transform="translate(-732 -1722)"><g fill="currentColor"><path d="M738.968 1722.8v1.1c0 .6-.376 1.12-.928 1.35-.008 0-.016 0-.024.01-.192.08-.384.12-.584.12a1.48 1.48 0 0 1-1.024-.42l-.776-.78-1.456 1.46.776.78c.424.42.528 1.05.304 1.6 0 0 0 .01-.008.02-.224.55-.752.93-1.352.93H732.8v2.05h1.096c.6 0 1.12.38 1.352.93q-.002.015.008.03c.232.55.12 1.18-.304 1.6l-.776.77 1.456 1.46.776-.78c.28-.28.648-.41 1.024-.41.192 0 .392.04.584.12h.024c.552.23.928.76.928 1.36v1.09h2.056v-1.09c0-.6.376-1.13.928-1.36h.032c.192-.08.384-.12.584-.12.376 0 .744.14 1.016.41l.776.78 1.456-1.46-.776-.77a1.465 1.465 0 0 1-.304-1.6c0-.01 0-.02.008-.03.224-.55.752-.93 1.352-.93h1.096v-2.05h-1.096c-.6 0-1.128-.38-1.352-.93 0-.01 0-.02-.008-.02-.232-.56-.12-1.19.304-1.6l.776-.78-1.456-1.46-.776.78c-.28.28-.648.42-1.016.42-.2 0-.392-.04-.584-.12-.008 0-.016 0-.024-.01-.552-.23-.928-.75-.928-1.35v-1.1zm1.024 10.8c-1.992 0-3.6-1.61-3.6-3.6s1.608-3.6 3.6-3.6 3.6 1.61 3.6 3.6-1.608 3.6-3.6 3.6"/><path d="M740.792 1728.4h-1.6c-.44 0-.8.36-.8.8v1.6c0 .44.36.8.8.8h1.6c.44 0 .8-.36.8-.8v-1.6c0-.44-.36-.8-.8-.8"/></g></g></svg>