<svg xmlns="http://www.w3.org/2000/svg" width="20" height="20" fill="none" viewBox="0 0 20 20"><g fill="currentColor"><path d="M8.71 1v1.37c0 .75-.47 1.41-1.16 1.69-.01 0-.02 0-.03.01a1.83 1.83 0 0 1-2.01-.37l-.97-.97-1.82 1.82.97.97c.53.53.66 1.32.38 2 0 .01 0 .02-.01.03-.28.69-.94 1.16-1.69 1.16H1v2.57h1.37c.75 0 1.4.47 1.69 1.16 0 .01 0 .02.01.03.29.69.15 1.48-.38 2l-.97.97 1.82 1.82.97-.97c.35-.35.81-.52 1.28-.52.24 0 .49.05.73.15.01 0 .02 0 .03.01.69.28 1.16.94 1.16 1.69v1.37h2.57v-1.37c0-.75.47-1.41 1.16-1.69.01 0 .02 0 .04-.01.24-.1.48-.15.73-.15.47 0 .93.18 1.27.52l.97.97 1.82-1.82-.97-.97c-.53-.53-.66-1.31-.38-2 0-.01 0-.02.01-.03.28-.69.94-1.16 1.69-1.16h1.37V8.71h-1.37c-.75 0-1.41-.47-1.69-1.16 0-.01 0-.02-.01-.03-.29-.69-.15-1.48.38-2l.97-.97-1.82-1.82-.97.97c-.35.35-.81.52-1.27.52-.25 0-.49-.05-.73-.15-.01 0-.02 0-.03-.01-.69-.28-1.16-.94-1.16-1.69V1zm1.28 13.5c-2.49 0-4.5-2.01-4.5-4.5s2.01-4.5 4.5-4.5 4.5 2.01 4.5 4.5-2.01 4.5-4.5 4.5"/><path d="M10.99 8h-2c-.55 0-1 .45-1 1v2c0 .55.45 1 1 1h2c.55 0 1-.45 1-1V9c0-.55-.45-1-1-1"/></g></svg>