<svg xmlns="http://www.w3.org/2000/svg" width="24" height="24" fill="none" viewBox="0 0 24 24"><g fill="currentColor"><path d="M10.452 1.2v1.64c0 .9-.564 1.7-1.392 2.03-.012 0-.024 0-.036.01-.288.12-.576.18-.876.18-.564 0-1.116-.21-1.536-.62L5.448 3.28 3.264 5.46l1.164 1.16c.636.64.792 1.59.456 2.4 0 .02 0 .03-.012.04a2.2 2.2 0 0 1-2.028 1.39H1.2v3.09h1.644c.9 0 1.68.56 2.028 1.39 0 .01 0 .02.012.03.348.83.18 1.78-.456 2.4l-1.164 1.17 2.184 2.18 1.164-1.16c.42-.42.972-.63 1.536-.63.288 0 .588.06.876.18.012 0 .024 0 .036.02a2.18 2.18 0 0 1 1.392 2.02v1.65h3.084v-1.65c0-.9.564-1.69 1.392-2.02.012 0 .024 0 .048-.02.288-.12.576-.18.876-.18.564 0 1.116.22 1.524.63l1.164 1.16 2.184-2.18-1.164-1.17c-.636-.63-.792-1.57-.456-2.4 0-.01 0-.02.012-.03a2.2 2.2 0 0 1 2.028-1.39h1.644v-3.09h-1.644c-.9 0-1.692-.56-2.028-1.39 0-.01 0-.02-.012-.04-.348-.82-.18-1.77.456-2.4l1.164-1.16-2.184-2.18-1.164 1.16c-.42.42-.972.62-1.524.62-.3 0-.588-.06-.876-.18-.012 0-.024 0-.036-.01a2.2 2.2 0 0 1-1.392-2.03V1.2zm1.536 16.2c-2.988 0-5.4-2.41-5.4-5.4S9 6.6 11.988 6.6s5.4 2.41 5.4 5.4-2.412 5.4-5.4 5.4"/><path d="M13.188 9.6h-2.4c-.66 0-1.2.54-1.2 1.2v2.4c0 .66.54 1.2 1.2 1.2h2.4c.66 0 1.2-.54 1.2-1.2v-2.4c0-.66-.54-1.2-1.2-1.2"/></g></svg>