<svg xmlns="http://www.w3.org/2000/svg" viewBox="0 0 333 333"><path d="M327.3 0H5.7C2.5 0 0 2.5 0 5.7v321.6c0 3.1 2.5 5.7 5.7 5.7h321.6c3.1 0 5.7-2.5 5.7-5.7V5.7c0-3.2-2.5-5.7-5.7-5.7"/><path fill="#FFF" d="M98 229.3c0 1.1-.9 2-2 2H83.5c-1.1 0-2-.9-2-2V117.4H65.2c-1.1 0-2-.9-2-2v-11.9c0-1.1.9-2 2-2H96c1.1 0 2 .9 2 2zm171.8-113.9c0 1.1-.9 2-2 2h-34.4v39h28.3c1.1 0 2 .9 2 2v11.9c0 1.1-.9 2-2 2h-28.3v57.1c0 1.1-.9 2-2 2h-12.5c-1.1 0-2-.9-2-2V103.5c0-1.1.9-2 2-2h48.9c1.1 0 2 .9 2 2zm-112.3 118c-21.9 0-39.8-17.9-39.8-39.8 0-13.2 6.4-25.1 17.1-32.5-7.7-6.6-12.3-16.3-12.3-26.4 0-19.3 15.7-35 35-35s35 15.7 35 35c0 10.2-4.6 19.8-12.3 26.4 10.7 7.4 17.1 19.4 17.1 32.5 0 21.9-17.9 39.8-39.8 39.8m0-63.8c-13.2 0-23.9 10.7-23.9 23.9s10.7 23.9 23.9 23.9 23.9-10.7 23.9-23.9c0-13.1-10.7-23.9-23.9-23.9m0-15.8c10.6 0 19.1-8.6 19.1-19.1 0-10.6-8.6-19.1-19.1-19.1s-19.1 8.6-19.1 19.1 8.5 19.1 19.1 19.1"/></svg>