<?xml version="1.0" encoding="UTF-8"?>
<svg width="252px" height="70px" viewBox="0 0 252 70" version="1.1" xmlns="http://www.w3.org/2000/svg" xmlns:xlink="http://www.w3.org/1999/xlink">
    <!-- Generator: Sketch 56.3 (81716) - https://sketch.com -->
    <title>download</title>
    <desc>Created with Sketch.</desc>
    <g id="Page-1" stroke="none" stroke-width="1" fill="none" fill-rule="evenodd">
        <g id="download" transform="translate(0.000000, -1.000000)" fill-rule="nonzero">
            <g id="BitSight_3_" transform="translate(0.000000, 7.000000)">
                <g id="T__x28_2_x29__3_" transform="translate(209.000000, 1.000000)" fill="#1A345F">
                    <polygon id="Path" points="13.23 6.95 0.53 6.95 0.53 0.14 34.2 0.14 34.2 6.95 21.37 6.95 21.37 44.72 13.23 44.72 13.23 6.95"></polygon>
                </g>
                <g id="H_3_" transform="translate(169.000000, 1.000000)" fill="#1A345F">
                    <polygon id="Path" points="8.36 0.13 8.36 17.99 27.21 17.99 27.21 0.13 35.35 0.13 35.35 44.71 27.21 44.71 27.21 25.06 8.36 25.06 8.36 44.71 0.22 44.71 0.22 0.13"></polygon>
                </g>
                <g id="G_3_" transform="translate(125.000000, 0.000000)" fill="#1A345F">
                    <path d="M38.92,43.67 C36.07,44.73 30.52,46.18 24.57,46.18 C17.03,46.18 11.34,44.26 7.11,40.23 C3.14,36.46 0.83,30.57 0.89,23.83 C0.89,9.74 10.95,0.68 25.69,0.68 C31.18,0.68 35.48,1.8 37.53,2.8 L35.74,9.35 C33.29,8.29 30.32,7.43 25.62,7.43 C16.1,7.43 9.41,13.05 9.41,23.44 C9.41,33.56 15.63,39.58 24.89,39.58 C27.8,39.58 29.99,39.18 31.04,38.65 L31.04,27.54 L23.17,27.54 L23.17,21.13 L38.91,21.13 L38.91,43.67 L38.92,43.67 Z" id="Path"></path>
                </g>
                <g id="I__x28_2_x29__3_" transform="translate(112.000000, 1.000000)" fill="#1A345F">
                    <polygon id="Path" points="8.61 0.13 8.61 44.71 0.47 44.71 0.47 0.13"></polygon>
                </g>
                <g id="S_3_" transform="translate(78.000000, 0.000000)" fill="#1A345F">
                    <path d="M2.54,36.85 C5.19,38.37 9.15,39.69 13.32,39.69 C18.54,39.69 21.46,37.24 21.46,33.6 C21.46,30.23 19.21,28.24 13.52,26.19 C6.18,23.55 1.48,19.64 1.48,13.23 C1.48,5.95 7.57,0.4 17.22,0.4 C22.05,0.4 25.62,1.46 27.93,2.65 L25.95,9.2 C24.36,8.34 21.25,7.08 17.09,7.08 C11.93,7.08 9.68,9.86 9.68,12.44 C9.68,15.88 12.26,17.47 18.21,19.78 C25.95,22.69 29.72,26.59 29.72,33.01 C29.72,40.15 24.3,46.37 12.79,46.37 C8.1,46.37 3.2,45.04 0.75,43.59 L2.54,36.85 Z" id="Path"></path>
                </g>
                <g id="T_3_" transform="translate(43.000000, 1.000000)" fill="#0AA3D2">
                    <polygon id="Path" points="14.52 5.03 0.96 5.03 0.96 0.14 33.97 0.14 33.97 5.03 20.34 5.03 20.34 44.72 14.52 44.72 14.52 5.03"></polygon>
                </g>
                <g id="I_3_" transform="translate(33.000000, 1.000000)" fill="#0AA3D2">
                    <polygon id="Path" points="5.99 0.13 5.99 44.71 0.24 44.71 0.24 0.13"></polygon>
                </g>
                <g id="B_3_" fill="#0AA3D2">
                    <path d="M0.42,1.73 C2.93,1.2 6.9,0.8 10.94,0.8 C16.69,0.8 20.4,1.79 23.18,4.04 C25.5,5.76 26.89,8.41 26.89,11.91 C26.89,16.21 24.05,19.98 19.35,21.7 L19.35,21.83 C23.58,22.89 28.54,26.39 28.54,33.01 C28.54,36.85 27.02,39.76 24.77,41.94 C21.66,44.78 16.63,46.11 9.36,46.11 C5.39,46.11 2.35,45.85 0.43,45.58 L0.43,1.73 L0.42,1.73 Z M6.17,19.99 L11.39,19.99 C17.48,19.99 21.05,16.81 21.05,12.52 C21.05,7.29 17.08,5.24 11.26,5.24 C8.61,5.24 7.09,5.44 6.17,5.64 L6.17,19.99 Z M6.17,41.35 C7.29,41.55 8.95,41.61 11,41.61 C16.95,41.61 22.44,39.43 22.44,32.94 C22.44,26.86 17.22,24.34 10.93,24.34 L6.17,24.34 L6.17,41.35 L6.17,41.35 Z" id="Shape"></path>
                </g>
            </g>
            <g id="Group" transform="translate(0.000000, 57.000000)">
                <polygon id="Path" fill="#1A345F" points="4.2 1.94 0.4 1.94 0.4 1.25 8.82 1.25 8.82 1.94 5.02 1.94 5.02 12.88 4.19 12.88 4.19 1.94"></polygon>
                <path d="M9.95,0.63 L10.78,0.63 L10.78,6.08 L10.81,6.08 C11.05,5.61 11.45,5.17 11.93,4.89 C12.41,4.58 12.98,4.41 13.6,4.41 C14.38,4.41 16.48,4.81 16.48,7.9 L16.48,12.89 L15.65,12.89 L15.65,7.99 C15.65,6.49 15.06,5.14 13.37,5.14 C12.2,5.14 11.23,5.99 10.87,7 C10.78,7.26 10.77,7.48 10.77,7.83 L10.77,12.89 L9.94,12.89 L9.94,0.63 L9.95,0.63 Z" id="Path" fill="#1A345F"></path>
                <path d="M19.32,8.65 C19.32,11.29 20.75,12.34 22.48,12.34 C23.69,12.34 24.31,12.1 24.78,11.87 L24.99,12.51 C24.68,12.68 23.83,13.05 22.38,13.05 C20,13.05 18.51,11.32 18.51,8.89 C18.51,6.13 20.1,4.4 22.24,4.4 C24.95,4.4 25.47,6.95 25.47,8.15 C25.47,8.37 25.47,8.49 25.44,8.65 L19.32,8.65 L19.32,8.65 Z M24.6,8 C24.62,6.84 24.13,5.1 22.13,5.1 C20.3,5.1 19.51,6.72 19.35,8 L24.6,8 Z" id="Shape" fill="#1A345F"></path>
                <path d="M30.98,11.61 C31.64,12.06 32.55,12.37 33.52,12.37 C35.26,12.37 36.33,11.39 36.33,9.95 C36.33,8.64 35.66,7.88 33.97,7.22 C32.11,6.56 30.98,5.6 30.98,4.01 C30.98,2.3 32.38,1.06 34.36,1.06 C35.45,1.06 36.28,1.34 36.67,1.61 L36.36,2.3 C36.05,2.08 35.31,1.75 34.31,1.75 C32.43,1.75 31.79,2.96 31.79,3.87 C31.79,5.16 32.53,5.82 34.21,6.48 C36.13,7.26 37.14,8.12 37.14,9.86 C37.14,11.55 35.93,13.07 33.45,13.07 C32.45,13.07 31.28,12.74 30.67,12.28 L30.98,11.61 Z" id="Path" fill="#1A345F"></path>
                <path d="M40.49,2.77 L40.49,4.6 L42.85,4.6 L42.85,5.27 L40.49,5.27 L40.49,10.65 C40.49,11.7 40.82,12.36 41.7,12.36 C42.13,12.36 42.44,12.31 42.65,12.24 L42.75,12.86 C42.47,12.98 42.09,13.07 41.59,13.07 C40.99,13.07 40.49,12.88 40.17,12.48 C39.79,12.05 39.65,11.34 39.65,10.49 L39.65,5.26 L38.25,5.26 L38.25,4.59 L39.65,4.59 L39.65,3.07 L40.49,2.77 Z" id="Path" fill="#1A345F"></path>
                <path d="M49.84,10.92 C49.84,11.58 49.86,12.25 49.96,12.89 L49.2,12.89 L49.08,11.7 L49.05,11.7 C48.64,12.34 47.72,13.08 46.39,13.08 C44.72,13.08 43.96,11.91 43.96,10.8 C43.96,8.88 45.63,7.73 49.02,7.76 L49.02,7.54 C49.02,6.73 48.86,5.09 46.9,5.11 C46.17,5.11 45.42,5.3 44.81,5.73 L44.55,5.13 C45.31,4.63 46.24,4.42 46.98,4.42 C49.38,4.42 49.84,6.21 49.84,7.68 L49.84,10.92 L49.84,10.92 Z M49.01,8.45 C47.2,8.4 44.82,8.67 44.82,10.66 C44.82,11.85 45.61,12.39 46.48,12.39 C47.86,12.39 48.65,11.54 48.93,10.73 C49,10.56 49.02,10.37 49.02,10.23 L49.02,8.45 L49.01,8.45 Z" id="Shape" fill="#1A345F"></path>
                <path d="M52.51,6.58 C52.51,5.82 52.49,5.25 52.44,4.6 L53.22,4.6 L53.27,6.1 L53.3,6.1 C53.75,5.17 54.8,4.41 56.15,4.41 C56.94,4.41 59.05,4.81 59.05,7.91 L59.05,12.88 L58.22,12.88 L58.22,7.98 C58.22,6.48 57.63,5.12 55.92,5.12 C54.76,5.12 53.76,5.95 53.43,7.02 C53.38,7.23 53.33,7.5 53.33,7.76 L53.33,12.89 L52.5,12.89 L52.5,6.58 L52.51,6.58 Z" id="Path" fill="#1A345F"></path>
                <path d="M68.37,0.63 L68.37,10.95 C68.37,11.57 68.39,12.3 68.44,12.88 L67.7,12.88 L67.63,11.31 L67.6,11.31 C67.17,12.22 66.18,13.07 64.65,13.07 C62.6,13.07 61.08,11.36 61.08,8.89 C61.06,6.13 62.77,4.4 64.81,4.4 C66.24,4.4 67.16,5.14 67.52,5.87 L67.55,5.87 L67.55,0.62 L68.37,0.62 L68.37,0.63 Z M67.54,7.88 C67.54,7.66 67.52,7.34 67.45,7.12 C67.17,6.02 66.19,5.1 64.84,5.1 C63.03,5.1 61.89,6.67 61.89,8.81 C61.89,10.67 62.82,12.38 64.79,12.38 C65.98,12.38 67.1,11.59 67.45,10.22 C67.52,10 67.54,9.79 67.54,9.53 L67.54,7.88 Z" id="Shape" fill="#1A345F"></path>
                <path d="M76.31,10.92 C76.31,11.58 76.33,12.25 76.43,12.89 L75.67,12.89 L75.55,11.7 L75.52,11.7 C75.11,12.34 74.19,13.08 72.86,13.08 C71.19,13.08 70.43,11.91 70.43,10.8 C70.43,8.88 72.1,7.73 75.49,7.76 L75.49,7.54 C75.49,6.73 75.33,5.09 73.37,5.11 C72.64,5.11 71.89,5.3 71.28,5.73 L71.02,5.13 C71.78,4.63 72.71,4.42 73.45,4.42 C75.85,4.42 76.31,6.21 76.31,7.68 L76.31,10.92 L76.31,10.92 Z M75.48,8.45 C73.67,8.4 71.29,8.67 71.29,10.66 C71.29,11.85 72.08,12.39 72.95,12.39 C74.33,12.39 75.12,11.54 75.4,10.73 C75.47,10.56 75.49,10.37 75.49,10.23 L75.49,8.45 L75.48,8.45 Z" id="Shape" fill="#1A345F"></path>
                <path d="M78.96,7.08 C78.96,6.25 78.94,5.41 78.89,4.6 L79.65,4.6 L79.68,6.27 L79.73,6.27 C80.09,5.23 80.96,4.41 82.08,4.41 C82.2,4.41 82.32,4.43 82.43,4.44 L82.43,5.23 C82.31,5.2 82.19,5.2 82.03,5.2 C80.89,5.2 80.08,6.18 79.86,7.51 C79.81,7.75 79.79,8.03 79.79,8.3 L79.79,12.87 L78.96,12.87 L78.96,7.08 L78.96,7.08 Z" id="Path" fill="#1A345F"></path>
                <path d="M90.49,0.63 L90.49,10.95 C90.49,11.57 90.51,12.3 90.56,12.88 L89.82,12.88 L89.75,11.31 L89.72,11.31 C89.29,12.22 88.31,13.07 86.77,13.07 C84.72,13.07 83.2,11.36 83.2,8.89 C83.18,6.13 84.89,4.4 86.93,4.4 C88.36,4.4 89.28,5.14 89.64,5.87 L89.67,5.87 L89.67,0.62 L90.49,0.62 L90.49,0.63 Z M89.66,7.88 C89.66,7.66 89.64,7.34 89.57,7.12 C89.29,6.02 88.31,5.1 86.96,5.1 C85.15,5.1 84.01,6.67 84.01,8.81 C84.01,10.67 84.94,12.38 86.91,12.38 C88.1,12.38 89.22,11.59 89.57,10.22 C89.64,10 89.66,9.79 89.66,9.53 L89.66,7.88 Z" id="Shape" fill="#1A345F"></path>
                <path d="M98.12,2.23 C98.12,2.61 97.86,2.94 97.43,2.94 C97.05,2.94 96.79,2.61 96.79,2.23 C96.79,1.85 97.08,1.51 97.46,1.51 C97.84,1.51 98.12,1.84 98.12,2.23 Z M97.05,12.88 L97.05,4.6 L97.88,4.6 L97.88,12.88 L97.05,12.88 Z" id="Shape" fill="#1A345F"></path>
                <path d="M100.66,6.58 C100.66,5.82 100.64,5.25 100.59,4.6 L101.37,4.6 L101.42,6.1 L101.45,6.1 C101.9,5.17 102.95,4.41 104.3,4.41 C105.09,4.41 107.2,4.81 107.2,7.91 L107.2,12.88 L106.37,12.88 L106.37,7.98 C106.37,6.48 105.78,5.12 104.07,5.12 C102.91,5.12 101.91,5.95 101.58,7.02 C101.53,7.23 101.48,7.5 101.48,7.76 L101.48,12.89 L100.65,12.89 L100.65,6.58 L100.66,6.58 Z" id="Path" fill="#1A345F"></path>
                <path d="M113.37,10.75 C114.01,11.12 114.96,11.43 115.96,11.43 C117.22,11.43 117.92,10.84 117.92,9.97 C117.92,9.16 117.38,8.68 116.01,8.19 C114.24,7.55 113.11,6.61 113.11,5.07 C113.11,3.32 114.57,1.98 116.9,1.98 C118.06,1.98 118.92,2.23 119.48,2.52 L119,4.1 C118.62,3.89 117.87,3.59 116.87,3.59 C115.63,3.59 115.09,4.26 115.09,4.88 C115.09,5.71 115.71,6.09 117.14,6.65 C119,7.35 119.91,8.29 119.91,9.83 C119.91,11.55 118.61,13.04 115.84,13.04 C114.71,13.04 113.53,12.72 112.94,12.37 L113.37,10.75 Z" id="Path" fill="#0AA3D2"></path>
                <polygon id="Path" fill="#0AA3D2" points="127.68 8.12 123.64 8.12 123.64 11.27 128.16 11.27 128.16 12.88 121.68 12.88 121.68 2.15 127.92 2.15 127.92 3.76 123.64 3.76 123.64 6.53 127.68 6.53"></polygon>
                <path d="M137.56,12.56 C137.1,12.8 136.08,13.04 134.79,13.04 C131.38,13.04 129.32,10.91 129.32,7.64 C129.32,4.11 131.77,1.97 135.05,1.97 C136.34,1.97 137.26,2.24 137.66,2.45 L137.23,4.01 C136.72,3.79 136.02,3.6 135.13,3.6 C132.95,3.6 131.37,4.97 131.37,7.55 C131.37,9.9 132.75,11.42 135.11,11.42 C135.91,11.42 136.73,11.26 137.24,11.02 L137.56,12.56 Z" id="Path" fill="#0AA3D2"></path>
                <path d="M141.18,2.16 L141.18,8.41 C141.18,10.51 142.06,11.48 143.38,11.48 C144.8,11.48 145.64,10.51 145.64,8.41 L145.64,2.16 L147.6,2.16 L147.6,8.29 C147.6,11.6 145.9,13.06 143.32,13.06 C140.84,13.06 139.23,11.68 139.23,8.3 L139.23,2.16 L141.18,2.16 Z" id="Path" fill="#0AA3D2"></path>
                <path d="M149.84,2.3 C150.57,2.17 151.67,2.08 152.8,2.08 C154.34,2.08 155.39,2.33 156.11,2.94 C156.7,3.43 157.03,4.18 157.03,5.09 C157.03,6.47 156.09,7.41 155.09,7.78 L155.09,7.83 C155.85,8.12 156.32,8.86 156.59,9.9 C156.92,11.24 157.21,12.48 157.43,12.89 L155.41,12.89 C155.25,12.57 155,11.7 154.69,10.36 C154.39,8.96 153.88,8.51 152.76,8.48 L151.77,8.48 L151.77,12.89 L149.83,12.89 L149.83,2.3 L149.84,2.3 Z M151.78,7.04 L152.94,7.04 C154.26,7.04 155.09,6.34 155.09,5.27 C155.09,4.09 154.26,3.55 152.99,3.55 C152.37,3.55 151.97,3.6 151.78,3.65 L151.78,7.04 Z" id="Shape" fill="#0AA3D2"></path>
                <polygon id="Path" fill="#0AA3D2" points="160.86 2.16 160.86 12.89 158.9 12.89 158.9 2.16"></polygon>
                <polygon id="Path" fill="#0AA3D2" points="165.16 3.79 162.1 3.79 162.1 2.15 170.2 2.15 170.2 3.79 167.11 3.79 167.11 12.88 165.15 12.88 165.15 3.79"></polygon>
                <path d="M174.15,12.88 L174.15,8.41 L170.76,2.16 L172.99,2.16 L174.28,4.91 C174.65,5.71 174.92,6.31 175.2,7.04 L175.23,7.04 C175.5,6.36 175.8,5.69 176.17,4.91 L177.46,2.16 L179.67,2.16 L176.1,8.37 L176.1,12.89 L174.15,12.89 L174.15,12.88 Z" id="Path" fill="#0AA3D2"></path>
                <path d="M184.17,2.3 C184.9,2.17 186,2.08 187.13,2.08 C188.67,2.08 189.72,2.33 190.44,2.94 C191.03,3.43 191.36,4.18 191.36,5.09 C191.36,6.47 190.42,7.41 189.42,7.78 L189.42,7.83 C190.18,8.12 190.65,8.86 190.92,9.9 C191.25,11.24 191.54,12.48 191.76,12.89 L189.74,12.89 C189.58,12.57 189.33,11.7 189.02,10.36 C188.72,8.96 188.21,8.51 187.09,8.48 L186.1,8.48 L186.1,12.89 L184.16,12.89 L184.16,2.3 L184.17,2.3 Z M186.11,7.04 L187.27,7.04 C188.59,7.04 189.42,6.34 189.42,5.27 C189.42,4.09 188.59,3.55 187.32,3.55 C186.7,3.55 186.3,3.6 186.11,3.65 L186.11,7.04 Z" id="Shape" fill="#0AA3D2"></path>
                <path d="M195.49,9.84 L194.57,12.88 L192.55,12.88 L195.99,2.15 L198.49,2.15 L201.98,12.88 L199.88,12.88 L198.91,9.84 L195.49,9.84 Z M198.56,8.36 L197.72,5.72 C197.51,5.07 197.34,4.34 197.18,3.72 L197.15,3.72 C196.99,4.34 196.83,5.09 196.64,5.72 L195.81,8.36 L198.56,8.36 Z" id="Shape" fill="#0AA3D2"></path>
                <polygon id="Path" fill="#0AA3D2" points="204.23 3.79 201.17 3.79 201.17 2.15 209.27 2.15 209.27 3.79 206.18 3.79 206.18 12.88 204.22 12.88 204.22 3.79"></polygon>
                <polygon id="Path" fill="#0AA3D2" points="212.5 2.16 212.5 12.89 210.54 12.89 210.54 2.16"></polygon>
                <path d="M214.74,12.88 L214.74,2.15 L216.97,2.15 L219.74,6.75 C220.46,7.94 221.08,9.18 221.57,10.35 L221.6,10.35 C221.47,8.92 221.43,7.53 221.43,5.89 L221.43,2.15 L223.24,2.15 L223.24,12.88 L221.22,12.88 L218.42,8.17 C217.74,6.99 217.02,5.67 216.49,4.46 L216.44,4.48 C216.52,5.86 216.54,7.28 216.54,9.05 L216.54,12.89 L214.74,12.89 L214.74,12.88 Z" id="Path" fill="#0AA3D2"></path>
                <path d="M234.1,12.39 C233.42,12.64 232.08,12.99 230.65,12.99 C228.84,12.99 227.47,12.53 226.45,11.56 C225.49,10.65 224.94,9.24 224.95,7.61 C224.95,4.22 227.37,2.04 230.92,2.04 C232.24,2.04 233.28,2.31 233.77,2.55 L233.34,4.13 C232.75,3.88 232.04,3.67 230.91,3.67 C228.62,3.67 227.01,5.02 227.01,7.52 C227.01,9.95 228.51,11.4 230.73,11.4 C231.43,11.4 231.96,11.31 232.21,11.18 L232.21,8.51 L230.32,8.51 L230.32,6.97 L234.11,6.97 L234.11,12.39 L234.1,12.39 Z" id="Path" fill="#0AA3D2"></path>
                <path d="M236.06,10.75 C236.7,11.12 237.65,11.43 238.65,11.43 C239.91,11.43 240.61,10.84 240.61,9.97 C240.61,9.16 240.07,8.68 238.7,8.19 C236.93,7.55 235.8,6.61 235.8,5.07 C235.8,3.32 237.26,1.98 239.59,1.98 C240.75,1.98 241.61,2.23 242.17,2.52 L241.69,4.1 C241.31,3.89 240.56,3.59 239.56,3.59 C238.32,3.59 237.78,4.26 237.78,4.88 C237.78,5.71 238.4,6.09 239.83,6.65 C241.69,7.35 242.6,8.29 242.6,9.83 C242.6,11.55 241.3,13.04 238.53,13.04 C237.4,13.04 236.22,12.72 235.63,12.37 L236.06,10.75 Z" id="Path" fill="#0AA3D2"></path>
            </g>
            <g id="Group" transform="translate(245.000000, 0.000000)" fill="#1A345F">
                <path d="M2.71,2.36 C2.95,2.31 3.29,2.28 3.62,2.28 C4.13,2.28 4.46,2.37 4.68,2.58 C4.87,2.74 4.97,3 4.97,3.28 C4.97,3.77 4.66,4.09 4.28,4.22 L4.28,4.24 C4.56,4.34 4.73,4.6 4.82,4.98 C4.94,5.49 5.03,5.85 5.1,5.99 L4.61,5.99 C4.55,5.89 4.47,5.57 4.36,5.11 C4.25,4.6 4.05,4.41 3.62,4.39 L3.17,4.39 L3.17,5.98 L2.69,5.98 L2.69,2.36 L2.71,2.36 Z M3.19,4.04 L3.68,4.04 C4.19,4.04 4.51,3.76 4.51,3.34 C4.51,2.86 4.17,2.66 3.66,2.65 C3.43,2.65 3.27,2.67 3.19,2.69 L3.19,4.04 L3.19,4.04 Z" id="Shape"></path>
                <path d="M3.77,7.33 C2.02,7.33 0.6,5.91 0.6,4.16 C0.6,2.41 2.02,0.99 3.77,0.99 C5.52,0.99 6.94,2.41 6.94,4.16 C6.94,5.91 5.52,7.33 3.77,7.33 Z M3.77,1.45 C2.27,1.45 1.06,2.67 1.06,4.16 C1.06,5.66 2.28,6.87 3.77,6.87 C5.27,6.87 6.48,5.65 6.48,4.16 C6.48,2.66 5.26,1.45 3.77,1.45 Z" id="Shape"></path>
            </g>
        </g>
    </g>
</svg>