<?xml version="1.0" encoding="utf-8"?>
<!-- Generator: Adobe Illustrator 23.0.4, SVG Export Plug-In . SVG Version: 6.00 Build 0)  -->
<svg version="1.1" id="Layer_1" xmlns="http://www.w3.org/2000/svg" xmlns:xlink="http://www.w3.org/1999/xlink" x="0px" y="0px"
	 viewBox="0 0 612 792" style="enable-background:new 0 0 612 792;" xml:space="preserve">
<style type="text/css">
	.st0{fill:#1A345F;}
	.st1{fill:#0AA3D2;}
</style>
<g id="BitSight_3_">
	<g id="T__x28_2_x29__3_">
		<path class="st0" d="M407.23,369.95h-12.7v-6.81h33.67v6.81h-12.83v37.77h-8.14V369.95z"/>
	</g>
	<g id="H_3_">
		<path class="st0" d="M362.36,363.13v17.86h18.85v-17.86h8.14v44.58h-8.14v-19.65h-18.85v19.65h-8.14v-44.58H362.36z"/>
	</g>
	<g id="G_3_">
		<path class="st0" d="M348.92,405.67c-2.85,1.06-8.4,2.51-14.35,2.51c-7.54,0-13.23-1.92-17.46-5.95
			c-3.97-3.77-6.28-9.66-6.22-16.4c0-14.09,10.06-23.15,24.8-23.15c5.49,0,9.79,1.12,11.84,2.12l-1.79,6.55
			c-2.45-1.06-5.42-1.92-10.12-1.92c-9.52,0-16.21,5.62-16.21,16.01c0,10.12,6.22,16.14,15.48,16.14c2.91,0,5.1-0.4,6.15-0.93
			v-11.11h-7.87v-6.41h15.74V405.67z"/>
	</g>
	<g id="I__x28_2_x29__3_">
		<path class="st0" d="M305.61,363.13v44.58h-8.14v-44.58H305.61z"/>
	</g>
	<g id="S_3_">
		<path class="st0" d="M265.54,398.85c2.65,1.52,6.61,2.84,10.78,2.84c5.22,0,8.14-2.45,8.14-6.09c0-3.37-2.25-5.36-7.94-7.41
			c-7.34-2.64-12.04-6.55-12.04-12.96c0-7.28,6.09-12.83,15.74-12.83c4.83,0,8.4,1.06,10.71,2.25l-1.98,6.55
			c-1.59-0.86-4.7-2.12-8.86-2.12c-5.16,0-7.41,2.78-7.41,5.36c0,3.44,2.58,5.03,8.53,7.34c7.74,2.91,11.51,6.81,11.51,13.23
			c0,7.14-5.42,13.36-16.93,13.36c-4.69,0-9.59-1.33-12.04-2.78L265.54,398.85z"/>
	</g>
	<g id="T_3_">
		<path class="st1" d="M242.52,368.03h-13.56v-4.89h33.01v4.89h-13.63v39.69h-5.82V368.03z"/>
	</g>
	<g id="I_3_">
		<path class="st1" d="M223.99,363.13v44.58h-5.75v-44.58H223.99z"/>
	</g>
	<g id="B_3_">
		<path class="st1" d="M185.42,363.73c2.51-0.53,6.48-0.93,10.52-0.93c5.75,0,9.46,0.99,12.24,3.24c2.32,1.72,3.71,4.37,3.71,7.87
			c0,4.3-2.84,8.07-7.54,9.79v0.13c4.23,1.06,9.19,4.56,9.19,11.18c0,3.84-1.52,6.75-3.77,8.93c-3.11,2.84-8.14,4.17-15.41,4.17
			c-3.97,0-7.01-0.26-8.93-0.53V363.73z M191.17,381.99h5.22c6.09,0,9.66-3.18,9.66-7.47c0-5.23-3.97-7.28-9.79-7.28
			c-2.65,0-4.17,0.2-5.09,0.4V381.99z M191.17,403.35c1.12,0.2,2.78,0.26,4.83,0.26c5.95,0,11.44-2.18,11.44-8.67
			c0-6.08-5.22-8.6-11.51-8.6h-4.76V403.35z"/>
	</g>
</g>
<g>
	<path class="st0" d="M189.2,413.94h-3.8v-0.69h8.42v0.69h-3.8v10.94h-0.83V413.94z"/>
	<path class="st0" d="M194.95,412.63h0.83v5.45h0.03c0.24-0.47,0.64-0.91,1.12-1.19c0.48-0.31,1.05-0.48,1.67-0.48
		c0.78,0,2.88,0.4,2.88,3.49v4.99h-0.83v-4.9c0-1.5-0.59-2.85-2.28-2.85c-1.17,0-2.14,0.85-2.5,1.86c-0.09,0.26-0.1,0.48-0.1,0.83
		v5.06h-0.83V412.63z"/>
	<path class="st0" d="M204.32,420.65c0,2.64,1.43,3.69,3.16,3.69c1.21,0,1.83-0.24,2.3-0.47l0.21,0.64
		c-0.31,0.17-1.16,0.54-2.61,0.54c-2.38,0-3.87-1.73-3.87-4.16c0-2.76,1.59-4.49,3.73-4.49c2.71,0,3.23,2.55,3.23,3.75
		c0,0.22,0,0.34-0.03,0.5H204.32z M209.6,420c0.02-1.16-0.47-2.9-2.47-2.9c-1.83,0-2.62,1.62-2.78,2.9H209.6z"/>
	<path class="st0" d="M215.98,423.61c0.66,0.45,1.57,0.76,2.54,0.76c1.74,0,2.81-0.98,2.81-2.42c0-1.31-0.67-2.07-2.36-2.73
		c-1.86-0.66-2.99-1.62-2.99-3.21c0-1.71,1.4-2.95,3.38-2.95c1.09,0,1.92,0.28,2.31,0.55l-0.31,0.69c-0.31-0.22-1.05-0.55-2.05-0.55
		c-1.88,0-2.52,1.21-2.52,2.12c0,1.29,0.74,1.95,2.42,2.61c1.92,0.78,2.93,1.64,2.93,3.38c0,1.69-1.21,3.21-3.69,3.21
		c-1,0-2.17-0.33-2.78-0.79L215.98,423.61z"/>
	<path class="st0" d="M225.49,414.77v1.83h2.36v0.67h-2.36v5.38c0,1.05,0.33,1.71,1.21,1.71c0.43,0,0.74-0.05,0.95-0.12l0.1,0.62
		c-0.28,0.12-0.66,0.21-1.16,0.21c-0.6,0-1.1-0.19-1.42-0.59c-0.38-0.43-0.52-1.14-0.52-1.99v-5.23h-1.4v-0.67h1.4v-1.52
		L225.49,414.77z"/>
	<path class="st0" d="M234.84,422.92c0,0.66,0.02,1.33,0.12,1.97h-0.76l-0.12-1.19h-0.03c-0.41,0.64-1.33,1.38-2.66,1.38
		c-1.67,0-2.43-1.17-2.43-2.28c0-1.92,1.67-3.07,5.06-3.04v-0.22c0-0.81-0.16-2.45-2.12-2.43c-0.73,0-1.48,0.19-2.09,0.62l-0.26-0.6
		c0.76-0.5,1.69-0.71,2.43-0.71c2.4,0,2.86,1.79,2.86,3.26V422.92z M234.01,420.45c-1.81-0.05-4.19,0.22-4.19,2.21
		c0,1.19,0.79,1.73,1.66,1.73c1.38,0,2.17-0.85,2.45-1.66c0.07-0.17,0.09-0.36,0.09-0.5V420.45z"/>
	<path class="st0" d="M237.51,418.58c0-0.76-0.02-1.33-0.07-1.98h0.78l0.05,1.5h0.03c0.45-0.93,1.5-1.69,2.85-1.69
		c0.79,0,2.9,0.4,2.9,3.5v4.97h-0.83v-4.9c0-1.5-0.59-2.86-2.3-2.86c-1.16,0-2.16,0.83-2.49,1.9c-0.05,0.21-0.1,0.48-0.1,0.74v5.13
		h-0.83V418.58z"/>
	<path class="st0" d="M253.37,412.63v10.32c0,0.62,0.02,1.35,0.07,1.93h-0.74l-0.07-1.57h-0.03c-0.43,0.91-1.42,1.76-2.95,1.76
		c-2.05,0-3.57-1.71-3.57-4.18c-0.02-2.76,1.69-4.49,3.73-4.49c1.43,0,2.35,0.74,2.71,1.47h0.03v-5.25H253.37z M252.54,419.88
		c0-0.22-0.02-0.54-0.09-0.76c-0.28-1.1-1.26-2.02-2.61-2.02c-1.81,0-2.95,1.57-2.95,3.71c0,1.86,0.93,3.57,2.9,3.57
		c1.19,0,2.31-0.79,2.66-2.16c0.07-0.22,0.09-0.43,0.09-0.69V419.88z"/>
	<path class="st0" d="M261.31,422.92c0,0.66,0.02,1.33,0.12,1.97h-0.76l-0.12-1.19h-0.03c-0.41,0.64-1.33,1.38-2.66,1.38
		c-1.67,0-2.43-1.17-2.43-2.28c0-1.92,1.67-3.07,5.06-3.04v-0.22c0-0.81-0.16-2.45-2.12-2.43c-0.73,0-1.48,0.19-2.09,0.62l-0.26-0.6
		c0.76-0.5,1.69-0.71,2.43-0.71c2.4,0,2.86,1.79,2.86,3.26V422.92z M260.48,420.45c-1.81-0.05-4.19,0.22-4.19,2.21
		c0,1.19,0.79,1.73,1.66,1.73c1.38,0,2.17-0.85,2.45-1.66c0.07-0.17,0.09-0.36,0.09-0.5V420.45z"/>
	<path class="st0" d="M263.96,419.08c0-0.83-0.02-1.67-0.07-2.48h0.76l0.03,1.67h0.05c0.36-1.04,1.23-1.86,2.35-1.86
		c0.12,0,0.24,0.02,0.35,0.03v0.79c-0.12-0.03-0.24-0.03-0.4-0.03c-1.14,0-1.95,0.98-2.17,2.31c-0.05,0.24-0.07,0.52-0.07,0.79v4.57
		h-0.83V419.08z"/>
	<path class="st0" d="M275.49,412.63v10.32c0,0.62,0.02,1.35,0.07,1.93h-0.74l-0.07-1.57h-0.03c-0.43,0.91-1.41,1.76-2.95,1.76
		c-2.05,0-3.57-1.71-3.57-4.18c-0.02-2.76,1.69-4.49,3.73-4.49c1.43,0,2.35,0.74,2.71,1.47h0.03v-5.25H275.49z M274.66,419.88
		c0-0.22-0.02-0.54-0.09-0.76c-0.28-1.1-1.26-2.02-2.61-2.02c-1.81,0-2.95,1.57-2.95,3.71c0,1.86,0.93,3.57,2.9,3.57
		c1.19,0,2.31-0.79,2.66-2.16c0.07-0.22,0.09-0.43,0.09-0.69V419.88z"/>
	<path class="st0" d="M283.12,414.23c0,0.38-0.26,0.71-0.69,0.71c-0.38,0-0.64-0.33-0.64-0.71c0-0.38,0.29-0.72,0.67-0.72
		C282.84,413.51,283.12,413.84,283.12,414.23z M282.05,424.88v-8.28h0.83v8.28H282.05z"/>
	<path class="st0" d="M285.66,418.58c0-0.76-0.02-1.33-0.07-1.98h0.78l0.05,1.5h0.03c0.45-0.93,1.5-1.69,2.85-1.69
		c0.79,0,2.9,0.4,2.9,3.5v4.97h-0.83v-4.9c0-1.5-0.59-2.86-2.3-2.86c-1.16,0-2.16,0.83-2.49,1.9c-0.05,0.21-0.1,0.48-0.1,0.74v5.13
		h-0.83V418.58z"/>
	<path class="st1" d="M298.37,422.75c0.64,0.37,1.59,0.68,2.59,0.68c1.26,0,1.96-0.59,1.96-1.46c0-0.81-0.54-1.29-1.91-1.78
		c-1.77-0.64-2.9-1.58-2.9-3.12c0-1.75,1.46-3.09,3.79-3.09c1.16,0,2.02,0.25,2.58,0.54L304,416.1c-0.38-0.21-1.13-0.51-2.13-0.51
		c-1.24,0-1.78,0.67-1.78,1.29c0,0.83,0.62,1.21,2.05,1.77c1.86,0.7,2.77,1.64,2.77,3.18c0,1.72-1.3,3.21-4.07,3.21
		c-1.13,0-2.31-0.32-2.9-0.67L298.37,422.75z"/>
	<path class="st1" d="M312.68,420.12h-4.04v3.15h4.52v1.61h-6.48v-10.73h6.24v1.61h-4.28v2.77h4.04V420.12z"/>
	<path class="st1" d="M322.56,424.56c-0.46,0.24-1.48,0.48-2.77,0.48c-3.41,0-5.47-2.13-5.47-5.4c0-3.53,2.45-5.67,5.73-5.67
		c1.29,0,2.21,0.27,2.61,0.48l-0.43,1.56c-0.51-0.22-1.21-0.41-2.1-0.41c-2.18,0-3.76,1.37-3.76,3.95c0,2.35,1.38,3.87,3.74,3.87
		c0.8,0,1.62-0.16,2.13-0.4L322.56,424.56z"/>
	<path class="st1" d="M326.18,414.16v6.25c0,2.1,0.88,3.07,2.2,3.07c1.42,0,2.26-0.97,2.26-3.07v-6.25h1.96v6.13
		c0,3.31-1.7,4.77-4.28,4.77c-2.48,0-4.09-1.38-4.09-4.76v-6.14H326.18z"/>
	<path class="st1" d="M334.84,414.3c0.73-0.13,1.83-0.22,2.96-0.22c1.54,0,2.59,0.25,3.31,0.86c0.59,0.49,0.92,1.24,0.92,2.15
		c0,1.38-0.94,2.32-1.94,2.69v0.05c0.76,0.29,1.23,1.03,1.5,2.07c0.33,1.34,0.62,2.58,0.84,2.99h-2.02
		c-0.16-0.32-0.41-1.19-0.72-2.53c-0.3-1.4-0.81-1.85-1.93-1.88h-0.99v4.41h-1.94V414.3z M336.78,419.04h1.16
		c1.32,0,2.15-0.7,2.15-1.77c0-1.18-0.83-1.72-2.1-1.72c-0.62,0-1.02,0.05-1.21,0.1V419.04z"/>
	<path class="st1" d="M345.86,414.16v10.73h-1.96v-10.73H345.86z"/>
	<path class="st1" d="M350.16,415.79h-3.06v-1.64h8.1v1.64h-3.09v9.09h-1.96V415.79z"/>
	<path class="st1" d="M359.15,424.88v-4.47l-3.39-6.25h2.23l1.29,2.75c0.37,0.8,0.64,1.4,0.92,2.13h0.03
		c0.27-0.68,0.57-1.35,0.94-2.13l1.29-2.75h2.21l-3.57,6.21v4.52H359.15z"/>
	<path class="st1" d="M369.17,414.3c0.73-0.13,1.83-0.22,2.96-0.22c1.54,0,2.59,0.25,3.31,0.86c0.59,0.49,0.92,1.24,0.92,2.15
		c0,1.38-0.94,2.32-1.94,2.69v0.05c0.76,0.29,1.23,1.03,1.5,2.07c0.33,1.34,0.62,2.58,0.84,2.99h-2.02
		c-0.16-0.32-0.41-1.19-0.72-2.53c-0.3-1.4-0.81-1.85-1.93-1.88h-0.99v4.41h-1.94V414.3z M371.11,419.04h1.16
		c1.32,0,2.15-0.7,2.15-1.77c0-1.18-0.83-1.72-2.1-1.72c-0.62,0-1.02,0.05-1.21,0.1V419.04z"/>
	<path class="st1" d="M380.49,421.84l-0.92,3.04h-2.02l3.44-10.73h2.5l3.49,10.73h-2.1l-0.97-3.04H380.49z M383.56,420.36
		l-0.84-2.64c-0.21-0.65-0.38-1.38-0.54-2h-0.03c-0.16,0.62-0.32,1.37-0.51,2l-0.83,2.64H383.56z"/>
	<path class="st1" d="M389.23,415.79h-3.06v-1.64h8.1v1.64h-3.09v9.09h-1.96V415.79z"/>
	<path class="st1" d="M397.5,414.16v10.73h-1.96v-10.73H397.5z"/>
	<path class="st1" d="M399.74,424.88v-10.73h2.23l2.77,4.6c0.72,1.19,1.34,2.43,1.83,3.6h0.03c-0.13-1.43-0.17-2.82-0.17-4.46v-3.74
		h1.81v10.73h-2.02l-2.8-4.71c-0.68-1.18-1.4-2.5-1.93-3.71l-0.05,0.02c0.08,1.38,0.1,2.8,0.1,4.57v3.84H399.74z"/>
	<path class="st1" d="M419.1,424.39c-0.68,0.25-2.02,0.6-3.45,0.6c-1.81,0-3.18-0.46-4.2-1.43c-0.96-0.91-1.51-2.32-1.5-3.95
		c0-3.39,2.42-5.57,5.97-5.57c1.32,0,2.36,0.27,2.85,0.51l-0.43,1.58c-0.59-0.25-1.3-0.46-2.43-0.46c-2.29,0-3.9,1.35-3.9,3.85
		c0,2.43,1.5,3.88,3.72,3.88c0.7,0,1.23-0.09,1.48-0.22v-2.67h-1.89v-1.54h3.79V424.39z"/>
	<path class="st1" d="M421.06,422.75c0.64,0.37,1.59,0.68,2.59,0.68c1.26,0,1.96-0.59,1.96-1.46c0-0.81-0.54-1.29-1.91-1.78
		c-1.77-0.64-2.9-1.58-2.9-3.12c0-1.75,1.46-3.09,3.79-3.09c1.16,0,2.02,0.25,2.58,0.54l-0.48,1.58c-0.38-0.21-1.13-0.51-2.13-0.51
		c-1.24,0-1.78,0.67-1.78,1.29c0,0.83,0.62,1.21,2.05,1.77c1.86,0.7,2.77,1.64,2.77,3.18c0,1.72-1.3,3.21-4.07,3.21
		c-1.13,0-2.31-0.32-2.9-0.67L421.06,422.75z"/>
</g>
<g>
	<g>
		<g>
			<path class="st0" d="M432.71,357.36c0.24-0.05,0.58-0.08,0.91-0.08c0.51,0,0.84,0.09,1.06,0.3c0.19,0.16,0.29,0.42,0.29,0.7
				c0,0.49-0.31,0.81-0.69,0.94v0.02c0.28,0.1,0.45,0.36,0.54,0.74c0.12,0.51,0.21,0.87,0.28,1.01h-0.49
				c-0.06-0.1-0.14-0.42-0.25-0.88c-0.11-0.51-0.31-0.7-0.74-0.72h-0.45v1.59h-0.48V357.36z M433.19,359.04h0.49
				c0.51,0,0.83-0.28,0.83-0.7c0-0.48-0.34-0.68-0.85-0.69c-0.23,0-0.39,0.02-0.47,0.04V359.04z"/>
		</g>
	</g>
	<g>
		<g>
			<path class="st0" d="M433.77,362.33c-1.75,0-3.17-1.42-3.17-3.17c0-1.75,1.42-3.17,3.17-3.17c1.75,0,3.17,1.42,3.17,3.17
				C436.94,360.91,435.52,362.33,433.77,362.33z M433.77,356.45c-1.5,0-2.71,1.22-2.71,2.71c0,1.5,1.22,2.71,2.71,2.71
				c1.5,0,2.71-1.22,2.71-2.71C436.48,357.66,435.26,356.45,433.77,356.45z"/>
		</g>
	</g>
</g>
</svg>
