<svg xmlns="http://www.w3.org/2000/svg" viewBox="0 0 91.64 91.64"><title>DoL-logo</title><g id="Layer_2" data-name="Layer 2"><g id="Layer_1-2" data-name="Layer 1"><path d="M.68,45.82A45.14,45.14,0,1,1,45.82,91,45.14,45.14,0,0,1,.68,45.82h0" fill="#fff"/><path d="M45.82,91.64A45.82,45.82,0,1,1,91.64,45.82h0A45.88,45.88,0,0,1,45.82,91.64Zm0-90.32a44.46,44.46,0,1,0,44.5,44.5A44.47,44.47,0,0,0,45.82,1.32Z"/><path d="M10.76,45.8A34.87,34.87,0,1,1,45.64,80.66h0A34.88,34.88,0,0,1,10.76,45.8" fill="#0075bf"/><path d="M45.62,81.32A35.55,35.55,0,1,1,81.17,45.77v0A35.58,35.58,0,0,1,45.62,81.32Zm0-69.73a34.19,34.19,0,1,0,34.19,34.2,34.19,34.19,0,0,0-34.19-34.2Z"/><path d="M30.8,46.17H60.61l-1.55,1.89L58.8,70.32l-1.43,2.81L50.5,74.52l-3,.69L46,76.76l-.26.53-1-1.54-2-.91-3.15-.52-3.27-.46-2.7-1.07-1.11-1.6L32,67.57l.17-13.89-.11-5.43S30,46.17,30.8,46.17" fill="#f7b16e"/><path d="M45.72,77.55l-1.1-1.68-2-.9-3-.52L36.32,74l-2.77-1.08-1.16-1.68-.48-3.62.16-13.91L32,48.32c-.42-.43-1.6-1.68-1.43-2.09,0-.07.1-.15.27-.15H60.85l-1.68,2L58.9,70.37l-1.46,2.86-6.92,1.4-3,.69-1.45,1.5Zm-12-4.85,2.69,1,3.22.48,3.09.53,2.08.93.92,1.4.2-.38,1.52-1.57h0l3-.69,6.88-1.39,1.37-2.74L58.94,48h0l1.43-1.7H30.74a10.41,10.41,0,0,0,1.42,1.87h0l.16,5.49-.16,13.9.47,3.57Z" fill="#f7b16e"/><rect x="32.21" y="55.35" width="26.58" height="9.38" fill="#f15d2f"/><path d="M58.91,64.85H32.1V55.24H58.91Zm-26.59-.23H58.68V55.47H32.32Z" fill="#f0514e"/><path d="M48.65,62.75H40.7l5.39-3.68h0l2.34-1.6.39.56-2.35,1.6,1.68,2.45h.5ZM45,62.08h2.3l-1.2-1.76Zm-2.13,0h1.33l1-1.58Zm8.7-8.27H40.7v-.34c0-1.3,0-1.3.09-1.4s.2-.11.48-.11c1.26,0,1.59-.08,1.67-.15a.75.75,0,0,0,0-.94c-.29-.31-1.24-.34-1.87-.37h-.3a3,3,0,0,1-3-2l-.09-.41H52.84v1.7H52.5c-1.62,0-2.36.37-2.37,1.2,0,1.09.48,1.17,1.17,1.28l.29,0v1.5Zm-10.22-.68h9.54v-.25c-.68-.13-1.48-.45-1.46-1.91,0-1.63,1.78-1.84,2.71-1.86v-.35H38.61a2.82,2.82,0,0,0,2.17,1.06h.29a3.55,3.55,0,0,1,2.35.58,1.44,1.44,0,0,1,0,1.85c-.28.33-1,.4-2.08.38Z"/><path d="M59.11,65.26H32.5v-.94H59.11ZM59,55.77H32.4v-.9H59Z"/><path d="M45.63,78.42l-.49-1c-1.06-2.2-2.72-2.32-5.45-2.51-.86-.06-1.83-.13-2.88-.27-4.84-.68-5.2-2.72-5.2-5.77V48.48c0-.32-.42-.95-1.59-1.74l-1.53-1h34.3L61.06,46.8c-1.54.93-1.54,1.48-1.53,1.75v20.3c0,3.91-2.12,5.19-3.9,5.58a24.74,24.74,0,0,1-3.08.41c-2.76.24-5.36.47-6.45,2.58ZM31.92,46.83a2.52,2.52,0,0,1,.82,1.65V68.85c0,2.53,0,4.06,4.23,4.64,1,.15,2,.21,2.8.27,2.5.18,4.54.32,5.91,2.32,1.56-1.9,4.34-2.15,6.82-2.37a24.14,24.14,0,0,0,2.94-.39c2-.44,3-2,3-4.48V48.49a2.28,2.28,0,0,1,.71-1.68Z"/><path d="M36.55,59.51a.69.69,0,1,1,.69.69h0a.69.69,0,0,1-.69-.69"/><path d="M37.24,60.32a.81.81,0,1,1,.81-.81.81.81,0,0,1-.81.81Zm0-1.39a.58.58,0,1,0,.58.58.58.58,0,0,0-.58-.58Z"/><path d="M37.24,62.52a3,3,0,1,1,3-3,3,3,0,0,1-3,3Zm-1.53-1.26a2.38,2.38,0,0,0,1.06.54c.82-.38.39-1.62.39-1.63l.64-.23a2.47,2.47,0,0,1-.06,1.85,2.24,2.24,0,0,0,1.42-1c-.11-.83-1.28-.89-1.33-.89v-.68h.05l-.48-.46A2.35,2.35,0,0,1,39,58a2.28,2.28,0,0,0-1.65-.79c-.63.53-.1,1.43-.07,1.47l-.58.35a2.07,2.07,0,0,1-.21-1.73,2.45,2.45,0,0,0-1,.71c0,.89,1.25,1,1.3,1.06l-.07.67A2.39,2.39,0,0,1,35,58.88a2.57,2.57,0,0,0-.08.62,2.3,2.3,0,0,0,.21,1c.78.41,1.4-.59,1.42-.63l.59.34A2.2,2.2,0,0,1,35.71,61.26Zm2.21-2a2.35,2.35,0,0,1,1.59.72,2.94,2.94,0,0,0,0-.42,2.45,2.45,0,0,0-.11-.71c-.65-.39-1.39.31-1.48.39Z"/><path d="M34.32,62.5a.54.54,0,1,1,.54.54.54.54,0,0,1-.54-.54h0"/><path d="M39,62.51a.54.54,0,0,1,1.07,0,.54.54,0,0,1-1.07.15.38.38,0,0,1,0-.15"/><path d="M53.67,60a.54.54,0,1,1,.55.53h0a.55.55,0,0,1-.54-.53"/><path d="M50,58.41a.54.54,0,1,1,.54.54.54.54,0,0,1-.54-.54h0"/><path d="M49.64,61.05a.54.54,0,1,1,.54.54h0a.53.53,0,0,1-.53-.53h0"/><path d="M46.21,73.22a.72.72,0,0,1-.45-.26,4.22,4.22,0,0,0-1.29-.88,7.09,7.09,0,0,0-1.68-.51c-.65-.15-1.27-.28-1.21-1h0a.9.9,0,0,1,.08-.28l-.4-.64c-.67-1.08-1.77-2.89-2.72-3a3.82,3.82,0,0,0-2.32.67l-.41-.54a4.52,4.52,0,0,1,2.83-.8c.84.12,1.64,1,2.31,2a9.53,9.53,0,0,1,2.63-1,14.54,14.54,0,0,1,5.05.22h.26l6,.9-.1.68-1.27-.2v.89h-.68v-1l-4-.61h-.27l-.33-.06v.94h-.68v-1l-1.24-.27h0a2.16,2.16,0,0,0-1.94,1.72.77.77,0,0,1,.7.37,7.15,7.15,0,0,0,2.46,2.52l.71.4-1.1.3a1.91,1.91,0,0,0-.75.35A.34.34,0,0,1,46.21,73.22Zm-4-2.58a.06.06,0,0,0,0,.06,2.25,2.25,0,0,0,.67.2,8.82,8.82,0,0,1,1.81.56,5,5,0,0,1,1.48,1h0a2,2,0,0,1,.36-.19,6.83,6.83,0,0,1-2.11-2.39,3.46,3.46,0,0,0-1.52.29,1.59,1.59,0,0,0-.64.47Zm-.89-2.14.51.8c.11.2.22.37.32.52a4.69,4.69,0,0,1,1.5-.56h0a3.6,3.6,0,0,1,1.06-1.85,6.67,6.67,0,0,0-1,.13A9.35,9.35,0,0,0,41.32,68.5Zm15.12-5.72H50.92V59l5.69,3.16Zm-4.85-.68h3.54l-3.54-2Z"/><path d="M54.32,68.43a.57.57,0,0,1,1.13-.15.38.38,0,0,1,0,.15.57.57,0,0,1-.64.49.55.55,0,0,1-.49-.49"/><path d="M54.93,69.05a.62.62,0,0,1-.62-.62h0a.62.62,0,1,1,.62.62Zm0-1.13a.51.51,0,0,0-.51.51h0a.5.5,0,0,0,.6.4.46.46,0,0,0-.09-.91Z"/><path d="M47.85,68.17c.76.65,1.13,1.08,1.21,1.46.15.69-1.74-.19-1.83-.68,0-.29.46-.92.62-.78"/><path d="M48.83,69.94a1.71,1.71,0,0,1-.45-.09c-.45-.16-1.14-.56-1.2-.89a1.06,1.06,0,0,1,.48-.82c.12-.07.19,0,.23,0h0c.81.69,1.15,1.11,1.23,1.49a.26.26,0,0,1-.06.25A.32.32,0,0,1,48.83,69.94Zm-1-1.73h-.08a1,1,0,0,0-.43.7c0,.23.59.62,1.13.8.28.1.49.12.56,0s.05,0,0-.15c-.07-.35-.42-.76-1.19-1.42h0Z"/><path d="M52.5,70a.69.69,0,1,1,.69.69A.69.69,0,0,1,52.5,70h0"/><path d="M53.19,70.75a.75.75,0,1,1,.75-.75A.77.77,0,0,1,53.19,70.75Zm0-1.39a.64.64,0,0,0-.64.64.64.64,0,0,0,.64.64h0a.64.64,0,0,0,0-1.28Z"/><path d="M29.82,20c.29-1.19,10.09,3.5,11.33,5.56,1,1.66.15,1.62.19,2.9a1.55,1.55,0,0,0,1.37,1.66,1.69,1.69,0,0,0,1.71-1c.29-.91-.27-2.6-1.36-2.07-.61.3.3-1.51,1.24-.93.77.48.5-.44,1.46-.5,1.3-.07,1,1.57.88,2.18-.14,1.25.45,2.68,1.73,2.15,1.64-.68.08-2.15.79-3.87s7.16-5.59,11.79-6.2c1.3-.17.48.85-.14,1.36-.32.26.27,1.49-1.33,3.08-.31.31.78,1.28-2.43,3.77-.4.31.68,2.17-2.83,3.16-.78.22.47,1.07-.59,2.27-.68.76.8,1.85-.85,2.4-.51.17.59,1.61-1.22,1.87-.43.06-.43,2.38-2.57.7-.65-.51.39,1.53-.14,1.39a1.36,1.36,0,0,1-.71-.37,2.54,2.54,0,0,0,.65,2.09c.48.4.37,2.33-1.13,1.33-.17-.11.14,1.59-1.27.71-.22-.13-.74,1.35-1.67-.06-.12-.17-1.12,1-1.3-.5,0-.23-.54.76-1.22,0s.31-1.59.47-1.81c.46-.62-.14-1.16.07-1.64.48-1.13-.37.74-.82.2s.68-1.76.14-1.5c-2,1-1.75-.42-2.07-.45-1.73-.14-.67-1.6-1.21-1.6-2.18-.12-.82-2.24-1.25-2.41-1.61-.64-.17-2-.56-2.14-3.54-1.44-1.91-2.52-2.68-3-3.34-1.92-1.6-2.95-2.07-3.47-1-1.14-2.19-2.06-1.63-3.66-.32-.72-1.06-.46-.77-1.65" fill="#f7b16e"/><path d="M45.51,44.69h-.08a1.23,1.23,0,0,1-.87-.52,1.11,1.11,0,0,1-1,.09.88.88,0,0,1-.43-.48,1,1,0,0,1-1.25-.32c-.59-.64-.47-1.41.35-2.3l.09-.09c.12-.17.1-.29,0-.61h-.19a.76.76,0,0,1-.56-.26,1.08,1.08,0,0,1-.09-1.07,1.56,1.56,0,0,1-1,0,1.24,1.24,0,0,1-.7-.75A1.35,1.35,0,0,1,38.48,37a1.49,1.49,0,0,1,0-.21,1.73,1.73,0,0,1-1.18-.57,2.11,2.11,0,0,1-.22-1.73v-.21a1.51,1.51,0,0,1-.73-2l.08-.14h0c-2.22-1-2.42-1.84-2.43-2.65v-.22c-2.49-1.42-2.47-2.5-2.26-3.39a.89.89,0,0,0,0-.23c-.11-.09-.24-.24-.38-.38-.89-.95-1.81-1.94-1.38-3.46a1,1,0,0,0-.24-.22c-.39-.29-.71-.63-.48-1.6a.7.7,0,0,1,.63-.52c1.89-.3,10.41,3.89,11.63,5.89a2.29,2.29,0,0,1,.4,2.29,2,2,0,0,0-.15.84,1.11,1.11,0,0,0,.94,1.22A1.23,1.23,0,0,0,44,29a1.7,1.7,0,0,0-.33-1.5.33.33,0,0,0-.4,0,.56.56,0,0,1-.74-.13c-.27-.36,0-.9.33-1.25a1.29,1.29,0,0,1,1.69-.34h.07a1.41,1.41,0,0,1,1.1-.58,1.31,1.31,0,0,1,1.06.38,2.68,2.68,0,0,1,.31,2.12v.18a2,2,0,0,0,.45,1.66.59.59,0,0,0,.65,0c.58-.24.57-.49.43-1.35a4,4,0,0,1,.12-2.28c.82-2,7.6-5.87,12.15-6.47.61-.08,1,.06,1.15.42.27.61-.48,1.35-.88,1.69a.89.89,0,0,0,0,.23,4,4,0,0,1-1.27,2.81v.07c0,.9-.22,2-2.47,3.74a.67.67,0,0,0,0,.2c0,.73-.1,2.24-3,3.08a.21.21,0,0,0,0,.11,2.06,2.06,0,0,1-.47,2c-.12.12-.09.28,0,.64a1.36,1.36,0,0,1-.64,1.82l-.22.08v.13A1.45,1.45,0,0,1,52,38.2a1.09,1.09,0,0,1-.26,0l-.09.19a1.44,1.44,0,0,1-2.25.89.93.93,0,0,1-.12.87.58.58,0,0,1-.55.14H48.6a1.53,1.53,0,0,0,.48,1,1.67,1.67,0,0,1,.15,2,1.07,1.07,0,0,1-1.27.33,1,1,0,0,1-.51.67,1.17,1.17,0,0,1-1-.09A1.28,1.28,0,0,1,45.51,44.69Zm-.81-1.53a.42.42,0,0,1,.39.21c.21.32.36.41.41.41s.23-.17.3-.24.45-.48.82-.24.45.18.45.18a1.51,1.51,0,0,0,.07-.37.59.59,0,0,1,.31-.55l.23-.11.23.15c.21.14.49.27.58.17a.83.83,0,0,0,0-.78,3,3,0,0,1-.81-2.5l.15-1.1.59.8c-.12-.48-.22-.88.12-1.11a.58.58,0,0,1,.72.1c.67.53,1,.52,1.1.5a1.62,1.62,0,0,0,.48-.62c.13-.26.29-.63.65-.68.75-.11.73-.35.69-.84,0-.3-.07-.84.45-1s.56-.32.44-.83a1.47,1.47,0,0,1,.25-1.45A1.15,1.15,0,0,0,53.59,32c-.07-.29-.22-1,.54-1.17,2.31-.66,2.36-1.63,2.38-2.27a1,1,0,0,1,.29-.82c2.26-1.75,2.22-2.62,2.2-3a.86.86,0,0,1,.19-.69,3.15,3.15,0,0,0,1.07-2.29,1,1,0,0,1,.3-.82,3.64,3.64,0,0,0,.54-.57H61c-4.64.61-10.85,4.49-11.43,5.92a3.12,3.12,0,0,0-.07,1.79c.13.8.3,1.81-1,2.33A1.5,1.5,0,0,1,47,30.32a2.82,2.82,0,0,1-.81-2.48v-.2c.05-.37.15-1.13-.08-1.38a.45.45,0,0,0-.35-.09.53.53,0,0,0-.46.25.84.84,0,0,1-1.16.25L44,26.6a.3.3,0,0,0-.29,0h-.07a1.12,1.12,0,0,1,.54.28,2.53,2.53,0,0,1,.6,2.45,2.14,2.14,0,0,1-2.16,1.31,2,2,0,0,1-1.8-2.09,3,3,0,0,1,.22-1.23c.14-.39.22-.62-.32-1.52-1.15-1.89-9.19-5.58-10.53-5.48-.07.33,0,.38.18.52a1.74,1.74,0,0,1,.59.7l.07.16v.17c-.38,1.07.18,1.74,1.12,2.75l.42.46a1,1,0,0,1,.14,1c-.12.5-.29,1.19,1.81,2.39a1,1,0,0,1,.48,1c0,.45,0,1.07,2.15,1.94.54.22.31.81.21,1.07-.21.56-.28.82.35,1.07.47.19.38.72.32,1.11s-.14.79,0,1a1.07,1.07,0,0,0,.74.26.59.59,0,0,1,.43.19.92.92,0,0,1,.15.72c0,.44,0,.64.66.7a.7.7,0,0,1,.55.51c.07.16.11.24.19.27s.34.08,1.08-.28a.53.53,0,0,1,.65,0c.28.26.14.59,0,.94a.19.19,0,0,1-.07.17h0c.21-.28.44-.35.68-.22s.22.53,0,.94a1,1,0,0,0,0,.34A1.44,1.44,0,0,1,43,41.59a.8.8,0,0,1-.15.17c-.56.6-.55.85-.35,1.07s.21.17.45,0a.55.55,0,0,1,.59-.16l.25.1v.3a.8.8,0,0,0,.11.4,2.26,2.26,0,0,1,.26-.16A1.2,1.2,0,0,1,44.7,43.16Z"/><path d="M45.57,44.5c-1,0-1-1.11-1-2a9.73,9.73,0,0,0,0-1.08,2.72,2.72,0,0,1-1.25,2.21l-.4-.81c.5-.25.62-1.16.67-1.59a2.25,2.25,0,0,1,.06-.36l.77.23a1.21,1.21,0,0,0-.31-.63l.63-.65a3.67,3.67,0,0,1,.7,2.66,3.15,3.15,0,0,0,.12,1.14c0-.15.08-1,.1-1.47,0-1.21.11-2.57,1.18-2.6v.91c-.11,0-.17.26-.22.59l.76-.22a1.53,1.53,0,0,1,.07.36c0,.44.16,1.34.66,1.6l-.4.8a2.61,2.61,0,0,1-1.14-2.09v.69C46.55,43.32,46.5,44.5,45.57,44.5Zm-5.89-6.28-.1-.9c.14,0,.54-.34,1-1.12a3.64,3.64,0,0,0,.6-2L41,34c-.42,1-1.51,2.52-2.5,2.66l-.12-.9a2.47,2.47,0,0,0,1.12-1,3.8,3.8,0,0,0,.8-1.62h0c-.07-.11-.12-.22-.18-.33a4.38,4.38,0,0,1-.66.55,3.3,3.3,0,0,1-2.42.71l.25-.87A2.54,2.54,0,0,0,39,32.66a2.36,2.36,0,0,0,.8-.8,10,10,0,0,1-.84-.88,3.42,3.42,0,0,1-2.45,1.14l.07-.9a2.56,2.56,0,0,0,1.81-1c-.17-.24-.32-.49-.46-.73A8.43,8.43,0,0,1,33.73,29l.35-.83a8.66,8.66,0,0,0,3.42.49,7,7,0,0,1-.36-1.09,5,5,0,0,1-2.38-.41,4.32,4.32,0,0,1-1.1-.85c-.53-.5-1.07-1.05-1.75-1v-.9a3.49,3.49,0,0,1,2.41,1.25,4.07,4.07,0,0,0,.86.69,4.31,4.31,0,0,0,1.84.35,8.34,8.34,0,0,1,0-1,3.84,3.84,0,0,1-2.7-.89,5.64,5.64,0,0,1-.89-1c-.74-.9-1.76-2.14-2.7-1.9L30.51,21c1.51-.38,2.73,1.12,3.62,2.21a5,5,0,0,0,.72.8,2.53,2.53,0,0,0,2.42.59l.24-.13.44.32v.36a6.61,6.61,0,0,0,1.73,5.16,10.35,10.35,0,0,1,1.24-4.58l.81.4c-1.55,3.14-1.5,5.79.09,7.38l.09.09.38.32a5.83,5.83,0,0,0,7-.31c1.77-1.65,1.63-4.29-.39-7.43l.76-.49a9.75,9.75,0,0,1,1.66,4.69,7.68,7.68,0,0,0,2-5.4.49.49,0,0,1,.21-.51l.21-.14.24.11c.15.08,1.06.16,2.47-.85a5.79,5.79,0,0,0,.68-.72c.83-1,2.1-2.4,3.6-2l-.22.88c-1-.24-2,.91-2.7,1.75a5.56,5.56,0,0,1-.83.85,4.87,4.87,0,0,1-2.72,1.07h0a6.8,6.8,0,0,1-.06.9A2,2,0,0,0,55.62,26c.32-.34,2.73-2.47,4.06-2.05l-.28.86c-.59-.19-2.43,1.08-3.12,1.81a2.8,2.8,0,0,1-2.24.62,8.14,8.14,0,0,1-.41,1.07,5.72,5.72,0,0,0,3.43-.74l.6.68c-1.14,1-3.57,1.07-4.42.92a10.79,10.79,0,0,1-.92,1.39,2.64,2.64,0,0,1,2.1,1L53.6,32a2.87,2.87,0,0,0-2-.54l-.38.38V32a3.56,3.56,0,0,1,1.22.43,3,3,0,0,1,1.5,1.45l-.87.25A2.46,2.46,0,0,0,52,33.21a2.35,2.35,0,0,0-1.1-.33l-.2.37a6.08,6.08,0,0,1,2.39,2.68l-.88.21a5.77,5.77,0,0,0-2-2.16c-.11.12-.21.23-.31.32l-.35.3h0c0,.41,1.21,2.48,2.46,2.68l-.15.9a4.44,4.44,0,0,1-2.52-2,5.14,5.14,0,0,1-.59-1.11,6.83,6.83,0,0,1-6.67-.21,1.18,1.18,0,0,1-.08.31C41.62,36.38,40.67,38.11,39.68,38.22Zm6.51-.56H44.77v-.91h1.42Zm-.6-3.73a4.08,4.08,0,0,1-2.05-.54,3.6,3.6,0,0,1-1.79-3.45l.9,0A2.71,2.71,0,0,0,44,32.61a3.27,3.27,0,0,0,3.3-.08,2.93,2.93,0,0,0,1.14-3l.89-.11a3.76,3.76,0,0,1-1.52,3.9A4,4,0,0,1,45.59,33.93ZM45.52,32A2.77,2.77,0,0,1,43,30.18l.82-.38A1.78,1.78,0,0,0,46,31l.07,0c.72-.22,1.09-.73,1.07-.9L48,30c.12.73-.64,1.58-1.7,1.91A2.72,2.72,0,0,1,45.52,32Z"/><path d="M47.63,41.22a1.5,1.5,0,0,1-.83-.32A2.06,2.06,0,0,1,46,39.75v-.24a7,7,0,0,1-.1-1.44c0-1.79,0-3.2,1.56-3.28h0a1.67,1.67,0,0,1,1.64,1.69v3a1.7,1.7,0,0,1-1.28,1.69Zm-.2-5.53c-.59,0-.69.38-.69,2.38a6.51,6.51,0,0,0,.08,1.25v.27a1.45,1.45,0,0,0,.76.68h0a.81.81,0,0,0,.52-.8v-3A.81.81,0,0,0,47.43,35.69Z"/><path d="M43.32,41.32a1.09,1.09,0,0,1-.61-.18A2,2,0,0,1,42,39.63a.67.67,0,0,0,0-.2,3.69,3.69,0,0,1-.17-1.32c0-1.79,0-3.2,1.56-3.28h0a1.69,1.69,0,0,1,1.64,1.7v1.06a17.2,17.2,0,0,1,0,2.27,1.58,1.58,0,0,1-1.2,1.36A1.49,1.49,0,0,1,43.32,41.32Zm.09-5.59c-.59,0-.69.38-.69,2.38a2.81,2.81,0,0,0,.13,1,1.28,1.28,0,0,1,.1.43,1.25,1.25,0,0,0,.26.81.44.44,0,0,0,.32,0c.41-.15.57-.27.61-.62a15.14,15.14,0,0,0,0-2.13V36.51a.82.82,0,0,0-.77-.78Z"/><polygon points="43.84 27.56 42.13 27.56 42.73 26.27 43.14 26.47 42.84 27.11 43.84 27.11 43.84 27.56"/><path d="M9.39,36.1l.7-1.92a2.74,2.74,0,0,0,0-2.31,3,3,0,0,0-1.7-1.3,2.81,2.81,0,0,0-2.13,0A2.51,2.51,0,0,0,5,32.18l-.67,2,.26.1c.19-.53.26-.56.76-.37l3.49,1.27c.51.18.54.25.35.77Zm-4-3c-.27-.1-.32-.16-.24-.37l.17-.41a1.59,1.59,0,0,1,1-1.09,2.89,2.89,0,0,1,1.9.19,2.76,2.76,0,0,1,1.46,1,1.81,1.81,0,0,1,.09,1.65l-.12.34c-.09.23-.16.24-.5.12Z" fill="#0075bf" fill-rule="evenodd"/><path d="M13.17,27.32l-1-.79-.17.31c.64.55.66.65.46,1l-.48.92c-.07.13-.14.17-.4,0l-1.75-.93.36-.68c.16-.3.23-.32.86,0l.15-.3L9.57,26l-.16.3c.59.31.63.41.48.7l-.36.67L8,26.83c-.26-.14-.29-.18-.18-.4l.37-.7c.2-.37.27-.42,1.08-.2l.17-.31-1.09-.35L6.75,27.73l.24.13c.25-.46.33-.48.8-.23l3.28,1.74c.47.25.5.33.25.79l.24.13Z" fill="#0075bf"/><path d="M13.47,25.13c.44.31.47.38.17.81l.22.16L15,24.46l-.23-.14c-.34.49-.4.49-.85.18l-1.26-.88.21-.31a2.27,2.27,0,0,0,.55-1.43,1.4,1.4,0,0,0-.69-1.08,1.43,1.43,0,0,0-1.23-.26,2.25,2.25,0,0,0-1,.93L9.45,23l.22.16c.3-.43.38-.43.82-.12Zm-2.78-3.42a1.15,1.15,0,0,1,.68-.52,1.2,1.2,0,0,1,.91.26,1.22,1.22,0,0,1,.59.78,1.16,1.16,0,0,1-.26.86l-.22.31L10.8,22.32c-.29-.21-.33-.26-.24-.38Z" fill="#0075bf" fill-rule="evenodd"/><path d="M17,19.32l.89.41c.36.16.44.25.15.57l.2.18,1.08-1.23-.21-.19c-.17.19-.28.21-.71,0l-4.64-2-.31.34,2.62,4.37c.19.31.18.42,0,.62l.2.18.82-.91-.21-.18c-.27.3-.35.27-.61-.15l-.49-.76Zm-.33-.15-1,1.16-1.35-2.21h0Z" fill="#0075bf" fill-rule="evenodd"/><path d="M20.51,14.79a1.54,1.54,0,0,0,.38-.94,1.41,1.41,0,0,0-.34-.94,1.24,1.24,0,0,0-1.08-.5,2.26,2.26,0,0,0-1.35.67l-1.48,1.24.17.21c.41-.35.49-.33.83.08L20,17.45c.34.41.34.49-.07.83l.18.21,1.49-1.24L21.45,17c-.4.34-.46.33-.81-.09l-1-1.25.4-.34,2.63,1.06.86-.72-.21-.2c-.23.19-.36.23-.86,0Zm-2.3-.74c-.25-.3-.28-.36-.15-.47l.26-.26a1.13,1.13,0,0,1,.81-.34,1.08,1.08,0,0,1,.76.42,1.15,1.15,0,0,1,.34.91,1.36,1.36,0,0,1-.55.83l-.32.27Z" fill="#0075bf" fill-rule="evenodd"/><path d="M23.63,9.56l.67-.42c.37-.23.44-.24,1.05.43l.28-.17-.83-1-3.4,2.12.53,1.18.28-.17c-.34-.83-.3-.9.07-1.13L23,10l2.24,3.59c.29.45.29.52-.26.86l.14.23,1.84-1.15-.14-.19c-.55.35-.62.32-.9-.14Z" fill="#0075bf"/><path d="M30.81,5.68l.26,4.54h0l-3-3.43-1.31.53.11.26c.47-.19.53-.16.72.32L29,11.32c.2.5.19.57-.28.76l.1.26,1.34-.54L30,11.54c-.43.18-.49.14-.69-.36L28,7.79h0l3.21,3.67.27-.11-.27-4.84h0l1.37,3.4c.2.5.2.57-.27.75l.11.26,1.75-.71L34,10c-.47.19-.54.15-.74-.35L31.94,6.17c-.21-.5-.2-.57.28-.77l-.1-.25Z" fill="#0075bf"/><path d="M38.68,9.08l-.07-1.26-.29.09c0,.84,0,.93-.45,1l-1,.25c-.14,0-.21,0-.28-.27L36.11,7l.74-.19c.32-.08.39,0,.56.65l.33-.08-.44-1.8L37,5.62c.16.65.12.74-.2.82L36,6.63,35.6,4.92c-.07-.29-.06-.34.17-.4l.71-.2c.41-.1.49-.09.87.66l.34-.08-.51-1.11L34,4.57l.07.27c.51-.12.58-.08.71.44l.89,3.6c.13.52.1.59-.41.72l.07.27Z" fill="#0075bf"/><path d="M41,3.32l-1.38.12v.28c.54,0,.59,0,.64.53L40.55,8c.05.53,0,.59-.53.64v.27l1.54-.13V8.46c-.52,0-.58,0-.63-.53L40.6,4.09h0L44,8.6h.53l-.37-4.73c0-.54,0-.6.51-.64V3l-1.54.14v.27c.54,0,.61,0,.66.54l.31,3.58h0Z" fill="#0075bf" fill-rule="evenodd"/><path d="M49.15,3.51l.78.06c.44,0,.5.06.6,1h.33l-.09-1.25-4-.28L46.5,4.3h.33c.21-.87.28-.91.72-.88l.79.06L48.05,7.7c0,.53-.08.59-.73.54v.27l2.16.15V8.39c-.64,0-.68-.1-.64-.64Z" fill="#0075bf"/><path d="M56.82,10.24a2.38,2.38,0,0,0,2-.13,3.05,3.05,0,0,0,1.25-1.79A3,3,0,0,0,60,6,2.81,2.81,0,0,0,56.6,5a3,3,0,0,0-1.38,1.8,3.14,3.14,0,0,0,0,2.22,2.4,2.4,0,0,0,1.58,1.23Zm1.55-5.11a1.49,1.49,0,0,1,1,.85,3.07,3.07,0,0,1-.1,2,3.41,3.41,0,0,1-1,1.74,1.59,1.59,0,0,1-2.2-.52,1.62,1.62,0,0,1-.1-.18,3.41,3.41,0,0,1,.1-2,3.09,3.09,0,0,1,1-1.75,1.47,1.47,0,0,1,1.29-.15Z" fill="#0075bf" fill-rule="evenodd"/><path d="M64.64,9.32l-.3-.15c-.28.6-.39.65-.69.51L63,9.32l.76-1.63c.14-.29.18-.33.4-.22l.75.35c.37.17.41.25.24,1.07l.32.14.29-1.19-3-1.38-.11.25c.47.22.5.3.27.79l-1.57,3.36c-.22.49-.29.52-.77.29l-.12.26,1.86.86.11-.25c-.57-.27-.59-.33-.36-.82l.74-1.57.66.31c.3.14.33.22,0,.86l.3.14Z" fill="#0075bf"/><path d="M70.44,15.89l-.29-.21c-.66.59-.77.61-1.12.35l-.66-.48c-.14-.1-.17-.17,0-.41L70.65,12c.33-.45.39-.47.84-.15l.16-.22-1.58-1.15-.16.23c.41.29.42.37.1.81l-2.17,3c-.32.43-.4.45-.81.15l-.16.22,2.61,1.9Z" fill="#0075bf"/><path d="M73.73,18.44l-.41.88c-.17.35-.27.42-.57.12l-.2.19,1.16,1.16.2-.2c-.19-.18-.2-.29,0-.71l2.18-4.56L75.76,15l-4.5,2.38c-.32.17-.43.16-.61,0l-.2.2.87.86.19-.19c-.29-.3-.25-.37.18-.61l.78-.45Zm.16-.32L72.8,17l2.25-1.24h0Z" fill="#0075bf" fill-rule="evenodd"/><path d="M78.56,18.47c.32.42.3.5-.13.83l-3,2.22c-.43.33-.51.32-.83-.1l-.22.16,1.25,1.66a1.91,1.91,0,0,0,1.23.88A1.44,1.44,0,0,0,78,23.78a1.19,1.19,0,0,0,.5-.94,1.92,1.92,0,0,0-.41-1.15h0a1.75,1.75,0,0,0,1,.55A1.18,1.18,0,0,0,80,22a1.1,1.1,0,0,0,.46-.9,2.26,2.26,0,0,0-.62-1.34l-1-1.43Zm.57,1.29c.15-.11.22-.13.34,0l.22.29a.9.9,0,0,1,.21.72,1.11,1.11,0,0,1-.43.61,1.12,1.12,0,0,1-.86.26,1.14,1.14,0,0,1-.7-.49l-.24-.31ZM77.4,21.07l.3.4a1.28,1.28,0,0,1,.31.88,1.08,1.08,0,0,1-.48.76,1.47,1.47,0,0,1-.89.36.94.94,0,0,1-.69-.42l-.26-.35c-.13-.18-.11-.26.13-.44Z" fill="#0075bf" fill-rule="evenodd"/><path d="M78.75,28.11a2.36,2.36,0,0,0,1.57,1.3,3.69,3.69,0,0,0,3.74-2.2,2.82,2.82,0,0,0-1.74-3.09,2.92,2.92,0,0,0-2.3.41,3,3,0,0,0-1.54,1.6,2.43,2.43,0,0,0,.28,2Zm4.67-2.59a1.47,1.47,0,0,1,.12,1.29A3,3,0,0,1,82,28.22a3.34,3.34,0,0,1-2,.52,1.59,1.59,0,0,1-1.16-2.1,3.27,3.27,0,0,1,1.48-1.39,3,3,0,0,1,2-.53,1.53,1.53,0,0,1,1,.79Z" fill="#0075bf" fill-rule="evenodd"/><path d="M83.94,33.26a1.57,1.57,0,0,0,.74.7,1.33,1.33,0,0,0,1,0,1.23,1.23,0,0,0,.86-.84,2.35,2.35,0,0,0-.15-1.5l-.63-1.83-.26.09c.18.51.14.58-.37.75l-3.51,1.23c-.51.17-.58.15-.75-.36l-.26.09.63,1.84.26-.09c-.17-.5-.14-.55.38-.73l1.54-.53.17.5-1.93,2.07L82,35.72l.26-.09c-.1-.29-.09-.42.26-.82Zm1.52-1.88c.37-.13.43-.13.49,0l.12.34a1.12,1.12,0,0,1,0,.88,1,1,0,0,1-.66.56,1.17,1.17,0,0,1-1,0,1.34,1.34,0,0,1-.57-.81L83.7,32Z" fill="#0075bf" fill-rule="evenodd"/><path d="M6.48,55.52a1.86,1.86,0,0,1-1.23-.06,1.11,1.11,0,0,1-.56-.84,1.15,1.15,0,0,1,.17-1A1.87,1.87,0,0,1,6,53.06l2.64-.51c.54-.11.59-.08.68.41l.27-.05-.36-1.86L9,51.1c.1.5,0,.55-.48.65l-2.67.57a2,2,0,0,0-1.46.81,2.07,2.07,0,0,0-.06,1.43A1.72,1.72,0,0,0,5,55.75a2,2,0,0,0,1.5.17l2.74-.53c.53-.1.59-.07.68.4l.28-.06-.33-1.41H9.62c.09.47.06.53-.48.64Z" fill="#0075bf"/><path d="M10.88,57.85l-.5-1.28-.25.1c.19.5.17.56-.34.76L6.32,58.76c-.5.19-.57.16-.76-.33l-.26.1L5.86,60l.26-.1c-.19-.49-.16-.56.34-.75l3.6-1.38h0L6.64,62.22l.19.5,4.35-1.67c.5-.19.57-.15.75.32l.26-.1-.56-1.45-.25.1c.19.51.16.59-.34.78L7.69,62h0Z" fill="#0075bf"/><path d="M8.8,64.68c-.47.26-.54.24-.81-.25l-.24.13.94,1.76.24-.13c-.26-.49-.23-.56.25-.81l3.27-1.74c.48-.25.55-.24.81.25l.24-.13L12.57,62l-.25.13c.26.49.23.56-.24.81Z" fill="#0075bf"/><path d="M14.84,66.72l.43.66c.24.36.25.43-.41,1.06l.17.27,1-.85-2.18-3.35-1.17.55.18.27c.83-.35.89-.32,1.13,0l.44.67-3.57,2.32c-.45.29-.52.29-.87-.25l-.23.15L10.94,70l.23-.14c-.35-.55-.33-.61.12-.9Z" fill="#0075bf"/><path d="M14.58,74.68l1.1-.61-.22-.27c-.75.39-.86.37-1.13,0l-.67-.8c-.09-.11-.1-.19.13-.38l1.53-1.22.49.59c.22.25.21.33-.33.79l.21.25,1.42-1.18-.22-.26c-.5.42-.61.43-.82.17l-.49-.58,1.35-1.13c.23-.2.28-.21.44,0l.5.61c.27.32.29.4-.21,1.07l.22.27.77-1-2.08-2.48-.21.18c.33.4.33.48-.08.82l-2.86,2.42c-.41.34-.49.34-.83-.06l-.21.17Z" fill="#0075bf"/><path d="M15.8,76l1.52,1.33a2.77,2.77,0,0,0,2.13.91,3.09,3.09,0,0,0,1.87-1.06,2.75,2.75,0,0,0,.83-2,2.45,2.45,0,0,0-1-1.78L19.49,71.9l-.18.2c.42.38.41.45.06.85l-2.49,2.77c-.36.39-.43.4-.85,0ZM20,73.39c.2-.22.27-.24.43-.09l.39.35A1.6,1.6,0,0,1,21.49,75a3,3,0,0,1-.88,1.69,2.77,2.77,0,0,1-1.5,1,1.77,1.77,0,0,1-1.56-.53l-.23-.27c-.18-.17-.17-.24.08-.51Z" fill="#0075bf" fill-rule="evenodd"/><path d="M27.6,79.55a10.64,10.64,0,0,1,.44-1,2.87,2.87,0,0,0-.81-.7,1.64,1.64,0,0,0-1.16-.27,1.22,1.22,0,0,0-.84.59,1.41,1.41,0,0,0-.22.77,4.46,4.46,0,0,0,.38,1.29,3.89,3.89,0,0,1,.32,1,1.13,1.13,0,0,1-.17.65,1,1,0,0,1-.59.47.87.87,0,0,1-.67-.1c-.48-.29-.62-.66-.34-1.53l-.34-.1a9,9,0,0,1-.44,1.12,3.77,3.77,0,0,0,.91.78,1.79,1.79,0,0,0,1.37.26,1.39,1.39,0,0,0,.85-.67,1.63,1.63,0,0,0,.24-.94,5.36,5.36,0,0,0-.43-1.3,3.48,3.48,0,0,1-.29-1,.93.93,0,0,1,.14-.54.71.71,0,0,1,.43-.35.82.82,0,0,1,.65.1c.5.3.53.58.24,1.33Z" fill="#0075bf"/><path d="M31.22,80.32l.72.32c.4.17.45.23.23,1.11l.3.13.36-1.24L29.17,79l-.68,1.1.3.13c.5-.74.57-.75,1-.57l.72.32-1.72,3.87c-.22.48-.27.52-.87.26l-.11.25,2,.88.11-.25c-.59-.26-.6-.33-.38-.82Z" fill="#0075bf"/><path d="M34.72,85.18v1c0,.39,0,.5-.45.37l-.08.27,1.56.48.09-.27c-.25-.07-.31-.17-.33-.64l-.19-5.07-.43-.13-2.84,4.23c-.2.3-.31.34-.56.26l-.08.27,1.17.36.08-.27c-.39-.12-.39-.2-.13-.62l.49-.76Zm0-.37-1.5-.49,1.42-2.15h0Z" fill="#0075bf" fill-rule="evenodd"/><path d="M40,82.86l.78.14c.43.07.49.11.49,1l.32.06.05-1.29-3.94-.7-.4,1.25.32.06c.31-.84.38-.87.81-.8l.78.14-.73,4.17c-.09.53-.14.58-.78.46v.27l2.13.38v-.27c-.64-.11-.67-.18-.57-.7Z" fill="#0075bf"/><path d="M45.71,88.4,46,87.18h-.34c-.22.81-.31.88-.73.86h-1c-.15,0-.21-.05-.2-.35l.07-2h.77c.33,0,.38.06.36.77h.34l.06-1.83H45c0,.67-.09.75-.42.73H43.8l.06-1.76c0-.3,0-.35.28-.34h.79c.42,0,.49,0,.66.88h.34l-.18-1.21-3.24-.11v.28c.52,0,.57.08.56.61l-.13,3.71c0,.54-.08.59-.6.58v.32Z" fill="#0075bf"/><path d="M49.79,83.94c-.1-.4-.18-.83-.23-1.11a3,3,0,0,0-1.07-.11,1.69,1.69,0,0,0-1.11.45,1.28,1.28,0,0,0-.35,1,1.53,1.53,0,0,0,.26.75,4.79,4.79,0,0,0,1.06.84,3.75,3.75,0,0,1,.86.67,1.1,1.1,0,0,1,.23.63,1,1,0,0,1-.21.72.84.84,0,0,1-.61.3c-.56,0-.89-.18-1.16-1l-.33.11a8.88,8.88,0,0,1,.28,1.13,3.48,3.48,0,0,0,1.2.12,1.78,1.78,0,0,0,1.27-.58,1.49,1.49,0,0,0,.31-1,1.65,1.65,0,0,0-.35-.9,5.17,5.17,0,0,0-1.1-.82,3.31,3.31,0,0,1-.8-.64.94.94,0,0,1-.2-.53.8.8,0,0,1,.16-.54.83.83,0,0,1,.59-.28c.58,0,.76.17,1,1Z" fill="#0075bf"/><path d="M57.11,87a2.39,2.39,0,0,0,1.63-1.17,3.09,3.09,0,0,0,.08-2.22,3,3,0,0,0-1.31-1.94,2.85,2.85,0,0,0-3.42.91,3.69,3.69,0,0,0,1,4.22A2.39,2.39,0,0,0,57.11,87Zm-1.39-5.16A1.46,1.46,0,0,1,57,82a3.09,3.09,0,0,1,1,1.8,3.41,3.41,0,0,1,0,2,1.59,1.59,0,0,1-2.11.74l-.2-.12a3.19,3.19,0,0,1-1-1.77,3,3,0,0,1,0-2.06,1.49,1.49,0,0,1,1-.81Z" fill="#0075bf" fill-rule="evenodd"/><path d="M62.32,81.05l-.31.13c.26.61.22.72-.08.85l-.67.28-.7-1.66c-.13-.29-.12-.35.1-.44l.76-.33c.38-.15.47-.13,1,.54l.32-.14-.69-1-3,1.26.1.26c.48-.2.56-.17.77.32l1.4,3.41c.21.49.18.56-.3.77l.11.26L63,84.75l-.11-.25c-.58.25-.64.22-.85-.28l-.67-1.59.67-.29c.3-.13.39-.1.67.55l.3-.13Z" fill="#0075bf"/><path d="M68.62,79.68l.76.63c.3.24.35.35,0,.58l.15.24,1.37-.9L70.75,80c-.21.14-.33.13-.69-.16l-4-3.11-.39.25,1.4,4.9c.1.34.06.46-.15.6l.15.23,1-.67-.15-.23c-.35.23-.41.17-.56-.3l-.27-.86Zm-.3-.23L67,80.32l-.71-2.49h0Z" fill="#0075bf" fill-rule="evenodd"/><path d="M71.7,72.32l1.88,4.15h0l-4.06-2.15-1,.94.18.2c.38-.35.44-.34.79,0L72,78.19c.37.39.38.46,0,.81l.19.2,1-1L73,78c-.34.32-.41.3-.78-.09l-2.45-2.59h0l4.31,2.27.2-.27-2-4.4h0l2.51,2.69c.36.39.38.46,0,.8l.19.2,1.44-1.29-.19-.2c-.37.35-.44.34-.81-.05l-2.53-2.75c-.37-.4-.38-.47,0-.82l-.19-.2Z" fill="#0075bf"/><path d="M79.67,71.46l-.81-1-.22.27c.52.66.52.77.26,1.1l-.65.8c-.1.12-.17.14-.4,0l-1.53-1.26.49-.59c.2-.26.28-.27.83.17l.22-.26-1.44-1.16-.21.26c.51.42.53.52.33.77l-.48.6-1.37-1.11c-.23-.19-.26-.23-.1-.43l.5-.61c.26-.32.33-.36,1.09,0l.22-.27-1.08-.57-2,2.52.22.17c.33-.4.41-.41.83-.07l2.88,2.33c.42.34.43.42.1.83l.21.17Z" fill="#0075bf"/><path d="M79.86,66.47a1.63,1.63,0,0,0,.07-1,1.42,1.42,0,0,0-.61-.79,1.29,1.29,0,0,0-1.19-.14,2.31,2.31,0,0,0-1.08,1.06l-1,1.64.23.15c.29-.46.36-.47.82-.18l3.14,2c.46.29.48.36.2.82l.23.14,1-1.64-.22-.21c-.28.44-.34.45-.8.16l-1.33-.86.28-.45,2.82.19.6-1-.24-.15c-.16.26-.27.33-.8.31Zm-2.43,0c-.32-.2-.37-.25-.28-.4l.19-.31a1.18,1.18,0,0,1,.67-.57,1.08,1.08,0,0,1,.85.17,1.14,1.14,0,0,1,.61.76,1.38,1.38,0,0,1-.27,1l-.22.36Z" fill="#0075bf" fill-rule="evenodd"/><path d="M83,64.32c.49.22.52.29.28.8l.25.11.81-1.78-.21-.13c-.23.51-.31.52-.79.3L80,62.05c-.48-.23-.52-.3-.28-.8l-.25-.12L78.57,63l.25.11c.24-.5.31-.52.8-.29Z" fill="#0075bf"/><path d="M84.91,58a2.07,2.07,0,0,1,.63.83,1.33,1.33,0,0,1,0,1,1.43,1.43,0,0,1-1,.88,3.2,3.2,0,0,1-2-.2A2.88,2.88,0,0,1,81,59.32a1.47,1.47,0,0,1-.07-1.26,1.16,1.16,0,0,1,.48-.67,1.82,1.82,0,0,1,1.13,0l.06-.35c-.44-.06-.85-.15-1.26-.24a3.17,3.17,0,0,0-.36.46,3.94,3.94,0,0,0-.37.74,2.44,2.44,0,0,0,0,1.91,2.91,2.91,0,0,0,1.74,1.35,3.31,3.31,0,0,0,2.3.14A2.21,2.21,0,0,0,85.84,60a1.88,1.88,0,0,0,0-1.36,2.45,2.45,0,0,0-.74-1Z" fill="#0075bf"/><path d="M85.72,53.32l1-.11c.39,0,.5,0,.42.41h.27l.31-1.6L87.45,52c0,.26-.14.33-.6.39l-5,.7-.08.44,4.49,2.4c.32.17.37.28.32.53l.27,0,.24-1.2h-.27c-.08.41-.16.41-.61.19l-.81-.4Zm-.36,0-.29,1.53-2.29-1.18h0Z" fill="#0075bf" fill-rule="evenodd"/><path d="M5,43.32a.68.68,0,1,1,.69.67h0A.67.67,0,0,1,5,43.33H5" fill="#0075bf"/><path d="M5.66,44.08a.8.8,0,0,1,0-1.59.8.8,0,0,1,0,1.59Zm0-1.36a.57.57,0,1,0,.56.6.56.56,0,0,0-.52-.6Z" fill="#005aaa"/><path d="M85.05,43a.68.68,0,1,1,.68.68.67.67,0,0,1-.68-.68h0" fill="#0075bf"/><path d="M85.73,43.79a.8.8,0,1,1,.79-.81h0a.79.79,0,0,1-.78.8Zm0-1.36a.57.57,0,0,0-.49.64.55.55,0,0,0,.49.49.57.57,0,0,0,.15-1.13Z" fill="#005aaa"/><path d="M36.66,43.65H35.53v-.22c0-.77,0-1.94,1.63-2h2.42c.28,0,.29,0,.4-.21.26-.47.62-.92,1.86-.92H44.5v1.13H41.83c-.68,0-.76.13-.88.35a1.38,1.38,0,0,1-1.38.78H37.18c-.53,0-.53,0-.53.84Zm19,0H54.49v-.24c0-.83,0-.83-.52-.84H51.58a1.37,1.37,0,0,1-1.38-.78c-.13-.22-.2-.35-.88-.35H46.66V40.32h2.66c1.23,0,1.6.45,1.86.92.11.2.12.21.4.21H54c1.64,0,1.63,1.21,1.63,2Z"/><rect x="46.87" y="38.35" width="1.14" height="1.99" fill="#f7b16e"/><path d="M48.12,40.46H46.75V38.24h1.37ZM47,40.23h.91V38.47H47Z" fill="#f7b16e"/><rect x="42.8" y="38.34" width="1.14" height="1.99" fill="#f7b16e"/><path d="M44.05,40.45H42.69V38.23h1.36Zm-1.14-.23h.91V38.45h-.91Z" fill="#f7b16e"/><path d="M44.15,41.19H43.7V38.76h.45Zm4,0H47.7V38.76h.45Zm-1,0H46.7V38.75h.45Zm-4-.14h-.46V38.76h.46Z"/><polygon points="42.74 40.97 44.18 41.08 44.97 41.53 45.17 43.2 44.38 43.88 43.45 43.74 43.05 43.45 42.48 43.57 41.83 42.72 42.26 41.7 42.74 40.97"/><path d="M44.41,44l-1-.17-.36-.25-.58.11-.74-.95.45-1.08.53-.81,1.56.13.84.48.21,1.79Zm-.92-.37.85.13.71-.61-.18-1.55-.72-.41-1.35-.11-.45.68L42,42.7l.57.74.54-.11Z"/><path d="M46.32,43.65l1,.23.32-.68.9.17.71-.79-.45-1-1-.65-.65-.17-1,.06a3,3,0,0,0-.23.56v1.5Z"/><path d="M47.47,44l-1.15-.26L46,42.83v-1.5a2.28,2.28,0,0,1,.24-.61v-.06l1.1-.06.7.19,1,.67h0l.48,1.11-.8.89-.89-.14Zm-1-.46.9.2.31-.68.93.18.62-.69-.41-1-1-.62-.62-.17-.93.06a4.32,4.32,0,0,0-.19.45v1.48Z"/><path d="M42.56,41.91c.27-.46.66-.73.86-.62s.16.59-.11,1-.65.74-.86.62-.15-.59.11-1" fill="#f7b16e"/><path d="M48.46,41.85c-.26-.47-.63-.75-.84-.63s-.15.6.11,1.06.64.75.84.63.15-.59-.11-1.06" fill="#f7b16e"/><path d="M43.92,42.6c.12-.46.36-.78.54-.72s.21.48.09.94-.37.77-.54.71-.22-.48-.09-.93" fill="#f7b16e"/><path d="M47.18,42.61c-.12-.47-.36-.8-.53-.73s-.21.48-.09.95.36.8.53.73.21-.49.09-1" fill="#f7b16e"/><rect x="45" y="51.36" width="1.39" height="3.09" transform="translate(-12.62 14.35) rotate(-15.71)"/><rect x="46.07" y="51.4" width="6.8" height="0.7" transform="translate(-13.07 16.9) rotate(-17.16)"/></g></g></svg>