<svg id="svg" version="1.1" width="400" height="96.59863945578232" viewBox="0 0 400 96.59863945578232"
     xmlns="http://www.w3.org/2000/svg" xmlns:xlink="http://www.w3.org/1999/xlink">
  <g id="svgg">
    <path id="path0" d="" stroke="none" fill="#000000" fill-rule="evenodd"></path>
    <path id="path1"
          d="M57.564 30.250 C 57.564 31.350,57.591 31.778,57.624 31.202 C 57.656 30.625,57.656 29.725,57.623 29.202 C 57.590 28.678,57.563 29.150,57.564 30.250 "
          stroke="none" fill="#001462" fill-rule="evenodd"></path>
    <path id="path2" d="" stroke="none" fill="#00006d" fill-rule="evenodd"></path>
    <path id="path3"
          d="M102.744 30.833 C 102.744 35.829,102.766 37.873,102.792 35.375 C 102.817 32.877,102.817 28.790,102.792 26.292 C 102.766 23.794,102.744 25.837,102.744 30.833 M122.500 30.950 C 122.454 36.010,122.474 40.093,122.543 40.024 C 122.613 39.954,122.650 35.814,122.626 30.824 L 122.583 21.750 122.500 30.950 M279.548 30.750 C 279.549 31.208,279.581 31.376,279.620 31.123 C 279.658 30.869,279.657 30.494,279.617 30.289 C 279.578 30.084,279.546 30.292,279.548 30.750 M281.047 32.789 C 281.485 32.824,282.160 32.823,282.547 32.788 C 282.934 32.754,282.575 32.725,281.750 32.726 C 280.925 32.726,280.609 32.755,281.047 32.789 M289.796 32.789 C 290.188 32.824,290.788 32.824,291.129 32.788 C 291.471 32.752,291.150 32.723,290.417 32.724 C 289.683 32.724,289.404 32.754,289.796 32.789 M369.292 32.789 C 369.681 32.824,370.319 32.824,370.708 32.789 C 371.098 32.754,370.779 32.725,370.000 32.725 C 369.221 32.725,368.902 32.754,369.292 32.789 M378.125 32.789 C 378.515 32.824,379.152 32.824,379.542 32.789 C 379.931 32.754,379.613 32.725,378.833 32.725 C 378.054 32.725,377.735 32.754,378.125 32.789 M57.539 34.000 C 57.539 34.321,57.573 34.452,57.615 34.292 C 57.657 34.131,57.657 33.869,57.615 33.708 C 57.573 33.548,57.539 33.679,57.539 34.000 M346.223 37.667 C 346.223 38.354,346.252 38.635,346.288 38.292 C 346.324 37.948,346.324 37.385,346.288 37.042 C 346.252 36.698,346.223 36.979,346.223 37.667 M92.052 38.250 C 92.053 38.800,92.084 39.005,92.121 38.705 C 92.158 38.406,92.157 37.956,92.119 37.705 C 92.081 37.455,92.051 37.700,92.052 38.250 M196.578 39.417 C 196.535 39.554,196.463 39.783,196.419 39.925 C 196.374 40.068,196.402 40.144,196.482 40.094 C 196.562 40.045,196.663 39.816,196.707 39.586 C 196.794 39.130,196.704 39.013,196.578 39.417 M92.045 40.000 C 92.045 40.412,92.078 40.581,92.118 40.375 C 92.157 40.169,92.157 39.831,92.118 39.625 C 92.078 39.419,92.045 39.587,92.045 40.000 M124.236 44.083 C 124.236 45.825,124.261 46.515,124.291 45.616 C 124.321 44.718,124.321 43.293,124.291 42.450 C 124.261 41.607,124.236 42.342,124.236 44.083 M72.042 59.115 C 72.202 59.157,72.465 59.157,72.625 59.115 C 72.785 59.073,72.654 59.039,72.333 59.039 C 72.012 59.039,71.881 59.073,72.042 59.115 M148.958 62.458 C 151.273 62.484,155.060 62.484,157.375 62.458 C 159.690 62.432,157.796 62.411,153.167 62.411 C 148.537 62.411,146.644 62.432,148.958 62.458 M297.574 62.547 C 297.529 62.665,297.514 64.109,297.542 65.756 L 297.592 68.750 297.629 65.629 L 297.667 62.508 300.708 62.458 L 303.750 62.409 300.703 62.371 C 298.349 62.342,297.638 62.382,297.574 62.547 M334.458 62.458 C 335.306 62.488,336.694 62.488,337.542 62.458 C 338.390 62.427,337.696 62.403,336.000 62.403 C 334.304 62.403,333.610 62.427,334.458 62.458 M345.458 62.458 C 346.306 62.488,347.694 62.488,348.542 62.458 C 349.390 62.427,348.696 62.403,347.000 62.403 C 345.304 62.403,344.610 62.427,345.458 62.458 M15.062 64.833 C 15.062 65.796,15.089 66.190,15.123 65.708 C 15.157 65.227,15.157 64.440,15.123 63.958 C 15.089 63.477,15.062 63.871,15.062 64.833 M156.578 78.250 C 156.578 83.567,156.599 85.766,156.625 83.137 C 156.651 80.508,156.651 76.158,156.625 73.470 C 156.599 70.782,156.578 72.933,156.578 78.250 M289.872 69.500 C 289.872 69.821,289.906 69.952,289.948 69.792 C 289.990 69.631,289.990 69.369,289.948 69.208 C 289.906 69.048,289.872 69.179,289.872 69.500 M219.724 74.250 C 219.724 74.983,219.754 75.263,219.789 74.871 C 219.824 74.479,219.824 73.879,219.788 73.537 C 219.752 73.196,219.723 73.517,219.724 74.250 M234.125 73.284 C 234.331 73.324,234.669 73.324,234.875 73.284 C 235.081 73.245,234.912 73.212,234.500 73.212 C 234.088 73.212,233.919 73.245,234.125 73.284 M297.576 80.667 C 297.576 84.654,297.598 86.285,297.625 84.292 C 297.651 82.298,297.651 79.035,297.625 77.042 C 297.598 75.048,297.576 76.679,297.576 80.667 M9.000 75.000 C 9.196 75.275,9.394 75.500,9.439 75.500 C 9.485 75.500,9.362 75.275,9.167 75.000 C 8.971 74.725,8.773 74.500,8.727 74.500 C 8.681 74.500,8.804 74.725,9.000 75.000 M352.980 75.297 C 352.925 75.628,352.950 75.784,353.042 75.691 C 353.126 75.607,353.167 75.361,353.133 75.144 C 353.080 74.811,353.057 74.834,352.980 75.297 M387.909 81.667 C 387.909 85.104,387.931 86.510,387.958 84.792 C 387.985 83.073,387.985 80.260,387.958 78.542 C 387.931 76.823,387.909 78.229,387.909 81.667 M122.561 78.417 C 122.561 79.333,122.589 79.687,122.623 79.203 C 122.657 78.718,122.656 77.968,122.622 77.536 C 122.588 77.104,122.560 77.500,122.561 78.417 M181.053 78.333 C 181.053 78.929,181.084 79.173,181.121 78.875 C 181.158 78.577,181.158 78.090,181.121 77.792 C 181.084 77.494,181.053 77.737,181.053 78.333 M307.872 81.667 C 307.872 81.987,307.906 82.119,307.948 81.958 C 307.990 81.798,307.990 81.535,307.948 81.375 C 307.906 81.215,307.872 81.346,307.872 81.667 M223.294 82.285 C 223.501 82.324,223.801 82.323,223.960 82.281 C 224.120 82.239,223.950 82.207,223.583 82.209 C 223.217 82.211,223.086 82.245,223.294 82.285 M227.000 88.667 L 225.583 88.771 226.948 88.802 C 227.714 88.820,228.359 88.760,228.417 88.667 C 228.473 88.575,228.496 88.514,228.468 88.531 C 228.440 88.548,227.779 88.609,227.000 88.667 M184.129 88.789 C 184.521 88.824,185.121 88.824,185.463 88.788 C 185.804 88.752,185.483 88.723,184.750 88.724 C 184.017 88.724,183.737 88.754,184.129 88.789 M248.875 88.788 C 249.219 88.824,249.781 88.824,250.125 88.788 C 250.469 88.752,250.188 88.723,249.500 88.723 C 248.813 88.723,248.531 88.752,248.875 88.788 M316.542 88.788 C 316.885 88.824,317.448 88.824,317.792 88.788 C 318.135 88.752,317.854 88.723,317.167 88.723 C 316.479 88.723,316.198 88.752,316.542 88.788 M41.542 93.948 C 41.702 93.990,41.965 93.990,42.125 93.948 C 42.285 93.906,42.154 93.872,41.833 93.872 C 41.512 93.872,41.381 93.906,41.542 93.948 "
          stroke="none" fill="#002c72" fill-rule="evenodd"></path>
    <path id="path4"
          d="M40.917 0.174 C 40.367 0.252,39.279 0.397,38.500 0.496 C 37.721 0.595,36.866 0.749,36.600 0.838 C 36.334 0.927,35.916 1.000,35.670 1.000 C 35.424 1.000,35.166 1.056,35.097 1.125 C 35.028 1.194,34.922 1.257,34.861 1.265 C 33.577 1.439,33.000 1.570,33.000 1.688 C 33.000 1.768,32.825 1.833,32.610 1.833 C 32.140 1.833,29.593 2.689,28.370 3.258 C 27.887 3.483,27.418 3.667,27.329 3.667 C 27.240 3.667,27.167 3.742,27.167 3.833 C 27.167 3.925,27.021 4.000,26.843 4.000 C 26.665 4.000,26.475 4.073,26.419 4.162 C 26.364 4.251,26.073 4.441,25.772 4.584 C 25.046 4.928,24.054 5.770,24.199 5.919 C 24.262 5.983,24.750 5.949,25.282 5.841 C 27.864 5.320,34.568 5.189,35.451 5.642 C 35.616 5.726,36.462 5.927,37.333 6.089 C 38.204 6.251,39.029 6.445,39.167 6.519 C 39.304 6.593,39.885 6.786,40.458 6.947 C 41.031 7.109,41.500 7.299,41.500 7.370 C 41.500 7.442,41.620 7.500,41.766 7.500 C 42.164 7.500,43.244 7.998,46.083 9.491 C 46.817 9.877,47.535 10.299,47.680 10.430 C 47.825 10.560,48.031 10.667,48.138 10.667 C 48.245 10.667,48.333 10.725,48.333 10.797 C 48.333 10.869,48.554 11.058,48.823 11.217 C 51.657 12.892,55.207 17.633,56.333 21.250 C 56.447 21.617,56.602 22.039,56.677 22.189 C 56.751 22.339,56.864 22.921,56.928 23.481 C 56.991 24.041,57.102 24.500,57.174 24.500 C 57.386 24.500,57.522 26.492,57.593 30.625 C 57.631 32.857,57.595 34.500,57.509 34.500 C 57.426 34.500,57.321 35.081,57.275 35.792 C 57.229 36.502,57.115 37.646,57.022 38.333 C 56.803 39.960,56.800 44.705,57.018 45.667 C 57.111 46.079,57.229 46.623,57.279 46.875 C 57.330 47.127,57.422 47.333,57.483 47.333 C 57.545 47.333,57.606 47.476,57.620 47.650 C 57.784 49.831,61.794 54.632,65.002 56.490 C 65.968 57.049,66.802 57.453,67.583 57.740 C 68.042 57.909,68.492 58.105,68.583 58.175 C 68.675 58.246,69.050 58.353,69.417 58.414 C 69.783 58.474,70.233 58.586,70.417 58.662 C 71.493 59.106,76.397 59.336,77.583 58.998 C 77.858 58.920,78.421 58.768,78.833 58.660 C 80.729 58.164,84.285 56.474,84.472 55.980 C 84.503 55.899,84.588 55.833,84.662 55.833 C 85.089 55.833,88.500 52.319,88.500 51.879 C 88.500 51.762,88.571 51.667,88.659 51.667 C 88.746 51.667,88.942 51.404,89.095 51.083 C 89.247 50.762,89.432 50.500,89.506 50.500 C 89.580 50.500,89.690 50.275,89.750 50.000 C 89.810 49.725,89.929 49.500,90.013 49.500 C 90.098 49.500,90.167 49.386,90.167 49.248 C 90.167 49.109,90.238 48.865,90.325 48.706 C 90.845 47.757,91.500 45.774,91.500 45.147 C 91.500 44.894,91.567 44.645,91.649 44.595 C 92.530 44.050,91.908 34.294,90.820 31.583 C 90.746 31.400,90.635 30.990,90.572 30.672 C 90.464 30.127,90.408 29.980,90.000 29.169 C 89.908 28.987,89.833 28.758,89.833 28.660 C 89.833 28.325,88.185 24.880,87.325 23.417 C 87.055 22.958,86.782 22.471,86.717 22.333 C 86.653 22.196,86.538 22.008,86.463 21.917 C 86.070 21.441,85.000 19.799,85.000 19.673 C 85.000 19.593,84.941 19.503,84.869 19.472 C 84.798 19.442,84.370 18.929,83.919 18.333 C 83.468 17.737,83.058 17.212,83.008 17.167 C 82.958 17.121,82.617 16.708,82.250 16.250 C 81.404 15.192,78.432 12.222,76.913 10.917 C 76.274 10.367,75.712 9.873,75.667 9.819 C 75.439 9.552,72.994 7.833,72.842 7.833 C 72.746 7.833,72.667 7.775,72.667 7.703 C 72.667 7.631,72.423 7.430,72.125 7.257 C 71.827 7.084,71.545 6.899,71.499 6.846 C 71.295 6.614,67.429 4.641,66.250 4.168 C 66.067 4.094,65.654 3.921,65.333 3.784 C 65.012 3.646,64.112 3.327,63.333 3.075 C 62.554 2.823,61.767 2.563,61.583 2.498 C 60.386 2.071,59.533 1.832,59.208 1.833 C 59.002 1.833,58.833 1.766,58.833 1.683 C 58.833 1.600,58.383 1.480,57.833 1.417 C 57.283 1.353,56.791 1.233,56.740 1.150 C 56.689 1.068,56.393 1.000,56.083 1.000 C 55.773 1.000,55.477 0.931,55.425 0.847 C 55.374 0.764,54.750 0.642,54.041 0.577 C 53.331 0.513,52.646 0.376,52.518 0.274 C 52.234 0.045,42.421 -0.039,40.917 0.174 M25.083 7.933 C 23.542 8.294,23.209 8.380,22.917 8.489 C 22.733 8.558,22.171 8.742,21.667 8.899 C 20.675 9.206,19.467 9.687,19.333 9.829 C 19.287 9.877,18.950 10.066,18.583 10.248 C 18.217 10.431,17.879 10.619,17.833 10.667 C 17.787 10.714,17.469 10.901,17.125 11.081 C 16.781 11.262,16.500 11.467,16.500 11.538 C 16.500 11.609,16.421 11.667,16.324 11.667 C 15.778 11.667,11.347 15.761,9.496 17.976 C 9.086 18.467,8.581 19.067,8.375 19.309 C 8.169 19.552,8.000 19.801,8.000 19.863 C 8.000 19.925,7.902 20.075,7.782 20.196 C 7.569 20.411,6.412 22.163,5.712 23.333 C 5.091 24.369,4.333 25.902,4.333 26.120 C 4.333 26.238,4.277 26.333,4.207 26.333 C 4.070 26.333,3.753 27.029,2.919 29.167 C 2.453 30.362,2.396 30.528,2.090 31.583 C 1.931 32.133,1.739 32.704,1.664 32.851 C 1.589 32.997,1.479 33.485,1.419 33.934 C 1.359 34.383,1.251 34.900,1.178 35.083 C 0.924 35.718,0.646 37.084,0.551 38.165 C 0.498 38.762,0.371 39.355,0.269 39.484 C 0.035 39.778,0.006 53.918,0.238 54.417 C 0.323 54.600,0.488 55.275,0.604 55.917 C 0.966 57.926,1.038 58.245,1.169 58.417 C 1.239 58.508,1.349 58.977,1.414 59.458 C 1.478 59.940,1.599 60.333,1.682 60.333 C 1.765 60.333,1.833 60.467,1.833 60.631 C 1.833 60.967,2.386 62.608,2.556 62.778 C 2.617 62.839,2.667 63.034,2.667 63.212 C 2.667 63.390,2.897 64.034,3.178 64.643 C 3.460 65.252,3.751 65.900,3.826 66.083 C 4.207 67.013,5.431 69.333,5.541 69.333 C 5.610 69.333,5.667 69.437,5.667 69.564 C 5.667 69.691,5.967 70.245,6.333 70.794 C 6.700 71.343,7.000 71.876,7.000 71.979 C 7.000 72.082,7.075 72.167,7.167 72.167 C 7.258 72.167,7.333 72.238,7.333 72.326 C 7.333 72.498,7.654 72.983,8.882 74.667 C 9.939 76.117,10.375 76.684,10.625 76.934 C 10.740 77.049,10.833 77.206,10.833 77.284 C 10.833 77.582,15.511 82.167,15.815 82.167 C 15.917 82.167,16.000 82.233,16.000 82.315 C 16.000 82.648,21.021 86.333,21.476 86.333 C 21.932 86.333,21.336 84.895,20.648 84.333 C 20.592 84.287,20.306 83.800,20.012 83.250 C 19.719 82.700,19.299 81.950,19.080 81.583 C 18.861 81.217,18.678 80.785,18.674 80.625 C 18.670 80.465,18.610 80.333,18.541 80.333 C 18.395 80.333,18.069 79.624,17.908 78.958 C 17.847 78.706,17.730 78.500,17.649 78.500 C 17.567 78.500,17.500 78.396,17.500 78.269 C 17.500 78.142,17.388 77.823,17.251 77.561 C 17.114 77.298,17.002 76.951,17.001 76.789 C 17.000 76.628,16.936 76.365,16.857 76.206 C 16.609 75.704,16.167 74.219,16.167 73.886 C 16.167 73.710,16.077 73.477,15.967 73.367 C 15.857 73.257,15.807 73.167,15.857 73.167 C 15.907 73.167,15.843 72.660,15.716 72.042 C 15.114 69.125,14.907 64.225,15.284 61.833 C 15.613 59.752,15.862 58.592,16.019 58.425 C 16.100 58.338,16.167 58.099,16.167 57.893 C 16.167 57.688,16.233 57.479,16.314 57.428 C 16.396 57.378,16.513 57.064,16.576 56.731 C 16.638 56.398,16.754 56.004,16.832 55.854 C 16.910 55.705,17.222 55.058,17.524 54.417 C 18.615 52.100,20.360 49.880,22.218 48.445 C 22.475 48.246,22.868 47.931,23.092 47.745 C 23.316 47.559,23.987 47.149,24.583 46.833 C 25.179 46.518,25.667 46.202,25.667 46.130 C 25.667 46.059,25.746 46.000,25.844 46.000 C 25.942 46.000,26.410 45.823,26.886 45.606 C 27.361 45.389,28.125 45.048,28.583 44.850 C 29.042 44.651,29.547 44.416,29.706 44.327 C 29.865 44.239,30.109 44.167,30.248 44.167 C 30.386 44.167,30.500 44.092,30.500 44.000 C 30.500 43.908,30.619 43.833,30.765 43.833 C 30.910 43.833,31.492 43.622,32.056 43.363 C 32.621 43.105,33.552 42.679,34.125 42.417 C 34.698 42.156,35.167 41.880,35.167 41.804 C 35.167 41.728,35.311 41.667,35.488 41.667 C 35.665 41.667,35.922 41.554,36.060 41.417 C 36.197 41.279,36.421 41.167,36.558 41.167 C 36.694 41.167,36.831 41.104,36.861 41.027 C 36.892 40.951,37.485 40.499,38.180 40.023 C 40.893 38.164,43.284 35.430,44.395 32.917 C 44.557 32.550,44.755 32.100,44.836 31.917 C 45.139 31.231,45.500 29.975,45.500 29.611 C 45.500 29.403,45.568 29.162,45.651 29.075 C 45.944 28.768,46.232 24.060,45.968 23.897 C 45.894 23.851,45.833 23.406,45.833 22.907 C 45.833 22.408,45.758 22.000,45.667 22.000 C 45.575 22.000,45.500 21.778,45.500 21.506 C 45.500 21.048,45.179 19.870,44.839 19.083 C 42.928 14.651,40.391 11.819,36.667 9.962 C 36.071 9.665,35.546 9.380,35.500 9.328 C 35.454 9.276,34.742 9.022,33.917 8.764 C 33.092 8.507,32.229 8.216,32.000 8.118 C 31.585 7.940,25.720 7.783,25.083 7.933 M141.667 21.478 C 141.667 21.557,141.136 21.660,140.488 21.706 C 139.840 21.753,139.225 21.875,139.121 21.979 C 139.018 22.082,138.761 22.167,138.550 22.167 C 138.339 22.167,138.167 22.242,138.167 22.333 C 138.167 22.425,138.084 22.500,137.984 22.500 C 137.247 22.500,134.667 24.625,134.667 25.231 C 134.667 25.379,134.592 25.500,134.500 25.500 C 134.408 25.500,134.333 25.606,134.333 25.736 C 134.333 25.866,134.240 26.003,134.125 26.042 C 133.970 26.093,133.917 26.804,133.917 28.833 C 133.917 30.863,133.970 31.573,134.125 31.625 C 134.240 31.663,134.333 31.801,134.333 31.931 C 134.333 32.060,134.408 32.167,134.500 32.167 C 134.592 32.167,134.667 32.272,134.667 32.401 C 134.667 32.671,136.551 34.667,136.806 34.667 C 136.900 34.667,137.075 34.763,137.196 34.881 C 137.456 35.135,138.554 35.667,138.817 35.667 C 138.918 35.667,139.000 35.742,139.000 35.833 C 139.000 35.925,139.112 36.000,139.250 36.000 C 139.387 36.000,139.500 36.065,139.500 36.145 C 139.500 36.225,139.800 36.339,140.167 36.397 C 140.533 36.456,140.833 36.578,140.833 36.669 C 140.833 36.759,141.016 36.833,141.240 36.833 C 141.464 36.833,141.691 36.904,141.744 36.990 C 141.797 37.077,142.177 37.198,142.587 37.259 C 142.998 37.321,143.333 37.430,143.333 37.501 C 143.333 37.572,143.530 37.680,143.770 37.740 C 144.249 37.860,144.667 38.209,144.667 38.488 C 144.667 38.586,144.742 38.667,144.833 38.667 C 144.925 38.667,145.000 38.817,145.000 39.000 C 145.000 39.183,144.925 39.333,144.833 39.333 C 144.742 39.333,144.667 39.521,144.667 39.750 C 144.667 39.979,144.600 40.167,144.518 40.167 C 144.436 40.167,144.324 40.349,144.268 40.572 C 144.212 40.795,143.997 41.031,143.791 41.096 C 143.585 41.161,143.280 41.371,143.113 41.563 C 142.648 42.097,140.336 42.080,139.868 41.539 C 139.690 41.334,139.462 41.167,139.362 41.167 C 139.119 41.167,138.333 40.309,138.333 40.043 C 138.333 39.928,138.259 39.833,138.169 39.833 C 138.078 39.833,137.956 39.533,137.897 39.167 C 137.797 38.538,136.500 38.056,136.500 38.648 C 136.500 38.729,136.164 38.846,135.754 38.907 C 135.344 38.969,134.964 39.090,134.911 39.176 C 134.857 39.263,134.631 39.333,134.407 39.333 C 134.183 39.333,134.000 39.403,134.000 39.489 C 134.000 39.575,133.794 39.668,133.542 39.697 C 133.039 39.755,132.918 40.588,133.295 41.387 C 133.733 42.316,134.000 42.983,134.000 43.150 C 134.000 43.251,134.075 43.333,134.167 43.333 C 134.258 43.333,134.333 43.446,134.333 43.583 C 134.333 43.721,134.408 43.833,134.500 43.833 C 134.592 43.833,134.667 43.956,134.667 44.107 C 134.667 44.440,135.988 45.754,136.479 45.910 C 136.674 45.972,136.833 46.092,136.833 46.178 C 136.833 46.263,136.946 46.333,137.083 46.333 C 137.221 46.333,137.333 46.403,137.333 46.488 C 137.333 46.573,137.747 46.694,138.252 46.757 C 138.758 46.821,139.212 46.939,139.262 47.019 C 139.381 47.212,144.453 47.212,144.571 47.019 C 144.622 46.938,145.001 46.821,145.415 46.759 C 145.828 46.697,146.167 46.576,146.167 46.490 C 146.167 46.404,146.317 46.333,146.500 46.333 C 146.683 46.333,146.833 46.264,146.833 46.180 C 146.833 46.096,147.044 45.980,147.301 45.924 C 147.558 45.867,147.875 45.674,148.004 45.494 C 148.134 45.314,148.318 45.167,148.414 45.167 C 148.673 45.167,150.631 43.209,150.751 42.829 C 150.809 42.648,150.919 42.500,150.996 42.500 C 151.072 42.500,151.187 42.125,151.250 41.667 C 151.313 41.208,151.433 40.833,151.516 40.833 C 151.599 40.833,151.667 40.233,151.667 39.500 C 151.667 38.767,151.602 38.167,151.522 38.167 C 151.442 38.167,151.335 37.850,151.283 37.462 C 151.231 37.074,151.108 36.731,151.011 36.698 C 150.913 36.666,150.833 36.491,150.833 36.309 C 150.833 35.933,149.234 34.167,148.892 34.167 C 148.768 34.167,148.667 34.097,148.667 34.011 C 148.667 33.926,148.498 33.802,148.292 33.737 C 148.085 33.672,147.823 33.486,147.708 33.323 C 147.593 33.160,147.275 32.977,147.000 32.917 C 146.725 32.856,146.500 32.755,146.500 32.693 C 146.500 32.550,145.249 32.000,144.925 32.000 C 144.794 32.000,144.645 31.933,144.595 31.852 C 144.544 31.770,144.297 31.652,144.045 31.589 C 143.793 31.525,143.548 31.423,143.502 31.362 C 143.346 31.157,142.369 30.667,142.117 30.667 C 141.981 30.667,141.825 30.553,141.772 30.414 C 141.719 30.275,141.486 30.090,141.254 30.002 C 141.023 29.914,140.833 29.727,140.833 29.587 C 140.833 29.448,140.758 29.333,140.667 29.333 C 140.575 29.333,140.500 29.108,140.500 28.833 C 140.500 28.558,140.557 28.333,140.627 28.333 C 140.697 28.333,140.828 28.165,140.919 27.958 C 141.009 27.752,141.158 27.577,141.250 27.569 C 141.534 27.544,142.078 27.282,142.189 27.116 C 142.349 26.879,144.549 26.896,144.628 27.135 C 144.665 27.244,144.789 27.333,144.905 27.333 C 145.233 27.333,146.231 28.383,146.420 28.927 C 146.601 29.448,147.182 29.666,147.558 29.354 C 147.672 29.260,148.267 29.131,148.882 29.068 C 149.497 29.006,150.000 28.889,150.000 28.810 C 150.000 28.731,150.262 28.667,150.583 28.667 C 150.904 28.667,151.167 28.592,151.167 28.500 C 151.167 28.408,151.279 28.333,151.417 28.333 C 151.697 28.333,151.781 27.257,151.513 27.091 C 151.428 27.039,151.310 26.772,151.250 26.498 C 151.189 26.224,151.071 26.000,150.987 26.000 C 150.902 26.000,150.833 25.901,150.833 25.779 C 150.833 25.658,150.646 25.382,150.417 25.167 C 150.188 24.951,150.000 24.699,150.000 24.605 C 150.000 24.388,149.155 23.500,148.949 23.500 C 148.864 23.500,148.522 23.272,148.189 22.994 C 147.856 22.716,147.493 22.416,147.382 22.328 C 147.271 22.239,147.043 22.167,146.874 22.167 C 146.705 22.167,146.487 22.087,146.390 21.990 C 146.293 21.893,145.791 21.770,145.274 21.717 C 144.757 21.664,144.333 21.556,144.333 21.477 C 144.333 21.398,143.733 21.333,143.000 21.333 C 142.267 21.333,141.667 21.398,141.667 21.478 M102.864 31.408 C 102.905 38.922,102.964 41.198,103.125 41.358 C 103.240 41.473,103.333 41.672,103.333 41.800 C 103.333 42.103,103.843 43.188,104.119 43.470 C 104.237 43.591,104.333 43.755,104.333 43.833 C 104.333 44.005,106.279 45.888,106.556 45.984 C 106.663 46.022,106.874 46.194,107.027 46.367 C 107.179 46.541,107.572 46.726,107.902 46.780 C 108.231 46.833,108.500 46.942,108.500 47.022 C 108.500 47.101,108.681 47.167,108.903 47.167 C 109.124 47.167,109.337 47.260,109.375 47.375 C 109.469 47.657,115.597 47.672,116.183 47.392 C 116.997 47.003,117.804 46.667,117.922 46.667 C 117.989 46.667,118.166 46.528,118.314 46.359 C 118.462 46.190,118.672 46.022,118.781 45.984 C 119.137 45.862,121.167 43.806,121.167 43.567 C 121.167 43.438,121.224 43.333,121.294 43.333 C 121.441 43.333,122.000 42.104,122.000 41.782 C 122.000 41.664,122.094 41.473,122.208 41.358 C 122.369 41.198,122.428 38.923,122.468 31.408 L 122.520 21.667 119.014 21.667 L 115.508 21.667 115.462 30.861 C 115.427 38.036,115.371 40.071,115.208 40.125 C 115.094 40.163,115.000 40.269,115.000 40.359 C 115.000 40.582,114.539 41.028,114.039 41.287 C 113.555 41.538,111.667 41.575,111.667 41.333 C 111.667 41.242,111.557 41.167,111.423 41.167 C 111.140 41.167,110.333 40.345,110.333 40.057 C 110.333 39.949,110.240 39.830,110.125 39.792 C 109.963 39.738,109.906 37.734,109.868 30.695 L 109.820 21.667 106.316 21.667 L 102.812 21.667 102.864 31.408 M175.167 34.405 L 175.167 47.167 181.250 47.167 C 184.596 47.167,187.333 47.102,187.333 47.023 C 187.333 46.944,187.826 46.829,188.428 46.767 C 189.030 46.705,189.649 46.589,189.803 46.508 C 190.382 46.205,191.307 45.833,191.484 45.833 C 191.584 45.833,191.667 45.758,191.667 45.667 C 191.667 45.575,191.779 45.500,191.917 45.500 C 192.054 45.500,192.167 45.430,192.167 45.345 C 192.167 45.259,192.332 45.137,192.534 45.073 C 192.972 44.933,194.798 43.224,195.014 42.750 C 195.261 42.208,195.569 41.759,195.792 41.617 C 195.906 41.543,196.000 41.346,196.000 41.177 C 196.000 41.009,196.112 40.657,196.249 40.394 C 196.386 40.131,196.498 39.790,196.499 39.635 C 196.500 39.480,196.575 39.307,196.667 39.250 C 196.758 39.193,196.833 38.933,196.833 38.671 C 196.833 38.409,196.923 38.165,197.033 38.128 C 197.324 38.031,197.333 31.266,197.042 30.975 C 196.927 30.860,196.833 30.557,196.833 30.300 C 196.833 30.043,196.768 29.833,196.688 29.833 C 196.608 29.833,196.495 29.533,196.436 29.167 C 196.377 28.800,196.255 28.500,196.165 28.500 C 196.074 28.500,196.000 28.380,196.000 28.234 C 196.000 27.945,195.542 27.057,195.208 26.699 C 195.094 26.577,195.000 26.411,195.000 26.332 C 195.000 26.034,192.297 23.497,191.866 23.391 C 191.619 23.329,191.319 23.142,191.199 22.973 C 191.079 22.805,190.854 22.666,190.699 22.666 C 190.544 22.665,190.202 22.553,189.939 22.416 C 189.677 22.279,189.298 22.167,189.098 22.167 C 188.897 22.167,188.640 22.073,188.525 21.958 C 188.368 21.801,186.720 21.737,181.742 21.696 L 175.167 21.643 175.167 34.405 M283.167 24.746 L 283.167 27.833 281.684 27.833 C 280.521 27.833,280.182 27.780,280.106 27.583 C 279.994 27.291,277.924 27.218,277.750 27.500 C 277.693 27.592,277.462 27.667,277.235 27.667 C 277.008 27.667,276.780 27.779,276.727 27.917 C 276.674 28.054,276.565 28.167,276.483 28.167 C 276.246 28.167,275.475 28.887,275.326 29.250 C 275.221 29.503,275.185 29.412,275.177 28.875 L 275.167 28.167 272.332 28.167 L 269.497 28.167 269.540 37.625 L 269.583 47.083 272.667 47.083 L 275.750 47.083 275.833 40.833 C 275.924 34.070,275.960 33.833,276.917 33.833 C 277.054 33.833,277.167 33.758,277.167 33.667 C 277.167 33.575,277.462 33.500,277.822 33.500 C 279.187 33.500,279.286 33.382,279.420 31.594 C 279.486 30.717,279.606 30.000,279.686 30.000 C 279.767 30.000,279.833 29.700,279.833 29.333 C 279.833 28.967,279.908 28.667,280.000 28.667 C 280.102 28.667,280.167 29.444,280.167 30.667 L 280.167 32.667 281.667 32.667 L 283.167 32.667 283.167 39.921 L 283.167 47.174 286.125 47.129 L 289.083 47.083 289.127 39.875 L 289.170 32.667 290.502 32.667 L 291.833 32.667 291.833 30.250 L 291.833 27.833 290.504 27.833 L 289.174 27.833 289.129 24.792 L 289.083 21.750 286.125 21.704 L 283.167 21.659 283.167 24.746 M371.333 24.750 L 371.333 27.833 370.000 27.833 L 368.667 27.833 368.667 30.250 L 368.667 32.667 370.000 32.667 L 371.333 32.667 371.333 39.917 L 371.333 47.167 374.417 47.167 L 377.500 47.167 377.500 39.917 L 377.500 32.667 378.921 32.667 L 380.342 32.667 380.296 30.292 L 380.250 27.917 378.875 27.868 L 377.500 27.820 377.500 24.743 L 377.500 21.667 374.417 21.667 L 371.333 21.667 371.333 24.750 M207.000 27.484 C 207.000 27.567,206.625 27.687,206.167 27.750 C 205.708 27.813,205.333 27.933,205.333 28.016 C 205.333 28.099,205.221 28.167,205.083 28.167 C 204.946 28.167,204.833 28.234,204.833 28.315 C 204.833 28.397,204.646 28.511,204.417 28.568 C 204.188 28.626,204.000 28.747,204.000 28.837 C 204.000 28.926,203.917 29.000,203.815 29.000 C 203.571 29.000,201.333 31.173,201.333 31.410 C 201.333 31.511,201.186 31.699,201.006 31.829 C 200.826 31.959,200.633 32.275,200.576 32.532 C 200.520 32.790,200.404 33.000,200.320 33.000 C 200.236 33.000,200.167 33.172,200.167 33.383 C 200.167 33.594,200.090 33.844,199.996 33.938 C 199.901 34.032,199.779 34.497,199.722 34.971 C 199.666 35.445,199.556 35.833,199.477 35.833 C 199.290 35.833,199.289 39.120,199.476 39.235 C 199.555 39.284,199.662 39.720,199.715 40.203 C 199.813 41.092,200.145 41.996,200.375 41.999 C 200.444 41.999,200.500 42.082,200.500 42.183 C 200.500 42.867,203.148 46.000,203.727 46.000 C 203.837 46.000,204.033 46.147,204.162 46.327 C 204.292 46.507,204.609 46.701,204.866 46.757 C 205.123 46.814,205.333 46.929,205.333 47.013 C 205.333 47.098,205.506 47.167,205.717 47.167 C 205.928 47.167,206.183 47.250,206.285 47.351 C 206.386 47.453,206.964 47.576,207.568 47.624 C 208.172 47.673,208.667 47.777,208.667 47.856 C 208.667 48.043,210.286 48.044,210.401 47.858 C 210.450 47.780,210.989 47.669,211.600 47.612 C 212.698 47.510,213.667 47.204,213.667 46.959 C 213.667 46.890,213.811 46.833,213.987 46.833 C 214.164 46.833,214.531 46.646,214.803 46.417 C 215.075 46.188,215.376 46.000,215.470 46.000 C 215.565 46.000,215.782 45.823,215.953 45.606 C 216.123 45.389,216.429 45.159,216.631 45.095 C 216.834 45.030,217.000 44.888,217.000 44.779 C 217.000 44.669,217.188 44.378,217.417 44.131 C 217.646 43.883,217.833 43.565,217.833 43.424 C 217.833 43.261,217.681 43.167,217.417 43.167 C 217.188 43.167,217.000 43.110,217.000 43.041 C 217.000 42.862,216.132 42.500,215.429 42.386 C 215.101 42.333,214.833 42.232,214.833 42.160 C 214.833 42.089,214.458 41.980,214.000 41.917 C 213.542 41.854,213.167 41.734,213.167 41.651 C 213.167 41.294,211.932 41.738,211.648 42.197 C 211.459 42.502,207.809 42.512,207.708 42.208 C 207.670 42.094,207.547 42.000,207.435 42.000 C 207.140 42.000,206.250 41.005,205.982 40.375 C 205.856 40.077,205.695 39.833,205.626 39.833 C 205.557 39.833,205.500 39.758,205.500 39.667 C 205.500 39.558,207.979 39.500,212.604 39.500 L 219.709 39.500 219.636 37.082 C 219.589 35.526,219.492 34.592,219.365 34.465 C 219.256 34.356,219.167 34.132,219.167 33.967 C 219.167 33.802,219.092 33.667,219.000 33.667 C 218.908 33.667,218.833 33.547,218.833 33.401 C 218.833 33.107,218.322 32.115,218.125 32.028 C 218.056 31.997,218.000 31.881,218.000 31.770 C 218.000 31.390,216.408 29.500,216.087 29.500 C 215.973 29.500,215.741 29.315,215.571 29.089 C 215.401 28.863,215.053 28.632,214.798 28.576 C 214.542 28.519,214.333 28.404,214.333 28.320 C 214.333 28.236,214.183 28.167,214.000 28.167 C 213.817 28.167,213.667 28.100,213.667 28.019 C 213.667 27.938,213.331 27.821,212.921 27.759 C 212.510 27.698,212.131 27.577,212.077 27.490 C 211.953 27.289,207.000 27.283,207.000 27.484 M231.500 27.479 C 231.500 27.559,231.200 27.672,230.833 27.731 C 230.467 27.789,230.167 27.911,230.167 28.002 C 230.167 28.093,230.017 28.167,229.833 28.167 C 229.650 28.167,229.500 28.244,229.500 28.337 C 229.500 28.431,229.311 28.580,229.079 28.668 C 228.848 28.756,228.615 28.942,228.561 29.081 C 228.388 29.533,228.167 29.347,228.167 28.750 L 228.167 28.167 225.333 28.167 L 222.500 28.167 222.500 40.754 L 222.500 53.341 225.458 53.296 L 228.417 53.250 228.500 49.583 C 228.576 46.261,228.607 45.952,228.832 46.292 C 228.968 46.498,229.169 46.667,229.278 46.667 C 229.387 46.667,229.578 46.760,229.703 46.875 C 230.179 47.312,230.739 47.532,231.609 47.621 C 232.104 47.672,232.550 47.779,232.598 47.857 C 232.714 48.044,235.167 48.044,235.167 47.857 C 235.167 47.778,235.590 47.670,236.107 47.616 C 236.624 47.563,237.127 47.440,237.224 47.343 C 237.321 47.246,237.572 47.167,237.783 47.167 C 237.994 47.167,238.167 47.093,238.167 47.003 C 238.167 46.913,238.354 46.793,238.583 46.735 C 238.813 46.678,239.000 46.564,239.000 46.482 C 239.000 46.400,239.080 46.333,239.178 46.333 C 239.425 46.333,241.500 44.306,241.500 44.065 C 241.500 43.957,241.612 43.826,241.750 43.773 C 241.887 43.720,242.000 43.525,242.000 43.339 C 242.000 43.152,242.074 43.000,242.165 43.000 C 242.255 43.000,242.377 42.700,242.436 42.333 C 242.495 41.967,242.608 41.667,242.688 41.667 C 242.768 41.667,242.833 41.485,242.833 41.264 C 242.833 41.042,242.927 40.830,243.042 40.792 C 243.198 40.739,243.250 39.970,243.250 37.703 C 243.250 35.509,243.193 34.626,243.042 34.475 C 242.927 34.360,242.833 34.132,242.833 33.967 C 242.833 33.802,242.758 33.667,242.667 33.667 C 242.575 33.667,242.500 33.512,242.500 33.323 C 242.500 32.868,241.776 31.298,241.435 31.016 C 241.288 30.893,241.167 30.708,241.167 30.605 C 241.166 30.246,239.733 28.990,238.833 28.560 C 238.696 28.495,238.546 28.394,238.500 28.337 C 238.317 28.109,237.174 27.667,236.766 27.667 C 236.528 27.667,236.333 27.592,236.333 27.500 C 236.333 27.397,235.417 27.333,233.917 27.333 C 232.588 27.333,231.500 27.399,231.500 27.479 M252.426 27.485 C 252.374 27.569,252.013 27.691,251.624 27.756 C 251.235 27.821,250.879 27.925,250.833 27.987 C 250.787 28.050,250.469 28.232,250.125 28.392 C 249.781 28.551,249.500 28.754,249.500 28.841 C 249.500 28.929,249.389 29.000,249.254 29.000 C 248.929 29.000,247.242 30.667,247.093 31.135 C 247.030 31.336,246.914 31.500,246.835 31.500 C 246.757 31.500,246.644 31.725,246.583 32.000 C 246.523 32.275,246.422 32.500,246.359 32.500 C 246.178 32.500,245.667 33.793,245.667 34.251 C 245.667 34.480,245.592 34.667,245.500 34.667 C 245.406 34.667,245.333 35.136,245.333 35.740 C 245.333 36.331,245.258 36.860,245.167 36.917 C 245.075 36.973,245.000 37.236,245.000 37.500 C 245.000 37.764,245.075 38.027,245.167 38.083 C 245.258 38.140,245.333 38.669,245.333 39.260 C 245.333 39.850,245.398 40.333,245.477 40.333 C 245.556 40.333,245.664 40.703,245.717 41.154 C 245.802 41.866,246.054 42.554,246.333 42.833 C 246.477 42.977,246.828 43.569,246.990 43.942 C 247.076 44.139,247.290 44.401,247.466 44.525 C 247.642 44.649,247.839 44.919,247.904 45.125 C 247.969 45.331,248.133 45.500,248.269 45.500 C 248.405 45.500,248.682 45.669,248.884 45.875 C 249.308 46.307,249.790 46.634,250.208 46.774 C 250.369 46.828,250.500 46.938,250.500 47.019 C 250.500 47.100,250.673 47.167,250.883 47.167 C 251.094 47.167,251.346 47.246,251.443 47.343 C 251.540 47.440,252.042 47.563,252.560 47.616 C 253.077 47.670,253.500 47.778,253.500 47.857 C 253.500 47.935,254.100 48.000,254.833 48.000 C 255.567 48.000,256.167 47.935,256.167 47.857 C 256.167 47.778,256.570 47.672,257.063 47.621 C 257.929 47.531,258.489 47.312,258.964 46.875 C 259.088 46.760,259.270 46.667,259.368 46.667 C 259.465 46.667,259.722 46.460,259.939 46.208 L 260.333 45.750 260.333 46.458 L 260.333 47.167 263.417 47.167 L 266.500 47.167 266.500 37.667 L 266.500 28.167 263.417 28.167 L 260.333 28.167 260.333 28.750 C 260.333 29.469,260.277 29.472,259.614 28.782 C 259.075 28.223,258.076 27.667,257.610 27.667 C 257.468 27.667,257.307 27.592,257.250 27.500 C 257.120 27.289,252.555 27.275,252.426 27.485 M302.500 27.479 C 302.500 27.559,302.200 27.672,301.833 27.731 C 301.467 27.789,301.167 27.911,301.167 28.002 C 301.167 28.093,301.076 28.167,300.966 28.167 C 300.856 28.167,300.519 28.406,300.216 28.699 L 299.667 29.232 299.667 28.699 L 299.667 28.167 296.750 28.167 L 293.833 28.167 293.833 37.667 L 293.833 47.167 296.917 47.167 L 300.000 47.167 300.000 41.427 C 300.000 38.269,300.065 35.646,300.145 35.597 C 300.224 35.548,300.338 35.224,300.398 34.879 C 300.536 34.074,300.964 33.571,301.635 33.424 C 301.928 33.359,302.167 33.238,302.167 33.153 C 302.167 32.956,303.450 32.952,303.572 33.148 C 303.622 33.230,303.861 33.346,304.102 33.406 C 304.712 33.560,305.005 33.899,305.115 34.582 C 305.168 34.903,305.275 35.167,305.355 35.167 C 305.435 35.167,305.500 37.867,305.500 41.167 L 305.500 47.167 308.583 47.167 L 311.667 47.167 311.667 41.167 C 311.667 37.623,311.729 35.167,311.820 35.167 C 311.904 35.167,312.019 34.958,312.075 34.703 C 312.202 34.127,313.019 33.333,313.485 33.333 C 313.677 33.333,313.833 33.258,313.833 33.167 C 313.833 33.075,314.171 33.000,314.583 33.000 C 314.996 33.000,315.333 33.067,315.333 33.149 C 315.333 33.230,315.530 33.347,315.770 33.407 C 316.353 33.553,316.650 33.874,316.774 34.494 C 316.830 34.776,316.942 35.047,317.022 35.097 C 317.101 35.146,317.167 37.882,317.167 41.177 L 317.167 47.167 320.265 47.167 L 323.363 47.167 323.306 39.639 C 323.263 33.805,323.203 32.095,323.042 32.042 C 322.927 32.003,322.833 31.791,322.833 31.569 C 322.833 31.348,322.764 31.167,322.680 31.167 C 322.596 31.167,322.480 30.955,322.423 30.697 C 322.320 30.225,320.357 28.167,320.011 28.167 C 319.913 28.167,319.833 28.093,319.833 28.002 C 319.833 27.911,319.533 27.789,319.167 27.731 C 318.800 27.672,318.500 27.559,318.500 27.479 C 318.500 27.273,314.044 27.294,313.917 27.500 C 313.860 27.592,313.698 27.667,313.557 27.667 C 312.998 27.667,312.042 28.291,311.046 29.307 C 310.471 29.894,310.000 30.268,310.000 30.139 C 310.000 29.854,308.320 28.167,308.036 28.167 C 307.925 28.167,307.833 28.098,307.833 28.013 C 307.833 27.929,307.609 27.811,307.335 27.750 C 307.061 27.690,306.794 27.572,306.742 27.487 C 306.621 27.292,302.500 27.283,302.500 27.479 M333.500 27.500 C 333.500 27.592,333.268 27.667,332.984 27.667 C 332.520 27.667,331.550 28.075,331.332 28.362 C 331.285 28.423,331.049 28.523,330.808 28.584 C 330.567 28.644,330.212 28.875,330.019 29.097 C 329.827 29.319,329.591 29.500,329.495 29.500 C 329.302 29.500,328.333 30.444,328.333 30.632 C 328.333 30.699,328.165 30.944,327.958 31.177 C 327.485 31.712,327.184 32.168,327.059 32.542 C 327.005 32.702,326.904 32.833,326.835 32.833 C 326.766 32.833,326.661 33.133,326.603 33.500 C 326.544 33.867,326.422 34.167,326.331 34.167 C 326.241 34.167,326.167 34.387,326.167 34.657 C 326.167 34.926,326.092 35.193,326.000 35.250 C 325.903 35.310,325.833 36.248,325.833 37.500 C 325.833 38.752,325.903 39.690,326.000 39.750 C 326.092 39.807,326.167 40.074,326.167 40.343 C 326.167 40.613,326.242 40.833,326.333 40.833 C 326.425 40.833,326.500 40.988,326.500 41.177 C 326.500 41.671,327.231 43.194,327.647 43.567 C 327.841 43.742,328.000 43.967,328.000 44.067 C 328.001 44.275,329.256 45.500,329.469 45.500 C 329.546 45.500,329.785 45.688,330.000 45.917 C 330.215 46.146,330.491 46.333,330.612 46.333 C 330.734 46.333,330.833 46.400,330.833 46.482 C 330.833 46.564,331.035 46.681,331.282 46.743 C 331.528 46.805,331.934 47.001,332.183 47.179 C 332.488 47.395,333.054 47.537,333.902 47.609 C 334.598 47.667,335.167 47.780,335.167 47.858 C 335.167 47.936,335.579 48.000,336.083 48.000 C 336.587 48.000,337.000 47.935,337.000 47.856 C 337.000 47.777,337.473 47.674,338.051 47.628 C 338.629 47.582,339.247 47.465,339.426 47.369 C 339.604 47.273,340.031 47.072,340.375 46.923 C 340.719 46.773,341.000 46.580,341.000 46.492 C 341.000 46.405,341.142 46.333,341.316 46.333 C 341.489 46.333,341.674 46.221,341.727 46.083 C 341.780 45.946,341.909 45.833,342.014 45.833 C 342.432 45.833,343.995 44.093,343.998 43.625 C 343.999 43.328,343.912 43.167,343.750 43.167 C 343.613 43.167,343.500 43.092,343.500 43.000 C 343.500 42.908,343.313 42.833,343.083 42.833 C 342.854 42.833,342.667 42.768,342.667 42.688 C 342.667 42.608,342.367 42.495,342.000 42.436 C 341.633 42.377,341.333 42.262,341.333 42.180 C 341.333 42.098,340.958 41.980,340.500 41.917 C 340.042 41.854,339.667 41.734,339.667 41.651 C 339.667 41.309,338.769 41.521,338.364 41.958 C 337.629 42.751,333.500 42.497,333.500 41.659 C 333.500 41.571,333.350 41.500,333.167 41.500 C 332.983 41.500,332.833 41.393,332.833 41.262 C 332.833 41.131,332.720 40.910,332.581 40.772 C 332.442 40.633,332.283 40.290,332.227 40.010 L 332.125 39.500 339.055 39.500 L 345.985 39.500 346.097 38.900 C 346.243 38.125,346.022 34.767,345.821 34.694 C 345.736 34.664,345.667 34.472,345.667 34.268 C 345.667 34.064,345.557 33.751,345.422 33.574 C 345.287 33.396,345.175 33.081,345.172 32.875 C 345.169 32.669,345.109 32.500,345.038 32.500 C 344.967 32.500,344.761 32.219,344.580 31.875 C 344.245 31.241,342.291 29.159,341.833 28.950 C 341.542 28.817,340.954 28.454,340.833 28.333 C 340.554 28.054,339.866 27.802,339.154 27.717 C 338.703 27.664,338.333 27.556,338.333 27.477 C 338.333 27.398,337.246 27.333,335.917 27.333 C 334.417 27.333,333.500 27.397,333.500 27.500 M357.167 27.500 C 357.167 27.592,356.977 27.667,356.745 27.667 C 356.513 27.667,356.280 27.779,356.227 27.917 C 356.174 28.054,356.023 28.167,355.891 28.167 C 355.759 28.167,355.477 28.354,355.265 28.583 C 354.779 29.107,354.667 29.107,354.667 28.579 L 354.667 28.159 351.708 28.204 L 348.750 28.250 348.750 37.667 L 348.750 47.083 351.833 47.083 L 354.917 47.083 355.000 40.930 C 355.064 36.216,355.132 34.761,355.292 34.708 C 355.406 34.670,355.500 34.551,355.500 34.443 C 355.500 34.119,356.324 33.333,356.664 33.333 C 356.838 33.333,357.027 33.258,357.083 33.167 C 357.140 33.075,357.477 33.000,357.833 33.000 C 358.189 33.000,358.527 33.075,358.583 33.167 C 358.640 33.258,358.829 33.333,359.003 33.333 C 359.343 33.333,360.167 34.119,360.167 34.443 C 360.167 34.551,360.260 34.670,360.375 34.708 C 360.535 34.761,360.603 36.216,360.667 40.930 L 360.750 47.083 363.708 47.129 L 366.667 47.174 366.667 39.835 C 366.667 35.540,366.601 32.375,366.509 32.206 C 366.422 32.047,366.307 31.635,366.252 31.292 C 366.197 30.948,366.080 30.667,365.992 30.667 C 365.905 30.667,365.833 30.570,365.833 30.453 C 365.833 30.182,364.142 28.500,363.870 28.500 C 363.758 28.500,363.667 28.443,363.667 28.373 C 363.667 28.220,362.432 27.667,362.092 27.667 C 361.961 27.667,361.807 27.592,361.750 27.500 C 361.690 27.402,360.720 27.333,359.407 27.333 C 358.024 27.333,357.167 27.397,357.167 27.500 M186.333 27.978 C 186.333 28.058,186.603 28.167,186.932 28.220 C 187.261 28.274,187.655 28.457,187.807 28.629 C 187.959 28.800,188.215 28.988,188.375 29.048 C 188.535 29.108,188.667 29.255,188.667 29.375 C 188.667 29.495,188.817 29.701,189.000 29.833 C 189.183 29.965,189.333 30.139,189.333 30.220 C 189.333 30.466,189.888 31.576,190.075 31.702 C 190.588 32.050,190.181 38.000,189.644 38.000 C 189.585 38.000,189.486 38.201,189.424 38.447 C 189.235 39.202,187.470 40.667,186.750 40.667 C 186.628 40.667,186.502 40.744,186.470 40.839 C 186.437 40.939,185.458 41.054,184.123 41.115 L 181.833 41.218 181.833 34.526 L 181.833 27.833 184.083 27.833 C 185.321 27.833,186.333 27.899,186.333 27.978 M211.303 32.827 C 211.335 32.922,211.446 33.000,211.549 33.000 C 211.812 33.000,213.167 34.355,213.167 34.618 C 213.167 34.736,213.242 34.833,213.333 34.833 C 213.425 34.833,213.500 34.908,213.500 35.000 C 213.500 35.106,212.111 35.167,209.667 35.167 C 207.135 35.167,205.833 35.108,205.833 34.994 C 205.833 34.613,206.805 33.333,207.095 33.333 C 207.197 33.333,207.414 33.187,207.575 33.009 C 208.021 32.517,211.149 32.364,211.303 32.827 M337.676 32.853 C 337.900 32.980,338.121 33.129,338.167 33.186 C 338.212 33.242,338.415 33.340,338.616 33.403 C 338.818 33.466,339.035 33.682,339.099 33.884 C 339.162 34.085,339.354 34.371,339.524 34.520 C 340.213 35.119,339.954 35.167,335.989 35.167 C 332.183 35.167,332.145 35.163,332.253 34.823 C 332.397 34.369,333.775 33.000,334.088 33.000 C 334.223 33.000,334.333 32.930,334.333 32.844 C 334.333 32.461,336.993 32.468,337.676 32.853 M233.667 33.145 C 233.667 33.225,233.967 33.339,234.333 33.397 C 234.700 33.456,235.000 33.566,235.000 33.642 C 235.000 33.719,235.258 33.920,235.573 34.090 C 235.889 34.260,236.190 34.571,236.243 34.783 C 236.296 34.994,236.412 35.167,236.501 35.167 C 236.590 35.167,236.711 35.467,236.769 35.833 C 236.828 36.200,236.941 36.500,237.021 36.500 C 237.510 36.500,236.987 39.571,236.458 39.806 C 236.390 39.836,236.333 39.964,236.333 40.090 C 236.333 40.361,235.563 41.167,235.304 41.167 C 235.204 41.167,234.976 41.335,234.797 41.542 C 234.412 41.985,231.017 42.130,230.875 41.708 C 230.837 41.594,230.736 41.500,230.651 41.500 C 230.417 41.500,229.000 40.120,229.000 39.893 C 229.000 39.784,228.929 39.669,228.841 39.639 C 228.325 39.458,228.400 35.919,228.932 35.320 C 229.061 35.175,229.167 35.004,229.167 34.940 C 229.167 34.775,230.148 33.833,230.319 33.833 C 230.396 33.833,230.553 33.721,230.667 33.583 C 230.781 33.446,231.052 33.333,231.270 33.333 C 231.488 33.333,231.667 33.258,231.667 33.167 C 231.667 33.074,232.111 33.000,232.667 33.000 C 233.217 33.000,233.667 33.065,233.667 33.145 M256.833 33.145 C 256.833 33.225,257.087 33.331,257.398 33.381 C 257.980 33.476,259.500 34.855,259.500 35.289 C 259.500 35.405,259.572 35.500,259.659 35.500 C 259.747 35.500,259.868 35.763,259.928 36.085 C 259.988 36.407,260.104 36.711,260.186 36.762 C 260.380 36.882,260.377 38.120,260.181 38.241 C 260.097 38.293,259.975 38.653,259.910 39.042 C 259.844 39.430,259.661 39.861,259.502 39.999 C 259.344 40.137,259.162 40.415,259.099 40.616 C 259.035 40.818,258.818 41.035,258.616 41.099 C 258.415 41.162,258.112 41.372,257.944 41.566 C 257.464 42.117,253.967 42.098,253.577 41.542 C 253.433 41.335,253.210 41.167,253.083 41.167 C 252.865 41.167,252.473 40.609,252.235 39.958 C 252.176 39.798,252.062 39.667,251.981 39.667 C 251.900 39.667,251.833 39.523,251.833 39.347 C 251.833 39.172,251.740 38.997,251.626 38.959 C 251.384 38.878,251.365 36.197,251.605 36.022 C 251.685 35.964,251.861 35.692,251.995 35.417 C 252.379 34.632,253.578 33.509,254.154 33.394 C 254.440 33.337,254.714 33.225,254.763 33.145 C 254.880 32.956,256.833 32.956,256.833 33.145 M124.333 44.087 L 124.333 47.174 127.375 47.129 L 130.417 47.083 130.462 44.042 L 130.508 41.000 127.420 41.000 L 124.333 41.000 124.333 44.087 M154.500 44.083 L 154.500 47.167 157.583 47.167 L 160.667 47.167 160.667 44.083 L 160.667 41.000 157.583 41.000 L 154.500 41.000 154.500 44.083 M92.439 49.708 C 92.278 50.098,92.064 50.567,91.963 50.750 C 91.861 50.933,91.468 51.683,91.089 52.417 C 89.065 56.336,82.875 63.500,81.513 63.500 C 81.414 63.500,81.333 63.558,81.333 63.629 C 81.333 63.700,81.071 63.899,80.750 64.072 C 80.429 64.244,80.167 64.449,80.167 64.526 C 80.167 64.603,80.095 64.667,80.008 64.667 C 79.921 64.667,79.517 64.892,79.109 65.167 C 78.702 65.442,78.321 65.667,78.264 65.667 C 78.207 65.667,77.863 65.854,77.500 66.083 C 77.137 66.313,76.726 66.500,76.587 66.500 C 76.447 66.500,76.333 66.569,76.333 66.653 C 76.333 66.738,76.109 66.856,75.835 66.916 C 75.561 66.976,75.294 67.095,75.242 67.179 C 75.190 67.264,75.001 67.333,74.823 67.333 C 74.646 67.333,74.500 67.400,74.500 67.481 C 74.500 67.563,74.228 67.681,73.896 67.743 C 73.564 67.805,73.170 67.923,73.021 68.005 C 71.630 68.767,63.596 68.761,62.583 67.998 C 62.492 67.928,62.154 67.821,61.833 67.760 C 61.291 67.655,60.785 67.476,60.161 67.168 C 60.021 67.099,59.664 66.989,59.370 66.925 C 59.075 66.860,58.833 66.738,58.833 66.653 C 58.833 66.569,58.688 66.500,58.510 66.500 C 58.332 66.500,58.144 66.431,58.091 66.346 C 58.039 66.262,57.772 66.143,57.498 66.083 C 57.224 66.023,57.000 65.920,57.000 65.854 C 57.000 65.789,56.663 65.596,56.250 65.426 C 55.837 65.256,55.500 65.053,55.500 64.975 C 55.500 64.897,55.410 64.833,55.299 64.833 C 55.083 64.833,52.193 63.052,51.917 62.748 C 51.825 62.648,51.337 62.253,50.833 61.872 C 50.329 61.490,49.654 60.945,49.333 60.661 C 48.707 60.105,46.985 58.877,46.381 58.556 C 44.597 57.605,44.150 57.398,43.083 57.027 C 40.939 56.282,36.276 55.995,33.808 56.457 C 32.698 56.665,30.274 57.495,30.194 57.694 C 30.164 57.771,30.044 57.833,29.928 57.833 C 29.708 57.833,28.644 58.320,28.500 58.487 C 28.358 58.651,27.765 59.005,27.458 59.108 C 27.298 59.161,27.167 59.267,27.167 59.342 C 27.167 59.416,27.035 59.520,26.875 59.572 C 26.231 59.780,22.833 63.346,22.833 63.815 C 22.833 63.917,22.777 64.000,22.708 64.001 C 22.541 64.002,22.000 64.966,22.000 65.264 C 22.000 65.394,21.943 65.500,21.873 65.500 C 21.738 65.500,21.167 66.717,21.167 67.003 C 21.167 67.096,21.097 67.301,21.011 67.461 C 20.772 67.906,20.333 69.916,20.333 70.566 C 20.333 70.886,20.265 71.189,20.181 71.241 C 19.986 71.362,20.067 76.119,20.285 77.333 C 20.504 78.559,20.852 79.878,21.009 80.083 C 21.079 80.175,21.189 80.531,21.254 80.875 C 21.318 81.219,21.419 81.500,21.478 81.500 C 21.537 81.500,21.688 81.744,21.814 82.042 C 22.097 82.710,23.031 84.230,23.205 84.306 C 23.276 84.336,23.333 84.433,23.333 84.521 C 23.333 84.724,23.521 84.945,24.750 86.192 C 26.597 88.066,29.486 89.913,32.917 91.410 C 33.192 91.531,33.737 91.784,34.127 91.974 C 34.518 92.164,35.118 92.370,35.461 92.431 C 35.803 92.493,36.158 92.598,36.250 92.665 C 36.342 92.731,36.942 92.914,37.583 93.072 C 38.225 93.229,39.012 93.432,39.333 93.523 C 40.993 93.995,50.419 94.405,50.893 94.025 C 50.998 93.941,51.814 93.819,52.708 93.754 C 53.602 93.689,54.375 93.568,54.426 93.484 C 54.478 93.401,54.721 93.334,54.968 93.335 C 55.460 93.336,57.598 92.866,58.006 92.666 C 58.147 92.598,58.597 92.486,59.006 92.418 C 59.415 92.350,59.825 92.248,59.917 92.190 C 60.187 92.021,61.231 91.672,61.475 91.669 C 61.598 91.668,61.936 91.563,62.225 91.436 C 62.514 91.309,63.012 91.111,63.333 90.995 C 65.479 90.218,70.131 87.960,70.500 87.517 C 70.546 87.462,70.865 87.274,71.208 87.099 C 71.552 86.924,71.833 86.718,71.833 86.640 C 71.833 86.563,71.931 86.500,72.050 86.500 C 72.277 86.500,73.709 85.516,73.806 85.294 C 73.836 85.224,73.949 85.165,74.056 85.164 C 74.162 85.163,74.501 84.940,74.808 84.669 C 75.116 84.398,75.633 83.968,75.959 83.713 C 77.652 82.390,78.430 81.692,80.397 79.736 C 82.538 77.607,85.000 74.629,85.000 74.169 C 85.000 74.076,85.074 74.000,85.163 74.000 C 85.253 74.000,85.374 73.813,85.432 73.583 C 85.489 73.354,85.603 73.167,85.685 73.167 C 85.766 73.167,85.833 73.054,85.833 72.917 C 85.833 72.779,85.903 72.667,85.989 72.667 C 86.074 72.667,86.197 72.498,86.261 72.292 C 86.325 72.085,86.510 71.728,86.672 71.498 C 86.834 71.267,87.374 70.292,87.872 69.331 C 88.369 68.370,88.862 67.433,88.966 67.250 C 89.270 66.714,89.833 65.367,89.833 65.176 C 89.833 65.079,89.908 65.000,90.000 65.000 C 90.092 65.000,90.167 64.896,90.167 64.769 C 90.167 64.642,90.279 64.323,90.416 64.061 C 90.553 63.798,90.665 63.458,90.666 63.306 C 90.666 63.153,90.723 63.003,90.792 62.972 C 90.953 62.901,91.502 61.341,91.501 60.958 C 91.500 60.798,91.575 60.667,91.667 60.667 C 91.758 60.667,91.833 60.542,91.833 60.390 C 91.833 60.099,92.277 58.486,92.513 57.917 C 92.715 57.432,93.020 55.585,93.106 54.333 C 93.146 53.737,93.261 53.088,93.359 52.891 C 93.468 52.675,93.500 52.078,93.442 51.391 C 93.223 48.838,92.971 48.417,92.439 49.708 M130.833 62.000 C 130.833 62.092,130.538 62.167,130.177 62.167 C 129.815 62.167,129.473 62.242,129.417 62.333 C 129.360 62.425,129.201 62.500,129.064 62.500 C 127.586 62.500,125.866 64.443,125.709 66.292 C 125.661 66.865,125.556 67.333,125.477 67.333 C 125.398 67.333,125.333 67.446,125.333 67.583 C 125.333 67.775,125.120 67.833,124.417 67.833 L 123.500 67.833 123.500 70.250 L 123.500 72.667 124.415 72.667 L 125.330 72.667 125.373 80.292 L 125.417 87.917 128.458 87.962 L 131.500 88.008 131.500 80.337 L 131.500 72.667 132.750 72.667 L 134.000 72.667 134.000 70.250 L 134.000 67.833 132.750 67.833 C 132.028 67.833,131.500 67.763,131.500 67.667 C 131.500 67.575,131.557 67.500,131.627 67.500 C 131.697 67.500,131.828 67.331,131.919 67.125 C 132.026 66.881,132.258 66.730,132.583 66.694 C 133.367 66.605,133.462 66.420,133.588 64.742 C 133.653 63.876,133.772 63.167,133.853 63.167 C 133.934 63.167,134.000 62.867,134.000 62.500 L 134.000 61.833 132.417 61.833 C 131.472 61.833,130.833 61.901,130.833 62.000 M144.667 65.583 L 144.667 68.667 147.249 68.667 L 149.831 68.667 149.874 78.292 L 149.917 87.917 153.208 87.962 L 156.500 88.007 156.500 78.341 L 156.500 68.676 158.958 68.629 L 161.417 68.583 161.462 65.542 L 161.508 62.500 153.087 62.500 L 144.667 62.500 144.667 65.583 M297.667 65.583 L 297.667 68.667 296.250 68.667 L 294.833 68.667 294.833 71.083 L 294.833 73.500 296.250 73.500 L 297.667 73.500 297.667 80.754 L 297.667 88.008 300.708 87.962 L 303.750 87.917 303.793 80.708 L 303.837 73.500 305.168 73.500 L 306.500 73.500 306.500 71.083 L 306.500 68.667 305.167 68.667 L 303.833 68.667 303.833 65.583 L 303.833 62.500 300.750 62.500 L 297.667 62.500 297.667 65.583 M333.000 65.577 L 333.000 68.653 331.625 68.702 L 330.250 68.750 330.250 71.083 L 330.250 73.417 331.625 73.465 L 333.000 73.513 333.000 80.761 L 333.000 88.008 336.042 87.962 L 339.083 87.917 339.127 80.708 L 339.170 73.500 340.502 73.500 L 341.833 73.500 341.833 71.083 L 341.833 68.667 340.500 68.667 L 339.167 68.667 339.167 65.583 L 339.167 62.500 336.083 62.500 L 333.000 62.500 333.000 65.577 M343.870 64.875 L 343.917 67.250 346.958 67.295 L 350.000 67.341 350.000 64.920 L 350.000 62.500 346.912 62.500 L 343.824 62.500 343.870 64.875 M109.042 68.278 C 108.744 68.320,108.500 68.425,108.500 68.511 C 108.500 68.596,108.313 68.667,108.083 68.667 C 107.854 68.667,107.667 68.736,107.667 68.820 C 107.667 68.904,107.438 69.024,107.159 69.085 C 106.879 69.146,106.561 69.340,106.452 69.515 C 106.343 69.690,106.155 69.833,106.035 69.833 C 105.537 69.833,103.107 72.601,102.907 73.394 C 102.847 73.636,102.730 73.833,102.649 73.833 C 102.567 73.833,102.500 74.015,102.500 74.236 C 102.500 74.458,102.406 74.670,102.292 74.708 C 102.020 74.799,101.988 81.948,102.259 82.131 C 102.459 82.267,103.000 83.375,103.000 83.650 C 103.000 83.751,103.075 83.833,103.167 83.833 C 103.258 83.833,103.333 83.933,103.333 84.054 C 103.333 84.176,103.529 84.457,103.768 84.679 C 104.007 84.902,104.268 85.254,104.349 85.463 C 104.429 85.671,104.627 85.890,104.789 85.948 C 104.951 86.007,105.400 86.343,105.788 86.694 C 106.175 87.046,106.644 87.333,106.830 87.333 C 107.015 87.333,107.167 87.390,107.167 87.459 C 107.167 87.638,108.034 88.000,108.738 88.114 C 109.065 88.167,109.333 88.275,109.333 88.355 C 109.333 88.549,114.788 88.542,114.908 88.348 C 114.959 88.264,115.320 88.142,115.709 88.077 C 116.098 88.012,116.454 87.908,116.500 87.846 C 116.604 87.704,117.749 87.167,117.947 87.167 C 118.027 87.167,118.201 87.017,118.333 86.833 C 118.465 86.650,118.648 86.500,118.739 86.500 C 118.949 86.500,120.333 85.149,120.333 84.943 C 120.333 84.858,120.473 84.668,120.643 84.520 C 120.813 84.371,121.010 84.063,121.081 83.833 C 121.152 83.604,121.351 83.217,121.523 82.972 C 121.695 82.728,121.885 82.278,121.944 81.972 C 122.004 81.667,122.118 81.373,122.197 81.321 C 122.381 81.199,122.630 76.664,122.460 76.558 C 122.390 76.515,122.333 76.227,122.333 75.917 C 122.333 75.607,122.258 75.307,122.167 75.250 C 122.075 75.193,122.000 74.994,122.000 74.808 C 122.000 74.456,121.512 73.459,121.292 73.361 C 121.223 73.331,121.167 73.161,121.167 72.985 C 121.167 72.808,120.942 72.428,120.667 72.140 C 120.392 71.853,120.167 71.550,120.167 71.468 C 120.167 71.283,119.398 70.500,119.216 70.499 C 119.143 70.499,118.844 70.274,118.551 69.999 C 118.258 69.725,117.939 69.500,117.842 69.500 C 117.746 69.500,117.667 69.428,117.667 69.341 C 117.667 69.253,117.404 69.133,117.083 69.072 C 116.763 69.012,116.500 68.896,116.500 68.815 C 116.500 68.733,116.365 68.667,116.200 68.667 C 116.035 68.667,115.807 68.574,115.694 68.460 C 115.486 68.252,110.247 68.109,109.042 68.278 M171.292 68.286 C 171.040 68.324,170.833 68.425,170.833 68.511 C 170.833 68.597,170.736 68.667,170.616 68.667 C 170.497 68.667,170.140 68.933,169.824 69.259 C 169.262 69.840,169.248 69.844,169.159 69.468 C 169.070 69.088,169.038 69.083,166.283 69.038 L 163.497 68.992 163.540 78.454 L 163.583 87.917 166.583 87.917 L 169.583 87.917 169.667 81.639 L 169.750 75.361 170.151 75.014 C 170.371 74.823,170.652 74.667,170.776 74.667 C 170.899 74.667,171.000 74.592,171.000 74.500 C 171.000 74.408,171.338 74.333,171.750 74.333 C 172.760 74.333,173.167 73.926,173.167 72.917 C 173.167 72.504,173.236 72.167,173.321 72.167 C 173.406 72.167,173.528 71.492,173.592 70.667 C 173.657 69.842,173.775 69.167,173.855 69.167 C 173.935 69.167,174.000 68.942,174.000 68.667 L 174.000 68.167 172.875 68.192 C 172.256 68.205,171.544 68.248,171.292 68.286 M181.751 68.282 C 181.476 68.327,181.213 68.417,181.167 68.482 C 181.055 68.640,179.915 69.167,179.683 69.167 C 179.582 69.167,179.500 69.242,179.500 69.333 C 179.500 69.425,179.416 69.500,179.314 69.500 C 179.078 69.500,176.834 71.691,176.834 71.922 C 176.833 72.016,176.686 72.199,176.506 72.329 C 176.326 72.459,176.133 72.775,176.076 73.032 C 176.020 73.290,175.904 73.500,175.820 73.500 C 175.736 73.500,175.667 73.646,175.667 73.823 C 175.667 74.001,175.595 74.191,175.508 74.245 C 175.420 74.299,175.298 74.791,175.236 75.338 C 175.174 75.886,175.058 76.333,174.978 76.333 C 174.899 76.333,174.833 77.233,174.833 78.333 C 174.833 79.433,174.898 80.333,174.977 80.333 C 175.056 80.333,175.163 80.727,175.216 81.208 C 175.313 82.093,175.645 82.996,175.875 82.999 C 175.944 82.999,176.000 83.178,176.000 83.396 C 176.000 83.614,176.112 83.886,176.250 84.000 C 176.387 84.114,176.500 84.311,176.500 84.437 C 176.500 84.563,176.577 84.667,176.672 84.667 C 176.766 84.667,176.889 84.798,176.945 84.958 C 177.083 85.353,178.522 86.833,178.768 86.833 C 178.876 86.833,179.008 86.946,179.060 87.083 C 179.113 87.221,179.302 87.333,179.481 87.333 C 179.659 87.333,179.831 87.390,179.861 87.458 C 179.958 87.677,180.955 88.167,181.303 88.167 C 181.488 88.167,181.669 88.257,181.706 88.367 C 181.796 88.639,187.125 88.668,187.298 88.397 C 187.363 88.295,187.604 88.155,187.833 88.086 C 188.264 87.957,189.374 87.198,189.472 86.965 C 189.604 86.653,189.816 86.875,189.864 87.375 L 189.917 87.917 192.958 87.962 L 196.000 88.008 196.000 78.504 L 196.000 69.000 192.917 69.000 L 189.833 69.000 189.833 69.442 C 189.833 69.875,189.826 69.878,189.499 69.582 C 189.175 69.289,188.684 68.974,188.167 68.727 C 188.029 68.661,187.863 68.527,187.798 68.429 C 187.675 68.244,182.718 68.124,181.751 68.282 M207.458 68.276 C 207.206 68.320,207.000 68.425,207.000 68.511 C 207.000 68.597,206.887 68.667,206.750 68.667 C 206.612 68.667,206.500 68.737,206.500 68.822 C 206.500 68.908,206.331 69.031,206.125 69.096 C 205.919 69.161,205.629 69.354,205.480 69.524 C 205.118 69.940,205.000 69.914,205.000 69.417 L 205.000 69.000 202.165 69.000 L 199.331 69.000 199.374 78.458 L 199.417 87.917 202.333 87.917 L 205.250 87.917 205.333 81.869 C 205.385 78.085,205.480 75.777,205.585 75.702 C 205.677 75.637,205.893 75.316,206.064 74.990 C 206.543 74.077,209.179 73.416,209.631 74.095 C 209.696 74.194,209.883 74.323,210.045 74.383 C 210.208 74.443,210.390 74.625,210.450 74.788 C 210.510 74.950,210.639 75.137,210.738 75.202 C 210.857 75.282,210.944 77.408,211.000 81.619 L 211.083 87.917 214.167 87.917 L 217.250 87.917 217.294 81.010 C 217.322 76.518,217.278 74.045,217.169 73.935 C 217.076 73.843,217.000 73.482,217.000 73.133 C 217.000 72.785,216.935 72.500,216.855 72.500 C 216.775 72.500,216.664 72.218,216.609 71.873 C 216.553 71.524,216.359 71.139,216.171 71.003 C 215.985 70.869,215.833 70.673,215.833 70.568 C 215.833 70.255,214.369 69.000,214.004 69.000 C 213.818 69.000,213.667 68.925,213.667 68.833 C 213.667 68.742,213.560 68.667,213.431 68.667 C 213.301 68.667,213.164 68.577,213.128 68.467 C 213.060 68.262,208.440 68.107,207.458 68.276 M225.083 68.322 C 224.209 68.542,223.833 68.701,223.833 68.853 C 223.833 68.934,223.655 69.000,223.437 69.000 C 223.219 69.000,222.947 69.112,222.833 69.250 C 222.719 69.387,222.562 69.500,222.483 69.500 C 222.301 69.500,220.500 71.267,220.499 71.447 C 220.498 71.522,220.368 71.808,220.210 72.083 C 219.847 72.714,219.777 76.342,220.125 76.458 C 220.240 76.497,220.333 76.621,220.333 76.736 C 220.333 76.986,222.062 78.667,222.319 78.667 C 222.419 78.667,222.500 78.742,222.500 78.833 C 222.500 78.925,222.582 79.000,222.683 79.000 C 222.909 79.000,224.052 79.524,224.167 79.679 C 224.213 79.742,224.568 79.846,224.957 79.911 C 225.347 79.976,225.705 80.093,225.753 80.172 C 225.801 80.250,226.177 80.364,226.587 80.426 C 226.998 80.487,227.333 80.604,227.333 80.686 C 227.333 80.767,227.483 80.833,227.667 80.833 C 227.850 80.833,228.000 80.908,228.000 81.000 C 228.000 81.092,228.100 81.167,228.222 81.167 C 229.205 81.167,229.553 82.675,228.669 83.098 C 228.303 83.273,228.003 83.473,228.002 83.542 C 228.001 83.610,227.475 83.667,226.833 83.667 C 226.167 83.667,225.667 83.595,225.667 83.500 C 225.667 83.408,225.576 83.333,225.466 83.333 C 225.356 83.333,225.024 83.099,224.729 82.813 C 224.204 82.304,222.000 82.180,222.000 82.658 C 222.000 82.731,221.483 82.841,220.852 82.903 C 219.231 83.063,218.713 83.843,219.681 84.667 C 219.734 84.712,219.847 84.875,219.931 85.028 C 220.186 85.493,221.989 87.333,222.190 87.333 C 222.293 87.333,222.499 87.472,222.647 87.641 C 222.795 87.811,223.192 88.001,223.530 88.063 C 223.867 88.126,224.173 88.269,224.210 88.380 C 224.299 88.647,229.797 88.658,229.969 88.392 C 230.032 88.295,230.365 88.163,230.708 88.100 C 231.052 88.037,231.333 87.931,231.333 87.865 C 231.333 87.758,232.539 87.167,232.757 87.167 C 232.916 87.167,234.333 85.641,234.333 85.470 C 234.333 85.378,234.485 85.179,234.671 85.027 C 234.898 84.841,235.042 84.463,235.111 83.875 C 235.167 83.394,235.278 83.000,235.357 83.000 C 235.551 83.000,235.539 81.235,235.342 80.873 C 235.256 80.714,235.140 80.302,235.085 79.958 C 235.030 79.615,234.913 79.333,234.826 79.333 C 234.738 79.333,234.667 79.222,234.667 79.086 C 234.667 78.818,233.524 77.679,233.248 77.671 C 233.156 77.669,232.988 77.519,232.875 77.338 C 232.755 77.145,232.566 77.049,232.418 77.106 C 232.280 77.159,232.167 77.119,232.167 77.018 C 232.167 76.916,232.063 76.833,231.936 76.833 C 231.809 76.833,231.490 76.721,231.227 76.584 C 230.965 76.447,230.544 76.335,230.292 76.334 C 230.040 76.334,229.833 76.258,229.833 76.167 C 229.833 76.075,229.650 76.000,229.427 76.000 C 229.203 76.000,228.979 75.934,228.929 75.853 C 228.879 75.772,228.424 75.654,227.919 75.591 C 227.413 75.528,227.000 75.406,227.000 75.321 C 227.000 75.236,226.899 75.167,226.776 75.167 C 226.063 75.167,225.784 73.949,226.417 73.600 C 226.600 73.499,226.804 73.342,226.869 73.250 C 227.163 72.837,229.241 73.059,229.738 73.556 C 230.222 74.040,232.262 74.104,232.742 73.650 C 232.829 73.567,233.110 73.500,233.367 73.500 C 233.623 73.500,233.833 73.425,233.833 73.333 C 233.833 73.242,234.133 73.167,234.500 73.167 C 235.000 73.167,235.167 73.100,235.167 72.900 C 235.167 72.523,234.643 71.442,234.384 71.283 C 234.264 71.210,234.167 71.053,234.167 70.935 C 234.167 70.686,232.933 69.500,232.674 69.500 C 232.578 69.500,232.500 69.430,232.500 69.345 C 232.500 69.259,232.331 69.136,232.125 69.072 C 231.919 69.008,231.713 68.909,231.667 68.853 C 231.204 68.283,226.686 67.919,225.083 68.322 M246.625 68.279 C 246.373 68.321,246.167 68.425,246.167 68.511 C 246.167 68.597,246.054 68.667,245.917 68.667 C 245.779 68.667,245.667 68.734,245.667 68.815 C 245.667 68.897,245.460 69.015,245.208 69.077 C 244.956 69.139,244.506 69.424,244.208 69.711 L 243.667 70.232 243.667 69.616 L 243.667 69.000 240.667 69.000 L 237.667 69.000 237.667 81.587 L 237.667 94.174 240.792 94.129 L 243.917 94.083 243.962 90.625 C 244.009 87.033,244.065 86.783,244.699 87.375 C 245.091 87.741,245.957 88.167,246.308 88.167 C 246.494 88.167,246.693 88.242,246.750 88.333 C 246.807 88.425,247.107 88.500,247.417 88.500 C 247.727 88.500,248.016 88.559,248.061 88.630 C 248.169 88.806,251.876 88.524,252.075 88.325 C 252.162 88.238,252.330 88.167,252.449 88.167 C 252.771 88.167,254.000 87.607,254.000 87.461 C 254.000 87.391,254.098 87.333,254.219 87.333 C 254.339 87.333,254.653 87.108,254.917 86.833 C 255.180 86.558,255.462 86.333,255.543 86.333 C 255.735 86.333,256.167 85.900,256.167 85.708 C 256.167 85.625,256.354 85.382,256.583 85.167 C 256.813 84.951,257.000 84.673,257.000 84.549 C 257.000 84.425,257.112 84.280,257.250 84.227 C 257.387 84.174,257.500 83.989,257.500 83.816 C 257.500 83.642,257.574 83.500,257.665 83.500 C 257.755 83.500,257.877 83.200,257.936 82.833 C 257.995 82.467,258.108 82.167,258.188 82.167 C 258.268 82.167,258.333 81.946,258.333 81.677 C 258.333 81.407,258.408 81.140,258.500 81.083 C 258.599 81.022,258.667 79.946,258.667 78.417 C 258.667 76.887,258.599 75.811,258.500 75.750 C 258.408 75.693,258.333 75.426,258.333 75.157 C 258.333 74.887,258.268 74.667,258.188 74.667 C 258.108 74.667,257.995 74.367,257.936 74.000 C 257.877 73.633,257.755 73.333,257.665 73.333 C 257.574 73.333,257.500 73.251,257.500 73.150 C 257.500 72.262,254.949 69.448,253.792 69.059 C 253.631 69.005,253.500 68.895,253.500 68.814 C 253.500 68.733,253.327 68.667,253.117 68.667 C 252.906 68.667,252.640 68.573,252.525 68.458 C 252.317 68.249,247.653 68.108,246.625 68.279 M268.083 68.279 C 267.808 68.323,267.512 68.428,267.425 68.513 C 267.338 68.597,267.094 68.667,266.883 68.667 C 266.673 68.667,266.500 68.736,266.500 68.820 C 266.500 68.904,266.275 69.023,266.000 69.083 C 265.725 69.144,265.500 69.262,265.500 69.347 C 265.500 69.431,265.401 69.500,265.279 69.500 C 265.158 69.500,264.882 69.688,264.667 69.917 C 264.451 70.146,264.188 70.333,264.082 70.333 C 263.870 70.333,263.000 71.247,263.000 71.470 C 263.000 71.546,262.816 71.781,262.592 71.992 C 262.368 72.203,262.137 72.591,262.079 72.854 C 262.021 73.118,261.904 73.333,261.820 73.333 C 261.736 73.333,261.667 73.446,261.667 73.583 C 261.667 73.721,261.593 73.833,261.502 73.833 C 261.411 73.833,261.289 74.133,261.231 74.500 C 261.172 74.867,261.059 75.167,260.979 75.167 C 260.899 75.167,260.833 75.429,260.833 75.750 C 260.833 76.071,260.758 76.333,260.667 76.333 C 260.565 76.333,260.500 77.080,260.500 78.240 C 260.500 79.332,260.571 80.191,260.667 80.250 C 260.758 80.307,260.833 80.574,260.833 80.843 C 260.833 81.113,260.901 81.333,260.984 81.333 C 261.067 81.333,261.187 81.708,261.250 82.167 C 261.313 82.625,261.433 83.000,261.516 83.000 C 261.599 83.000,261.667 83.112,261.667 83.250 C 261.667 83.387,261.737 83.500,261.822 83.500 C 261.908 83.500,262.031 83.669,262.096 83.875 C 262.161 84.081,262.354 84.371,262.524 84.520 C 262.694 84.668,262.833 84.865,262.833 84.958 C 262.833 85.191,264.161 86.500,264.396 86.500 C 264.501 86.500,264.676 86.643,264.785 86.818 C 264.895 86.993,265.213 87.187,265.492 87.248 C 265.771 87.310,266.000 87.411,266.000 87.474 C 266.000 87.653,267.291 88.167,267.741 88.167 C 267.964 88.167,268.193 88.242,268.250 88.333 C 268.378 88.540,273.833 88.561,273.833 88.355 C 273.833 88.275,274.137 88.161,274.507 88.102 C 275.133 88.001,275.803 87.723,276.000 87.481 C 276.046 87.424,276.271 87.320,276.500 87.249 C 276.948 87.111,279.500 84.697,279.500 84.412 C 279.500 84.318,279.650 84.132,279.833 84.000 C 280.017 83.868,280.167 83.694,280.167 83.613 C 280.167 83.457,280.581 82.461,280.869 81.926 C 280.965 81.747,281.082 81.129,281.128 80.551 C 281.174 79.973,281.277 79.500,281.356 79.500 C 281.435 79.500,281.500 78.975,281.500 78.333 C 281.500 77.692,281.436 77.167,281.358 77.167 C 281.279 77.167,281.170 76.624,281.114 75.960 C 281.058 75.297,280.935 74.728,280.840 74.697 C 280.745 74.665,280.667 74.458,280.667 74.236 C 280.667 74.015,280.598 73.833,280.513 73.833 C 280.429 73.833,280.310 73.605,280.248 73.325 C 280.187 73.046,279.993 72.728,279.818 72.619 C 279.643 72.509,279.500 72.324,279.500 72.207 C 279.500 71.929,277.404 69.833,277.127 69.833 C 277.009 69.833,276.820 69.684,276.707 69.502 C 276.582 69.303,276.233 69.128,275.833 69.064 C 275.467 69.005,275.167 68.892,275.167 68.812 C 275.167 68.732,275.060 68.667,274.931 68.667 C 274.801 68.667,274.664 68.574,274.626 68.461 C 274.556 68.251,269.190 68.102,268.083 68.279 M291.958 68.282 C 291.798 68.323,291.667 68.427,291.667 68.512 C 291.667 68.597,291.525 68.667,291.351 68.667 C 291.178 68.667,290.992 68.779,290.940 68.917 C 290.887 69.054,290.727 69.167,290.584 69.167 C 290.442 69.167,290.237 69.373,290.129 69.625 L 289.932 70.083 289.872 69.542 L 289.812 69.000 286.905 69.000 L 283.997 69.000 284.040 78.458 L 284.083 87.917 287.083 87.917 L 290.083 87.917 290.127 82.042 C 290.151 78.810,290.235 76.167,290.314 76.167 C 290.393 76.167,290.505 75.868,290.564 75.503 C 290.648 74.977,290.756 74.817,291.085 74.735 C 291.313 74.677,291.500 74.564,291.500 74.482 C 291.500 74.400,291.942 74.333,292.482 74.333 C 293.527 74.333,293.667 74.224,293.667 73.403 C 293.667 73.181,293.742 73.000,293.833 73.000 C 293.925 73.000,294.000 72.631,294.000 72.181 C 294.000 71.730,294.071 71.336,294.158 71.306 C 294.245 71.275,294.369 70.556,294.432 69.708 L 294.548 68.167 293.399 68.186 C 292.767 68.197,292.119 68.240,291.958 68.282 M314.417 68.277 C 314.233 68.326,314.012 68.433,313.925 68.516 C 313.838 68.599,313.632 68.667,313.467 68.667 C 313.302 68.667,313.167 68.732,313.167 68.813 C 313.167 68.893,312.930 69.006,312.640 69.064 C 312.350 69.122,312.008 69.319,311.880 69.501 C 311.752 69.684,311.568 69.833,311.471 69.833 C 311.226 69.833,309.505 71.538,309.502 71.783 C 309.501 71.893,309.402 72.043,309.283 72.117 C 309.053 72.258,308.500 73.341,308.500 73.650 C 308.500 73.751,308.434 73.833,308.353 73.833 C 308.153 73.833,307.962 74.482,307.997 75.042 C 308.012 75.294,307.944 75.500,307.846 75.500 C 307.740 75.500,307.667 75.871,307.667 76.407 C 307.667 76.906,307.592 77.360,307.500 77.417 C 307.408 77.473,307.333 77.890,307.333 78.343 C 307.333 78.796,307.408 79.167,307.500 79.167 C 307.593 79.167,307.667 79.611,307.667 80.167 C 307.667 80.717,307.733 81.167,307.814 81.167 C 307.895 81.167,308.013 81.579,308.076 82.083 C 308.139 82.587,308.254 83.000,308.332 83.000 C 308.410 83.000,308.524 83.229,308.585 83.508 C 308.646 83.787,308.840 84.105,309.015 84.215 C 309.190 84.324,309.333 84.524,309.333 84.660 C 309.333 84.795,309.507 85.058,309.720 85.245 C 309.932 85.431,310.156 85.716,310.216 85.878 C 310.276 86.039,310.495 86.238,310.704 86.320 C 310.913 86.401,311.194 86.625,311.328 86.817 C 311.463 87.009,311.664 87.167,311.775 87.167 C 311.886 87.167,312.078 87.260,312.203 87.375 C 312.601 87.741,313.108 87.974,313.771 88.096 C 314.126 88.161,314.470 88.298,314.536 88.399 C 314.700 88.653,319.634 88.653,319.798 88.399 C 319.863 88.298,320.182 88.166,320.505 88.107 C 320.829 88.047,321.202 87.849,321.334 87.666 C 321.466 87.483,321.664 87.333,321.775 87.333 C 321.885 87.333,322.131 87.136,322.321 86.894 L 322.667 86.455 322.667 87.231 L 322.667 88.008 325.708 87.962 L 328.750 87.917 328.793 78.458 L 328.836 69.000 325.751 69.000 L 322.667 69.000 322.667 69.680 L 322.667 70.361 322.056 69.680 C 321.720 69.306,321.345 69.000,321.223 69.000 C 321.100 69.000,321.000 68.925,321.000 68.833 C 321.000 68.742,320.856 68.667,320.681 68.667 C 320.505 68.667,320.330 68.573,320.292 68.458 C 320.220 68.243,315.135 68.087,314.417 68.277 M360.125 68.277 C 359.873 68.320,359.667 68.425,359.667 68.511 C 359.667 68.597,359.479 68.667,359.250 68.667 C 359.021 68.667,358.833 68.742,358.833 68.833 C 358.833 68.925,358.655 69.000,358.437 69.000 C 358.219 69.000,357.947 69.112,357.833 69.250 C 357.719 69.387,357.523 69.500,357.396 69.500 C 357.270 69.500,357.167 69.575,357.167 69.667 C 357.167 69.758,357.067 69.833,356.946 69.833 C 356.694 69.833,354.667 71.748,354.667 71.986 C 354.667 72.072,354.573 72.243,354.458 72.366 C 354.125 72.724,353.667 73.611,353.667 73.901 C 353.667 74.047,353.595 74.167,353.508 74.167 C 353.420 74.167,353.303 74.448,353.248 74.792 C 353.193 75.135,353.078 75.547,352.991 75.706 C 352.904 75.865,352.833 76.371,352.833 76.831 C 352.833 77.291,352.758 77.667,352.667 77.667 C 352.575 77.667,352.500 77.925,352.500 78.240 C 352.500 78.556,352.575 78.860,352.667 78.917 C 352.758 78.973,352.833 79.428,352.833 79.927 C 352.833 80.462,352.907 80.833,353.013 80.833 C 353.111 80.833,353.169 81.046,353.142 81.306 C 353.115 81.566,353.222 81.976,353.380 82.217 C 353.538 82.458,353.667 82.802,353.667 82.981 C 353.667 83.161,353.854 83.531,354.083 83.803 C 354.313 84.075,354.500 84.357,354.500 84.430 C 354.500 84.623,356.796 86.833,356.997 86.833 C 357.090 86.833,357.167 86.903,357.167 86.989 C 357.167 87.074,357.335 87.197,357.542 87.261 C 357.748 87.326,357.954 87.424,358.000 87.481 C 358.225 87.758,358.941 88.028,359.679 88.116 C 360.131 88.169,360.500 88.278,360.500 88.357 C 360.500 88.435,361.700 88.500,363.167 88.500 C 364.833 88.500,365.833 88.438,365.833 88.333 C 365.833 88.242,366.028 88.167,366.266 88.167 C 366.672 88.167,367.596 87.835,368.167 87.486 C 368.304 87.401,368.587 87.259,368.796 87.169 C 369.005 87.079,369.219 86.891,369.272 86.753 C 369.325 86.614,369.464 86.500,369.581 86.500 C 369.873 86.500,371.500 84.925,371.500 84.643 C 371.500 84.517,371.643 84.324,371.818 84.215 C 371.993 84.105,372.187 83.787,372.248 83.508 C 372.310 83.229,372.428 83.000,372.511 83.000 C 372.595 83.000,372.711 82.700,372.769 82.333 C 372.828 81.967,372.941 81.667,373.021 81.667 C 373.101 81.667,373.167 81.446,373.167 81.177 C 373.167 80.907,373.242 80.640,373.333 80.583 C 373.431 80.523,373.500 79.554,373.500 78.240 C 373.500 76.858,373.436 76.000,373.333 76.000 C 373.242 76.000,373.167 75.787,373.167 75.528 C 373.167 75.268,373.110 74.999,373.042 74.931 C 372.973 74.862,372.910 74.756,372.902 74.694 C 372.827 74.112,371.892 72.341,371.542 72.117 C 371.427 72.043,371.333 71.893,371.332 71.783 C 371.331 71.418,369.465 69.785,368.792 69.559 C 368.631 69.505,368.500 69.401,368.500 69.327 C 368.500 69.253,368.275 69.144,368.000 69.083 C 367.725 69.023,367.500 68.904,367.500 68.820 C 367.500 68.736,367.327 68.667,367.117 68.667 C 366.906 68.667,366.641 68.574,366.528 68.461 C 366.321 68.254,361.132 68.105,360.125 68.277 M384.292 68.276 C 384.040 68.320,383.833 68.425,383.833 68.511 C 383.833 68.597,383.755 68.667,383.659 68.667 C 383.564 68.667,383.283 68.854,383.036 69.083 C 382.789 69.313,382.507 69.500,382.409 69.500 C 382.311 69.500,382.150 69.706,382.050 69.958 C 381.875 70.402,381.868 70.394,381.851 69.708 L 381.833 69.000 378.999 69.000 L 376.164 69.000 376.207 78.458 L 376.250 87.917 379.333 87.917 L 382.417 87.917 382.500 81.653 L 382.583 75.389 383.325 74.655 L 384.067 73.921 385.334 73.921 C 386.533 73.921,386.627 73.949,387.092 74.436 C 388.026 75.415,388.000 75.206,388.000 81.835 L 388.000 88.008 391.042 87.962 L 394.083 87.917 394.127 80.625 C 394.156 75.796,394.113 73.333,394.002 73.333 C 393.909 73.333,393.833 73.101,393.833 72.817 C 393.833 72.326,393.391 71.313,393.125 71.194 C 393.056 71.164,393.000 71.026,393.000 70.888 C 393.000 70.658,391.609 69.167,391.394 69.167 C 391.194 69.167,390.077 68.592,389.969 68.433 C 389.852 68.261,385.137 68.131,384.292 68.276 M343.874 78.292 L 343.917 87.917 346.958 87.962 L 350.000 88.008 350.000 78.337 L 350.000 68.667 346.915 68.667 L 343.831 68.667 343.874 78.292 M113.655 74.121 C 113.707 74.192,114.013 74.396,114.333 74.575 C 115.061 74.980,115.360 75.280,115.672 75.917 C 115.806 76.192,115.991 76.470,116.082 76.535 C 116.610 76.912,116.198 80.667,115.627 80.667 C 115.557 80.667,115.500 80.776,115.500 80.910 C 115.500 81.162,114.692 82.000,114.448 82.000 C 114.372 82.000,114.197 82.112,114.060 82.250 C 113.922 82.387,113.665 82.500,113.488 82.500 C 113.311 82.500,113.167 82.575,113.167 82.667 C 113.167 82.931,111.295 82.857,110.926 82.578 C 110.749 82.443,110.467 82.333,110.301 82.333 C 110.136 82.333,110.000 82.258,110.000 82.167 C 110.000 82.075,109.920 82.000,109.821 82.000 C 109.495 82.000,108.828 81.181,108.567 80.458 C 108.509 80.298,108.395 80.167,108.314 80.167 C 108.233 80.167,108.167 79.979,108.167 79.750 C 108.167 79.521,108.092 79.333,108.000 79.333 C 107.907 79.333,107.833 78.889,107.833 78.333 C 107.833 77.778,107.907 77.333,108.000 77.333 C 108.092 77.333,108.167 77.181,108.167 76.994 C 108.167 76.687,108.584 75.874,108.849 75.667 C 108.907 75.621,109.008 75.415,109.072 75.208 C 109.139 74.994,109.323 74.833,109.503 74.833 C 109.676 74.833,109.877 74.739,109.950 74.625 C 110.073 74.433,110.550 74.161,111.167 73.931 C 111.505 73.806,113.535 73.961,113.655 74.121 M187.484 74.315 C 187.652 74.509,187.864 74.667,187.955 74.667 C 188.345 74.667,189.357 75.851,189.449 76.415 C 189.501 76.737,189.609 77.000,189.688 77.000 C 189.879 77.000,189.877 79.454,189.686 79.572 C 189.604 79.622,189.491 79.911,189.434 80.214 C 189.350 80.666,187.776 82.544,187.619 82.380 C 187.528 82.285,186.833 82.556,186.833 82.686 C 186.833 82.767,186.196 82.833,185.417 82.833 C 184.637 82.833,184.000 82.766,184.000 82.685 C 184.000 82.603,183.807 82.488,183.570 82.428 C 183.008 82.287,181.881 81.163,181.740 80.603 C 181.679 80.361,181.563 80.122,181.482 80.072 C 181.400 80.022,181.333 79.835,181.333 79.657 C 181.333 79.479,181.258 79.333,181.167 79.333 C 181.074 79.333,181.000 78.889,181.000 78.333 C 181.000 77.778,181.074 77.333,181.167 77.333 C 181.258 77.333,181.333 77.146,181.333 76.917 C 181.333 76.688,181.408 76.500,181.500 76.500 C 181.592 76.500,181.667 76.393,181.667 76.262 C 181.667 76.131,181.760 75.922,181.875 75.797 C 181.990 75.672,182.164 75.422,182.264 75.243 C 182.363 75.063,182.607 74.843,182.805 74.752 C 183.004 74.662,183.167 74.530,183.167 74.460 C 183.167 74.391,183.317 74.333,183.500 74.333 C 183.683 74.333,183.833 74.264,183.833 74.179 C 183.833 73.678,187.035 73.797,187.484 74.315 M249.968 74.153 C 250.001 74.252,250.101 74.333,250.190 74.333 C 250.444 74.333,251.833 75.695,251.833 75.944 C 251.833 76.066,251.904 76.167,251.990 76.167 C 252.076 76.167,252.197 76.505,252.259 76.919 C 252.321 77.332,252.438 77.712,252.519 77.762 C 252.720 77.886,252.706 78.623,252.500 78.750 C 252.408 78.807,252.333 79.043,252.333 79.276 C 252.333 80.268,250.855 82.196,249.912 82.433 C 249.686 82.490,249.500 82.603,249.500 82.685 C 249.500 82.882,247.243 82.877,246.873 82.679 C 246.714 82.594,246.471 82.481,246.333 82.427 C 246.196 82.373,245.858 82.181,245.583 82.000 C 245.308 81.819,244.990 81.624,244.875 81.567 C 244.760 81.511,244.667 81.320,244.667 81.144 C 244.667 80.967,244.556 80.780,244.421 80.729 C 244.286 80.677,244.128 80.378,244.069 80.065 C 244.010 79.752,243.896 79.455,243.814 79.405 C 243.733 79.355,243.667 78.873,243.667 78.333 C 243.667 77.794,243.733 77.312,243.814 77.262 C 243.896 77.211,244.009 76.919,244.067 76.611 C 244.171 76.055,245.748 74.333,246.153 74.333 C 246.252 74.333,246.333 74.263,246.333 74.178 C 246.333 73.819,249.848 73.795,249.968 74.153 M272.468 74.154 C 272.501 74.253,272.632 74.333,272.760 74.333 C 273.065 74.333,274.667 75.955,274.667 76.262 C 274.667 76.393,274.742 76.500,274.833 76.500 C 274.925 76.500,275.000 76.688,275.000 76.917 C 275.000 77.146,275.075 77.333,275.167 77.333 C 275.259 77.333,275.333 77.778,275.333 78.333 C 275.333 78.889,275.259 79.333,275.167 79.333 C 275.075 79.333,274.995 79.465,274.988 79.625 C 274.981 79.785,274.832 80.142,274.656 80.417 C 274.481 80.692,274.287 81.029,274.225 81.167 C 274.071 81.511,273.649 81.905,273.250 82.077 C 273.067 82.156,272.879 82.238,272.833 82.258 C 272.787 82.278,272.581 82.350,272.375 82.417 C 272.169 82.484,272.000 82.605,272.000 82.686 C 272.000 82.767,271.550 82.833,271.000 82.833 C 270.444 82.833,270.000 82.759,270.000 82.667 C 270.000 82.575,269.810 82.500,269.578 82.500 C 269.346 82.500,269.113 82.387,269.060 82.250 C 269.008 82.112,268.878 82.000,268.772 82.000 C 268.520 82.000,267.667 81.205,267.667 80.971 C 267.667 80.871,267.498 80.643,267.292 80.464 C 266.883 80.109,266.708 76.805,267.084 76.536 C 267.175 76.470,267.361 76.192,267.495 75.917 C 267.806 75.280,268.106 74.980,268.833 74.575 C 269.154 74.396,269.454 74.201,269.500 74.142 C 269.752 73.814,272.358 73.825,272.468 74.154 M319.798 74.144 C 319.833 74.248,319.964 74.333,320.091 74.333 C 320.323 74.333,321.833 75.707,321.833 75.918 C 321.833 76.041,322.262 77.061,322.514 77.539 C 322.719 77.928,322.709 79.000,322.500 79.000 C 322.408 79.000,322.333 79.151,322.333 79.336 C 322.333 79.520,322.264 79.801,322.179 79.961 C 322.094 80.120,321.978 80.362,321.922 80.500 C 321.651 81.165,320.998 82.000,320.750 82.000 C 320.691 82.000,320.530 82.112,320.393 82.250 C 320.255 82.387,320.003 82.500,319.831 82.500 C 319.660 82.500,319.473 82.575,319.417 82.667 C 319.360 82.758,318.756 82.833,318.073 82.833 C 317.358 82.833,316.833 82.763,316.833 82.667 C 316.833 82.575,316.655 82.500,316.437 82.500 C 316.219 82.500,315.947 82.387,315.833 82.250 C 315.719 82.112,315.528 82.000,315.407 82.000 C 315.287 82.000,315.136 81.831,315.071 81.625 C 315.005 81.419,314.822 81.158,314.662 81.046 C 314.502 80.933,314.319 80.634,314.256 80.381 C 314.192 80.127,314.053 79.866,313.946 79.800 C 313.700 79.648,313.703 77.111,313.950 76.803 C 314.047 76.682,314.179 76.411,314.243 76.201 C 314.379 75.757,315.811 74.333,316.122 74.333 C 316.238 74.333,316.333 74.263,316.333 74.178 C 316.333 73.816,319.678 73.783,319.798 74.144 M364.491 74.126 C 364.542 74.195,364.808 74.359,365.083 74.492 C 365.727 74.804,366.500 75.502,366.500 75.773 C 366.500 75.889,366.623 76.053,366.774 76.137 C 367.249 76.403,367.312 79.452,366.861 80.318 C 366.337 81.323,365.243 82.342,364.571 82.451 C 364.257 82.502,364.000 82.609,364.000 82.688 C 364.000 82.768,363.550 82.833,363.000 82.833 C 362.450 82.833,362.000 82.766,362.000 82.685 C 362.000 82.603,361.813 82.489,361.584 82.432 C 361.119 82.315,359.333 80.695,359.333 80.390 C 359.333 80.282,359.248 80.166,359.145 80.132 C 358.888 80.046,358.853 77.132,359.105 76.818 C 359.208 76.689,359.345 76.411,359.410 76.201 C 359.546 75.757,360.978 74.333,361.289 74.333 C 361.405 74.333,361.500 74.263,361.500 74.178 C 361.500 73.854,364.253 73.807,364.491 74.126 "
          stroke="none" fill="#003e7e" fill-rule="evenodd"></path>
  </g>
</svg>