<svg xmlns="http://www.w3.org/2000/svg" xmlns:xlink="http://www.w3.org/1999/xlink" viewBox="0 0 468 90"><defs><path id="a" d="M7.41 14.09h453.18v63.98H7.41z"/></defs><clipPath id="b"><use xlink:href="#a" overflow="visible"/></clipPath><path d="M266.97 31.69V27.8h-6.96V14.37h-4.46v17.31h11.42zm-25.26-3.64c-2.88 0-4.72-2.21-4.72-5.01 0-2.83 1.84-5.01 4.72-5.01 2.86 0 4.7 2.18 4.7 5.01-.01 2.81-1.85 5.01-4.7 5.01m0 3.95c5.29 0 9.24-3.68 9.24-8.95s-3.95-8.96-9.24-8.96-9.27 3.69-9.27 8.96 3.97 8.95 9.27 8.95m-13.85-.31V14.37h-4.46v6.46h-7.19v-6.46h-4.46v17.31h4.46v-6.96h7.19v6.96h4.46zm-29.96-3.64c-2.88 0-4.72-2.21-4.72-5.01 0-2.83 1.84-5.01 4.72-5.01 2.85 0 4.7 2.18 4.7 5.01 0 2.81-1.84 5.01-4.7 5.01m0 3.95c5.29 0 9.24-3.68 9.24-8.95s-3.95-8.96-9.24-8.96-9.27 3.69-9.27 8.96S192.61 32 197.9 32m-20.2 0c4.18 0 6.44-2.41 7.55-4.65l-3.84-1.82c-.57 1.38-2.05 2.52-3.71 2.52-2.83 0-4.83-2.18-4.83-5.01 0-2.83 2-5.01 4.83-5.01 1.66 0 3.14 1.14 3.71 2.52l3.84-1.82c-1.14-2.28-3.37-4.65-7.55-4.65-5.32 0-9.37 3.61-9.37 8.96 0 5.32 4.05 8.96 9.37 8.96m-13.14-.31V27.8h-6.96V14.37h-4.46v17.31h11.42zm-22.17-6.39h-4.41l2.21-6.51 2.2 6.51zm7.13 6.39l-6.54-17.31h-5.61l-6.51 17.31h5.06l.86-2.49h6.83l.86 2.49h5.05zM110 18.42c0-.86.62-1.48 1.51-1.48.7 0 1.25.47 1.25 1.19 0 1.06-.91 1.71-2.15 2.31-.37-.72-.61-1.42-.61-2.02m-.1 10.49c-1.22 0-2.28-.96-2.28-2.41 0-.88.39-1.56.99-2.08.49.7 1.04 1.4 1.53 2.02.36.49.96 1.17 1.64 1.92-.61.34-1.23.55-1.88.55m9.97 2.78c-1.19-1.25-2.28-2.41-3.32-3.58.99-1.25 1.79-2.65 2.44-4.02l-3.14-1.48c-.31.99-.8 2.08-1.43 3.06-.42-.49-.81-.96-1.19-1.48-.36-.44-.81-.99-1.25-1.58 2.1-.93 4.18-2.02 4.18-4.7 0-2.39-2.31-3.79-4.85-3.79-3.09 0-5.24 1.87-5.24 4.23 0 1.14.42 2.39 1.04 3.63-1.95.96-3.66 2.31-3.66 4.91 0 3.43 2.62 5.11 5.89 5.11 1.74 0 3.22-.52 4.52-1.38l1.04 1.06h4.97zM82.92 32c3.27 0 5.79-1.32 7.66-3.37v-6.88h-8.36v3.92h3.89v1.35c-.62.52-1.92 1.04-3.19 1.04-2.83 0-4.83-2.18-4.83-5.01 0-2.83 2-5.01 4.83-5.01 1.69 0 3.01 1.06 3.66 2.21l3.74-1.95c-1.19-2.16-3.53-4.21-7.4-4.21-5.17 0-9.37 3.45-9.37 8.96 0 5.49 4.2 8.95 9.37 8.95m-22.1 0c5.53 0 8.15-3.04 8.15-7.34V14.37h-4.52v10.15c0 2.05-1.24 3.53-3.63 3.53-2.44 0-3.66-1.48-3.66-3.53V14.37h-4.54v10.3c0 4.26 2.62 7.33 8.2 7.33M41.11 21.98h-3.53v-3.71h3.53c1.17 0 2.16.67 2.16 1.84 0 1.22-.99 1.87-2.16 1.87m6.78 9.71l-3.53-6.36c1.61-.57 3.45-2.18 3.45-5.19 0-3.22-2.18-5.76-6.02-5.76h-8.67v17.31h4.46v-5.81h2.28l2.91 5.81h5.12zm-28.72-3.9h-2.8v-9.53h2.83c3.17 0 4.78 2.08 4.78 4.75-.01 2.58-1.77 4.78-4.81 4.78m.03 3.9c5.43 0 9.34-3.3 9.34-8.67s-3.92-8.64-9.37-8.64H11.9v17.31h7.3z" clip-path="url(#b)" fill="#1271b9"/><path d="M460.59 77.32v-5.99h-19.76V60.58h19.35v-5.99h-19.35V44.54h19.76v-5.99h-26.56v38.76h26.56zm-46.48.69c10.46 0 14.99-5.52 14.99-11.97 0-14.47-22.55-9.99-22.55-17.2 0-2.9 2.56-4.82 6.57-4.82 4.07 0 8.19 1.4 11.21 4.42l3.89-5.05c-3.6-3.49-8.48-5.4-14.53-5.4-8.48 0-14.12 4.94-14.12 11.33 0 14.29 22.61 9.24 22.61 17.37 0 2.56-2.21 5.29-7.79 5.29-5.4 0-9.59-2.5-12.26-5.35l-3.78 5.23c3.44 3.65 8.61 6.15 15.76 6.15m-36.9 0c11.21 0 16.74-6.39 16.74-16.04V38.56h-6.86V61.8c0 6.16-3.43 10.17-9.88 10.17-6.51 0-9.94-4.01-9.94-10.17V38.56h-6.86v23.48c.01 9.52 5.53 15.97 16.8 15.97m-41.83-6.04c-7.84 0-12.84-6.04-12.84-14.01 0-8.02 5-14 12.84-14 7.79 0 12.84 5.98 12.84 14 0 7.97-5.05 14.01-12.84 14.01m0 6.04c11.62 0 19.82-8.48 19.82-20.05 0-11.56-8.19-20.05-19.82-20.05-11.62 0-19.82 8.48-19.82 20.05.01 11.57 8.2 20.05 19.82 20.05m-24.98-.69V38.56h-6.8v15.86h-20.16V38.56h-6.8v38.76h6.8V60.41h20.16v16.91h6.8zm-55.49.75c6.74 0 12.14-2.79 15.98-7.03V56.51h-18.36v5.99h11.56v6.04c-1.74 1.63-5.23 3.49-9.18 3.49-7.67 0-13.37-5.93-13.37-14.06s5.7-14 13.37-14c4.36 0 8.02 2.27 10.05 5.17l5.58-3.14c-3.14-4.47-8.08-8.08-15.63-8.08-11.21 0-20.34 7.9-20.34 20.05 0 12.14 9.13 20.1 20.34 20.1m-25.5-.75V38.56h-6.8v26.9l-19.82-26.9h-6.97v38.76h6.8V49.66l20.22 27.66h6.57zm-40.5-38.76h-6.8v38.76h6.8V38.56zm-25.85 18.3h-9.3V44.54h9.3c3.84 0 6.62 2.44 6.62 6.16.01 3.72-2.78 6.16-6.62 6.16m13.89 20.46l-9.47-15.23c4.65-.75 9.18-4.47 9.18-11.39 0-7.15-5-12.14-12.67-12.14h-17.03v38.76h6.8V62.85h6.74l8.6 14.47h7.85zm-45.38-13.43h-13.95l6.97-18.48 6.98 18.48zm12.5 13.43l-15.22-38.76h-8.48l-15.22 38.76h7.73l2.85-7.44h17.78l2.85 7.44h7.71zm-41.37 0v-5.99H82.94V60.58h19.35v-5.99H82.94V44.54h19.76v-5.99H76.14v38.76h26.56zm-31.37 0v-5.99H54.24V38.56h-6.8v38.76h23.89zm-43.58.69c7.84 0 12.61-4.07 15.57-8.72l-5.81-2.96c-1.86 3.25-5.58 5.64-9.76 5.64-7.67 0-13.36-5.87-13.36-14.01 0-8.13 5.69-14 13.36-14 4.18 0 7.9 2.44 9.76 5.64l5.81-2.96c-2.9-4.65-7.73-8.72-15.57-8.72-11.45 0-20.34 8.14-20.34 20.05s8.89 20.04 20.34 20.04" clip-path="url(#b)" fill="#121a45"/></svg>