
<svg xmlns="http://www.w3.org/2000/svg" width="720" height="720" viewBox="0 0 719.996 720.004"><path fill-rule="evenodd" clip-rule="evenodd" fill="#7d7fbd" d="M206.473 560.277l-66.032 29.883 27.497-68.414"/><path fill-rule="evenodd" clip-rule="evenodd" fill="#004b8c" d="M140.734 589.867l47.664-47.66 18.075 18.07"/><path fill-rule="evenodd" clip-rule="evenodd" fill="#7d7fbd" d="M153.578 214.855l-30.027-66.031 68.437 27.477"/><path fill-rule="evenodd" clip-rule="evenodd" fill="#004b8c" d="M123.863 148.973l47.645 47.808-17.93 18.074"/><path fill-rule="evenodd" clip-rule="evenodd" fill="#7d7fbd" d="M113.094 415.52L0 372.938l113.094-48.266"/><path fill-rule="evenodd" clip-rule="evenodd" fill="#004b8c" d="M.434 372.938h112.66v42.582m193.48-302.551L349.156 0l48.27 112.969"/><path fill-rule="evenodd" clip-rule="evenodd" fill="#7d7fbd" d="M349.156.457v112.512h-42.582"/><path fill-rule="evenodd" clip-rule="evenodd" fill="#004b8c" d="M327.348 606.906l42.433 113.098 48.246-113.098"/><path fill-rule="evenodd" clip-rule="evenodd" fill="#7d7fbd" d="M369.781 719.562V606.906h-42.433m279.539-193.484l113.109-42.582-113.109-48.266"/><path fill-rule="evenodd" clip-rule="evenodd" fill="#004b8c" d="M719.547 370.84h-112.66v42.582"/><path fill-rule="evenodd" clip-rule="evenodd" fill="#7d7fbd" d="M549.82 202.301l30.028-66.031-68.442 27.496"/><path fill-rule="evenodd" clip-rule="evenodd" fill="#004b8c" d="M579.559 136.562l-47.672 47.665 17.933 18.074"/><path fill-rule="evenodd" clip-rule="evenodd" fill="#7d7fbd" d="M523.07 552.664l67.524 26.289-31.207-66.922"/><path fill-rule="evenodd" clip-rule="evenodd" fill="#004b8c" d="M590.453 578.664l-50.344-44.969-17.039 18.969"/><path d="M356.934 614.375c140.141 0 253.832-113.691 253.832-253.848 0-140.297-113.691-253.848-253.832-253.848-140.293 0-253.844 113.551-253.844 253.848 0 140.157 113.551 253.848 253.844 253.848" fill-rule="evenodd" clip-rule="evenodd" fill="#fff"/><path d="M356.934 614.375c140.141 0 253.832-113.691 253.832-253.848 0-140.297-113.691-253.848-253.832-253.848-140.293 0-253.844 113.551-253.844 253.848 0 140.157 113.551 253.848 253.844 253.848z" fill="none" stroke="#004b8c" stroke-width="6.275" stroke-miterlimit="2.613"/><path d="M359.18 546.832c102.781 0 186.016-83.211 186.016-186.012 0-102.781-83.234-186.012-186.016-186.012-102.801 0-186.012 83.23-186.012 186.012 0 102.801 83.211 186.012 186.012 186.012" fill-rule="evenodd" clip-rule="evenodd" fill="#7d7fbd"/><path d="M359.18 546.832c102.781 0 186.016-83.211 186.016-186.012 0-102.781-83.234-186.012-186.016-186.012-102.801 0-186.012 83.23-186.012 186.012 0 102.801 83.211 186.012 186.012 186.012z" fill="none" stroke="#fff" stroke-width="4.183" stroke-linecap="square" stroke-miterlimit="2.613"/><path d="M359.18 547.285c82.32 0 149.098-83.523 149.098-186.465 0-102.93-66.777-186.449-149.098-186.449-82.34 0-149.117 83.52-149.117 186.449-.001 102.942 66.777 186.465 149.117 186.465z" fill="none" stroke="#fff" stroke-width="4.183" stroke-linecap="square" stroke-miterlimit="2.613"/><path d="M359.18 547.285c46.148 0 83.664-83.523 83.664-186.465 0-102.93-37.516-186.449-83.664-186.449-46.172 0-83.668 83.52-83.668 186.449 0 102.942 37.496 186.465 83.668 186.465z" fill="none" stroke="#fff" stroke-width="4.183" stroke-linecap="square" stroke-miterlimit="2.613"/><path fill="none" stroke="#fff" stroke-width="4.183" stroke-miterlimit="2.613" d="M359.18 546.395V175.262M545.777 367.25l-370.535-.145m337.227 99.79H207.531m253.078 47.671H257.27m253.101-257.277h-304.5m254.738-49.902H255.176"/><path fill-rule="evenodd" clip-rule="evenodd" d="M178.395 315.418h361.113"/><path fill="none" stroke="#fff" stroke-width="4.183" stroke-miterlimit="2.613" d="M178.395 315.418h361.113"/><path fill-rule="evenodd" clip-rule="evenodd" d="M180.469 414.918h356.945"/><path fill="none" stroke="#fff" stroke-width="4.183" stroke-miterlimit="2.613" d="M180.469 414.918h356.945"/><path d="M537.867 358.887c1.781 3.426 2.672 5.234 2.672 5.234 6.73 15.539-10.457 3.586-10.457 3.586 1.664 12.535-12.84 1.641-12.84 1.641 4.047 9.855-7.762 3.133-7.762 3.133-1.059 9.855-13.906-3.133-13.906-3.133s0-.309 0 0c2.098 12.387-10 .438-10 .438s-.309-.746 0 0c3.879 11.203-11.516.309-11.516.309s-.148-.457 0 0c5.398 10.602-12.699.293-12.699.293s0-1.039 0 0c.91 8.672-13.137-.293-13.137-.293s-.312-.746 0 0c3.594 11.062-14.793-1.055-14.793-1.055s-.895-3.137 0 0c2.984 11.949-13.449-1.332-13.449-1.332s-.602-1.348 0 0c3.133 10.004-15.395-2.551-15.395-2.551l-9.254 8.363s4.625.746 8.961 7.176c0 0-10.312.293-14.199 9.113l1.352.746c19.422-1.781 30.777 16.145 30.777 16.145 27.039-5.227 37.352-32.27 37.352-32.27 6.266 13.594 29.137 19.715 29.137 19.715-9.426 15.688-7.328 40.484-7.328 40.484-12.391 12.555-7.324 34.219-7.324 34.219-17.617 9.422-24.797 27.039-24.797 27.039-31.234-7.32-41.523 22.867-41.523 22.867 18.672-63.355-8.383-105.93-8.383-105.93 22.406 119.379-49.742 110.562-49.742 110.562-73.211-3.594-50.797-77.242-50.797-77.242 8.219-23.902 26.891-38.41 26.891-38.41l-43.473-21.805c-17.637 8.215-30.191 12.406-30.191 12.406l-2.098 29.133c3.152 4.031 4.191 10.293 4.191 10.293l7.324 1.059c7.16 20.773 1.039 31.066 1.039 31.066l-16.582-16.582c-17.637-9.254-12.551-22.844-12.551-22.844l-2.098-23.762c-11.352-15.543-5.062-22.867-5.062-22.867 4.027-9.402 15.52-13.445 15.52-13.445l8.219-2.098a44.67 44.67 0 0 1-3.277-9.402" fill-rule="evenodd" clip-rule="evenodd" fill="#ffdc88"/><path d="M411.906 456.438c13.449 31.086 9.273 44.68 9.273 44.68 13.598-12.992 12.539-35.254 12.539-35.254 8.215 14.48 15.543 30.023 15.543 30.023 6.121-24.945-7.328-43.617-7.328-43.617 15.543 15.543 32.125 16.578 32.125 16.578-7.16-16.578-17.617-24.797-17.617-24.797 16.578 0 24.941-9.422 24.941-9.422-19.711-11.352-37.352-11.352-37.352-11.352 39.445-2.094 44.68-29.133 44.68-29.133-19.719 4.191-36.316 10.461-36.316 10.461 15.543-6.27 12.41-22.871 12.41-22.871l-5.23-7.305c-14.488 28.078-60.219 34.801-60.219 34.801l1.656 7.781c10.895 15.231 10.895 39.427 10.895 39.427" fill-rule="evenodd" clip-rule="evenodd" fill="#e3bf01"/><path d="M421.93 500.371s14.633-49.309-19.137-87.262m11.215 10.168c39.59 49.305 34.965 72.32 34.965 72.32m32.41-60.968c-45.711 1.059-71.57-16.867-71.57-16.867 34.219 33.301 64.246 50.945 64.246 50.945" fill="none" stroke="#928900" stroke-width="2.092" stroke-miterlimit="2.613"/><path d="M488.418 395.035c-39.906 25.398-84.875 19.883-84.875 19.883 56.031-5.086 56.031-40.488 56.031-40.488" fill="none" stroke="#928900" stroke-width="2.092" stroke-miterlimit="2.613"/><path d="M246.668 358.887c-.75-3.734-.75-6.117-.75-6.117l-19.711-11.52-14.504 17.637h-19.715l20.605-33.18c-1.93-17.617 15.688-14.48 15.688-14.48 10.316 1.035 9.277 14.48 9.277 14.48l23.301 15.543c12.992-37.352 26.441-38.848 33.766-45.113 7.32-6.121 11.949-25.398 11.949-25.398-10.457-.457-13.445-3.594-13.445-3.594l-2.68 5.09-.453 10.895-15.086 2.094-1.496-4.629 9.254-2.094v-5.668c-.434-9.879-9.254-4.645-9.254-4.645l-6.285 7.781h-10.293l-.602-20.316 18.215-25.398 2.555-13.449c5.664-7.324 9.855-8.816 9.855-8.816l1.039-8.363 8.219 3.734.602-8.816c6.266 2.094 10.914 6.719 10.914 6.719l21.809-1.055c14.484 6.141 26.441 21.23 26.441 21.23 15.996-6.125 23.754 6.262 23.754 6.262 43.625-16.121 71.117 14.047 71.117 14.047 47.211 46.32 78.148 100.562 87.113 117.141" fill-rule="evenodd" clip-rule="evenodd" fill="#ffdc88"/><path d="M211.703 358.887l-4.172 5.234c3.133 9.398-2.094 13.445-2.094 13.445l5.227 6.266-17.785 22.867-6.121-18.676c-8.363-22.867 5.23-29.137 5.23-29.137m176.903 6.727c24.797-3.59 38.848 16.723 38.848 16.723-12.406 0-16.293 8.219-16.293 8.219 18.82-5.227 30.777 16.145 30.777 16.145-15.543-2.094-19.711 5.668-19.711 5.668 11.496 5.223 19.25 17.18 19.25 17.18 1.062 7.781-5.66 6.141-5.66 6.141-11.516-5.227-13.59 3.133-13.59 3.133 15.516 11.352 9.855 23.906 9.855 23.906-2.555-6.289-9.855-.602-9.855-.602 0-56.485-33.621-96.513-33.621-96.513" fill-rule="evenodd" clip-rule="evenodd" fill="#ffdc88"/><path d="M317.488 215.75c56.031 33.18 28.992 92.34 28.992 92.34 37.352-64.391-28.992-92.34-28.992-92.34" fill-rule="evenodd" clip-rule="evenodd" fill="#a90"/><path d="M287.301 343.348l-13.449 13.445c-17.617 11.496-23.906 11.496-23.906 11.496l-5.062-14.027 11.352-16.145 4.625 3.133.602 10.457 4.172 4.051 11.371-7.18-3.152-5.23" fill-rule="evenodd" clip-rule="evenodd" fill="#c9aa03"/><path d="M306.574 270.738c22.266-4.191 18.074-23.902 18.074-23.902 4.191 22.844-20.605 31.664-20.605 31.664" fill-rule="evenodd" clip-rule="evenodd" fill="#928900"/><path d="M336.168 247.871s1.035 46.77-23.906 74.703l15.543-3.133c9.398-4.625 7.301-23.762 7.301-23.762 13.015-18.218 1.062-47.808 1.062-47.808m-27.039 78.895c-11.375 1.035-17.637 16.582-17.637 16.582-2.098-8.82 1.637-18.074 1.637-18.074 4.625-4.793 10.914-6.871 10.914-6.871m-12.551 34.367c-30.031 26.891-45.574 33.16-45.574 33.16 1.039 14.48-6.266 16.578-6.266 16.578V431.5c7.305 5.227 6.266 18.672 6.266 18.672l-7.32-5.082c-6.27-9.402-4.172-24.941-4.172-24.941L231.27 406.7l1.059-4.191-2.094-4.172-1.953-11.371 8.219-9.398 14.504-6.125 8.363-1.055 28.988-22.848c9.398-1.06 3.136 5.23 3.136 5.23" fill-rule="evenodd" clip-rule="evenodd" fill="#fff"/><path d="M373.949 310.184l-1.031-16.598c9.414-27.039 6.719-37.352 6.719-37.352l-1.492-9.398c13.449-7.184 24.941-15.543 24.941-15.543v8.816c-10.457 8.363-18.672 10.895-18.672 10.895 4.047 27.059-6.27 43.637-6.27 43.637" fill-rule="evenodd" clip-rule="evenodd" fill="#cbb500"/><path fill-rule="evenodd" clip-rule="evenodd" fill="#c9aa03" d="M285.367 263.414l9.258-8.219 7.32-1.035-1.035 5.227-5.226-1.059"/><path d="M310.164 222.035c-2.094-16.602-10.312-21.828-10.312-21.828 2.094 14.504 0 19.734 0 19.734" fill-rule="evenodd" clip-rule="evenodd" fill="#928900"/><path d="M308.07 259.387c20.316-2.695 7.324-20.773 7.324-20.773 1.497 15.546-7.324 20.773-7.324 20.773" fill-rule="evenodd" clip-rule="evenodd" fill="#fff"/><path d="M218.883 329.898c8.363 3.137 11.953-1.637 11.953-1.637l15.082 17.18-16.141-12.406c-8.367 3.133-10.894-3.137-10.894-3.137" fill-rule="evenodd" clip-rule="evenodd" fill="#cbb500"/><path d="M254.137 437.762c2.098 11.957-2.531 19.277-2.531 19.277 9.254-5.828 6.121-18.676 6.121-18.676" fill-rule="evenodd" clip-rule="evenodd" fill="#a90"/><path d="M205.438 377.566c-10.461 5.227-16.586 9.855-16.586 9.855 11.352-3.59 18.078-7.18 18.078-7.18" fill-rule="evenodd" clip-rule="evenodd" fill="#cbb500"/><path d="M191.988 383.398c-3.137-10.918 4.625-21.375 4.625-21.375l20.172-33.762c0-6.125 6.27-16 6.27-16-14.027-2.078-10.461 13.445-10.461 13.445l-20.605 33.18c-13.012 8.82-6.289 27.496-6.289 27.496m116.706-165.405l-29.594 29.594c-2.094 14.48-8.816 25.398-8.816 25.398h-7.16l-.602-20.316 16.578-22.723c1.039 6.121 0 12.41 0 12.41l27.039-25.398" fill-rule="evenodd" clip-rule="evenodd" fill="#fff"/><path fill-rule="evenodd" clip-rule="evenodd" fill="#cbb500" d="M263.559 268.641l-2.7 2.699-1.035-16.746 10.461-9.856 2.527.602-11.351 9.855m13.449-8.359c8.82-17.641 22.266-7.785 22.266-7.785-4.047 7.328-10.918 8.82-10.918 8.82 13.594-9.859-.891-7.762-.891-7.762-5.226 1.039-10.457 6.727-10.457 6.727"/><path d="M284.766 243.535c1.953-.746 3.133-2.078 2.844-2.988-.309-.895-2.098-1.184-4.047-.438-1.93.746-3.133 1.93-2.824 2.988.292.895 2.077 1.184 4.027.438" fill-rule="evenodd" clip-rule="evenodd" fill="#cbb500"/><path fill-rule="evenodd" clip-rule="evenodd" fill="#a90" d="M274.449 230.254l25.403-14.942.457-2.699"/><path fill-rule="evenodd" clip-rule="evenodd" fill="#cbb500" d="M329.441 200.207l-8.816 17.035 10.313-15.98m-51.86 14.05l3.156 10.293-1.66-12.39m3.735-2.695l1.496-1.04 1.496 12.555"/><path fill-rule="evenodd" clip-rule="evenodd" fill="#808285" d="M286.859 207.988l9.258-4.629-1.492-.601"/><path fill-rule="evenodd" clip-rule="evenodd" fill="#a90" d="M288.355 207.387l1.641-1.039 2.094 12.992m4.027-15.981l1.637 12.391-3.566-11.352"/><path d="M308.07 278.5c5.684 1.059 8.82 0 8.82 0l-1.039 5.684c-2.988 1.039-4.648 0-4.648 0-12.988 26.438-22.848 27.043-22.848 27.043 22.848-22.872 19.715-32.727 19.715-32.727m-21.812 26c-19.129 16.582-24.797 47.207-24.797 47.207l-.602-10.457c17.641-44.074 25.399-36.75 25.399-36.75" fill-rule="evenodd" clip-rule="evenodd" fill="#fff"/><path d="M282.234 385.93c18.676-2.531 27.93-10.918 27.93-10.918-7.18 14.504-22.266 14.504-22.266 14.504" fill-rule="evenodd" clip-rule="evenodd" fill="#a90"/><path d="M308.07 378.602c1.637 10.914-1.496 19.734-1.496 19.734l-17.328-9.129c15.981-2.531 18.824-10.605 18.824-10.605" fill-rule="evenodd" clip-rule="evenodd" fill="#928900"/><path d="M307.633 201.262c6.121 8.82 7.16 17.039 7.16 17.039l2.695-2.551c-2.695-8.82-9.855-14.488-9.855-14.488" fill-rule="evenodd" clip-rule="evenodd" fill="#a90"/><path d="M317.926 244.281c5.688 13.445-6.121 14.504-6.121 14.504 16.582 1.039 6.121-14.504 6.121-14.504" fill-rule="evenodd" clip-rule="evenodd" fill="#cbb500"/><path d="M355.883 221.438c8.211 8.816 11.348 24.336 11.348 24.336 3.594-12.844 12.406-18.074 12.406-18.074-8.812 3.133-12.84 7.184-12.84 7.184-3.735-10.775-10.914-13.446-10.914-13.446" fill-rule="evenodd" clip-rule="evenodd" fill="#a90"/><path d="M310.164 355.297c3.133 12.41-4.625 17.641-4.625 17.641-8.363 4.172-16.145 1.039-16.145 1.039 11.953-2.535 13.59-4.629 13.59-4.629 5.086-2.7 7.18-14.051 7.18-14.051" fill-rule="evenodd" clip-rule="evenodd" fill="#ccbe00"/><path d="M248.453 384.891c17.641-2.555 28.551-12.41 28.551-12.41 17.184-14.648 16.125-22.41 16.125-22.41-3.133 4.773-7.324 7.762-7.324 7.762l-29.57 22.863" fill-rule="evenodd" clip-rule="evenodd" fill="#cbb500"/><path d="M390.094 224.566c18.68 4.191 28.535 6.266 28.535 6.266-7.762 6.145-17.617 20.773-17.617 20.773 11.957 11.348 18.074-.602 18.074-.602 35.254 29.59 59.77 29.137 59.77 29.137-33.77-15.691-42.582-25.98-42.582-25.98 16.121 6.723 20.168 1.035 20.168 1.035-22.723-8.816-31.523-23.902-31.523-23.902 13.449 3.59 25.402 9.855 25.402 9.855-29.141-26.437-60.227-16.582-60.227-16.582" fill-rule="evenodd" clip-rule="evenodd" fill="#fff"/><path d="M297.176 369.348l-.457-5.688c9.855-10.457 11.953-21.809 11.953-21.809l8.219 6.727c-.457-14.488 5.832-16.586 14.648-18.223 8.801-1.492 13.445-2.555 13.445-2.555l-8.816 7.328c21.809-2.094 24.793-11.953 24.793-11.953 1.641 12.406-4.625 18.074-9.254 20.773-4.648 2.531-11.949 2.094-16.602-1.059-4.625-3.133-3.566 1.496-3.129 4.043.457 2.68-.438 6.27-4.629 8.824-4.191 2.676-16.582-5.086-16.582-5.086-3.73 9.256-13.589 18.678-13.589 18.678" fill-rule="evenodd" clip-rule="evenodd" fill="#ffec77"/><path fill-rule="evenodd" clip-rule="evenodd" fill="#ccbe00" d="M241.727 403.566v26.442l3.156-3.137-.602-21.23"/><path d="M245.316 402.965c6.289-5.684 4.629-16 4.629-16-1.929 7.781-4.629 16-4.629 16" fill-rule="evenodd" clip-rule="evenodd" fill="#cbb500"/><path d="M255.777 453.305c4.629 27.039 5.684-14.484 5.684-14.484l-3.734-.457c1.039 9.863-1.95 14.941-1.95 14.941" fill-rule="evenodd" clip-rule="evenodd" fill="#c9aa03"/><path fill-rule="evenodd" clip-rule="evenodd" fill="#ccbe00" d="M207.531 364.121l-1.058-5.234 14.504-21.809 6.269 5.231m87.547 59.91l-8.82-3.883c3.156-10.312 1.66-18.676 1.66-18.676l2.074-4.191c9.879-5.082 13.016-12.41 13.016-12.41 8.961 7.781 15.684 30.34 15.684 30.34-4.938 6.578-12.699 14.336-12.699 14.336"/><path d="M403.086 232.328c-15.086 10.914-24.941 14.508-24.941 14.508 4.188 21.352-5.688 47.805-5.688 47.805" fill-rule="evenodd" clip-rule="evenodd" fill="#c9aa03"/><path d="M406.68 260.426c59.16 45.113 67.98 20.168 67.98 20.168m-77.836-10.914c54.992 42 69.473 17.641 69.473 17.641m-68.442-5.688c56.484 33.184 58.129 13.008 58.129 13.008m-62.296-6.286c41.09 28.098 53.473 13.012 53.473 13.012m-50.337 1.492c43.035 19.277 44.676 2.098 44.676 2.098m-53.039 6.723c42.582 16.582 44.676.582 44.676.582M388 323.176c27.5 7.18 37.809-4.191 37.809-4.191m-41.395 9.277c25.398 9.398 30.047-3.59 30.047-3.59m-39.762 16.578c19.281 2.098 24.656-5.082 24.656-5.082" fill="none" stroke="#cbb500" stroke-width="1.046" stroke-linecap="square" stroke-miterlimit="2.613"/><path d="M356.336 361.566c19.715 2.555 23.902-12.535 23.902-12.535" fill="none" stroke="#bcbec0" stroke-width="1.046" stroke-linecap="square" stroke-miterlimit="2.613"/><path d="M376.652 332.434c23.016 10.621 31.52-1.496 31.52-1.496m-44.508 18.093c25.398 4.172 30.023-8.215 30.023-8.215" fill="none" stroke="#cbb500" stroke-width="1.046" stroke-linecap="square" stroke-miterlimit="2.613"/><path d="M475.715 282.09c21.957 35.855 63.191 82.633 63.191 82.633-56.777-61.262-64.246-81.738-64.246-81.738m-6.722 4.937c36.746 57.211 62.145 79.785 62.145 79.785-18.816-11.059-63.496-78.75-63.496-78.75" fill-rule="evenodd" clip-rule="evenodd" fill="#cbb500"/><path d="M348.555 367.707c13.445-2.695 15.109-19.129 15.109-19.129 15.082-2.699 12.988-17.188 12.988-17.188C394.289 327.37 388 312.261 388 312.261c18.68-11.496 4.629-24.34 4.629-24.34 10.625-8.363 3.734-18.531 3.734-18.531 10.316 1.035 10.316-10.004 10.316-10.004 9.422 5.062 14.5-2.098 14.5-2.098 36.297 28.992 63.793 22.27 63.793 22.27-25.398 6.266-66.344-28.988-66.344-28.988-4.621 11.809-16.578 2.094-16.578 2.094-1.64 17.016-14.05 10.289-14.05 10.289 8.824 16.148-3.133 23.906-3.133 23.906 14.488 13.906-2.094 22.727-2.094 22.727 4.195 19.711-10.895 17.785-10.895 17.785 1.641 14.938-11.809 18.672-11.809 18.672-9.855 37.355-38.988 10.293-38.988 10.293 12.989 18.676 27.474 11.371 27.474 11.371" fill-rule="evenodd" clip-rule="evenodd" fill="#ccbe00"/><path d="M486.008 281.633c-6.121.457-10.293.457-10.293.457-2.695 5.23-8.816 5.977-8.816 5.977-2.695 6.266-8.672 7.012-8.672 7.012-3.594 7.781-7.906 7.035-7.906 7.035-3.16 4.172-8.387 5.23-8.387 5.23-2.074 5.664-7.762 6.723-7.762 6.723-10.91 13.305-17.637 11.641-17.637 11.641-1.785 4.938-6.27 5.684-6.27 5.684-4.629 6.27-9.855 6.727-9.855 6.727-2.242 3.734-6.121 4.773-6.121 4.773-4.797 8.215-10.457 7.18-10.457 7.18-5.688 9.855-18.676 11.496-18.676 11.496 14.031-8.363 15.082-12.535 15.082-12.535 11.355-4.645 13.449-8.215 13.449-8.215 5.23-2.098 4.168-4.648 4.168-4.648 7.781-2.078 10.316-5.23 10.316-5.23 4.797-3.137 6.289-6.266 6.289-6.266 7.762-2.535 11.348-5.688 11.348-5.688 5.836-2.531 7.328-6.723 7.328-6.723 6.723-3.133 8.363-7.305 8.363-7.305 5.66-2.098 5.66-3.59 5.66-3.59 9.883-3.59 8.824-8.363 8.824-8.363 7.781-2.094 10.312-5.684 10.312-5.684 7.324-3.137 8.363-6.727 8.363-6.727 6.289 0 9.566-2.094 9.566-2.094" fill-rule="evenodd" clip-rule="evenodd" fill="#cbb500"/><path d="M458.227 295.078c32.266 56.344 59.016 73.523 59.016 73.523-40.027-38.246-57.668-74.27-57.668-74.27m-8.821 6.724c33.012 50.367 58.871 70.824 58.871 70.824-30.34-21.953-60.223-70.078-60.223-70.078m-7.468 5.543c38.098 52.145 53.641 62.004 53.641 62.004-25.832-18.242-55.133-61.566-55.133-61.566m-6.27 6.284c28.242 38.391 51.402 55.719 51.402 55.719-40.047-32.707-52.746-55.285-52.746-55.285m-5.379 5.543c27.184 36.75 46.609 50.051 46.609 50.051-34.199-26.453-48.25-49.012-48.25-49.012m-7.179 4.191c20.48 30.773 42.73 45.113 42.73 45.113-33.449-23.16-44.367-44.68-44.367-44.68m-6.726 5.685c22.562 29.887 37.957 38.703 37.957 38.703-24.508-17.324-39.449-37.805-39.449-37.805m-7.012 4.789c21.812 24.199 31.668 31.961 31.668 31.961-16.895-12.992-33.02-30.922-33.02-30.922m-6.722 4.774c12.242 14.195 26.293 24.816 26.293 24.816-20.773-14.793-27.043-24.066-27.043-24.066m-8.524 5.683c11.367 10.457 20.172 15.832 20.172 15.832-10.297-5.23-22.852-15.543-21.504-15.832.75-.144 1.332 0 1.332 0" fill-rule="evenodd" clip-rule="evenodd" fill="#cbb500"/><path d="M343.324 426.414c-23.738 24.648-18.676 40.48-18.676 40.48 1.059 21.23 23.473 20.18 23.473 20.18 27.492-4.176 18.074-28.535 18.074-28.535-7.179-19.117-22.871-32.125-22.871-32.125" fill-rule="evenodd" clip-rule="evenodd" fill="#7d7fbd"/><path d="M314.355 385.93c7.762 10.168 14.031 7.18 14.031 7.18 3.59-5.832-5.23-13.906-5.23-13.906 6.887 9.422 4.48 12.555 4.48 12.555-3.734 2.679-13.281-5.829-13.281-5.829" fill-rule="evenodd" clip-rule="evenodd" fill="#a90"/><path d="M322.723 379.203c11.203 14.652 20.164 10.461 20.164 10.461 6.125-7.473-7.469-19.879-7.469-19.879 9.715 13.445 6.414 17.93 6.414 17.93-5.375 3.902-19.109-8.512-19.109-8.512" fill-rule="evenodd" clip-rule="evenodd" fill="#a90"/><path d="M335.566 369.348c7.758 10.145 14.047 7.16 14.047 7.16 3.594-5.809-3.133-10.461-3.133-10.461 5.664 7.328 2.387 9.133 2.387 9.133-3.734 2.82-13.301-5.832-13.301-5.832m12.989-2.844c7.93 10.168 14.195 7.324 14.195 7.324 3.445-5.973-2.531-9.418-2.531-9.418 4.938 7.469 1.031 8.363 1.031 8.363-3.727 2.844-12.695-6.269-12.695-6.269" fill-rule="evenodd" clip-rule="evenodd" fill="#a90"/><path d="M350.047 378.312c11.203 14.48 20.168 10.312 20.168 10.312 5.98-7.469-7.613-19.879-7.613-19.879 9.855 13.445 6.434 17.93 6.434 17.93-5.231 3.88-18.989-8.363-18.989-8.363m-4.77 27.641c8.07 12.094 15.23 9.254 15.23 9.254 5.23-5.52-4.918-16.125-4.918-16.125 7.012 11.043 4.168 14.488 4.168 14.488-4.316 2.84-14.48-7.617-14.48-7.617" fill-rule="evenodd" clip-rule="evenodd" fill="#a90"/><path d="M354.988 398.629c8.074 12.098 15.395 9.254 15.395 9.254 5.23-5.52-4.938-16.125-4.938-16.125 7.012 11.207 4.188 14.484 4.188 14.484-4.477 2.844-14.645-7.613-14.645-7.613" fill-rule="evenodd" clip-rule="evenodd" fill="#a90"/><path d="M363.664 388.457c8.051 11.953 15.375 9.133 15.375 9.133 5.086-5.539-4.918-16-4.918-16 7.012 11.062 4.172 14.508 4.172 14.508-4.484 2.675-14.629-7.641-14.629-7.641m-32.437 10.172c9.566 12.406 17.184 8.816 17.184 8.816 5.082-6.434-6.414-16.891-6.414-16.891 8.363 11.352 5.379 15.254 5.379 15.254-4.489 3.278-16.149-7.179-16.149-7.179" fill-rule="evenodd" clip-rule="evenodd" fill="#a90"/><path d="M343.324 426.414c-7.758-10.461-10.602-11.207-10.602-11.207-45.113 62.754 3.445 69.785 3.445 69.785-30.628-20.172 7.157-58.578 7.157-58.578" fill-rule="evenodd" clip-rule="evenodd" fill="#c9aa03"/><path d="M350.359 419.398c8.074 12.102 15.379 9.258 15.379 9.258 5.227-5.523-4.918-16.125-4.918-16.125 7.012 11.203 4.168 14.484 4.168 14.484-4.48 2.844-14.629-7.617-14.629-7.617" fill-rule="evenodd" clip-rule="evenodd" fill="#a90"/><path d="M360.82 411.617c8.07 12.117 15.23 9.273 15.23 9.273 5.23-5.539-4.918-16.141-4.918-16.141 7.012 11.059 4.168 14.504 4.168 14.504-4.335 2.825-14.48-7.636-14.48-7.636" fill-rule="evenodd" clip-rule="evenodd" fill="#a90"/><path d="M370.383 402.363c8.055 12.098 15.375 9.254 15.375 9.254 5.23-5.52-4.918-16.121-4.918-16.121 7.02 11.203 4.176 14.484 4.176 14.484-4.336 2.844-14.633-7.617-14.633-7.617m-14.649 28.676c6.867 12.863 14.34 10.77 14.34 10.77 5.688-4.938-3.137-16.434-3.137-16.434 5.832 11.805 2.535 14.797 2.535 14.797-4.628 2.387-13.738-9.133-13.738-9.133m11.805-7.16c6.723 12.848 14.195 10.75 14.195 10.75 5.664-4.918-3.129-16.434-3.129-16.434 5.809 11.812 2.527 14.797 2.527 14.797-4.628 2.387-13.593-9.113-13.593-9.113" fill-rule="evenodd" clip-rule="evenodd" fill="#a90"/><path d="M377.543 416.27c6.723 12.84 14.195 10.746 14.195 10.746 5.828-4.938-3.137-16.582-3.137-16.582 5.832 11.809 2.535 14.941 2.535 14.941-4.628 2.242-13.593-9.105-13.593-9.105m-12.555 24.937c7.93 16.582 17.492 14.34 17.492 14.34 7.473-6.121-3.293-21.062-3.293-21.062 6.887 15.086 2.695 18.82 2.695 18.82-6.12 2.703-16.894-12.098-16.894-12.098" fill-rule="evenodd" clip-rule="evenodd" fill="#a90"/><path d="M378.891 433.883c8.078 16.578 17.641 14.344 17.641 14.344 7.473-5.98-3.301-21.066-3.301-21.066 6.867 15.25 2.551 18.824 2.551 18.824-5.97 2.843-16.891-12.102-16.891-12.102m-9.258 22.555c2.395 11.668 8.66 11.668 8.66 11.668 5.539-2.703 1.203-13.598 1.203-13.598 1.926 10.461-1.203 12.098-1.203 12.098-4.172.749-8.66-10.168-8.66-10.168" fill-rule="evenodd" clip-rule="evenodd" fill="#a90"/><path d="M379.039 454.195c4.336 11.066 10.453 10.023 10.453 10.023 5.09-3.441-1.031-13.59-1.031-13.59 3.586 10.004.742 12.242.742 12.242-3.875 1.501-10.164-8.675-10.164-8.675" fill-rule="evenodd" clip-rule="evenodd" fill="#a90"/><path d="M388.148 449.277c3.445 11.207 9.707 10.754 9.707 10.754 5.23-3.133-.141-13.598-.141-13.598 2.984 10.176 0 12.105 0 12.105-4.175 1.204-9.566-9.261-9.566-9.261m-17.933 18.535c.75 11.781 7.039 12.699 7.039 12.699 5.828-1.809 2.984-13.297 2.984-13.297.441 10.598-2.844 11.805-2.844 11.805-4.335.286-7.179-11.207-7.179-11.207" fill-rule="evenodd" clip-rule="evenodd" fill="#a90"/><path d="M380.531 466.605c.891 11.664 7.18 12.699 7.18 12.699 5.828-1.785 2.992-13.301 2.992-13.301.434 10.605-2.992 11.809-2.992 11.809-4.188.149-7.18-11.207-7.18-11.207" fill-rule="evenodd" clip-rule="evenodd" fill="#a90"/><path d="M390.555 465.262c.75 11.809 7.012 12.699 7.012 12.699 5.836-1.785 2.992-13.141 2.992-13.141.453 10.605-2.844 11.789-2.844 11.789-4.336.168-7.16-11.347-7.16-11.347m-22.723 11.207l-.145 12.551c0 8.07 5.082 1.949 5.082 1.949l6.578-12.117-7.633 10.625c-1.5 3.137-2.391-.602-2.391-.602" fill-rule="evenodd" clip-rule="evenodd" fill="#a90"/><path d="M378.145 478.703l1.953 12.41c1.492 7.91 5.379.898 5.379.898l4.336-12.992-5.547 11.781c-.891 3.445-2.383-.141-2.383-.141m7.929-11.807l1.633 12.41c1.352 7.922 5.379 1.031 5.379 1.031l4.625-12.988-5.828 11.664c-1.039 3.426-2.391-.168-2.391-.168" fill-rule="evenodd" clip-rule="evenodd" fill="#a90"/><path d="M368.891 369.348c32.559 43.762 33.621 92.777 33.621 92.777 0-63.207-33.621-96.512-33.621-96.512" fill-rule="evenodd" clip-rule="evenodd" fill="#cbb500"/><path d="M354.238 437.762c-23.613-27.184-44.074-37.352-44.074-37.352 32.414 4.195 44.074 37.352 44.074 37.352" fill-rule="evenodd" clip-rule="evenodd" fill="#928900"/><path d="M479.887 281.633c19.738 31.086 35.715 47.664 35.715 47.664-19.137-26.438-33.16-48.246-33.16-48.246m-11.368 5.23c8.211 18.363 36.016 49.887 36.016 49.887-21.082-29.574-34.82-50.637-34.82-50.637m-7.754 5.981c16.121 28.969 37.035 53.477 37.035 53.477-15.543-12.246-39.137-52.73-39.137-52.73m-7.781 7.471c18.988 30.914 36.172 48.102 36.172 48.102-26-33.766-34.512-50.055-34.512-50.055m-8.816 6.121c20.461 31.684 34.652 46.461 34.652 46.461-23.301-22.988-36.293-45.715-36.293-45.715m-7.039 6.583c3.742 9.562 35.574 42.723 35.574 42.723-23.906-19.715-37.668-41.977-37.668-41.977m-5.976 5.226c18.246 23.617 32.289 37.062 32.289 37.062-20.332-16.289-33.18-36.023-33.18-36.023" fill-rule="evenodd" clip-rule="evenodd" fill="#cbb500"/><path d="M321.371 411.617c-18.965 32.121-17.93 57.23-13.445 68.438 4.336 11.207 2.84 16.293-3.445 13.738-6.266-2.531-6.727-6.418-6.727-6.418-7.613-33.469 6.727-53.492 6.727-53.492 6.285-11.641 16.89-22.266 16.89-22.266" fill-rule="evenodd" clip-rule="evenodd" fill="#fff"/><path d="M368.289 491.715c-16.582 23.305-38.41 28.531-38.41 28.531m51.855-25.391c-9.277 18.215-28.527 28.07-28.527 28.07m2.074-37.351c-9.859 19.137-41.527 26.891-41.527 26.891m13.594-36.289c-14.051 9.398-30.172 8.363-30.172 8.363m63.785-2.391c8.074 26.75 18.676 33.16 18.676 33.16m-4.024-28.824c7.16 16.434 14.199 19.258 14.199 19.258m-39.597-19.258c2.531 18.969 13.879 35.551 13.879 35.551m-26.434-36.461c1.348 19.426 10.895 37.812 10.895 37.812m-20.461-45.866c-5.688 24.801 3.133 42.414 3.133 42.414m8.218-33.903c-14.195 10.918-35.711 14.484-35.711 14.484m20.914-35.253c-17.18 7.613-28.965 4.625-28.965 4.625 12.387-26.148 33.906-26.438 33.906-26.438m-5.085 26.289s-14.797 6.438-14.051 39.16m-13.277-54.242c9.398 4.625 28.82-.602 28.82-.602m-24.051-13.882c8.508 6.723 26.605 6.41 26.605 6.41m-18.675-20.77c9.711 12.262 24.195 12.551 24.195 12.551m-13.3-25.687c5.227 13.738 19.277 17.613 19.277 17.613m-41.981 58.129c10.75-28.387 27.641-32.27 27.641-32.27m-25.855-12.41c23.617-16.867 35.254-6.719 35.254-6.719m-27.473-8.363c25.09-9.258 34.656-3.281 34.656-3.281m-25.855-8.363c10.914-3.902 14.191-2.84 14.191-2.84" fill="none" stroke="#928900" stroke-width="1.046" stroke-miterlimit="2.613"/><path d="M392.195 369.348l-.602 20.773c8.363-9.133 16.145-7.637 16.145-7.637-6.289-9.855-15.543-13.136-15.543-13.136m1.184 20.918c17.488-6.125 29.133 16.434 29.133 16.434-9.543-2.094-18.219 3.879-18.219 3.879 6.574-7.758 11.809-7.613 11.809-7.613-6.579-10.025-22.723-12.7-22.723-12.7" fill-rule="evenodd" clip-rule="evenodd" fill="#ffef96"/><path d="M334.816 401.473c8.07 8.359 12.41 4.48 12.41 4.48-6.14-1.348-12.41-4.48-12.41-4.48m-17.035-13.016c6.434 6.727 10.023 3.594 10.023 3.594-5.081-1.039-10.023-3.594-10.023-3.594m11.059-5.059c8.074 8.219 12.555 4.316 12.555 4.316-6.29-1.331-12.555-4.316-12.555-4.316m27.496-1.062c8.07 8.219 12.555 4.34 12.555 4.34-6.289-1.348-12.555-4.34-12.555-4.34m-17.039-10.895c6.434 6.559 10.004 3.426 10.004 3.426-5.063-1.039-10.004-3.426-10.004-3.426m13.301-2.093c6.418 6.578 9.855 3.426 9.855 3.426-4.93-1.04-9.855-3.426-9.855-3.426m-4.043 39.445c8.07 8.219 12.406 4.316 12.406 4.316-6.121-1.328-12.406-4.316-12.406-4.316m9.879-7.32c8.047 8.359 12.391 4.48 12.391 4.48-6.13-1.348-12.391-4.48-12.391-4.48m5.519 12.699c7.926 8.359 12.41 4.48 12.41 4.48-6.289-1.347-12.41-4.48-12.41-4.48m-10.746 7.758c8.043 8.359 12.531 4.484 12.531 4.484-6.269-1.348-12.531-4.484-12.531-4.484m5.059 11.804c6.891 9.254 11.809 5.98 11.809 5.98-5.981-2.093-11.809-5.98-11.809-5.98m11.808-7.32c6.867 9.422 11.66 6.121 11.66 6.121-5.972-2.074-11.66-6.121-11.66-6.121m13.758 13.301c6.871 9.254 11.641 5.977 11.641 5.977-5.981-2.094-11.641-5.977-11.641-5.977m-13.898 7.012c7.172 9.711 12.398 6.289 12.398 6.289-6.43-2.243-12.398-6.289-12.398-6.289" fill-rule="evenodd" clip-rule="evenodd" fill="#fff"/><path d="M417.887 260.426c17.637 16.289 44.816 21.953 44.816 21.953-24.047-2.238-46.602-21.496-46.602-21.496m-11.206 4.625c16.578 15.832 42.727 23.449 42.727 23.449-22.266-4.773-44.367-22.098-44.367-22.098m-4.939 8.797c13.738 11.371 36.895 18.984 36.895 18.984-9.113-.309-37.043-17.18-37.043-17.18m-1.805 6.27c21.523 13.445 32.125 16.578 32.125 16.578-22.852-8.508-33.016-15.832-33.016-15.832m1.641 11.661c7.473 7.617 28.242 11.207 28.242 11.207-12.988-.605-28.242-9.566-28.242-9.566m-2.824 8.507c9.547 6.289 25.691 8.215 25.691 8.215-17.789-1.492-26.293-7.762-26.293-7.762m-5.226 9.426c4.77 4.172 21.805 5.227 21.805 5.227-8.504 1.184-21.516-3.734-21.516-3.734m-50.488-112.512l-13.012 14.484 14.508-13.445m-22.578 9.273l1.492-14.797-1.781.293m12.55 22.121l17.329-11.496 1.351 1.637m-13.016 13.449l21.231-4.191 2.68 2.093m-18.223 8.364l22.871.457.43 2.531m-16.578 4.191l19.714 5.231-1.035 2.094m-14.05 2.074l13.011 5.687v2.532m-9.273 4.652l8.211 3.73v2.532l-8.211-6.723m1.051 11.352l7.761 3.734 1.043 3.137m-9.402 1.949l9.859 7.324v2.531m-11.957-1.929l10.918 9.254-.461 2.531m-14.043-3.571L362 309.586l-1.93 1.641" fill-rule="evenodd" clip-rule="evenodd" fill="#cbb500"/><path fill="none" stroke="#fff" stroke-width="4.183" stroke-miterlimit="2.613" d="M325.707 466.895h42.582m-9.109-20.75v35.55"/><path d="M375.613 356.793a7390.38 7390.38 0 0 0 24.797 11.496c-17.637-6.266-26.891-10.457-26.891-10.457" fill-rule="evenodd" clip-rule="evenodd" fill="#cbb500"/><path d="M379.637 227.699c-17.637 16-7.758 68.438-10.746 76.801-10.164 27.039-47.809 22.266-47.809 22.266-5.23.605-10.316 12.387-10.316 12.387 2.098-14.48 13.883-15.977 13.883-15.977 18.238 2.098 38.414-12.555 40.047-21.809 1.5-9.422-2.695-36.316.461-50.797 3.132-14.652 14.48-22.871 14.48-22.871" fill-rule="evenodd" clip-rule="evenodd" fill="#fff"/><path d="M337.66 233.387c14.484 39.445 8.82 74.703 8.82 74.703 19.258-54.992-8.82-74.703-8.82-74.703" fill-rule="evenodd" clip-rule="evenodd" fill="#cbb500"/><path d="M190.184 212.012c-1.496-1.18-2.531-1.93-3.734-2.383-.895-.293-1.641-.148-2.391 0-.746.453-1.492.891-2.383 2.094l-1.035-.602 7.758-10.004 1.039.582c-.289.75-.75 1.203-1.039 1.949-.148.457-.457 1.043-.602 1.496.145.746.309 1.203.746 1.949.605.746 1.203 1.496 2.242 2.242l13.156 10.293c1.496 1.203 2.844 2.406 3.734 3.902 1.035 1.492 1.637 2.82 1.785 4.48.457 2.988-.895 6.41-3.738 10.293-2.984 3.734-6.266 5.977-9.562 5.977-1.641.164-3.133 0-4.484-.582a17.847 17.847 0 0 1-4.023-2.242l-14.195-11.059c-1.039-.75-1.785-1.203-2.531-1.496-.457-.145-1.059-.309-1.492-.145-.461.289-.914.438-1.352.891-.457.441-1.059.895-1.492 1.352l-1.059-.602 9.273-11.805 1.039.598c-.145.148-.293.602-.891 1.348-.293.75-.602 1.328-.75 1.789 0 .457 0 .891.293 1.492.309.457.746 1.035 1.805 1.785l14.941 11.805c.891.602 1.926 1.203 2.988 1.809 1.18.582 2.238.746 3.277.746 2.551-.312 5.086-1.492 7.035-4.047 2.242-2.844 2.988-5.973 2.242-8.816-.457-1.789-2.098-3.883-4.793-5.98m12.845-7.617l-15.234-17.469c-1.637-.312-2.531-.457-3.441-.312-.582.168-1.496.746-2.387 1.492l-.895-.891 7.016-6.266 32.578 5.977-11.953-13.594c-1.949-2.242-3.59-3.297-4.938-3.441-.891.145-1.93.746-3.133 1.785l-.895-.895 9.566-8.363.891.891c-.891.895-1.492 1.641-1.781 2.391-.457.598-.312 1.348-.312 2.238.457.914 1.059 1.953 2.242 3.301l19.133 21.664-.602.602-37.352-6.434v.145l13.445 15.398c1.035 1.184 1.785 2.098 2.531 2.531.746.746 1.348.895 1.953 1.203.602 0 1.203-.145 1.949-.309.582-.293 1.184-.75 2.074-1.496l.914.914-9.715 8.508-.91-.895c.91-.891 1.492-1.641 1.66-2.094.289-.293.578-.746.75-1.348-.172-.438-.312-1.352-.918-2.098-.431-.889-1.033-1.928-2.236-3.135m18.238-41.832c-.891-1.348-1.637-2.238-2.238-2.527-.746-.316-1.207-.461-1.809-.316-.582.316-1.637.914-3.277 1.664l-.602-1.059 13.301-8.824.602 1.062c-1.055.891-1.805 1.492-2.242 1.93-.309.602-.746 1.199-.746 1.805.145.895.438 1.785 1.184 2.988l13.758 20.77c.602 1.039 1.492 1.496 2.238 1.785 1.039.293 2.391-.289 4.172-1.492l.746.895-13.277 8.816-.746-.891c1.324-.891 2.242-1.641 2.676-2.387.312-.457.602-1.203.457-1.805 0-.605-.312-1.496-.891-2.387m-.318-25.109l-3.875-8.508 27.035-13.59 4.48 8.359-1.035.457c-.602-.457-1.203-1.352-1.949-1.953-.434-.598-.895-1.199-1.641-1.492-.746-.605-1.637-.605-2.699-.453-.891 0-2.238.453-3.566 1.055l-3.902 1.93 12.555 24.961c.457 1.043 1.203 1.645 1.641 2.098.598.293 1.344.582 2.094.438.75-.438 1.641-.746 2.844-1.348l.602 1.055-14.047 7.16-.602-1.035c1.492-.895 2.551-1.641 3.133-2.387.312-.746.312-1.949-.438-3.445l-12.555-25.09-3.133 1.641a21.864 21.864 0 0 0-3.133 2.098c-.746.746-1.203 1.637-1.203 2.676-.457 1.348 0 2.84.457 4.793m33.613-19.881c-.453-1.496-1.055-2.535-1.949-2.844-.746-.602-2.094-.746-4.023-.145l-.316-.891 27.207-8.531 2.387 7.184-1.199.289c-.605-1.188-1.188-2.242-1.789-2.824-.746-.457-1.641-.746-2.551-1.059-1.184.145-2.531.312-4.316.895l-7.781 2.551c-.602.148-1.039.438-1.039.602-.145.293-.145.895-.145 1.328l.145.164.145.148 3.445 11.059 7.305-2.406c1.66-.438 2.84-1.039 3.445-1.328.746-.602 1.203-1.203 1.203-2.094.145-.461.145-1.809 0-3.445l1.035-.289 3.883 12.238-1.039.312c-.746-1.059-1.199-1.949-1.492-2.242-.312-.602-.602-.91-1.059-1.055-.438-.293-1.184-.293-1.785-.293-.891.148-2.098.293-3.445.746l-7.305 2.242 4.172 13.133c.145.461.457.605.602.918.293 0 .895.145 1.352.145a29.235 29.235 0 0 1 2.84-.746c2.531-.895 4.629-1.496 6.414-2.242 1.805-.75 3.133-1.805 4.047-3.137 1.035-1.348 1.637-3.441 1.781-5.973l1.496-.457.602 9.418-27.785 8.656-.457-.895c1.203-.289 2.094-.746 2.699-1.203.434-.434.891-1.035 1.035-1.641.148-.746 0-1.637-.453-2.844m32.575-35.999l3.734 27.785c.145.75.289 1.348.746 1.348.602.312 1.348.312 2.531.148 3.152-.438 5.832-1.039 7.93-2.074 2.094-1.062 3.73-2.555 5.082-4.652.891-1.328 1.641-2.984 1.785-4.773.453-1.781.453-4.023.145-5.973-.289-2.242-.746-4.027-1.637-5.98-.895-1.781-1.934-3.441-3.281-4.48-2.094-1.637-4.336-2.699-6.871-3.133-2.402-.457-4.938-.457-7.926 0-.891.145-1.492.289-1.781.434-.312.315-.457.749-.457 1.35m-5.23 2.84c-.145-1.203-.293-2.094-.602-2.695-.293-.578-.602-.891-.895-1.035a3.084 3.084 0 0 0-1.637-.461c-.746.172-1.496 0-2.242 0l-.145-.891 14.941-1.93c3.734-.602 7.305-.453 10.461.438 3.566.602 6.555 2.094 8.648 4.48 2.242 2.242 3.734 5.684 4.484 10.023a24.67 24.67 0 0 1 0 4.629c-.289 1.492-.605 2.984-1.184 4.48-.602 1.496-1.348 2.988-2.242 4.172-.91 1.203-2.098 2.238-3.59 3.156-1.492.891-2.988 1.781-4.793 2.383-1.785.746-3.422 1.039-5.227 1.184l-16.727 2.242-.148-.891c1.496-.148 2.391-.438 2.988-.898.602-.141 1.039-.746 1.184-1.344.168-.602.168-1.641 0-2.992l-3.274-24.05zm68.437-7.758c.582.293 1.496.746 2.387 1.039 1.039-.145 1.781-.746 1.93-1.953h1.203l.141 11.809-1.493-.149c-.141-1.637-.742-3.273-1.492-4.77-.75-1.203-1.93-2.555-3.133-3.445-1.344-1.039-2.695-1.637-4.336-1.785-1.785-.164-3.277.148-4.168 1.184-1.062.891-1.812 1.953-1.812 2.988-.141 1.059 0 2.094.602 2.988.289.891 1.039 1.805 1.789 2.551.914.746 2.094 1.641 3.156 2.535 1.324.746 2.383 1.637 3.727 2.527 4.926 3.59 7.16 7.473 6.871 11.52-.141 1.93-.891 3.734-2.094 5.086a12.09 12.09 0 0 1-4.477 2.82c-1.793.164-3.742.453-5.691.309-.746-.145-1.492-.145-2.07-.453-.75-.293-1.664-.602-2.844-.602-1.062-.582-1.645-.746-1.812-.746-.891-.438-1.492-.582-1.781-.75-1.035 0-1.496.75-1.637 1.496h-1.203l-.75-11.352h1.203c1.492 5.227 4.027 8.359 7.613 10.023.891.289 1.789.582 2.535.582 1.949.309 3.594-.293 4.938-1.184 1.5-.891 2.242-2.242 2.531-4.047.168-1.332-.141-2.68-.582-3.57-.449-.914-1.199-1.953-1.949-2.551-.895-.895-1.945-1.785-3.59-2.848-1.348-1.035-2.844-2.07-3.734-2.816-1.18-.75-2.094-1.809-3.133-2.555-.742-.891-1.492-1.637-1.785-2.68-.91-1.348-1.203-2.984-1.059-4.793.148-1.637.75-3.133 1.492-4.48 1.059-1.184 2.391-2.238 3.883-2.844 1.664-.891 3.445-1.039 5.398-.891 1.492.147 3.277.749 5.226 1.807m13.281 10.293l2.555-9.109 29.422 7.324-1.93 9.254-1.203-.289c-.148-.895 0-1.785-.148-2.699.148-1.035.148-1.637-.141-2.387a3.786 3.786 0 0 0-1.805-1.93c-.75-.746-1.934-1.203-3.426-1.492l-4.195-1.059-6.719 27.203c-.293 1.035-.148 1.785 0 2.535.289.746.453 1.199 1.203 1.492.891.453 1.641.746 2.984 1.203l-.164 1.039-15.379-3.883.148-1.055c1.641.453 3.133.453 4.023.164.746-.312 1.496-1.207 1.953-2.699l6.723-27.352-3.445-.891c-1.492-.289-2.816-.434-3.879-.434-1.039.145-1.781.434-2.68 1.492-.914.582-1.805 1.93-2.695 3.879m49.763 13.14l-11.664 10.914 11.496 5.086m-20-.313l24.195-22.098.891.289-.148 34.512c.148 1.348.148 2.551.602 3.297.438.602 1.039 1.18 2.102 1.641l-.461 1.035-12.699-5.52.453-1.039c.289 0 .59.148.75.438 1.785.75 2.984.602 3.566-.602.168-.438.168-1.184.316-2.074v-6.891l-13.016-5.664-4.918 4.629c-.309.145-.602.746-1.203 1.348-.141.891 0 1.496.461 1.93.434.602 1.344 1.059 2.383 1.66l-.457 1.035-9.855-4.336.457-1.035c.895.289 1.785.289 2.676.145.913-.29 2.405-1.208 3.905-2.7zm41.371-2.984l5.52-7.617 25.258 16.891-5.086 7.906-.891-.582c0-.75.457-1.66.598-2.551.461-.895.609-1.641.609-2.242 0-.895-.316-1.785-.898-2.387-.453-1.035-1.656-1.949-2.844-2.699l-3.586-2.383-15.543 23.156c-.602 1.055-.742 1.805-.891 2.551 0 .75.148 1.184.742 1.785.75.605 1.207 1.352 2.391 2.098l-.602.891-13.137-8.816.602-.895c1.492.895 2.68 1.348 3.734 1.496.75 0 1.641-.602 2.531-1.949l15.688-23.305-2.988-2.098c-1.203-.746-2.242-1.328-3.273-1.641-1.062-.434-1.953-.145-3.156.312-1.039.438-2.242 1.328-3.734 2.68m33.78 19.422c1.039-1.184 1.492-2.242 1.492-2.988.148-1.039-.602-2.242-2.094-3.59l.742-.746 20.922 19.418-4.941 5.688-1.039-.891a12.434 12.434 0 0 0 1.641-2.988c.148-.891 0-1.953-.289-2.844-.602-.891-1.492-1.949-2.844-3.277l-6.121-5.543c-.457-.434-.91-.602-1.203-.602-.148.168-.598.312-1.039.602v.312l-8.07 8.508 5.52 5.23c1.348 1.203 2.391 1.949 3.133 2.387.75.309 1.492.453 2.242 0 .602-.148 1.66-.895 2.984-1.785l.922.891-8.824 9.422-.891-.914c.582-1.18 1.18-1.93 1.324-2.242.309-.578.457-1.18.309-1.637.148-.438-.141-1.039-.594-1.641-.605-.598-1.207-1.492-2.391-2.531l-5.371-5.395-9.422 10.023c-.289.434-.461.891-.602 1.18.141.312.312.75.602 1.207s1.035 1.203 2.094 2.098c1.934 1.781 3.594 3.277 5.086 4.477a8.268 8.268 0 0 0 4.77 2.098c1.789.145 3.734-.453 5.977-1.496l1.203 1.188-7.922 4.938-21.379-19.879.605-.746c.895.891 1.805 1.492 2.387 1.641.602.305 1.344.453 2.094.16.602-.309 1.352-.91 2.242-1.801m54.101 14.189c.289.75.43 1.496.891 2.387.742.602 1.781.746 2.844 0l.582 1.059-8.512 8.215-.895-1.203c1.184-1.18 2.094-2.676 2.535-4.336.453-1.496.602-3.133.453-4.625-.145-1.641-.742-3.137-1.805-4.484-1.035-1.348-2.242-2.098-3.734-2.242-1.184-.145-2.535.145-3.426.895-.891.598-1.344 1.492-1.805 2.551-.289.746-.43 1.93-.289 3.137-.141 1.199 0 2.527.141 3.879.32 1.492.461 2.984.75 4.48.75 5.977-.43 10.312-3.586 12.848-1.5 1.203-3.281 1.805-5.066 1.945-1.953 0-3.586-.453-5.227-1.199-1.352-1.184-2.844-2.387-4.047-3.883-.602-.602-1.043-1.18-1.352-1.781-.141-.746-.582-1.645-1.332-2.555-.16-1.184-.602-1.785-.602-1.785-.309-.895-.594-1.348-.742-1.641-.602-.746-1.492-.746-2.383-.145l-.75-1.059 7.902-8.215.75.891c-2.676 4.48-3.426 8.672-2.094 12.266.602.891.91 1.781 1.344 2.387 1.352 1.492 2.703 2.238 4.195 2.699 1.781.285 3.277-.172 4.773-1.062 1.055-.891 1.637-1.93 2.094-2.988.453-.891.602-2.094.602-3.277 0-1.059-.309-2.551-.602-4.191-.148-1.785-.289-3.59-.457-4.77-.141-1.496-.289-2.699-.289-3.887 0-1.203.148-2.402.598-3.152.602-1.641 1.5-2.988 2.844-4.168 1.184-1.062 2.824-1.809 4.316-1.953 1.664-.145 3.305 0 4.797.746a9.934 9.934 0 0 1 4.336 3.133c.896 1.2 1.646 2.841 2.248 5.083m-384.727 85.477l9.109 2.074-5.379 29.879-9.129-1.492.164-1.188c.75-.141 1.645-.141 2.535-.309.891.168 1.781-.145 2.387-.434.891-.312 1.492-.895 1.949-1.805.602-.75.891-1.93 1.184-3.426l.746-4.336-27.473-4.938c-1.207-.293-1.953-.148-2.555.164-.746.289-1.18.582-1.492 1.328-.289.914-.602 1.805-.891 3.152l-1.039-.309 2.82-15.543 1.059.312c-.312 1.637-.312 2.984 0 3.879.289.75 1.352 1.496 2.988 1.641l27.641 5.082.602-3.59c.293-1.348.293-2.844.145-3.734 0-1.039-.602-1.93-1.492-2.68-.75-.91-2.098-1.656-4.047-2.551m-1.328 43.476l-13.156-1.328c-.145 2.535-.289 4.629 0 6.414.145 1.949.746 3.445 1.785 4.793 1.059 1.184 2.695 1.93 4.789 2.078 4.777.453 7.473-2.391 8.078-8.656.141-1.348.141-2.242-.168-2.695-.144-.438-.582-.606-1.328-.606m-24.218-8.047l22.871 2.238c1.18.145 2.238.145 2.844 0 .578 0 1.18-.457 1.492-1.059.289-.602.582-1.641.891-2.988l1.039.145-1.496 15.398c-.145 1.785-.598 3.445-1.035 4.938-.602 1.637-1.203 2.824-1.953 4.027-1.035 1.203-2.094 2.098-3.273 2.699-1.352.574-2.699.746-4.488.574-2.383-.285-4.191-1.324-5.828-2.82-1.348-1.656-2.094-4.336-2.531-7.781l-13.613 9.109c-.891.75-1.496 1.207-1.934 1.492-.453.316-.746.75-1.055 1.496a4.026 4.026 0 0 0-.582 2.098l-1.055-.145.891-8.82 17.348-11.203.289-2.988-10.746-1.039c-1.203-.145-2.098 0-2.555 0-.602.293-1.035.746-1.492 1.492-.293.438-.605 1.496-.746 2.844l-1.043-.164 1.496-14.777 1.039.145c0 1.496 0 2.391.145 3.137.312.602.602 1.035 1.348 1.348.743.143 2.095.432 3.732.604zm21.812 46.895l-15.379-4.316 1.641 12.387m-10.168-17.181l31.375 8.965.164 1.055-29.445 17.762c-1.18.918-2.094 1.496-2.527 2.246-.312.598-.461 1.492-.312 2.695l-1.039.148-1.785-13.742 1.039-.141c0 .289 0 .578-.145 1.035.289 1.949 1.035 2.844 2.383 2.699.461 0 1.207-.457 1.953-.914l5.977-3.422-1.805-14.051-6.727-1.953c-.289-.145-.891-.145-1.781-.145-.746.145-1.203.605-1.496 1.207-.145.746-.312 1.637 0 2.844l-1.059.141-1.492-10.766 1.055-.145c.148.891.605 1.801 1.184 2.551.748.58 2.409 1.33 4.483 1.931zM137 417.305l22.262-6.871c.746-1.203 1.352-2.242 1.496-3.133.145-.457.145-1.66-.145-2.844l1.184-.309 2.699 8.961-18.68 27.355 17.328-5.379c2.844-.891 4.336-1.801 4.938-2.984.289-1.062.289-2.391-.145-3.734l1.184-.316 3.734 12.121-1.184.293c-.457-1.203-.91-2.102-1.348-2.535-.602-.602-1.352-.91-2.098-1.059-.891-.145-2.383 0-4.023.602l-27.348 8.359-.293-.742 20.918-31.375v-.145l-19.734 6.266c-1.496.453-2.535.914-3.281 1.203-.891.457-1.203.891-1.805 1.348-.289.438-.438 1.039-.578 1.93.141.605.141 1.352.43 2.406l-1.035.293-3.734-12.41 1.039-.289c.457 1.348.891 2.238 1.203 2.383.145.461.602.891 1.035 1.207.457.141 1.203.434 2.098.289 1.039-.149 2.242-.434 3.883-.891m43.035 40.047c-.145.75 0 1.641.145 2.531.602.895 1.641 1.043 2.699.602l.582 1.184-10.293 5.977-.605-1.324c1.352-.918 2.535-2.242 3.426-3.742.914-1.344 1.496-2.984 1.496-4.477.312-1.664.164-3.156-.582-4.648-.75-1.641-1.66-2.68-3.152-3.133-1.188-.293-2.391-.441-3.57.141-.914.312-1.66 1.059-2.41 2.102-.289.742-.891 1.805-1.035 2.836-.289 1.039-.457 2.391-.746 3.742 0 1.785-.145 3.129-.457 4.621-.582 6.125-2.68 10.023-6.414 11.664-1.805.75-3.59 1.043-5.371.602-1.809-.309-3.301-1.059-4.793-2.242-1.043-1.656-2.242-3.152-3.137-4.938-.289-.602-.602-1.352-.746-1.953 0-.891-.145-1.633-.605-2.816 0-1.059-.145-1.809-.285-1.953 0-.75-.148-1.492-.312-1.641-.293-1.055-1.328-1.203-2.242-.742l-.434-1.203 9.562-6.27.438 1.184c-3.59 3.734-5.082 7.781-4.773 11.367.293 1.184.438 1.934.746 2.676.895 1.812 1.93 2.844 3.59 3.742 1.328.742 2.992.602 4.629 0 1.184-.438 2.242-1.5 2.844-2.242.434-1.039 1.035-1.93 1.184-3.133.309-1.043.598-2.387.598-4.336.148-1.645.457-3.426.605-4.777.145-1.203.602-2.555.746-3.879.293-1.059.602-2.098 1.348-2.844.746-1.352 2.074-2.551 3.738-3.445 1.492-.75 3.133-.891 4.625-.75 1.641.152 3.133.75 4.48 1.953 1.352.891 2.535 2.387 3.426 4.027.598 1.349.911 3.13 1.055 5.537m8.817 19.425l-11.512 7.473c.457.43.891 1.18 1.637 2.234 1.664 2.535 3.445 4.316 5.539 5.066 1.934.914 3.883.461 6.414-1.184 4.047-2.695 4.336-7.328.164-13.59-.309-.457-.598-.602-.746-.602-.602.002-.91.146-1.496.603m-24.649 9.547l20.004-13.141c.914-.602 1.66-1.203 2.242-1.641.309-.453.453-1.203.453-1.805s-.453-1.633-1.203-2.844l.914-.574 7.906 12.094c1.203 1.781 2.238 3.883 2.699 5.977.746 2.094.746 4.176.438 6.121-.438 2.102-1.645 3.594-3.426 4.773-1.062.602-2.242 1.203-3.445 1.203-1.348.293-2.535.148-3.734-.141-1.93-.316-3.59-.891-5.23-2.242-1.496-1.203-3.133-2.992-4.336-4.938-1.039-1.934-1.641-3.137-2.078-3.594l-8.816 5.688c-1.059.75-1.492 1.031-1.809 1.781-.285.75-.285 1.203-.145 1.953.312.75.75 1.641 1.352 2.695l-.891.582-8.223-12.531.895-.602c.457.602.891 1.184 1.348 1.492.602.441 1.039.891 1.93.891.749.151 1.804-.287 3.155-1.197zm30.629 21.66c-2.555 2.406-4.484 5.398-6.289 8.965-1.785 3.734-1.184 7.18 1.953 10.625 1.637 1.926 3.879 3.137 5.973 3.277 2.387.289 4.629-.289 7.016-1.352 2.387-1.035 4.625-2.836 7.035-4.91 2.238-2.102 4.027-4.344 5.375-6.727 1.18-2.098 1.785-4.648 1.637-6.723-.145-2.41-.891-4.195-2.387-5.977L215 505c-1.805-1.934-3.898-2.992-6.289-3.133-2.383-.148-4.77.309-7.156 1.633a33.157 33.157 0 0 0-6.723 4.484m-4.191-4.484c2.098-1.781 4.336-3.277 6.43-4.316 2.242-.742 4.629-1.344 6.871-1.203 2.242-.141 4.625.461 6.578 1.352 2.383.891 4.172 2.387 5.973 4.168 1.645 1.812 2.992 3.906 3.738 5.98.746 2.242 1.039 4.484 1.039 6.727-.148 2.402-.75 4.648-1.785 6.883-.914 2.242-2.41 4.316-4.484 6.27-1.949 1.781-4.047 2.984-6.289 3.883-2.238.891-4.625 1.344-6.863 1.344-2.391.148-4.488-.453-6.871-1.344-2.098-1.184-4.047-2.531-5.688-4.484-1.492-1.641-2.676-3.586-4.023-5.52-.75-1.953-1.059-4.195-1.059-6.43.164-2.391.602-4.637 1.805-6.871.889-2.244 2.53-4.486 4.628-6.439zm45.566 23.164l-8.07 10.617c1.953 1.641 3.734 2.684 5.371 3.285 1.809 1.039 3.445 1.199 4.941.891 1.641-.145 3.133-1.184 4.34-2.844 2.988-3.879 1.926-7.762-2.992-11.496-1.199-.746-1.949-1.203-2.387-1.203-.457-.144-.746.168-1.203.75m-19.566 16.598l13.883-18.383c.746-.891 1.203-1.789 1.492-2.391.312-.602 0-1.203-.145-1.805-.289-.578-1.18-1.328-2.094-2.383l.602-.75 12.262 9.273c1.496 1.043 2.82 2.242 3.738 3.285 1.18 1.344 1.926 2.531 2.383 3.875.438 1.492.746 2.844.602 4.195-.312 1.492-.746 2.676-1.805 4.168-1.496 1.953-3.422 2.844-5.371 3.445-2.098.289-4.941-.453-8.074-1.953l.895 16.438c0 1.207.309 1.949.309 2.41 0 .434.145 1.031.602 1.633a3.82 3.82 0 0 0 1.492 1.645l-.602.891-7.18-5.371-.438-20.629-2.402-1.785-6.414 8.508c-.746.91-1.203 1.809-1.348 2.41-.145.582-.145 1.18.289 1.93.457.453 1.059 1.203 2.094 2.098l-.602.891-11.781-8.965.578-.898c1.348.75 2.242 1.352 2.695 1.5.602.141 1.352 0 1.953-.461.437-.431 1.492-1.493 2.387-2.821zm37.039 2.992l4.648-8.074 26.895 14.043-4.191 8.371-1.039-.609c.148-.742.438-1.492.438-2.527.309-.918.457-1.66.309-2.41 0-.742-.598-1.633-1.199-2.383-.602-.746-1.645-1.352-2.992-2.094l-3.879-1.934-12.844 24.656c-.602 1.18-.602 1.926-.602 2.527 0 .746.289 1.348.891 1.949.746.441 1.348.895 2.535 1.492l-.441 1.043-14.047-7.328.457-1.035c1.637.891 2.988 1.352 3.734 1.203 1.039 0 1.785-.742 2.535-2.242l12.988-24.82-3.133-1.641c-1.348-.742-2.68-1.344-3.59-1.492-.895-.141-1.93.148-2.992.75-1.035.453-2.07 1.492-3.418 3.133m39.589 14.504l-10.457 12.098 11.953 3.734m-19.734 1.785l21.371-24.648.891.453 3.883 34.219c.168 1.352.312 2.387.746 2.984a7.57 7.57 0 0 0 2.406 1.645l-.309 1.039-13.137-4.176.293-1.059c.289 0 .602.168.891.316 1.805.602 2.988.289 3.445-1.059 0-.293 0-1.043-.145-1.934l-.602-6.871-13.594-4.336-4.484 5.379c-.164 0-.453.602-.91 1.492 0 .602 0 1.352.602 1.781.602.461 1.348.914 2.551 1.352l-.309 1.062-10.316-3.305.316-1.031c.887.289 1.926.289 2.672-.152.915-.307 2.243-1.491 3.739-3.151zm33.613-10.894l1.496-9.105 30.191 4.023-.891 9.254-1.207-.148c-.141-.891-.289-1.781-.453-2.676 0-.91-.148-1.66-.582-2.402-.312-.75-1.059-1.332-1.949-1.785-.746-.457-2.098-.898-3.59-1.039l-4.336-.602-3.738 27.785c-.145 1.199 0 2.094.312 2.699.289.582.746 1.184 1.492 1.324.895.312 1.789.602 3.137.75l-.148 1.055-15.688-2.094.145-1.035c1.789.285 3.137.145 3.883-.309.891-.297 1.492-1.352 1.637-2.992l3.738-27.934-3.57-.453c-1.496-.148-2.844-.148-3.734 0-1.203.145-1.953.602-2.699 1.637-.891.75-1.492 2.242-2.242 4.195m43.62 2.242c.168-1.641 0-2.844-.293-3.445-.289-.582-.746-1.039-1.348-1.188-.602-.145-1.785-.305-3.422-.453v-1.184h15.828v1.184c-1.344.148-2.234.148-2.984.453-.602.148-1.203.438-1.641 1.039a7.275 7.275 0 0 0-.602 2.992l-.141 24.957c0 1.184.43 2.074 1.031 2.824s2.102 1.062 4.195 1.062v1.031h-15.855v-1.031c1.496 0 2.695-.148 3.445-.461.602-.289 1.203-.742 1.352-1.352.293-.43.434-1.324.434-2.383m19.732-12.697c.438 3.297 1.641 6.871 3.594 10.316 2.074 3.586 5.227 5.078 9.715 4.477 2.523-.289 4.766-1.344 6.117-3.133 1.645-1.637 2.535-3.73 2.988-6.434.438-2.672.297-5.516-.145-8.504-.309-3.133-1.199-5.977-2.098-8.363-1.203-2.242-2.84-4.043-4.621-5.086-2.102-1.352-4.055-1.801-6.438-1.492h-.145c-2.699.434-4.793 1.641-6.125 3.426-1.656 1.953-2.555 4.047-2.984 6.57-.171 2.703-.311 5.379.142 8.223m-6.282.891c-.441-2.824-.293-5.375.16-7.762.582-2.383 1.492-4.625 2.824-6.266 1.352-1.945 3.156-3.441 5.086-4.648 2.094-1.324 4.336-2.238 6.871-2.527 2.406-.289 4.789-.148 7.031.453 2.242.582 4.176 1.492 5.977 2.984 1.926 1.332 3.426 3.137 4.629 5.379 1.352 2.102 2.094 4.484 2.383 7.328a16.107 16.107 0 0 1-.289 7.152c-.461 2.391-1.492 4.629-2.844 6.582-1.203 1.949-2.836 3.594-4.938 4.938a22.807 22.807 0 0 1-6.871 1.93c-2.242.312-4.336.148-6.867.148-2.094-.438-4.191-1.328-5.973-2.824-1.785-1.348-3.445-3.152-4.629-5.395-1.346-2.074-2.241-4.769-2.55-7.472zm46.629 1.664l-7.328-22.125c-1.203-.742-2.246-1.203-3.137-1.492-.602 0-1.633 0-2.844.289l-.453-1.039 8.965-2.984 27.805 18.074-5.684-17.184c-1.039-2.844-1.949-4.336-3.133-4.918-1.203-.309-2.391-.309-3.734.293l-.461-1.043 11.957-4.047.453 1.062c-1.062.438-2.094 1.039-2.555 1.492-.434.438-.742 1.188-1.031 2.082 0 .91.141 2.402.742 4.047l9.262 27.18-.895.141-31.812-20.168h-.164l6.574 19.59c.457 1.492.891 2.531 1.348 3.281.293.891.75 1.352 1.203 1.785.582.309 1.184.457 1.934.457.742 0 1.344-.148 2.551-.457l.434 1.059-12.387 4.027-.453-1.043c1.344-.598 2.094-.891 2.383-1.199.461-.148.75-.602 1.203-1.043.148-.602.289-1.344.148-2.234-.148-.899-.297-2.243-.891-3.883m52.891-20.633c-3.156-1.781-5.688-3.875-7.926-7.012-1.348-2.242-2.242-4.484-2.699-6.887-.434-2.242-.434-4.316-.293-6.121.148-1.352.461-2.844 1.203-4.336.293-1.332 1.332-2.992 2.535-4.484 1.039-1.637 2.695-2.988 4.484-4.168.891-.602 1.781-.895 2.383-1.211.75-.285 1.953-.742 3.445-1.035 1.785-.598 2.988-.891 3.738-1.492.891-.602 1.039-1.492.742-2.984l.898-.602 7.18 9.996-1.062.602c-1.641-1.492-3.422-2.531-5.227-3.133-1.934-.453-3.734-.602-5.227-.453-1.645.453-3.426.91-4.918 1.945-1.812 1.211-3.164 2.992-4.344 4.938-.891 1.934-1.492 4.176-1.203 6.418.312 2.695 1.492 5.828 3.594 9.422 1.633 2.238 3.133 4.02 5.227 5.52 1.785 1.492 3.879 2.383 5.832 2.844 3.273.289 6.266-.461 9.109-2.242 3.879-2.535 6.266-6.27 7.324-11.207l1.352.141c0 2.102-.461 3.887-1.203 5.547-.898 1.785-1.953 3.418-3.133 4.629-1.352 1.352-2.844 2.844-4.629 3.875a27.387 27.387 0 0 1-5.547 2.695c-1.922.441-4.023.75-6.117.75-2.092-.311-3.877-.912-5.518-1.955m27.93-31.977c2.242 2.391 5.371 4.629 8.965 6.289 3.586 1.641 7.18 1.039 10.457-2.094 1.953-1.805 3.133-3.879 3.281-5.977.164-2.555-.289-4.629-1.492-6.871-1.039-2.695-2.68-4.938-4.918-7.18-2.098-2.238-4.336-4.02-6.727-5.23-2.242-1.199-4.629-1.781-6.723-1.781-2.383.289-4.336.891-6.125 2.531l-.164.145c-1.93 1.809-2.984 4.191-2.984 6.438-.148 2.383.453 4.766 1.656 7.012 1.188 2.382 2.824 4.624 4.774 6.718m-4.485 4.344c-1.945-2.102-3.438-4.344-4.477-6.586-.895-2.094-1.352-4.477-1.352-6.863 0-2.094.457-4.336 1.352-6.578.891-2.242 2.383-4.168 4.188-5.98 1.789-1.633 3.883-2.984 5.977-3.586a14.567 14.567 0 0 1 6.723-1.18c2.391 0 4.484.742 6.727 1.633 2.387 1.039 4.316 2.535 6.262 4.629 1.789 1.949 3.137 3.883 3.883 6.125 1.062 2.094 1.496 4.48 1.645 6.723.16 2.402-.441 4.645-1.332 7.031-.91 2.102-2.242 3.883-4.195 5.668a27.643 27.643 0 0 1-5.68 4.043c-2.082.895-4.176 1.352-6.418 1.184-2.383 0-4.789-.582-7.031-1.781-2.244-.752-4.319-2.537-6.272-4.482zm38.559-24.512l-18.531-12.844c-.602-.602-1.492-1.039-1.949-1.203-.441-.148-1.184.164-1.934.453a17.951 17.951 0 0 0-2.547 2.391l-.75-.598 6.289-8.805 29.277 5.379-15.539-24.965 6.121-8.805.742.441c-.891 1.352-1.18 2.094-1.18 2.695-.168.438-.168 1.18.289 1.781.461.609 1.039 1.352 2.387 2.102l18.824 13.301c1.352 1.031 2.555 1.492 3.297 1.781.75.148 1.492 0 1.781-.289.312-.141 1.062-1.059 2.102-2.094l1.035.602-8.504 12.238-1.043-.602c.582-1.324 1.043-2.242 1.184-2.82.309-.746.148-1.348-.434-1.945-.309-.602-1.207-1.496-2.551-2.395l-19.57-13.75v.16l17.324 28.535-.43.598-31.836-5.828v.148l17.637 12.098a16.196 16.196 0 0 0 4.027 2.238c1.199.316 1.949.148 2.391-.293.453-.453 1.203-1.055 2.094-2.234l1.031.602-7.461 10.598-1.043-.602c1.352-1.945 1.785-3.438 1.043-4.625-.44-.893-1.643-2.096-3.573-3.444m29.57-45.859l-20.77-8.527c-.891-.289-1.641-.438-2.242-.578-.441 0-1.039.43-1.785.891-.457.434-1.039 1.641-1.789 2.844l-1.055-.312 4.188-10.152 29.887-1.203-20.914-20.91 4.02-10.004.898.285c-.441 1.496-.582 2.387-.582 2.992-.168.602.141 1.203.742 1.492.441.602 1.332 1.203 2.684 1.785l21.371 8.676c1.637.602 2.844.891 3.734.891.746.145 1.184-.148 1.637-.598.289-.293.75-1.184 1.492-2.676l1.211.43-5.688 13.902-1.203-.453c.453-1.18.602-2.242.742-2.82 0-.75-.141-1.496-.891-1.805-.602-.602-1.637-1.184-3.137-1.789l-22.113-9.105v.141l23.324 24.055-.316.602-32.262 1.344v.148l19.879 8.07c2.074.75 3.566 1.184 4.477 1.043 1.184.141 1.785-.293 2.246-.609.43-.602.891-1.492 1.492-2.836l1.18.449-4.918 12.102-1.199-.434c.891-2.242.891-3.734 0-4.797-.75-.753-2.102-1.644-4.34-2.534m0-59.762l13.012 9.566 2.824-12.266m3.445 19.571l-26.297-19.426.148-1.035 33.762-6.266c1.348-.461 2.551-.75 3.133-1.207.602-.602 1.059-1.348 1.352-2.531l1.203.148-3.137 13.59-1.203-.145c0-.312.145-.602.293-.891.453-1.953.16-2.992-1.184-3.301-.457-.148-1.352 0-2.102 0l-6.719 1.203-3.137 13.734 5.52 4.191c0 .148.602.438 1.5.895.742 0 1.492-.145 1.805-.746.582-.75.891-1.496 1.18-2.531l1.203.145-2.383 10.457-1.203-.141a4.75 4.75 0 0 0-.461-2.848c-.288-.892-1.64-2.092-3.273-3.295zm7.922-42.582l-23.324-.895c-1.184.895-2.074 1.641-2.531 2.387-.285.602-.602 1.664-.602 2.844l-1.184-.145.289-9.422 26.441-19.715-18.078-.602c-2.984-.145-4.77.312-5.66 1.352-.609.891-.918 2.094-1.059 3.586l-1.184-.145.434-12.695 1.199.141c.148 1.188.293 2.246.609 2.844.141.75.742 1.184 1.492 1.645.895.285 2.242.746 4.027.746l28.844.891v.891l-30.344 22.871v.145l20.629.602c1.492 0 2.676 0 3.566-.145 1.062 0 1.668-.312 2.242-.602.461-.461.75-.895 1.062-1.641.141-.602.289-1.352.438-2.551h1.203l-.461 13.008h-1.18c-.145-1.348-.312-2.238-.461-2.699 0-.453-.289-.891-.43-1.348-.461-.289-1.203-.746-2.098-.895-.886-.285-2.238-.453-3.879-.453m-23.613-48.558l27.93-.891c.75 0 1.352-.148 1.492-.602.312-.438.461-1.184.461-2.391-.148-3.273-.602-6.117-1.352-8.211-.891-2.246-2.242-3.883-4.027-5.523a11.811 11.811 0 0 0-4.625-2.238c-1.805-.602-3.898-.746-5.973-.746-2.242.145-4.195.434-6.145 1.18-1.934.602-3.566 1.492-4.629 2.844-1.934 1.805-3.277 3.879-3.879 6.285-.75 2.391-1.039 5.062-.898 8.055 0 .91.148 1.492.293 1.805.317.433.75.433 1.352.433m2.242 5.543c-1.203 0-2.094 0-2.695.289a4.724 4.724 0 0 0-1.191.891c-.309.457-.449.918-.598 1.496 0 .746-.145 1.492-.285 2.242h-.918l-.434-14.941c-.148-3.883.434-7.305 1.492-10.293 1.035-3.445 2.988-6.289 5.371-8.219 2.531-2.098 6.125-3.301 10.465-3.59 1.633 0 3.133.289 4.625.438 1.492.453 2.992 1.055 4.336 1.66 1.352.746 2.695 1.785 3.879 2.82 1.059.91 1.953 2.242 2.844 3.734.75 1.664 1.352 3.301 1.953 5.086.43 1.805.578 3.445.75 5.23l.43 16.891-1.031.145c0-1.496-.148-2.531-.461-3.133-.148-.602-.75-1.059-1.352-1.348-.574-.145-1.633-.293-2.984-.145l-24.196.747z" fill-rule="evenodd" clip-rule="evenodd" fill="#363639"/><path fill-rule="evenodd" clip-rule="evenodd" fill="#ffea50" d="M154.18 271.777l1.636 9.563-3.418 3.594"/><path fill="none" stroke="#cbb500" stroke-width=".448" stroke-linejoin="round" stroke-miterlimit="2.613" d="M154.18 271.777l1.636 9.563-3.418 3.594z"/><path fill-rule="evenodd" clip-rule="evenodd" fill="#ffea50" d="M154.18 271.777l-4.172 8.672 2.39 4.485"/><path fill="none" stroke="#cbb500" stroke-width=".448" stroke-linejoin="round" stroke-miterlimit="2.613" d="M154.18 271.777l-4.172 8.672 2.39 4.485z"/><path fill-rule="evenodd" clip-rule="evenodd" fill="#ffea50" d="M140.441 279.102l9.567 1.347 2.39 4.485"/><path fill="none" stroke="#cbb500" stroke-width=".448" stroke-linejoin="round" stroke-miterlimit="2.613" d="M140.441 279.102l9.567 1.347 2.39 4.485z"/><path fill-rule="evenodd" clip-rule="evenodd" fill="#ffea50" d="M140.441 279.102l7.016 6.722 4.941-.89"/><path fill="none" stroke="#cbb500" stroke-width=".448" stroke-linejoin="round" stroke-miterlimit="2.613" d="M140.441 279.102l7.016 6.722 4.941-.89z"/><path fill-rule="evenodd" clip-rule="evenodd" fill="#ffea50" d="M143.285 294.496l4.172-8.672 4.941-.89"/><path fill="none" stroke="#cbb500" stroke-width=".448" stroke-linejoin="round" stroke-miterlimit="2.613" d="M143.285 294.496l4.172-8.672 4.941-.89z"/><path fill-rule="evenodd" clip-rule="evenodd" fill="#ffea50" d="M143.285 294.496l8.363-4.48.75-5.082"/><path fill="none" stroke="#cbb500" stroke-width=".448" stroke-linejoin="round" stroke-miterlimit="2.613" d="M143.285 294.496l8.363-4.48.75-5.082z"/><path fill-rule="evenodd" clip-rule="evenodd" fill="#ffea50" d="M158.66 296.574l-7.012-6.558.75-5.082"/><path fill="none" stroke="#cbb500" stroke-width=".448" stroke-linejoin="round" stroke-miterlimit="2.613" d="M158.66 296.574l-7.012-6.558.75-5.082z"/><path fill-rule="evenodd" clip-rule="evenodd" fill="#ffea50" d="M158.66 296.574l-1.785-9.398-4.477-2.242"/><path fill="none" stroke="#cbb500" stroke-width=".448" stroke-linejoin="round" stroke-miterlimit="2.613" d="M158.66 296.574l-1.785-9.398-4.477-2.242z"/><path fill-rule="evenodd" clip-rule="evenodd" fill="#ffea50" d="M165.387 282.691l-8.512 4.485-4.477-2.242"/><path fill="none" stroke="#cbb500" stroke-width=".448" stroke-linejoin="round" stroke-miterlimit="2.613" d="M165.387 282.691l-8.512 4.485-4.477-2.242z"/><path fill-rule="evenodd" clip-rule="evenodd" fill="#ffea50" d="M165.387 282.691l-9.571-1.351-3.418 3.594"/><path fill="none" stroke="#cbb500" stroke-width=".448" stroke-linejoin="round" stroke-miterlimit="2.613" d="M165.387 282.691l-9.571-1.351-3.418 3.594z"/><path fill-rule="evenodd" clip-rule="evenodd" fill="#ffea50" d="M167.625 245.34l1.203 9.566-3.586 3.422"/><path fill="none" stroke="#cbb500" stroke-width=".448" stroke-linejoin="round" stroke-miterlimit="2.613" d="M167.625 245.34l1.203 9.566-3.586 3.422z"/><path fill-rule="evenodd" clip-rule="evenodd" fill="#ffea50" d="M167.625 245.34L163 253.848l2.242 4.48"/><path fill="none" stroke="#cbb500" stroke-width=".448" stroke-linejoin="round" stroke-miterlimit="2.613" d="M167.625 245.34L163 253.848l2.242 4.48z"/><path fill-rule="evenodd" clip-rule="evenodd" fill="#ffea50" d="M153.578 252.207l9.422 1.641 2.242 4.48"/><path fill="none" stroke="#cbb500" stroke-width=".448" stroke-linejoin="round" stroke-miterlimit="2.613" d="M153.578 252.207l9.422 1.641 2.242 4.48z"/><path fill-rule="evenodd" clip-rule="evenodd" fill="#ffea50" d="M153.578 252.207l6.578 6.871 5.086-.75"/><path fill="none" stroke="#cbb500" stroke-width=".448" stroke-linejoin="round" stroke-miterlimit="2.613" d="M153.578 252.207l6.578 6.871 5.086-.75z"/><path fill-rule="evenodd" clip-rule="evenodd" fill="#ffea50" d="M155.672 267.605l4.484-8.527 5.086-.75"/><path fill="none" stroke="#cbb500" stroke-width=".448" stroke-linejoin="round" stroke-miterlimit="2.613" d="M155.672 267.605l4.484-8.527 5.086-.75z"/><path fill-rule="evenodd" clip-rule="evenodd" fill="#ffea50" d="M155.672 267.605l8.676-4.191.894-5.086"/><path fill="none" stroke="#cbb500" stroke-width=".448" stroke-linejoin="round" stroke-miterlimit="2.613" d="M155.672 267.605l8.676-4.191.894-5.086z"/><path fill-rule="evenodd" clip-rule="evenodd" fill="#ffea50" d="M170.926 270.281l-6.578-6.867.894-5.086"/><path fill="none" stroke="#cbb500" stroke-width=".448" stroke-linejoin="round" stroke-miterlimit="2.613" d="M170.926 270.281l-6.578-6.867.894-5.086z"/><path fill-rule="evenodd" clip-rule="evenodd" fill="#ffea50" d="M170.926 270.281l-1.203-9.398-4.481-2.555"/><path fill="none" stroke="#cbb500" stroke-width=".448" stroke-linejoin="round" stroke-miterlimit="2.613" d="M170.926 270.281l-1.203-9.398-4.481-2.555z"/><path fill-rule="evenodd" clip-rule="evenodd" fill="#ffea50" d="M178.395 256.691l-8.672 4.192-4.481-2.555"/><path fill="none" stroke="#cbb500" stroke-width=".448" stroke-linejoin="round" stroke-miterlimit="2.613" d="M178.395 256.691l-8.672 4.192-4.481-2.555z"/><path fill-rule="evenodd" clip-rule="evenodd" fill="#ffea50" d="M178.395 256.691l-9.567-1.785-3.586 3.422"/><path fill="none" stroke="#cbb500" stroke-width=".448" stroke-linejoin="round" stroke-miterlimit="2.613" d="M178.395 256.691l-9.567-1.785-3.586 3.422z"/><path fill-rule="evenodd" clip-rule="evenodd" fill="#ffea50" d="M559.219 269.391l-2.242 9.254 3.3 3.898"/><path fill="none" stroke="#cbb500" stroke-width=".448" stroke-linejoin="round" stroke-miterlimit="2.613" d="M559.219 269.391l-2.242 9.254 3.3 3.898z"/><path fill-rule="evenodd" clip-rule="evenodd" fill="#ffea50" d="M559.219 269.391l3.734 8.816-2.676 4.336"/><path fill="none" stroke="#cbb500" stroke-width=".448" stroke-linejoin="round" stroke-miterlimit="2.613" d="M559.219 269.391l3.734 8.816-2.676 4.336z"/><path fill-rule="evenodd" clip-rule="evenodd" fill="#ffea50" d="M572.52 277.461l-9.567.746-2.676 4.336"/><path fill="none" stroke="#cbb500" stroke-width=".448" stroke-linejoin="round" stroke-miterlimit="2.613" d="M572.52 277.461l-9.567.746-2.676 4.336z"/><path fill-rule="evenodd" clip-rule="evenodd" fill="#ffea50" d="M572.52 277.461l-7.325 6.269-4.918-1.187"/><path fill="none" stroke="#cbb500" stroke-width=".448" stroke-linejoin="round" stroke-miterlimit="2.613" d="M572.52 277.461l-7.325 6.269-4.918-1.187z"/><path fill-rule="evenodd" clip-rule="evenodd" fill="#ffea50" d="M568.789 292.547l-3.594-8.817-4.918-1.187"/><path fill="none" stroke="#cbb500" stroke-width=".448" stroke-linejoin="round" stroke-miterlimit="2.613" d="M568.789 292.547l-3.594-8.817-4.918-1.187z"/><path fill-rule="evenodd" clip-rule="evenodd" fill="#ffea50" d="M568.789 292.547l-8.078-4.938-.434-5.066"/><path fill="none" stroke="#cbb500" stroke-width=".448" stroke-linejoin="round" stroke-miterlimit="2.613" d="M568.789 292.547l-8.078-4.938-.434-5.066z"/><path fill-rule="evenodd" clip-rule="evenodd" fill="#ffea50" d="M553.41 293.75l7.301-6.141-.434-5.066"/><path fill="none" stroke="#cbb500" stroke-width=".448" stroke-linejoin="round" stroke-miterlimit="2.613" d="M553.41 293.75l7.301-6.141-.434-5.066z"/><path fill-rule="evenodd" clip-rule="evenodd" fill="#ffea50" d="M553.41 293.75l2.242-9.273 4.625-1.934"/><path fill="none" stroke="#cbb500" stroke-width=".448" stroke-linejoin="round" stroke-miterlimit="2.613" d="M553.41 293.75l2.242-9.273 4.625-1.934z"/><path fill-rule="evenodd" clip-rule="evenodd" fill="#ffea50" d="M547.43 279.395l8.222 5.082 4.625-1.934"/><path fill="none" stroke="#cbb500" stroke-width=".448" stroke-linejoin="round" stroke-miterlimit="2.613" d="M547.43 279.395l8.222 5.082 4.625-1.934z"/><path fill-rule="evenodd" clip-rule="evenodd" fill="#ffea50" d="M547.43 279.395l9.547-.75 3.3 3.898"/><path fill="none" stroke="#cbb500" stroke-width=".448" stroke-linejoin="round" stroke-miterlimit="2.613" d="M547.43 279.395l9.547-.75 3.3 3.898z"/><path fill-rule="evenodd" clip-rule="evenodd" fill="#ffea50" d="M547.578 243.242l-1.953 9.422 3.445 3.734"/><path fill="none" stroke="#cbb500" stroke-width=".448" stroke-linejoin="round" stroke-miterlimit="2.613" d="M547.578 243.242l-1.953 9.422 3.445 3.734z"/><path fill-rule="evenodd" clip-rule="evenodd" fill="#ffea50" d="M547.578 243.242l4.027 8.676-2.535 4.48"/><path fill="none" stroke="#cbb500" stroke-width=".448" stroke-linejoin="round" stroke-miterlimit="2.613" d="M547.578 243.242l4.027 8.676-2.535 4.48z"/><path fill-rule="evenodd" clip-rule="evenodd" fill="#ffea50" d="M561.02 250.859l-9.415 1.059-2.535 4.48"/><path fill="none" stroke="#cbb500" stroke-width=".448" stroke-linejoin="round" stroke-miterlimit="2.613" d="M561.02 250.859l-9.415 1.059-2.535 4.48z"/><path fill-rule="evenodd" clip-rule="evenodd" fill="#ffea50" d="M561.02 250.859l-7.032 6.43-4.918-.891"/><path fill="none" stroke="#cbb500" stroke-width=".448" stroke-linejoin="round" stroke-miterlimit="2.613" d="M561.02 250.859l-7.032 6.43-4.918-.891z"/><path fill-rule="evenodd" clip-rule="evenodd" fill="#ffea50" d="M558.035 266.109l-4.047-8.82-4.918-.891"/><path fill="none" stroke="#cbb500" stroke-width=".448" stroke-linejoin="round" stroke-miterlimit="2.613" d="M558.035 266.109l-4.047-8.82-4.918-.891z"/><path fill-rule="evenodd" clip-rule="evenodd" fill="#ffea50" d="M558.035 266.109l-8.363-4.793-.602-4.918"/><path fill="none" stroke="#cbb500" stroke-width=".448" stroke-linejoin="round" stroke-miterlimit="2.613" d="M558.035 266.109l-8.363-4.793-.602-4.918z"/><path fill-rule="evenodd" clip-rule="evenodd" fill="#ffea50" d="M542.641 267.895l7.031-6.579-.602-4.918"/><path fill="none" stroke="#cbb500" stroke-width=".448" stroke-linejoin="round" stroke-miterlimit="2.613" d="M542.641 267.895l7.031-6.579-.602-4.918z"/><path fill-rule="evenodd" clip-rule="evenodd" fill="#ffea50" d="M542.641 267.895l1.804-9.418 4.625-2.079"/><path fill="none" stroke="#cbb500" stroke-width=".448" stroke-linejoin="round" stroke-miterlimit="2.613" d="M542.641 267.895l1.804-9.418 4.625-2.079z"/><path fill-rule="evenodd" clip-rule="evenodd" fill="#ffea50" d="M536.062 253.848l8.383 4.629 4.625-2.079"/><path fill="none" stroke="#cbb500" stroke-width=".448" stroke-linejoin="round" stroke-miterlimit="2.613" d="M536.062 253.848l8.383 4.629 4.625-2.079z"/><path fill-rule="evenodd" clip-rule="evenodd" fill="#ffea50" d="M536.062 253.848l9.563-1.184 3.445 3.734"/><path fill="none" stroke="#cbb500" stroke-width=".448" stroke-linejoin="round" stroke-miterlimit="2.613" d="M536.062 253.848l9.563-1.184 3.445 3.734z"/><path d="M324.215 258.328c-2.098 11.352-3.59 15.543-3.59 15.543-.602-9.422-.602-8.82-.602-8.82 3.59-3.59 4.192-6.723 4.192-6.723" fill-rule="evenodd" clip-rule="evenodd" fill="#a90"/><path d="M320.625 274.328c-7.762 2.676-15.086 3.734-15.086 3.734 9.254-4.793 13.445-9.875 13.445-9.875 3.133 3.153 1.641 6.141 1.641 6.141" fill-rule="evenodd" clip-rule="evenodd" fill="#cbb500"/></svg>