<svg data-name="Layer 1" xmlns="http://www.w3.org/2000/svg" viewBox="0 0 171 40"><path d="M49.766 14.621a13.362 13.362 0 0 0-1.066 1.963 24.038 24.038 0 0 0-.785 3.477l-.168 1.345a.355.355 0 0 0 .056.393 25.978 25.978 0 0 1 .28 2.86 10.823 10.823 0 0 1 .056 1.346 1.668 1.668 0 0 1-.112.561 1.14 1.14 0 0 1-.336.392.589.589 0 0 1-.673.056 1.35 1.35 0 0 1-.337-.448 2.257 2.257 0 0 1-.168-.842c-.056-.56-.056-1.065-.112-1.626a8.584 8.584 0 0 1 .056-2.075.791.791 0 0 0-.056-.5c-.224-1.627-.505-3.2-.785-4.767-.168-1.009-.337-1.963-.505-2.972a.919.919 0 0 1 .112-.673.575.575 0 0 1 .281-.336.5.5 0 0 1 .785.112.423.423 0 0 1 .056.224 10.483 10.483 0 0 1 .224 1.4c.168.953.337 1.907.5 2.8a.423.423 0 0 1 .056.224c.112-.056.112-.112.112-.168a14.737 14.737 0 0 1 .561-1.682c.168-.449.392-.9.617-1.4A3.38 3.38 0 0 1 49.485 13a7.2 7.2 0 0 1 1.122-.617 1.874 1.874 0 0 1 .953-.056 1.936 1.936 0 0 1 .9.449A5.185 5.185 0 0 1 53.411 14a6.269 6.269 0 0 1 .673 1.514c.168.561.336 1.122.56 1.683l.056.056c.056-.056.113-.056.113-.112.056-.561.168-1.122.28-1.683a18.415 18.415 0 0 1 1.009-3.42 3.287 3.287 0 0 1 .954-1.346 2.774 2.774 0 0 1 .673-.449 1.233 1.233 0 0 1 .785-.056 2.27 2.27 0 0 1 .5.28 2.736 2.736 0 0 1 .785 1.01 18.277 18.277 0 0 1 .842 2.467c.224.953.392 1.963.56 2.916.225 1.066.449 2.187.617 3.253.056.224.112.5.168.729a12.933 12.933 0 0 0 .673 2.075 1.223 1.223 0 0 0 .169.28.277.277 0 0 0 .392.056l.056-.056.225-.224a10.563 10.563 0 0 0 .841-1.8 21.794 21.794 0 0 0 1.009-3.869c.168-1.066.393-2.075.561-3.141l.336-2.523a1.969 1.969 0 0 1 .337-.785 1.485 1.485 0 0 1 .336-.28.425.425 0 0 1 .505.056 1.172 1.172 0 0 1 .224.336 1.4 1.4 0 0 1 .056.5c.056.561.056 1.065.113 1.626.056.673.112 1.4.112 2.075a6.443 6.443 0 0 1 .056 1.065v.067c.112.729.168 1.458.28 2.187a4.823 4.823 0 0 0 .281 1.066 1.882 1.882 0 0 0 .336.561.983.983 0 0 0 .28.224.8.8 0 0 0 .785-.056 1.512 1.512 0 0 0 .561-.449 4.386 4.386 0 0 0 .9-1.289 9.062 9.062 0 0 0 .954-2.692 27.532 27.532 0 0 0 .561-3.084 11.615 11.615 0 0 0 .168-1.963 2.663 2.663 0 0 0-.056-.954 5.022 5.022 0 0 1 .112-1.289l.168-.5a3.1 3.1 0 0 1 .337-.449.562.562 0 0 1 .841.056.677.677 0 0 1 .112.449c-.056.673-.112 1.29-.112 1.963a.78.78 0 0 0 0 .5c.056.672.112 1.4.168 2.074a32.935 32.935 0 0 0 .617 3.253c.168.729.392 1.458.617 2.187.112.336.224.785.336 1.121s.224.673.337.954a.173.173 0 0 1 .056.112c.112 0 .112-.056.168-.112.449-.449.841-.9 1.234-1.29.729-.673 1.4-1.346 2.131-2.019s1.4-1.346 2.074-2.019l.337-.336a.912.912 0 0 0 .28-.505 1.068 1.068 0 0 1 .281-.561.983.983 0 0 1 .28-.224.466.466 0 0 1 .673.112.909.909 0 0 1 .168.505 1.967 1.967 0 0 1-.336 1.234 5.364 5.364 0 0 1-.9 1.065c-.786.841-1.683 1.626-2.524 2.412a41.337 41.337 0 0 0-3.14 3.14l-.225.224a3.572 3.572 0 0 1 .225.729c.224.841.5 1.626.785 2.468.168.56.336 1.121.5 1.738l.169.673a31.583 31.583 0 0 1 .785 3.869 16.471 16.471 0 0 1 .168 2.3 16.217 16.217 0 0 1-.224 1.627 3.433 3.433 0 0 1-.835 1.348 1.9 1.9 0 0 1-1.122.5h-.056a2.1 2.1 0 0 1-1.514-.336 3.527 3.527 0 0 1-.673-.617 12.317 12.317 0 0 1-1.682-2.524l-.5-1.345c-.168-.617-.28-1.234-.393-1.795a10.587 10.587 0 0 1-.112-1.907 9.963 9.963 0 0 1 .561-2.859 17.8 17.8 0 0 1 2.019-3.646c.056-.056.056-.056.056-.112.056-.056.112-.168.056-.224-.224-.673-.449-1.29-.617-1.963l-.168-.673a43.727 43.727 0 0 1-.561-2.243 5.87 5.87 0 0 1-.224-.953h-.056a.206.206 0 0 0-.056.168 18.444 18.444 0 0 1-1.178 3.2 6.576 6.576 0 0 1-1.066 1.682 3.756 3.756 0 0 1-.841.785 2.837 2.837 0 0 1-.9.5 2.046 2.046 0 0 1-.841.112 1.759 1.759 0 0 1-.953-.5 2.92 2.92 0 0 1-.673-.953 6.061 6.061 0 0 1-.393-1.346l-.168-1.346a.71.71 0 0 1-.056-.336c-.112.056-.112.056-.112.112l-.337 1.514a23.371 23.371 0 0 1-.9 2.8 10.207 10.207 0 0 1-.9 1.738 4.534 4.534 0 0 1-.673.785 1.486 1.486 0 0 1-.561.337 1.211 1.211 0 0 1-1.234-.168 1.762 1.762 0 0 1-.392-.5c-.168-.337-.281-.673-.449-1.01a13.926 13.926 0 0 1-.505-1.626c-.224-.785-.336-1.626-.5-2.411-.225-1.122-.449-2.243-.617-3.365-.112-.617-.28-1.29-.449-1.906a11.687 11.687 0 0 0-.448-1.29 2.98 2.98 0 0 0-.337-.561 1.226 1.226 0 0 0-.505-.393 1.25 1.25 0 0 0-.28.225 1.989 1.989 0 0 0-.224.5 20.358 20.358 0 0 0-.785 2.636c-.169.841-.337 1.682-.449 2.524-.056.448-.112.841-.168 1.289l-.164 1.855c-.056.449-.056.841-.113 1.234a1.535 1.535 0 0 1-.336.673c-.112.112-.224.224-.336.224a.428.428 0 0 1-.505-.056.557.557 0 0 1-.224-.281.417.417 0 0 1-.057-.224 50.826 50.826 0 0 0-.841-4.094 9.623 9.623 0 0 0-.5-1.682 7.634 7.634 0 0 0-.393-1.009 6.349 6.349 0 0 0-.841-1.29 2.455 2.455 0 0 0-.393-.337 1.172 1.172 0 0 0-.336-.224c-.168-.224-.785.449-.953.673M75.9 23.537c-.112.113-.112.169-.169.169a15.2 15.2 0 0 0-.9 1.626 8.276 8.276 0 0 0-.729 2.075 10.1 10.1 0 0 0-.056 2.243 11.4 11.4 0 0 0 .673 2.635 10.03 10.03 0 0 0 1.681 2.636 1.947 1.947 0 0 0 .673.505 1.236 1.236 0 0 0 .785.112c.169-.056.281-.112.337-.28a.716.716 0 0 0 .056-.337 6.49 6.49 0 0 0 .056-1.794c-.056-.561-.168-1.234-.224-1.851a23.567 23.567 0 0 0-.617-2.692c-.224-.9-.505-1.794-.785-2.691-.168-.5-.281-1.01-.449-1.514-.112-.337-.224-.561-.336-.842z" fill="#62bcea" stroke="#62bcea" stroke-miterlimit="10" stroke-width=".956"/><path d="M12.116 7.3A14.533 14.533 0 1 1 7.3 27.423" fill="none" stroke="#62bcea" stroke-miterlimit="10" stroke-width="1.901"/><path d="M24.539 37.579A18.868 18.868 0 0 1 1.583 24.212a18.609 18.609 0 0 1 13.6-22.625 18.939 18.939 0 0 1 23 13.367" fill="none" stroke="#62bcea" stroke-miterlimit="10" stroke-width="1.68"/><path d="M23.547 13.584c-.189-.047-.142.1 1.747-.425a2.619 2.619 0 0 1 2.787.8c1.653 1.606 3.354 3.07 4.912 4.723a7.572 7.572 0 0 1 1.653 2.409c1.323 3.07 2.645 5.857 3.873 9.022.095.236 1.04 2.55 1.465 3.637a1.021 1.021 0 0 1-.142 1.039c-1.039 1.322-4.109 4.959-5.432 5.2a.391.391 0 0 1-.378-.141c-.047-.047-.094-.142-.141-.189a26.725 26.725 0 0 0-3.071-4.489.925.925 0 0 0-.8-.425 5.456 5.456 0 0 1-4.063-1.654 21.687 21.687 0 0 1-1.657-2.408c-.755-1.276-1.417-2.6-2.267-3.826-.756-1.087-1.653-2.079-2.5-3.118a2.479 2.479 0 0 1-.142-2.881 2.081 2.081 0 0 1 2.456-1.181 2.824 2.824 0 0 1 1.181.756c.52.52.945 1.086 1.417 1.653a.175.175 0 0 0 .142.047l.047-.047 1.134-3.826.188-.283m1.37 1.511c-.047-.141-.094-.141-.189-.283L26 17.835c-.189-.236-.425-.189-.52.095-.378 1.18-.708 2.361-1.039 3.448a1.378 1.378 0 0 0-.094.425c-.048.236.236.567.425.708 2.6 3.023 2.22 2.551 2.786 3.259a.173.173 0 0 0 .142.048c.047-.048.095-.1.095-.142-.142-1.937-.284-3.873-.426-6.046v-.047z" fill="#62bcea" stroke="#ebf3fa" stroke-miterlimit="10" stroke-width=".236"/><path d="M28.978 15.71L8.715 9.05a.51.51 0 0 0-.661.331l-1.275 3.873a.549.549 0 0 0 .331.661 2.064 2.064 0 0 1 .8 2.409 2.126 2.126 0 0 1-2.079 1.464.51.51 0 0 0-.661.331L3.9 21.992a.549.549 0 0 0 .33.661l20.358 6.66a.51.51 0 0 0 .661-.331l1.275-3.873a.549.549 0 0 0-.33-.661 2.063 2.063 0 0 1-.8-2.409 2.123 2.123 0 0 1 2.078-1.464.511.511 0 0 0 .661-.331l1.228-3.873a.7.7 0 0 0-.383-.661zM22.13 25.3a1.027 1.027 0 0 1-1.276.661L9.282 22.133a1.027 1.027 0 0 1-.661-1.275l2.551-7.793a1.069 1.069 0 0 1 1.275-.662l11.572 3.826a1.069 1.069 0 0 1 .661 1.276L22.13 25.3zM9.613 21.142l11.525 3.778 2.5-7.793-11.522-3.779z" fill="#62bcea" stroke="#ebf3fa" stroke-miterlimit="10" stroke-width=".487"/><path d="M12.778 18.119l-.378-.142a.55.55 0 0 0-.662.331l-.708 2.125 3.59 1.228.708-2.125a.55.55 0 0 0-.328-.662l-.425-.141-1.794-.614zM15.328 17.174a1.165 1.165 0 1 0-1.464.756 1.166 1.166 0 0 0 1.464-.756M21.799 19.158l-4.818-1.606.284-.803 4.817 1.559-.283.85zM21.374 20.48l-4.818-1.558.284-.851 4.77 1.606-.236.803zM20.902 21.992l-4.818-1.559.283-.85 4.771 1.559-.236.85zM20.382 23.456l-4.771-1.606.284-.85 4.77 1.606-.283.85z" fill="#ebf3fa"/><path d="M19.768 20.386a2.4 2.4 0 0 1 3.354.425v.047l3.259 3.826c.708.9 1.039 3.306.141 3.968l-.283.236a2.2 2.2 0 0 1-3.023-.284l-3.826-5.337a2.127 2.127 0 0 1 .378-2.881z" fill="#62bcea" stroke="#ebf3fa" stroke-miterlimit="10" stroke-width=".307"/><path d="M23.405 28.84l-1.039-1.983-.047-.048a1.107 1.107 0 0 1 .189-1.511l1.983-1.511c.378-.284.142-.662.236-.473a.477.477 0 0 0 .331.189c.189-.189 3.165 2.976 3.5 4.2a.426.426 0 0 1-.141.472l-1.989 2.035a.408.408 0 0 1-.284.142 8.953 8.953 0 0 1-1.6-.283c-.525-.048-.903-.662-1.139-1.229zM108.176 36l-6.623-12.255a2.06 2.06 0 0 1-.619 0h-1.052L106.567 36h-3.095l-6.685-12.255h-3.033V36h-2.723V10.747h-1.362v25.191h-2.723V8.085h13.988a5.788 5.788 0 1 1 0 11.575h-7.18v1.361h7.18a7.149 7.149 0 1 0 0-14.3H86.946V4h13.988a9.933 9.933 0 0 1 9.9 9.9 9.715 9.715 0 0 1-6.561 9.223L111.209 36zM93.754 10.809v6.127h7.18a3.014 3.014 0 0 0 3.095-3.033 3.064 3.064 0 0 0-3.095-3.094zM137.576 36l-6.684-12.255a2.061 2.061 0 0 1-.619 0h-1.052L135.905 36h-3.095l-6.684-12.255h-3.033V36h-2.724V10.809h-1.361V36h-2.724V8.147h13.989a5.787 5.787 0 1 1 0 11.574h-7.18v1.362h7.18a7.149 7.149 0 1 0 0-14.3h-13.989V4.062h13.989a9.932 9.932 0 0 1 9.9 9.9 9.714 9.714 0 0 1-6.561 9.223l7.056 12.688-3.092.127zm-14.483-25.191v6.127h7.18a3.014 3.014 0 0 0 3.095-3.033 3.064 3.064 0 0 0-3.095-3.094zM149.832 10.809h-1.362V36h-2.723V8.147h13.988a5.612 5.612 0 0 1 5.818 5.385 5.563 5.563 0 0 1-5.818 5.323h-7.18v1.238h7.18a6.934 6.934 0 0 0 7.18-6.685 6.984 6.984 0 0 0-7.18-6.746h-13.988V4h13.988a9.718 9.718 0 0 1 9.9 9.408 8.975 8.975 0 0 1-1.671 5.2A10.952 10.952 0 0 1 171 26.1a9.879 9.879 0 0 1-9.9 9.841h-11.268V10.809zm2.723 0v5.2h7.18a2.832 2.832 0 0 0 3.095-2.6 2.878 2.878 0 0 0-3.095-2.661l-7.18.062zm13.493 9.779a4.964 4.964 0 0 1-1.176.8 6.239 6.239 0 0 1 1.981 4.7 5.759 5.759 0 0 1-5.818 5.756h-8.542v1.362h8.542a7.133 7.133 0 0 0 7.18-7.118 7.764 7.764 0 0 0-2.167-5.5zm-4.456 2.043a10.142 10.142 0 0 1-1.919.185h-7.18v6.375h8.6a3.013 3.013 0 0 0 3.095-3.032 3.465 3.465 0 0 0-2.596-3.528z" fill="#62bcea"/></svg>
