<svg width="180" height="180" viewBox="0 0 180 180" xmlns="http://www.w3.org/2000/svg"><g fill="none" fill-rule="evenodd"><path fill="#FFF" d="M0 0v180h180V0z"/><path d="M91.52 124.76c3.58 1.81 7.27 4.08 7.27 8.7 0 6-5.18 8.4-10.35 8.48-4 .06-8.7-1.57-12.35-3.07l-1 9.1a44.2 44.2 0 0 0 12.35 2.57c11.46.37 21.39-4.91 21.39-17.56 0-11.59-8.6-15-17-19.22-3.1-1.55-7.27-3.65-7.27-7.71 0-5.2 4.63-6.78 9.13-6.78 4.07 0 6.23.69 11.19 2.63l1.37-9a39.31 39.31 0 0 0-12.88-2.27c-10.44 0-18.87 5.52-18.87 16.11.02 11.26 9.12 14.01 17.02 18.02zm49.77-14.73 4.21 10.27h9.67l-13.88-30.91-13.88 30.91h9.67zm7.02 27.72-7.03-5.42-12.23 6.41 5.09-11.62-6.89-6.46-12.92 28.87h9.92zM43.57 150.54a53.78 53.78 0 0 0 18.13-2.72v-30.11H41.07v8.45H52v15a34.5 34.5 0 0 1-8.3.79c-11.32 0-20.46-8.18-20.53-21.34-.06-12.23 8.34-21.33 20.93-21.33 7.17 0 11.31 1.27 16.17 4.44l.79-10a44.34 44.34 0 0 0-17.36-3.06c-17.6 0-30.58 11.86-30.58 29.69-.05 18.38 12.18 30.19 30.45 30.19zm114.53-1.02h10.15l-12.92-28.86-6.89 6.45z" fill="#005087"/></g></svg>