<svg width="48" height="48" viewBox="0 0 48 48" xmlns="http://www.w3.org/2000/svg"><g fill="none" fill-rule="evenodd"><path fill="#00548E" d="M0 0h47.633v47.678H0z"/><path fill="#FFF" d="m38.423 32.3-1.074-2.58-1.14 2.58h-2.59l3.644-8.024 3.664 8.024zm-3.179 1.757-1.336 3.048 3.26-1.671 1.798 1.422-6.353 3.088h-2.504l3.342-7.517zm8.984 5.887H41.51l-2.468-5.837 1.77-1.725zM28.162 24.765s-.372 2.264-.336 2.369c-1.408-.702-3.414-1.128-4.75-.39-.665.367-.905 1.4-.598 2.183 2.183 2.39 6.05 1.811 6.263 6.439a4.424 4.424 0 0 1-1.444 3.306c-2.034 1.594-4.982 1.476-7.354.634l.244-2.5c1.359.738 3.904 1.408 5.384.036.507-.453.634-1.268.562-2.074-.847-2.463-7.53-2.359-6.299-7.458a4.075 4.075 0 0 1 2.568-2.744c1.73-.801 4.08-.335 5.76.2zm-12.272.313-.086 2.513c-1.857-1.196-5.153-1.635-7.286-.376-1.902 1.119-2.513 2.762-2.554 4.773-.046 2.142.828 4.152 2.939 5.257 1.385.725 4.614.376 4.614.376v-3.817h-2.803l.023-2.364h5.384v8.033c-2.966.906-6.856.942-9.455-.828-2.772-1.898-3.256-4.23-3.256-6.657 0-3.265 1.952-6.752 5.819-7.494a12.308 12.308 0 0 1 6.66.584z"/></g></svg>