<?xml version="1.0" encoding="UTF-8" standalone="no"?>
<svg xmlns="http://www.w3.org/2000/svg" version="1.1" width="73.427002" height="50.223">
    <g fill="#000066">
        <path d="m 16.6555,2.043 -0.0903,12.6625 c 0,5.2625 -3.1297,7.305 -7.33473,7.305 -3.625,0 -8.238282,-1.6082 -8.238282,-7.0898 V 2.043 C 0.992188,1.3301 0.494922,0.8973 0,0.6492 H 5.94375 C 5.45078,0.8973 4.98477,1.3301 4.98477,2.043 v 12.9711 c 0,2.1675 0.74375,5.2332 4.76523,5.2332 3.6855,0 5.0191,-2.4153 5.0191,-5.4813 L 14.709,2.043 c 0,-0.7129 -0.3715,-1.1457 -0.8375,-1.3938 h 3.5926 C 16.9973,0.8973 16.6555,1.3301 16.6555,2.043"></path>
        <path d="m 25.0414,22.0105 c -2.8125,0 -4.8578,-0.9597 -5.9391,-1.4843 l -0.1574,-5.2321 c 0.5895,2.1961 2.4438,5.1082 5.666,5.1082 3.0661,0 3.995,-2.1984 3.995,-3.716 0,-2.9734 -2.6977,-3.3758 -5.5102,-4.8922 -2.8492,-1.5793 -4.0875,-3.2492 -4.0875,-5.6027 0,-4.2102 3.9309,-5.882 6.75,-5.882 1.052,0 3.0926,0.2148 4.6727,1.1449 l 0.1535,4.5816 C 30.1539,4.3953 28.3883,1.918 25.4137,1.918 c -2.3516,0 -3.2789,1.641 -3.2789,2.9726 0,1.8879 1.332,2.602 4.2402,3.9324 2.8824,1.3625 5.8832,2.384 5.8832,6.6887 0,3.8692 -3.4074,6.4988 -7.2168,6.4988"></path>
        <path d="m 41.8867,2.1973 c -0.7461,0 -2.3851,0 -2.8508,0.0625 v 17.832 h 2.4762 c 6.9996,0 8.9504,-4.707 8.9504,-9.2266 0,-3.7129 -2.1687,-8.6679 -8.5758,-8.6679 z m 0.3684,19.5043 -7.9539,0 c 0.4629,-0.2789 0.8066,-0.7125 0.8066,-1.3938 V 2.043 c 0,-0.7129 -0.3437,-1.1457 -0.8066,-1.3938 h 8.2371 c 10.1828,0 12.225,7.2149 12.225,10.216 0,5.3879 -4.1473,10.8364 -12.5082,10.8364"></path>
        <path d="m 61.9086,6.6875 c 0,0 -2.1066,5.2633 -3.0957,7.584 h 6.2539 c -1.4539,-3.4379 -3.1582,-7.584 -3.1582,-7.584 z m 4.8906,15.0141 c 0.8028,-0.4336 0.9613,-0.8668 0.7446,-1.5157 -0.095,-0.3101 -0.8985,-2.2004 -1.7641,-4.3039 h -7.5859 c -0.9293,2.1035 -1.6719,3.9313 -1.736,4.2723 -0.2766,0.743 -0.1226,1.1754 0.7145,1.5473 h -4.2707 c 0.866,-0.5875 1.1429,-0.9282 1.4504,-1.5157 C 54.9418,19.009 63.0855,0 63.0855,0 c 0,0 8.2372,19.009 8.793,20.1859 0.309,0.6489 0.5235,0.9899 1.5485,1.5157 h -6.6278"></path>
    </g>
    <g fill="#006600">
        <path d="m 72.4973,24.6754 c 0,0 -45.0547,-1.1184 -71.737925,13.1008 0,0 28.280125,-11.184 71.737925,-10.0653 v -3.0355"></path>
        <path d="m 0.759375,24.6754 c 0,0 15.178525,0.1594 24.603525,3.6746 0,0 -19.33126,-1.598 -24.603525,-0.798 v -2.8766"></path>
        <path d="m 0.759375,29.6297 c 0,0 10.865225,-0.4805 17.414025,0.1594 0,0 -15.81402,1.9156 -17.414025,2.7132 v -2.8726"></path>
        <path d="M 65.0309,30.1176 C 64.9579,30.1129 64.860546,30.1215 64.798,30.123 51.6965,30.3742 24.2219,31.9539 0.771875,40.2391 l 0,9.9839 71.733225,0 0,-20.1054 c 0,0 -2.784,-0.086 -7.4742,0"></path>
    </g>
</svg>
