CTYPE svg PUBLIC "-//W3C//DTD SVG 1.1//EN" "http://www.w3.org/Graphics/SVG/1.1/DTD/svg11.dtd">
<svg version="1.1" xmlns="http://www.w3.org/2000/svg" xmlns:xlink="http://www.w3.org/1999/xlink" x="0px" y="0px"
	 width="397px" height="196px" viewBox="0 0 397 196" enable-background="new 0 0 397 196" xml:space="preserve">
<g>
	<g>
		<path fill="#DDC523" d="M390.548,36.197H198.334H6.115c-1.082,0-1.92,1.068-1.75,2.257c2.496,17.188,17.272,27.275,26.896,31.368
			h334.145c9.624-4.093,24.398-14.181,26.895-31.368C392.474,37.266,391.632,36.197,390.548,36.197z"/>
		<path fill="#DDC523" d="M63.212,95.562h270.241c7.476-2.646,20.432-8.814,26.097-21.452H37.117
			C42.782,86.748,55.736,92.916,63.212,95.562z"/>
		<path fill="#DDC523" d="M96.938,117.026c0.098,0.027,8.13,0.037,8.234,0.037c2.597,0.01,38.712,0.135,93.161,0.191
			c54.448-0.057,90.562-0.182,93.159-0.191c0.105,0,8.137-0.01,8.235-0.037c2.077-0.505,18.242-1.296,28.226-17.171H68.715
			C78.694,115.73,94.862,116.521,96.938,117.026z"/>
	</g>
	<path fill="#AEA03F" d="M327.974,34.113c0,57.104-58.043,103.393-129.64,103.393c-71.604,0-129.642-46.288-129.642-103.393"/>
	<g>
		<path fill="#FFFFFF" d="M198.589,191.417c-1.234-0.001-2.52-0.541-4.167-1.754c-24.202-17.812-56.968-63.474-57.296-63.933
			c-0.89-0.954-1.356-2.135-1.356-3.375V9.447c0-2.683,2.182-4.864,4.863-4.864h115.402c2.681,0,4.861,2.182,4.861,4.864v112.908
			c0,1.24-0.467,2.421-1.313,3.324c-0.368,0.512-32.798,46.173-56.828,63.984C201.121,190.876,199.836,191.417,198.589,191.417
			L198.589,191.417z"/>
		<path fill="#CBCCD4" d="M256.035,5.083c2.405,0,4.361,1.958,4.361,4.364v112.908c0,1.112-0.418,2.172-1.178,2.982l-0.047,0.05
			l-0.04,0.057c-0.081,0.114-8.245,11.633-19.275,25.204c-10.159,12.499-24.895,29.345-37.399,38.614
			c-1.543,1.144-2.735,1.654-3.868,1.654c-1.121,0-2.314-0.512-3.871-1.657c-12.594-9.27-27.464-26.115-37.72-38.615
			c-11.135-13.571-19.384-25.09-19.466-25.204l-0.039-0.055l-0.045-0.049c-0.76-0.81-1.179-1.869-1.179-2.981V9.447
			c0-2.406,1.957-4.364,4.363-4.364H256.035 M256.035,4.083H140.633c-2.961,0-5.363,2.402-5.363,5.364v112.908
			c0,1.362,0.518,2.673,1.449,3.666c0,0,32.859,45.978,57.406,64.044c1.655,1.219,3.05,1.852,4.464,1.852
			c1.381,0,2.781-0.604,4.464-1.852c24.374-18.066,56.896-64.044,56.896-64.044c0.931-0.993,1.448-2.304,1.448-3.666V9.447
			C261.396,6.485,258.997,4.083,256.035,4.083L256.035,4.083z"/>
	</g>
	<path fill="#475A77" d="M140.633,4.083h115.402c2.962,0,5.361,2.402,5.361,5.364v112.908c0,1.362-0.517,2.673-1.448,3.666
		c0,0-10.128,14.319-23.317,30.116V64.293h-25.928l0.002,119.471c-2.606,2.335-5.171,4.462-7.652,6.302
		c-3.406,2.526-5.654,2.409-8.928,0c-2.641-1.943-5.378-4.211-8.16-6.708l0.002-119.064h-25.93l-0.003,91.571
		c-13.199-15.688-23.315-29.843-23.315-29.843c-0.932-0.993-1.448-2.304-1.448-3.666V9.447
		C135.271,6.485,137.672,4.083,140.633,4.083z M155.527,28.025l-7.4,1.073l5.354,5.219l-1.264,7.373l6.621-3.481l6.616,3.481
		l-1.262-7.373l5.353-5.219l-7.4-1.073l-3.307-6.706L155.527,28.025z M234.522,28.025l-7.399,1.073l5.354,5.219l-1.264,7.373
		l6.617-3.481l6.619,3.481l-1.266-7.373l5.356-5.219l-7.401-1.073l-3.309-6.706L234.522,28.025z M192.868,27.557l-12.001,1.742
		l8.683,8.463l-2.054,11.952l10.735-5.643l10.733,5.643l-2.052-11.952l8.686-8.463l-12.001-1.742l-5.366-10.876L192.868,27.557z"/>
</g>
</svg>
