<svg version="1.1" id="Layer_1" xmlns="http://www.w3.org/2000/svg" xmlns:xlink="http://www.w3.org/1999/xlink" width="100" height="110" viewBox="0 0 300 332.834" overflow="visible" enable-background="new 0 0 300 332.834" xml:space="preserve"><switch><g><g id="Layer_1_1_"><g><polygon fill="#FFC425" points="149.551,332.834 149.189,332.834 146.664,328.327 143.958,324.539 141.071,321.29 138.005,318.402 134.758,316.059 131.33,314.071 127.721,312.452 124.114,311.189 120.146,310.103 116.177,309.202 112.208,308.479 108.058,307.94 103.73,307.396 99.399,306.854 95.071,306.315 90.559,305.591 86.049,304.872 81.721,304.328 77.571,303.609 73.784,303.066 69.994,302.527 66.568,301.989 63.5,301.446 60.434,300.903 57.728,300.541 55.203,300.003 52.856,299.641 50.872,299.103 49.068,298.74 47.444,298.378 46.002,297.84 44.918,297.478 40.59,295.853 36.259,293.866 32.291,291.703 28.503,289.178 24.894,286.472 21.468,283.403 18.4,280.159 15.516,276.909 12.809,273.303 10.282,269.691 8.119,265.728 6.134,261.754 4.51,257.79 3.066,253.641 1.984,249.491 1.263,245.16 1.082,243.354 0.903,241.734 0.722,239.929 0.722,238.128 0.722,236.141 0.722,234.154 0.903,232.172 1.082,230.005 1.263,227.842 1.625,225.497 1.984,223.329 2.344,220.99 2.707,218.466 3.247,215.936 3.788,213.41 4.329,210.704 6.494,202.042 8.84,193.028 11.366,184.005 13.709,174.629 16.056,165.426 18.041,155.864 19.663,146.483 20.925,137.102 21.468,127.721 21.468,118.521 20.565,109.321 18.762,100.48 15.875,91.643 11.906,83.165 6.494,74.865 0,66.928 46.543,0 59.893,4.69 73.421,8.659 87.312,11.906 101.203,14.432 115.093,16.416 128.986,17.678 142.695,18.219 156.402,18.4 169.938,17.859 183.288,16.778 196.089,15.334 208.715,13.169 220.988,10.644 232.532,7.578 243.719,4.331 254.363,0.362 300,67.468 292.963,75.406 287.737,83.524 283.587,91.824 280.876,100.48 279.07,109.321 278.351,118.342 278.537,127.542 279.437,136.923 280.7,146.302 282.687,155.864 284.85,165.426 287.375,174.985 289.9,184.548 292.42,193.929 294.774,203.491 296.755,212.69 297.299,214.673 297.651,216.479 298.018,218.104 298.375,219.542 298.561,220.805 298.914,222.067 299.1,223.153 299.281,224.235 299.461,225.136 299.461,226.217 299.638,227.122 299.638,228.204 299.824,229.285 299.824,230.548 299.824,231.811 299.824,233.254 299.824,236.503 299.638,239.748 299.281,242.816 298.914,245.879 298.2,248.952 297.475,252.016 296.575,254.903 295.489,257.79 294.412,260.678 292.963,263.564 291.525,266.266 289.9,268.973 288.099,271.679 286.112,274.385 284.125,276.909 281.962,279.439 279.975,281.603 277.808,283.403 275.65,285.391 273.487,287.015 271.133,288.815 268.613,290.26 266.087,291.884 263.562,293.146 260.856,294.409 257.964,295.672 255.082,296.577 252.013,297.653 248.95,298.378 245.701,299.103 242.452,299.821 239.026,300.354 229.463,302.166 220.625,303.609 212.327,304.69 204.747,305.777 197.9,306.678 191.401,307.578 185.626,308.479 180.214,309.564 175.165,311.003 170.658,312.628 166.507,314.615 162.539,316.959 159.114,320.027 155.683,323.634 152.436,327.783 149.551,332.834"/><polygon fill="#006225" points="180.039,294.952 182.382,294.59 184.55,294.229 186.713,294.052 188.695,293.68 190.5,293.328 192.301,293.146 194.108,292.966 195.914,292.604 197.538,292.418 199.163,292.241 200.963,292.065 202.588,291.884 204.389,291.703 206.19,291.341 208,291.165 209.982,290.803 210.526,290.803 212.15,290.621 214.127,290.26 216.657,289.902 219.544,289.359 222.613,288.815 226.034,288.277 229.65,287.734 233.251,287.191 236.677,286.472 240.112,285.929 243.175,285.391 246.063,284.847 248.407,284.304 250.212,283.946 251.475,283.585 255.625,281.778 259.593,279.616 263.381,277.271 266.812,274.747 269.871,271.859 272.762,268.791 275.288,265.728 277.631,262.298 279.614,258.872 281.238,255.256 282.687,251.653 283.949,247.866 284.668,244.26 285.211,240.467 285.569,236.68 285.569,232.892 285.388,231.267 285.211,229.285 284.85,226.76 284.301,223.691 283.587,220.267 282.863,216.298 281.777,211.967 280.7,207.098 279.614,201.866 278.174,196.092 276.731,189.779 275.102,183.104 273.3,176.067 271.5,168.311 269.513,160.374 267.35,151.714 265.902,146.302 265.001,140.892 264.287,135.298 263.739,129.886 263.562,124.474 263.739,119.062 264.101,113.652 264.825,108.239 265.902,102.827 267.165,97.596 268.975,92.364 270.957,87.133 273.125,81.899 275.826,76.849 278.894,71.98 282.325,67.108 248.049,17.138 237.225,21.106 225.857,24.353 213.951,27.06 201.501,29.225 188.514,30.85 175.35,31.75 162,32.291 148.648,32.291 135.299,31.75 122.13,30.85 109.14,29.406 96.512,27.781 84.427,25.437 72.881,22.912 61.877,20.025 51.774,16.778 17.138,67.108 18.4,68.552 19.663,70.355 21.106,72.7 22.731,75.406 24.353,78.293 25.978,81.54 27.6,85.149 29.225,89.118 30.668,93.265 31.931,97.596 33.193,102.105 34.275,106.796 34.997,111.667 35.538,116.718 35.9,121.768 35.719,126.82 35.538,128.986 35.538,130.968 35.359,132.773 35.178,134.577 34.997,136.201 34.818,137.643 34.637,139.267 34.456,140.711 34.275,142.333 33.916,143.777 33.553,145.58 33.013,147.386 32.653,149.37 32.112,151.536 31.569,154.061 30.847,156.767 29.947,160.735 28.863,164.523 27.962,168.311 27.06,172.279 26.159,176.067 25.256,179.854 24.353,183.466 23.453,187.254 22.55,190.86 21.828,194.467 20.925,198.255 20.025,201.866 19.303,205.292 18.4,208.903 17.678,212.329 16.957,215.754 16.237,218.642 15.694,221.528 15.153,224.416 14.612,227.122 14.432,230.005 14.072,232.892 14.072,235.96 14.072,238.848 14.253,241.915 14.793,244.979 15.516,248.047 16.416,251.292 17.678,254.541 19.303,257.967 21.106,261.396 23.272,265.004 24.175,266.447 25.437,267.891 26.7,269.334 28.144,270.959 29.766,272.579 31.569,274.203 33.553,275.828 35.719,277.453 37.884,279.077 40.228,280.517 42.934,281.778 45.459,283.041 48.347,284.304 51.413,285.209 54.481,285.929 57.728,286.653 62.959,287.377 68.009,288.097 72.881,288.997 77.39,289.716 81.721,290.26 85.871,290.803 89.839,291.522 93.627,292.065 97.055,292.418 100.302,292.966 103.368,293.509 106.255,293.866 108.78,294.229 111.305,294.59 113.471,294.771 115.455,294.952 117.258,295.129 119.243,295.49 121.046,295.853 122.852,296.215 124.836,296.577 126.82,297.115 128.805,297.84 130.789,298.559 132.773,299.278 134.939,300.354 137.102,301.446 139.267,302.709 141.611,304.152 143.958,305.777 146.302,307.578 149.008,309.564 150.271,308.116 151.714,306.678 153.338,305.415 155.14,304.152 156.946,302.89 158.751,301.804 160.738,300.903 162.901,300.003 164.883,299.103 167.05,298.378 169.213,297.653 171.376,296.935 173.54,296.392 175.703,295.853 177.875,295.49 180.039,294.952"/><polygon fill="#FFC425" points="169.028,189.417 168.313,189.417 167.227,189.055 166.322,188.517 165.245,187.979 164.164,187.616 163.439,187.254 160.915,186.892 160.19,186.354 159.652,185.448 158.208,182.565 157.489,181.304 156.764,181.117 156.588,182.565 156.402,184.186 156.045,185.448 156.045,186.892 155.864,188.517 155.683,189.96 155.683,192.843 155.501,194.281 155.501,201.866 155.683,203.491 155.683,206.555 155.864,207.816 155.864,212.329 156.045,213.229 156.045,213.953 156.226,214.673 156.402,215.754 156.764,216.479 157.307,217.198 170.658,223.329 171.919,223.873 172.997,224.416 174.087,224.769 175.165,225.316 176.965,226.041 177.69,226.579 179.496,227.479 180.757,228.742 180.934,229.466 180.401,230.005 179.671,230.005 178.228,229.647 177.513,229.647 176.613,229.466 173.902,229.466 173.182,229.647 172.463,229.647 171.734,229.828 170.291,229.828 168.127,229.285 167.227,229.104 164.702,229.104 163.621,229.285 162.353,229.285 161.09,229.466 160.375,229.647 159.475,229.828 158.57,229.828 157.851,230.005 156.045,230.366 155.326,230.548 154.42,230.548 153.701,230.729 152.8,230.91 149.189,230.91 147.927,230.548 147.024,230.366 145.942,230.19 145.04,229.828 144.139,229.828 142.333,229.466 141.433,229.466 140.53,229.285 134.758,229.285 134.036,229.466 132.955,229.647 132.052,229.647 131.149,229.828 130.249,229.828 129.346,230.005 128.624,230.005 127.902,230.19 124.295,230.19 123.574,230.005 122.67,229.828 119.605,229.828 118.702,230.005 116.537,230.366 115.815,230.19 115.636,229.466 116.177,228.742 117.621,228.022 118.883,227.479 119.605,227.122 120.687,226.76 121.949,226.217 123.393,225.497 125.377,224.769 127.542,223.873 130.249,222.791 133.495,221.528 137.102,220.085 137.824,219.728 138.727,219.366 139.989,218.642 141.071,217.917 142.876,216.479 143.596,215.035 143.777,214.315 143.777,189.779 143.958,188.697 143.958,187.43 144.139,186.711 144.139,183.828 143.777,183.104 143.055,183.104 142.514,183.643 141.611,184.729 141.071,185.268 140.349,185.811 139.808,186.354 139.086,186.892 137.824,187.792 136.021,188.697 135.479,188.154 135.658,187.43 136.021,186.711 135.118,186.892 134.396,187.254 132.955,188.335 131.871,189.779 130.789,190.86 129.346,191.58 128.443,191.766 127.542,191.766 127.18,190.86 126.639,190.317 125.917,190.86 125.017,191.58 124.114,192.123 123.393,192.304 122.852,191.766 122.13,192.123 121.408,192.666 119.964,193.028 119.243,193.028 118.702,192.485 117.98,192.123 117.258,192.304 115.815,193.028 112.208,193.929 110.765,193.566 109.862,193.386 109.502,192.485 109.502,191.766 109.683,191.042 110.042,190.317 111.486,189.241 110.946,188.697 110.583,187.979 110.405,187.254 110.405,186.354 110.583,185.629 111.124,184.729 112.389,183.466 113.108,182.923 115.455,181.117 114.552,180.76 114.374,180.036 119.424,174.985 119.964,174.267 120.505,173.724 121.046,173.004 121.949,171.917 122.67,170.836 123.211,169.755 122.49,169.393 121.768,170.293 121.046,170.655 120.327,170.836 119.605,170.836 119.424,170.116 118.702,170.116 118.161,170.655 116.898,171.731 116.177,172.099 115.274,172.099 114.552,171.731 113.831,171.198 113.652,170.293 114.011,169.573 114.552,169.03 115.274,168.492 115.815,167.951 116.358,167.229 117.077,166.507 117.621,165.604 118.342,164.883 118.883,163.982 119.605,163.08 119.964,162.358 120.505,161.636 121.046,161.095 121.408,160.374 121.949,159.651 122.67,159.111 123.211,158.21 123.752,157.667 124.836,156.224 125.377,155.323 126.099,154.42 127.721,152.255 128.805,151.173 128.986,150.452 128.264,150.992 126.82,151.714 126.099,152.255 125.196,152.798 124.114,153.339 123.03,154.061 121.046,155.323 120.327,155.323 120.146,154.602 120.505,153.879 120.687,153.158 120.687,151.714 121.046,150.992 121.589,150.271 121.949,149.549 122.49,149.008 122.852,148.286 123.393,147.567 123.03,146.845 123.211,146.123 123.933,145.58 124.114,144.861 123.393,144.861 122.67,145.22 121.949,145.401 121.046,145.58 118.702,145.58 117.98,145.401 117.799,144.68 118.521,143.958 119.605,143.236 120.505,142.514 121.046,141.974 121.949,141.251 122.852,140.349 123.752,139.629 124.474,138.727 125.377,138.005 125.917,137.464 126.458,136.742 127.18,135.661 128.083,134.577 128.624,134.036 129.705,132.592 130.249,131.692 130.789,130.968 132.233,129.165 132.955,128.083 133.314,127.361 133.855,126.639 134.217,125.917 132.592,126.999 131.511,127.902 130.608,128.624 129.886,128.805 128.986,128.986 128.083,128.805 127.361,128.442 127.001,127.721 127.001,126.639 127.18,125.917 129.527,123.573 129.165,122.852 129.346,122.13 129.886,121.408 130.608,119.964 130.789,119.243 131.149,118.521 131.689,117.799 132.412,117.439 132.773,116.718 132.052,116.898 131.33,117.258 130.97,116.537 130.97,115.814 130.249,115.814 129.705,115.274 130.067,114.552 130.249,113.83 132.052,111.486 132.592,110.765 132.955,110.042 133.495,109.321 134.577,107.155 135.118,106.436 135.479,105.533 136.202,104.271 136.742,103.187 137.102,102.286 137.643,101.564 138.005,100.843 138.545,99.94 139.267,98.858 139.627,97.956 140.17,97.233 140.53,95.792 139.808,95.611 138.727,96.693 138.186,97.415 137.283,97.956 136.561,98.317 135.839,98.499 135.299,96.693 135.658,93.446 135.118,93.987 134.396,94.168 134.036,93.446 134.577,92.724 134.939,92.002 135.479,91.281 136.202,90.38 136.923,89.296 137.643,88.574 139.267,86.412 139.808,85.509 140.349,84.787 141.071,83.343 141.611,82.621 143.236,79.375 143.777,78.474 144.499,77.03 145.04,76.127 145.942,74.324 146.483,73.062 147.205,71.618 147.386,70.896 147.746,70.174 147.927,69.453 148.286,68.731 148.648,67.831 149.008,67.108 149.189,66.387 149.551,65.665 150.452,66.025 152.615,68.731 153.158,69.815 153.701,70.715 154.24,71.799 154.42,72.521 154.963,73.603 155.326,74.505 155.501,75.406 155.864,76.127 156.226,77.03 156.946,78.474 157.307,79.375 158.027,80.637 158.57,81.721 159.29,82.802 160.014,83.524 160.552,84.246 161.638,85.328 162,86.049 161.276,86.592 159.114,86.049 158.384,85.689 157.665,85.509 157.489,86.412 157.851,87.493 158.208,88.215 158.927,90.018 159.475,90.921 160.014,92.184 161.458,94.708 162.176,96.152 163.983,99.399 164.526,100.121 165.245,101.924 165.602,102.646 165.964,103.549 167.05,104.993 167.589,105.533 168.127,106.255 168.675,106.796 169.028,107.699 168.313,108.239 167.413,107.877 166.689,107.699 165.964,107.155 163.801,106.615 163.439,107.336 163.801,108.058 163.983,108.78 164.526,109.683 165.059,110.405 165.426,111.124 169.576,115.274 171.201,117.258 171.014,117.98 170.291,118.342 169.395,118.161 168.49,117.799 167.765,117.621 167.05,117.258 167.227,117.98 167.765,118.521 168.49,119.062 169.213,119.424 169.938,119.964 170.476,120.686 170.838,121.408 170.114,121.768 170.291,122.49 170.658,123.211 171.734,124.655 173.364,127.361 174.087,128.264 174.626,129.165 175.703,130.608 178.414,133.314 178.776,134.036 178.952,134.758 178.228,135.118 176.789,134.758 176.07,134.396 175.888,135.118 175.888,135.839 175.165,135.839 174.445,135.479 173.54,134.758 171.919,133.133 171.376,133.674 172.101,134.758 172.821,135.661 173.364,136.561 174.087,137.464 175.165,139.267 176.25,140.711 176.965,141.433 177.513,142.154 178.228,143.055 178.776,143.777 179.496,144.68 180.214,145.401 181.12,146.483 181.839,147.386 182.74,147.926 183.464,148.286 184.188,148.83 185.088,149.189 185.989,149.73 186.17,150.452 185.451,150.992 184.726,151.173 184.007,150.992 183.288,150.992 181.12,149.911 181.301,150.992 181.301,151.714 180.577,152.076 179.671,152.076 178.952,151.895 177.513,151.173 176.965,150.633 176.25,150.633 176.07,151.354 176.25,152.076 178.414,154.961 178.952,155.864 179.496,156.586 179.857,157.486 180.401,158.389 180.934,159.111 181.663,160.192 182.197,160.914 182.925,161.817 183.464,162.358 184.188,163.261 185.088,163.982 185.989,164.523 186.713,165.064 186.532,165.786 185.088,165.786 184.365,165.967 185.451,167.766 186.17,168.673 186.713,169.216 188.872,172.461 189.6,173.366 190.139,174.267 190.677,174.985 191.04,175.705 191.401,176.61 191.225,177.33 190.5,177.33 189.415,176.968 188.695,176.791 187.794,176.248 186.889,175.891 186.17,175.529 185.451,175.348 185.626,176.067 186.17,176.968 186.532,177.873 187.076,178.773 187.609,180.036 188.338,181.304 189.962,183.466 190.5,184.005 191.04,184.729 192.301,185.991 192.488,186.892 192.488,187.792 191.945,188.517 191.578,189.417 191.225,190.142 190.677,190.68 190.677,191.403 190.863,192.123 191.225,192.843 190.863,193.566 190.139,193.566 189.415,193.386 188.695,192.843 188.152,192.304 187.609,191.58 187.251,190.86 187.251,190.142 186.532,189.96 185.813,190.142 184.007,190.86 183.288,191.042 180.934,191.042 182.025,192.123 182.382,192.843 181.663,193.386 180.934,193.386 180.039,193.028 178.228,192.123 177.69,191.58 176.965,191.223 176.427,190.503 175.703,189.96 175.165,189.055 174.445,188.335 173.726,188.517 172.997,188.517 172.277,188.697 171.558,188.517 171.014,187.979 170.291,187.979 169.576,188.335 168.49,187.254 168.49,187.979 168.852,188.697 169.028,189.417"/><polygon fill="#FFC425" points="112.027,109.683 107.699,109.683 107.518,109.862 107.518,109.862 107.336,109.862 107.155,109.862 107.155,109.862 106.977,110.042 106.796,110.042 106.615,110.224 106.436,110.405 106.255,110.405 106.074,110.583 105.893,110.765 105.714,110.765 105.714,110.945 105.533,111.124 105.533,111.305 105.533,182.022 105.533,182.565 105.533,183.104 105.533,183.466 105.533,184.005 105.352,184.548 105.352,185.091 105.171,185.629 104.993,186.168 104.993,186.892 104.812,187.43 104.63,187.979 104.452,188.517 104.271,189.055 103.909,189.779 103.73,190.317 103.549,190.86 102.827,192.485 102.105,193.929 101.203,195.367 100.302,196.635 99.399,197.897 98.318,199.16 97.234,200.241 95.971,201.142 94.89,202.042 93.627,202.767 92.184,203.491 90.74,204.21 89.296,204.754 87.674,205.115 86.23,205.654 84.427,205.835 80.096,206.192 76.127,206.192 72.34,205.835 68.912,204.93 66.025,203.854 63.321,202.404 60.793,200.604 58.63,198.798 56.825,196.816 55.203,194.648 53.94,192.485 52.856,190.142 52.134,187.979 51.593,185.991 51.234,184.005 51.053,182.022 50.872,112.208 50.872,112.027 50.872,112.027 50.872,111.846 50.872,111.667 50.693,111.486 50.693,111.486 50.693,111.305 50.512,111.124 50.512,111.124 50.512,110.945 50.331,110.945 50.331,110.765 50.15,110.765 50.15,110.765 49.971,110.765 49.971,110.583 48.528,110.583 48.347,110.583 48.347,110.583 48.347,110.583 48.347,110.583 48.347,110.583 48.166,110.583 48.166,110.583 48.166,110.583 48.166,110.583 48.166,110.405 48.166,110.405 48.166,110.405 48.166,110.405 48.166,110.224 48.166,110.224 48.166,103.368 69.274,103.008 69.815,103.368 69.815,110.042 67.649,110.765 67.468,110.945 67.468,110.945 67.29,110.945 67.29,111.124 67.109,111.124 67.109,111.124 67.109,111.305 67.109,111.305 66.928,111.305 66.928,111.486 66.928,111.486 66.928,111.486 66.928,111.486 66.928,111.667 66.928,111.667 66.928,111.846 66.747,179.136 67.109,182.38 67.831,185.448 69.093,187.979 70.715,190.317 72.7,192.123 74.865,193.566 77.211,194.829 79.917,195.367 82.443,195.554 84.968,195.367 87.493,194.467 89.839,193.386 91.824,191.58 93.627,189.241 95.071,186.354 96.152,182.742 96.152,182.38 96.333,181.842 96.333,181.117 96.512,180.398 96.512,179.679 96.512,178.773 96.512,177.691 96.693,176.43 96.693,175.167 96.693,173.904 96.693,172.461 96.693,170.836 96.693,169.216 96.693,167.41 96.693,165.426 96.874,163.442 96.874,114.011 96.693,113.652 96.693,113.111 96.693,112.749 96.693,112.387 96.512,112.027 96.512,111.667 96.333,111.305 96.152,111.124 96.152,110.765 95.971,110.583 95.792,110.405 95.611,110.405 95.43,110.224 95.25,110.042 94.89,110.042 94.708,110.042 90.38,110.042 90.38,103.909 90.38,103.909 90.38,103.73 90.38,103.73 90.38,103.73 90.38,103.549 90.38,103.549 90.38,103.368 90.38,103.368 90.38,103.368 90.38,103.187 90.38,103.187 90.38,103.187 90.38,103.187 90.38,103.008 90.38,103.008 90.559,103.008 111.667,102.286 111.667,102.286 111.846,102.467 111.846,102.467 111.846,102.467 111.846,102.467 111.846,102.467 111.846,102.467 111.846,102.646 111.846,102.646 112.027,102.646 112.027,102.646 112.027,102.646 112.027,102.827 112.027,102.827 112.027,109.683"/><polygon fill="#FFC425" points="258.688,180.036 258.512,180.941 258.327,182.204 257.964,183.285 257.612,184.548 257.064,185.811 256.521,187.073 255.987,188.335 255.444,189.598 254.724,190.68 254,191.942 253.276,193.028 252.552,194.104 251.657,195.191 250.937,196.272 250.032,197.178 249.126,197.897 247.864,199.16 246.425,200.241 244.981,201.323 243.538,202.219 242.094,202.947 240.646,203.667 239.202,204.392 237.763,204.93 236.325,205.473 234.7,205.835 233.251,206.192 231.631,206.378 230.002,206.555 228.563,206.555 226.939,206.555 225.314,206.378 224.414,206.378 223.513,206.192 222.613,206.016 221.712,205.835 220.802,205.654 219.902,205.473 219.001,205.115 218.096,204.93 217.376,204.572 216.476,204.392 215.576,204.029 214.851,203.667 213.951,203.129 213.05,202.767 212.15,202.404 211.421,201.866 211.064,201.866 210.887,201.686 210.702,201.504 210.526,201.323 210.344,201.323 210.159,201.142 209.982,201.142 209.801,200.966 209.625,200.966 209.439,200.78 209.082,200.78 208.901,200.78 208.715,200.604 208.539,200.604 208.176,200.604 208,200.604 207.638,200.604 207.453,200.78 207.276,200.78 207.1,200.78 206.915,200.966 206.738,201.142 206.738,201.323 206.557,201.686 206.557,201.866 206.557,202.042 206.557,202.404 206.557,202.767 206.738,203.129 206.738,203.491 206.915,203.854 207.1,204.392 207.1,204.392 207.1,204.392 207.1,204.572 207.1,204.572 207.1,204.754 207.1,204.754 207.1,204.754 207.1,204.93 207.1,204.93 207.1,205.115 207.1,205.115 207.1,205.115 206.915,205.292 206.915,205.292 206.915,205.292 199.163,205.292 198.977,205.292 198.977,205.292 198.977,205.115 198.977,205.115 198.977,205.115 198.8,205.115 198.8,204.93 198.8,204.93 198.8,204.93 198.8,204.754 198.8,204.754 198.8,204.572 198.8,204.572 198.8,204.572 198.8,204.392 198.8,204.21 198.8,179.136 206.738,179.136 206.557,179.679 206.738,180.217 206.738,180.76 206.738,181.304 206.738,181.66 206.738,182.204 206.915,182.565 206.915,182.923 207.1,183.466 207.276,183.828 207.276,184.186 207.453,184.548 207.638,184.905 207.638,185.448 207.82,185.811 208,186.168 208.901,188.335 209.982,190.142 211.421,191.58 212.865,192.843 214.495,194.104 216.476,195.011 218.282,195.729 220.264,196.454 222.065,196.816 224.051,196.992 226.034,197.178 227.839,197.178 229.463,197.178 231.264,196.992 232.708,196.816 233.971,196.454 235.233,196.092 236.325,195.367 237.763,194.467 239.026,193.386 240.289,192.123 241.551,190.68 242.637,189.241 243.538,187.43 244.262,185.629 244.8,183.466 244.981,181.479 244.8,179.136 244.438,176.791 243.538,174.267 242.452,171.731 240.646,169.03 239.383,167.41 238.125,165.967 236.677,164.523 235.233,163.261 233.971,161.817 232.532,160.735 231.088,159.473 229.826,158.389 228.202,157.126 226.762,156.045 225.314,154.961 223.875,154.061 222.432,152.977 220.988,151.895 219.544,150.633 218.096,149.549 215.756,147.926 213.589,146.302 211.607,144.68 209.801,143.236 208.176,141.974 206.557,140.53 205.29,139.267 204.027,138.186 202.951,136.923 202.045,135.661 201.144,134.577 200.425,133.314 199.701,132.052 199.163,130.789 198.62,129.346 198.252,127.902 197.9,126.28 197.714,124.474 197.714,122.67 198.077,120.686 198.438,118.883 199.163,116.898 199.882,115.093 200.963,113.29 202.221,111.486 203.669,109.862 205.475,108.239 207.453,106.796 209.625,105.533 212.15,104.271 214.851,103.368 217.739,102.646 218.639,102.467 219.725,102.286 220.802,102.286 221.888,102.286 223.151,102.286 224.238,102.286 225.5,102.286 226.577,102.467 228.025,102.467 229.288,102.827 230.55,103.008 231.989,103.187 233.437,103.549 234.876,103.909 236.325,104.271 237.94,104.63 237.94,104.812 238.125,104.812 238.306,104.812 238.488,104.993 238.664,104.993 238.85,104.993 238.85,104.993 239.026,105.171 239.202,105.171 239.383,105.171 239.569,105.171 239.75,105.352 239.926,105.352 240.112,105.352 240.112,105.352 240.289,105.352 240.469,103.368 248.583,103.368 248.583,125.377 241.189,125.558 241.012,122.852 241.012,122.13 241.012,121.227 240.832,120.505 240.646,119.605 240.289,118.883 240.112,118.161 239.75,117.439 239.383,116.898 239.026,116.177 238.488,115.636 237.94,115.093 237.401,114.552 236.863,114.011 236.139,113.471 235.6,112.93 234.7,112.568 232.708,111.486 230.55,110.765 228.387,110.405 226.401,110.405 224.414,110.583 222.432,110.945 220.625,111.486 219.001,112.387 217.563,113.471 216.3,114.733 215.39,116.177 214.495,117.799 214.127,119.424 213.951,121.048 214.127,123.03 214.675,124.836 214.851,125.558 215.213,126.099 215.756,126.82 216.3,127.542 216.833,128.264 217.563,129.165 218.463,129.886 219.359,130.789 220.45,131.692 221.35,132.773 222.613,133.674 223.875,134.577 225.138,135.661 226.577,136.742 228.202,138.005 229.826,139.086 231.451,140.349 233.076,141.433 234.7,142.514 236.139,143.598 237.587,144.68 238.85,145.761 240.112,146.664 241.375,147.567 242.452,148.467 243.538,149.189 244.615,150.092 245.525,150.813 246.244,151.536 247.144,152.076 247.864,152.798 248.407,153.339 249.126,154.061 249.845,154.782 250.575,155.683 251.29,156.586 252.2,157.486 252.918,158.57 253.638,159.651 254.363,160.735 255.082,161.636 255.625,162.72 256.164,163.62 256.707,164.523 257.25,165.426 257.426,165.967 257.783,166.688 257.783,167.229 257.964,167.766 258.15,168.311 258.327,168.673 258.688,169.216 258.688,169.755 258.875,170.293 259.05,171.017 259.227,171.731 259.227,172.461 259.227,173.18 259.413,174.085 259.413,174.985 259.227,176.067 259.227,177.33 259.05,178.592 258.688,180.036"/><polygon fill="#FFC425" points="251.113,244.617 251.29,244.26 251.475,244.078 251.657,243.897 251.837,243.54 252.013,243.354 252.2,242.997 252.375,242.816 252.375,242.635 252.552,242.277 252.738,242.092 252.918,241.734 253.1,241.554 253.1,241.372 253.276,241.015 253.462,240.829 253.462,240.653 253.462,240.829 253.638,241.015 253.638,241.015 253.814,241.191 254,241.372 254,241.554 254.181,241.554 254.363,241.734 254.539,241.734 254.724,241.915 254.724,242.092 254.901,242.092 255.082,242.092 255.258,242.277 255.444,242.454 255.625,242.454 265.001,245.879 266.269,246.604 267.531,246.966 268.613,247.142 269.513,247.142 270.237,247.142 270.957,246.784 271.5,246.423 271.676,246.065 272.039,245.522 272.039,245.16 271.676,244.44 271.5,244.078 270.957,243.54 270.237,242.997 269.336,242.635 268.25,242.277 256.707,239.566 256.521,239.566 256.521,239.566 256.344,239.566 256.164,239.381 256.164,239.381 255.987,239.381 255.987,239.381 255.801,239.381 255.625,239.381 255.444,239.381 255.258,239.381 255.082,239.381 254.901,239.381 254.539,239.381 254.363,239.381 254,239.566 254.539,234.697 254.724,234.879 254.901,235.06 254.901,235.06 255.082,235.06 255.258,235.24 255.625,235.24 255.801,235.417 255.987,235.417 256.164,235.417 256.344,235.603 256.521,235.603 256.521,235.603 256.707,235.603 256.887,235.603 257.064,235.603 257.064,235.603 259.593,236.141 260.675,236.503 261.933,236.865 263.019,237.041 263.924,237.223 264.825,237.585 265.72,237.766 266.625,237.942 267.35,238.128 268.075,238.304 268.793,238.485 269.336,238.666 269.871,238.848 270.237,239.028 270.776,239.028 270.957,239.204 271.319,239.381 273.125,240.109 274.387,241.015 275.468,242.092 276.188,243.354 276.55,244.44 276.55,245.703 276.364,246.966 276.012,248.047 275.288,249.129 274.206,250.029 273.125,250.753 271.676,251.115 270.237,251.292 268.426,251.292 266.625,250.753 264.458,250.029 263.019,249.31 261.576,248.767 260.313,248.229 258.875,247.685 257.783,247.142 256.707,246.784 255.625,246.423 254.724,245.879 254,245.703 253.276,245.341 252.552,245.16 252.013,244.803 251.657,244.803 251.29,244.617 251.113,244.617 251.113,244.617"/><polygon fill="#FFC425" points="31.931,230.005 31.931,229.828 31.931,229.466 32.112,229.285 32.112,229.104 32.112,228.742 32.112,228.565 32.291,228.385 32.291,228.022 32.291,227.842 32.291,227.479 32.291,227.304 32.291,226.941 32.291,226.579 32.291,226.402 32.291,226.041 32.291,225.679 24.715,226.217 24.715,226.217 24.715,226.402 24.715,226.76 24.715,227.122 24.715,227.665 24.715,228.204 24.715,228.742 24.715,229.285 24.894,229.828 24.894,230.548 24.894,231.267 25.075,231.811 25.075,232.354 25.075,232.892 25.256,233.254 25.256,233.616 25.075,233.797 24.894,233.797 24.715,233.797 24.534,233.797 24.175,233.797 23.994,233.797 23.631,233.797 23.453,233.797 23.091,233.797 22.731,233.616 22.55,233.616 22.19,233.616 22.009,233.435 21.828,233.435 21.468,233.254 21.288,233.254 20.925,221.891 20.925,222.067 20.925,222.067 21.106,222.067 21.288,222.067 21.468,222.067 21.647,222.067 21.828,222.067 22.009,222.253 22.369,222.253 22.55,222.253 22.731,222.253 22.91,222.253 23.091,222.253 23.272,222.253 23.453,222.253 23.631,222.253 43.475,221.167 43.656,221.167 43.656,221.167 43.837,221.167 44.018,220.99 44.197,220.99 44.378,220.805 44.559,220.805 44.74,220.628 44.918,220.628 45.1,220.447 45.281,220.447 45.459,220.267 45.459,220.267 45.641,220.267 45.641,220.267 45.641,220.267 46.181,230.729 45.821,230.91 45.459,230.91 45.1,231.091 44.74,231.091 44.559,231.091 44.197,231.267 44.018,231.267 43.656,231.267 43.475,231.453 43.115,231.453 42.934,231.453 42.756,231.453 42.394,231.453 42.212,231.629 42.034,231.629 41.853,231.629 41.853,231.629 41.853,231.453 41.853,231.453 42.034,231.267 42.034,231.267 42.034,231.091 42.212,231.091 42.212,230.91 42.212,230.91 42.212,230.729 42.212,230.729 42.212,230.729 42.212,230.548 42.212,230.548 42.212,230.366 42.212,230.366 42.212,225.316 36.259,225.316 36.081,225.679 36.081,226.041 36.081,226.402 36.081,226.579 36.081,226.941 36.081,227.122 36.081,227.479 36.081,227.665 36.259,228.022 36.259,228.204 36.259,228.385 36.259,228.565 36.259,228.742 36.44,229.104 36.44,229.285 36.44,229.285 36.44,229.466 36.259,229.466 36.081,229.466 35.9,229.466 35.719,229.466 35.538,229.466 35.359,229.647 34.997,229.647 34.637,229.647 34.275,229.647 33.916,229.828 33.553,229.828 33.193,229.828 32.832,229.828 32.291,229.828 31.931,230.005"/><polygon fill="#FFC425" points="262.838,214.492 262.838,214.315 262.838,213.953 262.662,213.592 262.662,213.41 262.662,213.053 262.476,212.867 262.476,212.69 262.476,212.329 262.476,212.147 262.476,211.967 262.476,211.604 262.3,211.429 262.3,211.247 262.3,210.885 262.3,210.528 262.476,210.342 262.838,210.166 263.196,209.979 263.381,209.979 263.739,209.804 264.101,209.804 264.287,209.623 264.644,209.623 264.825,209.623 265.001,209.623 265.187,209.441 265.364,209.623 265.549,209.623 265.72,209.623 266.087,209.623 266.269,209.623 266.45,209.623 266.269,209.979 266.269,210.342 266.269,210.528 266.269,210.885 266.087,211.247 266.087,211.429 266.087,211.79 266.087,212.147 266.087,212.329 266.087,212.69 266.087,213.053 266.087,213.229 266.269,213.592 266.269,213.953 266.269,214.315 266.45,214.492 266.988,214.492 267.531,214.492 268.075,214.492 268.613,214.492 269.336,214.492 269.871,214.492 270.599,214.492 271.133,214.315 271.676,214.315 272.395,214.315 272.939,214.13 273.487,214.13 273.839,213.953 274.206,213.953 274.563,213.772 274.925,213.772 274.75,213.053 274.75,212.51 274.75,211.79 274.563,211.247 274.563,210.704 274.387,210.342 274.387,209.979 274.387,209.441 274.206,209.079 274.206,208.718 274.206,208.36 274.206,208.179 274.025,207.816 274.025,207.641 274.025,207.455 273.839,207.278 274.025,207.278 274.206,207.278 274.387,207.278 274.75,207.278 275.102,207.278 275.288,207.455 275.65,207.455 276.012,207.455 276.364,207.641 276.55,207.641 276.913,207.641 277.274,207.816 277.631,207.816 277.808,207.998 278.174,208.179 278.351,208.36 278.351,219.185 278.174,219.004 277.994,219.004 277.808,218.822 277.631,218.642 277.631,218.466 277.451,218.279 277.274,218.279 277.088,218.104 276.913,218.104 276.731,217.917 276.55,217.917 276.364,217.917 276.188,217.741 276.012,217.741 275.826,217.741 275.468,217.56 257.612,218.466 257.426,218.466 257.064,218.466 256.887,218.466 256.707,218.642 256.521,218.642 256.344,218.642 256.164,218.822 255.987,218.822 255.801,219.004 255.625,219.004 255.258,219.185 255.082,219.366 254.901,219.542 254.901,219.542 254.724,219.728 254.539,219.904 253.814,207.278 254,207.098 254.363,207.098 254.539,207.098 254.901,206.916 255.258,206.916 255.625,206.735 255.801,206.735 256.164,206.735 256.521,206.555 256.887,206.555 257.25,206.555 257.612,206.555 257.783,206.378 258.15,206.378 258.327,206.378 258.688,206.378 258.688,206.555 258.512,206.735 258.512,206.735 258.327,206.916 258.327,207.098 258.327,207.098 258.15,207.278 258.15,207.278 258.15,207.455 258.15,207.455 257.964,207.641 257.964,207.641 257.964,207.816 257.964,207.816 257.964,207.998 257.964,207.998 257.783,208.36 257.783,208.718 257.612,209.079 257.612,209.441 257.612,209.804 257.612,210.166 257.612,210.528 257.612,210.885 257.783,211.247 257.783,211.604 257.783,212.147 257.964,212.69 257.964,213.053 258.15,213.592 258.327,214.13 258.512,214.492 262.838,214.492"/><polygon fill="#FFC425" points="250.75,244.979 250.937,245.16 251.29,245.341 251.475,245.341 251.837,245.522 252.013,245.703 252.2,245.703 252.375,245.879 252.552,245.879 252.738,246.065 252.918,246.241 253.1,246.423 253.276,246.423 253.462,246.604 253.638,246.784 253.814,246.784 254,246.966 253.814,247.142 253.638,247.318 253.462,247.504 253.462,247.504 253.276,247.685 253.1,247.866 252.918,248.047 252.918,248.229 252.738,248.409 252.552,248.591 252.375,248.952 252.375,249.129 252.2,249.31 252.2,249.491 252.2,249.672 252.2,249.853 253.276,250.935 254.539,251.835 255.625,252.74 256.887,253.816 257.964,254.722 259.05,255.627 260.313,256.527 261.4,257.429 262.476,258.152 263.381,258.872 264.287,259.591 265.187,260.315 266.087,260.854 266.812,261.396 267.531,261.754 268.25,262.116 265.364,266.09 265.187,265.904 265.001,265.547 264.825,265.185 264.644,265.004 264.458,264.642 264.101,264.284 263.924,263.922 263.562,263.564 263.196,263.193 262.838,262.841 262.476,262.479 261.933,261.931 261.576,261.578 261.038,261.216 260.489,260.854 260.137,260.315 252.2,253.816 250.032,252.016 249.674,252.378 249.489,252.554 249.312,252.74 248.95,253.098 248.769,253.278 248.583,253.46 248.407,253.816 248.226,254.003 248.049,254.179 247.864,254.36 247.864,254.541 247.688,254.903 247.506,254.903 247.506,255.256 247.321,255.441 247.321,255.441 246.963,255.256 246.788,254.903 246.601,254.722 246.425,254.36 246.244,254.179 246.063,254.003 245.877,253.816 245.701,253.641 245.525,253.46 245.525,253.278 245.338,253.098 245.338,252.916 245.163,252.74 245.163,252.74 245.163,252.554 245.163,252.554 245.163,252.378 245.338,252.197 245.525,251.835 245.877,251.478 246.244,251.115 246.601,250.753 246.963,250.215 247.321,249.672 247.688,249.129 248.049,248.591 248.583,248.047 249.126,247.318 249.489,246.784 249.845,246.241 250.389,245.522 250.75,244.979"/><polygon fill="#FFC425" points="249.845,268.973 243.175,257.79 243.175,257.79 243.175,257.609 243,257.429 242.814,257.247 242.637,257.066 242.452,256.89 242.275,256.704 242.094,256.527 241.909,256.527 241.737,256.347 241.551,256.166 241.189,255.984 241.012,255.804 240.832,255.627 240.646,255.627 240.469,255.441 240.646,255.256 240.832,255.079 241.189,254.903 241.375,254.722 241.551,254.36 241.909,254.179 242.094,254.003 242.452,253.816 242.637,253.641 243,253.46 243.175,253.278 243.538,253.098 243.719,252.916 244.076,252.74 244.262,252.554 244.438,252.554 244.438,252.74 244.438,252.916 244.615,253.098 244.8,253.46 244.8,253.641 244.981,253.816 244.981,254.179 245.163,254.36 245.338,254.722 245.338,254.903 245.525,255.256 245.701,255.627 245.877,255.984 246.244,256.347 246.425,256.527 246.601,256.89 254.724,269.516 258.875,266.628 258.875,266.628 259.05,266.447 259.05,266.447 259.227,266.266 259.227,266.266 259.413,266.09 259.413,266.09 259.593,265.904 259.593,265.728 259.775,265.547 259.775,265.547 259.951,265.365 259.951,265.185 260.137,265.004 260.137,264.827 260.313,264.642 260.489,264.827 260.675,265.185 260.856,265.365 261.038,265.547 261.213,265.904 261.4,266.09 261.576,266.447 261.751,266.628 261.751,266.99 261.933,267.167 261.933,267.528 261.933,267.71 261.933,268.072 261.933,268.253 261.933,268.615 261.933,268.791 261.038,269.691 260.137,270.416 259.227,271.14 258.512,271.679 257.612,272.402 257.064,272.765 256.344,273.303 255.801,273.842 255.258,274.203 254.724,274.565 254.363,274.747 254,275.104 253.638,275.29 253.462,275.29 253.276,275.466 253.1,275.466 249.845,268.973"/><polygon fill="#FFC425" points="205.475,43.475 205.837,43.296 206.19,43.296 206.557,43.296 206.915,43.475 207.276,43.475 207.82,43.475 208.176,43.656 208.715,43.837 209.082,44.018 209.625,44.197 209.982,44.559 210.526,44.737 210.887,45.1 211.064,45.462 211.421,45.821 211.607,46.181 217.019,61.336 220.802,51.413 220.802,51.234 220.988,51.234 220.988,51.053 220.988,50.872 220.988,50.872 220.988,50.872 220.988,50.693 221.169,50.512 221.169,50.512 221.169,50.331 221.169,50.331 221.169,50.15 221.169,50.15 221.169,49.971 221.169,49.971 221.169,49.79 221.169,47.444 225.314,49.068 219.001,71.437 218.825,71.437 218.639,71.437 218.463,71.437 218.282,71.437 218.096,71.256 217.919,71.256 217.739,71.256 217.563,71.256 217.201,71.077 217.019,71.077 216.833,70.896 216.476,70.896 216.3,70.715 215.938,70.715 215.756,70.537 215.39,70.355 207.276,46.543 207.276,46.362 207.276,46.181 207.276,46.181 207.276,46.002 207.1,45.821 207.1,45.641 206.915,45.462 206.915,45.1 206.738,44.918 206.557,44.737 206.375,44.559 206.19,44.197 206.19,44.018 206.013,43.837 205.652,43.656 205.475,43.475"/><polygon fill="#FFC425" points="86.771,284.48 81.721,283.585 81.902,283.403 82.081,283.228 82.081,283.041 82.262,282.865 82.262,282.865 82.443,282.685 82.622,282.503 82.622,282.322 82.622,282.141 82.802,281.965 82.802,281.778 82.983,281.603 82.983,281.422 82.983,281.24 82.983,281.06 83.165,280.878 84.065,272.579 79.196,282.865 77.39,271.679 76.309,279.978 76.127,280.159 76.127,280.34 76.127,280.517 76.127,280.702 76.127,280.878 76.127,281.06 76.127,281.24 76.127,281.422 76.309,281.603 76.309,281.778 76.309,281.965 76.309,282.141 76.49,282.322 76.49,282.322 76.49,282.503 76.668,282.685 71.618,281.965 71.618,281.778 71.799,281.778 71.799,281.603 71.978,281.422 72.159,281.24 72.159,281.06 72.159,280.878 72.34,280.702 72.34,280.517 72.34,280.34 72.34,280.159 72.34,279.978 72.521,279.797 72.521,279.616 72.521,279.439 72.521,279.254 72.521,279.077 72.7,278.716 72.7,278.177 72.881,277.806 72.881,277.271 73.062,276.553 73.243,275.828 73.421,274.928 73.421,273.842 73.603,272.765 73.962,271.679 74.143,270.416 74.324,268.973 74.505,267.353 74.865,265.728 75.046,264.104 75.046,263.379 75.227,263.017 75.227,262.479 75.227,261.931 75.227,261.578 75.227,261.216 75.227,260.854 75.227,260.491 75.227,260.135 75.227,259.953 75.227,259.591 75.046,259.415 75.046,259.229 75.046,259.053 74.865,258.69 74.865,258.51 79.196,259.415 80.637,269.868 84.787,260.315 90.018,260.854 89.839,260.854 89.839,261.035 89.658,261.216 89.478,261.396 89.478,261.578 89.296,261.754 89.296,261.931 89.118,262.116 88.937,262.298 88.937,262.479 88.937,262.659 88.755,262.841 88.755,262.841 88.755,263.017 88.755,263.193 88.755,263.379 87.674,272.941 87.493,274.203 87.312,275.466 87.133,276.553 87.133,277.629 86.952,278.534 86.952,279.439 86.952,280.159 86.771,281.06 86.771,281.778 86.771,282.322 86.771,282.865 86.771,283.228 86.771,283.766 86.771,283.946 86.771,284.304 86.771,284.48"/><polygon fill="#FFC425" points="162.539,61.877 161.815,61.877 161.276,61.877 160.552,61.696 159.833,61.696 159.114,61.515 158.57,61.336 157.851,60.975 157.126,60.793 156.402,60.434 155.864,60.072 155.14,59.531 154.42,59.171 153.701,58.63 153.158,57.909 152.436,57.368 151.714,56.646 151.895,56.284 151.895,55.924 151.895,55.562 152.077,55.381 152.255,55.021 152.255,54.84 152.436,54.662 152.615,54.3 152.8,54.119 152.977,53.94 153.338,53.759 153.52,53.578 153.701,53.399 154.063,53.218 154.24,53.218 154.601,53.037 154.963,53.037 154.963,53.578 155.14,54.119 155.326,54.662 155.683,55.203 155.864,55.562 156.226,55.924 156.588,56.284 156.946,56.646 157.126,56.825 157.665,57.187 158.027,57.368 158.384,57.546 158.927,57.728 159.29,57.728 159.833,57.909 160.19,57.909 160.738,57.909 161.458,58.087 162,57.909 162.539,57.909 163.077,57.728 163.621,57.546 163.983,57.368 164.526,57.006 164.883,56.646 165.245,56.465 165.602,56.103 165.964,55.743 166.145,55.381 166.322,55.203 166.507,54.84 166.507,54.48 166.689,53.94 166.689,53.399 166.689,52.856 166.689,52.496 166.689,51.956 166.507,51.593 166.322,51.053 166.145,50.693 165.789,50.331 165.426,50.15 165.059,49.79 164.702,49.609 164.164,49.25 163.621,49.068 163.077,48.887 162.353,48.706 160.19,48.347 159.652,48.166 159.114,48.166 158.751,47.987 158.384,47.987 158.027,47.806 157.665,47.806 157.307,47.625 156.946,47.625 156.764,47.625 156.402,47.444 156.226,47.444 156.045,47.265 155.864,47.265 155.683,47.265 155.501,47.084 155.501,47.084 154.963,46.724 154.601,46.543 154.24,46.181 153.877,45.821 153.52,45.462 153.338,45.1 153.158,44.737 152.977,44.378 152.8,44.018 152.8,43.475 152.615,42.934 152.615,42.575 152.8,42.034 152.8,41.493 152.977,41.131 153.158,40.409 153.701,39.328 154.24,38.425 155.14,37.703 155.864,37.162 156.946,36.8 158.027,36.44 159.114,36.44 160.19,36.44 161.276,36.44 162.353,36.622 163.439,36.981 164.526,37.522 165.426,37.884 166.322,38.606 167.227,39.146 167.765,39.868 167.952,40.049 168.127,40.228 168.127,40.59 168.127,40.769 167.952,41.131 167.952,41.312 167.765,41.493 167.413,41.853 167.227,42.034 166.865,42.212 166.689,42.394 166.322,42.575 166.145,42.756 165.789,42.934 165.602,42.934 165.426,43.115 165.059,42.394 164.526,41.672 163.983,41.131 163.263,40.59 162.539,40.228 161.815,40.049 160.915,39.868 160.19,39.868 159.475,39.868 158.751,40.049 158.027,40.228 157.489,40.59 157.126,40.95 156.764,41.493 156.588,42.212 156.588,42.756 156.764,42.934 156.946,43.115 157.126,43.296 157.307,43.475 157.489,43.656 157.665,43.837 158.027,44.018 158.208,44.018 158.384,44.197 158.751,44.197 158.927,44.378 159.29,44.559 159.652,44.559 159.833,44.559 160.19,44.737 160.738,44.737 162.901,45.281 164.883,45.821 166.689,46.543 167.952,47.625 169.028,48.706 169.752,49.971 170.114,51.234 170.291,52.677 170.291,54.119 169.938,55.562 169.395,56.825 168.675,58.087 167.765,59.35 166.689,60.253 165.426,60.975 163.983,61.515 162.539,61.877"/><polygon fill="#FFC425" points="118.342,64.043 117.621,64.221 117.077,64.221 116.358,64.221 115.636,64.221 114.915,64.043 114.374,63.862 113.652,63.681 112.93,63.5 112.208,63.14 111.486,62.959 110.765,62.599 110.042,62.056 109.321,61.696 108.599,61.156 107.877,60.615 107.155,60.072 107.155,59.531 107.155,59.35 107.155,58.99 107.155,58.63 107.336,58.449 107.518,58.087 107.518,57.909 107.699,57.546 107.877,57.368 108.058,57.187 108.239,57.006 108.599,56.825 108.78,56.646 108.961,56.465 109.321,56.284 109.502,56.103 109.862,56.103 110.042,56.646 110.224,57.187 110.583,57.728 110.765,58.087 111.124,58.449 111.486,58.809 111.846,59.171 112.208,59.531 112.568,59.712 112.93,59.893 113.471,60.072 113.831,60.072 114.374,60.253 114.733,60.253 115.274,60.253 115.636,60.253 116.358,60.434 116.898,60.434 117.439,60.253 117.98,60.072 118.521,59.893 119.062,59.712 119.424,59.35 119.784,58.99 120.146,58.63 120.505,58.269 120.867,57.909 121.046,57.546 121.227,57.368 121.408,56.825 121.589,56.646 121.589,56.284 121.589,55.743 121.589,55.203 121.589,54.662 121.589,54.3 121.408,53.759 121.227,53.399 121.046,53.037 120.687,52.677 120.505,52.315 119.964,52.134 119.605,51.774 119.243,51.593 118.702,51.413 118.161,51.234 117.621,51.234 116.898,51.053 114.552,50.872 114.011,50.872 113.652,50.872 113.108,50.693 112.749,50.693 112.389,50.693 112.027,50.693 111.667,50.512 111.486,50.512 111.124,50.512 110.765,50.331 110.583,50.331 110.405,50.331 110.224,50.331 110.042,50.15 109.862,50.15 109.862,50.15 109.321,49.79 108.961,49.609 108.42,49.431 108.058,49.068 107.699,48.706 107.518,48.347 107.155,47.987 106.977,47.625 106.796,47.265 106.796,46.724 106.615,46.362 106.615,45.821 106.615,45.462 106.615,44.918 106.615,44.378 106.796,43.837 107.155,42.756 107.699,41.672 108.42,40.769 109.321,40.228 110.224,39.688 111.124,39.328 112.208,39.146 113.29,38.965 114.374,38.965 115.636,38.965 116.718,39.146 117.799,39.506 118.702,39.868 119.784,40.409 120.505,40.95 121.227,41.493 121.589,41.853 121.589,42.034 121.768,42.394 121.768,42.575 121.589,42.756 121.589,43.115 121.408,43.296 121.227,43.656 120.867,43.837 120.687,44.197 120.327,44.378 120.146,44.559 119.964,44.737 119.605,44.918 119.424,45.1 119.243,45.1 118.883,44.378 118.342,43.837 117.621,43.296 116.898,42.934 116.177,42.575 115.274,42.394 114.552,42.394 113.831,42.394 113.108,42.575 112.389,42.756 111.667,43.115 111.124,43.475 110.765,43.837 110.583,44.378 110.405,45.1 110.583,45.641 110.583,45.821 110.765,46.002 110.946,46.181 111.305,46.362 111.486,46.543 111.667,46.543 111.846,46.724 112.208,46.724 112.389,46.903 112.749,46.903 113.108,47.084 113.29,47.084 113.652,47.084 114.011,47.265 114.374,47.265 114.733,47.265 117.077,47.444 119.062,47.806 120.867,48.347 122.13,49.25 123.393,50.331 124.295,51.413 124.836,52.856 125.196,54.119 125.377,55.562 125.196,57.006 124.836,58.449 124.114,59.712 123.393,60.975 122.311,62.056 121.227,62.959 119.964,63.681 118.342,64.043"/><polygon fill="#FFC425" points="140.711,41.672 138.545,41.131 138.186,41.131 138.005,41.131 137.643,41.131 137.464,41.131 137.102,41.131 136.923,41.131 136.742,41.131 136.561,41.131 136.202,41.131 136.021,41.312 135.658,41.312 135.479,41.312 135.299,41.312 135.118,41.493 134.758,41.493 134.577,41.672 134.396,59.531 134.396,59.531 134.396,59.531 134.396,59.531 134.396,59.531 134.396,59.712 134.396,59.712 134.396,59.712 134.396,59.712 134.396,59.712 134.396,59.893 134.396,59.893 134.396,59.893 134.396,59.893 134.939,60.975 130.067,61.877 130.608,60.793 130.608,60.615 130.608,60.615 130.608,60.615 130.608,60.615 130.608,60.615 130.608,60.615 130.608,60.615 130.608,60.615 130.608,60.434 130.608,60.434 130.608,60.434 130.608,60.434 130.608,60.434 130.789,41.853 130.608,41.672 130.427,41.672 130.067,41.493 129.886,41.493 129.527,41.493 129.165,41.493 128.805,41.312 128.443,41.312 128.083,41.312 127.721,41.493 127.18,41.493 126.82,41.493 126.458,41.493 125.917,41.493 125.558,41.672 125.196,41.672 125.017,41.672 124.836,41.672 124.836,41.853 124.655,41.853 124.474,41.853 124.474,41.853 124.295,42.034 124.295,42.034 124.114,42.034 124.114,42.212 123.933,42.212 123.752,42.394 123.752,42.394 123.574,42.394 123.574,42.575 123.393,42.575 123.393,38.425 140.711,37.522 140.711,41.672"/><polygon fill="#FFC425" points="238.85,279.797 238.306,279.616 237.94,279.616 237.587,279.439 237.225,279.254 236.863,279.077 236.5,278.896 236.139,278.534 235.777,278.354 235.6,277.991 235.233,277.629 235.062,277.271 234.876,276.909 234.514,276.366 234.337,275.828 234.157,275.29 234.157,274.747 233.971,274.385 233.794,274.027 233.614,273.484 233.614,273.122 233.437,272.579 233.251,272.04 233.251,271.679 233.076,271.14 232.894,270.778 232.894,270.234 232.708,269.868 232.708,269.334 232.532,268.973 232.532,268.429 232.351,268.072 232.175,267.528 231.989,266.628 231.813,265.904 231.631,265.185 231.451,264.465 231.451,263.922 231.264,263.193 231.088,262.659 230.913,262.298 230.913,261.754 230.726,261.396 230.726,261.035 230.55,260.854 230.55,260.678 230.55,260.491 230.55,260.315 230.55,260.315 230.369,260.315 230.369,260.135 230.369,259.953 230.188,259.772 230.188,259.772 230.188,259.591 230.188,259.591 230.188,259.415 230.002,259.415 230.002,259.229 229.826,259.053 229.826,259.053 229.65,258.872 229.463,258.69 229.288,258.51 229.107,258.329 233.614,257.066 233.614,257.247 233.437,257.429 233.437,257.609 233.437,257.79 233.437,257.967 233.437,258.152 233.437,258.152 233.614,258.329 233.614,258.51 233.614,258.69 233.614,258.872 233.614,259.053 233.794,259.229 233.794,259.415 233.794,259.591 233.971,259.591 234.157,260.678 234.337,261.578 234.514,262.298 234.7,263.193 234.876,263.922 235.062,264.642 235.233,265.365 235.415,266.266 235.6,266.99 235.777,267.891 236.139,268.791 236.325,269.868 236.863,270.959 237.225,272.04 237.587,273.303 238.125,274.747 238.306,275.104 238.488,275.29 238.664,275.466 239.026,275.647 239.383,275.828 239.75,275.828 240.112,275.828 240.469,275.828 240.832,275.828 241.012,275.647 241.375,275.466 241.551,275.104 241.737,274.747 241.909,274.203 241.909,273.665 241.909,272.941 241.737,272.765 241.551,272.222 241.375,271.502 241.189,270.778 240.832,269.691 240.469,268.429 240.112,267.167 239.569,265.904 239.202,264.642 238.85,263.379 238.488,262.298 238.125,261.216 237.763,260.315 237.587,259.591 237.401,259.053 237.225,258.872 237.225,258.872 237.044,258.69 237.044,258.51 237.044,258.329 236.863,258.152 236.863,258.152 236.863,257.967 236.677,257.79 236.677,257.609 236.5,257.609 236.5,257.429 236.325,257.247 236.139,257.066 235.962,256.89 235.777,256.704 235.6,256.527 239.75,255.256 240.646,257.967 241.375,260.135 242.094,262.298 242.814,264.104 243.352,265.904 243.719,267.353 244.262,268.791 244.615,269.868 244.8,270.959 244.981,271.859 245.163,272.579 245.338,273.303 245.338,273.842 245.525,274.385 245.525,274.747 245.338,275.104 245.338,275.828 244.981,276.553 244.8,277.091 244.262,277.629 243.9,278.177 243.538,278.534 243,278.896 242.637,279.077 242.094,279.439 241.551,279.616 241.012,279.616 240.469,279.797 239.926,279.797 239.569,279.797 239.202,279.797 238.85,279.797"/><polygon fill="#FFC425" points="245.338,73.962 245.525,74.143 245.877,74.324 246.244,74.324 246.425,74.505 246.601,74.684 246.788,74.865 246.963,75.046 247.144,75.046 247.321,75.227 247.506,75.406 247.688,75.587 247.864,75.768 247.864,75.949 248.049,76.127 248.226,76.309 248.407,76.668 248.407,76.849 248.407,77.211 248.226,77.571 248.049,78.112 247.506,78.474 246.963,79.015 246.244,79.556 245.525,79.917 244.615,80.096 243.719,80.458 242.814,80.458 241.737,80.458 240.646,80.277 239.569,79.917 238.488,79.375 237.401,78.474 236.863,77.931 236.325,77.39 235.777,76.849 235.415,76.309 234.876,75.587 234.514,75.046 234.157,74.505 233.971,73.784 233.614,73.062 233.437,72.34 233.251,71.618 233.076,70.896 232.894,70.174 232.894,69.453 232.894,68.552 232.894,67.831 232.894,64.943 233.251,62.599 233.971,60.434 234.7,58.809 235.6,57.368 236.863,56.284 237.94,55.381 239.202,54.84 240.469,54.48 241.737,54.48 243,54.662 244.262,55.021 245.338,55.562 246.425,56.465 247.144,57.368 247.864,58.449 247.688,58.809 247.506,59.171 247.321,59.531 247.144,59.893 246.963,60.253 246.601,60.434 246.425,60.793 246.244,60.975 246.063,61.156 245.877,61.515 245.701,61.696 245.525,61.696 245.338,61.877 244.981,62.056 244.8,62.237 244.615,62.237 244.615,61.156 244.262,60.253 243.9,59.531 243.352,58.809 242.637,58.449 242.094,58.269 241.189,58.269 240.469,58.449 239.75,58.99 239.026,59.712 238.306,60.615 237.763,61.877 237.225,63.318 236.863,64.943 236.677,66.928 236.863,69.274 237.044,70.896 237.587,72.34 238.125,73.421 238.664,74.324 239.383,75.046 240.112,75.587 240.832,76.127 241.551,76.309 242.275,76.49 243,76.49 243.538,76.49 244.076,76.127 244.615,75.949 244.981,75.587 245.163,75.227 245.338,74.684 245.338,73.962"/><polygon fill="#FFC425" points="105.714,262.659 107.877,263.017 107.877,263.017 108.058,263.017 108.058,263.017 108.058,263.017 108.239,263.017 108.239,263.017 108.42,263.193 108.42,263.193 108.599,263.193 108.599,263.193 108.78,263.193 108.78,263.193 108.961,263.193 108.961,263.193 109.14,263.379 109.321,263.379 114.915,279.439 115.455,265.004 115.455,265.004 115.455,264.827 115.455,264.642 115.455,264.642 115.455,264.465 115.455,264.465 115.455,264.284 115.274,264.284 115.274,264.104 115.274,264.104 115.274,263.922 115.274,263.922 115.274,263.741 115.274,263.741 115.093,263.564 115.093,263.564 116.177,263.564 116.358,263.741 116.718,263.741 116.898,263.741 117.077,263.741 117.439,263.741 117.439,263.741 117.799,263.741 117.98,263.922 118.161,263.922 118.342,263.922 118.521,264.104 118.702,264.104 118.883,264.104 119.062,264.284 119.243,264.465 119.424,264.642 119.062,266.81 118.883,269.334 118.702,271.316 118.702,273.303 118.521,275.104 118.521,276.729 118.342,278.354 118.342,279.797 118.161,281.06 117.98,282.322 117.98,283.585 117.98,284.48 117.799,285.391 117.799,286.291 117.621,286.834 117.621,287.554 117.439,287.915 117.439,288.277 117.077,288.277 116.718,288.277 116.358,288.277 115.996,288.277 115.815,288.277 115.455,288.097 115.274,288.097 115.093,288.097 114.915,288.097 114.733,287.915 114.552,287.915 114.374,287.915 114.192,287.734 114.011,287.734 113.831,287.554 113.652,287.377 112.568,284.847 112.208,283.946 112.027,283.228 111.667,282.322 111.486,281.778 111.124,281.06 110.946,280.34 110.583,279.797 110.405,279.254 110.224,278.716 110.042,278.177 109.862,277.806 109.683,277.271 109.502,276.909 109.321,276.553 109.14,276.366 109.14,276.009 108.42,287.015 108.058,287.015 107.699,287.015 107.518,287.015 107.155,287.015 106.977,287.015 106.615,287.015 106.255,287.015 106.074,287.015 105.714,287.015 105.533,286.834 105.171,286.834 104.993,286.834 104.63,286.834 104.452,286.653 104.271,286.653 104.09,286.472 104.09,286.472 104.271,286.291 104.271,286.114 104.452,285.742 104.452,285.391 104.63,285.028 104.812,284.666 104.812,284.128 104.993,283.766 104.993,283.228 104.993,282.503 105.171,281.965 105.171,281.24 105.352,280.702 105.352,279.978 105.533,279.254 105.533,277.453 105.714,275.828 105.893,274.203 106.074,272.765 106.074,271.502 106.074,270.234 106.255,269.153 106.255,268.253 106.255,267.353 106.255,266.447 106.436,265.728 106.436,265.185 106.255,264.642 106.255,264.284 106.255,263.922 106.255,263.564 106.255,263.564 106.255,263.564 106.255,263.564 106.255,263.379 106.074,263.379 106.074,263.379 106.074,263.193 106.074,263.193 106.074,263.193 106.074,263.017 105.893,263.017 105.893,263.017 105.893,262.841 105.714,262.841 105.714,262.841 105.714,262.659"/><polygon fill="#FFC425" points="90.921,68.012 91.102,67.831 91.281,67.649 91.281,67.468 91.462,67.468 91.462,67.287 91.643,67.108 91.643,66.928 91.643,66.747 91.824,66.568 91.824,66.387 91.824,66.206 91.824,66.206 91.824,66.025 91.824,65.846 91.824,65.665 91.824,65.484 91.824,46.903 91.824,46.724 91.824,46.543 91.824,46.362 91.824,46.181 91.824,46.002 91.643,45.821 91.643,45.641 91.643,45.641 91.462,45.462 91.462,45.281 91.281,45.1 91.281,45.1 91.102,44.918 90.921,44.737 90.74,44.559 90.559,44.559 103.73,41.493 103.73,41.672 103.73,41.853 103.73,42.034 103.73,42.212 103.73,42.394 103.73,42.756 103.73,42.934 103.909,43.115 103.909,43.296 103.909,43.656 103.909,43.837 103.909,44.197 103.909,44.378 104.09,44.737 104.09,45.1 104.09,45.281 104.09,45.281 104.09,45.281 103.909,45.281 103.909,45.281 103.73,45.281 103.73,45.281 103.549,45.281 103.368,45.1 103.368,45.1 103.187,45.1 103.008,45.1 103.008,45.1 103.008,45.1 102.827,45.1 102.827,45.1 102.286,45.1 101.746,45.1 101.383,45.1 100.843,45.1 100.48,45.1 100.121,45.281 99.761,45.281 99.399,45.462 99.04,45.462 98.677,45.641 98.137,45.641 97.596,45.821 97.234,46.181 96.512,46.362 95.971,46.543 95.25,46.903 95.25,51.053 95.43,51.053 95.792,51.053 96.152,51.053 96.512,51.053 96.693,50.872 97.055,50.872 97.596,50.872 97.956,50.693 98.318,50.693 98.677,50.512 99.04,50.331 99.399,50.331 99.761,50.15 100.121,49.971 100.48,49.79 100.843,49.79 100.843,49.79 100.843,49.79 100.843,49.971 101.024,50.15 101.024,50.331 101.024,50.512 101.203,50.693 101.203,50.872 101.203,51.234 101.383,51.413 101.383,51.774 101.383,52.134 101.564,52.496 101.564,52.856 101.564,53.399 101.746,53.759 101.203,53.759 100.843,53.759 100.302,53.94 99.761,53.94 99.399,53.94 98.858,54.119 98.496,54.119 98.137,54.119 97.596,54.3 97.234,54.48 96.874,54.662 96.512,54.662 96.152,54.84 95.792,55.021 95.611,55.203 95.25,55.381 95.25,56.284 95.25,57.006 95.25,57.728 95.25,58.269 95.25,58.809 95.25,59.35 95.25,59.893 95.43,60.253 95.43,60.793 95.43,61.156 95.43,61.515 95.43,61.877 95.43,62.237 95.43,62.599 95.43,62.778 95.611,63.14 95.971,63.14 96.512,63.14 97.055,62.959 97.596,62.778 98.137,62.599 98.677,62.418 99.399,62.237 100.121,62.056 100.662,61.877 101.383,61.696 101.924,61.515 102.646,61.336 103.368,61.156 103.909,60.975 104.63,60.793 105.352,60.615 105.352,61.156 105.171,61.696 105.171,62.056 105.171,62.599 105.171,62.959 104.993,63.318 104.993,63.681 104.993,63.862 104.812,64.221 104.812,64.402 104.63,64.583 104.452,64.762 104.271,64.943 104.09,64.943 104.09,65.124 103.909,65.124 90.921,68.012"/><polygon fill="#FFC425" points="187.976,58.99 186.17,63.318 185.451,63.318 184.726,63.14 184.007,63.14 183.102,62.959 182.382,62.778 181.477,62.778 180.577,62.418 179.671,62.237 178.776,62.056 177.875,61.877 176.965,61.696 176.07,61.515 175.35,61.336 174.626,61.156 173.726,60.975 173.182,60.793 173.902,58.449 173.902,58.449 174.087,58.449 174.087,58.449 174.087,58.269 174.087,58.269 174.087,58.269 174.087,58.269 174.087,58.269 174.087,58.087 174.087,58.087 174.087,58.087 174.087,58.087 174.087,57.909 174.087,57.909 174.087,57.909 174.445,41.493 174.259,41.493 174.259,41.312 174.259,41.312 174.259,41.312 174.259,41.131 174.259,41.131 174.259,40.95 174.259,40.769 174.259,40.769 174.259,40.769 174.259,40.59 174.259,40.59 174.259,40.409 174.087,40.409 174.087,40.228 174.087,40.228 173.54,38.425 173.902,38.425 174.626,38.606 175.35,38.606 176.25,38.606 177.333,38.787 178.414,38.787 179.496,38.965 180.577,39.146 181.663,39.328 182.74,39.328 183.826,39.688 184.903,39.688 185.813,39.868 186.532,40.049 187.076,40.228 187.609,40.409 187.976,44.378 184.726,43.115 184.188,42.934 183.826,42.934 183.288,42.934 182.74,42.756 182.197,42.756 181.663,42.756 181.12,42.575 180.577,42.575 180.039,42.575 179.671,42.575 179.314,42.575 178.952,42.575 178.595,42.575 178.414,42.575 178.228,42.756 178.051,42.756 178.051,47.084 178.414,47.084 178.595,47.265 178.952,47.265 179.138,47.265 179.496,47.444 179.857,47.444 180.214,47.444 180.577,47.444 180.934,47.444 181.12,47.444 181.477,47.444 181.839,47.444 182.197,47.444 182.563,47.444 182.925,47.444 183.288,47.265 183.288,51.053 182.925,51.053 182.563,51.053 182.197,50.872 181.839,50.872 181.477,50.872 181.12,50.693 180.757,50.693 180.577,50.693 180.214,50.512 179.857,50.512 179.671,50.512 179.314,50.512 178.952,50.331 178.776,50.331 178.414,50.512 178.228,50.512 178.228,50.872 178.051,51.413 178.051,51.956 178.051,52.315 178.051,52.856 178.051,53.218 178.051,53.759 178.051,54.119 178.051,54.662 178.051,55.203 178.051,55.562 178.051,56.103 178.051,56.465 178.051,57.006 178.228,57.546 178.228,57.909 178.414,58.087 178.595,58.087 178.776,58.269 178.952,58.269 179.314,58.269 179.496,58.449 179.857,58.449 180.214,58.449 180.577,58.63 180.934,58.809 181.12,58.809 181.663,58.809 182.025,58.99 182.382,58.99 182.74,59.171 183.288,59.171 183.64,59.171 183.826,59.35 184.188,59.35 184.365,59.35 184.726,59.35 185.088,59.35 185.27,59.35 185.626,59.35 185.813,59.171 186.17,59.171 186.532,59.171 186.713,59.171 187.076,59.171 187.251,59.171 187.609,58.99 187.976,58.99"/><polygon fill="#FFC425" points="101.564,286.472 90.199,284.847 90.199,284.847 90.38,284.666 90.559,284.666 90.74,284.48 90.74,284.48 90.921,284.304 91.102,284.304 91.102,284.128 91.102,284.128 91.281,283.946 91.281,283.946 91.462,283.766 91.462,283.585 91.462,283.403 91.643,283.228 91.643,283.041 91.824,282.685 91.824,281.965 92.002,280.878 92.184,279.616 92.365,277.991 92.543,276.366 92.724,274.565 92.905,272.765 93.086,271.14 93.265,269.334 93.265,267.71 93.446,266.266 93.446,264.827 93.627,263.922 93.446,263.193 93.446,262.659 93.086,261.035 103.909,262.659 103.909,262.841 103.909,263.017 103.909,263.193 104.09,263.379 104.09,263.564 104.09,263.741 104.09,263.922 104.09,264.284 104.09,264.465 104.09,264.827 104.271,265.185 104.271,265.547 104.271,265.904 104.271,266.266 104.452,266.628 104.452,266.99 102.105,265.728 101.924,265.728 101.924,265.728 101.564,265.728 101.203,265.728 100.843,265.547 100.48,265.547 99.94,265.547 99.58,265.547 99.218,265.365 98.677,265.365 98.318,265.365 97.956,265.365 97.596,265.365 97.415,265.365 97.234,265.547 97.234,265.547 96.512,271.316 96.693,271.502 96.874,271.502 97.055,271.502 97.234,271.502 97.415,271.502 97.596,271.502 97.956,271.502 98.137,271.679 98.318,271.679 98.677,271.679 99.04,271.859 99.399,271.859 99.761,271.859 100.121,272.04 100.48,272.04 100.843,272.04 100.843,272.402 100.843,272.579 100.843,272.941 100.843,273.122 100.843,273.303 100.843,273.665 100.843,273.842 100.843,274.027 100.843,274.203 100.662,274.385 100.662,274.747 100.662,274.928 100.662,275.104 100.48,275.29 100.48,275.466 100.48,275.647 100.121,275.647 99.94,275.466 99.761,275.466 99.399,275.466 99.218,275.29 98.858,275.29 98.677,275.29 98.318,275.29 98.137,275.104 97.777,275.104 97.596,275.104 97.234,275.104 97.055,275.104 96.693,274.928 96.512,274.928 96.333,274.928 95.43,282.141 100.843,282.865 100.843,282.865 101.024,282.865 101.024,282.865 101.203,282.865 101.203,282.865 101.383,282.865 101.383,282.865 101.383,282.865 101.564,282.865 101.746,282.865 101.746,282.865 101.924,282.865 102.105,282.865 102.105,282.685 102.286,282.685 102.467,282.503 101.746,285.209 101.746,285.209 101.746,285.391 101.746,285.391 101.746,285.391 101.564,285.566 101.564,285.566 101.564,285.742 101.564,285.742 101.564,285.929 101.564,285.929 101.564,286.114 101.564,286.114 101.564,286.291 101.564,286.291 101.564,286.472 101.564,286.472"/><polygon fill="#FFC425" points="228.563,274.747 228.74,274.747 228.925,274.928 229.288,274.928 229.463,275.104 229.65,275.29 229.826,275.29 230.188,275.466 230.369,275.647 230.55,275.647 230.726,275.828 230.913,276.009 231.264,276.19 231.451,276.366 231.631,276.553 231.989,276.729 232.175,276.909 232.175,277.453 231.989,278.177 231.813,278.716 231.631,279.254 231.451,279.797 231.088,280.34 230.726,280.702 230.369,281.06 230.002,281.422 229.65,281.778 229.288,281.965 228.925,282.322 228.563,282.322 228.202,282.503 227.839,282.685 227.663,282.685 227.296,282.865 226.762,282.865 226.219,282.685 225.5,282.503 224.771,282.322 224.051,281.965 223.328,281.422 222.432,280.702 221.712,279.797 220.802,278.896 220.264,277.629 219.544,276.19 219.001,274.565 218.463,272.579 218.096,270.416 217.919,267.891 217.739,265.728 217.919,264.104 218.282,262.479 218.639,261.396 219.359,260.315 220.087,259.772 220.802,259.229 221.712,258.872 222.613,258.872 223.513,258.872 224.414,259.053 225.314,259.229 226.034,259.591 226.762,259.953 227.482,260.315 228.025,260.678 228.025,260.854 228.025,260.854 228.025,260.854 228.025,260.854 228.025,261.035 228.025,261.035 228.025,261.035 228.025,261.035 228.025,261.216 228.025,261.216 228.025,261.216 228.025,261.396 228.025,261.396 226.219,264.827 226.219,264.284 226.219,263.922 226.034,263.564 225.857,263.193 225.676,263.017 225.5,262.841 225.138,262.479 224.957,262.479 224.594,262.298 224.414,262.298 224.051,262.116 223.875,262.116 223.513,262.116 223.328,262.116 223.151,262.298 222.789,262.298 222.25,262.479 221.712,263.193 221.35,264.104 221.169,265.185 220.988,266.447 221.169,267.891 221.169,269.334 221.526,270.778 221.888,272.402 222.432,273.842 222.975,275.104 223.694,276.366 224.414,277.453 225.314,278.177 226.219,278.716 227.296,279.077 227.482,279.077 227.663,278.896 227.839,278.896 227.839,278.716 228.025,278.716 228.202,278.534 228.202,278.534 228.387,278.354 228.387,278.177 228.563,277.991 228.563,277.806 228.563,277.629 228.563,277.453 228.563,277.091 228.563,276.909 228.563,276.553 228.563,274.747"/><polygon fill="#FFC425" points="37.522,92.184 37.703,92.184 37.703,92.184 37.703,92.002 37.884,91.824 37.884,91.824 38.065,91.643 38.065,91.461 38.065,91.461 38.065,91.281 38.065,91.102 38.244,90.921 38.244,90.74 38.244,90.74 38.244,90.561 38.244,90.38 38.244,90.199 38.425,66.387 38.425,66.387 38.425,66.206 38.425,66.025 38.244,65.846 38.244,65.846 38.244,65.665 38.065,65.484 38.065,65.305 37.884,65.305 37.703,65.124 37.703,64.943 37.522,64.943 37.343,64.762 37.162,64.762 37.162,64.762 36.981,64.762 37.703,64.221 38.425,63.862 39.146,63.5 39.688,63.14 40.228,62.959 40.95,62.599 41.491,62.418 41.853,62.056 42.394,61.877 42.934,61.696 43.475,61.336 43.837,61.156 44.197,60.975 44.74,60.793 45.1,60.615 45.641,60.434 45.821,60.253 46.181,60.072 46.362,59.893 46.724,59.712 47.084,59.712 47.265,59.531 47.625,59.35 47.987,59.171 48.166,59.171 48.528,58.99 48.887,58.809 49.25,58.63 49.428,58.449 49.79,58.269 49.971,58.087 50.331,57.909 50.512,62.056 50.15,62.056 49.79,62.056 49.609,62.056 49.25,62.237 49.068,62.237 48.708,62.418 48.347,62.778 47.806,62.959 47.265,63.14 46.903,63.5 46.181,63.862 45.641,64.221 44.918,64.583 44.197,64.943 43.296,65.305 42.394,65.846 42.212,66.206 42.212,66.387 42.034,66.747 42.034,67.108 41.853,67.287 41.853,67.649 41.853,67.831 41.853,68.19 41.853,68.552 41.853,68.912 41.672,69.093 41.672,69.634 41.672,69.993 41.672,70.355 41.672,70.715 41.672,71.077 42.212,70.896 42.575,70.715 42.934,70.715 43.296,70.537 43.656,70.355 43.837,70.174 44.197,70.174 44.559,69.993 44.74,69.815 44.918,69.815 45.1,69.634 45.281,69.634 45.459,69.634 45.641,69.634 45.641,69.453 45.821,69.453 47.806,68.371 47.806,68.731 47.987,68.912 47.987,69.274 48.166,69.453 48.166,69.634 48.166,69.993 48.347,70.174 48.347,70.355 48.347,70.715 48.347,70.896 48.347,71.077 48.347,71.437 48.347,71.618 48.347,71.799 48.347,71.98 48.347,72.159 47.987,72.34 47.625,72.34 47.265,72.521 46.724,72.521 46.362,72.7 46.002,72.881 45.641,72.881 45.281,73.062 44.74,73.243 44.378,73.421 44.018,73.603 43.656,73.784 43.115,73.962 42.756,74.143 42.394,74.505 41.853,74.684 41.853,87.674 41.853,87.855 41.853,87.855 41.853,87.855 41.853,88.034 41.853,88.034 42.034,88.215 42.034,88.215 42.034,88.396 42.034,88.396 42.034,88.396 42.212,88.574 42.212,88.574 42.394,88.755 42.394,88.755 42.394,88.755 42.575,88.937 37.522,92.184"/><polygon fill="#FFC425" points="259.413,72.7 259.05,76.49 258.688,76.49 258.512,76.127 258.15,76.127 257.964,75.768 257.612,75.587 257.426,75.587 257.064,75.406 256.707,75.046 256.521,75.046 256.164,74.684 255.801,74.505 255.444,74.505 255.082,74.143 254.724,73.962 254.363,73.962 253.814,73.784 253.814,78.833 253.814,79.375 253.814,79.917 253.814,80.277 254,80.818 254,81.18 254,81.359 254.181,81.899 254.181,82.081 254.363,82.443 254.363,82.621 254.539,82.802 254.724,82.983 254.724,83.165 254.901,83.343 255.082,83.524 255.258,83.524 260.137,85.868 260.137,85.868 260.313,85.868 260.313,85.868 260.313,85.868 260.489,85.868 260.489,85.868 260.675,85.868 260.675,85.689 260.856,85.689 260.856,85.689 261.038,85.689 261.213,85.509 261.4,85.509 261.576,85.328 261.751,85.328 261.933,85.149 261.4,90.74 260.856,90.561 260.313,90.199 259.775,89.837 259.05,89.477 258.512,89.118 257.783,88.755 257.064,88.396 256.344,88.034 255.444,87.493 254.724,87.133 253.814,86.592 252.918,86.23 252.013,85.689 250.937,85.149 250.032,84.605 248.95,84.065 249.126,83.886 249.312,83.705 249.312,83.524 249.489,83.343 249.674,83.165 249.674,82.983 249.674,82.983 249.845,82.802 249.845,82.802 249.845,82.621 250.032,82.621 250.032,82.443 250.032,82.443 250.032,82.262 250.032,82.262 250.032,82.081 250.032,60.975 250.032,60.975 250.032,60.793 250.032,60.615 249.845,60.434 249.845,60.434 249.845,60.253 249.845,60.072 249.674,59.893 249.674,59.712 249.489,59.531 249.489,59.35 249.312,59.171 249.312,58.99 249.126,58.809 249.126,58.449 248.95,58.269 249.126,58.269 249.126,58.269 249.489,58.449 249.674,58.449 250.212,58.809 250.575,58.99 250.937,59.171 251.657,59.35 252.2,59.712 252.918,60.072 253.638,60.253 254.363,60.793 255.258,61.156 256.164,61.696 257.064,62.056 258.15,62.599 258.688,62.959 259.05,63.14 259.593,63.318 259.951,63.681 260.313,64.043 260.675,64.221 261.038,64.583 261.4,64.943 261.576,65.124 261.751,65.484 261.933,65.846 262.119,66.206 262.3,66.568 262.3,66.928 262.476,67.287 262.476,67.468 262.119,69.453 261.751,69.274 261.4,68.912 260.856,68.731 260.489,68.371 260.137,68.012 259.593,67.831 259.227,67.468 258.688,67.287 258.15,66.928 257.612,66.568 257.064,66.387 256.521,66.025 255.987,65.846 255.444,65.484 254.724,65.124 254,64.943 254.363,70.174 254.724,70.537 254.901,70.715 255.258,70.896 255.625,71.256 255.987,71.256 256.344,71.437 256.707,71.618 257.064,71.799 257.426,71.98 257.612,71.98 257.964,72.159 258.327,72.34 258.688,72.34 258.875,72.521 259.227,72.521 259.413,72.7"/><polygon fill="#FFC425" points="196.452,273.122 196.995,282.865 196.995,283.228 196.809,283.585 196.637,283.946 196.452,284.304 196.275,284.847 195.914,285.209 195.37,285.566 195.013,286.114 194.469,286.472 194.108,286.834 193.564,287.015 193.026,287.377 192.488,287.554 191.763,287.734 191.225,287.734 190.677,287.734 189.6,287.554 188.514,287.015 187.794,286.472 186.889,285.566 186.17,284.48 185.626,283.403 185.088,282.141 184.55,280.702 184.365,279.439 184.007,277.991 183.826,276.366 183.64,274.928 183.64,273.484 183.64,272.04 183.64,270.778 183.826,269.334 184.007,268.072 184.365,266.81 184.726,265.728 185.27,264.827 185.626,264.104 186.351,263.379 186.889,263.017 187.609,262.659 188.152,262.298 188.872,262.116 189.6,262.116 190.139,262.116 190.863,262.298 191.401,262.298 191.945,262.479 192.301,262.841 193.026,263.193 193.388,263.564 193.926,263.741 194.284,264.284 194.469,264.642 194.651,265.004 194.827,265.365 194.827,265.728 194.827,266.266 194.651,266.628 194.469,267.167 194.284,267.71 193.926,268.253 193.564,268.791 193.026,269.516 192.488,270.054 192.301,269.691 192.301,269.334 192.125,268.973 191.945,268.615 191.945,268.253 191.763,267.891 191.578,267.71 191.401,267.353 191.401,267.167 191.225,266.99 191.225,266.81 191.04,266.628 190.863,266.447 190.863,266.447 190.677,266.266 190.5,266.266 189.6,266.09 188.872,266.447 188.338,266.99 187.976,267.891 187.609,268.973 187.432,270.234 187.432,271.679 187.432,273.122 187.609,274.565 187.794,276.19 187.976,277.629 188.338,279.077 188.695,280.34 189.057,281.422 189.415,282.141 189.777,282.685 189.962,282.865 190.139,283.228 190.139,283.403 190.5,283.585 190.677,283.585 190.863,283.766 191.04,283.946 191.401,283.946 191.578,283.946 191.763,283.946 192.125,283.766 192.301,283.766 192.488,283.585 192.664,283.403 192.84,283.041 193.026,282.685 193.026,277.806 193.026,277.806 193.026,277.806 193.026,277.629 193.026,277.629 192.84,277.629 192.84,277.453 192.84,277.453 192.84,277.453 192.84,277.453 192.84,277.271 192.84,277.271 192.84,277.271 192.84,277.271 192.84,277.271 192.664,277.271 192.664,277.271 192.488,277.271 192.301,277.271 192.125,277.271 191.945,277.271 191.763,277.271 191.578,277.271 191.401,277.271 191.225,277.271 191.04,277.271 190.863,277.453 190.677,277.453 190.5,277.453 190.5,277.629 190.139,277.806 190.139,277.806 189.962,277.991 189.777,276.729 189.777,273.842 189.777,273.842 189.777,273.842 189.777,273.665 189.777,273.665 189.777,273.665 189.777,273.665 189.777,273.665 189.777,273.665 189.777,273.665 189.962,273.665 189.962,273.665 189.962,273.665 189.962,273.665 190.139,273.484 196.452,273.122"/><polygon fill="#FFC425" points="65.665,280.878 61.156,279.616 61.336,279.616 61.515,279.439 61.696,279.254 61.696,279.254 61.877,279.077 62.056,279.077 62.056,278.896 62.237,278.716 62.237,278.534 62.237,278.534 62.418,278.354 62.418,278.177 62.418,277.991 62.599,277.991 62.599,277.806 62.599,277.629 65.846,260.315 65.665,260.135 65.484,259.953 65.305,259.953 64.943,259.772 64.762,259.772 64.583,259.591 64.402,259.591 64.222,259.415 63.862,259.415 63.862,259.415 63.5,259.415 63.321,259.415 63.14,259.229 63.14,259.229 62.959,259.229 62.778,259.229 61.515,259.415 61.515,259.229 61.515,259.053 61.515,258.872 61.515,258.69 61.515,258.51 61.515,258.329 61.515,258.152 61.696,257.79 61.696,257.609 61.696,257.429 61.696,257.066 61.877,256.89 61.877,256.527 62.056,256.347 62.056,255.984 62.237,255.627 73.962,258.152 73.962,258.329 73.962,258.51 73.962,258.69 73.962,258.872 73.962,259.229 73.962,259.415 73.962,259.772 73.962,259.953 73.962,260.315 73.784,260.678 73.784,260.854 73.603,261.216 73.603,261.396 73.421,261.754 73.421,261.931 73.243,262.116 73.062,261.931 72.881,261.931 72.7,261.754 72.521,261.754 72.34,261.578 72.159,261.578 71.799,261.396 71.618,261.396 71.437,261.396 71.258,261.396 70.896,261.216 70.715,261.216 70.355,261.216 70.174,261.035 69.815,261.035 69.634,261.035 69.453,261.396 69.274,262.116 69.093,263.017 68.912,264.104 68.552,265.547 68.19,266.99 67.831,268.429 67.468,270.054 67.109,271.679 66.928,273.303 66.568,274.747 66.206,276.009 66.025,277.271 65.846,277.991 65.846,278.716 65.665,278.896 65.665,279.077 65.665,279.077 65.665,279.254 65.665,279.439 65.665,279.439 65.665,279.616 65.665,279.797 65.665,279.797 65.665,279.978 65.665,280.159 65.665,280.159 65.665,280.34 65.665,280.517 65.665,280.702 65.665,280.878 65.665,280.878"/><polygon fill="#FFC425" points="129.165,288.815 124.114,288.815 124.295,288.64 124.295,288.454 124.474,288.277 124.655,288.097 124.655,287.915 124.836,287.734 124.836,287.734 124.836,287.554 124.836,287.554 124.836,287.377 125.017,287.191 125.017,287.015 125.017,287.015 125.017,286.834 125.017,286.653 125.017,286.472 125.558,267.891 125.196,267.891 124.836,267.71 124.474,267.71 124.295,267.71 123.933,267.71 123.752,267.71 123.393,267.71 123.211,267.71 122.852,267.71 122.67,267.71 122.49,267.71 122.13,267.71 121.949,267.71 121.589,267.71 121.408,267.71 121.227,267.71 121.227,267.71 121.046,267.528 121.046,267.353 121.046,267.167 121.046,267.167 121.046,266.81 121.046,266.628 120.867,266.447 120.867,266.09 120.867,265.904 120.867,265.728 120.867,265.365 120.867,265.004 120.867,264.642 120.867,264.284 121.046,263.922 133.855,264.827 133.855,265.185 133.855,265.365 133.855,265.728 133.855,265.904 133.855,266.266 133.855,266.447 133.855,266.81 133.855,266.99 133.855,267.353 133.855,267.528 133.855,267.71 133.855,268.072 133.855,268.253 133.855,268.429 133.855,268.615 133.855,268.791 133.495,268.791 133.314,268.615 132.955,268.615 132.773,268.429 132.412,268.429 132.233,268.253 131.871,268.253 131.511,268.072 131.33,268.072 130.97,268.072 130.789,268.072 130.427,267.891 130.067,267.891 129.705,267.891 129.346,268.072 129.165,268.072 128.443,286.472 128.443,286.653 128.443,286.653 128.443,286.834 128.443,287.015 128.443,287.015 128.443,287.191 128.443,287.377 128.443,287.554 128.624,287.554 128.624,287.734 128.624,287.915 128.624,288.097 128.805,288.097 128.805,288.277 128.986,288.64 129.165,288.815"/><polygon fill="#FFC425" points="157.851,277.453 157.851,278.716 157.851,279.616 157.851,280.517 157.851,281.422 157.851,282.322 157.851,282.865 157.851,283.585 157.851,284.304 157.851,284.847 157.851,285.391 158.027,285.929 158.027,286.291 158.027,286.653 158.027,287.015 158.208,287.377 158.208,287.734 158.208,287.915 158.208,287.915 158.208,288.097 158.384,288.097 158.384,288.097 158.384,288.277 158.384,288.277 158.384,288.454 158.57,288.64 158.57,288.64 158.57,288.815 158.57,288.815 158.751,288.997 158.751,288.997 158.927,289.178 159.114,289.178 153.877,289.178 153.877,289.178 154.063,288.997 154.063,288.997 154.24,288.815 154.24,288.815 154.42,288.64 154.42,288.64 154.42,288.454 154.601,288.454 154.601,288.277 154.601,288.277 154.601,288.277 154.601,288.097 154.601,288.097 154.601,288.097 154.601,288.097 153.877,266.266 153.338,264.827 164.702,264.827 165.245,269.153 165.059,268.973 165.059,268.973 164.883,268.791 164.702,268.791 164.702,268.791 164.526,268.791 164.526,268.615 164.526,268.615 164.339,268.615 164.339,268.615 164.164,268.615 164.164,268.615 164.164,268.615 164.164,268.615 163.983,268.615 163.983,268.615 157.489,268.615 157.489,268.973 157.489,269.334 157.489,269.516 157.489,269.868 157.489,270.234 157.489,270.597 157.489,270.959 157.489,271.316 157.489,271.502 157.489,271.859 157.489,272.222 157.489,272.579 157.489,272.941 157.665,273.303 157.665,273.842 157.665,274.203 158.027,274.203 158.208,274.203 158.57,274.203 158.927,274.203 159.114,274.203 159.475,274.203 159.833,274.203 160.19,274.203 160.552,274.203 160.915,274.027 161.276,274.027 161.458,274.027 161.815,274.027 162,273.842 162.353,273.842 162.539,273.842 162.353,277.453 162.176,277.453 161.815,277.453 161.638,277.453 161.276,277.453 161.09,277.271 160.738,277.271 160.375,277.271 160.014,277.271 159.833,277.271 159.475,277.271 159.114,277.271 158.751,277.271 158.57,277.453 158.208,277.453 158.027,277.453 157.851,277.453"/><polygon fill="#FFC425" points="214.495,285.028 214.495,284.847 214.495,284.666 214.495,284.48 214.495,284.304 214.675,284.304 214.675,284.128 214.675,283.946 214.675,283.946 214.495,283.946 214.495,283.766 214.495,283.766 214.495,283.585 214.495,283.585 214.495,283.403 214.495,283.228 214.495,283.228 210.526,260.678 210.887,260.491 211.064,260.491 211.607,260.315 211.964,260.315 212.327,260.315 212.684,260.315 213.05,260.135 213.227,260.135 213.589,260.135 213.951,260.135 214.127,260.135 214.313,260.135 214.495,260.135 214.675,260.135 214.851,260.135 214.851,260.135 214.851,260.315 214.675,260.315 214.675,260.315 214.675,260.491 214.495,260.491 214.495,260.678 214.495,260.854 214.495,261.035 214.495,261.216 214.495,261.396 214.495,261.578 214.495,261.754 214.495,262.116 214.495,262.479 214.495,262.841 214.675,263.193 218.096,282.503 218.282,282.685 218.282,282.865 218.282,283.041 218.282,283.228 218.463,283.228 218.463,283.403 218.463,283.585 218.639,283.585 218.639,283.766 218.639,283.766 218.639,283.946 218.825,283.946 218.825,284.128 219.001,284.128 219.001,284.304 219.001,284.304 214.495,285.028"/><polygon fill="#FFC425" points="230.55,75.949 226.219,74.324 226.401,74.324 226.401,74.143 226.577,73.962 226.577,73.784 226.762,73.784 226.762,73.603 226.939,73.421 226.939,73.421 227.125,73.243 227.125,73.062 227.125,73.062 227.125,72.881 227.125,72.7 227.125,72.7 227.296,72.521 227.296,72.34 227.125,52.134 227.125,51.956 227.125,51.774 227.125,51.593 227.125,51.413 227.125,51.234 227.125,51.053 227.125,50.872 227.125,50.693 226.939,50.512 226.939,50.331 226.762,50.15 226.762,49.971 226.577,49.79 226.577,49.609 226.401,49.25 226.401,49.068 231.088,51.053 230.726,51.956 230.726,51.956 230.55,52.315 230.55,52.856 230.55,53.578 230.55,54.48 230.55,55.562 230.55,56.646 230.55,58.087 230.55,59.712 230.55,61.515 230.726,63.318 230.726,65.484 230.726,67.831 230.913,70.174 230.913,72.881 230.913,75.768 230.913,75.768 230.913,75.768 230.913,75.949 230.913,75.949 230.913,75.949 230.913,75.949 230.913,75.949 230.726,75.949 230.726,75.949 230.726,75.949 230.726,75.949 230.726,75.949 230.55,75.949 230.55,75.949 230.55,75.949 230.55,75.949"/><path fill="#FFC425" d="M45.641,215.216l-0.722,1.082l-1.262,1.081l-1.444,0.9l-1.622,0.725l-1.803,0.538l-1.806,0.543 l-1.984,0.182l-1.984,0.181l-2.166-0.181l-1.803-0.362l-1.803-0.538l-1.804-0.9l-1.443-1.087l-1.084-1.263l-0.9-1.624 l-0.541-1.982l-0.181-0.362v-0.357v-0.361v-0.362v-0.362l0.181-0.362v-0.353v-0.361v-0.367v-0.357v-0.176v-0.367v-0.182 l0.179-0.181v-0.182l0.181-0.176l0,0l0.181,0.176h0.181l0,0h0.178l0.181,0.182h0.181l0,0h0.179h0.181l0,0h0.181h0.181l0,0h0.179 l0,0l19.844,0.362h0.181h0.181h0.181l0,0l0.179-0.182h0.181l0,0h0.181l0.181-0.181h0.178l0,0l0.181-0.182l0,0h0.181h0.179 l0.181-0.176v0.538l0.181,0.362v0.538l0.181,0.357v0.543l0.179,0.353v0.362v0.538v0.538v0.362v0.538v0.539l-0.179,0.382v0.538 l-0.181,0.543L45.641,215.216L45.641,215.216L45.641,215.216z M24.715,211.604l0.36,1.086l0.362,0.725l0.36,0.9l0.722,0.543 l0.541,0.534l0.903,0.361l0.722,0.357l0.9,0.182l0.722,0.361l0.903,0.177h0.903h0.901h0.722h0.903h0.722l0.541-0.177 l0.903-0.181l0.719-0.181l0.903-0.182l0.541-0.181l0.722-0.353l0.541-0.176l0.543-0.182l0.359-0.362l0.36-0.356l0.362-0.187 l0.181-0.353l0.179-0.361l0.181-0.362v-0.362v-0.353l-0.181-0.362l-0.9-0.195h-1.084l-1.082-0.177h-1.082l-1.262-0.186h-1.084 h-1.263l-1.082-0.176h-1.084h-1.262h-1.082h-1.084h-1.082l-1.082,0.176h-0.903H24.715L24.715,211.604L24.715,211.604z"/><path fill="#FFC425" d="M37.884,246.604l-0.541-0.181l-0.541-0.357l-0.722-0.187l-0.362-0.356l-0.541-0.182l-0.541-0.538 l-0.362-0.362l-0.359-0.362l-0.541-0.538l-0.181-0.538l-0.362-0.543l-0.36-0.725l-0.181-0.543l-0.359-0.725l-0.181-0.724 l-0.181-0.896h-0.722h-0.719h-0.722h-0.722h-0.722h-0.541h-0.543l-0.719,0.181h-0.543l-0.541,0.176l-0.541,0.177h-0.541 l-0.362,0.186l-0.541,0.177l-0.36,0.186l-0.362,0.181l-0.178-0.181l-0.181-0.362v-0.353l-0.181-0.361v-0.362l-0.181-0.362 v-0.357l-0.179-0.548v-0.357v-0.357l-0.181-0.362v-0.181v-0.362v-0.176v-0.177v-0.181l0.181,0.181l0,0h0.179h0.181h0.181l0,0 h0.181l0,0h0.178h0.181l0,0l0,0h0.181l0,0h0.179h0.181l4.69-0.181l15.153-1.625h0.181h0.181h0.179h0.181h0.181l0.181-0.181 h0.179h0.181h0.181v-0.176h0.181l0.178-0.187H45.1l0.181-0.176l0.179-0.177l0.181-0.181l1.083,6.494l0,0v0.166l0.179,0.176 v0.177v0.186v0.177v0.181l0,0v0.362v0.181l0,0v0.353V241l-0.179,0.182v0.181v0.182l-0.181,0.538l-0.181,0.357l-0.181,0.543 l-0.36,0.353l-0.181,0.543L45.1,244.26l-0.359,0.357l-0.543,0.543l-0.541,0.362l-0.722,0.356l-0.541,0.187l-0.903,0.357h-0.719 l-0.903,0.181h-0.903H37.884L37.884,246.604L37.884,246.604z M35.9,238.304v0.91l0.181,0.715l0.179,0.538l0.181,0.538 l0.541,0.544l0.362,0.181l0.36,0.353l0.541,0.186l0.543,0.177l0.359,0.181h0.541l0.541-0.181h0.543l0.359-0.362l0.541-0.177 l0.362-0.356l0.179-0.182l0.181-0.181l0.181-0.357l0.181-0.357l0.178-0.362v-0.361v-0.357l0.181-0.362v-0.181v-0.362 l-0.181-0.182v-0.352v-0.182h-0.178l-0.181-0.181l0,0L35.9,238.304L35.9,238.304L35.9,238.304z"/><path fill="#FFC425" d="M36.081,266.447l-0.181-0.182h-0.181l-0.36-0.176l-0.181-0.186l-0.181-0.357l-0.36-0.182l-0.181-0.361 l-0.36-0.177l-0.181-0.362l-0.181-0.181l-0.36-0.362l-0.181-0.357l-0.181-0.186l-0.181-0.176l-0.179-0.177v-0.181l0.179-0.182 l0.181-0.181l0.181-0.181l0.181-0.177l0.179-0.186l0.181-0.172l0.181-0.19l0.359-0.182l0.181-0.181l0.181-0.181l0.181-0.357 v-0.177l0.179-0.181l0.181-0.181v-0.367l0.181-0.182l-1.443-1.624v-0.177h-0.181v-0.176l-0.181-0.181l-0.179-0.187v-0.181 l-0.181-0.177l-0.181-0.186l-0.181-0.353l-0.179-0.186l-0.181-0.362l-0.181-0.362l-0.179-0.176l-0.181-0.357l-0.181-0.362 l-0.181-0.367h-0.36h-0.362h-0.179h-0.362l-0.178,0.182h-0.362h-0.181h-0.36l-0.181,0.181h-0.181l-0.179,0.181h-0.181h-0.181 l-0.178,0.182h-0.181h-0.181l-0.36-0.543l-0.181-0.534l-0.362-0.366l-0.179-0.544l-0.181-0.362l-0.181-0.356l-0.178-0.182 l-0.181-0.362v-0.361l-0.181-0.177v-0.176v-0.362h-0.181v-0.362v-0.176l-0.179-0.187l0.179,0.177h0.181h0.181l0.181,0.176h0.178 h0.181l0.181,0.182h0.179h0.362l0.181,0.181H27.6h0.181h0.181l0,0h0.181l0.178-0.181l15.875-3.607l2.166-0.538l0.181-0.186 h0.181h0.179l0.181-0.177h0.181l0,0l0.179-0.176h0.181l0.181-0.181l0.181-0.182l0,0l0.179-0.181l0.181-0.182l0,0l0.181-0.176 v-0.176l0.181,0.176l0.179,0.176l0.362,0.362l0.179,0.182l0.181,0.181l0.181,0.176l0.181,0.362l0.179,0.357l0.181,0.181 l0.181,0.362l0.181,0.177v0.356l0.179,0.182l0.181,0.362l0.181,0.176l0.179,0.187l-0.72,0.533l-0.722,0.738l-0.722,0.72 l-0.903,0.905l-1.082,1.076l-0.903,1.087l-1.082,1.263l-1.263,1.081l-1.084,1.263l-1.081,1.263l-1.082,1.081l-0.903,1.263 l-0.903,1.087l-0.9,1.086l-0.722,0.9l-0.541,0.725l-0.181,0.176l0,0l-0.181,0.182v0.181l0,0v0.181l-0.181,0.182v0.176l0,0v0.177 v0.186l0,0l-0.179,0.176l0,0V266.447L36.081,266.447L36.081,266.447L36.081,266.447z M45.1,250.215l-10.103,2.701v0.362 l0.362,0.362l0.179,0.176l0.181,0.362l0.181,0.357l0.181,0.186l0.179,0.357l0.181,0.177l0.181,0.361l0.181,0.362l0.178,0.187 l0.362,0.361l0.179,0.177l0.181,0.362l0.362,0.181l0.179,0.362l0.181-0.181l0.362-0.362l0.359-0.362l0.36-0.353l0.543-0.543 l0.541-0.553l0.541-0.534l0.541-0.729l0.541-0.533l0.543-0.729l0.541-0.533l0.541-0.544l0.36-0.538l0.362-0.357l0.359-0.361 L45.1,250.215L45.1,250.215L45.1,250.215z"/><path fill="#FFC425" d="M53.037,277.453L53.037,277.453h-0.181l-0.179-0.182h-0.181h-0.181l-0.181-0.181h-0.179l-0.181-0.182 h-0.362l-0.179-0.181h-0.362l-0.359-0.176l-0.362-0.177l-0.36-0.181l-0.362-0.187l-0.36-0.361l0,0h0.181l0.179-0.182l0,0 l0.181-0.176l0,0l0.181-0.187l0,0v-0.176v-0.181l0,0l0,0v-0.182v-0.181l0,0v-0.182l0.541-9.376H50.15h-0.179l-0.181-0.186 h-0.181h-0.181l0,0l-0.179-0.177h-0.181h-0.181v-0.181h-0.359v-0.181h-0.181l-0.181-0.182h-0.179l-0.181-0.181l-0.181,0.362 l-0.181,0.361l-0.179,0.177l-0.181,0.357l-0.181,0.186l-0.179,0.362l-0.181,0.181l-0.181,0.177l-0.181,0.186v0.176l-0.179,0.362 h-0.181v0.182l-0.181,0.181v0.177l-0.181,0.176l-0.36,0.367l-0.181,0.543l-0.359,0.353l-0.181,0.362l-0.181,0.186l-0.179,0.362 l-0.181,0.353l-0.181,0.186v0.176l-0.181,0.367v0.182l-0.179,0.181v0.357v0.176v0.362v0.182h-0.181h-0.181l-0.178-0.182 l-0.181-0.181h-0.181l-0.36-0.172l-0.362-0.362l-0.36-0.176l-0.362-0.181l-0.178-0.362l-0.543-0.182l-0.179-0.361l-0.362-0.187 l-0.181-0.357l-0.36-0.181v-0.362l0,0h0.36l0.181-0.176h0.181l0.181-0.177h0.179v-0.181h0.181l0.181-0.186l0.181-0.182 l0.178-0.181l0,0l0.181-0.182v-0.176h0.181v-0.186l2.706-3.603l1.082-1.267l0.903-1.444l0.722-1.081l0.901-1.263l0.722-1.081 l0.722-0.901l0.541-0.9l0.722-0.905l0.362-0.729l0.36-0.533l0.541-0.729l0.181-0.353l0.181-0.362l0.179-0.362l0.181-0.176 v-0.186v-0.172l0,0l0.181-0.181l0,0v-0.187l0,0v-0.181h0.181v-0.181v-0.177v-0.186l0,0v-0.177v-0.181v-0.362v-0.181l3.788,3.068 l1.081,1.081l1.084,0.9l0.541,1.087l0.541,1.086l0.36,1.082l0.181,1.081l-0.181,0.9l-0.179,1.086l-0.362,0.906l-0.541,0.719 l-0.722,0.91l-0.722,0.72l-0.9,0.543l-1.084,0.538l-0.9,0.357l-1.265,0.362v1.263l-0.179,1.071v1.082v1.081l-0.181,0.91v0.72 v0.905v0.538v0.725v0.361l-0.181,0.539v0.352v0.177v0.362v0.181l0,0l0,0l0,0v0.181l0,0v0.182l0,0v0.181l0,0v0.177v0.176l0,0 v0.181l0.181,0.182l0,0v0.181V277.453L53.037,277.453L53.037,277.453z M53.759,255.441l-0.181,0.186v0.177l-0.181,0.181 l-0.36,0.362l-0.181,0.357l-0.359,0.362l-0.181,0.543l-0.36,0.357l-0.362,0.538l-0.359,0.538l-0.181,0.362l-0.181,0.357 l-0.179,0.543l-0.181,0.176v0.177v0.181l0,0l0,0v0.182l0,0l0,0l0,0h0.181v0.181l0,0l0,0l0.179,0.181l0,0h0.181l0,0h0.181 l0.541,0.362l0.541,0.177h0.541l0.541-0.177h0.543l0.36-0.181l0.541-0.362l0.362-0.362l0.359-0.357l0.362-0.356l0.179-0.544 l0.181-0.361v-0.534v-0.543v-0.533l-0.181-0.543h-0.179l-0.181-0.177v-0.186v-0.177l-0.181-0.176h-0.181l-0.179-0.181v-0.182 h-0.181l-0.181-0.181l-0.179-0.182h-0.181H54.3l-0.181-0.186H53.94H53.759L53.759,255.441L53.759,255.441z"/><path fill="#FFC425" d="M143.958,289.359l-0.541-0.182h-0.362l-0.541-0.181l-0.359-0.357l-0.543-0.362l-0.36-0.176l-0.359-0.362 l-0.362-0.538l-0.181-0.357l-0.359-0.543l-0.362-0.538l-0.179-0.539l-0.181-0.724l-0.359-0.539l-0.181-0.724v-0.725 l-0.181-0.724l-0.181-0.725l-0.178-0.725v-0.724v-0.539l-0.181-0.724v-0.538v-0.725v-0.538v-0.725v-0.538v-0.725l0.181-0.538 v-0.538l0.178-0.543v-0.544l0.181-0.91l0.362-0.896l0.179-0.905l0.181-0.724l0.36-0.72l0.362-0.729l0.359-0.538l0.362-0.538 l0.36-0.538l0.541-0.357l0.362-0.362l0.541-0.357l0.541-0.186l0.541-0.177l0.543-0.176l0.541-0.181l1.803,0.181l1.444,0.72 l1.262,1.081l1.082,1.806l0.722,1.982l0.543,2.173l0.359,2.524v2.525l-0.181,2.516l-0.359,2.349l-0.723,2.163l-0.902,1.986 l-1.082,1.62l-1.263,1.081l-1.625,0.544H143.958L143.958,289.359L143.958,289.359z M144.499,268.429l-0.541,0.362l-0.541,0.538 l-0.362,0.9l-0.36,1.087l-0.362,1.086l-0.178,1.439l-0.181,1.438l-0.181,1.448v1.62l0.181,1.443v1.443l0.359,1.263l0.362,1.082 l0.541,0.9l0.722,0.729l0.722,0.533l0.9-0.352l0.722-0.725l0.722-0.905l0.362-1.263l0.36-1.443l0.181-1.438l0.181-1.625v-1.615 l-0.181-1.624l-0.181-1.444l-0.36-1.443l-0.362-1.268l-0.541-0.905l-0.541-0.724l-0.722-0.539H144.499L144.499,268.429 L144.499,268.429z"/><path fill="#FFC425" d="M177.151,264.104v0.181v0.357v0.176l0.182,0.182v0.181v0.362v0.353l0.181,0.186v0.357v0.362l0.177,0.357 v0.356l0.186,0.182v0.538l0.176,0.362l0.177,0.357l0.181,0.905l0.357,0.905l0.186,1.081l0.362,1.082l0.353,1.262l0.362,1.263 l0.372,1.277l0.176,1.263l0.538,1.263l0.362,1.263l0.176,1.262l0.539,1.092l0.181,1.263l0.357,0.9l0.362,0.905l0.186,0.725 v0.181l0,0l0.177,0.181l0,0h0.176v0.177v0.176h0.181v0.182h0.182v0.181l0,0l0.176,0.181l0,0l0,0h0.187l-4.698,0.357 l-0.538-3.063l-5.774,0.182l-0.9,3.606h-4.508l0.182-0.182l0.176-0.181l0.187-0.176l0.176-0.177v-0.181h0.181v-0.182v-0.19 h0.177v-0.181v-0.177h0.181v-0.186v-0.177v-0.181l0.177-0.181l3.792-18.225v-0.356l0.182-0.362v-0.182v-0.361v-0.177v-0.362 v-0.181v-0.182v-0.176v-0.362v-0.176v-0.182v-0.186l-0.182-0.181v-0.177v-0.186l0.182-0.177h0.176l0.362-0.176h0.181 l0.357-0.181h0.177h0.186h0.362h0.176l0.357-0.182h0.21l0.182,0.182h0.357h0.186h0.176h0.362V264.104L177.151,264.104z M176.07,274.027l-1.806,7.399h0.181h0.182l0.361,0.181h0.177h0.362h0.176h0.186h0.362h0.177h0.361h0.177h0.181l0.357-0.181 h0.187h0.176h0.357L176.07,274.027L176.07,274.027L176.07,274.027z"/><path fill="#FFC425" d="M204.747,286.472l-5.408,0.362h0.177v-0.181l0,0v-0.182h0.181v-0.181v-0.177h0.182v-0.186l0,0v-0.177 v-0.176v-0.181l0,0v-0.182v-0.186v-0.182v-0.356v-0.362v-0.543v-0.72v-0.543l-0.182-0.9v-0.905l-0.181-0.905l-0.177-1.263 v-1.263l-0.176-1.263l-0.186-1.625l-0.177-1.619l-0.181-1.62l-0.362-1.986v-0.72v-0.543l-0.176-0.543v-0.72l-0.182-0.543v-0.353 l-0.176-0.543v-0.357l-0.187-0.538l-0.176-0.362v-0.372l-0.181-0.176v-0.357L197,262.664l-0.181-0.181v-0.357l2.529-0.186 l2.35-0.172l1.624-0.181l1.435,0.181l1.268,0.172l1.086,0.362l0.9,0.729l0.72,0.533l0.729,0.91l0.362,0.72l0.353,0.905 l0.181,0.905l0.182,0.9v0.905l-0.182,0.905l-0.181,0.72l-0.177,0.729l-0.361,0.719l-0.177,0.182l0,0v0.181l-0.195,0.156 l-0.182,0.177l0,0l-0.181,0.176v0.182v0.181h-0.181l-0.172,0.181v0.182l-0.186,0.176l0,0l-0.177,0.177L208,274.018l1.448,2.882 l1.982,5.413l0.181,0.181v0.182l0.182,0.181v0.176l0.171,0.196l0.186,0.357v0.181l0.177,0.181v0.182l0.186,0.176l0.172,0.177 v0.186l0.181,0.176l0,0l0.181,0.182h0.182l-0.182,0.181h-0.181h-0.181h-0.172l-0.362,0.182h-0.186h-0.357h-0.181h-0.362 l-0.362,0.181h-0.357h-0.357l-0.361,0.176h-0.539h-0.361h-0.362L208,284.837l-0.181-1.081l-0.182-0.9l-0.353-0.729l-0.186-0.9 l-0.362-0.729l-0.357-0.72l-0.181-0.543l-0.353-0.533l-0.186-0.544l-0.357-0.538l-0.362-0.357l-0.357-0.362l-0.362-0.181 l-0.176-0.353l-0.543-0.181v0.181l0,0l0,0l0,0l0,0h-0.172l0,0l0,0l0,0l0,0l0,0l0,0l0,0v0.533v0.544v0.538v0.538v0.538v0.559 v0.361v0.539v0.538v0.362l0.172,0.538v0.538v0.538l0.181,0.539l0.167,0.558l0.176,0.719l0,0l0,0v0.182l0,0v0.181l0.186,0.182 l0,0v0.176v0.176h0.177v0.187v0.176h0.186v0.182h0.172V286.472L204.747,286.472L204.747,286.472z M201.688,265.185l1.076,6.855 h0.905h0.729l0.719-0.361l0.544-0.362l0.356-0.533l0.177-0.729l0.362-0.533v-0.729v-0.533v-0.729l-0.182-0.719l-0.357-0.544 l-0.181-0.361l-0.362-0.353l-0.538-0.362h-0.538h-2.711V265.185L201.688,265.185z"/><path fill="#FFC425" d="M254.539,233.979v-8.848v-0.9l0.362-0.901l0.538-0.91l0.725-0.719l0.9-0.71l0.905-0.538l1.086-0.362 l1.082-0.362l1.086-0.176h1.082l1.081,0.357l1.081,0.362l1.092,0.719l0.9,0.91l0.72,1.082l0.543,1.443h0.176h0.187h0.176h0.176 l0.182-0.181h0.181h0.362l0.362-0.182h0.353l0.361-0.181h0.362l0.534-0.182h0.361l0.544-0.176l0.533-0.176h0.543l0.362-0.182 h0.176l0.357-0.181h0.357l0.362-0.182h0.356h0.182l0.362-0.181l0.362-0.176h0.352l0.182-0.187h0.357l0.186-0.176l0.357-0.177 l0.181-0.181l0.177-0.182l0.181,0.182v0.357v0.176v0.187v0.356v0.182v0.181v0.182v0.352v0.182v0.362v0.361v0.357v0.533v0.544 v0.533h-0.357l-0.362,0.181h-0.332h-0.544l-0.533,0.182h-0.362l-0.538,0.181h-0.729l-0.538,0.176l-0.729,0.177l-0.715,0.186 l-0.729,0.177l-0.719,0.181l-0.729,0.182h-0.905l-0.9,0.361v1.982h0.176h0.539h0.724l0.538,0.181h0.729h0.905l0.72,0.182h0.905 h0.724h0.901h0.724h0.538h0.539l0.548-0.182h0.353l0.181-0.181l-0.181,5.412l0,0l-0.177-0.181h-0.176v-0.177h-0.187v-0.186 h-0.176h-0.176v-0.177h-0.182l0,0h-0.181h-0.182v-0.176h-0.171h-0.186l-18.4-1.443h-0.186l-0.177-0.182h-0.186h-0.177h-0.181 h-0.181h-0.177h-0.186h-0.177h-0.186h-0.176l-0.182,0.182h-0.181l-0.177,0.181h-0.362L254.539,233.979L254.539,233.979 L254.539,233.979z M260.489,223.329h-0.176l-0.176,0.177h-0.187h-0.176l-0.182,0.186h-0.181h-0.181v0.177h-0.177l-0.181,0.181 h-0.177v0.182l-0.186,0.181l0,0l-0.176,0.181l-0.182,0.177v0.176l-0.181,0.362v0.19v0.362l-0.182,0.357v0.357v0.362v0.533v0.362 v0.362l0.182,0.538v0.357v0.181l0.181,0.362v0.176v0.362l6.142,0.176h0.171v-0.176l0.182-0.538v-0.362v-0.725v-0.724v-0.725 v-0.538l-0.182-0.9l-0.356-0.543l-0.177-0.72l-0.543-0.362l-0.533-0.538l-0.729-0.177h-0.719h-0.921V223.329L260.489,223.329z"/><path fill="#FFC425" d="M207.276,68.19l-5.588-1.622l-0.187-0.722l-0.357-0.722l-0.181-0.722l-0.181-0.541l-0.172-0.543v-0.541 l-0.186-0.722l-0.177-0.541l-0.186-0.541v-0.722l-0.176-0.722l-0.362-0.541l-0.177-0.903l-0.176-0.72l-0.362-0.903l-0.372-1.084 l-0.181-0.178H197.9h-0.176l-0.362-0.181h-0.181h-0.362l-0.172-0.181h-0.186h-0.362l0,0h-0.176h-0.191h-0.181v0.181h-0.177l0,0 l0.177,9.922l-5.051-1.082l0.725-1.084l0,0v-0.179h0.181l0,0v-0.181l0,0l0,0v-0.181l0,0l0,0v-0.181l0,0l0,0v-0.179l0,0l0,0 l0.177-18.402v-0.179v-0.181v-0.181l-0.177-0.178v-0.181v-0.181v-0.36l-0.181-0.181v-0.181v-0.179l-0.186-0.181l-0.177-0.181 V40.95l-0.186-0.181V40.59l-0.177-0.181h0.362h0.362h0.353l0.367,0.181h0.543h0.353l0.538,0.178h0.729h0.533l0.548,0.181 l0.72,0.181l0.729,0.181h0.715l0.729,0.181l0.905,0.179h0.9l1.081,0.362l1.263,0.36l0.905,0.541l0.9,0.541l0.725,0.722 l0.528,0.903l0.548,0.903l0.176,0.9l0.177,1.084v0.9l-0.353,1.084l-0.186,0.9l-0.539,1.084l-0.724,0.9l-0.905,1.084 l-1.082,0.722l0.177,0.9l0.186,0.903l0.177,0.722l0.186,0.722v0.722l0.176,0.719l0.177,0.722l0.181,0.543l0.357,0.541 l0.186,0.722l0.177,0.541l0.357,0.722l0.181,0.541l0.181,0.541l0.357,0.541l0.362,0.722L207.276,68.19L207.276,68.19 L207.276,68.19z M195.37,44.378v6.315v0.179h0.177l0,0h0.362l0.181,0.181h0.362h0.353h0.362h0.361h0.539h0.371h0.362h0.538 h0.357h0.543l0.357-0.181h0.357l0.181-0.179l0.357-0.181l0.187-0.362l0.176-0.36l0.182-0.359l0.176-0.362v-0.541l0.181-0.362 l-0.181-0.541v-0.36l-0.166-0.541l-0.182-0.362l-0.362-0.36l-0.357-0.362l-0.361-0.36h-0.172l-0.186-0.181h-0.187l-0.356-0.181 h-0.544l-0.361-0.181h-0.539l-0.356-0.178h-0.544h-0.361l-0.539-0.181h-0.362h-0.361h-0.362H195.37L195.37,44.378L195.37,44.378 L195.37,44.378z"/><path fill="#FFC425" d="M71.799,74.684h0.179l0.181-0.179v-0.181v-0.181l0.181-0.181l0,0v-0.178l0.181-0.181v-0.181l0,0v-0.179 v-0.181l0,0v-0.181V72.7v-0.179L72.7,51.774v-0.362l-0.179-0.179v-0.181v-0.181l0,0l-0.181-0.179v-0.181v-0.181h-0.181h-0.181 l-0.179-0.181h-0.181l-0.181-0.179h-0.179h-0.181l-0.181-0.181l1.262-0.359l1.084-0.362l1.082-0.362l0.903-0.359l0.9-0.36 l0.903-0.181l0.9-0.362l0.722-0.179l0.722-0.181h0.722l0.541-0.181h0.722h0.543h0.541h0.722h0.541l0.541,0.181l0.541,0.36 l0.541,0.362l0.543,0.541l0.36,0.359l0.36,0.725l0.362,0.541l0.181,0.722v0.72v0.903v0.722l-0.181,0.722l-0.362,0.903 l-0.36,0.719l-0.541,0.903l-0.722,0.722l-1.803,1.263v0.181v0.181l0.179,0.36l0.181,0.541l0.181,0.541l0.181,0.722l0.36,0.722 l0.36,0.722l0.362,0.903l0.36,0.722l0.543,0.9l0.36,0.903l0.36,0.903l0.543,0.9l0.541,0.722l0.36,0.722l0,0l0,0l-4.147,1.443 l-0.181-0.541l-0.181-0.722v-0.541l-0.36-0.541l-0.181-0.725l-0.181-0.541l-0.181-0.722l-0.36-0.541l-0.181-0.722l-0.359-0.541 L81.359,63.5l-0.36-0.722l-0.362-0.722l-0.541-0.541l-0.359-0.722l-0.541-0.722l0,0h-0.181h-0.181h-0.181h-0.179l-0.362,0.181 h-0.181l-0.359,0.181H77.39l-0.36,0.181H76.85l-0.181,0.179l-0.179,0.181l-0.181,0.181h-0.181v0.181l0.181,11.906l-0.181,0.179 l0,0h-0.359l-0.181,0.181l-0.36,0.181l-0.181,0.178h-0.362l-0.36,0.181l-0.362,0.181h-0.36l-0.36,0.181h-0.362L72.7,74.684 h-0.36h-0.181H71.799L71.799,74.684L71.799,74.684z M82.081,50.512H81.54h-0.36h-0.362h-0.359l-0.362,0.181h-0.359h-0.362 l-0.36,0.179h-0.362l-0.36,0.181l-0.362,0.181h-0.359l-0.36,0.179l-0.362,0.181l-0.36,0.362l-0.362,0.179v4.15l0.181,0.181h0.36 h0.181h0.362h0.36l0.359-0.181h0.543l0.36-0.181h0.541l0.362-0.179l0.359-0.181l0.362-0.181l0.359-0.181h0.362l0.179-0.178 l0.181-0.181l0.541-0.36l0.362-0.362l0.179-0.181l0.362-0.541v-0.178l0.181-0.543v-0.36v-0.362v-0.179v-0.362l-0.181-0.359 l-0.181-0.181l-0.181-0.181l-0.179-0.179l-0.181-0.181H82.081L82.081,50.512L82.081,50.512z"/><path fill="#FFC425" d="M60.615,80.637h-0.543h-0.541h-0.359H58.63h-0.362h-0.541l-0.359-0.179l-0.543-0.181l-0.359-0.181 l-0.362-0.179l-0.36-0.181l-0.541-0.362l-0.362-0.179l-0.359-0.362l-0.362-0.359l-0.36-0.362l-0.181-0.36l-0.181-0.362 l-0.179-0.179l-0.181-0.362l-0.181-0.359l-0.179-0.362l-0.181-0.541l-0.181-0.36l-0.181-0.362l-0.179-0.541v-0.541l-0.181-0.362 v-0.541l-0.181-0.541v-0.541v-0.543l-0.181-3.606l0.181-3.247l0.541-2.706l0.903-2.347l1.082-1.982l1.443-1.443l1.444-1.263 l1.443-0.722l1.623-0.181h1.625L63.14,54.3l1.443,0.903l1.263,1.262l1.082,1.804l0.903,1.984l0.541,2.525V63.5v0.722v1.084 v1.082l-0.181,1.444v1.262l-0.181,1.444l-0.36,1.622l-0.541,1.444l-0.362,1.443l-0.722,1.263l-0.72,1.263l-0.903,1.082 l-1.082,0.903l-1.265,0.541L60.615,80.637L60.615,80.637L60.615,80.637z M61.156,57.728l-1.444-0.181l-1.263,0.362l-1.081,0.722 l-0.722,1.082l-0.722,1.263l-0.543,1.625l-0.36,1.622l-0.181,1.984v1.806v1.803l0.362,1.803l0.359,1.625l0.541,1.441 l0.722,1.265l0.903,0.72l0.903,0.543h1.263l0.9-0.362l1.084-0.722l0.722-1.082l0.722-1.262l0.541-1.444l0.541-1.803l0.181-1.806 l0.179-1.803v-1.804L64.583,63.5l-0.362-1.622l-0.541-1.444l-0.722-1.262l-0.903-0.903L61.156,57.728L61.156,57.728 L61.156,57.728z"/></g></g></g></switch></svg>