<?xml version="1.0" encoding="UTF-8" standalone="no"?>
<!DOCTYPE svg  PUBLIC '-//W3C//DTD SVG 1.1//EN'  'http://www.w3.org/Graphics/SVG/1.1/DTD/svg11.dtd' [
	<!ENTITY ns_svg "http://www.w3.org/2000/svg">
	<!ENTITY ns_xlink "http://www.w3.org/1999/xlink">
]>
<svg xmlns="http://www.w3.org/2000/svg" xml:space="preserve" height="200" width="500" version="1.1" overflow="visible" xmlns:xlink="http://www.w3.org/1999/xlink" viewBox="0 0 500 200" enable-background="new 0 0 500 200">
<path id="USGS" d="m234.95 15.44v85.037c0 17.938-10.132 36.871-40.691 36.871-27.569 0-40.859-14.281-40.859-36.871v-85.04h25.08v83.377c0 14.783 6.311 20.593 15.447 20.593 10.959 0 15.943-7.307 15.943-20.593v-83.377h25.08m40.79 121.91c-31.058 0-36.871-18.27-35.542-39.03h25.078c0 11.462 0.5 21.092 14.283 21.092 8.471 0 12.619-5.482 12.619-13.618 0-21.592-50.486-22.922-50.486-58.631 0-18.769 8.968-33.715 39.525-33.715 24.42 0 36.543 10.963 34.883 36.043h-24.419c0-8.974-1.491-18.106-11.627-18.106-8.136 0-12.952 4.486-12.952 12.787 0 22.757 50.492 20.763 50.492 58.465 0 31.06-22.75 34.72-41.85 34.72m168.6 0c-31.06 0-36.871-18.27-35.539-39.03h25.075c0 11.462 0.502 21.092 14.285 21.092 8.475 0 12.625-5.482 12.625-13.618 0-21.592-50.494-22.922-50.494-58.631 0-18.769 8.969-33.715 39.531-33.715 24.412 0 36.536 10.963 34.875 36.043h-24.412c0-8.974-1.494-18.106-11.625-18.106-8.145 0-12.955 4.486-12.955 12.787 0 22.757 50.486 20.763 50.486 58.465 0 31.06-22.75 34.72-41.85 34.72m-79.89-46.684h14.76v26.461l-1.229 0.454c-3.815 1.332-8.301 2.327-12.452 2.327-14.287 0-17.943-6.645-17.943-44.177 0-23.256 0-44.348 15.615-44.348 12.146 0 14.711 8.198 14.933 18.107h24.981c0.197-23.271-14.789-36.043-38.42-36.043-41.021 0-42.521 30.724-42.521 60.954 0 45.507 4.938 63.167 47.12 63.167 9.784 0 25.36-2.211 32.554-4.18 0.437-0.115 1.212-0.597 1.212-1.217v-59.598h-38.611v18.09" fill="#007150"/>
<path id="waves" d="m48.736 55.595l0.419 0.403c11.752 9.844 24.431 8.886 34.092 2.464 6.088-4.049 33.633-22.367 49.202-32.718v-10.344h-116.03v27.309c7.071-1.224 18.47-0.022 32.316 12.886m43.651 45.425l-13.705-13.142c-1.926-1.753-3.571-3.04-3.927-3.313-11.204-7.867-21.646-5.476-26.149-3.802-1.362 0.544-2.665 1.287-3.586 1.869l-28.602 19.13v34.666h116.03v-24.95c-2.55 1.62-18.27 10.12-40.063-10.46m-44.677-42.322c-0.619-0.578-1.304-1.194-1.915-1.698-13.702-10.6-26.646-5.409-29.376-4.116v11.931l6.714-4.523s10.346-7.674 26.446 0.195l-1.869-1.789m16.028 15.409c-0.603-0.534-1.214-1.083-1.823-1.664-12.157-10.285-23.908-7.67-28.781-5.864-1.382 0.554-2.7 1.303-3.629 1.887l-13.086 8.754v12.288l21.888-14.748s10.228-7.589 26.166 0.054l-0.735-0.707m68.722 12.865c-4.563 3.078-9.203 6.203-11.048 7.441-4.128 2.765-13.678 9.614-29.577 2.015l1.869 1.797c0.699 0.63 1.554 1.362 2.481 2.077 11.418 8.53 23.62 7.304 32.769 1.243 1.267-0.838 2.424-1.609 3.507-2.334v-12.234m0-24.61c-10.02 6.738-23.546 15.833-26.085 17.536-4.127 2.765-13.82 9.708-29.379 2.273l1.804 1.729c0.205 0.19 0.409 0.375 0.612 0.571l-0.01 0.01 0.01-0.01c12.079 10.22 25.379 8.657 34.501 2.563 5.146-3.436 12.461-8.38 18.548-12.507l-0.01-12.165m0-24.481c-14.452 9.682-38.162 25.568-41.031 27.493-4.162 2.789-13.974 9.836-29.335 2.5l1.864 1.796c1.111 1.004 2.605 2.259 4.192 3.295 10.632 6.792 21.759 5.591 30.817-0.455 6.512-4.351 22.528-14.998 33.493-22.285v-12.344" fill="#007150"/>
<path id="tagline" d="m22.329 172.13c-0.247 0.962-0.401 1.888-0.251 2.554 0.195 0.68 0.749 1.011 1.923 1.011 1.171 0 2.341-0.757 2.642-2.183 0.954-4.479-9.653-3.479-8.218-10.224 0.972-4.567 5.792-5.954 9.607-5.954 4.022 0 7.257 1.928 5.951 6.495h-5.783c0.312-1.466 0.33-2.347-0.007-2.722-0.298-0.379-0.783-0.463-1.413-0.463-1.297 0-2.188 0.841-2.492 2.264-0.714 3.354 9.718 3.189 8.271 9.975-0.781 3.688-4.388 6.457-9.29 6.457-5.157 0-8.316-1.306-6.724-7.21h5.784m25.284-6.85c0.667-3.141 0.093-4.188-1.75-4.188-2.513 0-3.193 2.22-4.13 6.619-1.373 6.455-1.124 7.838 1.057 7.838 1.844 0 3.08-1.676 3.667-4.439h5.909c-1.218 5.741-4.847 8.215-10.382 8.215-7.627 0-7.645-4.654-6.234-11.273 1.229-5.784 3.119-10.729 10.915-10.729 5.447 0 8.033 2.433 6.856 7.964h-5.908m18.389-15.69l-0.989 4.651h-5.909l0.989-4.651h5.909m-6.233 29.31h-5.909l4.501-21.165h5.909l-4.501 21.16zm282.77-29.31l-0.991 4.651h-5.911l0.99-4.651h5.91m-6.23 29.31h-5.906l4.496-21.165h5.911l-4.5 21.16zm-259.03-12.95c0.438-2.052 1.144-4.984-1.664-4.984-2.727 0-3.36 3.186-3.743 4.984h5.407m-6.111 3.31c-0.533 2.516-1.251 6.284 1.345 6.284 2.097 0 2.945-2.012 3.318-3.771h5.992c-0.574 2.306-1.728 4.192-3.429 5.489-1.66 1.298-3.916 2.055-6.681 2.055-7.63 0-7.645-4.654-6.239-11.273 1.229-5.784 3.12-10.729 10.915-10.729 7.965 0 7.75 5.152 6.097 11.944h-11.318zm22.462-9.38h0.083c1.575-1.886 3.31-2.557 5.534-2.557 2.808 0 4.923 1.676 4.3 4.607l-3.608 16.978h-5.909l3.099-14.584c0.401-1.887 0.38-3.353-1.507-3.353-1.886 0-2.536 1.468-2.936 3.353l-3.098 14.584h-5.909l4.5-21.165h5.905l-0.452 2.14m23.465 5.4c0.667-3.141 0.093-4.188-1.751-4.188-2.512 0-3.194 2.22-4.131 6.619-1.373 6.455-1.122 7.838 1.058 7.838 1.843 0 3.079-1.676 3.668-4.439h5.909c-1.222 5.741-4.846 8.215-10.382 8.215-7.627 0-7.644-4.654-6.235-11.273 1.229-5.784 3.116-10.729 10.912-10.729 5.45 0 8.037 2.433 6.86 7.964h-5.908m19.61 0.67c0.434-2.052 1.145-4.984-1.664-4.984-2.725 0-3.36 3.186-3.743 4.984h5.4m-6.11 3.31c-0.54 2.516-1.255 6.284 1.344 6.284 2.095 0 2.94-2.012 3.316-3.771h5.992c-0.574 2.306-1.728 4.192-3.432 5.489-1.656 1.298-3.912 2.055-6.68 2.055-7.627 0-7.647-4.654-6.237-11.273 1.231-5.784 3.12-10.729 10.915-10.729 7.961 0 7.747 5.152 6.093 11.944h-11.31zm36.12-15.9c-2.352-0.168-3.051 0.758-3.507 2.896l-0.42 1.481h2.77l-0.775 3.646h-2.768l-3.723 17.521h-5.909l3.722-17.521h-2.638l0.774-3.646h2.682c1.188-5.292 2.251-8.231 8.516-8.231 0.713 0 1.376 0.041 2.08 0.082l-0.79 3.77m9.56 14.35c0.937-4.399 1.198-6.619-1.317-6.619-2.512 0-3.196 2.22-4.13 6.619-1.373 6.455-1.122 7.838 1.057 7.838 2.17 0 3.01-1.38 4.39-7.84m-11.43 0.34c1.229-5.784 3.117-10.729 10.912-10.729s7.586 4.945 6.355 10.729c-1.409 6.619-3.403 11.274-11.032 11.274-7.63 0-7.65-4.65-6.24-11.27zm27.86-10.31l-0.577 2.723h0.082c1.607-2.431 3.77-3.143 6.162-3.143l-1.122 5.279c-5.129-0.335-5.854 2.682-6.298 4.779l-2.448 11.524h-5.909l4.496-21.165h5.62m17.83 14.58c-0.32 1.51-0.464 3.354 1.465 3.354 3.479 0 3.935-4.693 4.421-7-2.95 0.13-5.08-0.12-5.88 3.65m10.34 2.64c-0.281 1.305-0.395 2.645-0.546 3.941h-5.491l0.345-2.808h-0.082c-1.721 2.18-3.664 3.229-6.223 3.229-4.105 0-4.961-3.06-4.181-6.748 1.488-7 6.958-7.295 12.43-7.206l0.347-1.638c0.385-1.804 0.41-3.104-1.729-3.104-2.054 0-2.549 1.551-2.908 3.229h-5.784c0.545-2.558 1.69-4.19 3.278-5.151 1.553-1.011 3.561-1.388 5.827-1.388 7.5 0 7.777 3.229 6.959 7.084l-2.25 10.57zm23.39-9.68c0.667-3.141 0.093-4.188-1.749-4.188-2.515 0-3.196 2.22-4.132 6.619-1.373 6.455-1.122 7.838 1.059 7.838 1.842 0 3.08-1.676 3.668-4.439h5.909c-1.221 5.741-4.848 8.215-10.382 8.215-7.627 0-7.642-4.654-6.237-11.273 1.232-5.784 3.121-10.729 10.916-10.729 5.447 0 8.034 2.433 6.857 7.964h-5.909m32.45 7.04c-0.322 1.51-0.463 3.354 1.465 3.354 3.479 0 3.936-4.693 4.42-7-2.96 0.13-5.09-0.12-5.89 3.65m10.34 2.64c-0.281 1.305-0.396 2.645-0.547 3.941h-5.49l0.344-2.808h-0.081c-1.72 2.18-3.659 3.229-6.226 3.229-4.104 0-4.961-3.06-4.18-6.748 1.487-7 6.957-7.295 12.432-7.206l0.351-1.638c0.378-1.804 0.405-3.104-1.733-3.104-2.057 0-2.549 1.551-2.909 3.229h-5.781c0.543-2.558 1.69-4.19 3.276-5.151 1.561-1.011 3.563-1.388 5.828-1.388 7.5 0 7.776 3.229 6.957 7.084l-2.24 10.57zm12.97-15.08h0.08c1.58-1.886 3.311-2.557 5.533-2.557 2.805 0 4.924 1.676 4.297 4.607l-3.608 16.978h-5.905l3.101-14.584c0.397-1.887 0.377-3.353-1.507-3.353-1.889 0-2.534 1.468-2.936 3.353l-3.104 14.584h-5.912l4.505-21.165h5.911l-0.45 2.14m18.63 15.08c2.141 0 2.903-2.22 3.854-6.703 0.986-4.652 1.342-7.291-0.843-7.291-2.22 0-2.926 1.549-4.3 8.004-0.42 1.97-1.56 5.99 1.29 5.99m12-17.22l-4.686 22.045c-0.313 1.465-1.461 7.25-9.59 7.25-4.398 0-7.937-1.129-6.965-6.285h5.785c-0.187 0.883-0.222 1.637 0.048 2.137 0.265 0.547 0.87 0.841 1.794 0.841 1.469 0 2.473-1.388 2.93-3.521l0.862-4.063h-0.084c-1.229 1.632-3.082 2.47-5.008 2.47-6.499 0-4.946-5.949-3.928-10.729 0.992-4.65 2.33-10.563 8.49-10.563 2.096 0 3.704 0.92 4.12 2.893h0.085l0.525-2.473h5.616v-0.002h0.03zm19.78 2.14h0.092c1.572-1.886 3.306-2.557 5.525-2.557 2.809 0 4.924 1.676 4.301 4.607l-3.606 16.978h-5.912l3.104-14.584c0.397-1.887 0.377-3.353-1.51-3.353-1.889 0-2.531 1.468-2.932 3.353l-3.104 14.584h-5.91l4.5-21.165h5.91l-0.45 2.14m18.63 15.08c2.137 0 2.901-2.22 3.854-6.703 0.992-4.652 1.344-7.291-0.836-7.291-2.222 0-2.928 1.549-4.301 8.004-0.41 1.97-1.56 5.99 1.29 5.99m12-17.22l-4.687 22.045c-0.313 1.465-1.454 7.25-9.593 7.25-4.398 0-7.931-1.129-6.957-6.285h5.785c-0.191 0.883-0.226 1.637 0.043 2.137 0.264 0.547 0.874 0.841 1.791 0.841 1.471 0 2.474-1.388 2.929-3.521l0.863-4.063h-0.079c-1.23 1.632-3.086 2.47-5.011 2.47-6.497 0-4.939-5.949-3.928-10.729 0.993-4.65 2.33-10.563 8.496-10.563 2.094 0 3.695 0.92 4.117 2.893h0.085l0.525-2.473h5.615v-0.002h0.02zm9.23 0h5.869l-0.482 15.926h0.079l7.044-15.926h6.278l0.08 15.926h0.083l6.438-15.926h5.666l-10.043 21.165h-6.195l-0.608-14.039h-0.081l-7.083 14.039h-6.281l-0.78-21.16m41.29 9.97c0.937-4.399 1.196-6.619-1.313-6.619-2.521 0-3.203 2.22-4.133 6.619-1.373 6.455-1.121 7.838 1.059 7.838 2.17 0 3.01-1.38 4.38-7.84m-11.43 0.34c1.226-5.784 3.114-10.729 10.911-10.729 7.796 0 7.586 4.945 6.354 10.729-1.409 6.619-3.401 11.274-11.028 11.274s-7.64-4.65-6.23-11.27zm28.19-10.31l-0.582 2.723h0.086c1.608-2.431 3.771-3.143 6.16-3.143l-1.123 5.279c-5.125-0.335-5.851 2.682-6.297 4.779l-2.449 11.524h-5.906l4.496-21.165h5.61m-182.4-0.42c-2.219 0-3.955 0.671-5.53 2.557h-0.086l2.188-10.285h-5.91l-6.231 29.314h5.91l3.103-14.585c0.4-1.885 1.047-3.353 2.935-3.353s1.906 1.468 1.51 3.353l-3.102 14.585h5.907l3.605-16.976c0.62-2.93-1.49-4.6-4.3-4.6m192.26-7.73l-6.231 29.313h5.912l6.23-29.313h-5.91m15.8 18.54c-1.133 5.324-1.979 7.545-3.992 7.545-2.135 0-2.043-2.221-0.912-7.545 0.9-4.231 1.48-7.166 4.039-7.166 2.43 0 1.76 2.93 0.86 7.16m3.95-18.54l-2.158 10.16h-0.084c-0.834-1.804-2.165-2.433-4.301-2.433-5.953 0-7.187 6.582-8.097 10.856-0.924 4.355-2.578 11.146 3.541 11.146 2.268 0 4.051-0.715 5.574-2.768h0.087l-0.504 2.349h5.62l6.229-29.315h-5.909v-0.01z" fill="#007150"/>
</svg>
