<svg xmlns="http://www.w3.org/2000/svg" width="16" height="16" fill="none" viewBox="0 0 16 16"><defs><clipPath id="a"><path fill="#fff" d="M1372 1202h16v16h-16z"/></clipPath></defs><g clip-path="url(#a)" transform="translate(-1372 -1202)"><g fill="currentColor"><path d="M1377.04 1206.81c.66 0 1.2-.54 1.2-1.2s-.54-1.2-1.2-1.2c-.67 0-1.2.54-1.2 1.2s.53 1.2 1.2 1.2m7.92 5.65c.66 0 1.2-.53 1.2-1.2 0-.66-.54-1.2-1.2-1.2-.67 0-1.2.54-1.2 1.2 0 .67.53 1.2 1.2 1.2m-1.7-6.22c.66 0 1.2-.54 1.2-1.2s-.54-1.2-1.2-1.2-1.2.54-1.2 1.2.54 1.2 1.2 1.2m-10.97 9.7c-.25.61.26 1.26.87 1.26.09 0 .19-.02.29-.05l8.96-2.77-7.36-7.36zm7.12-2.31-5.22 1.62 1.62-5.22z"/><path d="m1382.13 1208.44-2.27 2.26 1.13 1.13 2.26-2.26c.94-.94 2.46-.94 3.4 0l1.12-1.13a3.996 3.996 0 0 0-5.65 0zm-4.53 0 1.13 1.13 1.11-1.11a4.01 4.01 0 0 0 0-5.66l-1.13 1.13c.94.93.94 2.45 0 3.39l-1.11 1.11z"/></g></g></svg>