<svg xmlns="http://www.w3.org/2000/svg" width="20" height="20" fill="none" viewBox="0 0 20 20"><g fill="currentColor"><path d="M6.3 6.01c.83 0 1.5-.67 1.5-1.5s-.67-1.5-1.5-1.5-1.5.67-1.5 1.5.67 1.5 1.5 1.5m9.9 7.07c.83 0 1.5-.67 1.5-1.5s-.67-1.5-1.5-1.5-1.5.67-1.5 1.5.67 1.5 1.5 1.5M14.08 5.3c.83 0 1.5-.67 1.5-1.5s-.67-1.5-1.5-1.5-1.5.67-1.5 1.5.67 1.5 1.5 1.5M.37 17.43C.05 18.19.69 19 1.45 19c.12 0 .24-.02.37-.06l11.19-3.47-9.19-9.19zm8.89-2.89-6.52 2.02 2.02-6.52z"/><path d="m12.66 8.05-2.83 2.83 1.41 1.41 2.83-2.83a3 3 0 0 1 4.24 0l1.41-1.41a5.003 5.003 0 0 0-7.07 0zM7 8.05l1.41 1.41L9.8 8.07A5.003 5.003 0 0 0 9.8 1L8.39 2.41a3 3 0 0 1 0 4.24L7 8.04z"/></g></svg>