<svg xmlns="http://www.w3.org/2000/svg" width="24" height="24" fill="none" viewBox="0 0 24 24"><g fill="currentColor"><path d="M7.56 7.21a1.799 1.799 0 1 0 0-3.6c-1 0-1.8.81-1.8 1.8 0 1 .8 1.8 1.8 1.8m11.88 8.49a1.799 1.799 0 1 0 0-3.6c-1 0-1.8.8-1.8 1.8 0 .99.8 1.8 1.8 1.8m-2.55-9.34c1 0 1.8-.81 1.8-1.8a1.799 1.799 0 1 0-1.8 1.8M.44 20.92c-.38.91.38 1.88 1.3 1.88.14 0 .28-.02.44-.07l13.43-4.17L4.58 7.54zm10.67-3.47-7.83 2.42 2.43-7.82z"/><path d="m15.19 9.66-3.4 3.4 1.69 1.69 3.4-3.4a3.61 3.61 0 0 1 5.09 0l1.69-1.69a6 6 0 0 0-8.48 0zm-6.79 0 1.69 1.69 1.67-1.67a6 6 0 0 0 0-8.48l-1.7 1.69a3.59 3.59 0 0 1 0 5.09L8.4 9.65z"/></g></svg>