<?xml version="1.0" encoding="UTF-8"?>
<svg width="23px" height="28px" viewBox="0 0 23 28" version="1.1" xmlns="http://www.w3.org/2000/svg" xmlns:xlink="http://www.w3.org/1999/xlink">
    <!-- Generator: Sketch 52.5 (67469) - http://www.bohemiancoding.com/sketch -->
    <title>Group 9</title>
    <desc>Created with Sketch.</desc>
    <defs>
        <polygon id="path-1" points="0.9412 0 14 0 14 28 0.9412 28"></polygon>
        <polygon id="path-3" points="0.0002 0 11.5002 0 11.5002 27.9997 0.0002 27.9997"></polygon>
    </defs>
    <g id="Styles" stroke="none" stroke-width="1" fill="none" fill-rule="evenodd">
        <g id="Logo" transform="translate(-697.000000, -2280.000000)">
            <g id="Group-9" transform="translate(697.000000, 2280.000000)">
                <g id="Group-3" transform="translate(9.000000, 0.000000)">
                    <mask id="mask-2" fill="white">
                        <use xlink:href="#path-1"></use>
                    </mask>
                    <g id="Clip-2"></g>
                    <path d="M10.7832,0 L2.5002,0 L0.9412,2.244 L2.5002,6.519 C4.3032,6.519 5.7632,7.918 5.7632,9.645 C5.7632,10.629 5.2792,11.497 4.5372,12.069 L5.6122,17.973 C4.5832,18.145 3.5412,18.229 2.5002,18.229 L0.9412,23.655 L2.5002,28 C10.3602,24.686 13.1092,20.346 13.8042,19 C13.9372,18.744 14.0002,18.461 14.0002,18.175 L14.0002,3.082 C14.0002,1.38 12.5592,0 10.7832,0" id="Fill-1" fill="#B51E23" mask="url(#mask-2)"></path>
                </g>
                <g id="Group-6">
                    <mask id="mask-4" fill="white">
                        <use xlink:href="#path-3"></use>
                    </mask>
                    <g id="Clip-5"></g>
                    <path d="M8.4262,17.9727 C8.7832,16.0137 9.1402,14.0547 9.4972,12.0967 C8.7352,11.5237 8.2372,10.6447 8.2372,9.6447 C8.2372,7.9187 9.6972,6.5187 11.5002,6.5187 L11.5002,-0.0003 L3.2172,-0.0003 C1.4402,-0.0003 0.0002,1.3797 0.0002,3.0817 L0.0002,18.1747 C0.0002,18.4607 0.0632,18.7437 0.1952,18.9997 C0.8902,20.3457 3.6402,24.6857 11.5002,27.9997 L11.5002,18.2287 C10.4712,18.2277 9.4432,18.1427 8.4262,17.9727" id="Fill-4" fill="#E21D3E" mask="url(#mask-4)"></path>
                </g>
                <path d="M13.5371,12.0694 C14.2791,11.4964 14.7641,10.6294 14.7641,9.6454 C14.7641,7.9184 13.3031,6.5194 11.5001,6.5194 C9.6971,6.5194 8.2371,7.9184 8.2371,9.6454 C8.2371,10.6444 8.7351,11.5244 9.4971,12.0964 C9.1401,14.0544 8.7831,16.0134 8.4261,17.9724 C9.4431,18.1424 10.4721,18.2274 11.5001,18.2284 C12.5411,18.2294 13.5831,18.1444 14.6121,17.9724 L13.5371,12.0694 Z" id="Fill-7" fill="#FFFFFF"></path>
            </g>
        </g>
    </g>
</svg>