<svg xmlns="http://www.w3.org/2000/svg" width="16" height="16" fill="none" viewBox="0 0 16 16"><g fill="currentColor"><path d="M8 9.6c.884 0 1.6-.72 1.6-1.6S8.884 6.4 8 6.4 6.4 7.12 6.4 8 7.116 9.6 8 9.6m0 .8c-2.288 0-3.2 1.37-3.2 3.2h6.4c0-1.83-.912-3.2-3.2-3.2"/><path d="M11.2 0H4.8C3.472 0 2.4 1.07 2.4 2.4v11.2c0 1.33 1.072 2.4 2.4 2.4h6.4c1.328 0 2.4-1.07 2.4-2.4V2.4c0-1.33-1.072-2.4-2.4-2.4m.8 13.6c0 .44-.36.8-.8.8H4.8c-.44 0-.8-.36-.8-.8V2.4c0-.44.36-.8.8-.8h6.4c.44 0 .8.36.8.8z"/><path d="M6.4 4h3.2c.44 0 .8-.36.8-.8s-.36-.8-.8-.8H6.4c-.44 0-.8.36-.8.8s.36.8.8.8"/></g></svg>