<svg xmlns="http://www.w3.org/2000/svg" width="24" height="24" fill="none" viewBox="0 0 24 24"><g fill="currentColor"><path d="M12 14.4c1.325 0 2.4-1.07 2.4-2.4S13.325 9.6 12 9.6c-1.326 0-2.4 1.07-2.4 2.4s1.074 2.4 2.4 2.4m0 1.2c-3.432 0-4.8 2.05-4.8 4.8h9.6c0-2.75-1.368-4.8-4.8-4.8"/><path d="M16.8 0H7.2C5.208 0 3.6 1.61 3.6 3.6v16.8c0 1.99 1.608 3.6 3.6 3.6h9.6c1.992 0 3.6-1.61 3.6-3.6V3.6c0-1.99-1.608-3.6-3.6-3.6M18 20.4c0 .66-.54 1.2-1.2 1.2H7.2c-.66 0-1.2-.54-1.2-1.2V3.6c0-.66.54-1.2 1.2-1.2h9.6c.66 0 1.2.54 1.2 1.2z"/><path d="M9.6 6h4.8c.66 0 1.2-.54 1.2-1.2s-.54-1.2-1.2-1.2H9.6c-.66 0-1.2.54-1.2 1.2S8.94 6 9.6 6"/></g></svg>