<svg xmlns="http://www.w3.org/2000/svg" width="16" height="16" fill="none" viewBox="0 0 16 16"><defs><clipPath id="a"><path fill="#fff" d="M1692 1514h16v16h-16z"/></clipPath></defs><g clip-path="url(#a)" transform="translate(-1692 -1514)"><path fill="currentColor" d="M1700.8 1526h-1.6v3.2h1.6zm0-11.2h-1.6v3.2h1.6zm-4.2 9.46-2.26 2.27 1.12 1.13 2.27-2.27zm7.92-7.92-2.26 2.27 1.12 1.13 2.27-2.27zm-8.52 4.86h-3.2v1.6h3.2zm11.2 0h-3.2v1.6h3.2zm-11.73-4.86-1.13 1.13 2.27 2.27 1.13-1.13zm7.92 7.92-1.13 1.13 2.27 2.27 1.13-1.13-2.26-2.27z"/></g></svg>