<svg xmlns="http://www.w3.org/2000/svg" viewBox="0 0 96 96"><defs><linearGradient id="a" x1="86.97" y1="10.64" x2="8.67" y2="89.72" gradientTransform="matrix(1 0 0 -1 0 98)" gradientUnits="userSpaceOnUse"><stop offset="0" stop-color="#00bfe7"/><stop offset=".71" stop-color="#99d7f4"/></linearGradient></defs><rect width="96" height="96" rx="8" ry="8" fill="url(#a)"/><path d="M60.39 12H35.61a6.29 6.29 0 0 0-6.2 6.35v3.57h37.17v-3.57A6.29 6.29 0 0 0 60.39 12zM29.42 77.65A6.29 6.29 0 0 0 35.61 84h24.78a6.29 6.29 0 0 0 6.2-6.35v-6.06H29.42zM48 75.4a2.5 2.5 0 1 1-2.45 2.55A2.47 2.47 0 0 1 48 75.4z" fill="#112e51"/><path fill="#fff" d="M30.42 20.44h35.17v52.64H30.42z"/><path d="M64.58 21.44v50.63H31.42V21.44h33.16m2-2H29.42v54.63h37.16z" fill="#112e51"/><ellipse cx="48" cy="77.9" rx="2.45" ry="2.5" fill="#fff"/><circle cx="87" cy="87" r="3" fill="#112e51"/><circle cx="9" cy="87" r="3" fill="#112e51"/><circle cx="87" cy="9" r="3" fill="#112e51"/><circle cx="9" cy="9" r="3" fill="#112e51"/><path d="M40 48.45v1.43h-5.42v-1.43h2V44H35v-1a7.3 7.3 0 0 0 1.15-.29 5.53 5.53 0 0 0 .89-.41h1.3v6.19zm1.5.42q.82-.68 1.49-1.28t1.15-1.11a5.52 5.52 0 0 0 .74-1 1.73 1.73 0 0 0 .26-.86 1.1 1.1 0 0 0-.32-.86 1.33 1.33 0 0 0-.92-.29 1.56 1.56 0 0 0-.83.23 4.18 4.18 0 0 0-.7.55l-.95-.95a6.35 6.35 0 0 1 .58-.5 3.17 3.17 0 0 1 .62-.38 3.38 3.38 0 0 1 .7-.23 3.85 3.85 0 0 1 .81-.08 3.25 3.25 0 0 1 1.09.17 2.5 2.5 0 0 1 .85.49 2.24 2.24 0 0 1 .55.76 2.42 2.42 0 0 1 .2 1 2.34 2.34 0 0 1-.23 1 5 5 0 0 1-.62 1 10.6 10.6 0 0 1-.89 1q-.5.5-1.06 1l.7-.07h2.49v1.49H41.5zm7.82-1.04a3.5 3.5 0 0 0 .86.55 2.39 2.39 0 0 0 1 .22 2 2 0 0 0 1-.23.73.73 0 0 0 .4-.67 1 1 0 0 0-.11-.46.85.85 0 0 0-.37-.34 2.51 2.51 0 0 0-.71-.22 6.65 6.65 0 0 0-1.12-.08v-1.24a3.25 3.25 0 0 0 1.59-.28.84.84 0 0 0 .46-.74.73.73 0 0 0-.3-.62 1.37 1.37 0 0 0-.83-.22 2 2 0 0 0-.84.18 4.08 4.08 0 0 0-.78.49l-.89-1.08a4.7 4.7 0 0 1 1.21-.71 3.68 3.68 0 0 1 1.39-.26 4.43 4.43 0 0 1 1.14.14 2.65 2.65 0 0 1 .89.41 1.91 1.91 0 0 1 .58.65 1.87 1.87 0 0 1 .2.89 1.44 1.44 0 0 1-.38 1 2.8 2.8 0 0 1-1.07.68 2.79 2.79 0 0 1 1.21.65 1.58 1.58 0 0 1 .49 1.21 1.81 1.81 0 0 1-.25.94 2.18 2.18 0 0 1-.66.7 3.18 3.18 0 0 1-1 .43 4.81 4.81 0 0 1-2.84-.14 3.14 3.14 0 0 1-1.15-.79zm12.58.23h-1v1.82h-1.61v-1.82h-3.67v-1.22l3.18-4.58h2.14v4.45h1zm-2.6-1.34v-2.95c-.13.22-.26.43-.41.65l-.42.65-1.15 1.66z" fill="#112e51"/></svg>