<svg xmlns="http://www.w3.org/2000/svg" xmlns:xlink="http://www.w3.org/1999/xlink" viewBox="0 0 96 96"><defs><style>.cls-1{fill:url(#linear-gradient);}.cls-2,.cls-4{fill:#112e51;}.cls-3{fill:#fff;}.cls-4{font-size:12px;font-family:SourceCodePro-Bold, Source Code Pro;font-weight:700;}</style><linearGradient id="linear-gradient" x1="86.97" y1="87.36" x2="8.67" y2="8.28" gradientUnits="userSpaceOnUse"><stop offset="0" stop-color="#00bfe7"/><stop offset="0.71" stop-color="#99d7f4"/></linearGradient></defs><title>2FA</title><g id="Layer_2" data-name="Layer 2"><g id="Layer_1-2" data-name="Layer 1"><rect class="cls-1" width="96" height="96" rx="8" ry="8"/><path class="cls-2" d="M60.39,12H35.61a6.29,6.29,0,0,0-6.2,6.35v3.57H66.58V18.35A6.29,6.29,0,0,0,60.39,12Z"/><path class="cls-2" d="M29.42,77.65A6.29,6.29,0,0,0,35.61,84H60.39a6.29,6.29,0,0,0,6.2-6.35V71.59H29.42ZM48,75.4a2.5,2.5,0,1,1-2.45,2.5A2.47,2.47,0,0,1,48,75.4Z"/><rect class="cls-3" x="30.42" y="20.44" width="35.17" height="52.64"/><path class="cls-2" d="M64.58,21.44V72.07H31.42V21.44H64.58m2-2H29.42V74.07H66.58V19.44Z"/><ellipse class="cls-3" cx="48" cy="77.9" rx="2.45" ry="2.5"/><circle class="cls-2" cx="87" cy="87" r="3"/><circle class="cls-2" cx="9" cy="87" r="3"/><circle class="cls-2" cx="87" cy="9" r="3"/><circle class="cls-2" cx="9" cy="9" r="3"/><text class="cls-4" transform="translate(33.6 49.88)">1234</text></g></g></svg>