<svg xmlns="http://www.w3.org/2000/svg" viewBox="0 0 96 96"><defs><linearGradient id="a" x1="86.97" y1="10.64" x2="8.67" y2="89.72" gradientTransform="matrix(1 0 0 -1 0 98)" gradientUnits="userSpaceOnUse"><stop offset="0" stop-color="#00bfe7"/><stop offset=".71" stop-color="#99d7f4"/></linearGradient></defs><rect width="96" height="96" rx="8" ry="8" fill="url(#a)"/><circle cx="87" cy="87" r="3" fill="#112e51"/><circle cx="9" cy="87" r="3" fill="#112e51"/><circle cx="87" cy="9" r="3" fill="#112e51"/><circle cx="9" cy="9" r="3" fill="#112e51"/><rect x="32.35" y="58.3" width="53.92" height="20.45" rx="3" ry="3" fill="#fff" stroke="#112e51" stroke-linecap="round" stroke-linejoin="round" stroke-width="3"/><path fill="none" stroke="#112e51" stroke-linecap="round" stroke-linejoin="round" stroke-width="2" d="M41.72 72.24v-7.25m-3.16 5.44 6.32-3.63m-6.32 0 6.32 3.63m8.61 1.81v-7.25m-3.16 5.44 6.32-3.63m-6.32 0 6.32 3.63m8.62 1.81v-7.25m-3.16 5.44 6.32-3.63m-6.32 0 6.32 3.63m8.61 1.81v-7.25m-3.16 5.44 6.32-3.63m-6.32 0 6.32 3.63"/><rect x="11.89" y="16.01" width="49.01" height="35.49" rx="3" ry="3" fill="#fff" stroke="#112e51" stroke-linecap="round" stroke-linejoin="round" stroke-width="3"/><path d="M11.83 46.72a8.83 8.83 0 0 0 1.44 3.35l16.2-14.23 2.83 2.49a6 6 0 0 0 7.76 0l2.83-2.49 16.42 14.43" fill="none" stroke="#112e51" stroke-linecap="round" stroke-linejoin="round" stroke-width="2"/><path fill="#99d7f4" opacity=".45" style="isolation:isolate" d="m13.06 22.52-.05 4.96L27.4 37.67l.87-1.83-15.21-13.32zm46.62-.34.05 4.95-14.39 10.19-.88-1.82 15.22-13.32z"/><path d="m60.9 20-18 15.83-2.83 2.49a6 6 0 0 1-7.76 0l-2.83-2.49L11.89 20.4l17.58 15.44" fill="none" stroke="#112e51" stroke-linecap="round" stroke-linejoin="round" stroke-width="2"/><path d="M76 33.62a1.5 1.5 0 0 1 1.5 1.5v13a1.5 1.5 0 0 1-1.5 1.5 1.5 1.5 0 0 1-1.5-1.5v-13a1.5 1.5 0 0 1 1.5-1.5z" fill="#112e51"/><path d="M68 41.63a1.5 1.5 0 0 1 1.5-1.5h13a1.5 1.5 0 0 1 1.5 1.5 1.5 1.5 0 0 1-1.5 1.5h-13a1.5 1.5 0 0 1-1.5-1.5z" fill="#112e51"/></svg>