<svg xmlns="http://www.w3.org/2000/svg" xmlns:xlink="http://www.w3.org/1999/xlink" viewBox="0 0 96 96"><defs><style>.cls-1{isolation:isolate;}.cls-2{fill:url(#linear-gradient);}.cls-3{fill:#112e51;}.cls-4{fill:#fff;stroke-width:3px;}.cls-4,.cls-5{stroke:#112e51;stroke-linecap:round;stroke-linejoin:round;}.cls-5{fill:none;stroke-width:2px;}.cls-6{fill:#99d7f4;opacity:0.45;mix-blend-mode:multiply;}</style><linearGradient id="linear-gradient" x1="86.97" y1="87.36" x2="8.67" y2="8.28" gradientUnits="userSpaceOnUse"><stop offset="0" stop-color="#00bfe7"/><stop offset="0.71" stop-color="#99d7f4"/></linearGradient></defs><title>email-password</title><g class="cls-1"><g id="Layer_2" data-name="Layer 2"><g id="Layer_1-2" data-name="Layer 1"><rect class="cls-2" width="96" height="96" rx="8" ry="8"/><circle class="cls-3" cx="87" cy="87" r="3"/><circle class="cls-3" cx="9" cy="87" r="3"/><circle class="cls-3" cx="87" cy="9" r="3"/><circle class="cls-3" cx="9" cy="9" r="3"/><rect class="cls-4" x="32.35" y="58.3" width="53.92" height="20.45" rx="3" ry="3"/><line class="cls-5" x1="41.72" y1="72.24" x2="41.72" y2="64.99"/><line class="cls-5" x1="38.56" y1="70.43" x2="44.88" y2="66.8"/><line class="cls-5" x1="38.56" y1="66.8" x2="44.88" y2="70.43"/><line class="cls-5" x1="53.49" y1="72.24" x2="53.49" y2="64.99"/><line class="cls-5" x1="50.33" y1="70.43" x2="56.65" y2="66.8"/><line class="cls-5" x1="50.33" y1="66.8" x2="56.65" y2="70.43"/><line class="cls-5" x1="65.27" y1="72.24" x2="65.27" y2="64.99"/><line class="cls-5" x1="62.11" y1="70.43" x2="68.43" y2="66.8"/><line class="cls-5" x1="62.11" y1="66.8" x2="68.43" y2="70.43"/><line class="cls-5" x1="77.04" y1="72.24" x2="77.04" y2="64.99"/><line class="cls-5" x1="73.88" y1="70.43" x2="80.2" y2="66.8"/><line class="cls-5" x1="73.88" y1="66.8" x2="80.2" y2="70.43"/><rect class="cls-4" x="11.89" y="16.01" width="49.01" height="35.49" rx="3" ry="3"/><path class="cls-5" d="M11.83,46.72a8.83,8.83,0,0,0,1.44,3.35L29.47,35.84l2.83,2.49a6,6,0,0,0,7.76,0l2.83-2.49L59.31,50.27"/><polygon class="cls-6" points="13.06 22.52 13.01 27.48 27.4 37.67 28.27 35.84 13.06 22.52"/><polygon class="cls-6" points="59.68 22.18 59.73 27.13 45.34 37.32 44.46 35.5 59.68 22.18"/><path class="cls-5" d="M60.9,20l-18,15.83-2.83,2.49a6,6,0,0,1-7.76,0l-2.83-2.49L11.89,20.4,29.47,35.84"/><rect class="cls-3" x="74.54" y="33.62" width="3" height="16" rx="1.5" ry="1.5"/><rect class="cls-3" x="74.54" y="33.62" width="3" height="16" rx="1.5" ry="1.5" transform="translate(34.42 117.67) rotate(-90)"/></g></g></g></svg>