<svg xmlns="http://www.w3.org/2000/svg" xmlns:xlink="http://www.w3.org/1999/xlink" viewBox="0 0 96 96"><defs><linearGradient id="linear-gradient" x1="86.97" y1="10.64" x2="8.67" y2="89.72" gradientTransform="matrix(1, 0, 0, -1, 0, 98)" gradientUnits="userSpaceOnUse"><stop offset="0" stop-color="#00bfe7"/><stop offset="0.71" stop-color="#99d7f4"/></linearGradient></defs><title>email-password</title><g id="Layer_2" data-name="Layer 2"><g id="Layer_1-2" data-name="Layer 1"><g id="Layer_2-2" data-name="Layer 2"><g id="Layer_1-2-2" data-name="Layer 1-2"><rect width="96" height="96" rx="8" ry="8" fill="url(#linear-gradient)"/><circle cx="87" cy="87" r="3" fill="#112e51"/><circle cx="9" cy="87" r="3" fill="#112e51"/><circle cx="87" cy="9" r="3" fill="#112e51"/><circle cx="9" cy="9" r="3" fill="#112e51"/><rect x="32.35" y="58.3" width="53.92" height="20.45" rx="3" ry="3" fill="#fff" stroke="#112e51" stroke-linecap="round" stroke-linejoin="round" stroke-width="3"/><line x1="41.72" y1="72.24" x2="41.72" y2="64.99" fill="none" stroke="#112e51" stroke-linecap="round" stroke-linejoin="round" stroke-width="2"/><line x1="38.56" y1="70.43" x2="44.88" y2="66.8" fill="none" stroke="#112e51" stroke-linecap="round" stroke-linejoin="round" stroke-width="2"/><line x1="38.56" y1="66.8" x2="44.88" y2="70.43" fill="none" stroke="#112e51" stroke-linecap="round" stroke-linejoin="round" stroke-width="2"/><line x1="53.49" y1="72.24" x2="53.49" y2="64.99" fill="none" stroke="#112e51" stroke-linecap="round" stroke-linejoin="round" stroke-width="2"/><line x1="50.33" y1="70.43" x2="56.65" y2="66.8" fill="none" stroke="#112e51" stroke-linecap="round" stroke-linejoin="round" stroke-width="2"/><line x1="50.33" y1="66.8" x2="56.65" y2="70.43" fill="none" stroke="#112e51" stroke-linecap="round" stroke-linejoin="round" stroke-width="2"/><line x1="65.27" y1="72.24" x2="65.27" y2="64.99" fill="none" stroke="#112e51" stroke-linecap="round" stroke-linejoin="round" stroke-width="2"/><line x1="62.11" y1="70.43" x2="68.43" y2="66.8" fill="none" stroke="#112e51" stroke-linecap="round" stroke-linejoin="round" stroke-width="2"/><line x1="62.11" y1="66.8" x2="68.43" y2="70.43" fill="none" stroke="#112e51" stroke-linecap="round" stroke-linejoin="round" stroke-width="2"/><line x1="77.04" y1="72.24" x2="77.04" y2="64.99" fill="none" stroke="#112e51" stroke-linecap="round" stroke-linejoin="round" stroke-width="2"/><line x1="73.88" y1="70.43" x2="80.2" y2="66.8" fill="none" stroke="#112e51" stroke-linecap="round" stroke-linejoin="round" stroke-width="2"/><line x1="73.88" y1="66.8" x2="80.2" y2="70.43" fill="none" stroke="#112e51" stroke-linecap="round" stroke-linejoin="round" stroke-width="2"/><rect x="11.89" y="16.01" width="49.01" height="35.49" rx="3" ry="3" fill="#fff" stroke="#112e51" stroke-linecap="round" stroke-linejoin="round" stroke-width="3"/><path d="M11.83,46.72a8.83,8.83,0,0,0,1.44,3.35l16.2-14.23,2.83,2.49a6,6,0,0,0,7.76,0l2.83-2.49L59.31,50.27" fill="none" stroke="#112e51" stroke-linecap="round" stroke-linejoin="round" stroke-width="2"/><polygon points="13.06 22.52 13.01 27.48 27.4 37.67 28.27 35.84 13.06 22.52" fill="#99d7f4" opacity="0.45" style="isolation:isolate"/><polygon points="59.68 22.18 59.73 27.13 45.34 37.32 44.46 35.5 59.68 22.18" fill="#99d7f4" opacity="0.45" style="isolation:isolate"/><path d="M60.9,20l-18,15.83-2.83,2.49a6,6,0,0,1-7.76,0l-2.83-2.49L11.89,20.4,29.47,35.84" fill="none" stroke="#112e51" stroke-linecap="round" stroke-linejoin="round" stroke-width="2"/><path d="M76,33.62h0a1.5,1.5,0,0,1,1.5,1.5v13a1.5,1.5,0,0,1-1.5,1.5h0a1.5,1.5,0,0,1-1.5-1.5v-13A1.5,1.5,0,0,1,76,33.62Z" fill="#112e51"/><path d="M68,41.63h0a1.5,1.5,0,0,1,1.5-1.5h13a1.5,1.5,0,0,1,1.5,1.5h0a1.5,1.5,0,0,1-1.5,1.5h-13A1.5,1.5,0,0,1,68,41.63Z" fill="#112e51"/></g></g></g></g></svg>