<svg xmlns="http://www.w3.org/2000/svg" xmlns:xlink="http://www.w3.org/1999/xlink" viewBox="0 0 96 96"><defs><symbol id="b" viewBox="0 0 96 96"><rect width="96" height="96" rx="8" ry="8" fill="url(#a)"/><circle cx="87" cy="87" r="3" fill="#112e51"/><circle cx="9" cy="87" r="3" fill="#112e51"/><circle cx="87" cy="9" r="3" fill="#112e51"/><circle cx="9" cy="9" r="3" fill="#112e51"/></symbol><symbol id="c" viewBox="0 0 96 96"><use width="96" height="96" xlink:href="#b"/><path d="M26.62 75.35a2 2 0 0 0 2 2h38.76a2 2 0 0 0 2-2v-55a2 2 0 0 0-2-2.05H36.81a1.48 1.48 0 0 0-1.15.6l-8.44 8.33a1.65 1.65 0 0 0-.6 1.26z" fill="#fff" stroke="#112e51" stroke-linecap="round" stroke-linejoin="round" stroke-width="3"/><path fill="none" stroke="#112e51" stroke-linecap="round" stroke-linejoin="round" stroke-width="2" d="M36.81 18.33v10.19H26.62"/><path fill="#ccebf9" style="mix-blend-mode:multiply" d="M28.11 29.52v9.71l8.84-9.72-8.84.01z"/><rect x="36.95" y="59.17" width="19" height="2" rx=".5" ry=".5" fill="#112e51"/><rect x="36.95" y="62.98" width="22" height="2" rx=".5" ry=".5" fill="#112e51"/><rect x="36.95" y="66.79" width="11" height="2" rx=".5" ry=".5" fill="#112e51"/></symbol><linearGradient id="a" x1="86.97" y1="87.36" x2="8.67" y2="8.28" gradientUnits="userSpaceOnUse"><stop offset="0" stop-color="#00bfe7"/><stop offset=".71" stop-color="#99d7f4"/></linearGradient></defs><use width="96" height="96" xlink:href="#c"/><path d="m38.14 36.24 10-6.31 10 6.31a1.38 1.38 0 0 1-.74 2.54H38.87a1.38 1.38 0 0 1-.73-2.54zm10-2.52A1.26 1.26 0 1 0 49.33 35a1.24 1.24 0 0 0-1.23-1.29z" fill="#112e51"/><path fill="none" stroke="#112e51" stroke-linecap="round" stroke-linejoin="round" d="M37.49 55.85h20.95"/><path fill="#112e51" d="M54.73 40.26h2.8v12.97h-2.8zm-5.51 0h2.8v12.97h-2.8zm-5.52 0h2.8v12.97h-2.8zm-5.52 0h2.8v12.97h-2.8z"/></svg>