<svg xmlns="http://www.w3.org/2000/svg" xmlns:xlink="http://www.w3.org/1999/xlink" viewBox="0 0 96 96"><defs><linearGradient id="linear-gradient" x1="86.97" y1="87.36" x2="8.67" y2="8.28" gradientUnits="userSpaceOnUse"><stop offset="0" stop-color="#00bfe7"/><stop offset="0.71" stop-color="#99d7f4"/></linearGradient><symbol id="Background" data-name="Background" viewBox="0 0 96 96"><rect width="96" height="96" rx="8" ry="8" fill="url(#linear-gradient)"/><circle cx="87" cy="87" r="3" fill="#112e51"/><circle cx="9" cy="87" r="3" fill="#112e51"/><circle cx="87" cy="9" r="3" fill="#112e51"/><circle cx="9" cy="9" r="3" fill="#112e51"/></symbol><symbol id="Doc_2" data-name="Doc 2" viewBox="0 0 96 96"><use width="96" height="96" xlink:href="#Background"/><path d="M26.62,75.35a2,2,0,0,0,2,2H67.38a2,2,0,0,0,2-2v-55a2,2,0,0,0-2-2.05H36.81a1.48,1.48,0,0,0-1.15.6l-8.44,8.33a1.65,1.65,0,0,0-.6,1.26Z" fill="#fff" stroke="#112e51" stroke-linecap="round" stroke-linejoin="round" stroke-width="3"/><polyline points="36.81 18.33 36.81 28.52 26.62 28.52" fill="none" stroke="#112e51" stroke-linecap="round" stroke-linejoin="round" stroke-width="2"/><polygon points="28.11 29.52 28.11 39.23 36.95 29.51 28.11 29.52" fill="#ccebf9" style="mix-blend-mode:multiply"/><rect x="36.95" y="59.17" width="19" height="2" rx="0.5" ry="0.5" fill="#112e51"/><rect x="36.95" y="62.98" width="22" height="2" rx="0.5" ry="0.5" fill="#112e51"/><rect x="36.95" y="66.79" width="11" height="2" rx="0.5" ry="0.5" fill="#112e51"/></symbol></defs><title>financial</title><g id="Layer_2" data-name="Layer 2"><g id="Layer_1-2" data-name="Layer 1"><use width="96" height="96" xlink:href="#Doc_2"/><path d="M38.14,36.24l10-6.31,10,6.31a1.38,1.38,0,0,1-.74,2.54H38.87A1.38,1.38,0,0,1,38.14,36.24Zm10-2.52A1.26,1.26,0,1,0,49.33,35,1.24,1.24,0,0,0,48.1,33.71Z" fill="#112e51"/><line x1="37.49" y1="55.85" x2="58.44" y2="55.85" fill="none" stroke="#112e51" stroke-linecap="round" stroke-linejoin="round"/><rect x="54.73" y="40.26" width="2.8" height="12.97" fill="#112e51"/><rect x="49.22" y="40.26" width="2.8" height="12.97" fill="#112e51"/><rect x="43.7" y="40.26" width="2.8" height="12.97" fill="#112e51"/><rect x="38.18" y="40.26" width="2.8" height="12.97" fill="#112e51"/></g></g></svg>