<svg xmlns="http://www.w3.org/2000/svg" width="40" height="40" viewBox="0 0 40 40"><defs><linearGradient id="a" x1="90.594%" x2="32.684%" y1="91%" y2="32.514%"><stop offset="0%" stop-color="#00BFE7"/><stop offset="100%" stop-color="#99D7F4"/></linearGradient><linearGradient id="b" x1="55.386%" x2="100%" y1="54.91%" y2="113.714%"><stop offset="0%" stop-color="#4398BF"/><stop offset="100%" stop-color="#D8D8D8" stop-opacity="0"/></linearGradient></defs><g fill="none" fill-rule="evenodd"><g fill-rule="nonzero"><rect width="40" height="40" fill="url(#a)" rx="3.333"/><path fill="url(#b)" d="M40 14.489v22.178A3.333 3.333 0 0 1 36.667 40h-22.28L6.55 32.338 34.758 7.63 40 14.49z"/><circle cx="36.25" cy="36.25" r="1.25" fill="#112E51"/><circle cx="3.75" cy="36.25" r="1.25" fill="#112E51"/><circle cx="36.25" cy="3.75" r="1.25" fill="#112E51"/><circle cx="3.75" cy="3.75" r="1.25" fill="#112E51"/></g><rect width="28.333" height="24.583" x="6.25" y="7.5" fill="#FFF" stroke="#112E51" stroke-linecap="round" stroke-linejoin="round" stroke-width="1.667" rx="1.667"/><g fill="#112E51" fill-rule="nonzero" transform="translate(19.167 14.167)"><rect width="7.917" height="1" x=".396" y=".071" rx=".208"/><rect width="9.167" height="1" x=".396" y="1.658" rx=".208"/><rect width="4.583" height="1" x=".396" y="3.246" rx=".208"/></g><g fill="#112E51" fill-rule="nonzero" transform="translate(19.167 20)"><rect width="9.583" height="1" x=".396" y=".071" rx=".208"/><rect width="11.271" height="1" x=".396" y="1.658" rx=".208"/><rect width="4.583" height="1" x=".396" y="3.246" rx=".208"/></g><path fill="#112E51" fill-rule="nonzero" d="M8.542 10h23.75c.115 0 .208.093.208.208v1.25a.208.208 0 0 1-.208.209H8.542a.208.208 0 0 1-.209-.209v-1.25c0-.115.094-.208.209-.208zm0 16.667h23.75c.115 0 .208.093.208.208v.417a.208.208 0 0 1-.208.208H8.542a.208.208 0 0 1-.209-.208v-.417c0-.115.094-.208.209-.208z"/><circle cx="28.333" cy="27.083" r="2.917" fill="#00BFE7" fill-rule="nonzero"/><path fill="#112E51" fill-rule="nonzero" d="M16.913 21.88c-1.483-.63-3.125-1.413-3.267-1.9v-.513a3.33 3.33 0 0 0 .692-1.396.883.883 0 0 0 .146-1.2v-1.13c0-1.183-.6-1.991-1.967-1.991s-1.962.792-1.962 1.992v1.145a.883.883 0 0 0 .145 1.2c.118.514.355.992.692 1.396v.513c-.137.487-1.783 1.25-3.267 1.9a.367.367 0 0 0-.208.341v1.28c-.01.19.136.351.325.362h8.554a.346.346 0 0 0 .325-.362V22.22a.367.367 0 0 0-.208-.342z"/></g></svg>