<svg xmlns="http://www.w3.org/2000/svg" xmlns:xlink="http://www.w3.org/1999/xlink" viewBox="0 0 96 96"><defs><linearGradient id="linear-gradient" x1="86.97" y1="87.36" x2="8.67" y2="8.28" gradientUnits="userSpaceOnUse"><stop offset="0" stop-color="#00bfe7"/><stop offset="0.71" stop-color="#99d7f4"/></linearGradient><symbol id="Background" data-name="Background" viewBox="0 0 96 96"><rect width="96" height="96" rx="8" ry="8" fill="url(#linear-gradient)"/><circle cx="87" cy="87" r="3" fill="#112e51"/><circle cx="9" cy="87" r="3" fill="#112e51"/><circle cx="87" cy="9" r="3" fill="#112e51"/><circle cx="9" cy="9" r="3" fill="#112e51"/></symbol><symbol id="Doc_2" data-name="Doc 2" viewBox="0 0 96 96"><use width="96" height="96" xlink:href="#Background"/><path d="M26.62,75.35a2,2,0,0,0,2,2H67.38a2,2,0,0,0,2-2v-55a2,2,0,0,0-2-2.05H36.81a1.48,1.48,0,0,0-1.15.6l-8.44,8.33a1.65,1.65,0,0,0-.6,1.26Z" fill="#fff" stroke="#112e51" stroke-linecap="round" stroke-linejoin="round" stroke-width="3"/><polyline points="36.81 18.33 36.81 28.52 26.62 28.52" fill="none" stroke="#112e51" stroke-linecap="round" stroke-linejoin="round" stroke-width="2"/><polygon points="28.11 29.52 28.11 39.23 36.95 29.51 28.11 29.52" fill="#ccebf9" style="mix-blend-mode:multiply"/><rect x="36.95" y="59.17" width="19" height="2" rx="0.5" ry="0.5" fill="#112e51"/><rect x="36.95" y="62.98" width="22" height="2" rx="0.5" ry="0.5" fill="#112e51"/><rect x="36.95" y="66.79" width="11" height="2" rx="0.5" ry="0.5" fill="#112e51"/></symbol></defs><title>personal-details</title><g id="Layer_2" data-name="Layer 2"><g id="Layer_1-2" data-name="Layer 1"><use width="96" height="96" xlink:href="#Doc_2"/><path d="M58.59,49.73c-3.56-1.51-7.5-3.39-7.84-4.56V43.94a8,8,0,0,0,1.66-3.35,2.12,2.12,0,0,0,.35-2.88V35c0-2.84-1.44-4.78-4.72-4.78S43.33,32.12,43.33,35v2.75a2.12,2.12,0,0,0,.35,2.88,8,8,0,0,0,1.66,3.35v1.23c-.33,1.17-4.28,3-7.84,4.56a.88.88,0,0,0-.5.82v3.07a.83.83,0,0,0,.78.87H58.31a.83.83,0,0,0,.78-.87V50.55A.88.88,0,0,0,58.59,49.73Z" fill="#112e51"/></g></g></svg>