<svg xmlns="http://www.w3.org/2000/svg" viewBox="0 0 96 96"><defs><linearGradient id="a" x1="26.51" y1="21.85" x2="93.29" y2="103.11" gradientUnits="userSpaceOnUse"><stop offset="0" stop-color="#e21c3d"/><stop offset="1" stop-color="#a50025"/></linearGradient><linearGradient id="b" x1="33.85" y1="36.52" x2="72.6" y2="75.11" gradientUnits="userSpaceOnUse"><stop offset="0" stop-color="#820025"/><stop offset="1" stop-color="#a50025"/></linearGradient></defs><rect width="96" height="96" rx="8" ry="8" fill="url(#a)"/><path d="M17.54 62l34.24 34H88a8 8 0 008-8V57.11L80.43 41.17 52.91 48 36.25 61.71z" fill="url(#b)"/><circle cx="87" cy="87" r="3" fill="#820025"/><circle cx="9" cy="87" r="3" fill="#820025"/><circle cx="87" cy="9" r="3" fill="#820025"/><circle cx="9" cy="9" r="3" fill="#820025"/><path d="M32.37 27.47A20.53 20.53 0 1052.91 48a20.53 20.53 0 00-20.54-20.53zm0 29.08A8.54 8.54 0 1140.92 48a8.54 8.54 0 01-8.55 8.54z" fill="#fff"/><path d="M44.22 50.23l-.21-9h36.35l4.57 4.57a5.5 5.5 0 010 7.77l-4.78 4.78-7.67-7.67L65 58.22l-7.61-7.61-7.8 7.8H44z" fill="#fff"/></svg>