<?xml version="1.0" encoding="UTF-8" standalone="no"?>
<svg width="56px" height="52px" viewBox="0 0 56 52" version="1.1" xmlns="http://www.w3.org/2000/svg" xmlns:xlink="http://www.w3.org/1999/xlink">
    <!-- Generator: Sketch 39.1 (31720) - http://www.bohemiancoding.com/sketch -->
    <title>Play 5A@2x Copy</title>
    <desc>Created with Sketch.</desc>
    <defs></defs>
    <g id="Page-1" stroke="none" stroke-width="1" fill="none" fill-rule="evenodd">
        <g id="Playbook-Splash" transform="translate(-130.000000, -892.000000)">
            <g id="Play-5A@2x-Copy" transform="translate(130.000000, 892.000000)">
                <g id="Play-5A@2x">
                    <g id="Layer_1">
                        <path d="M43.2351402,3.32859813 L55.1783178,24.0119626 C55.8701442,25.2102412 55.8701442,26.6865813 55.1783178,27.8848598 L43.2351402,48.5734579 C42.5431817,49.7719652 41.2642907,50.5101706 39.8803738,50.5099065 L15.9940187,50.5099065 C14.6101018,50.5101706 13.3312108,49.7719652 12.6392523,48.5734579 L0.701308411,27.8900935 C0.00948196048,26.6918149 0.00948196048,25.2154748 0.701308411,24.0171963 L12.644486,3.32859813 C13.3364444,2.13009089 14.6153354,1.39188548 15.9992523,1.39214953 L39.8803738,1.39214953 C41.2642907,1.39188548 42.5431817,2.13009089 43.2351402,3.32859813 L43.2351402,3.32859813 Z" id="Shape" fill="#E31C3D"></path>
                        <path d="M49.117757,39.9065421 L29.4340187,51.2897196 C28.5077817,51.8244828 27.3666108,51.8244828 26.4403738,51.2897196 L6.75663551,39.9065421 C5.82285364,39.3674698 5.25109936,38.3678994 5.25981308,37.2897196 L5.25981308,14.5861682 C5.25109936,13.5079885 5.82285364,12.5084181 6.75663551,11.9693458 L26.4403738,0.633271028 C27.3666108,0.0985078796 28.5077817,0.0985078796 29.4340187,0.633271028 L49.117757,11.995514 C50.0515389,12.5345863 50.6232932,13.5341567 50.6145794,14.6123364 L50.6145794,37.3158879 C50.6138944,38.3847287 50.0434007,39.3721217 49.117757,39.9065421 L49.117757,39.9065421 Z" id="Shape" fill="#02BFE7"></path>
                        <path d="M17.051215,40.9218692 L9.53046729,27.8953271 C8.83677104,26.6938099 8.83677104,25.2134798 9.53046729,24.0119626 L17.051215,10.9906542 C17.7416951,9.78606353 19.0227658,9.04176544 20.411215,9.03850467 L35.4631776,9.03850467 C36.8516267,9.04176544 38.1326974,9.78606353 38.8231776,10.9906542 L46.3439252,24.0171963 C47.0376215,25.2187134 47.0376215,26.6990436 46.3439252,27.9005607 L38.8231776,40.9218692 C38.1290989,42.1240491 36.8461014,42.8643167 35.4579439,42.8635514 L20.411215,42.8635514 C19.0249273,42.8624473 17.7443585,42.1224301 17.051215,40.9218692 L17.051215,40.9218692 Z" id="Shape" fill="#0071BC"></path>
                        <ellipse id="Oval" fill="#112E51" transform="translate(10.036979, 36.161452) rotate(-30.000000) translate(-10.036979, -36.161452) " cx="10.036979" cy="36.1614522" rx="1.84224299" ry="1.84224299"></ellipse>
                        <ellipse id="Oval" fill="#112E51" transform="translate(45.406473, 15.743093) rotate(-30.000000) translate(-45.406473, -15.743093) " cx="45.4064726" cy="15.7430928" rx="1.84224299" ry="1.84224299"></ellipse>
                        <ellipse id="Oval" fill="#112E51" transform="translate(10.038420, 15.741339) rotate(-60.000000) translate(-10.038420, -15.741339) " cx="10.0384199" cy="15.7413388" rx="1.84224299" ry="1.84224299"></ellipse>
                        <circle id="Oval" fill="#112E51" transform="translate(45.404069, 36.157266) rotate(-60.000000) translate(-45.404069, -36.157266) " cx="45.404069" cy="36.1572657" r="1.84224299"></circle>
                        <ellipse id="Oval" fill="#112E51" cx="27.7226168" cy="5.53196262" rx="1.84224299" ry="1.84224299"></ellipse>
                        <circle id="Oval" fill="#112E51" cx="27.7226168" cy="46.3700935" r="1.84224299"></circle>
                    </g>
                    <g id="Layer_6" transform="translate(15.700935, 13.607477)">
                        <ellipse id="Oval" fill="#FFFFFF" cx="12.2362617" cy="12.0373832" rx="11.9798131" ry="11.9798131"></ellipse>
                        <path d="M17.6583178,15.915514 L12.6235514,18.8411215 C12.3871343,18.977617 12.0958564,18.977617 11.8594393,18.8411215 L6.80373832,15.915514 C6.56641152,15.778496 6.42063175,15.5248791 6.42168224,15.2508411 L6.42168224,9.42056075 C6.42619009,9.15214236 6.57122654,8.90577906 6.80373832,8.77158879 L11.8385047,5.86168224 C12.0749218,5.72518675 12.3661997,5.72518675 12.6026168,5.86168224 L17.6373832,8.77158879 C17.8779678,8.90042477 18.0315755,9.14779297 18.0403738,9.42056075 L18.0403738,15.2508411 C18.0414243,15.5248791 17.8956446,15.778496 17.6583178,15.915514 L17.6583178,15.915514 Z" id="Shape" fill="#112E51"></path>
                    </g>
                </g>
            </g>
        </g>
    </g>
</svg>