<?xml version="1.0" encoding="UTF-8" standalone="no"?>
<svg width="46px" height="54px" viewBox="0 0 46 54" version="1.1" xmlns="http://www.w3.org/2000/svg" xmlns:xlink="http://www.w3.org/1999/xlink">
    <!-- Generator: Sketch 39.1 (31720) - http://www.bohemiancoding.com/sketch -->
    <title>Play 4A copy 2</title>
    <desc>Created with Sketch.</desc>
    <defs></defs>
    <g id="Page-1" stroke="none" stroke-width="1" fill="none" fill-rule="evenodd">
        <g id="Playbook-Splash" transform="translate(-615.000000, -759.000000)">
            <g id="Play-4A-copy-2" transform="translate(615.000000, 759.000000)">
                <g id="Play-4A-copy">
                    <g id="Layer_1">
                        <ellipse id="Oval" stroke="#02BFE7" stroke-width="4" transform="translate(22.936129, 26.462275) rotate(-0.060000) translate(-22.936129, -26.462275) " cx="22.9361292" cy="26.4622752" rx="18.8974419" ry="19.0782"></ellipse>
                        <path d="M19.7318605,34.6356 L3.24139535,5.805 C2.57711932,4.64790559 2.57600571,3.22063217 3.23847529,2.06248268 C3.90094488,0.904333194 5.12598119,0.191907699 6.45069767,0.1944 L39.4262791,0.1944 C40.7509956,0.191907699 41.9760319,0.904333194 42.6385015,2.06248268 C43.300971,3.22063217 43.2998574,4.64790559 42.6355814,5.805 L26.1451163,34.6356 C25.4842207,35.7928797 24.2616742,36.5059695 22.9384884,36.5059695 C21.6153025,36.5059695 20.392756,35.7928797 19.7318605,34.6356 L19.7318605,34.6356 Z" id="Shape" fill="#E31C3D"></path>
                        <path d="M26.1451163,19.4076 L42.6302326,48.2382 C43.2945086,49.3952944 43.2956222,50.8225678 42.6331526,51.9807173 C41.970683,53.1388668 40.7456467,53.8512923 39.4209302,53.8488 L6.45069767,53.8488 C5.12598119,53.8512923 3.90094488,53.1388668 3.23847529,51.9807173 C2.57600571,50.8225678 2.57711932,49.3952944 3.24139535,48.2382 L19.7318605,19.4076 C20.392756,18.2503203 21.6153025,17.5372305 22.9384884,17.5372305 C24.2616742,17.5372305 25.4842207,18.2503203 26.1451163,19.4076 L26.1451163,19.4076 Z" id="Shape" fill="#0071BC"></path>
                        <polygon id="Shape" fill="#112E51" points="25.1395349 10.5786 20.7374419 10.5786 19.8548837 19.5966 26.0167442 19.5966"></polygon>
                        <ellipse id="Oval" fill="#112E51" cx="22.935814" cy="7.9434" rx="3.70674419" ry="3.7422"></ellipse>
                        <polygon id="Shape" fill="#112E51" points="20.7374419 43.4646 25.1395349 43.4646 26.0167442 34.4466 19.8548837 34.4466"></polygon>
                        <ellipse id="Oval" fill="#112E51" cx="22.935814" cy="46.0998" rx="3.70674419" ry="3.7422"></ellipse>
                        <polygon id="Shape" fill="#112E51" points="6.64860465 24.7968 6.64860465 29.2464 15.5811628 30.132 15.5811628 23.9112"></polygon>
                        <ellipse id="Oval" fill="#112E51" cx="4.03837209" cy="27.0216" rx="3.70674419" ry="3.7422"></ellipse>
                        <polygon id="Shape" fill="#112E51" points="39.2230233 29.2464 39.2230233 24.7968 30.295814 23.9112 30.295814 30.132"></polygon>
                        <ellipse id="Oval" fill="#112E51" cx="41.8332558" cy="27.0216" rx="3.70674419" ry="3.7422"></ellipse>
                    </g>
                    <g id="Layer_6" transform="translate(10.162791, 14.040000)">
                        <ellipse id="Oval" fill="#02BFE7" transform="translate(12.773338, 12.422275) rotate(-0.060000) translate(-12.773338, -12.422275) " cx="12.7733385" cy="12.4222752" rx="12.2434884" ry="12.3606"></ellipse>
                        <polygon id="Shape" fill="#FFFFFF" points="14.5702326 11.8854 10.975814 11.8854 9.82581395 19.0674 15.7255814 19.0674"></polygon>
                        <ellipse id="Oval" fill="#FFFFFF" cx="12.7730233" cy="9.7362" rx="3.02744186" ry="3.0564"></ellipse>
                    </g>
                </g>
            </g>
        </g>
    </g>
</svg>