<?xml version="1.0" encoding="UTF-8" standalone="no"?>
<svg width="54px" height="51px" viewBox="0 0 54 51" version="1.1" xmlns="http://www.w3.org/2000/svg" xmlns:xlink="http://www.w3.org/1999/xlink">
    <!-- Generator: Sketch 39.1 (31720) - http://www.bohemiancoding.com/sketch -->
    <title>Play 2A@2x Copy</title>
    <desc>Created with Sketch.</desc>
    <defs></defs>
    <g id="Page-1" stroke="none" stroke-width="1" fill="none" fill-rule="evenodd">
        <g id="Playbook-Splash" transform="translate(-610.000000, -627.000000)">
            <g id="Play-2A@2x-Copy" transform="translate(610.000000, 627.000000)">
                <g id="Play-2A@2x">
                    <g id="Layer_2">
                        <path d="M26.9914961,21.964 C31.4741292,18.2763081 37.5838262,17.2574168 43.0214173,19.29075 C44.0760622,12.9352449 41.272283,6.55754199 35.8753281,3.03567721 C30.4783731,-0.486187568 23.508871,-0.486187568 18.111916,3.03567721 C12.7149611,6.55754199 9.91118192,12.9352449 10.9658268,19.29075 C16.4021882,17.2590656 22.5098081,18.2778808 26.9914961,21.964 L26.9914961,21.964 Z" id="Shape" fill="#E31C3D"></path>
                        <path d="M21.2896063,31.8325 C15.8542265,29.7940001 11.9180684,25.0141627 10.9615748,19.29075 C4.91820512,21.5502224 0.784599743,27.1693367 0.428717504,33.6088389 C0.0728352657,40.0483411 3.56209367,46.0883467 9.31971158,48.9994027 C15.0773295,51.9104587 22.012597,51.1411014 26.9914961,47.039 C26.591811,46.7103333 26.2048819,46.359 25.8307087,45.985 C22.1162036,42.2791949 20.4243424,37.0064519 21.2896063,31.8325 L21.2896063,31.8325 Z" id="Shape" fill="#0071BC"></path>
                        <path d="M21.2896063,31.8325 C21.8412567,28.4911026 23.4298385,25.4075881 25.8307087,23.018 C26.2048819,22.644 26.591811,22.2926667 26.9914961,21.964 C22.5088629,18.2763081 16.3991659,17.2574168 10.9615748,19.29075 C11.9180684,25.0141627 15.8542265,29.7940001 21.2896063,31.8325 L21.2896063,31.8325 Z" id="Shape" fill="#112E51"></path>
                        <path d="M48.8083465,23.018 C47.1690591,21.3752126 45.1954552,20.1040522 43.0214173,19.29075 C42.0640992,25.0137876 38.1282388,29.7932634 32.6933858,31.8325 C33.5586497,37.0064519 31.8667886,42.2791949 28.1522835,45.985 C27.7781102,46.359 27.3911811,46.7103333 26.9914961,47.039 C33.6820992,52.5618574 43.5337523,51.8547396 49.3662202,45.4330192 C55.1986882,39.0112988 54.9530549,29.1419037 48.8083465,23.018 L48.8083465,23.018 Z" id="Shape" fill="#02BFE7"></path>
                        <path d="M26.9914961,21.964 C27.3911811,22.2926667 27.7781102,22.644 28.1522835,23.018 C30.5531536,25.4075881 32.1417355,28.4911026 32.6933858,31.8325 C38.1294047,29.7925175 42.0654951,25.0111426 43.0214173,19.2865 C37.5830815,17.2543332 31.4733082,18.2748571 26.9914961,21.964 L26.9914961,21.964 Z" id="Shape" fill="#112E51"></path>
                        <path d="M32.6933858,31.8325 C29.0159518,33.2040076 24.9670404,33.2040076 21.2896063,31.8325 C20.4243424,37.0064519 22.1162036,42.2791949 25.8307087,45.985 C26.2048819,46.359 26.591811,46.7103333 26.9914961,47.039 C27.3911811,46.7103333 27.7781102,46.359 28.1522835,45.985 C31.8667886,42.2791949 33.5586497,37.0064519 32.6933858,31.8325 L32.6933858,31.8325 Z" id="Shape" fill="#112E51"></path>
                        <path d="M26.9914961,21.964 C26.591811,22.2926667 26.2048819,22.644 25.8307087,23.018 C23.4298385,25.4075881 21.8412567,28.4911026 21.2896063,31.8325 C24.9670404,33.2040076 29.0159518,33.2040076 32.6933858,31.8325 C32.1417355,28.4911026 30.5531536,25.4075881 28.1522835,23.018 C27.7781102,22.644 27.3911811,22.2926667 26.9914961,21.964 L26.9914961,21.964 Z" id="Shape" fill="#0E2642"></path>
                    </g>
                    <g id="Layer_6" transform="translate(20.409449, 21.675000)" fill="#FFFFFF">
                        <ellipse id="Oval" cx="6.2376378" cy="6.375" rx="5.96976378" ry="5.967"></ellipse>
                    </g>
                </g>
            </g>
        </g>
    </g>
</svg>