<?xml version="1.0" encoding="UTF-8" standalone="no"?>
<svg width="62px" height="8px" viewBox="0 0 62 8" version="1.1" xmlns="http://www.w3.org/2000/svg" xmlns:xlink="http://www.w3.org/1999/xlink">
    <!-- Generator: Sketch 39.1 (31720) - http://www.bohemiancoding.com/sketch -->
    <title>Group 3 Copy</title>
    <desc>Created with Sketch.</desc>
    <defs></defs>
    <g id="Page-1" stroke="none" stroke-width="1" fill="none" fill-rule="evenodd">
        <g id="Playbook-Landing-Page-2b" transform="translate(-101.000000, -4053.000000)" fill="#E21C3D">
            <g id="Group-3-Copy" transform="translate(101.000000, 4053.000000)">
                <path d="M1.13065113e-13,4 C1.13065113e-13,1.790861 1.79412025,1.13686838e-13 3.99683887,1.13686838e-13 L24.0031611,1.13686838e-13 C26.2105543,1.13686838e-13 28,1.79535615 28,4 L28,4 C28,6.209139 26.2058797,8 24.0031611,8 L3.99683887,8 C1.78944571,8 1.13065113e-13,6.20464385 1.13065113e-13,4 L1.13065113e-13,4 Z" id="Rectangle-234-Copy-8" transform="translate(14.000000, 4.000000) rotate(-180.000000) translate(-14.000000, -4.000000) "></path>
                <path d="M34,4 C34,1.790861 35.7941203,1.14575016e-13 37.9968389,1.14575016e-13 L58.0031611,1.14575016e-13 C60.2105543,1.14575016e-13 62,1.79535615 62,4 L62,4 C62,6.209139 60.2058797,8 58.0031611,8 L37.9968389,8 C35.7894457,8 34,6.20464385 34,4 L34,4 Z" id="Rectangle-234-Copy-9" transform="translate(48.000000, 4.000000) rotate(-180.000000) translate(-48.000000, -4.000000) "></path>
            </g>
        </g>
    </g>
</svg>