<?xml version="1.0" encoding="UTF-8" standalone="no"?>
<svg width="14px" height="23px" viewBox="0 0 14 23" version="1.1" xmlns="http://www.w3.org/2000/svg" xmlns:xlink="http://www.w3.org/1999/xlink">
    <!-- Generator: Sketch 39.1 (31720) - http://www.bohemiancoding.com/sketch -->
    <title></title>
    <desc>Created with Sketch.</desc>
    <defs></defs>
    <g id="Page-1" stroke="none" stroke-width="1" fill="none" fill-rule="evenodd">
        <g id="Playbook-Splash" transform="translate(-513.000000, -642.000000)" fill="#0071BB">
            <path d="M526.28125,653.142857 C526.28125,653.33631 526.206846,653.50744 526.058036,653.65625 L515.65625,664.058036 C515.50744,664.206846 515.33631,664.28125 515.142857,664.28125 C514.949404,664.28125 514.778275,664.206846 514.629464,664.058036 L513.513393,662.941964 C513.364583,662.793154 513.290179,662.622025 513.290179,662.428571 C513.290179,662.235118 513.364583,662.063989 513.513393,661.915179 L522.285714,653.142857 L513.513393,644.370536 C513.364583,644.221725 513.290179,644.050596 513.290179,643.857143 C513.290179,643.66369 513.364583,643.49256 513.513393,643.34375 L514.629464,642.227679 C514.778275,642.078868 514.949404,642.004464 515.142857,642.004464 C515.33631,642.004464 515.50744,642.078868 515.65625,642.227679 L526.058036,652.629464 C526.206846,652.778275 526.28125,652.949404 526.28125,653.142857 L526.28125,653.142857 Z" id=""></path>
        </g>
    </g>
</svg>