<svg xmlns="http://www.w3.org/2000/svg" width="16" height="16" fill="none" viewBox="0 0 16 16"><defs><clipPath id="a"><path fill="#fff" d="M92 994h16v16H92z"/></clipPath></defs><g clip-path="url(#a)" transform="translate(-92 -994)"><g fill="currentColor"><path d="M100 994.8a7.2 7.2 0 1 0 .001 14.401A7.2 7.2 0 0 0 100 994.8m0 12.8a5.55 5.55 0 0 1-3.008-.89c.104-.13.208-.25.32-.37a3.72 3.72 0 0 1 2.728-1.15c1.056 0 1.952.39 2.656 1.11q.18.18.336.39c-.872.57-1.912.9-3.032.9zm4.232-1.95c-1-1.27-2.472-2.05-4.192-2.05s-3.24.78-4.256 2.07A5.56 5.56 0 0 1 94.4 1002c0-3.088 2.512-5.6 5.6-5.6s5.6 2.512 5.6 5.6c0 1.39-.52 2.66-1.368 3.65"/><path d="M100 997.2c-1.752 0-2.8 1.256-2.8 2.8 0 1.54 1.048 2.8 2.8 2.8s2.8-1.26 2.8-2.8c0-1.544-1.048-2.8-2.8-2.8m0 4c-1.08 0-1.2-.84-1.2-1.2s.12-1.2 1.2-1.2 1.2.84 1.2 1.2-.12 1.2-1.2 1.2"/></g></g></svg>