<svg xmlns="http://www.w3.org/2000/svg" width="20" height="20" fill="none" viewBox="0 0 20 20"><g fill="currentColor"><path d="M10 1a9 9 0 1 0 .001 18.001A9 9 0 0 0 10 1m0 16a6.94 6.94 0 0 1-3.76-1.11c.13-.16.26-.32.4-.47.91-.93 2.09-1.43 3.41-1.43s2.44.48 3.32 1.38c.15.15.29.32.42.49A6.9 6.9 0 0 1 10 16.99zm5.29-2.44C14.04 12.97 12.2 12 10.05 12s-4.05.98-5.32 2.59A6.97 6.97 0 0 1 3 10c0-3.86 3.14-7 7-7s7 3.14 7 7c0 1.74-.65 3.33-1.71 4.56"/><path d="M10 4C7.81 4 6.5 5.57 6.5 7.5S7.81 11 10 11s3.5-1.57 3.5-3.5S12.19 4 10 4m0 5C8.65 9 8.5 7.95 8.5 7.5S8.65 6 10 6s1.5 1.05 1.5 1.5S11.35 9 10 9"/></g></svg>