<svg xmlns="http://www.w3.org/2000/svg" width="24" height="24" fill="none" viewBox="0 0 24 24"><g fill="currentColor"><path d="M12 1.2C6.036 1.2 1.2 6.036 1.2 12c0 5.96 4.836 10.8 10.8 10.8S22.8 17.96 22.8 12c0-5.964-4.836-10.8-10.8-10.8m0 19.2a8.33 8.33 0 0 1-4.512-1.33c.156-.19.312-.39.48-.57a5.63 5.63 0 0 1 4.092-1.71c1.584 0 2.928.57 3.984 1.65.18.18.348.39.504.59A8.33 8.33 0 0 1 12 20.39zm6.348-2.93c-1.5-1.91-3.708-3.07-6.288-3.07s-4.86 1.18-6.384 3.11A8.38 8.38 0 0 1 3.6 12c0-4.632 3.768-8.4 8.4-8.4s8.4 3.768 8.4 8.4c0 2.09-.78 4-2.052 5.47"/><path d="M12 4.8C9.372 4.8 7.8 6.684 7.8 9c0 2.32 1.572 4.2 4.2 4.2s4.2-1.88 4.2-4.2c0-2.316-1.572-4.2-4.2-4.2m0 6c-1.62 0-1.8-1.26-1.8-1.8s.18-1.8 1.8-1.8 1.8 1.26 1.8 1.8-.18 1.8-1.8 1.8"/></g></svg>