<svg xmlns="http://www.w3.org/2000/svg" width="16" height="16" fill="none" viewBox="0 0 16 16"><defs><clipPath id="a"><path fill="#fff" d="M412 58h16v16h-16z"/></clipPath></defs><g clip-path="url(#a)" transform="translate(-412 -58)"><path fill="currentColor" d="m420.006 62.46.552 1.784.352 1.128h3.208l-1.696 1.328-.856.672.304 1.04.576 1.952-1.448-1.128-.984-.768-.984.768-1.448 1.128.576-1.952.304-1.04-.856-.672-1.696-1.328h3.208l.352-1.128.552-1.784m-.016-4.456a.4.4 0 0 0-.384.28l-1.696 5.488h-5.52a.398.398 0 0 0-.248.712l4.448 3.472-1.624 5.528c-.08.28.144.512.384.512.08 0 .168-.024.248-.088l4.384-3.424 4.384 3.424a.398.398 0 0 0 .632-.424l-1.624-5.528 4.448-3.472c.304-.232.136-.712-.248-.712h-5.52l-1.68-5.488a.4.4 0 0 0-.384-.28"/></g></svg>