<svg xmlns="http://www.w3.org/2000/svg" width="20" height="20" fill="none" viewBox="0 0 20 20"><defs><clipPath id="a"><path fill="#fff" d="M496 56h20v20h-20z"/></clipPath></defs><g clip-path="url(#a)" transform="translate(-496 -56)"><path fill="currentColor" d="m506.008 61.575.69 2.23.44 1.41h4.01l-2.12 1.66-1.07.84.38 1.3.72 2.44-1.81-1.41-1.23-.96-1.23.96-1.81 1.41.72-2.44.38-1.3-1.07-.84-2.12-1.66h4.01l.44-1.41.69-2.23m-.02-5.57c-.2 0-.41.12-.48.35l-2.12 6.86h-6.9c-.48 0-.68.6-.31.89l5.56 4.34-2.03 6.91c-.1.35.18.64.48.64.1 0 .21-.03.31-.11l5.48-4.28 5.48 4.28a.497.497 0 0 0 .79-.53l-2.03-6.91 5.56-4.34c.38-.29.17-.89-.31-.89h-6.9l-2.1-6.86a.5.5 0 0 0-.48-.35"/></g></svg>