<svg xmlns="http://www.w3.org/2000/svg" width="24" height="24" fill="none" viewBox="0 0 24 24"><defs><clipPath id="a"><path fill="#fff" d="M588 54h24v24h-24z"/></clipPath></defs><g clip-path="url(#a)" transform="translate(-588 -54)"><path fill="currentColor" d="m600.009 60.69.828 2.676.528 1.692h4.812l-2.544 1.992-1.284 1.008.456 1.56.864 2.928-2.172-1.692-1.476-1.152-1.476 1.152-2.172 1.692.864-2.928.456-1.56-1.284-1.008-2.544-1.992h4.812l.528-1.692.828-2.676m-.024-6.684a.6.6 0 0 0-.576.42l-2.544 8.232h-8.28a.598.598 0 0 0-.372 1.068l6.672 5.208-2.436 8.292c-.12.42.216.768.576.768.12 0 .252-.036.372-.132l6.576-5.136 6.576 5.136c.12.096.24.132.372.132a.597.597 0 0 0 .576-.768l-2.436-8.292 6.672-5.208c.456-.348.204-1.068-.372-1.068h-8.28l-2.52-8.232a.6.6 0 0 0-.576-.42"/></g></svg>