<svg xmlns="http://www.w3.org/2000/svg" width="16" height="16" fill="none" viewBox="0 0 16 16"><path fill="currentColor" d="M6.4 1.6H3.2c-.88 0-1.6.72-1.6 1.6v3.2h1.6V3.2h3.2zm8 4.8V3.2c0-.88-.72-1.6-1.6-1.6H9.6v1.6h3.2v3.2zm-4.8 8h3.2c.88 0 1.6-.72 1.6-1.6V9.6h-1.6v3.2H9.6zm-8-4.8v3.2c0 .88.72 1.6 1.6 1.6h3.2v-1.6H3.2V9.6zM8 11.64c-1.14 0-2.22-.51-3.01-1.44l1.22-1.04c.97 1.14 2.61 1.14 3.58 0l1.22 1.04c-.79.93-1.87 1.44-3.01 1.44M6.4 6c0-.44-.36-.8-.8-.8s-.8.36-.8.8v.8c0 .44.36.8.8.8s.8-.36.8-.8zm4.8 0c0-.44-.36-.8-.8-.8s-.8.36-.8.8v.8c0 .44.36.8.8.8s.8-.36.8-.8z"/></svg>