<svg xmlns="http://www.w3.org/2000/svg" width="24" height="24" fill="none" viewBox="0 0 24 24"><path fill="currentColor" d="M9.6 2.4H4.8c-1.32 0-2.4 1.08-2.4 2.4v4.8h2.4V4.8h4.8zm12 7.2V4.8c0-1.32-1.08-2.4-2.4-2.4h-4.8v2.4h4.8v4.8zm-7.2 12h4.8c1.32 0 2.4-1.08 2.4-2.4v-4.8h-2.4v4.8h-4.8zm-12-7.2v4.8c0 1.32 1.08 2.4 2.4 2.4h4.8v-2.4H4.8v-4.8zm9.6 3.06c-1.72 0-3.32-.77-4.51-2.16l1.82-1.56c1.45 1.7 3.93 1.7 5.38 0l1.82 1.56c-1.19 1.39-2.79 2.16-4.51 2.16M9.6 9c0-.66-.54-1.2-1.2-1.2S7.2 8.34 7.2 9v1.2c0 .66.54 1.2 1.2 1.2s1.2-.54 1.2-1.2zm7.2 0c0-.66-.54-1.2-1.2-1.2s-1.2.54-1.2 1.2v1.2c0 .66.54 1.2 1.2 1.2s1.2-.54 1.2-1.2z"/></svg>