<svg width="100" height="100" viewBox="0 0 100 100" fill="none" xmlns="http://www.w3.org/2000/svg"><g filter="url(#filter0_d_119_1082)"><path d="M50 94C74.3005 94 94 74.3005 94 50C94 25.6995 74.3005 6 50 6C25.6995 6 6 25.6995 6 50C6 74.3005 25.6995 94 50 94Z" fill="white"/></g><path d="M49.9994 89.6009C71.8704 89.6009 89.6003 71.871 89.6003 50C89.6003 28.129 71.8704 10.399 49.9994 10.399C28.1284 10.399 10.3984 28.129 10.3984 50C10.3984 71.871 28.1284 89.6009 49.9994 89.6009Z" fill="#E21C3D"/><path d="M50.0002 85.6408C69.6841 85.6408 85.6411 69.6839 85.6411 50C85.6411 30.3161 69.6841 14.3591 50.0002 14.3591C30.3163 14.3591 14.3594 30.3161 14.3594 50C14.3594 69.6839 30.3163 85.6408 50.0002 85.6408Z" fill="white"/><path d="M50.0012 68.6906C39.6944 68.6906 31.3105 60.3067 31.3105 50C31.3105 39.6932 39.6944 31.3093 50.0012 31.3093C60.3079 31.3093 68.6918 39.6932 68.6918 50C68.6918 60.3067 60.3079 68.6906 50.0012 68.6906Z" fill="#E21C3D"/><path d="M50.001 31.3094V68.6907C60.3077 68.6907 68.6916 60.3068 68.6916 50C68.6916 39.6933 60.3077 31.3094 50.001 31.3094Z" fill="#B51E23"/><path d="M54.134 46.8994V57.237H45.8614V46.8994H54.134ZM52.5821 40.6949H47.4133L46.3808 41.7274H42.7607V43.7956H57.2347V41.7274H53.6147L52.5821 40.6949ZM56.2022 44.8312H43.7964V57.237C43.7964 58.3747 44.7269 59.3052 45.8645 59.3052H54.1371C55.2748 59.3052 56.2053 58.3747 56.2053 57.237V44.8312H56.2022Z" fill="white"/><defs><filter id="filter0_d_119_1082" x="0" y="0" width="100" height="100" filterUnits="userSpaceOnUse" color-interpolation-filters="sRGB"><feFlood flood-opacity="0" result="BackgroundImageFix"/><feColorMatrix in="SourceAlpha" type="matrix" values="0 0 0 0 0 0 0 0 0 0 0 0 0 0 0 0 0 0 127 0" result="hardAlpha"/><feOffset/><feGaussianBlur stdDeviation="3"/><feColorMatrix type="matrix" values="0 0 0 0 0 0 0 0 0 0 0 0 0 0 0 0 0 0 0.24 0"/><feBlend mode="normal" in2="BackgroundImageFix" result="effect1_dropShadow_119_1082"/><feBlend mode="normal" in="SourceGraphic" in2="effect1_dropShadow_119_1082" result="shape"/></filter></defs></svg>