<?xml version="1.0" encoding="UTF-8"?><svg xmlns="http://www.w3.org/2000/svg" xmlns:xlink="http://www.w3.org/1999/xlink" viewBox="0 0 304 304"><defs><style>.f,.g{fill:#fff;}.h{fill:#e21c3d;}.i{fill:#b51e23;}.g{filter:url(#d);}</style><filter id="d" filterUnits="userSpaceOnUse"><feOffset dx="0" dy="0"/><feGaussianBlur result="e" stdDeviation="3"/><feFlood flood-color="#000" flood-opacity=".24"/><feComposite in2="e" operator="in"/><feComposite in="SourceGraphic"/></filter></defs><g id="a"/><g id="b"><g id="c"><g><g><circle class="g" cx="152.03" cy="151.7" r="142.33"/><circle class="h" cx="152.03" cy="151.7" r="128.1"/><circle class="f" cx="152.03" cy="151.7" r="115.29"/></g><g><g><path class="h" d="M152.03,212.16c-33.34,0-60.46-27.12-60.46-60.46s27.12-60.46,60.46-60.46,60.46,27.12,60.46,60.46-27.12,60.46-60.46,60.46Z"/><path class="i" d="M152.03,91.24v120.92c33.34,0,60.46-27.12,60.46-60.46s-27.12-60.46-60.46-60.46Z"/></g><path class="f" d="M165.4,141.67v33.44h-26.76v-33.44h26.76m-5.02-20.07h-16.72l-3.34,3.34h-11.71v6.69h46.82v-6.69h-11.71l-3.34-3.34Zm11.71,13.38h-40.13v40.13c0,3.68,3.01,6.69,6.69,6.69h26.76c3.68,0,6.69-3.01,6.69-6.69v-40.13Z"/></g></g></g></g></svg>