<?xml version="1.0" encoding="UTF-8"?><svg xmlns="http://www.w3.org/2000/svg" xmlns:xlink="http://www.w3.org/1999/xlink" viewBox="0 0 304 304"><defs><style>.f,.g{fill:#fff;}.h{fill:#e21c3d;}.i{fill:#b51e23;}.g{filter:url(#d);}</style><filter id="d" filterUnits="userSpaceOnUse"><feOffset dx="0" dy="0"/><feGaussianBlur result="e" stdDeviation="3"/><feFlood flood-color="#000" flood-opacity=".24"/><feComposite in2="e" operator="in"/><feComposite in="SourceGraphic"/></filter></defs><g id="a"/><g id="b"><g id="c"><g><g><circle class="g" cx="151.91" cy="151.7" r="142.33"/><circle class="h" cx="151.91" cy="151.7" r="128.1"/><circle class="f" cx="151.91" cy="151.7" r="115.29"/></g><g><g><path class="h" d="M151.91,212.16c-33.34,0-60.46-27.12-60.46-60.46s27.12-60.46,60.46-60.46,60.46,27.12,60.46,60.46-27.12,60.46-60.46,60.46Z"/><path class="i" d="M151.91,91.24v120.92c33.34,0,60.46-27.12,60.46-60.46s-27.12-60.46-60.46-60.46Z"/></g><path class="f" d="M169.13,141.65h-2.87v-5.74c0-7.92-6.43-14.35-14.35-14.35s-14.35,6.43-14.35,14.35v5.74h-2.87c-3.16,0-5.74,2.58-5.74,5.74v28.71c0,3.16,2.58,5.74,5.74,5.74h34.45c3.16,0,5.74-2.58,5.74-5.74v-28.71c0-3.16-2.58-5.74-5.74-5.74Zm-25.84-5.74c0-4.77,3.85-8.61,8.61-8.61s8.61,3.85,8.61,8.61v5.74h-17.23v-5.74Zm25.84,40.19h-34.45v-28.71h34.45v28.71Zm-17.23-8.61c3.16,0,5.74-2.58,5.74-5.74s-2.58-5.74-5.74-5.74-5.74,2.58-5.74,5.74,2.58,5.74,5.74,5.74Z"/></g></g></g></g></svg>