<svg xmlns="http://www.w3.org/2000/svg" viewBox="0 0 96 96"><defs><linearGradient id="a" x1="20.07" y1="11.02" x2="72.88" y2="80.95" gradientUnits="userSpaceOnUse"><stop offset="0" stop-color="#ea4d67"/><stop offset="1" stop-color="#e21c3d"/></linearGradient><linearGradient id="b" x1="21.57" y1="27.32" x2="80.28" y2="86.76" gradientUnits="userSpaceOnUse"><stop offset="0" stop-color="#a50025"/><stop offset="1" stop-color="#e21c3d"/></linearGradient><linearGradient id="c" x1="38.56" y1="-5.51" x2="57.44" y2="101.51" gradientUnits="userSpaceOnUse"><stop offset="0" stop-color="#ea4d67"/><stop offset="1" stop-color="#a50025"/></linearGradient></defs><rect width="96" height="96" rx="8" ry="8" fill="url(#a)"/><circle cx="87" cy="87" r="3" fill="#820025"/><circle cx="9" cy="87" r="3" fill="#820025"/><circle cx="87" cy="9" r="3" fill="#820025"/><circle cx="9" cy="9" r="3" fill="#820025"/><path d="M36.91 33.09C32.49 33.09 36 44 36 48.46L27.67 73l23 23H88a8 8 0 008-8V63.16L59.55 26.7l-12-.74z" fill="url(#b)"/><path d="M69.33 70.52a3.54 3.54 0 01-3.54 3.53H30.21a3.54 3.54 0 01-3.54-3.53V49.19a3.54 3.54 0 013.54-3.54h1.21v-7.13a16.58 16.58 0 0133.16 0v7.13h1.16a3.53 3.53 0 013.53 3.54zM57.45 45.65v-7.13a9.5 9.5 0 00-19 0v7.13z" fill="#fff"/><path d="M88 2a6 6 0 016 6v80a6 6 0 01-6 6H8a6 6 0 01-6-6V8a6 6 0 016-6h80m0-2H8a8 8 0 00-8 8v80a8 8 0 008 8h80a8 8 0 008-8V8a8 8 0 00-8-8z" fill="url(#c)"/></svg>