<svg width="100" height="100" viewBox="0 0 100 100" fill="none" xmlns="http://www.w3.org/2000/svg"><g filter="url(#a)"><path d="M50 94c24.3 0 44-19.7 44-44S74.3 6 50 6 6 25.7 6 50s19.7 44 44 44Z" fill="#fff"/></g><path d="M50 89.6c21.87 0 39.6-17.729 39.6-39.6 0-21.871-17.73-39.601-39.6-39.601-21.872 0-39.602 17.73-39.602 39.601S28.128 89.6 50 89.6Z" fill="#E21C3D"/><path d="M50 85.64c19.684 0 35.641-15.956 35.641-35.64s-15.957-35.64-35.64-35.64c-19.685 0-35.642 15.956-35.642 35.64S30.316 85.64 50 85.64Z" fill="#fff"/><path d="M50 68.69c-10.307 0-18.691-8.383-18.691-18.69 0-10.307 8.384-18.69 18.69-18.69 10.307 0 18.69 8.383 18.69 18.69 0 10.307-8.383 18.69-18.69 18.69Z" fill="#E21C3D"/><path d="M49.999 31.31v37.38c10.307 0 18.69-8.383 18.69-18.69 0-10.307-8.383-18.69-18.69-18.69Z" fill="#B51E23"/><path d="M55.324 46.893h-.888V45.12A4.438 4.438 0 0 0 50 40.683a4.438 4.438 0 0 0-4.436 4.436v1.774h-.887a1.78 1.78 0 0 0-1.775 1.775v8.875a1.78 1.78 0 0 0 1.775 1.775h10.65c.977 0 1.774-.798 1.774-1.775v-8.875c0-.977-.797-1.775-1.774-1.775h-.003Zm-7.989-1.774a2.658 2.658 0 0 1 2.662-2.662 2.66 2.66 0 0 1 2.662 2.662v1.774h-5.327V45.12h.003Zm7.989 12.424h-10.65v-8.875h10.65v8.875Zm-5.327-2.662c.977 0 1.775-.797 1.775-1.774s-.798-1.774-1.775-1.774c-.977 0-1.774.797-1.774 1.774s.797 1.774 1.774 1.774Z" fill="#fff"/><defs><filter id="a" x="0" y="0" width="100" height="100" filterUnits="userSpaceOnUse" color-interpolation-filters="sRGB"><feFlood flood-opacity="0" result="BackgroundImageFix"/><feColorMatrix in="SourceAlpha" values="0 0 0 0 0 0 0 0 0 0 0 0 0 0 0 0 0 0 127 0" result="hardAlpha"/><feOffset/><feGaussianBlur stdDeviation="3"/><feColorMatrix values="0 0 0 0 0 0 0 0 0 0 0 0 0 0 0 0 0 0 0.24 0"/><feBlend in2="BackgroundImageFix" result="effect1_dropShadow_119_1044"/><feBlend in="SourceGraphic" in2="effect1_dropShadow_119_1044" result="shape"/></filter></defs></svg>