<svg width="100" height="100" viewBox="0 0 100 100" fill="none" xmlns="http://www.w3.org/2000/svg"><g filter="url(#filter0_d_119_1032)"><path d="M50 94C74.3005 94 94 74.3005 94 50C94 25.6995 74.3005 6 50 6C25.6995 6 6 25.6995 6 50C6 74.3005 25.6995 94 50 94Z" fill="white"/></g><path d="M49.9994 89.6009C71.8704 89.6009 89.6003 71.871 89.6003 50C89.6003 28.129 71.8704 10.399 49.9994 10.399C28.1284 10.399 10.3984 28.129 10.3984 50C10.3984 71.871 28.1284 89.6009 49.9994 89.6009Z" fill="#E21C3D"/><path d="M50.0002 85.6408C69.6841 85.6408 85.641 69.6838 85.641 50C85.641 30.3161 69.6841 14.3591 50.0002 14.3591C30.3163 14.3591 14.3594 30.3161 14.3594 50C14.3594 69.6838 30.3163 85.6408 50.0002 85.6408Z" fill="white"/><path d="M49.9992 68.6907C39.6925 68.6907 31.3086 60.3068 31.3086 50C31.3086 39.6933 39.6925 31.3094 49.9992 31.3094C60.306 31.3094 68.6899 39.6933 68.6899 50C68.6899 60.3068 60.306 68.6907 49.9992 68.6907Z" fill="#E21C3D"/><path d="M49.999 31.3094V68.6907C60.3058 68.6907 68.6897 60.3068 68.6897 50.0001C68.6897 39.6933 60.3058 31.3094 49.999 31.3094Z" fill="#B51E23"/><path d="M59.3166 42.5591L57.4402 40.6826L49.9991 48.1236L42.5581 40.6826L40.6816 42.5591L48.1227 50.0001L40.6816 57.4411L42.5581 59.3176L49.9991 51.8766L57.4402 59.3176L59.3166 57.4411L51.8756 50.0001L59.3166 42.5591Z" fill="white"/><defs><filter id="filter0_d_119_1032" x="0" y="0" width="100" height="100" filterUnits="userSpaceOnUse" color-interpolation-filters="sRGB"><feFlood flood-opacity="0" result="BackgroundImageFix"/><feColorMatrix in="SourceAlpha" type="matrix" values="0 0 0 0 0 0 0 0 0 0 0 0 0 0 0 0 0 0 127 0" result="hardAlpha"/><feOffset/><feGaussianBlur stdDeviation="3"/><feColorMatrix type="matrix" values="0 0 0 0 0 0 0 0 0 0 0 0 0 0 0 0 0 0 0.24 0"/><feBlend mode="normal" in2="BackgroundImageFix" result="effect1_dropShadow_119_1032"/><feBlend mode="normal" in="SourceGraphic" in2="effect1_dropShadow_119_1032" result="shape"/></filter></defs></svg>