<?xml version="1.0" encoding="UTF-8"?><svg xmlns="http://www.w3.org/2000/svg" xmlns:xlink="http://www.w3.org/1999/xlink" viewBox="0 0 304 304"><defs><style>.f,.g{fill:#fff;}.h{fill:#006175;}.i{fill:#008099;}.g{filter:url(#d);}</style><filter id="d" filterUnits="userSpaceOnUse"><feOffset dx="0" dy="0"/><feGaussianBlur result="e" stdDeviation="3"/><feFlood flood-color="#000" flood-opacity=".24"/><feComposite in2="e" operator="in"/><feComposite in="SourceGraphic"/></filter></defs><g id="a"/><g id="b"><g id="c"><g><g><circle class="g" cx="151.79" cy="151.7" r="142.33"/><circle class="i" cx="151.79" cy="151.7" r="128.1"/><circle class="f" cx="151.79" cy="151.7" r="115.29"/></g><g><g><path class="i" d="M151.79,212.16c-33.34,0-60.46-27.12-60.46-60.46s27.12-60.46,60.46-60.46,60.46,27.12,60.46,60.46-27.12,60.46-60.46,60.46Z"/><path class="h" d="M151.79,91.24v120.92c33.34,0,60.46-27.12,60.46-60.46s-27.12-60.46-60.46-60.46Z"/></g><path class="f" d="M148.84,152.81c2.44-4.41,7.14-7.01,9.87-10.92,2.89-4.09,1.27-11.74-6.92-11.74-5.36,0-8,4.06-9.11,7.43l-8.22-3.46c2.25-6.76,8.38-12.57,17.29-12.57,7.46,0,12.57,3.4,15.17,7.65,2.22,3.65,3.52,10.47,.1,15.55-3.81,5.62-7.46,7.33-9.42,10.95-.79,1.46-1.11,2.41-1.11,7.11h-9.17c-.03-2.48-.41-6.5,1.52-10Zm9.3,22.69c0,3.49-2.86,6.35-6.35,6.35s-6.35-2.86-6.35-6.35,2.86-6.35,6.35-6.35,6.35,2.86,6.35,6.35Z"/></g></g></g></g></svg>