<svg width="100" height="100" viewBox="0 0 100 100" fill="none" xmlns="http://www.w3.org/2000/svg"><g filter="url(#a)"><path d="M50 94c24.3 0 44-19.7 44-44S74.3 6 50 6 6 25.7 6 50s19.7 44 44 44Z" fill="#fff"/></g><path d="M50 89.6c21.87 0 39.6-17.729 39.6-39.6 0-21.871-17.73-39.601-39.6-39.601-21.872 0-39.602 17.73-39.602 39.601S28.128 89.6 50 89.6Z" fill="#008099"/><path d="M50 85.64c19.683 0 35.64-15.956 35.64-35.64S69.683 14.36 50 14.36c-19.685 0-35.642 15.956-35.642 35.64S30.315 85.64 50 85.64Z" fill="#fff"/><path d="M50 68.69c-10.307 0-18.691-8.383-18.691-18.69 0-10.307 8.384-18.69 18.69-18.69 10.307 0 18.69 8.383 18.69 18.69 0 10.307-8.383 18.69-18.69 18.69Z" fill="#008099"/><path d="M49.999 31.31v37.38c10.307 0 18.69-8.383 18.69-18.69 0-10.307-8.383-18.69-18.69-18.69Z" fill="#006175"/><path d="M49.087 50.343c.754-1.363 2.207-2.167 3.051-3.376.894-1.264.393-3.629-2.139-3.629-1.657 0-2.473 1.255-2.816 2.297l-2.541-1.07c.695-2.09 2.59-3.886 5.345-3.886 2.306 0 3.886 1.052 4.69 2.365.686 1.129 1.087 3.237.03 4.808-1.178 1.737-2.306 2.266-2.912 3.385-.244.451-.343.745-.343 2.198h-2.835c-.01-.767-.127-2.01.47-3.092Zm2.875 7.015A1.97 1.97 0 0 1 50 59.32a1.97 1.97 0 0 1-1.963-1.963A1.97 1.97 0 0 1 50 55.394a1.97 1.97 0 0 1 1.963 1.963Z" fill="#fff"/><defs><filter id="a" x="0" y="0" width="100" height="100" filterUnits="userSpaceOnUse" color-interpolation-filters="sRGB"><feFlood flood-opacity="0" result="BackgroundImageFix"/><feColorMatrix in="SourceAlpha" values="0 0 0 0 0 0 0 0 0 0 0 0 0 0 0 0 0 0 127 0" result="hardAlpha"/><feOffset/><feGaussianBlur stdDeviation="3"/><feColorMatrix values="0 0 0 0 0 0 0 0 0 0 0 0 0 0 0 0 0 0 0.24 0"/><feBlend in2="BackgroundImageFix" result="effect1_dropShadow_119_1070"/><feBlend in="SourceGraphic" in2="effect1_dropShadow_119_1070" result="shape"/></filter></defs></svg>