<svg width="100" height="100" viewBox="0 0 100 100" fill="none" xmlns="http://www.w3.org/2000/svg"><g filter="url(#a)"><path d="M50 94c24.3 0 44-19.7 44-44S74.3 6 50 6 6 25.7 6 50s19.7 44 44 44Z" fill="#fff"/></g><path d="M50 89.601c21.87 0 39.6-17.73 39.6-39.6 0-21.872-17.73-39.602-39.6-39.602C28.127 10.4 10.397 28.13 10.397 50S28.128 89.601 50 89.601Z" fill="#E21C3D"/><path d="M50 85.64c19.684 0 35.641-15.956 35.641-35.64s-15.957-35.64-35.64-35.64c-19.685 0-35.642 15.956-35.642 35.64S30.316 85.64 50 85.64Z" fill="#fff"/><path d="M50 68.69c-10.307 0-18.691-8.383-18.691-18.69 0-10.307 8.384-18.69 18.69-18.69 10.307 0 18.69 8.383 18.69 18.69 0 10.307-8.383 18.69-18.69 18.69Z" fill="#E21C3D"/><path d="M49.999 31.31v37.38c10.307 0 18.69-8.383 18.69-18.69 0-10.307-8.383-18.69-18.69-18.69Z" fill="#B51E23"/><path d="M44.313 52.065a2.065 2.065 0 1 0 0-4.13 2.065 2.065 0 0 0 0 4.13Z" fill="#fff"/><path d="M44.314 43.814a6.186 6.186 0 1 0 0 12.373 6.186 6.186 0 0 0 0-12.373Zm0 10.313a4.128 4.128 0 0 1 0-8.254 4.128 4.128 0 0 1 0 8.254Z" fill="#fff"/><path d="M49.304 46.9h9.469l3.094 3.097-4.643 4.646-.714-.528-2.631-2.644 1.28-.958 1.867 1.404 1.92-1.92-1.033-1.033h-8.61V46.9Z" fill="#fff"/><defs><filter id="a" x="0" y="0" width="100" height="100" filterUnits="userSpaceOnUse" color-interpolation-filters="sRGB"><feFlood flood-opacity="0" result="BackgroundImageFix"/><feColorMatrix in="SourceAlpha" values="0 0 0 0 0 0 0 0 0 0 0 0 0 0 0 0 0 0 127 0" result="hardAlpha"/><feOffset/><feGaussianBlur stdDeviation="3"/><feColorMatrix values="0 0 0 0 0 0 0 0 0 0 0 0 0 0 0 0 0 0 0.24 0"/><feBlend in2="BackgroundImageFix" result="effect1_dropShadow_119_1094"/><feBlend in="SourceGraphic" in2="effect1_dropShadow_119_1094" result="shape"/></filter></defs></svg>