<svg xmlns="http://www.w3.org/2000/svg" width="16" height="16" fill="none" viewBox="0 0 16 16"><defs><clipPath id="a"><path fill="#fff" d="M732 786h16v16h-16z"/></clipPath></defs><g clip-path="url(#a)" transform="translate(-732 -786)"><g fill="currentColor"><path d="M740 786.8a7.2 7.2 0 1 0 .001 14.401A7.2 7.2 0 0 0 740 786.8m0 12.8a5.606 5.606 0 0 1-5.6-5.6c0-3.088 2.512-5.6 5.6-5.6s5.6 2.512 5.6 5.6-2.512 5.6-5.6 5.6"/><path d="m742.496 791.2-3.328 3.36-1.664-1.68L736.4 794l2.768 2.8 4.432-4.48z"/></g></g></svg>